<?xml version="1.0" encoding="utf-8"?>
<!-- Generator: Adobe Illustrator 22.0.1, SVG Export Plug-In . SVG Version: 6.00 Build 0)  -->
<svg version="1.1" id="Слой_1" xmlns:sketch="http://www.bohemiancoding.com/sketch/ns"
	 xmlns="http://www.w3.org/2000/svg" xmlns:xlink="http://www.w3.org/1999/xlink" x="0px" y="0px" viewBox="0 0 32 32"
	 style="enable-background:new 0 0 32 32;" xml:space="preserve">
<style type="text/css">
	.st0{fill:#1379E2;}
</style>
<title></title>
<desc></desc>
<g id="Page-1">
	<g id="icon-73-documents">
		<path id="documents" class="st0" d="M23,12.5V26h4c0.6,0,1-0.4,1-1V8h-4c-1.1,0-2-0.9-2-2V1H12c-0.5,0-1,0.5-1,1v3l0,0h5.5H17l6,7
			V12.5L23,12.5L23,12.5z M10,5V2c0-1.1,0.9-2,2-2h10.5l0,0H23l6,7v0.5V25c0,1.1-0.9,2-2,2h-4v3c0,1.1-0.9,2-2,2H6c-1.1,0-2-0.9-2-2
			V7c0-1.1,0.9-2,2-2H10L10,5L10,5z M23,1.5V6c0,0.6,0.5,1,1,1h3.7L23,1.5L23,1.5z M16,6H6C5.4,6,5,6.5,5,7v23c0,0.5,0.5,1,1,1h15
			c0.6,0,1-0.4,1-1V13h-4c-1.1,0-2-0.9-2-2V6L16,6z M17,6.5V11c0,0.6,0.5,1,1,1h3.7L17,6.5L17,6.5z"/>
	</g>
</g>
</svg>
