<svg xmlns="http://www.w3.org/2000/svg" viewBox="0 0 143.35 140.35"><defs><style>.auditor-node-1-cls-1,.auditor-node-1-cls-2,.auditor-node-1-cls-3,.auditor-node-1-cls-4{fill:#d60f0f;}.auditor-node-1-cls-1{stroke:#f7333a;}.auditor-node-1-cls-1,.auditor-node-1-cls-2,.auditor-node-1-cls-21,.auditor-node-1-cls-22,.auditor-node-1-cls-3,.auditor-node-1-cls-32,.auditor-node-1-cls-4{stroke-miterlimit:10;}.auditor-node-1-cls-2{stroke:#fda23e;}.auditor-node-1-cls-3{stroke:#0096ea;}.auditor-node-1-cls-4{stroke:#c8d1d4;}.auditor-node-1-cls-5{fill:#d8e3e6;}.auditor-node-1-cls-6{fill:#2e424a;}.auditor-node-1-cls-7{fill:#2b3a43;}.auditor-node-1-cls-14,.auditor-node-1-cls-18,.auditor-node-1-cls-8{fill:#0096ea;}.auditor-node-1-cls-10,.auditor-node-1-cls-11,.auditor-node-1-cls-8{opacity:0.32;}.auditor-node-1-cls-15,.auditor-node-1-cls-22,.auditor-node-1-cls-9{fill:#f7333a;}.auditor-node-1-cls-10,.auditor-node-1-cls-16,.auditor-node-1-cls-19{fill:#fda23e;}.auditor-node-1-cls-11,.auditor-node-1-cls-17,.auditor-node-1-cls-20{fill:#c8d1d4;}.auditor-node-1-cls-12{fill:#17242a;}.auditor-node-1-cls-13,.auditor-node-1-cls-21,.auditor-node-1-cls-32{fill:none;}.auditor-node-1-cls-14,.auditor-node-1-cls-15,.auditor-node-1-cls-17,.auditor-node-1-cls-19{opacity:0.3;}.auditor-node-1-cls-21{stroke:#2e424a;}.auditor-node-1-cls-22{stroke:#152024;}.auditor-node-1-cls-23{fill:#d6323e;}.auditor-node-1-cls-24{fill:#152024;}.auditor-node-1-cls-25{fill:#ffad4a;}.auditor-node-1-cls-26{fill:#ffa245;}.auditor-node-1-cls-27{fill:#008ad9;}.auditor-node-1-cls-28{fill:#c4d5d8;}.auditor-node-1-cls-29{fill:#00b8a1;}.auditor-node-1-cls-30{fill:#c9d4d7;}.auditor-node-1-cls-31{fill:#009082;}.auditor-node-1-cls-32{stroke:#00b8a1;}</style></defs><title>auditor-node</title><g id="Слой_2" data-name="Слой 2"><g id="Слой_1-2" data-name="Слой 1"><line class="auditor-node-1-cls-1" x1="20.25" y1="26.5" x2="33.89" y2="40.14"/><line class="auditor-node-1-cls-2" x1="122.86" y1="25.75" x2="108.81" y2="39.8"/><line class="auditor-node-1-cls-3" x1="129.73" y1="107.48" x2="115.43" y2="93.18"/><line class="auditor-node-1-cls-4" x1="11.95" y1="108.09" x2="28.13" y2="91.91"/><path class="auditor-node-1-cls-5" d="M52.92,29l-23,23.3a1.16,1.16,0,0,1-1.65.05l0-.1L25.06,49.1A1.16,1.16,0,0,1,25,47.45l.1,0,23-23.29a1.16,1.16,0,0,1,1.65-.06l0,.1L53,27.32A1.39,1.39,0,0,1,52.92,29Z"/><path class="auditor-node-1-cls-6" d="M59.71,33.5l-25.65,26a1.49,1.49,0,0,1-2.09,0L22.39,50a1.57,1.57,0,0,1-.07-2.06L48,21.87a1.49,1.49,0,0,1,2.08,0l9.58,9.54a1.56,1.56,0,0,1,.17,2C59.78,33.38,59.78,33.38,59.71,33.5Z"/><path class="auditor-node-1-cls-7" d="M35.2,34.83l12.73-13a1.48,1.48,0,0,1,2.09,0l9.58,9.54a1.54,1.54,0,0,1,.16,2l-.07.12L46.94,46.46"/><path class="auditor-node-1-cls-8" d="M33.82,48.47l-3.94,4a1.32,1.32,0,0,1-1.78,0l-3.18-3.15a1.31,1.31,0,0,1,0-1.77l3.94-4a1.3,1.3,0,0,1,1.77,0l3.19,3.15A1.43,1.43,0,0,1,33.82,48.47Z"/><path class="auditor-node-1-cls-9" d="M40.09,42l-4,4a1.32,1.32,0,0,1-1.77,0l-3.18-3.15a1.32,1.32,0,0,1,0-1.77l3.95-4a1.31,1.31,0,0,1,1.77,0l3.19,3.14A1.3,1.3,0,0,1,40.09,42Z"/><path class="auditor-node-1-cls-10" d="M46.45,35.51l-3.94,4a1.31,1.31,0,0,1-1.77,0l-3.19-3.14a1.32,1.32,0,0,1,0-1.78l3.94-4a1.33,1.33,0,0,1,1.78,0l3.18,3.15A1.28,1.28,0,0,1,46.45,35.51Z"/><path class="auditor-node-1-cls-11" d="M52.72,29.05l-3.94,4a1.3,1.3,0,0,1-1.77,0l-3.19-3.15a1.31,1.31,0,0,1,0-1.77l3.94-4a1.31,1.31,0,0,1,1.77,0l3.19,3.15A1.25,1.25,0,0,1,52.72,29.05Z"/><rect class="auditor-node-1-cls-12" x="48.82" y="35.66" width="0.6" height="4.6" transform="translate(-12.37 46.48) rotate(-45.59)"/><rect class="auditor-node-1-cls-12" x="47.87" y="36.66" width="0.6" height="4.6" transform="translate(-13.37 46.11) rotate(-45.59)"/><rect class="auditor-node-1-cls-12" x="46.92" y="37.66" width="0.6" height="4.6" transform="translate(-14.37 45.73) rotate(-45.59)"/><rect class="auditor-node-1-cls-12" x="45.91" y="38.6" width="0.6" height="4.6" transform="translate(-15.34 45.29) rotate(-45.59)"/><rect class="auditor-node-1-cls-12" x="44.99" y="39.64" width="0.6" height="4.6" transform="translate(-16.37 44.95) rotate(-45.59)"/><rect class="auditor-node-1-cls-12" x="44.01" y="40.6" width="0.6" height="4.6" transform="translate(-17.34 44.54) rotate(-45.59)"/><rect class="auditor-node-1-cls-12" x="43.13" y="41.53" width="0.6" height="4.6" transform="translate(-18.27 44.19) rotate(-45.59)"/><rect class="auditor-node-1-cls-12" x="42.12" y="42.46" width="0.6" height="4.6" transform="translate(-19.24 43.74) rotate(-45.59)"/><rect class="auditor-node-1-cls-12" x="41.17" y="43.47" width="0.6" height="4.6" transform="translate(-20.24 43.37) rotate(-45.59)"/><rect class="auditor-node-1-cls-12" x="40.11" y="44.52" width="0.6" height="4.6" transform="translate(-21.31 42.93) rotate(-45.59)"/><rect class="auditor-node-1-cls-12" x="39.2" y="45.57" width="0.6" height="4.6" transform="translate(-22.34 42.59) rotate(-45.59)"/><rect class="auditor-node-1-cls-12" x="38.29" y="46.45" width="0.6" height="4.6" transform="translate(-23.24 42.2) rotate(-45.59)"/><rect class="auditor-node-1-cls-12" x="37.23" y="47.5" width="0.6" height="4.6" transform="translate(-24.31 41.76) rotate(-45.59)"/><rect class="auditor-node-1-cls-12" x="36.28" y="48.5" width="0.6" height="4.6" transform="translate(-25.31 41.39) rotate(-45.59)"/><rect class="auditor-node-1-cls-12" x="35.34" y="49.51" width="0.6" height="4.6" transform="translate(-26.31 41.01) rotate(-45.59)"/><rect class="auditor-node-1-cls-12" x="34.35" y="50.49" width="0.6" height="4.6" transform="translate(-27.31 40.6) rotate(-45.59)"/><rect class="auditor-node-1-cls-12" x="33.4" y="51.49" width="0.6" height="4.6" transform="translate(-28.31 40.23) rotate(-45.59)"/><rect class="auditor-node-1-cls-12" x="32.38" y="52.42" width="0.6" height="4.6" transform="translate(-29.28 39.78) rotate(-45.59)"/><rect class="auditor-node-1-cls-12" x="31.55" y="53.38" width="0.6" height="4.6" transform="translate(-30.21 39.47) rotate(-45.59)"/><rect class="auditor-node-1-cls-12" x="55.71" y="28.71" width="0.6" height="4.6" transform="translate(-5.33 49.32) rotate(-45.59)"/><rect class="auditor-node-1-cls-12" x="54.69" y="29.64" width="0.6" height="4.6" transform="translate(-6.31 48.87) rotate(-45.59)"/><rect class="auditor-node-1-cls-12" x="53.7" y="30.76" width="0.6" height="4.6" transform="translate(-7.4 48.51) rotate(-45.59)"/><rect class="auditor-node-1-cls-12" x="52.72" y="31.74" width="0.6" height="4.6" transform="translate(-8.4 48.09) rotate(-45.59)"/><rect class="auditor-node-1-cls-12" x="51.81" y="32.62" width="0.6" height="4.6" transform="translate(-9.3 47.71) rotate(-45.59)"/><rect class="auditor-node-1-cls-12" x="50.86" y="33.63" width="0.6" height="4.6" transform="translate(-10.3 47.34) rotate(-45.59)"/><rect class="auditor-node-1-cls-12" x="49.8" y="34.68" width="0.6" height="4.6" transform="translate(-11.37 46.9) rotate(-45.59)"/><line class="auditor-node-1-cls-13" x1="44.07" y1="31.51" x2="44.33" y2="31.34"/><path class="auditor-node-1-cls-5" d="M112.26,52.93,89.38,29.5a1.17,1.17,0,0,1,0-1.67l0-.1,3.18-3.15a1.16,1.16,0,0,1,1.67,0l.1,0L117.19,48a1.17,1.17,0,0,1,0,1.68l0,.09L114,52.92A1.31,1.31,0,0,1,112.26,52.93Z"/><path class="auditor-node-1-cls-6" d="M107.75,59.66,82.22,33.5a1.6,1.6,0,0,1,0-2.09L91.93,22A1.58,1.58,0,0,1,94,22l25.53,26.16a1.58,1.58,0,0,1,0,2.09l-9.73,9.4a1.35,1.35,0,0,1-2,.06C107.82,59.78,107.75,59.66,107.75,59.66Z"/><path class="auditor-node-1-cls-7" d="M106.9,35.2l12.71,13.06a1.58,1.58,0,0,1,0,2.09l-9.73,9.4a1.35,1.35,0,0,1-2,.06s-.1,0-.07-.12L95.2,46.74"/><path class="auditor-node-1-cls-14" d="M92.93,33.41l-4-4a1.28,1.28,0,0,1,0-1.77l3.25-3a1.28,1.28,0,0,1,1.77,0l4,4a1.28,1.28,0,0,1,0,1.77l-3.18,3.16A1.57,1.57,0,0,1,92.93,33.41Z"/><path class="auditor-node-1-cls-15" d="M99.64,39.89l-4-4a1.28,1.28,0,0,1,0-1.77l3.18-3.15a1.28,1.28,0,0,1,1.77,0l3.95,4a1.29,1.29,0,0,1,0,1.78l-3.18,3.15A1.34,1.34,0,0,1,99.64,39.89Z"/><path class="auditor-node-1-cls-16" d="M105.91,46.35l-4-4a1.28,1.28,0,0,1,0-1.77l3.18-3.15a1.28,1.28,0,0,1,1.77,0l3.95,4a1.29,1.29,0,0,1,0,1.77l-3.18,3.15A1.32,1.32,0,0,1,105.91,46.35Z"/><path class="auditor-node-1-cls-17" d="M112.29,52.84l-4-4a1.29,1.29,0,0,1,0-1.78l3.18-3.15a1.28,1.28,0,0,1,1.77,0l4,4a1.28,1.28,0,0,1,0,1.77l-3.18,3.15A1.34,1.34,0,0,1,112.29,52.84Z"/><rect class="auditor-node-1-cls-12" x="101.13" y="48.69" width="4.6" height="0.6" transform="translate(-4.71 86.46) rotate(-44.46)"/><rect class="auditor-node-1-cls-12" x="100.22" y="47.64" width="4.6" height="0.6" transform="translate(-4.24 85.52) rotate(-44.46)"/><rect class="auditor-node-1-cls-12" x="99.24" y="46.67" width="4.6" height="0.6" transform="translate(-3.83 84.56) rotate(-44.46)"/><rect class="auditor-node-1-cls-12" x="98.26" y="45.69" width="4.6" height="0.6" transform="translate(-3.43 83.59) rotate(-44.46)"/><rect class="auditor-node-1-cls-12" x="97.23" y="44.69" width="4.6" height="0.6" transform="translate(-3.02 82.58) rotate(-44.46)"/><rect class="auditor-node-1-cls-12" x="96.36" y="43.8" width="4.6" height="0.6" transform="translate(-2.65 81.72) rotate(-44.46)"/><rect class="auditor-node-1-cls-12" x="95.38" y="42.82" width="4.6" height="0.6" transform="translate(-2.24 80.75) rotate(-44.46)"/><rect class="auditor-node-1-cls-12" x="94.46" y="41.77" width="4.6" height="0.6" transform="translate(-1.77 79.81) rotate(-44.46)"/><rect class="auditor-node-1-cls-12" x="93.55" y="40.86" width="4.6" height="0.6" transform="translate(-1.4 78.91) rotate(-44.46)"/><rect class="auditor-node-1-cls-12" x="92.52" y="39.87" width="4.6" height="0.6" transform="translate(-0.99 77.9) rotate(-44.46)"/><rect class="auditor-node-1-cls-12" x="91.49" y="38.73" width="4.6" height="0.6" transform="translate(-0.49 76.86) rotate(-44.46)"/><rect class="auditor-node-1-cls-12" x="90.55" y="37.91" width="4.6" height="0.6" transform="translate(-0.19 75.97) rotate(-44.46)"/><rect class="auditor-node-1-cls-12" x="89.59" y="36.84" width="4.6" height="0.6" transform="translate(0.29 74.99) rotate(-44.46)"/><rect class="auditor-node-1-cls-12" x="88.61" y="35.86" width="4.6" height="0.6" transform="translate(0.69 74.02) rotate(-44.46)"/><rect class="auditor-node-1-cls-12" x="87.63" y="34.89" width="4.6" height="0.6" transform="translate(1.1 73.05) rotate(-44.46)"/><rect class="auditor-node-1-cls-12" x="86.67" y="33.82" width="4.6" height="0.6" transform="translate(1.57 72.07) rotate(-44.46)"/><rect class="auditor-node-1-cls-12" x="85.68" y="32.84" width="4.6" height="0.6" transform="translate(1.97 71.1) rotate(-44.46)"/><rect class="auditor-node-1-cls-12" x="84.77" y="31.93" width="4.6" height="0.6" transform="translate(2.35 70.21) rotate(-44.46)"/><rect class="auditor-node-1-cls-12" x="83.83" y="30.97" width="4.6" height="0.6" transform="translate(2.75 69.27) rotate(-44.46)"/><rect class="auditor-node-1-cls-12" x="108.02" y="55.6" width="4.6" height="0.6" transform="translate(-7.57 93.26) rotate(-44.46)"/><rect class="auditor-node-1-cls-12" x="107.11" y="54.69" width="4.6" height="0.6" transform="translate(-7.2 92.36) rotate(-44.46)"/><rect class="auditor-node-1-cls-12" x="106" y="53.62" width="4.6" height="0.6" transform="translate(-6.77 91.28) rotate(-44.46)"/><rect class="auditor-node-1-cls-12" x="105.05" y="52.55" width="4.6" height="0.6" transform="translate(-6.29 90.31) rotate(-44.46)"/><rect class="auditor-node-1-cls-12" x="104.18" y="51.67" width="4.6" height="0.6" transform="translate(-5.92 89.45) rotate(-44.46)"/><rect class="auditor-node-1-cls-12" x="103.2" y="50.69" width="4.6" height="0.6" transform="translate(-5.52 88.48) rotate(-44.46)"/><rect class="auditor-node-1-cls-12" x="102.17" y="49.69" width="4.6" height="0.6" transform="translate(-5.11 87.47) rotate(-44.46)"/><line class="auditor-node-1-cls-13" x1="109.99" y1="44.08" x2="110.13" y2="44.32"/><path class="auditor-node-1-cls-5" d="M89,108.86l23.8-22.48a1.16,1.16,0,0,1,1.65,0l0,.09,3.07,3.26a1.16,1.16,0,0,1,0,1.65l-.1,0-23.8,22.48a1.15,1.15,0,0,1-1.64,0l0-.1-3.07-3.26A1.16,1.16,0,0,1,89,108.86Z"/><path class="auditor-node-1-cls-7" d="M82.25,104.14,108.79,79a1.48,1.48,0,0,1,2.09.1L120.12,89a1.54,1.54,0,0,1,0,2.06L93.57,116.17a1.48,1.48,0,0,1-2.08-.1l-9.25-9.87a1.56,1.56,0,0,1-.09-2C82.18,104.26,82.18,104.26,82.25,104.14Z"/><path class="auditor-node-1-cls-6" d="M106.75,103.7,93.57,116.24a1.49,1.49,0,0,1-2.08-.1l-9.25-9.87a1.56,1.56,0,0,1-.09-2l.07-.12,13.2-12.44"/><path class="auditor-node-1-cls-18" d="M108.74,90.06l4.09-3.89a1.31,1.31,0,0,1,1.77.07l3.07,3.26a1.31,1.31,0,0,1-.08,1.77l-4.08,3.89a1.31,1.31,0,0,1-1.77-.07l-3.08-3.26A1.32,1.32,0,0,1,108.74,90.06Z"/><path class="auditor-node-1-cls-15" d="M102.15,96.33l4.09-3.9a1.31,1.31,0,0,1,1.77.08l3.07,3.26a1.3,1.3,0,0,1-.08,1.77l-4.08,3.89a1.3,1.3,0,0,1-1.77-.08l-3.07-3.25A1.28,1.28,0,0,1,102.15,96.33Z"/><path class="auditor-node-1-cls-19" d="M95.57,102.59l4.08-3.89a1.31,1.31,0,0,1,1.77.07l3.07,3.26a1.31,1.31,0,0,1-.07,1.77l-4.09,3.9a1.31,1.31,0,0,1-1.77-.08l-3.07-3.26A1.51,1.51,0,0,1,95.57,102.59Z"/><path class="auditor-node-1-cls-17" d="M88.72,108.74l4.08-3.9a1.31,1.31,0,0,1,1.77.08l3.08,3.26a1.31,1.31,0,0,1-.08,1.77l-4.08,3.89a1.31,1.31,0,0,1-1.77-.07l-3.08-3.26A1.31,1.31,0,0,1,88.72,108.74Z"/><rect class="auditor-node-1-cls-12" x="92.68" y="97.74" width="0.6" height="4.6" transform="translate(-43.34 91.7) rotate(-43.59)"/><rect class="auditor-node-1-cls-12" x="93.66" y="96.77" width="0.6" height="4.6" transform="translate(-42.4 92.11) rotate(-43.59)"/><rect class="auditor-node-1-cls-12" x="94.72" y="95.87" width="0.6" height="4.6" transform="translate(-41.49 92.59) rotate(-43.59)"/><rect class="auditor-node-1-cls-12" x="95.7" y="94.9" width="0.6" height="4.6" transform="translate(-40.55 93) rotate(-43.59)"/><rect class="auditor-node-1-cls-12" x="96.72" y="93.96" width="0.6" height="4.6" transform="translate(-39.62 93.44) rotate(-43.59)"/><rect class="auditor-node-1-cls-12" x="97.59" y="93.03" width="0.6" height="4.6" transform="translate(-38.74 93.78) rotate(-43.59)"/><rect class="auditor-node-1-cls-12" x="98.64" y="92.14" width="0.6" height="4.6" transform="translate(-37.84 94.26) rotate(-43.59)"/><rect class="auditor-node-1-cls-12" x="99.62" y="91.17" width="0.6" height="4.6" transform="translate(-36.9 94.67) rotate(-43.59)"/><rect class="auditor-node-1-cls-12" x="100.6" y="90.2" width="0.6" height="4.6" transform="translate(-35.96 95.08) rotate(-43.59)"/><rect class="auditor-node-1-cls-12" x="101.69" y="89.18" width="0.6" height="4.6" transform="translate(-34.96 95.55) rotate(-43.59)"/><rect class="auditor-node-1-cls-12" x="102.71" y="88.24" width="0.6" height="4.6" transform="translate(-34.02 96) rotate(-43.59)"/><rect class="auditor-node-1-cls-12" x="103.58" y="87.32" width="0.6" height="4.6" transform="translate(-33.15 96.34) rotate(-43.59)"/><rect class="auditor-node-1-cls-12" x="104.68" y="86.3" width="0.6" height="4.6" transform="translate(-32.15 96.82) rotate(-43.59)"/><rect class="auditor-node-1-cls-12" x="105.66" y="85.33" width="0.6" height="4.6" transform="translate(-31.21 97.23) rotate(-43.59)"/><rect class="auditor-node-1-cls-12" x="106.71" y="84.44" width="0.6" height="4.6" transform="translate(-30.3 97.7) rotate(-43.59)"/><rect class="auditor-node-1-cls-12" x="107.66" y="83.42" width="0.6" height="4.6" transform="translate(-29.34 98.08) rotate(-43.59)"/><rect class="auditor-node-1-cls-12" x="108.71" y="82.52" width="0.6" height="4.6" transform="translate(-28.43 98.56) rotate(-43.59)"/><rect class="auditor-node-1-cls-12" x="109.69" y="81.56" width="0.6" height="4.6" transform="translate(-27.49 98.97) rotate(-43.59)"/><rect class="auditor-node-1-cls-12" x="110.63" y="80.7" width="0.6" height="4.6" transform="translate(-26.64 99.38) rotate(-43.59)"/><rect class="auditor-node-1-cls-12" x="85.62" y="104.51" width="0.6" height="4.6" transform="translate(-49.96 88.7) rotate(-43.59)"/><rect class="auditor-node-1-cls-12" x="86.6" y="103.54" width="0.6" height="4.6" transform="translate(-49.02 89.11) rotate(-43.59)"/><rect class="auditor-node-1-cls-12" x="87.63" y="102.6" width="0.6" height="4.6" transform="translate(-48.09 89.55) rotate(-43.59)"/><rect class="auditor-node-1-cls-12" x="88.65" y="101.51" width="0.6" height="4.6" transform="translate(-47.06 89.96) rotate(-43.59)"/><rect class="auditor-node-1-cls-12" x="89.59" y="100.66" width="0.6" height="4.6" transform="translate(-46.21 90.37) rotate(-43.59)"/><rect class="auditor-node-1-cls-12" x="90.57" y="99.69" width="0.6" height="4.6" transform="translate(-45.27 90.78) rotate(-43.59)"/><rect class="auditor-node-1-cls-12" x="91.66" y="98.68" width="0.6" height="4.6" transform="translate(-44.27 91.26) rotate(-43.59)"/><line class="auditor-node-1-cls-13" x1="97.46" y1="106.58" x2="97.21" y2="106.84"/><path class="auditor-node-1-cls-5" d="M29.62,85.83l23,23.35a1.18,1.18,0,0,1,.05,1.68l0,.09-3.17,3.17a1.18,1.18,0,0,1-1.68,0l-.09,0-23-23.35a1.18,1.18,0,0,1-.05-1.68l0-.1,3.17-3.16A1.31,1.31,0,0,1,29.62,85.83Z"/><path class="auditor-node-1-cls-7" d="M34.11,79.09l25.62,26.07a1.6,1.6,0,0,1,0,2.09l-9.7,9.43a1.58,1.58,0,0,1-2.09,0L22.36,90.65a1.58,1.58,0,0,1,0-2.09L32,79.13a1.35,1.35,0,0,1,2-.07C34,79,34.13,79,34.11,79.09Z"/><path class="auditor-node-1-cls-6" d="M35.14,103.57l-12.76-13a1.61,1.61,0,0,1,0-2.09L32.05,79A1.35,1.35,0,0,1,34,79a.11.11,0,0,1,.07.13L46.8,92"/><path class="auditor-node-1-cls-14" d="M48.68,105.29l4,4a1.29,1.29,0,0,1,0,1.77l-3.17,3.16a1.28,1.28,0,0,1-1.77,0l-4-4a1.3,1.3,0,0,1,0-1.78l3.17-3.16A1.15,1.15,0,0,1,48.68,105.29Z"/><path class="auditor-node-1-cls-15" d="M42.38,98.85l4,4a1.28,1.28,0,0,1,0,1.77L43.2,107.8a1.28,1.28,0,0,1-1.77,0l-4-4a1.28,1.28,0,0,1,0-1.77l3.17-3.16A1.28,1.28,0,0,1,42.38,98.85Z"/><path class="auditor-node-1-cls-19" d="M36,92.39l4,4a1.28,1.28,0,0,1,0,1.77l-3.17,3.16a1.28,1.28,0,0,1-1.77,0l-4-4a1.3,1.3,0,0,1,0-1.78l3.17-3.16A1.31,1.31,0,0,1,36,92.39Z"/><path class="auditor-node-1-cls-20" d="M29.69,86l4,4a1.29,1.29,0,0,1,0,1.77L30.51,94.9a1.28,1.28,0,0,1-1.77,0l-4-4a1.29,1.29,0,0,1,0-1.77L27.92,86A1.28,1.28,0,0,1,29.69,86Z"/><rect class="auditor-node-1-cls-12" x="36.21" y="89.47" width="4.6" height="0.6" transform="translate(-51.97 52.97) rotate(-44.65)"/><rect class="auditor-node-1-cls-12" x="37.19" y="90.44" width="4.6" height="0.6" transform="translate(-52.37 53.94) rotate(-44.65)"/><rect class="auditor-node-1-cls-12" x="38.11" y="91.35" width="4.6" height="0.6" transform="translate(-52.74 54.85) rotate(-44.65)"/><rect class="auditor-node-1-cls-12" x="39.1" y="92.32" width="4.6" height="0.6" transform="translate(-53.14 55.82) rotate(-44.65)"/><rect class="auditor-node-1-cls-12" x="40.06" y="93.38" width="4.6" height="0.6" transform="translate(-53.61 56.81) rotate(-44.65)"/><rect class="auditor-node-1-cls-12" x="41" y="94.34" width="4.6" height="0.6" transform="translate(-54.02 57.74) rotate(-44.65)"/><rect class="auditor-node-1-cls-12" x="41.92" y="95.25" width="4.6" height="0.6" transform="translate(-54.39 58.65) rotate(-44.65)"/><rect class="auditor-node-1-cls-12" x="42.9" y="96.22" width="4.6" height="0.6" transform="translate(-54.79 59.62) rotate(-44.65)"/><rect class="auditor-node-1-cls-12" x="43.89" y="97.2" width="4.6" height="0.6" transform="translate(-55.19 60.6) rotate(-44.65)"/><rect class="auditor-node-1-cls-12" x="44.85" y="98.26" width="4.6" height="0.6" transform="translate(-55.66 61.58) rotate(-44.65)"/><rect class="auditor-node-1-cls-12" x="45.89" y="99.25" width="4.6" height="0.6" transform="translate(-56.06 62.59) rotate(-44.65)"/><rect class="auditor-node-1-cls-12" x="46.76" y="100.14" width="4.6" height="0.6" transform="translate(-56.43 63.46) rotate(-44.65)"/><rect class="auditor-node-1-cls-12" x="47.86" y="101.21" width="4.6" height="0.6" transform="translate(-56.86 64.54) rotate(-44.65)"/><rect class="auditor-node-1-cls-12" x="48.78" y="102.11" width="4.6" height="0.6" transform="translate(-57.23 65.45) rotate(-44.65)"/><rect class="auditor-node-1-cls-12" x="49.69" y="103.16" width="4.6" height="0.6" transform="translate(-57.7 66.39) rotate(-44.65)"/><rect class="auditor-node-1-cls-12" x="50.73" y="104.15" width="4.6" height="0.6" transform="translate(-58.1 67.41) rotate(-44.65)"/><rect class="auditor-node-1-cls-12" x="51.71" y="105.12" width="4.6" height="0.6" transform="translate(-58.5 68.38) rotate(-44.65)"/><rect class="auditor-node-1-cls-12" x="52.7" y="106.1" width="4.6" height="0.6" transform="translate(-58.9 69.36) rotate(-44.65)"/><rect class="auditor-node-1-cls-12" x="53.57" y="106.99" width="4.6" height="0.6" transform="translate(-59.28 70.22) rotate(-44.65)"/><rect class="auditor-node-1-cls-12" x="29.3" y="82.44" width="4.6" height="0.6" transform="translate(-49.03 46.09) rotate(-44.65)"/><rect class="auditor-node-1-cls-12" x="30.29" y="83.42" width="4.6" height="0.6" transform="translate(-49.43 47.06) rotate(-44.65)"/><rect class="auditor-node-1-cls-12" x="31.25" y="84.48" width="4.6" height="0.6" transform="translate(-49.9 48.04) rotate(-44.65)"/><rect class="auditor-node-1-cls-12" x="32.28" y="85.47" width="4.6" height="0.6" transform="translate(-50.3 49.06) rotate(-44.65)"/><rect class="auditor-node-1-cls-12" x="33.22" y="86.43" width="4.6" height="0.6" transform="translate(-50.7 49.99) rotate(-44.65)"/><rect class="auditor-node-1-cls-12" x="34.14" y="87.34" width="4.6" height="0.6" transform="translate(-51.07 50.9) rotate(-44.65)"/><rect class="auditor-node-1-cls-12" x="35.24" y="88.4" width="4.6" height="0.6" transform="translate(-51.5 51.98) rotate(-44.65)"/><line class="auditor-node-1-cls-13" x1="31.92" y1="94.68" x2="31.78" y2="94.43"/><rect class="auditor-node-1-cls-21" x="50.11" y="49.93" width="41.67" height="38.93"/><polyline class="auditor-node-1-cls-21" points="50.11 49.93 91.78 88.93 91.78 49.93 50.11 88.93"/><circle class="auditor-node-1-cls-22" cx="92.16" cy="49.63" r="2.5"/><circle class="auditor-node-1-cls-22" cx="50.11" cy="49.63" r="2.5"/><circle class="auditor-node-1-cls-22" cx="92.16" cy="89.03" r="2.5"/><circle class="auditor-node-1-cls-22" cx="50.11" cy="89.03" r="2.5"/><path class="auditor-node-1-cls-6" d="M38,12.27,12,37.83a1.54,1.54,0,0,1-2.12,0L.42,28.14A1.54,1.54,0,0,1,.43,26L26.48.45a1.54,1.54,0,0,1,2.12,0L38,10.14a1.44,1.44,0,0,1,.13,2Z"/><path class="auditor-node-1-cls-7" d="M13.49,13.2,26.45.42a1.54,1.54,0,0,1,2.12,0L38,10.11a1.44,1.44,0,0,1,.13,2l-.07.07L25.15,24.88"/><line class="auditor-node-1-cls-13" x1="22.28" y1="10.07" x2="22.49" y2="9.86"/><rect class="auditor-node-1-cls-9" x="1.08" y="12.45" width="36.27" height="13.33" rx="1" ry="1" transform="translate(-7.89 19.01) rotate(-44.62)"/><path class="auditor-node-1-cls-9" d="M24,23.76l-12.13,12a1,1,0,0,1-1.41,0l-8-8.07a1,1,0,0,1,0-1.41L14.59,14.31"/><path class="auditor-node-1-cls-23" d="M14.59,14.31,26.9,2.16a1,1,0,0,1,1.42,0l8,8.07a1,1,0,0,1,0,1.41L24,23.76"/><g id="hash"><path class="auditor-node-1-cls-24" d="M11.8,25.25l-.52-.53-.63.63-.84-1.06-.52.52.83,1.06-.95.94-.83-1.06-.42.42.83,1-.85.83.52.53.74-.73L10,28.91l-.63.62.52.53.63-.63.84,1.06.52-.52L11,28.91,12,28,12.82,29l.53-.52-.83-1.05.84-.84-.52-.52-.74.72-.83-1.05Zm-.23,2.29-.94.95-.84-1,.94-.95Z"/></g><line class="auditor-node-1-cls-13" x1="5.36" y1="21.19" x2="6.86" y2="22.71"/><line class="auditor-node-1-cls-13" x1="24.56" y1="33.96" x2="23.43" y2="32.83"/><path class="auditor-node-1-cls-24" d="M21.41,16.69a1.58,1.58,0,0,0-2.25,0,1.6,1.6,0,0,0-.29,1.84L16.41,21v.72h1.38v-.67h.67v-.67h.67V19.7l.45-.46a1.59,1.59,0,0,0,1.83-2.55Zm-.5,1.19a.48.48,0,1,1,0-.68A.48.48,0,0,1,20.91,17.88Z"/><path class="auditor-node-1-cls-24" d="M29.1,10.7l-.25.24a.7.7,0,0,1-1,0l-.15-.16a1.8,1.8,0,0,0-.21-.68.22.22,0,0,1,0-.11.44.44,0,0,0-.32-.42s-.06,0-.08,0l-.44-.44A1.06,1.06,0,0,0,26,8.77a1,1,0,0,0-.57.18,1.77,1.77,0,0,0-.54.55,1,1,0,0,0-.13.65,1.1,1.1,0,0,0,.27.51l.44.45s0,.07,0,.11a.44.44,0,0,0,.45.31s.08,0,.12,0a1.75,1.75,0,0,0,.63.18l.16.17a.7.7,0,0,1,0,1l-.25.25a1.88,1.88,0,0,0,0,1.49l.25.25a.35.35,0,0,0,.49,0l3.51-3.45a.36.36,0,0,0,0-.5l-.25-.25A1.9,1.9,0,0,0,29.1,10.7Z"/><path class="auditor-node-1-cls-6" d="M131.14,38l-25.7-25.91a1.53,1.53,0,0,1,0-2.12L115.07.51a1.53,1.53,0,0,1,2.12,0l25.7,25.91a1.54,1.54,0,0,1,0,2.13L133.26,38a1.45,1.45,0,0,1-2,.14Z"/><path class="auditor-node-1-cls-7" d="M130.08,13.5l12.85,12.89a1.54,1.54,0,0,1,0,2.12L133.29,38a1.43,1.43,0,0,1-2,.14l-.07-.07L118.46,25.23"/><line class="auditor-node-1-cls-13" x1="133.25" y1="22.27" x2="133.46" y2="22.48"/><rect class="auditor-node-1-cls-16" x="106.05" y="12.59" width="36.27" height="13.33" rx="1" ry="1" transform="translate(50.13 -82.28) rotate(45.08)"/><path class="auditor-node-1-cls-25" d="M119.59,24.09,107.37,11.83a1,1,0,0,1,0-1.42l8-8a1,1,0,0,1,1.41,0L129,14.58"/><path class="auditor-node-1-cls-26" d="M129,14.58,141,26.68a1,1,0,0,1,0,1.41l-8,8a1,1,0,0,1-1.41,0l-12-12"/><g id="hash-2" data-name="hash"><path class="auditor-node-1-cls-24" d="M118,11.87l.52-.52-.63-.63,1-.84-.52-.52-1,.84-.94-.95,1-.84L117.08,8l-1,.84L115.19,8l-.52.52.73.74-1.05.84-.63-.63-.52.52.63.63-1,.84.52.52,1-.84.94.95-1.05.84.53.52,1-.84.83.84.53-.52-.74-.73,1-.84Zm-2.29-.21-1-.94,1-.85,1,.94Z"/></g><line class="auditor-node-1-cls-13" x1="116.1" y1="9.58" x2="114.58" y2="11.09"/><line class="auditor-node-1-cls-13" x1="100.04" y1="31.5" x2="99" y2="30.29"/><path class="auditor-node-1-cls-24" d="M126.65,21.57A1.59,1.59,0,0,0,124.8,19l-2.48-2.46h-.71V18h.67v.67H123v.67h.67l.46.45a1.59,1.59,0,0,0,2.56,1.83Zm-1.19-.5a.48.48,0,0,1,0-.68.49.49,0,0,1,.68,0,.48.48,0,0,1,0,.68A.49.49,0,0,1,125.46,21.07Z"/><path class="auditor-node-1-cls-24" d="M132.66,29.1l-.25-.25a.71.71,0,0,1,0-1l.16-.16a1.64,1.64,0,0,0,.68-.21.22.22,0,0,1,.11,0,.45.45,0,0,0,.42-.32s0-.06,0-.08l.43-.44a1,1,0,0,0,.32-.66,1.07,1.07,0,0,0-.18-.58,1.85,1.85,0,0,0-.55-.53.93.93,0,0,0-.65-.12,1,1,0,0,0-.51.27l-.45.44s-.07,0-.11,0a.44.44,0,0,0-.31.45.16.16,0,0,1,0,.12,1.75,1.75,0,0,0-.18.63l-.16.16a.7.7,0,0,1-1,0l-.25-.25a1.86,1.86,0,0,0-1.49,0l-.25.24a.36.36,0,0,0,0,.5l3.47,3.49a.35.35,0,0,0,.5,0l.25-.24A1.86,1.86,0,0,0,132.66,29.1Z"/><path class="auditor-node-1-cls-7" d="M105.16,128l26.38-25.23a1.54,1.54,0,0,1,2.12,0l9.29,9.8a1.55,1.55,0,0,1,0,2.12l-26.39,25.22a1.53,1.53,0,0,1-2.12,0l-9.28-9.8a1.43,1.43,0,0,1-.1-2Z"/><path class="auditor-node-1-cls-6" d="M129.68,127.33,116.56,140a1.55,1.55,0,0,1-2.13,0l-9.28-9.8a1.44,1.44,0,0,1-.1-2l.07-.07,13-12.54"/><line class="auditor-node-1-cls-13" x1="120.85" y1="130.34" x2="120.64" y2="130.55"/><path class="auditor-node-1-cls-18" d="M128.5,126.3,116.3,138a1,1,0,0,1-1.41,0L107,129.82a1,1,0,0,1,0-1.41l12.24-11.76"/><path class="auditor-node-1-cls-27" d="M119.3,116.65l12.47-12a1,1,0,0,1,1.41,0l7.86,8.17a1,1,0,0,1,0,1.41l-12.51,12"/><line class="auditor-node-1-cls-13" x1="137.72" y1="120.08" x2="136.28" y2="118.51"/><line class="auditor-node-1-cls-13" x1="103.44" y1="130.11" x2="104.61" y2="129.02"/><path class="auditor-node-1-cls-24" d="M126.36,119.36a1.59,1.59,0,0,0-2.6,1.76l-2.54,2.4,0,.71,1.38,0,0-.67.67,0,0-.67.67,0,0-.67.47-.45a1.59,1.59,0,0,0,1.91-2.49Zm-.54,1.17a.49.49,0,0,1-.68,0,.47.47,0,0,1,0-.68.48.48,0,0,1,.66.7Z"/><path class="auditor-node-1-cls-24" d="M118,128.73l-.26.24a.7.7,0,0,1-1,0l-.16-.17a1.7,1.7,0,0,0-.19-.69s0-.07,0-.11a.44.44,0,0,0-.32-.42s-.06,0-.08,0l-.43-.44a.91.91,0,0,0-1.23-.16,1.64,1.64,0,0,0-.54.54.92.92,0,0,0-.14.65,1.07,1.07,0,0,0,.26.52l.44.45s0,.07,0,.11a.44.44,0,0,0,.44.32s.08,0,.12,0a1.72,1.72,0,0,0,.62.19l.16.17a.7.7,0,0,1,0,1l-.25.25a1.86,1.86,0,0,0,0,1.49l.24.25a.35.35,0,0,0,.5,0l3.55-3.4a.35.35,0,0,0,0-.5l-.24-.25A1.85,1.85,0,0,0,118,128.73Z"/><path class="auditor-node-1-cls-7" d="M12.18,102.34,38,128.17a1.54,1.54,0,0,1,0,2.12l-9.6,9.49a1.54,1.54,0,0,1-2.12,0L.47,114a1.54,1.54,0,0,1,0-2.12l9.6-9.5a1.44,1.44,0,0,1,2-.14Z"/><path class="auditor-node-1-cls-6" d="M13.33,126.84.43,114a1.54,1.54,0,0,1,0-2.12l9.6-9.49a1.43,1.43,0,0,1,2-.15l.08.07L24.9,115.08"/><line class="auditor-node-1-cls-13" x1="9.78" y1="119.31" x2="9.56" y2="119.1"/><path class="auditor-node-1-cls-5" d="M14.57,125.87,2.35,113.7a1,1,0,0,1,0-1.42l8-8a1,1,0,0,1,1.41,0l12,11.93"/><path class="auditor-node-1-cls-28" d="M23.73,116.18,36,128.44a1,1,0,0,1,0,1.41l-8,8a1,1,0,0,1-1.41,0l-12.06-12"/><path class="auditor-node-1-cls-24" d="M21.1,123.72a1.59,1.59,0,0,0-.05-2.25,1.61,1.61,0,0,0-1.85-.25l-2.52-2.41-.72,0,0,1.38.67,0v.68l.68,0v.67l.67,0,.47.45a1.6,1.6,0,0,0,.35,1.83A1.58,1.58,0,0,0,21.1,123.72Zm-1.19-.47a.48.48,0,1,1,.66-.7.48.48,0,0,1-.66.7Z"/><g id="hash-3" data-name="hash"><path class="auditor-node-1-cls-24" d="M25.39,128.43l-.52.52.63.63-1.05.84.53.52,1-.84L27,131l-1,.84.42.42,1.05-.84.84.84.52-.53L28,131l1-.84.63.63.53-.53-.63-.62,1-.84-.52-.53-1.05.84-.94-.94,1-.84-.52-.52-1.05.84-.84-.84-.52.53.73.73-1,.84Zm2.29.21,1,.93-1,.85-1-.93Z"/></g><path class="auditor-node-1-cls-24" d="M11.68,115.23l-.25-.25a.71.71,0,0,1,0-1l.16-.16a1.85,1.85,0,0,0,.69-.21s.07,0,.11,0a.43.43,0,0,0,.41-.33s0-.06,0-.08l.44-.44a1,1,0,0,0,.31-.67,1.07,1.07,0,0,0-.18-.57,2,2,0,0,0-.56-.53,1,1,0,0,0-.64-.12,1.13,1.13,0,0,0-.52.27l-.44.45s-.08,0-.11,0a.44.44,0,0,0-.31.45s0,.08,0,.12a1.75,1.75,0,0,0-.18.63l-.16.16a.69.69,0,0,1-1,0l-.25-.24a1.87,1.87,0,0,0-1.49,0l-.25.24a.35.35,0,0,0,0,.5L10.94,117a.34.34,0,0,0,.49,0l.25-.25A1.87,1.87,0,0,0,11.68,115.23Z"/><g id="hash-4" data-name="hash"><path class="auditor-node-1-cls-24" d="M133.86,111.22l-.56-.49-.59.66-.89-1-.5.56.89,1-.89,1-.89-1-.4.44.9,1-.8.88.55.5.7-.77.89,1-.59.66.55.49.59-.66.89,1,.5-.56-.89-1,.89-1,.89,1,.5-.55-.9-1,.8-.88L135,112l-.7.77-.89-1Zm-.1,2.3-.88,1-.9-1,.88-1Z"/></g><path class="auditor-node-1-cls-5" d="M132.76,97.23a4.45,4.45,0,0,0,0,8.89"/><path class="auditor-node-1-cls-29" d="M132.76,102.94l-.67.66a.35.35,0,0,1-.26.11.34.34,0,0,1-.25-.11l-1.73-1.72a.19.19,0,0,1,0-.26l.26-.26a.19.19,0,0,1,.26,0l1.46,1.46.93-.92"/><path class="auditor-node-1-cls-30" d="M132.82,106.79a5,5,0,0,0,0-10"/><path class="auditor-node-1-cls-5" d="M132.82,96.78a5,5,0,1,0,0,10"/><path class="auditor-node-1-cls-29" d="M132.81,102.92l-.57.58a.34.34,0,0,1-.46,0l-1.5-1.5a.17.17,0,0,1,0-.23h0l.23-.23a.17.17,0,0,1,.23,0l1.27,1.27.8-.8"/><path class="auditor-node-1-cls-31" d="M132.81,102l1.76-1.75a.14.14,0,0,1,.22,0h0l.23.23a.16.16,0,0,1,0,.23h0l-2.2,2.21"/><circle class="auditor-node-1-cls-32" cx="132.82" cy="101.75" r="4.56"/><path class="auditor-node-1-cls-5" d="M104.82,6.16a4.44,4.44,0,1,0,0,8.88"/><path class="auditor-node-1-cls-29" d="M104.82,11.87l-.66.66a.36.36,0,0,1-.52,0l-1.72-1.72a.17.17,0,0,1,0-.26l.26-.26a.18.18,0,0,1,.25,0l1.47,1.46.92-.93"/><path class="auditor-node-1-cls-30" d="M104.88,15.72a5,5,0,1,0,0-10"/><path class="auditor-node-1-cls-5" d="M104.88,5.71a5,5,0,0,0,0,10"/><path class="auditor-node-1-cls-29" d="M104.88,11.85l-.58.58a.33.33,0,0,1-.45,0l-1.5-1.5a.17.17,0,0,1,0-.23h0l.23-.23a.16.16,0,0,1,.22,0l1.27,1.27.81-.8"/><path class="auditor-node-1-cls-31" d="M104.88,10.94l1.75-1.76a.17.17,0,0,1,.23,0h0l.23.24a.16.16,0,0,1,0,.22h0l-2.21,2.2"/><circle class="auditor-node-1-cls-32" cx="104.88" cy="10.67" r="4.56"/><path class="auditor-node-1-cls-5" d="M10.62,33.92a4.45,4.45,0,0,0,0,8.89"/><path class="auditor-node-1-cls-29" d="M10.62,39.63l-.66.66a.36.36,0,0,1-.52,0L7.71,38.57a.19.19,0,0,1,0-.26L8,38.05a.19.19,0,0,1,.26,0L9.7,39.51l.92-.92"/><path class="auditor-node-1-cls-30" d="M10.68,43.48a5,5,0,0,0,0-10"/><path class="auditor-node-1-cls-5" d="M10.68,33.47a5,5,0,1,0,0,10"/><path class="auditor-node-1-cls-29" d="M10.68,39.61l-.58.58a.34.34,0,0,1-.46,0l-1.49-1.5a.15.15,0,0,1,0-.23h0l.22-.23a.17.17,0,0,1,.23,0L9.87,39.5l.81-.8"/><path class="auditor-node-1-cls-31" d="M10.68,38.7,12.43,37a.16.16,0,0,1,.23,0h0l.23.23a.17.17,0,0,1,0,.23h0l-2.21,2.21"/><circle class="auditor-node-1-cls-32" cx="10.68" cy="38.43" r="4.56"/><path class="auditor-node-1-cls-5" d="M38.6,125a4.44,4.44,0,0,0,0,8.88"/><path class="auditor-node-1-cls-29" d="M38.6,130.68l-.66.66a.36.36,0,0,1-.52,0l-1.72-1.72a.17.17,0,0,1,0-.26l.25-.26a.19.19,0,0,1,.26,0l1.47,1.46.92-.93"/><path class="auditor-node-1-cls-30" d="M38.66,134.53a5,5,0,1,0,0-10"/><path class="auditor-node-1-cls-5" d="M38.66,124.52a5,5,0,1,0,0,10"/><path class="auditor-node-1-cls-29" d="M38.66,130.66l-.58.58a.34.34,0,0,1-.46,0l-1.49-1.5a.16.16,0,0,1,0-.23h0l.23-.23a.16.16,0,0,1,.22,0l1.27,1.27.81-.8"/><path class="auditor-node-1-cls-31" d="M38.66,129.75,40.41,128a.17.17,0,0,1,.23,0h0l.23.24a.17.17,0,0,1,0,.23h0l-2.21,2.2"/><circle class="auditor-node-1-cls-32" cx="38.66" cy="129.48" r="4.56"/></g></g></svg>