<svg xmlns="http://www.w3.org/2000/svg" viewBox="0 0 177.09 161.62"><defs><style>.bonus-systems-cls-1{fill:#fff;}.bonus-systems-cls-2,.bonus-systems-cls-8{fill:#00b8a1;}.bonus-systems-cls-2,.bonus-systems-cls-3{stroke:#152024;}.bonus-systems-cls-10,.bonus-systems-cls-2,.bonus-systems-cls-3{stroke-miterlimit:10;}.bonus-systems-cls-3,.bonus-systems-cls-9{fill:#009082;}.bonus-systems-cls-4{fill:#0096ea;}.bonus-systems-cls-5{fill:#008ad9;}.bonus-systems-cls-6{fill:#c9d4d7;}.bonus-systems-cls-7{fill:#acb5b7;}.bonus-systems-cls-10{fill:none;stroke:#098271;}.bonus-systems-cls-11{fill:#008270;}</style></defs><title>bonus-system</title><g id="Слой_2" data-name="Слой 2"><g id="Слой_1-2" data-name="Слой 1"><ellipse class="bonus-systems-cls-1" cx="39.91" cy="107.19" rx="6.74" ry="6.28" transform="translate(-0.34 0.13) rotate(-0.18)"/><circle class="bonus-systems-cls-2" cx="39.91" cy="106.61" r="5.93"/><circle class="bonus-systems-cls-2" cx="39.91" cy="106.61" r="5.93"/><path class="bonus-systems-cls-3" d="M39.91,100.68a5.93,5.93,0,0,1,0,11.85"/><rect class="bonus-systems-cls-1" x="32.24" y="100.21" width="15.22" height="10.23"/><ellipse class="bonus-systems-cls-1" cx="137.48" cy="107.19" rx="6.74" ry="6.28" transform="translate(-0.34 0.43) rotate(-0.18)"/><circle class="bonus-systems-cls-2" cx="137.48" cy="106.61" r="5.93"/><circle class="bonus-systems-cls-2" cx="137.37" cy="106.61" r="5.93"/><path class="bonus-systems-cls-3" d="M137.37,100.68a5.93,5.93,0,1,1,0,11.85"/><rect class="bonus-systems-cls-1" x="129.7" y="100.21" width="15.22" height="10.23"/><g id="Слой_2-2" data-name="Слой 2"><g id="Слой_1-2-2" data-name="Слой 1-2"><path class="bonus-systems-cls-4" d="M49.55,100.21H47.46a3.86,3.86,0,0,1-3.83-3.83h0V95.22a10,10,0,0,0,1.85-3.49c0-.23.24-.35.35-.46a2.31,2.31,0,0,0,.35-2.79c0-.12-.23-.24-.23-.47V84.64a5.54,5.54,0,0,0-1.39-3.72,5.46,5.46,0,0,0-2.91-1.51,10.16,10.16,0,0,0-4.18.12,5,5,0,0,0-2.91,2,5.78,5.78,0,0,0-.93,3V87.9c0,.23-.12.34-.23.58a2.32,2.32,0,0,0,.58,2.9c.23.12.23.35.35.58a8,8,0,0,0,1.51,2.79.88.88,0,0,1,.23.58h0a4.71,4.71,0,0,1-4.76,4.77H30.14c-.69.23-3.48,1.51-5.46,5.46a.74.74,0,0,0-.11.47v1.74a1.84,1.84,0,0,0,1.86,1.86H53a1.84,1.84,0,0,0,1.86-1.86h0v-1.63a.67.67,0,0,0-.12-.46A10.21,10.21,0,0,0,49.55,100.21Z"/><path class="bonus-systems-cls-5" d="M39.91,109.63H53.16A1.83,1.83,0,0,0,55,107.78h0v-1.62a.73.73,0,0,0-.11-.46c-2-3.93-4.77-5.2-5.46-5.43h-2.1a3.85,3.85,0,0,1-3.83-3.81h0V95.19a10.15,10.15,0,0,0,1.86-3.47c0-.23.23-.34.35-.46a2.3,2.3,0,0,0,.35-2.77c0-.12-.24-.23-.24-.46V84.68a5,5,0,0,0-4.3-5.2,9.75,9.75,0,0,0-1.86-.23"/><path class="bonus-systems-cls-6" d="M25,152.2h-2.1a3.86,3.86,0,0,1-3.83-3.83h0v-1.16a10.24,10.24,0,0,0,1.86-3.49c0-.23.23-.35.35-.46a2.31,2.31,0,0,0,.35-2.79c0-.12-.24-.24-.24-.47v-3.37A5.49,5.49,0,0,0,20,132.91a5.39,5.39,0,0,0-2.91-1.51,10.16,10.16,0,0,0-4.18.12,5.07,5.07,0,0,0-2.91,2,5.78,5.78,0,0,0-.92,3v3.37c0,.23-.12.34-.24.58a2.33,2.33,0,0,0,.58,2.9c.24.12.24.35.35.58a8.19,8.19,0,0,0,1.51,2.79.88.88,0,0,1,.24.58h0a4.72,4.72,0,0,1-4.77,4.77H5.58c-.7.23-3.49,1.51-5.46,5.46A.7.7,0,0,0,0,158v1.74a1.84,1.84,0,0,0,1.86,1.86H28.47a1.84,1.84,0,0,0,1.86-1.86h0v-1.63a.72.72,0,0,0-.11-.46A10.28,10.28,0,0,0,25,152.2Z"/><path class="bonus-systems-cls-7" d="M15.34,161.62H28.59a1.83,1.83,0,0,0,1.86-1.85h0v-1.62a.68.68,0,0,0-.12-.46c-2-3.93-4.76-5.2-5.46-5.43H22.78a3.86,3.86,0,0,1-3.84-3.81h0v-1.27a9.89,9.89,0,0,0,1.86-3.47c0-.23.24-.34.35-.46a2.28,2.28,0,0,0,.35-2.77c0-.12-.23-.23-.23-.46v-3.35a5.44,5.44,0,0,0-1.4-3.7,5.38,5.38,0,0,0-2.9-1.5,10.75,10.75,0,0,0-1.86-.23"/><path class="bonus-systems-cls-6" d="M74.34,152.2H72.25a3.87,3.87,0,0,1-3.84-3.83h0v-1.16a10.07,10.07,0,0,0,1.86-3.49c0-.23.24-.35.35-.46a2.31,2.31,0,0,0,.35-2.79c0-.12-.23-.24-.23-.47v-3.37a5.5,5.5,0,0,0-1.4-3.72,5.4,5.4,0,0,0-2.9-1.51,10.21,10.21,0,0,0-4.19.12,5,5,0,0,0-2.9,2,5.79,5.79,0,0,0-.93,3v3.37c0,.23-.12.34-.23.58a2.32,2.32,0,0,0,.58,2.9c.23.12.23.35.35.58a8,8,0,0,0,1.51,2.79.93.93,0,0,1,.23.58h0a4.71,4.71,0,0,1-4.77,4.77H54.93c-.69.23-3.48,1.51-5.46,5.46a.7.7,0,0,0-.12.47v1.74a1.84,1.84,0,0,0,1.86,1.86H77.83a1.84,1.84,0,0,0,1.86-1.86h0v-1.63a.67.67,0,0,0-.12-.46A10.21,10.21,0,0,0,74.34,152.2Z"/><path class="bonus-systems-cls-7" d="M64.69,161.62H77.94a1.83,1.83,0,0,0,1.86-1.85h0v-1.62a.73.73,0,0,0-.11-.46c-2-3.93-4.77-5.2-5.47-5.43H72.13a3.85,3.85,0,0,1-3.83-3.81h0v-1.27a10.06,10.06,0,0,0,1.86-3.47c0-.23.23-.34.35-.46a2.28,2.28,0,0,0,.34-2.77c0-.12-.23-.23-.23-.46v-3.35a5,5,0,0,0-4.3-5.2,10.75,10.75,0,0,0-1.86-.23"/><path class="bonus-systems-cls-4" d="M147.13,100.21H145a3.87,3.87,0,0,1-3.84-3.83h0V95.1a10.07,10.07,0,0,0,1.86-3.49c0-.23.24-.34.35-.46a2.31,2.31,0,0,0,.35-2.79c0-.12-.23-.23-.23-.46V84.52a5.46,5.46,0,0,0-1.4-3.71,5.33,5.33,0,0,0-2.9-1.51,10,10,0,0,0-4.19.11,5.06,5.06,0,0,0-2.9,2,5.75,5.75,0,0,0-.93,3v3.37c0,.23-.12.35-.23.58a2.45,2.45,0,0,0,.58,2.91c.23.23.23.46.35.69a7.87,7.87,0,0,0,1.51,2.79.93.93,0,0,1,.23.58h0a4.71,4.71,0,0,1-4.77,4.77h-1.16c-.7.23-3.48,1.51-5.46,5.46a.7.7,0,0,0-.12.47v1.74a1.84,1.84,0,0,0,1.86,1.86h26.62a1.84,1.84,0,0,0,1.86-1.86h0v-1.63a.67.67,0,0,0-.12-.46C150.62,101.61,147.83,100.45,147.13,100.21Z"/><path class="bonus-systems-cls-5" d="M137.47,109.63h13.26a1.83,1.83,0,0,0,1.86-1.86h0v-1.62a.7.7,0,0,0-.11-.46c-2-4-4.77-5.22-5.47-5.45h-2.1a3.87,3.87,0,0,1-3.84-3.83h0V95.13a10,10,0,0,0,1.87-3.47c0-.24.23-.35.34-.47a2.28,2.28,0,0,0,.35-2.78c0-.12-.23-.23-.23-.46V84.58a5.07,5.07,0,0,0-4.3-5.22,10.86,10.86,0,0,0-1.87-.23"/></g></g><ellipse class="bonus-systems-cls-1" cx="88.61" cy="43.54" rx="9.82" ry="9.44" transform="translate(-0.29 0.6) rotate(-0.39)"/><circle class="bonus-systems-cls-2" cx="88.61" cy="42.09" r="8.57"/><circle class="bonus-systems-cls-2" cx="88.49" cy="42.09" r="8.57"/><path class="bonus-systems-cls-3" d="M88.49,33.52a8.57,8.57,0,1,1,0,17.13"/><rect class="bonus-systems-cls-1" x="77.41" y="32.95" width="22.16" height="14.85"/><g id="Слой_2-3" data-name="Слой 2"><g id="Слой_1-2-3" data-name="Слой 1-2"><path class="bonus-systems-cls-8" d="M103,32.38h-3a6,6,0,0,1-5.94-5.94h0V24.5a15.8,15.8,0,0,0,2.85-5.25c0-.34.35-.46.57-.69A3.45,3.45,0,0,0,98,14.22c0-.22-.34-.34-.34-.68V8.4a8.43,8.43,0,0,0-2.17-5.83A7.69,7.69,0,0,0,91,.29a15,15,0,0,0-6.39.12A7.81,7.81,0,0,0,80,3.49a8.36,8.36,0,0,0-1.37,4.68v5.25c0,.35-.23.58-.34.92a3.66,3.66,0,0,0,.8,4.45c.34.23.34.57.45,1a14.6,14.6,0,0,0,2.63,4.68v1.94a6,6,0,0,1-5.82,5.94h-3s-5.26,1.49-8.8,8.8v3a3,3,0,0,0,3,3h41a2.94,2.94,0,0,0,3-3h0V41.29C108.36,33.87,103,32.38,103,32.38Z"/><path class="bonus-systems-cls-9" d="M88.26,47.11h20.45a3,3,0,0,0,3-3h0V41.29c-3.43-7.31-8.8-8.79-8.8-8.79H100a6,6,0,0,1-5.94-5.94h0V24.62a15.84,15.84,0,0,0,2.85-5.26c0-.34.35-.45.57-.68A3.45,3.45,0,0,0,98,14.34c0-.23-.34-.34-.34-.69V8.51a8.41,8.41,0,0,0-2.17-5.82A7.58,7.58,0,0,0,91,.41,11.93,11.93,0,0,0,88.15.18"/></g></g><circle class="bonus-systems-cls-2" cx="64.52" cy="126.5" r="2.91"/><circle class="bonus-systems-cls-2" cx="137.23" cy="75.14" r="2.58"/><circle class="bonus-systems-cls-2" cx="39.67" cy="75.14" r="2.58"/><circle class="bonus-systems-cls-2" cx="112.46" cy="126.5" r="2.91"/><circle class="bonus-systems-cls-2" cx="161.81" cy="126.5" r="2.91"/><circle class="bonus-systems-cls-2" cx="15.17" cy="126.5" r="2.91"/><line class="bonus-systems-cls-10" x1="43.8" y1="73.24" x2="82.22" y2="49.57"/><g id="chevron-right"><polygon class="bonus-systems-cls-11" points="45.91 74.41 46.06 73.8 43.88 73.11 44.48 70.9 43.77 70.72 43 73.64 45.91 74.41"/></g><line class="bonus-systems-cls-10" x1="18.09" y1="122.41" x2="35.44" y2="112.08"/><g id="chevron-right-2" data-name="chevron-right"><polygon class="bonus-systems-cls-11" points="20.39 123.6 20.54 122.99 18.36 122.3 18.95 120.09 18.25 119.9 17.47 122.82 20.39 123.6"/></g><line class="bonus-systems-cls-10" x1="61.11" y1="122.6" x2="44.56" y2="111.97"/><g id="chevron-right-3" data-name="chevron-right"><polygon class="bonus-systems-cls-11" points="61.12 120.12 60.51 120.27 60.89 122.51 58.65 122.99 58.81 123.7 61.76 123.07 61.12 120.12"/></g><line class="bonus-systems-cls-10" x1="133.19" y1="72.99" x2="94.68" y2="49.57"/><g id="chevron-right-4" data-name="chevron-right"><polygon class="bonus-systems-cls-11" points="133.36 70.59 132.76 70.76 133.19 72.99 130.97 73.53 131.15 74.24 134.08 73.53 133.36 70.59"/></g><path class="bonus-systems-cls-6" d="M122.28,152.2h-2.09a3.86,3.86,0,0,1-3.84-3.83h0v-1.16a10.24,10.24,0,0,0,1.86-3.49c0-.23.23-.35.35-.46a2.31,2.31,0,0,0,.35-2.79c0-.12-.23-.24-.23-.47v-3.37a5.5,5.5,0,0,0-1.4-3.72,5.4,5.4,0,0,0-2.9-1.51,10.21,10.21,0,0,0-4.19.12,5,5,0,0,0-2.9,2,5.7,5.7,0,0,0-.93,3v3.37c0,.23-.12.34-.24.58a2.33,2.33,0,0,0,.58,2.9c.24.12.24.35.35.58a8.19,8.19,0,0,0,1.51,2.79.88.88,0,0,1,.24.58h0a4.72,4.72,0,0,1-4.77,4.77h-1.16c-.7.23-3.49,1.51-5.46,5.46a.7.7,0,0,0-.12.47v1.74a1.84,1.84,0,0,0,1.86,1.86h26.61a1.84,1.84,0,0,0,1.86-1.86h0v-1.63a.72.72,0,0,0-.11-.46A10.24,10.24,0,0,0,122.28,152.2Z"/><path class="bonus-systems-cls-7" d="M112.63,161.62h13.25a1.83,1.83,0,0,0,1.86-1.85h0v-1.62a.68.68,0,0,0-.12-.46c-2-3.93-4.76-5.2-5.46-5.43h-2.09a3.86,3.86,0,0,1-3.84-3.81h0v-1.27a9.73,9.73,0,0,0,1.86-3.47c0-.23.24-.34.35-.46a2.28,2.28,0,0,0,.35-2.77c0-.12-.23-.23-.23-.46v-3.35a5,5,0,0,0-4.3-5.2,10.75,10.75,0,0,0-1.86-.23"/><path class="bonus-systems-cls-6" d="M171.63,152.2h-2.09a3.87,3.87,0,0,1-3.84-3.83h0v-1.16a9.9,9.9,0,0,0,1.86-3.49c0-.23.24-.35.35-.46a2.31,2.31,0,0,0,.35-2.79c0-.12-.23-.24-.23-.47v-3.37a5.5,5.5,0,0,0-1.4-3.72,5.4,5.4,0,0,0-2.9-1.51,10.16,10.16,0,0,0-4.18.12,5,5,0,0,0-2.91,2,5.79,5.79,0,0,0-.93,3v3.37c0,.23-.12.34-.23.58a2.32,2.32,0,0,0,.58,2.9c.23.12.23.35.35.58a8,8,0,0,0,1.51,2.79.93.93,0,0,1,.23.58h0a4.71,4.71,0,0,1-4.76,4.77h-1.17c-.69.23-3.48,1.51-5.46,5.46a.74.74,0,0,0-.11.47v1.74a1.84,1.84,0,0,0,1.85,1.86h26.62a1.84,1.84,0,0,0,1.86-1.86h0v-1.63a.67.67,0,0,0-.12-.46A10.21,10.21,0,0,0,171.63,152.2Z"/><path class="bonus-systems-cls-7" d="M162,161.62h13.24a1.83,1.83,0,0,0,1.86-1.85h0v-1.62a.73.73,0,0,0-.11-.46c-2-3.93-4.77-5.2-5.46-5.43h-2.1a3.85,3.85,0,0,1-3.83-3.81h0v-1.27a10.06,10.06,0,0,0,1.86-3.47c0-.23.23-.34.35-.46a2.3,2.3,0,0,0,.35-2.77c0-.12-.24-.23-.24-.46v-3.35a5,5,0,0,0-4.3-5.2,10.75,10.75,0,0,0-1.86-.23"/><line class="bonus-systems-cls-10" x1="115.71" y1="122.41" x2="133.04" y2="112.08"/><g id="chevron-right-5" data-name="chevron-right"><polygon class="bonus-systems-cls-11" points="118 123.6 118.15 122.99 115.98 122.3 116.57 120.09 115.86 119.9 115.09 122.82 118 123.6"/></g><line class="bonus-systems-cls-10" x1="158.72" y1="122.6" x2="142.01" y2="111.84"/><g id="chevron-right-6" data-name="chevron-right"><polygon class="bonus-systems-cls-11" points="158.73 120.01 158.12 120.16 158.5 122.41 156.26 122.89 156.42 123.6 159.37 122.96 158.73 120.01"/></g></g></g></svg>