<?xml version="1.0" encoding="utf-8"?>
<!-- Generator: Adobe Illustrator 21.1.0, SVG Export Plug-In . SVG Version: 6.00 Build 0)  -->
<svg version="1.1" id="Warstwa_1" xmlns="http://www.w3.org/2000/svg" xmlns:xlink="http://www.w3.org/1999/xlink" x="0px" y="0px"
	 viewBox="0 0 120 120" style="enable-background:new 0 0 120 120;" xml:space="preserve">
<style type="text/css">
	.st0{fill:#2A3239;}
	.st1{opacity:5.000000e-02;fill:#FFFFFF;enable-background:new    ;}
	.st2{fill:#FFFFFF;}
	.st3{opacity:0.6;fill:#DBE2E5;}
	.st4{fill:#DBE2E5;}
	.st5{opacity:0.2;fill:#D3DADD;}
	.st6{fill:none;stroke:#22292E;stroke-width:1.8595;stroke-linecap:round;stroke-linejoin:round;stroke-miterlimit:10;}
	.st7{fill:#39444D;}
	.st8{opacity:0.1;enable-background:new    ;}
	.st9{fill:#1972BF;}
	.st10{opacity:0.1;fill:#1E88E6;enable-background:new    ;}
	.st11{fill:#1E88E6;}
	.st12{fill:#D0D5D6;}
	.st13{fill:#B3B9BA;}
	.st14{fill:#D0D6D9;}
	.st15{fill:#2F3538;}
	.st16{fill:#222629;}
</style>
<g>
	<path class="st0" d="M102.3,11.4H5.1c-2.5,0-4.8,2.6-4.8,5.4l0,72.6c0,2.8,2.3,5.4,4.8,5.4h97.3c2.5,0,4.8-2.6,4.8-5.4V16.8
		C107.1,14,104.8,11.4,102.3,11.4z"/>
	<path class="st1" d="M21,11.4h-16c-2.5,0-4.8,2.6-4.8,5.4v72.6c0,2.8,2.3,5.4,4.8,5.4h97.3c0.6,0,1.2-0.2,1.7-0.4L21,11.4z"/>
	<path class="st2" d="M9.5,87.1h87.7c1.2,0,2.3-1.2,2.3-2.6V21.4c0-1.4-1-2.6-2.3-2.6H9.5c-1.2,0-2.3,1.2-2.3,2.6v63.1
		C7.2,85.9,8.3,87.1,9.5,87.1z"/>
	<rect x="15.9" y="26.4" class="st3" width="77.1" height="20.5"/>
	<rect x="15.9" y="51.6" class="st4" width="14.6" height="3.4"/>
	<rect x="15.9" y="60.2" class="st4" width="29.2" height="3.4"/>
	<rect x="15.9" y="68.7" class="st4" width="14.6" height="3.4"/>
	<rect x="15.9" y="77.2" class="st4" width="26.2" height="3.4"/>
	<polygon class="st5" points="37.7,26.4 37.4,26.4 15.9,26.4 15.9,46.9 57,46.9 	"/>
	<g>
		<g>
			<path class="st6" d="M56.1,38.4c-1.3-1.6-1.3-3.8,0-5.2c0.1-0.1,0.2-0.2,0.3-0.3"/>
			<path class="st6" d="M48.7,45.8c-1.6-1.3-3.8-1.3-5.2,0c-0.1,0.1-0.2,0.2-0.3,0.3"/>
		</g>
		<g>
			<g>
				<path class="st6" d="M53.9,65.8c-2.6,1.9-6.7,1.2-9.6-1.7"/>
				<path class="st6" d="M76,43.7c1.9-2.6,1.2-6.7-1.7-9.6"/>
			</g>
			<g>
				<path class="st6" d="M59.2,71c-1.7,2.5-0.7,6.7,2.5,9.9"/>
				<path class="st6" d="M81.3,48.9c2.5-1.7,6.7-0.7,9.9,2.5"/>
			</g>
			<g>
				<path class="st6" d="M67.3,75.9c-0.6,1.5,1.3,5.1,4.7,8.5"/>
				<path class="st6" d="M86.2,57c1.5-0.6,5.1,1.3,8.5,4.7"/>
			</g>
		</g>
		<path class="st7" d="M61.3,45.4l-2.4,2.4L55.7,51c-2,2-3.2,4.6-3.7,7.2c-0.7-0.4-1.4-0.9-2-1.5c-3.9-3.9-3.3-10.9,1.4-15.6
			s11.7-5.3,15.6-1.4c0.6,0.6,1.1,1.3,1.5,2C65.9,42.2,63.3,43.4,61.3,45.4z"/>
		<g>
			<path class="st8" d="M51.4,41.1c4.7-4.7,11.7-5.3,15.6-1.4c0.6,0.6,1.1,1.3,1.5,2c-2.6,0.4-5.2,1.6-7.2,3.7l-2.4,2.4l-0.4,0.4"/>
			<path class="st7" d="M58.5,48.2L55.7,51c-2,2-3.2,4.6-3.7,7.2c-0.7-0.4-1.4-0.9-2-1.5c-3.9-3.9-3.3-10.9,1.4-15.6"/>
		</g>
		<g>
			<path class="st7" d="M79.3,45c-5.1-5.1-13.4-5.1-18.5,0l-3.2,3.2l-2.4,2.4c-5.1,5.1-5.1,13.4,0,18.5c1,1.3,17.5,14.8,29.2,5.9
				l0.8-0.8C94.1,62.5,80.6,45.9,79.3,45z"/>
			<path class="st8" d="M84.8,74.5l0.4-0.4c8.9-11.7-4.6-28.2-5.9-29.2c-5.1-5.1-13.4-5.1-18.5,0L58,47.8"/>
		</g>
		<path class="st9" d="M79.3,45c-0.6-0.6-1.2-1.1-1.9-1.6c-0.9,4.1-3.3,8.6-6.9,12.8l3.7,7.7c0.1,0.1-0.1,0.2-0.2,0.2l-7.7-3.7
			c-4.2,3.6-8.7,6-12.8,6.9c0.5,0.7,1,1.3,1.6,1.9c1,1.3,17.5,14.8,29.2,5.9l0.8-0.8C94.1,62.5,80.6,45.9,79.3,45z"/>
		<g>
			<path class="st10" d="M84.8,74.5l0.4-0.4c8.9-11.7-4.6-28.2-5.9-29.2c-0.6-0.6-1.2-1.1-1.9-1.6c-0.9,4.1-3.3,8.6-6.9,12.8
				l3.7,7.7c0,0.1,0,0.1,0,0.1"/>
			<path class="st11" d="M74.3,64c0,0-0.1,0.1-0.1,0l-7.7-3.7c-4.2,3.6-8.7,6-12.8,6.9c0.5,0.7,1,1.3,1.6,1.9
				c1,1.3,17.5,14.8,29.2,5.9l0.4-0.4"/>
		</g>
	</g>
	<g>
		<path class="st7" d="M93.4,91.3l16,16c1.7,1.7,4.4,1.7,6,0l3-3c1.7-1.7,1.7-4.4,0-6l-16-16L93.4,91.3z"/>
		<path class="st0" d="M116.9,105.8l1.5-1.5c1.7-1.7,1.7-4.4,0-6l-16-16l-4.5,4.5"/>
		
			<rect x="88.8" y="80.9" transform="matrix(0.7071 -0.7071 0.7071 0.7071 -31.5661 91.913)" class="st12" width="12.8" height="6.3"/>
		<polyline class="st13" points="93.3,82.2 97.9,77.7 102.3,82.2 97.8,86.7 		"/>
		<path class="st4" d="M40.1,29c-14.8,14.8-14.8,38.7,0,53.5s38.7,14.8,53.5,0s14.8-38.7,0-53.5S54.9,14.3,40.1,29z M89.1,78
			c-12.3,12.3-32.2,12.3-44.5,0s-12.3-32.2,0-44.5s32.2-12.3,44.5,0S101.4,65.7,89.1,78z"/>
		<path class="st14" d="M40.1,29l4.5,4.5c12.3-12.3,32.2-12.3,44.5,0c12.3,12.3,12.3,32.2,0,44.5l4.5,4.5
			c14.8-14.8,14.8-38.7,0-53.5C78.8,14.3,54.9,14.3,40.1,29z"/>
		<path class="st7" d="M94.8,94.6l1.1,1.1c0.8,0.8,2,0.8,2.7,0.1l8.3-8.3c0.7-0.7,0.7-1.9-0.1-2.7l-1.1-1.1L94.8,94.6z"/>
		<path class="st15" d="M94.8,94.6l1.1,1.1c0.8,0.8,2,0.8,2.7,0.1l8.3-8.3c0.7-0.7,0.7-1.9-0.1-2.7l-1.1-1.1L94.8,94.6z"/>
		<path class="st16" d="M102.7,91.6l4.1-4.1c0.7-0.7,0.7-1.9-0.1-2.7l-1.1-1.1l-5.4,5.4"/>
		<path class="st7" d="M106.2,84.3L95.4,95.1c-1,1-2.6,1-3.6,0l0,0c-1-1-1-2.6,0-3.6l10.7-10.7c1-1,2.6-1,3.6,0v0
			C107.2,81.8,107.2,83.3,106.2,84.3z"/>
		<path class="st8" d="M97.2,86.1l5.4-5.4c1-1,2.6-1,3.6,0l0,0c1,1,1,2.6,0,3.6l-5.4,5.4"/>
	</g>
</g>
</svg>
