<svg xmlns="http://www.w3.org/2000/svg" viewBox="0 0 145.12 138.25"><defs><style>.deploy-software-cls-1{fill:#2e424a;}.deploy-software-cls-2{fill:#2b3a43;}.deploy-software-cls-3{fill:#d8e3e6;}.deploy-software-cls-4{fill:#00b8a1;}.deploy-software-cls-5{fill:#0096ea;}.deploy-software-cls-6{fill:#17242a;}.deploy-software-cls-7{fill:#152024;}.deploy-software-cls-8{fill:#c8d1d4;}.deploy-software-cls-14,.deploy-software-cls-9{fill:#008ad9;}.deploy-software-cls-10,.deploy-software-cls-12,.deploy-software-cls-9{stroke:#152024;stroke-miterlimit:10;}.deploy-software-cls-10,.deploy-software-cls-16{fill:none;}.deploy-software-cls-10{stroke-width:1.5px;}.deploy-software-cls-11{fill:#fff;}.deploy-software-cls-12{fill:#f7333a;}.deploy-software-cls-13{fill:#00424a;}.deploy-software-cls-15{fill:#fda23e;}.deploy-software-cls-17{fill:#c9d4d7;}</style></defs><title>easy-to-deploy-and-administer_2</title><g id="Слой_2" data-name="Слой 2"><g id="Слой_1-2" data-name="Слой 1"><g id="Слой_1-3" data-name="Слой 1"><g id="Слой_1-4" data-name="Слой 1"><g id="Слой_1-5" data-name="Слой 1"><path class="deploy-software-cls-1" d="M38,16.6,1.5,16.5A1.54,1.54,0,0,1,0,15L.1,1.5A1.54,1.54,0,0,1,1.6,0L38.1.1a1.54,1.54,0,0,1,1.5,1.5l-.1,13.5A1.42,1.42,0,0,1,38,16.6Z"/><path class="deploy-software-cls-2" d="M19.9.1,38.3.2c.8,0,1.4.4,1.4.9l-.1,14.6c0,.5-.6.9-1.4.9l-18.4-.1"/><path class="deploy-software-cls-3" d="M36.2,8.6,3.5,8.5A1.16,1.16,0,0,1,2.3,7.3V2.8A1.16,1.16,0,0,1,3.5,1.6l32.7.1a1.16,1.16,0,0,1,1.2,1.2V7.4A1.22,1.22,0,0,1,36.2,8.6Z"/><circle class="deploy-software-cls-4" cx="5.9" cy="5" r="0.9"/><circle class="deploy-software-cls-4" cx="9.6" cy="5" r="0.9"/><circle class="deploy-software-cls-5" cx="13.3" cy="5" r="0.9"/><rect class="deploy-software-cls-6" x="0.3" y="11.8" width="4.5" height="0.6" transform="translate(-9.56 14.6) rotate(-89.77)"/><rect class="deploy-software-cls-6" x="1.38" y="11.73" width="4.5" height="0.6" transform="translate(-8.41 15.61) rotate(-89.77)"/><rect class="deploy-software-cls-6" x="2.57" y="11.81" width="4.5" height="0.6" transform="translate(-7.32 16.88) rotate(-89.77)"/><rect class="deploy-software-cls-6" x="3.45" y="11.85" width="4.5" height="0.6" transform="translate(-6.47 17.8) rotate(-89.77)"/><rect class="deploy-software-cls-6" x="4.53" y="11.77" width="4.5" height="0.6" transform="translate(-5.32 18.81) rotate(-89.77)"/><rect class="deploy-software-cls-6" x="5.62" y="11.76" width="4.5" height="0.6" transform="translate(-4.23 19.88) rotate(-89.77)"/><rect class="deploy-software-cls-6" x="6.7" y="11.76" width="4.5" height="0.6" transform="translate(-3.15 20.96) rotate(-89.77)"/><rect class="deploy-software-cls-6" x="7.68" y="11.79" width="4.5" height="0.6" transform="translate(-2.2 21.97) rotate(-89.77)"/><rect class="deploy-software-cls-6" x="8.86" y="11.88" width="4.5" height="0.6" transform="translate(-1.11 23.24) rotate(-89.77)"/><rect class="deploy-software-cls-6" x="9.95" y="11.81" width="4.5" height="0.6" transform="translate(0.03 24.26) rotate(-89.77)"/><rect class="deploy-software-cls-6" x="10.93" y="11.84" width="4.5" height="0.6" transform="translate(0.99 25.27) rotate(-89.77)"/><rect class="deploy-software-cls-6" x="12.11" y="11.83" width="4.5" height="0.6" transform="translate(2.18 26.44) rotate(-89.77)"/><rect class="deploy-software-cls-6" x="13.29" y="11.77" width="4.5" height="0.6" transform="translate(3.41 27.57) rotate(-89.77)"/><rect class="deploy-software-cls-6" x="14.28" y="11.8" width="4.5" height="0.6" transform="translate(4.36 28.58) rotate(-89.77)"/><rect class="deploy-software-cls-6" x="15.46" y="11.79" width="4.5" height="0.6" transform="translate(5.55 29.75) rotate(-89.77)"/><rect class="deploy-software-cls-6" x="16.54" y="11.92" width="4.5" height="0.6" transform="translate(6.49 30.96) rotate(-89.77)"/><rect class="deploy-software-cls-6" x="17.52" y="11.85" width="4.5" height="0.6" transform="translate(7.54 31.87) rotate(-89.77)"/><rect class="deploy-software-cls-7" x="18.71" y="11.84" width="4.5" height="0.6" transform="translate(8.74 33.04) rotate(-89.77)"/><rect class="deploy-software-cls-7" x="19.79" y="11.74" width="4.5" height="0.6" transform="translate(9.91 34.03) rotate(-89.77)"/><rect class="deploy-software-cls-7" x="20.77" y="11.87" width="4.5" height="0.6" transform="translate(10.76 35.14) rotate(-89.77)"/><rect class="deploy-software-cls-7" x="21.95" y="11.95" width="4.5" height="0.6" transform="translate(11.85 36.41) rotate(-89.77)"/><rect class="deploy-software-cls-7" x="22.94" y="11.89" width="4.5" height="0.6" transform="translate(12.9 37.33) rotate(-89.77)"/><rect class="deploy-software-cls-7" x="24.02" y="11.81" width="4.5" height="0.6" transform="translate(14.05 38.34) rotate(-89.77)"/><rect class="deploy-software-cls-7" x="25.3" y="11.8" width="4.5" height="0.6" transform="translate(15.34 39.6) rotate(-89.77)"/><rect class="deploy-software-cls-7" x="26.28" y="11.85" width="4.5" height="0.6" transform="translate(16.27 40.64) rotate(-89.77)"/><rect class="deploy-software-cls-7" x="27.37" y="11.84" width="4.5" height="0.6" transform="translate(17.36 41.71) rotate(-89.77)"/><rect class="deploy-software-cls-7" x="28.35" y="11.87" width="4.5" height="0.6" transform="translate(18.3 42.73) rotate(-89.77)"/><rect class="deploy-software-cls-7" x="29.43" y="11.9" width="4.5" height="0.6" transform="translate(19.35 43.83) rotate(-89.77)"/><rect class="deploy-software-cls-7" x="30.51" y="11.89" width="4.5" height="0.6" transform="translate(20.44 44.9) rotate(-89.77)"/><rect class="deploy-software-cls-7" x="31.5" y="11.99" width="4.5" height="0.6" transform="translate(21.32 45.99) rotate(-89.77)"/><rect class="deploy-software-cls-7" x="32.68" y="11.82" width="4.5" height="0.6" transform="translate(22.67 47) rotate(-89.77)"/><rect class="deploy-software-cls-7" x="33.66" y="11.91" width="4.5" height="0.6" transform="translate(23.56 48.07) rotate(-89.77)"/><rect class="deploy-software-cls-7" x="34.75" y="11.94" width="4.5" height="0.6" transform="translate(24.61 49.19) rotate(-89.77)"/><path class="deploy-software-cls-8" d="M19.9,1.6l16.3.1a1.16,1.16,0,0,1,1.2,1.2V7.4a1.16,1.16,0,0,1-1.2,1.2L19.9,8.5"/><path class="deploy-software-cls-1" d="M91.2,60.4l-36.5-.1a1.54,1.54,0,0,1-1.5-1.5l.1-13.5a1.54,1.54,0,0,1,1.5-1.5l36.5.1a1.54,1.54,0,0,1,1.5,1.5l-.1,13.5A1.42,1.42,0,0,1,91.2,60.4Z"/><path class="deploy-software-cls-2" d="M73.1,43.9l18.4.1c.8,0,1.4.4,1.4.9l-.1,14.6c0,.5-.6.9-1.4.9L73,60.3"/><path class="deploy-software-cls-3" d="M89.4,52.4l-32.7-.1a1.16,1.16,0,0,1-1.2-1.2V46.6a1.16,1.16,0,0,1,1.2-1.2l32.7.1a1.16,1.16,0,0,1,1.2,1.2v4.5A1.22,1.22,0,0,1,89.4,52.4Z"/><circle class="deploy-software-cls-4" cx="59.1" cy="48.8" r="0.9"/><circle class="deploy-software-cls-4" cx="62.8" cy="48.8" r="0.9"/><circle class="deploy-software-cls-5" cx="66.5" cy="48.8" r="0.9"/><rect class="deploy-software-cls-6" x="53.46" y="55.59" width="4.5" height="0.6" transform="translate(-0.4 111.37) rotate(-89.77)"/><rect class="deploy-software-cls-6" x="54.45" y="55.61" width="4.5" height="0.6" transform="translate(0.56 112.38) rotate(-89.77)"/><rect class="deploy-software-cls-6" x="55.53" y="55.6" width="4.5" height="0.6" transform="translate(1.65 113.45) rotate(-89.77)"/><rect class="deploy-software-cls-6" x="56.51" y="55.63" width="4.5" height="0.6" transform="translate(2.59 114.47) rotate(-89.77)"/><rect class="deploy-software-cls-6" x="57.69" y="55.56" width="4.5" height="0.6" transform="translate(3.84 115.58) rotate(-89.77)"/><rect class="deploy-software-cls-6" x="58.78" y="55.65" width="4.5" height="0.6" transform="translate(4.83 116.75) rotate(-89.77)"/><rect class="deploy-software-cls-6" x="59.76" y="55.65" width="4.5" height="0.6" transform="translate(5.81 117.74) rotate(-89.77)"/><rect class="deploy-software-cls-6" x="60.94" y="55.68" width="4.5" height="0.6" transform="translate(6.96 118.95) rotate(-89.77)"/><rect class="deploy-software-cls-6" x="62.02" y="55.77" width="4.5" height="0.6" transform="translate(7.95 120.11) rotate(-89.77)"/><rect class="deploy-software-cls-6" x="63.01" y="55.6" width="4.5" height="0.6" transform="translate(9.1 120.93) rotate(-89.77)"/><rect class="deploy-software-cls-6" x="64.19" y="55.53" width="4.5" height="0.6" transform="translate(10.35 122.04) rotate(-89.77)"/><rect class="deploy-software-cls-6" x="65.17" y="55.61" width="4.5" height="0.6" transform="translate(11.24 123.11) rotate(-89.77)"/><rect class="deploy-software-cls-6" x="66.35" y="55.66" width="4.5" height="0.6" transform="translate(12.37 124.34) rotate(-89.77)"/><rect class="deploy-software-cls-6" x="67.44" y="55.69" width="4.5" height="0.6" transform="translate(13.42 125.45) rotate(-89.77)"/><rect class="deploy-software-cls-6" x="68.52" y="55.68" width="4.5" height="0.6" transform="translate(14.51 126.52) rotate(-89.77)"/><rect class="deploy-software-cls-6" x="69.7" y="55.71" width="4.5" height="0.6" transform="translate(15.65 127.74) rotate(-89.77)"/><rect class="deploy-software-cls-6" x="70.78" y="55.64" width="4.5" height="0.6" transform="translate(16.8 128.75) rotate(-89.77)"/><rect class="deploy-software-cls-7" x="71.77" y="55.72" width="4.5" height="0.6" transform="translate(17.7 129.82) rotate(-89.77)"/><rect class="deploy-software-cls-7" x="72.85" y="55.63" width="4.5" height="0.6" transform="translate(18.87 130.8) rotate(-89.77)"/><rect class="deploy-software-cls-7" x="73.93" y="55.65" width="4.5" height="0.6" transform="translate(19.92 131.91) rotate(-89.77)"/><rect class="deploy-software-cls-7" x="75.02" y="55.74" width="4.5" height="0.6" transform="translate(20.91 133.08) rotate(-89.77)"/><rect class="deploy-software-cls-7" x="76.1" y="55.78" width="4.5" height="0.6" transform="translate(21.96 134.2) rotate(-89.77)"/><rect class="deploy-software-cls-7" x="77.18" y="55.7" width="4.5" height="0.6" transform="translate(23.11 135.21) rotate(-89.77)"/><rect class="deploy-software-cls-7" x="78.26" y="55.69" width="4.5" height="0.6" transform="translate(24.2 136.28) rotate(-89.77)"/><rect class="deploy-software-cls-7" x="79.25" y="55.74" width="4.5" height="0.6" transform="translate(25.13 137.31) rotate(-89.77)"/><rect class="deploy-software-cls-7" x="80.43" y="55.73" width="4.5" height="0.6" transform="translate(26.32 138.48) rotate(-89.77)"/><rect class="deploy-software-cls-7" x="81.41" y="55.76" width="4.5" height="0.6" transform="translate(27.26 139.5) rotate(-89.77)"/><rect class="deploy-software-cls-7" x="82.49" y="55.79" width="4.5" height="0.6" transform="translate(28.32 140.61) rotate(-89.77)"/><rect class="deploy-software-cls-7" x="83.68" y="55.68" width="4.5" height="0.6" transform="translate(29.6 141.68) rotate(-89.77)"/><rect class="deploy-software-cls-7" x="84.76" y="55.78" width="4.5" height="0.6" transform="translate(30.58 142.86) rotate(-89.77)"/><rect class="deploy-software-cls-7" x="85.74" y="55.71" width="4.5" height="0.6" transform="translate(31.63 143.77) rotate(-89.77)"/><rect class="deploy-software-cls-7" x="86.92" y="55.79" width="4.5" height="0.6" transform="translate(32.72 145.04) rotate(-89.77)"/><rect class="deploy-software-cls-7" x="87.91" y="55.73" width="4.5" height="0.6" transform="translate(33.77 145.96) rotate(-89.77)"/><path class="deploy-software-cls-8" d="M73,45.5l16.3.1a1.16,1.16,0,0,1,1.2,1.2v4.5a1.16,1.16,0,0,1-1.2,1.2L73,52.4"/></g><g id="Слой_3" data-name="Слой 3"><circle class="deploy-software-cls-9" cx="124.8" cy="20.9" r="2.5"/><circle class="deploy-software-cls-9" cx="19.9" cy="20.9" r="2.5"/><circle class="deploy-software-cls-9" cx="73" cy="64.8" r="2.5"/></g><path class="deploy-software-cls-1" d="M143.42,16.6l-36.5-.1a1.54,1.54,0,0,1-1.5-1.5l.1-13.5A1.54,1.54,0,0,1,107,0l36.5.1A1.54,1.54,0,0,1,145,1.6l-.1,13.5A1.42,1.42,0,0,1,143.42,16.6Z"/><path class="deploy-software-cls-2" d="M125.32.1l18.4.1c.8,0,1.4.4,1.4.9L145,15.7c0,.5-.6.9-1.4.9l-18.4-.1"/><path class="deploy-software-cls-3" d="M141.62,8.6l-32.7-.1a1.16,1.16,0,0,1-1.2-1.2V2.8a1.16,1.16,0,0,1,1.2-1.2l32.7.1a1.16,1.16,0,0,1,1.2,1.2V7.4A1.22,1.22,0,0,1,141.62,8.6Z"/><circle class="deploy-software-cls-4" cx="111.32" cy="5" r="0.9"/><circle class="deploy-software-cls-4" cx="115.02" cy="5" r="0.9"/><circle class="deploy-software-cls-5" cx="118.72" cy="5" r="0.9"/><rect class="deploy-software-cls-6" x="105.69" y="11.71" width="4.5" height="0.6" transform="translate(95.49 119.9) rotate(-89.77)"/><rect class="deploy-software-cls-6" x="106.77" y="11.74" width="4.5" height="0.6" transform="translate(96.55 121) rotate(-89.77)"/><rect class="deploy-software-cls-6" x="107.95" y="11.82" width="4.5" height="0.6" transform="translate(97.63 122.27) rotate(-89.77)"/><rect class="deploy-software-cls-6" x="108.83" y="11.86" width="4.5" height="0.6" transform="translate(98.48 123.19) rotate(-89.77)"/><rect class="deploy-software-cls-6" x="109.92" y="11.88" width="4.5" height="0.6" transform="translate(99.53 124.3) rotate(-89.77)"/><rect class="deploy-software-cls-6" x="111" y="11.77" width="4.5" height="0.6" transform="translate(100.72 125.27) rotate(-89.77)"/><rect class="deploy-software-cls-6" x="112.08" y="11.77" width="4.5" height="0.6" transform="translate(101.8 126.36) rotate(-89.77)"/><rect class="deploy-software-cls-6" x="113.07" y="11.8" width="4.5" height="0.6" transform="translate(102.75 127.37) rotate(-89.77)"/><rect class="deploy-software-cls-6" x="114.25" y="11.89" width="4.5" height="0.6" transform="translate(103.84 128.64) rotate(-89.77)"/><rect class="deploy-software-cls-6" x="115.33" y="11.82" width="4.5" height="0.6" transform="translate(104.99 129.65) rotate(-89.77)"/><rect class="deploy-software-cls-6" x="116.41" y="11.85" width="4.5" height="0.6" transform="translate(106.04 130.76) rotate(-89.77)"/><rect class="deploy-software-cls-6" x="117.59" y="11.74" width="4.5" height="0.6" transform="translate(107.32 131.83) rotate(-89.77)"/><rect class="deploy-software-cls-6" x="118.68" y="11.78" width="4.5" height="0.6" transform="translate(108.36 132.96) rotate(-89.77)"/><rect class="deploy-software-cls-6" x="119.66" y="11.81" width="4.5" height="0.6" transform="translate(109.31 133.97) rotate(-89.77)"/><rect class="deploy-software-cls-6" x="120.84" y="11.8" width="4.5" height="0.6" transform="translate(110.5 135.14) rotate(-89.77)"/><rect class="deploy-software-cls-6" x="121.92" y="11.93" width="4.5" height="0.6" transform="translate(111.44 136.36) rotate(-89.77)"/><rect class="deploy-software-cls-6" x="122.91" y="11.86" width="4.5" height="0.6" transform="translate(112.5 137.27) rotate(-89.77)"/><rect class="deploy-software-cls-7" x="124.09" y="11.85" width="4.5" height="0.6" transform="translate(113.69 138.44) rotate(-89.77)"/><rect class="deploy-software-cls-7" x="125.17" y="11.75" width="4.5" height="0.6" transform="translate(114.86 139.42) rotate(-89.77)"/><rect class="deploy-software-cls-7" x="126.16" y="11.88" width="4.5" height="0.6" transform="translate(115.71 140.53) rotate(-89.77)"/><rect class="deploy-software-cls-7" x="127.34" y="11.86" width="4.5" height="0.6" transform="translate(116.9 141.7) rotate(-89.77)"/><rect class="deploy-software-cls-7" x="128.42" y="11.8" width="4.5" height="0.6" transform="translate(118.05 142.72) rotate(-89.77)"/><rect class="deploy-software-cls-7" x="129.5" y="11.83" width="4.5" height="0.6" transform="translate(119.1 143.83) rotate(-89.77)"/><rect class="deploy-software-cls-7" x="130.68" y="11.91" width="4.5" height="0.6" transform="translate(120.19 145.1) rotate(-89.77)"/><rect class="deploy-software-cls-7" x="131.67" y="11.86" width="4.5" height="0.6" transform="translate(121.22 146.03) rotate(-89.77)"/><rect class="deploy-software-cls-7" x="132.85" y="11.85" width="4.5" height="0.6" transform="translate(122.41 147.2) rotate(-89.77)"/><rect class="deploy-software-cls-7" x="133.73" y="11.88" width="4.5" height="0.6" transform="translate(123.25 148.12) rotate(-89.77)"/><rect class="deploy-software-cls-7" x="134.82" y="11.91" width="4.5" height="0.6" transform="translate(124.3 149.23) rotate(-89.77)"/><rect class="deploy-software-cls-7" x="136" y="11.8" width="4.5" height="0.6" transform="translate(125.59 150.3) rotate(-89.77)"/><rect class="deploy-software-cls-7" x="136.98" y="11.9" width="4.5" height="0.6" transform="translate(126.47 151.38) rotate(-89.77)"/><rect class="deploy-software-cls-7" x="138.07" y="11.93" width="4.5" height="0.6" transform="translate(127.52 152.49) rotate(-89.77)"/><rect class="deploy-software-cls-7" x="139.05" y="11.92" width="4.5" height="0.6" transform="translate(128.51 153.46) rotate(-89.77)"/><rect class="deploy-software-cls-7" x="140.23" y="11.85" width="4.5" height="0.6" transform="translate(129.76 154.58) rotate(-89.77)"/><path class="deploy-software-cls-8" d="M125.32,1.7l16.3.1a1.16,1.16,0,0,1,1.2,1.2V7.5a1.16,1.16,0,0,1-1.2,1.2l-16.3-.1"/><g id="lines"><line class="deploy-software-cls-10" x1="50.8" y1="8.9" x2="95" y2="8.9"/></g><rect class="deploy-software-cls-4" x="61.42" y="58.55" width="77.3" height="4" transform="translate(-4.85 112.24) rotate(-57.4)"/><path class="deploy-software-cls-4" d="M121.9,29.9l1.9,1.2h.2c.1,0,.1-.1.1-.2l-1.2-5.7c0-.1,0-.1-.1-.1h-.2l-5.7,1.3c-.1,0-.1.1-.2.2s0,.2.1.2l1.9,1.2"/><rect class="deploy-software-cls-4" x="43.09" y="21.51" width="4" height="77.7" transform="translate(-25.57 34.21) rotate(-32.94)"/><path class="deploy-software-cls-4" d="M26.4,27.9l1.9-1.2c.1,0,.1-.1.1-.2s-.1-.1-.2-.2l-5.7-1.2h-.2l-.1.1L21,30.9c0,.1,0,.2.1.2h.2l1.9-1.2"/><rect class="deploy-software-cls-4" x="71" y="73.5" width="4" height="18" transform="translate(-0.26 0.23) rotate(-0.18)"/><path class="deploy-software-cls-4" d="M74.8,74.1h2.3a.35.35,0,0,0,.2-.1v-.2l-4.1-4.1-.1-.1a.1.1,0,0,0-.1.1l-4.1,4.1c-.1.1-.1.1,0,.2s.1.1.2.1h2.3"/><ellipse class="deploy-software-cls-11" cx="73" cy="102.8" rx="13.2" ry="12.2" transform="translate(-0.33 0.23) rotate(-0.18)"/><circle class="deploy-software-cls-9" cx="73" cy="104.1" r="11.5"/><rect class="deploy-software-cls-11" x="58.3" y="97.5" width="29.8" height="19.9"/><circle class="deploy-software-cls-12" cx="43.9" cy="8.6" r="2.5"/><circle class="deploy-software-cls-12" cx="101.3" cy="8.6" r="2.5"/><circle class="deploy-software-cls-12" cx="73" cy="39.6" r="2.5"/><g id="chevron-right"><polygon points="92.4 5.3 91.5 6.1 94.2 8.9 91.5 11.6 92.3 12.4 95.9 8.9 92.4 5.3"/></g><g id="chevron-right-2" data-name="chevron-right"><polygon points="52.9 12.4 53.8 11.6 51.1 8.9 53.9 6.2 53 5.3 49.4 8.8 52.9 12.4"/></g><line class="deploy-software-cls-10" x1="48.2" y1="14.6" x2="68.5" y2="35.5"/><g id="chevron-right-3" data-name="chevron-right"><polygon points="47 18.6 48.2 18.6 48.2 14.7 52.1 14.8 52.1 13.6 47.1 13.5 47 18.6"/></g><g id="chevron-right-4" data-name="chevron-right"><polygon points="69.4 31.2 68.2 31.2 68.1 35 64.3 34.9 64.2 36.1 69.3 36.2 69.4 31.2"/></g><line class="deploy-software-cls-10" x1="97.8" y1="14.7" x2="77.3" y2="35.3"/><g id="chevron-right-5" data-name="chevron-right"><polygon points="93.8 13.6 93.8 14.7 97.7 14.7 97.6 18.6 98.8 18.6 98.8 13.6 93.8 13.6"/></g><g id="chevron-right-6" data-name="chevron-right"><polygon points="81.6 36.2 81.6 35 77.7 35 77.7 31.1 76.5 31.1 76.5 36.1 81.6 36.2"/></g><path class="deploy-software-cls-13" d="M45.93,138.25h55.4a2.11,2.11,0,0,0,2.1-2.1v-15a2.11,2.11,0,0,0-2.1-2.1H45.93a2.11,2.11,0,0,0-2.1,2.1v15A2.11,2.11,0,0,0,45.93,138.25Z"/><path class="deploy-software-cls-13" d="M45.9,117.8h55.4a2.11,2.11,0,0,0,2.1-2.1v-15a2.11,2.11,0,0,0-2.1-2.1H45.9a2.11,2.11,0,0,0-2.1,2.1v15A2.11,2.11,0,0,0,45.9,117.8Z"/><path class="deploy-software-cls-5" d="M73,100.4h27.34a1,1,0,0,1,1,1v6a1,1,0,0,1-1,1H46.51a1,1,0,0,1-1-1v-6a1,1,0,0,1,1-1H73"/><path class="deploy-software-cls-14" d="M73.1,100.4h27.61a1,1,0,0,1,1,1v6a1,1,0,0,1-1,1H73.1"/><rect class="deploy-software-cls-6" x="74.7" y="110.1" width="0.7" height="5.3"/><rect class="deploy-software-cls-6" x="73.2" y="110.1" width="0.7" height="5.3"/><rect class="deploy-software-cls-6" x="71.7" y="110.1" width="0.7" height="5.3"/><rect class="deploy-software-cls-6" x="70.2" y="110.1" width="0.7" height="5.3"/><rect class="deploy-software-cls-6" x="68.6" y="110.1" width="0.7" height="5.3"/><rect class="deploy-software-cls-6" x="67.2" y="110.1" width="0.7" height="5.3"/><rect class="deploy-software-cls-6" x="65.7" y="110.1" width="0.7" height="5.3"/><rect class="deploy-software-cls-6" x="64.2" y="110.1" width="0.7" height="5.3"/><rect class="deploy-software-cls-6" x="62.7" y="110.1" width="0.7" height="5.3"/><rect class="deploy-software-cls-6" x="61.1" y="110.1" width="0.7" height="5.3"/><rect class="deploy-software-cls-6" x="59.5" y="110.1" width="0.7" height="5.3"/><rect class="deploy-software-cls-6" x="58.1" y="110.1" width="0.7" height="5.3"/><rect class="deploy-software-cls-6" x="56.5" y="110.1" width="0.7" height="5.3"/><rect class="deploy-software-cls-6" x="55" y="110.1" width="0.7" height="5.3"/><rect class="deploy-software-cls-6" x="53.5" y="110.1" width="0.7" height="5.3"/><rect class="deploy-software-cls-6" x="51.9" y="110.1" width="0.7" height="5.3"/><rect class="deploy-software-cls-6" x="50.4" y="110.1" width="0.7" height="5.3"/><rect class="deploy-software-cls-6" x="48.9" y="110.1" width="0.7" height="5.3"/><rect class="deploy-software-cls-6" x="47.5" y="110.1" width="0.7" height="5.3"/><rect class="deploy-software-cls-6" x="45.9" y="110.1" width="0.7" height="5.3"/><rect class="deploy-software-cls-6" x="100.6" y="110.1" width="0.7" height="5.3"/><rect class="deploy-software-cls-6" x="99.1" y="110.1" width="0.7" height="5.3"/><rect class="deploy-software-cls-6" x="97.6" y="110.1" width="0.7" height="5.3"/><rect class="deploy-software-cls-6" x="96.1" y="110.1" width="0.7" height="5.3"/><rect class="deploy-software-cls-6" x="94.6" y="110.1" width="0.7" height="5.3"/><rect class="deploy-software-cls-6" x="93.1" y="110.1" width="0.7" height="5.3"/><rect class="deploy-software-cls-6" x="91.6" y="110.1" width="0.7" height="5.3"/><rect class="deploy-software-cls-6" x="90" y="110.1" width="0.7" height="5.3"/><rect class="deploy-software-cls-6" x="88.6" y="110.1" width="0.7" height="5.3"/><rect class="deploy-software-cls-6" x="87" y="110.1" width="0.7" height="5.3"/><rect class="deploy-software-cls-6" x="85.5" y="110.1" width="0.7" height="5.3"/><rect class="deploy-software-cls-6" x="84" y="110.1" width="0.7" height="5.3"/><rect class="deploy-software-cls-6" x="82.4" y="110.1" width="0.7" height="5.3"/><rect class="deploy-software-cls-6" x="80.8" y="110.1" width="0.7" height="5.3"/><rect class="deploy-software-cls-6" x="79.4" y="110.1" width="0.7" height="5.3"/><rect class="deploy-software-cls-6" x="77.9" y="110.1" width="0.7" height="5.3"/><rect class="deploy-software-cls-6" x="76.3" y="110.1" width="0.7" height="5.3"/><circle class="deploy-software-cls-15" cx="49.5" cy="104.4" r="1"/><circle class="deploy-software-cls-15" cx="53.7" cy="104.4" r="1"/><circle class="deploy-software-cls-15" cx="58" cy="104.4" r="1"/></g></g></g><g id="Слой_2-2" data-name="Слой 2"><rect class="deploy-software-cls-5" x="45.5" y="120.76" width="56.25" height="15.87" rx="1.01" ry="1.01"/><path class="deploy-software-cls-5" d="M73.69,136.63H46.51a1,1,0,0,1-1-1V121.77a1,1,0,0,1,1-1H73.69"/><path class="deploy-software-cls-14" d="M73.69,120.76h27.06a1,1,0,0,1,1,1v13.85a1,1,0,0,1-1,1H73.69"/><line class="deploy-software-cls-16" x1="103.43" y1="124.53" x2="101.75" y2="124.53"/><line class="deploy-software-cls-16" x1="43.83" y1="127.15" x2="45.5" y2="127.15"/><path class="deploy-software-cls-8" d="M73.68,133.33h3.88a.49.49,0,0,0,.52-.52v-.52a3,3,0,0,0-1.66-1.86h-.51a1.15,1.15,0,0,1-1.14-1.14V129a3.56,3.56,0,0,0,.52-1,.1.1,0,0,1,.1-.11.79.79,0,0,0,.1-.83l-.1-.1V126a1.53,1.53,0,0,0-.42-1.14,1.23,1.23,0,0,0-.82-.41,2.57,2.57,0,0,0-.47-.08"/><path class="deploy-software-cls-3" d="M73.68,124.35a2.49,2.49,0,0,0-.77.08,1.57,1.57,0,0,0-.83.62c-.21.2-.21.52-.31.83v1c0,.1,0,.1-.11.21a.66.66,0,0,0,.21.83c.1,0,.1.1.1.2a4.35,4.35,0,0,0,.52.93v.42a1.15,1.15,0,0,1-1.14,1.14h-.41a3,3,0,0,0-1.66,1.65v.52a.49.49,0,0,0,.52.52h3.88"/><path class="deploy-software-cls-8" d="M93.68,131.31a.15.15,0,0,0,0-.12c-.25-.34-.5-.59-.67-.84.08-.21.17-.37.25-.54l1.13-.17s.08,0,.12-.08a.15.15,0,0,0,0-.12V128.1a.15.15,0,0,0,0-.12s-.08-.08-.12-.08l-1.09-.17a2,2,0,0,0-.25-.58,2.6,2.6,0,0,1,.34-.42c.12-.17.25-.29.29-.37a.18.18,0,0,0,0-.13c0-.12-.33-.5-1-1.16,0,0-.08,0-.17,0s-.12,0-.12,0l-.84.62a4.23,4.23,0,0,0-.54-.21l-.16-1.08s0-.08-.09-.13a.15.15,0,0,0-.12,0H89.27c-.13,0-.17,0-.21.17a8.25,8.25,0,0,0-.17,1.12,2.69,2.69,0,0,0-.54.25l-.83-.66s-.09,0-.17,0-.29.12-.58.41a5,5,0,0,0-.58.63.13.13,0,0,0,0,.12.16.16,0,0,0,0,.13c.25.33.5.58.66.83a4.56,4.56,0,0,1-.25.54l-1.12.17s-.08,0-.13.08a.15.15,0,0,0,0,.12v1.34a.15.15,0,0,0,0,.12c.05,0,.09.08.13.08l1.08.17a2.16,2.16,0,0,0,.25.58c-.08.13-.21.25-.33.46a2.86,2.86,0,0,0-.29.38.13.13,0,0,0,0,.12c0,.13.34.5,1,1.17,0,0,.08,0,.16,0s.13,0,.13,0l.83-.63a3.47,3.47,0,0,0,.54.21l.17,1.08a.23.23,0,0,0,.08.13.15.15,0,0,0,.12,0h1.34c.12,0,.16,0,.21-.17a8.44,8.44,0,0,0,.16-1.12,2,2,0,0,0,.54-.21l.84.67s.08,0,.16,0,.29-.13.58-.42a6.61,6.61,0,0,0,.59-.62C93.64,131.43,93.68,131.39,93.68,131.31ZM91.18,130a1.74,1.74,0,0,1-1.29.54A1.68,1.68,0,0,1,88.6,130a1.75,1.75,0,0,1-.54-1.29,1.68,1.68,0,0,1,.54-1.29,1.72,1.72,0,0,1,1.29-.54,1.64,1.64,0,0,1,1.29.54,1.7,1.7,0,0,1,.54,1.29A1.64,1.64,0,0,1,91.18,130Z"/><path class="deploy-software-cls-3" d="M57.42,124.39A4.54,4.54,0,0,1,54,125.62v2.94a5,5,0,0,0,1.9,4,4.84,4.84,0,0,0,1.55.8,4.74,4.74,0,0,0,1.55-.8,5,5,0,0,0,1.9-4v-2.94A4.64,4.64,0,0,1,57.42,124.39Z"/><path class="deploy-software-cls-3" d="M54,125.62v2.94a5,5,0,0,0,1.9,4,4.84,4.84,0,0,0,1.55.8v-9A4.31,4.31,0,0,1,54,125.62Z"/><path class="deploy-software-cls-17" d="M57.42,132.33a3.3,3.3,0,0,1-1-.56,4,4,0,0,1-1.55-3.25v-2.07a6.37,6.37,0,0,0,2.5-.87,5.35,5.35,0,0,0,2.5.87v2.07a4.17,4.17,0,0,1-1.55,3.25A3.17,3.17,0,0,1,57.42,132.33Z"/><path class="deploy-software-cls-3" d="M54.92,126.45v2.07a4.2,4.2,0,0,0,1.55,3.25,3.93,3.93,0,0,0,1,.56v-6.75A5.31,5.31,0,0,1,54.92,126.45Z"/><line class="deploy-software-cls-16" x1="78.08" y1="132.29" x2="101.76" y2="132.29"/><line class="deploy-software-cls-16" x1="69.28" y1="132.29" x2="45.5" y2="132.29"/></g></g></svg>