<svg xmlns="http://www.w3.org/2000/svg" viewBox="0 0 60.27 53.6"><defs><style>.knowlwdge-cls-1{fill:#2b3a43;}.knowlwdge-cls-2{fill:#2e424a;}.knowlwdge-cls-3{fill:#f7333a;}.knowlwdge-cls-4{fill:#8b979a;}.knowlwdge-cls-5{fill:#ebebeb;}.knowlwdge-cls-6{fill:#c9d4d7;}.knowlwdge-cls-7{fill:#fee900;}.knowlwdge-cls-8{fill:#fed500;}.knowlwdge-cls-9{fill:#ffab42;}.knowlwdge-cls-10{fill:#fba03d;}.knowlwdge-cls-11{fill:#0096ea;}.knowlwdge-cls-12{fill:#008ad9;}</style></defs><title>knowledge_1</title><g id="Слой_2" data-name="Слой 2"><g id="Слой_1-2" data-name="Слой 1"><path class="knowlwdge-cls-1" d="M30.16,53.6H57.35a2.92,2.92,0,0,0,2.92-2.92V18.6a2.91,2.91,0,0,0-2.92-2.91H30.13"/><path class="knowlwdge-cls-2" d="M30.13,15.69H2.92A2.91,2.91,0,0,0,0,18.6V50.68A2.92,2.92,0,0,0,2.92,53.6H30.16"/><rect class="knowlwdge-cls-3" x="27.22" y="48.74" width="5.83" height="4.86"/><path class="knowlwdge-cls-4" d="M56.4,45.82v2.92a1,1,0,0,1-1,1H4.89a1,1,0,0,1-1-1V45.82L9.72,42.9l23.33,1,19.44-1Z"/><path class="knowlwdge-cls-5" d="M5.28,47.16a30.8,30.8,0,0,1,24.88.6v-35a30.81,30.81,0,0,0-25.67-.26,1,1,0,0,0-.58.89V46.27A1,1,0,0,0,5.28,47.16Z"/><path class="knowlwdge-cls-6" d="M30.16,47.76A30.8,30.8,0,0,1,55,47.16a1,1,0,0,0,1.36-.89V13.4a1,1,0,0,0-.57-.89,30.81,30.81,0,0,0-25.67.26Z"/><path class="knowlwdge-cls-1" d="M34.05,41.42a1,1,0,0,1-.93-.69,1,1,0,0,1,.64-1.21,30.76,30.76,0,0,1,3-.79,1,1,0,0,1,.4,1.9c-.95.2-1.9.45-2.82.74A1,1,0,0,1,34.05,41.42Z"/><path class="knowlwdge-cls-1" d="M52.52,41.42a1,1,0,0,1-.3-.05,29.75,29.75,0,0,0-11.29-1.28,1,1,0,1,1-.15-1.94,31.63,31.63,0,0,1,12,1.37,1,1,0,0,1-.29,1.9Z"/><path class="knowlwdge-cls-1" d="M52.52,37.52a1,1,0,0,1-.3-.05,29.65,29.65,0,0,0-17.88,0,1,1,0,1,1-.58-1.85,31.59,31.59,0,0,1,19.05,0,1,1,0,0,1-.29,1.9Z"/><path class="knowlwdge-cls-1" d="M34.05,33.64a1,1,0,0,1-.29-1.9,31.94,31.94,0,0,1,11-1.43,1,1,0,0,1,.92,1,1,1,0,0,1-1,.93,29.76,29.76,0,0,0-10.35,1.33A1,1,0,0,1,34.05,33.64Z"/><path class="knowlwdge-cls-1" d="M52.52,33.64a1,1,0,0,1-.3,0,31.72,31.72,0,0,0-3.76-.92,1,1,0,0,1-.79-1.12,1,1,0,0,1,1.13-.79,32.56,32.56,0,0,1,4,1,1,1,0,0,1-.29,1.9Z"/><path class="knowlwdge-cls-1" d="M52.52,29.74a.79.79,0,0,1-.3,0,29.8,29.8,0,0,0-17.88,0,1,1,0,1,1-.58-1.85,31.59,31.59,0,0,1,19.05,0,1,1,0,0,1-.29,1.9Z"/><path class="knowlwdge-cls-1" d="M34.05,25.85a1,1,0,0,1-.29-1.9,31.65,31.65,0,0,1,6-1.26,1,1,0,0,1,1.08.85A1,1,0,0,1,40,24.62a29.43,29.43,0,0,0-5.65,1.19A1,1,0,0,1,34.05,25.85Z"/><path class="knowlwdge-cls-1" d="M52.52,25.85a1,1,0,0,1-.3,0,29.31,29.31,0,0,0-8.47-1.37,1,1,0,0,1,0-2,31.82,31.82,0,0,1,9,1.46,1,1,0,0,1,.63,1.22A1,1,0,0,1,52.52,25.85Z"/><path class="knowlwdge-cls-1" d="M34.05,22a1,1,0,0,1-.29-1.89,31.41,31.41,0,0,1,13-1.27,1,1,0,0,1,.86,1.07,1,1,0,0,1-1.07.86,29.66,29.66,0,0,0-12.24,1.19A1,1,0,0,1,34.05,22Z"/><path class="knowlwdge-cls-1" d="M52.52,22a1,1,0,0,1-.3,0c-.61-.19-1.25-.37-1.88-.52a1,1,0,0,1-.71-1.18,1,1,0,0,1,1.17-.71c.68.16,1.35.35,2,.56A1,1,0,0,1,52.52,22Z"/><path class="knowlwdge-cls-1" d="M34.05,18.08a1,1,0,0,1-.93-.69,1,1,0,0,1,.64-1.21c.67-.21,1.34-.4,2-.56a1,1,0,0,1,1.18.71,1,1,0,0,1-.72,1.18c-.62.15-1.25.32-1.88.52A1,1,0,0,1,34.05,18.08Z"/><path class="knowlwdge-cls-1" d="M52.52,18.08a1,1,0,0,1-.3,0A29.61,29.61,0,0,0,40,16.84a1,1,0,1,1-.22-1.93,31.63,31.63,0,0,1,13,1.27,1,1,0,0,1-.29,1.9Z"/><path class="knowlwdge-cls-2" d="M7.8,41.42a1,1,0,0,1-.29-1.9,31,31,0,0,1,3-.79,1,1,0,0,1,.4,1.9c-.95.2-1.9.45-2.83.74A.93.93,0,0,1,7.8,41.42Z"/><path class="knowlwdge-cls-2" d="M26.27,41.42a1,1,0,0,1-.29-.05,29.82,29.82,0,0,0-11.3-1.28,1,1,0,0,1-1-.89,1,1,0,0,1,.89-1.05,31.61,31.61,0,0,1,12,1.37,1,1,0,0,1-.29,1.9Z"/><path class="knowlwdge-cls-2" d="M26.27,37.52a1,1,0,0,1-.29-.05,29.68,29.68,0,0,0-17.89,0,1,1,0,0,1-.58-1.85,31.59,31.59,0,0,1,19,0,1,1,0,0,1-.29,1.9Z"/><path class="knowlwdge-cls-2" d="M7.8,33.64a1,1,0,0,1-.29-1.9,32,32,0,0,1,11-1.43,1,1,0,0,1-.09,1.95A29.82,29.82,0,0,0,8.09,33.59.93.93,0,0,1,7.8,33.64Z"/><path class="knowlwdge-cls-2" d="M26.27,33.64a1,1,0,0,1-.29,0,32.37,32.37,0,0,0-3.77-.92,1,1,0,0,1-.78-1.12,1,1,0,0,1,1.12-.79,32.12,32.12,0,0,1,4,1,1,1,0,0,1-.29,1.9Z"/><path class="knowlwdge-cls-2" d="M7.8,29.74a1,1,0,0,1-.29-1.9,31.86,31.86,0,0,1,17-.56,1,1,0,0,1-.46,1.89,29.92,29.92,0,0,0-16,.52A.71.71,0,0,1,7.8,29.74Z"/><path class="knowlwdge-cls-2" d="M7.8,25.85a1,1,0,0,1-.92-.68A1,1,0,0,1,7.51,24a31.75,31.75,0,0,1,6-1.26,1,1,0,0,1,1.07.85,1,1,0,0,1-.86,1.08,29.59,29.59,0,0,0-5.65,1.19A.92.92,0,0,1,7.8,25.85Z"/><path class="knowlwdge-cls-2" d="M24.33,25.31a.85.85,0,0,1-.23,0,29.89,29.89,0,0,0-6.59-.84,1,1,0,0,1-1-1,1,1,0,0,1,1-1,32,32,0,0,1,7,.9,1,1,0,0,1-.23,1.92Z"/><path class="knowlwdge-cls-2" d="M7.8,22a1,1,0,0,1-.29-1.89,31.46,31.46,0,0,1,13-1.27,1,1,0,0,1,.86,1.07,1,1,0,0,1-1.08.86A29.67,29.67,0,0,0,8.09,21.93.92.92,0,0,1,7.8,22Z"/><path class="knowlwdge-cls-2" d="M7.8,18.08a1,1,0,0,1-.29-1.9c.67-.21,1.34-.4,2-.56A1,1,0,0,1,10,17.51c-.63.15-1.26.32-1.89.52A.93.93,0,0,1,7.8,18.08Z"/><path class="knowlwdge-cls-2" d="M24.33,17.53l-.23,0a29.85,29.85,0,0,0-10.36-.67,1,1,0,1,1-.21-1.93,31.75,31.75,0,0,1,11,.71,1,1,0,0,1-.23,1.91Z"/><path class="knowlwdge-cls-7" d="M40.5,10.34a10.34,10.34,0,1,0-18.78,6,21,21,0,0,1,3.6,8.5l.7,4H34.3L35,24.57a20,20,0,0,1,3.52-8.2A10.3,10.3,0,0,0,40.5,10.34Z"/><path class="knowlwdge-cls-8" d="M30.12,0V28.82H34.3L35,24.57a20,20,0,0,1,3.52-8.2A10.34,10.34,0,0,0,30.12,0Z"/><polygon class="knowlwdge-cls-9" points="32.98 28.1 31.14 27.88 33.08 11.75 27.24 11.75 29.18 27.88 27.34 28.1 25.15 9.9 35.17 9.9 32.98 28.1"/><polygon class="knowlwdge-cls-10" points="30.12 9.9 30.12 11.75 33.08 11.75 31.14 27.88 32.98 28.1 35.17 9.9 30.12 9.9"/><path class="knowlwdge-cls-11" d="M30.16,34.85h0a4.65,4.65,0,0,1-4.65-4.65V27.87h9.3V30.2A4.65,4.65,0,0,1,30.16,34.85Z"/><path class="knowlwdge-cls-12" d="M30.12,27.87v7h0a4.65,4.65,0,0,0,4.65-4.65V27.87Z"/></g></g></svg>