<?xml version="1.0" encoding="utf-8"?>
<!-- Generator: Adobe Illustrator 22.0.1, SVG Export Plug-In . SVG Version: 6.00 Build 0)  -->
<svg version="1.1" id="Слой_1" xmlns="http://www.w3.org/2000/svg" xmlns:xlink="http://www.w3.org/1999/xlink" x="0px" y="0px"
	 viewBox="0 0 47 64" style="enable-background:new 0 0 47 64;" xml:space="preserve">
<style type="text/css">
	.st0{fill:#1379E2;}
</style>
<g id="Layer_x0020_1">
	<path class="st0" d="M27.4,15.3L27.4,15.3L27.4,15.3L27.4,15.3L27.4,15.3L27.4,15.3L27.4,15.3L27.4,15.3l-0.1,0h-7.6l-0.1,0h0l0,0
		l0,0l0,0h0l0,0c-0.3,0-0.5,0.1-0.7,0.3l0,0c-0.2,0.2-0.3,0.5-0.3,0.8c0,0.3,0.1,0.6,0.3,0.8l0,0c0.2,0.2,0.4,0.3,0.7,0.3l0,0h0l0,0
		l0,0l0,0h0l0.1,0h7.6l0.1,0h0l0,0l0,0h0l0,0h0l0,0c0.3,0,0.5-0.1,0.7-0.3l0,0c0.2-0.2,0.3-0.5,0.3-0.8c0-0.3-0.1-0.6-0.3-0.8l0,0
		C27.9,15.5,27.7,15.4,27.4,15.3z M22.5,26.1c0-0.5,0.4-1,1-1c0.5,0,1,0.4,1,1v2.8c0.9,0,1.8,0.2,2.7,0.5c2.9,0.9,5.2,2.9,5.9,6.2
		c0.1,0.5-0.2,1.1-0.8,1.2c-0.5,0.1-1.1-0.2-1.2-0.8c-0.5-2.5-2.3-4.1-4.5-4.7c-0.7-0.2-1.4-0.3-2.1-0.4v9.5c1,0,2,0.1,3.2,0.4
		c1.3,0.4,2.5,1.1,3.4,2.3c0.7,1,1.2,2.2,1.2,3.9c0,2.6-1.6,4.6-3.9,5.7c-1.2,0.6-2.5,1-3.9,1.1v2.9c0,0.5-0.4,1-1,1s-1-0.4-1-1V54
		c-0.9,0-1.8-0.2-2.7-0.5c-2.9-0.9-5.2-2.9-5.9-6.2c-0.1-0.5,0.2-1.1,0.8-1.2c0.5-0.1,1.1,0.2,1.2,0.8c0.5,2.5,2.3,4.1,4.5,4.7
		c0.7,0.2,1.4,0.3,2.1,0.4v-9.5c-1,0-2-0.1-3.2-0.4c-2.3-0.7-4.6-2.4-4.6-6.2c0-2.6,1.6-4.6,3.9-5.7c1.2-0.6,2.5-1,3.9-1.1
		L22.5,26.1L22.5,26.1z M24.5,42.4v9.5c1.1-0.1,2.1-0.4,3-0.9c1.6-0.8,2.8-2.2,2.8-4c0-1.2-0.3-2.1-0.8-2.7
		c-0.6-0.8-1.5-1.3-2.4-1.6C26.2,42.5,25.3,42.4,24.5,42.4L24.5,42.4z M22.5,40.5V31c-1.1,0.1-2.1,0.4-3,0.9c-1.7,0.8-2.8,2.2-2.8,4
		c0,2.7,1.6,3.8,3.2,4.3C20.8,40.4,21.7,40.5,22.5,40.5L22.5,40.5z M26.5,13.3c0-0.1,0.1-0.1,0.1-0.2l4.2-8.3
		C29.1,5.4,27,5.9,25.9,4c-1-1.8-2.4-1.8-2.4-1.8c0,0-1.4,0-2.4,1.8c-1.1,2-3.2,1.4-4.8,0.9l4.2,8.4l0,0.1H26.5L26.5,13.3z
		 M18.4,13.6l-4.7-9.3c-0.1-0.2-0.1-0.3-0.1-0.5c0-1,0.5-1.3,1.4-1.3c0.5,0,1,0.2,1.6,0.4c1,0.3,2.4,0.8,2.8,0.1
		c1.6-2.8,4.1-2.8,4.2-2.8c0,0,2.6,0,4.2,2.8c0.4,0.7,1.7,0.2,2.8-0.1C31,2.7,31.6,2.5,32,2.5c0.9,0,1.4,0.4,1.4,1.3h0
		c0,0.1,0,0.3-0.1,0.4l-4.7,9.4c0.3,0.2,0.6,0.4,0.9,0.6l0,0l0,0l0,0c0.5,0.6,0.9,1.3,0.9,2.2c0,0.9-0.4,1.6-0.9,2.2l0,0l0,0l0,0
		c-0.1,0.1-0.1,0.1-0.2,0.2c5.4,3.5,25,18.2,14.9,36.1c-2,3.5-5,5.8-8.6,7.1c-3.5,1.3-7.7,1.8-12,1.7c-4.4,0.1-8.5-0.3-12-1.7
		c-3.6-1.4-6.6-3.6-8.6-7.1c-10.2-17.9,9.5-32.6,14.9-36.1c-0.1-0.1-0.2-0.1-0.2-0.2l0,0l0,0l0,0c-0.5-0.6-0.9-1.3-0.9-2.2
		c0-0.9,0.4-1.6,0.9-2.2l0,0l0,0l0,0C17.8,14,18.1,13.8,18.4,13.6z M26.7,19.6h-6.4c-0.1,0.1-0.2,0.2-0.3,0.2
		C18.7,20.6-5.9,35.6,4.6,54c1.7,3,4.4,5,7.6,6.2c3.3,1.2,7.2,1.7,11.3,1.5h0.1c4.1,0.1,8-0.3,11.3-1.5c3.2-1.2,5.9-3.2,7.6-6.2
		C53.1,35.1,27,19.9,26.9,19.8C26.9,19.8,26.8,19.7,26.7,19.6z"/>
</g>
</svg>
