<?xml version="1.0" encoding="utf-8"?>
<!-- Generator: Adobe Illustrator 21.1.0, SVG Export Plug-In . SVG Version: 6.00 Build 0)  -->
<svg version="1.1" id="Warstwa_1" xmlns="http://www.w3.org/2000/svg" xmlns:xlink="http://www.w3.org/1999/xlink" x="0px" y="0px"
	 viewBox="0 0 120 120" style="enable-background:new 0 0 120 120;" xml:space="preserve">
<style type="text/css">
	.st0{fill:#CC002C;}
	.st1{opacity:0.1;enable-background:new    ;}
	.st2{fill:#DBE2E5;}
	.st3{opacity:0.1;}
</style>
<g>
	<path class="st0" d="M80.7,18.6c-2.2-4.2-6.1-5.5-10.5-3.6c-4.5,1.9-13.8,8.5-13.8,8.5l-0.8,0.6c0.4,1,0.6,2.1,0.6,3.2
		c0,1.2-0.2,2.3-0.6,3.3h26.3C81.9,30.6,82.4,21.8,80.7,18.6z"/>
	<path class="st1" d="M80.7,18.6c-2.2-4.2-6.1-5.5-10.5-3.6c-4.5,1.9-13.8,8.5-13.8,8.5l-0.8,0.6c0.4,1,0.6,2.1,0.6,3.2
		c0,1.2-0.2,2.3-0.6,3.3h26.3C81.9,30.6,82.4,21.8,80.7,18.6z"/>
	<path class="st0" d="M39.2,30.6c-0.4-1-0.6-2.1-0.6-3.3c0-1.4,0.3-2.6,0.8-3.8l0,0c0,0-9.4-6.5-13.8-8.5c-4.4-1.9-8.2-0.6-10.5,3.6
		c-1.6,3.1-1.2,12-1.2,12h34.9l0,0L39.2,30.6z"/>
	<path class="st0" d="M47.1,30.5l8.9,0c0.4-1,0.6-2.1,0.6-3.3c0-5.4-4.2-9.7-9.4-9.7s-9.4,4.3-9.4,9.7c0,1.2,0.2,2.3,0.6,3.3
		L47.1,30.5"/>
	<path class="st2" d="M84.1,105.8H9.9c-1.8,0-3.3-1.5-3.3-3.3V41.8c0-1.8,1.5-3.3,3.3-3.3h74.2c1.8,0,3.3,1.5,3.3,3.3v60.7
		C87.4,104.3,85.9,105.8,84.1,105.8z"/>
	<path class="st3" d="M84.2,38.6H47.1v67.3h37.1c1.8,0,3.3-1.5,3.3-3.3V41.8C87.5,40,86,38.6,84.2,38.6z"/>
	<path class="st2" d="M91,61H4.2c-2,0-3.7-1.6-3.7-3.7V34.2c0-2,1.6-3.7,3.7-3.7H91c2,0,3.7,1.6,3.7,3.7v23.1C94.7,59.3,93,61,91,61
		z"/>
	<path class="st3" d="M91,30.5H47.1V61H91c2,0,3.7-1.6,3.7-3.7V34.2C94.7,32.1,93,30.5,91,30.5z"/>
	<path class="st3" d="M0.8,58.3C1.2,59.8,2.6,61,4.3,61h86.8c1.7,0,3.1-1.1,3.5-2.7H0.8z"/>
	<rect x="38.2" y="30.1" class="st0" width="17.9" height="75.7"/>
	<path class="st0" d="M56.5,27.2c0-5.4-4.2-9.7-9.4-9.7L47,105.8h9.1V30.5H56C56.3,29.5,56.5,28.3,56.5,27.2z"/>
	<rect x="38.1" y="58.3" class="st1" width="17.9" height="2.7"/>
	<path class="st1" d="M56.5,27.2c0-5.4-4.2-9.7-9.4-9.7L47,105.8h9.1V30.5H56C56.3,29.5,56.5,28.3,56.5,27.2z"/>
	<path class="st0" d="M110.2,47.9c-1.5-2.8-4.1-3.6-7-2.4c-3,1.3-9.2,5.6-9.2,5.6l-0.5,0.4c0.2,0.7,0.4,1.4,0.4,2.2
		c0,0.8-0.1,1.5-0.4,2.2h17.4C111.1,55.9,111.3,50,110.2,47.9z"/>
	<path class="st1" d="M110.2,47.9c-1.5-2.8-4.1-3.6-7-2.4c-3,1.3-9.2,5.6-9.2,5.6l-0.5,0.4c0.2,0.7,0.4,1.4,0.4,2.2
		c0,0.8-0.1,1.5-0.4,2.2h17.4C111.1,55.9,111.3,50,110.2,47.9z"/>
	<path class="st0" d="M82.7,55.9c-0.2-0.7-0.4-1.4-0.4-2.2c0-0.9,0.2-1.8,0.5-2.5l0,0c0,0-6.2-4.3-9.2-5.6c-2.9-1.3-5.5-0.4-7,2.4
		c-1.1,2.1-0.8,8-0.8,8h23.2l0,0L82.7,55.9z"/>
	<path class="st0" d="M87.9,55.8l5.9,0c0.2-0.7,0.4-1.4,0.4-2.2c0-3.6-2.8-6.4-6.3-6.4s-6.3,2.9-6.3,6.4c0,0.8,0.1,1.5,0.4,2.2
		L87.9,55.8"/>
	<path class="st2" d="M112.5,105.8H63.2c-1.2,0-2.2-1-2.2-2.2V63.3c0-1.2,1-2.2,2.2-2.2h49.3c1.2,0,2.2,1,2.2,2.2v40.3
		C114.7,104.8,113.7,105.8,112.5,105.8z"/>
	<path class="st3" d="M112.6,61.1H87.9v44.7h24.6c1.2,0,2.2-1,2.2-2.2V63.3C114.7,62.1,113.8,61.1,112.6,61.1z"/>
	<path class="st2" d="M117.1,76H59.4c-1.3,0-2.4-1.1-2.4-2.4V58.2c0-1.3,1.1-2.4,2.4-2.4h57.7c1.3,0,2.4,1.1,2.4,2.4v15.4
		C119.5,74.9,118.4,76,117.1,76z"/>
	<path class="st3" d="M117.1,55.8H87.9V76h29.1c1.3,0,2.4-1.1,2.4-2.4V58.2C119.5,56.9,118.4,55.8,117.1,55.8z"/>
	<path class="st3" d="M57.2,74.2c0.3,1,1.2,1.8,2.3,1.8h57.7c1.1,0,2.1-0.8,2.3-1.8H57.2z"/>
	<rect x="82" y="55.4" class="st0" width="11.9" height="50.4"/>
	<path class="st0" d="M94.2,53.6c0-3.6-2.8-6.4-6.3-6.4l-0.1,58.7h6v-50h-0.1C94.1,55.1,94.2,54.4,94.2,53.6z"/>
	<rect x="81.9" y="74.2" class="st1" width="11.9" height="1.8"/>
	<path class="st1" d="M94.2,53.6c0-3.6-2.8-6.4-6.3-6.4l-0.1,58.7h6v-50h-0.1C94.1,55.1,94.2,54.4,94.2,53.6z"/>
</g>
</svg>
