<svg xmlns="http://www.w3.org/2000/svg" viewBox="0 0 59.9 53.5"><defs><style>.sdk-cls-1{fill:#fba03d;}.sdk-cls-2{fill:#008ad9;}.sdk-cls-3{fill:#2e424a;}.sdk-cls-4{fill:#2b3a43;}.sdk-cls-5{fill:#ebd2af;}.sdk-cls-6{fill:#ffab42;}.sdk-cls-7{fill:#c9d4d7;}.sdk-cls-8{fill:#d8e3e6;}.sdk-cls-9{fill:#eff2fa;}.sdk-cls-10{fill:none;}</style></defs><title>sdk</title><g id="Слой_2" data-name="Слой 2"><g id="Слой_1-2" data-name="Слой 1"><g id="Слой_2-2" data-name="Слой 2"><path class="sdk-cls-1" d="M59.5,26.4l-4.6-9.6a1,1,0,0,0-.9-.6H5.8a1,1,0,0,0-.9.6L.3,26.4A2.66,2.66,0,0,0,0,27.6V33H59.8V27.6A2.66,2.66,0,0,0,59.5,26.4Z"/><path class="sdk-cls-2" d="M8.1,1.3,6.4,4.8h18L22.7,1.3A2.33,2.33,0,0,0,20.6,0H10.2A2.33,2.33,0,0,0,8.1,1.3Z"/><path class="sdk-cls-3" d="M29.9,38.6H3.9c-.7,0-1.2-.9-1.2-2.1V6.9c0-1.2.5-2.1,1.2-2.1h26"/><path class="sdk-cls-4" d="M29,4.8H57.1c.7,0,1.3.9,1.3,2.1V36.5c0,1.2-.6,2.1-1.3,2.1H29"/><path class="sdk-cls-5" d="M58.8,27H41.9a1.07,1.07,0,0,0-.9.7l-1.2,2.8A2,2,0,0,1,38,31.8H22a1.92,1.92,0,0,1-1.8-1.3L19,27.7a1.07,1.07,0,0,0-.9-.7H1.1c-.6,0-1,.5-1,1.2V51a1.13,1.13,0,0,0,1,1.2H58.8c.6,0,1-.5,1-1.2V28.2A1.13,1.13,0,0,0,58.8,27Z"/><path class="sdk-cls-1" d="M29.6,53.5H58.9c.6,0,1-.6,1-1.3V27a1.23,1.23,0,0,0-1-1.3H42a1.07,1.07,0,0,0-.9.7l-1.2,3.1A2.1,2.1,0,0,1,38.1,31H29.7"/><path class="sdk-cls-6" d="M29.7,30.9H22.1a2,2,0,0,1-1.8-1.5l-1.2-3.1a1.07,1.07,0,0,0-.9-.7H1.2c-.6,0-1,.6-1,1.3V52.2a1.23,1.23,0,0,0,1,1.3H29.6"/><path class="sdk-cls-7" d="M47.2,15.7h7.2a1.16,1.16,0,0,0,1.2-1.2V9.7a1.16,1.16,0,0,0-1.2-1.2H47.2"/><path class="sdk-cls-8" d="M47.2,8.5H40a1.16,1.16,0,0,0-1.2,1.2v4.8A1.16,1.16,0,0,0,40,15.7h7.2"/><path class="sdk-cls-9" d="M47.5,8.5h-.3"/><path class="sdk-cls-4" d="M52,10.9H50.8a1.16,1.16,0,0,0-1.2,1.2h0a1.16,1.16,0,0,0,1.2,1.2H52a1.16,1.16,0,0,0,1.2-1.2h0A1.22,1.22,0,0,0,52,10.9Z"/><rect class="sdk-cls-10" x="11.6" y="36.1" width="36.8" height="15.8"/></g></g></g></svg>