<?xml version="1.0" encoding="utf-8"?>
<!-- Generator: Adobe Illustrator 21.1.0, SVG Export Plug-In . SVG Version: 6.00 Build 0)  -->
<svg version="1.1" id="Warstwa_1" xmlns="http://www.w3.org/2000/svg" xmlns:xlink="http://www.w3.org/1999/xlink" x="0px" y="0px"
	 viewBox="0 0 120 120" style="enable-background:new 0 0 120 120;" xml:space="preserve">
<style type="text/css">
	.st0{fill:#EAEEEF;}
	.st1{fill:#DBE2E5;}
	.st2{fill:#D0D6D9;}
	.st3{fill:#C4C9CC;}
	.st4{fill:#FFFFFF;}
	.st5{fill:#FCA426;}
	.st6{fill:#22292E;}
	.st7{fill:#DD891B;}
	.st8{opacity:0.1;enable-background:new    ;}
</style>
<g>
	<path class="st0" d="M18.2,34.4H98v74.1H1.1v-57L18.2,34.4z"/>
	<path class="st1" d="M18.2,34.4v17.1H1.1L18.2,34.4z"/>
	<g>
		<path class="st1" d="M98.8,28.7v79.8H24.7V11.6h57L98.8,28.7z"/>
		<path class="st2" d="M98.8,108.5h-37V11.6h19.9l17.1,17.1V108.5z"/>
		<path class="st3" d="M98.8,28.7H81.7V11.6L98.8,28.7z"/>
		<path class="st4" d="M71.7,99.9v-2.8h17.1v2.8H71.7z M36.1,77.1h52.7V80H36.1V77.1z M36.1,67.2h52.7V70H36.1V67.2z M36.1,58.6
			h52.7v2.8H36.1V58.6z M36.1,50.1h52.7v2.8H36.1V50.1z M36.1,41.5h52.7v2.8H36.1V41.5z M36.1,33h52.7v2.8H36.1V33z M36.1,24.4h17.1
			v2.8H36.1V24.4z"/>
	</g>
	<path class="st5" d="M114.8,35.2h-3.7c-2.6,0-4.7,2.3-4.7,5.2v50.9c0,0.2,0,0.4,0.1,0.5l5.6,10.4c0.4,0.7,1.3,0.7,1.7,0l5.6-10.4
		c0.1-0.2,0.1-0.4,0.1-0.5V40.4C119.6,37.5,117.4,35.2,114.8,35.2z"/>
	<path class="st4" d="M106.3,91.2c0,0.2,0,0.4,0.1,0.5l5.6,10.4c0.4,0.7,1.3,0.7,1.7,0l5.6-10.4c0.1-0.2,0.1-0.4,0.1-0.5"/>
	<path class="st6" d="M110.4,99.1l1.7,3.1c0.4,0.7,1.3,0.7,1.7,0l1.7-3.1H110.4z"/>
	<rect x="106.3" y="45.6" class="st7" width="13.2" height="3.3"/>
	<path class="st5" d="M119.6,45.6v-5.3c0-2.8-2.1-5.2-4.7-5.2h-3.7c-2.6,0-4.7,2.3-4.7,5.2v5.3H119.6z"/>
	<path class="st8" d="M113,102.7c0.3,0,0.7-0.2,0.8-0.5l5.6-10.4c0.1-0.2,0.1-0.4,0.1-0.5V40.4c0-2.8-2.1-5.2-4.7-5.2H113"/>
	<rect x="106.3" y="50.6" class="st7" width="13.2" height="1.7"/>
</g>
</svg>
