<?xml version="1.0" encoding="utf-8"?>
<!-- Generator: Adobe Illustrator 21.1.0, SVG Export Plug-In . SVG Version: 6.00 Build 0)  -->
<svg version="1.1" xmlns="http://www.w3.org/2000/svg" xmlns:xlink="http://www.w3.org/1999/xlink" x="0px" y="0px"
	 viewBox="0 0 218 155" style="enable-background:new 0 0 218 155;" xml:space="preserve">
<style type="text/css">
	.st0{display:none;}
	.st1{display:inline;fill:#39444D;}
	.st2{display:inline;fill:#22292E;}
	.st3{display:inline;}
	.st4{fill:#3FB6A1;}
	.st5{fill:#2A3239;}
	.st6{display:inline;opacity:0.1;enable-background:new    ;}
	.st7{display:inline;fill:#333D45;}
	.st8{display:inline;fill:#FFFFFF;}
	.st9{display:inline;fill:#E1E3E5;}
	.st10{display:inline;fill:#D83A3A;}
	.st11{display:inline;opacity:5.000000e-02;enable-background:new    ;}
	.st12{display:inline;fill:#DBE2E5;}
	.st13{display:inline;opacity:8.000000e-02;}
	.st14{display:inline;fill:none;stroke:#FCA426;stroke-miterlimit:10;}
	.st15{display:inline;opacity:0.5;fill:#39444D;}
	.st16{display:inline;fill:#1875CA;}
	.st17{display:inline;opacity:0.7;fill:#1875CA;}
	.st18{display:inline;opacity:0.5;fill:#1875CA;}
	.st19{display:inline;opacity:0.3;fill:#1875CA;}
	.st20{display:inline;opacity:0.15;fill:#1875CA;}
	.st21{display:inline;opacity:0.7;fill:#FCA426;}
	.st22{display:inline;opacity:0.5;fill:#FCA426;}
	.st23{display:inline;opacity:0.3;fill:#FCA426;}
	.st24{display:inline;opacity:0.15;fill:#FCA426;}
	.st25{display:inline;fill:#42BBA6;}
	.st26{display:inline;opacity:0.7;fill:#42BBA6;}
	.st27{display:inline;opacity:0.5;fill:#42BBA6;}
	.st28{display:inline;opacity:0.3;fill:#42BBA6;}
	.st29{display:inline;opacity:0.15;fill:#42BBA6;}
	.st30{fill:#22292E;}
	.st31{fill:#39444D;}
	.st32{opacity:0.1;enable-background:new    ;}
	.st33{fill:#2EA38D;}
	.st34{opacity:0.2;enable-background:new    ;}
	.st35{opacity:0.15;}
	.st36{opacity:0.15;enable-background:new    ;}
	.st37{opacity:0.3;enable-background:new    ;}
	.st38{opacity:0.4;fill:#22292E;enable-background:new    ;}
	.st39{fill:#4A95EB;}
	.st40{opacity:0.8;}
	.st41{fill:#FFFFFF;}
	.st42{opacity:8.000000e-02;}
	.st43{fill:#DBE2E5;}
	.st44{opacity:0.2;}
	.st45{fill:none;stroke:#FCA426;stroke-miterlimit:10;}
	.st46{display:inline;fill:#FEB23F;}
	.st47{display:inline;fill:#E5A139;}
	.st48{display:inline;opacity:7.000000e-02;enable-background:new    ;}
	.st49{fill:#8E9699;}
</style>
<g id="cloud_compute" class="st0">
	<path class="st1" d="M160.9,48H60.1c-2.3,0-4.1-1.9-4.1-4.1V10.1C56,7.9,57.9,6,60.1,6h100.8c2.3,0,4.1,1.9,4.1,4.1v33.8
		C165,46.1,163.1,48,160.9,48z"/>
	<path class="st2" d="M152.6,17H69.4c-1.3,0-2.4,1.1-2.4,2.4v15.1c0,1.3,1.1,2.4,2.4,2.4h83.1c1.3,0,2.4-1.1,2.4-2.4V19.4
		C155,18.1,153.9,17,152.6,17z"/>
	<g class="st3">
		<circle class="st4" cx="75.4" cy="26.4" r="2.4"/>
		<circle class="st4" cx="84" cy="26.4" r="2.4"/>
		<circle class="st4" cx="92.5" cy="26.4" r="2.4"/>
	</g>
	<g class="st3">
		<rect x="139" y="21" class="st5" width="2" height="2"/>
		<rect x="144" y="21" class="st5" width="2" height="2"/>
		<rect x="149" y="21" class="st5" width="2" height="2"/>
		<rect x="139" y="26" class="st5" width="2" height="2"/>
		<rect x="144" y="26" class="st5" width="2" height="2"/>
		<rect x="149" y="26" class="st5" width="2" height="2"/>
		<rect x="139" y="31" class="st5" width="2" height="2"/>
		<rect x="144" y="31" class="st5" width="2" height="2"/>
		<rect x="149" y="31" class="st5" width="2" height="2"/>
	</g>
	<path class="st6" d="M160.1,6H109v42h51.1c2.6,0,4.9-1.9,4.9-3.9V9.9C165,7.9,162.7,6,160.1,6z"/>
	<path class="st1" d="M160.9,142H60.1c-2.3,0-4.1-1.9-4.1-4.1v-33.8c0-2.3,1.9-4.1,4.1-4.1h100.8c2.3,0,4.1,1.9,4.1,4.1v33.8
		C165,140.1,163.1,142,160.9,142z"/>
	<path class="st2" d="M152.6,111H69.4c-1.3,0-2.4,1.1-2.4,2.4v15.1c0,1.3,1.1,2.4,2.4,2.4h83.1c1.3,0,2.4-1.1,2.4-2.4v-15.1
		C155,112.1,153.9,111,152.6,111z"/>
	<g class="st3">
		<circle class="st4" cx="75.4" cy="120.4" r="2.4"/>
		<circle class="st4" cx="84" cy="120.4" r="2.4"/>
		<circle class="st4" cx="92.5" cy="120.4" r="2.4"/>
	</g>
	<g class="st3">
		<rect x="139" y="115" class="st5" width="2" height="2"/>
		<rect x="144" y="115" class="st5" width="2" height="2"/>
		<rect x="149" y="115" class="st5" width="2" height="2"/>
		<rect x="139" y="120" class="st5" width="2" height="2"/>
		<rect x="144" y="120" class="st5" width="2" height="2"/>
		<rect x="149" y="120" class="st5" width="2" height="2"/>
		<rect x="139" y="125" class="st5" width="2" height="2"/>
		<rect x="144" y="125" class="st5" width="2" height="2"/>
		<rect x="149" y="125" class="st5" width="2" height="2"/>
	</g>
	<path class="st6" d="M160.1,100H109v42h51.1c2.6,0,4.9-1.9,4.9-3.9v-34.2C165,101.9,162.7,100,160.1,100z"/>
	<path class="st1" d="M160.9,95H60.1c-2.3,0-4.1-1.9-4.1-4.1V57.1c0-2.3,1.9-4.1,4.1-4.1h100.8c2.3,0,4.1,1.9,4.1,4.1v33.8
		C165,93.1,163.1,95,160.9,95z"/>
	<path class="st2" d="M152.6,64H69.4c-1.3,0-2.4,1.1-2.4,2.4v15.1c0,1.3,1.1,2.4,2.4,2.4h83.1c1.3,0,2.4-1.1,2.4-2.4V66.4
		C155,65.1,153.9,64,152.6,64z"/>
	<g class="st3">
		<circle class="st4" cx="75.4" cy="73.4" r="2.4"/>
		<circle class="st4" cx="84" cy="73.4" r="2.4"/>
		<circle class="st4" cx="92.5" cy="73.4" r="2.4"/>
	</g>
	<g class="st3">
		<rect x="139" y="68" class="st5" width="2" height="2"/>
		<rect x="144" y="68" class="st5" width="2" height="2"/>
		<rect x="149" y="68" class="st5" width="2" height="2"/>
		<rect x="139" y="73" class="st5" width="2" height="2"/>
		<rect x="144" y="73" class="st5" width="2" height="2"/>
		<rect x="149" y="73" class="st5" width="2" height="2"/>
		<rect x="139" y="78" class="st5" width="2" height="2"/>
		<rect x="144" y="78" class="st5" width="2" height="2"/>
		<rect x="149" y="78" class="st5" width="2" height="2"/>
	</g>
	<path class="st6" d="M160.1,53H109v42h51.1c2.6,0,4.9-1.9,4.9-3.9V56.9C165,54.9,162.7,53,160.1,53z"/>
	<path class="st1" d="M173.2,60.1c24.5,0,44.3,19.9,44.3,44.3s-19.9,44.3-44.3,44.3s-44.3-19.9-44.3-44.3S148.7,60.1,173.2,60.1z"/>
	<path class="st7" d="M173,148.7L173,148.7V60.1l0,0c24.5,0,44.3,19.9,44.3,44.3S197.5,148.7,173,148.7z"/>
	<path class="st8" d="M173.2,66.3c21.1,0,38.1,17.1,38.1,38.1s-17.1,38.1-38.1,38.1s-38.1-17.1-38.1-38.1S152.1,66.3,173.2,66.3z"/>
	<path class="st9" d="M197.5,97.2c-3.1-10.4-12.8-18-24.2-18c-14,0-25.3,11.3-25.3,25.3c0,7,2.8,13.3,7.4,17.9l-5.1,5.6
		c-6.1-6-9.9-14.3-9.9-23.5c0-18.1,14.7-32.9,32.9-32.9c14.9,0,27.4,9.8,31.4,23.4L197.5,97.2z"/>
	<path class="st10" d="M198.5,104.3c0-2.2-0.3-4.4-0.8-6.5l7.3-2c0.7,2.7,1.1,5.5,1.1,8.5c0,9.3-3.9,17.6-10,23.6l-5.5-5.1
		C195.5,118.2,198.5,111.6,198.5,104.3z"/>
	<path class="st11" d="M173,142.5L173,142.5V66.3l0,0c21.1,0,38.1,17.1,38.1,38.1S194.1,142.5,173,142.5z"/>
	<path class="st1" d="M169.7,109.2c0,0,0-0.1,0-0.1c-2-0.9-3.3-2.8-3.3-5.1c0-3,2.4-5.5,5.5-5.5c1.5,0,2.9,0.6,3.8,1.6h0l24.9,20.6
		L169.7,109.2z M171.8,101.4c-0.9,0-1.6,0.7-1.6,1.6s0.7,1.6,1.6,1.6s1.6-0.7,1.6-1.6C173.4,102.2,172.7,101.4,171.8,101.4z"/>
	<path class="st12" d="M1,92H71c0.5,0,1,0.5,1,1.2v54.7c0,0.6-0.4,1.2-1,1.2H1c-0.5,0-1-0.5-1-1.2V93.2C0,92.5,0.4,92,1,92z"/>
	<path class="st2" d="M4,96.5C4,96.2,4.4,96,5.1,96h61.8c0.7,0,1.1,0.2,1.1,0.5V145H4V96.5z"/>
	<path class="st13" d="M72,92H35v57h37V92z"/>
	<path class="st14" d="M34.5,90.1c0,0-2.5-11.6,6.9-15.8c6.2-2.8,12.6,0,12.6,0"/>
	<rect x="32.5" y="85.5" transform="matrix(4.297369e-11 -1 1 4.297369e-11 -55.5 124.5)" class="st1" width="4" height="9"/>
	<rect x="50" y="65" transform="matrix(-1 -4.244306e-11 4.244306e-11 -1 106 147)" class="st2" width="6" height="17"/>
	<rect x="46" y="69" transform="matrix(-1 -4.365587e-11 4.365587e-11 -1 96 147)" class="st1" width="4" height="9"/>
	<path class="st15" d="M62,141H9c-0.5,0-1-0.4-1-1l0,0c0-0.6,0.4-1,1-1h53c0.5,0,1,0.4,1,1l0,0C63,140.6,62.5,141,62,141z"/>
	<path class="st15" d="M62,136H9c-0.5,0-1-0.4-1-1l0,0c0-0.6,0.4-1,1-1h53c0.5,0,1,0.4,1,1l0,0C63,135.6,62.5,136,62,136z"/>
	<path class="st16" d="M47,114h-8c-0.5,0-1-0.4-1-1l0,0c0-0.6,0.5-1,1-1h8c0.5,0,1,0.4,1,1l0,0C48,113.6,47.5,114,47,114z"/>
	<path class="st17" d="M47,118h-8c-0.5,0-1-0.4-1-1l0,0c0-0.6,0.5-1,1-1h8c0.5,0,1,0.4,1,1l0,0C48,117.6,47.5,118,47,118z"/>
	<path class="st18" d="M47,122h-8c-0.5,0-1-0.4-1-1l0,0c0-0.6,0.5-1,1-1h8c0.5,0,1,0.4,1,1l0,0C48,121.6,47.5,122,47,122z"/>
	<path class="st19" d="M47,126h-8c-0.5,0-1-0.4-1-1l0,0c0-0.6,0.5-1,1-1h8c0.5,0,1,0.4,1,1l0,0C48,125.6,47.5,126,47,126z"/>
	<path class="st20" d="M47,130h-8c-0.5,0-1-0.4-1-1l0,0c0-0.6,0.5-1,1-1h8c0.5,0,1,0.4,1,1l0,0C48,129.6,47.5,130,47,130z"/>
	<path class="st21" d="M32,118h-8c-0.5,0-1-0.4-1-1l0,0c0-0.6,0.4-1,1-1h8c0.5,0,1,0.4,1,1l0,0C33,117.6,32.5,118,32,118z"/>
	<path class="st22" d="M32,122h-8c-0.5,0-1-0.4-1-1l0,0c0-0.6,0.4-1,1-1h8c0.5,0,1,0.4,1,1l0,0C33,121.6,32.5,122,32,122z"/>
	<path class="st23" d="M32,126h-8c-0.5,0-1-0.4-1-1l0,0c0-0.6,0.4-1,1-1h8c0.5,0,1,0.4,1,1l0,0C33,125.6,32.5,126,32,126z"/>
	<path class="st24" d="M32,130h-8c-0.5,0-1-0.4-1-1l0,0c0-0.6,0.4-1,1-1h8c0.5,0,1,0.4,1,1l0,0C33,129.6,32.5,130,32,130z"/>
	<path class="st25" d="M17,114H9c-0.5,0-1-0.4-1-1l0,0c0-0.6,0.4-1,1-1h8c0.5,0,1,0.4,1,1l0,0C18,113.6,17.6,114,17,114z"/>
	<path class="st26" d="M17,118H9c-0.5,0-1-0.4-1-1l0,0c0-0.6,0.4-1,1-1h8c0.5,0,1,0.4,1,1l0,0C18,117.6,17.6,118,17,118z"/>
	<path class="st27" d="M62,122h-8c-0.5,0-1-0.4-1-1l0,0c0-0.6,0.5-1,1-1h8c0.5,0,1,0.4,1,1l0,0C63,121.6,62.5,122,62,122z"/>
	<path class="st28" d="M62,126h-8c-0.5,0-1-0.4-1-1l0,0c0-0.6,0.5-1,1-1h8c0.5,0,1,0.4,1,1l0,0C63,125.6,62.5,126,62,126z"/>
	<path class="st29" d="M62,130h-8c-0.5,0-1-0.4-1-1l0,0c0-0.6,0.5-1,1-1h8c0.5,0,1,0.4,1,1l0,0C63,129.6,62.5,130,62,130z"/>
	<path class="st27" d="M17,122H9c-0.5,0-1-0.4-1-1l0,0c0-0.6,0.4-1,1-1h8c0.5,0,1,0.4,1,1l0,0C18,121.6,17.6,122,17,122z"/>
	<path class="st28" d="M17,126H9c-0.5,0-1-0.4-1-1l0,0c0-0.6,0.4-1,1-1h8c0.5,0,1,0.4,1,1l0,0C18,125.6,17.6,126,17,126z"/>
	<path class="st29" d="M17,130H9c-0.5,0-1-0.4-1-1l0,0c0-0.6,0.4-1,1-1h8c0.5,0,1,0.4,1,1l0,0C18,129.6,17.6,130,17,130z"/>
</g>
<g id="bare_metal">
	<path class="st30" d="M163.6,6H53.6c0,0-2.4,0.8-2.6,2.2v1.2c0.2,1.3,1.3,2.4,2,2.4v126.7c0.6,2.2,4.7,4.5,4.7,4.5l0,0h101.8
		c2.2-0.5,4-2.3,4.6-4.5l0,0l0,0V11.8c0.8,0,1.9-1.1,2-2.4V8.2C166,6.8,163.6,6,163.6,6z"/>
	<path class="st31" d="M57,12v124.4c0,1.5,1.1,2.6,2.6,2.6l0,0h97.9c1.5,0,2.6-1.1,2.6-2.6l0,0l0,0V12H57z"/>
	<path class="st32" d="M163.6,6H109v137h50.6c0,0,4-2.3,4.4-4.5l0,0l0,0V11.8c0.9,0,2-1.1,2-2.4V8.2C166,6.8,163.6,6,163.6,6z"/>
	<g>
		<path class="st30" d="M113.7,70h35.7c1.5,0,2.7,1.2,2.7,2.7v54.6c0,1.5-1.2,2.7-2.7,2.7h-35.6c-1.5,0-2.7-1.2-2.7-2.7V72.8
			C111,71.2,112.2,70,113.7,70z"/>
		<path class="st4" d="M116.4,74h30.2c0.7,0,1.3,0.6,1.3,1.3V121h-33V75.5C115.1,74.7,115.7,74.1,116.4,74z"/>
		<g>
			<rect x="115" y="125" class="st31" width="7" height="5"/>
			<rect x="119" y="126" class="st4" width="1" height="4"/>
			<rect x="117" y="126" class="st4" width="1" height="4"/>
			<rect x="131" y="125" class="st31" width="17" height="5"/>
			<rect x="146" y="126" class="st33" width="1" height="4"/>
			<rect x="143" y="126" class="st33" width="1" height="4"/>
			<rect x="133" y="126" class="st33" width="1" height="4"/>
			<rect x="135" y="126" class="st33" width="1" height="4"/>
			<rect x="138" y="126" class="st33" width="1" height="4"/>
			<rect x="141" y="126" class="st33" width="1" height="4"/>
		</g>
		<polygon class="st33" points="118,113 118,116.5 118,118 119.6,118 123,118 123,117 119,117 119,113 		"/>
		<polygon class="st33" points="146,82 146,78.5 146,77 144.2,77 141,77 141,78 145,78 145,82 		"/>
		<circle id="Shape-5_2_" class="st33" cx="119.7" cy="78.7" r="2"/>
		<circle id="Shape-5-2_2_" class="st33" cx="144" cy="116.4" r="2"/>
		<g>
			<path class="st33" d="M135.2,90.9c-0.1,0-0.1-0.1-0.2-0.1c0-0.1,0-0.1,0-0.2c0-0.1,0-0.2,0.1-0.2l0.2-0.4
				c0.1-0.1,0.1-0.4,0.2-0.5c0.1-0.2,0.1-0.5,0.1-0.7s0-0.5-0.1-0.6c0-0.1-0.1-0.4-0.2-0.5c-0.1-0.1-0.2-0.2-0.4-0.2
				c-0.1-0.1-0.4-0.1-0.5-0.1c-0.2,0-0.4,0-0.6,0.2c-0.1,0.1-0.2,0.4-0.4,0.5c-0.1,0.2-0.2,0.5-0.2,0.7l-0.2,0.9
				c-0.1,0.2-0.2,0.6-0.4,0.9c-0.1,0.2-0.2,0.5-0.5,0.7c-0.2,0.2-0.5,0.4-0.7,0.5c-0.4,0.1-0.6,0.2-1,0.2c-0.4,0-0.9-0.1-1.2-0.2
				c-0.4-0.1-0.7-0.4-1-0.6c-0.2-0.2-0.5-0.6-0.6-1.1c-0.1-0.5-0.2-1-0.2-1.5c0-0.2,0-0.6,0.1-0.9c0-0.2,0.1-0.6,0.2-0.9
				c0.1-0.2,0.2-0.5,0.4-0.7c0.1-0.2,0.4-0.5,0.5-0.6l0.9,0.5c0.1,0,0.1,0.1,0.1,0.1c0,0.1,0.1,0.1,0.1,0.2c0,0.1,0,0.2-0.1,0.4
				l-0.4,0.5c-0.1,0.2-0.1,0.4-0.2,0.6c-0.1,0.2-0.1,0.6-0.1,0.9c0,0.5,0.1,0.9,0.4,1.2c0.2,0.2,0.6,0.4,1,0.4c0.2,0,0.5,0,0.6-0.2
				c0.1-0.1,0.4-0.4,0.4-0.5c0.1-0.2,0.2-0.5,0.2-0.7c0.1-0.2,0.1-0.5,0.2-0.9c0.1-0.2,0.2-0.5,0.4-0.9c0.1-0.2,0.2-0.5,0.5-0.7
				c0.2-0.2,0.5-0.4,0.7-0.5c0.4-0.1,0.7-0.2,1.1-0.2c0.7,0,1.5,0.2,2,0.9c0.2,0.2,0.5,0.6,0.6,1c0.1,0.4,0.2,0.9,0.2,1.3
				s-0.1,1.1-0.2,1.6c-0.1,0.5-0.4,0.9-0.7,1.2L135.2,90.9z"/>
			<path class="st33" d="M135.2,98.9c-0.1,0-0.1-0.1-0.2-0.1c0-0.1,0-0.1,0-0.2c0-0.1,0-0.1,0.1-0.2l0.2-0.4
				c0.1-0.1,0.1-0.4,0.2-0.5c0.1-0.2,0.1-0.5,0.1-0.7s0-0.5-0.1-0.6c0-0.1-0.1-0.4-0.2-0.5c-0.1-0.1-0.2-0.2-0.4-0.2
				c-0.1-0.1-0.4-0.1-0.5-0.1c-0.2,0-0.4,0-0.6,0.2c-0.1,0.1-0.2,0.4-0.4,0.5c-0.1,0.2-0.2,0.5-0.2,0.7l-0.2,0.9
				c-0.1,0.2-0.2,0.6-0.4,0.9c-0.1,0.2-0.2,0.5-0.5,0.7c-0.2,0.2-0.5,0.4-0.7,0.5c-0.4,0.1-0.6,0.2-1,0.2c-0.4,0-0.9-0.1-1.2-0.2
				c-0.4-0.1-0.7-0.4-1-0.6c-0.2-0.2-0.5-0.6-0.6-1.1s-0.2-1-0.2-1.5c0-0.2,0-0.6,0.1-0.9c0-0.2,0.1-0.6,0.2-0.9
				c0.1-0.2,0.2-0.5,0.4-0.7c0.1-0.2,0.4-0.5,0.5-0.6l0.9,0.5c0.1,0,0.1,0.1,0.1,0.1c0,0.1,0.1,0.1,0.1,0.2s0,0.2-0.1,0.4l-0.4,0.5
				c-0.1,0.2-0.2,0.4-0.4,0.6c-0.1,0.2-0.1,0.6-0.1,0.9c0,0.5,0.1,0.9,0.4,1.2c0.2,0.2,0.6,0.5,1.1,0.4c0.2,0,0.5,0,0.6-0.2
				c0.1-0.1,0.4-0.4,0.4-0.5c0.1-0.2,0.2-0.5,0.2-0.7c0.1-0.2,0.1-0.5,0.2-0.9c0.1-0.2,0.2-0.5,0.4-0.9c0.1-0.2,0.2-0.5,0.5-0.7
				c0.2-0.2,0.5-0.4,0.7-0.5c0.4-0.1,0.7-0.2,1.1-0.2c0.7,0,1.5,0.2,2,0.9c0.2,0.2,0.5,0.6,0.6,1c0.1,0.4,0.2,0.9,0.2,1.3
				c0,0.5-0.1,1.1-0.2,1.6s-0.4,0.9-0.7,1.2L135.2,98.9z"/>
			<path class="st33" d="M132.1,110.4c-0.6,0-1.4-0.1-2-0.2c-1.1-0.5-2.2-1.3-2.7-2.6c-0.3-0.6-0.4-1.3-0.4-2V102h10v3.7
				c0,0.7-0.1,1.3-0.4,2c-0.3,0.6-0.6,1.1-1,1.6c-0.5,0.5-1,0.7-1.5,1C133.5,110.4,132.7,110.6,132.1,110.4z M132.4,108.9
				c0.5,0,1-0.1,1.5-0.2c0.4-0.1,0.7-0.4,1.1-0.6c0.2-0.2,0.5-0.6,0.7-1c0.1-0.4,0.2-0.9,0.2-1.2V104h-7v1.8c0,0.4,0.1,0.9,0.2,1.2
				c0.1,0.4,0.4,0.7,0.7,1c0.4,0.2,0.6,0.5,1.1,0.6C131.5,108.8,131.9,108.9,132.4,108.9z"/>
		</g>
	</g>
	<rect x="78" y="77" class="st34" width="10" height="38"/>
	<rect x="80" y="80" class="st4" width="5" height="31"/>
	<rect x="64.6" y="76.6" class="st34" width="9.8" height="37.9"/>
	<rect x="67.1" y="80.2" class="st30" width="4.9" height="30.5"/>
	<g class="st35">
		<rect x="65" y="62" width="1" height="9"/>
		<rect x="67" y="62" width="1" height="9"/>
		<rect x="70" y="62" width="1" height="9"/>
		<rect x="72" y="62" width="1" height="9"/>
		<rect x="75" y="62" width="1" height="9"/>
		<rect x="77" y="62" width="1" height="9"/>
		<rect x="79" y="62" width="1" height="9"/>
		<rect x="82" y="62" width="1" height="9"/>
		<rect x="84" y="62" width="1" height="9"/>
		<rect x="87" y="62" width="1" height="9"/>
		<rect x="89" y="62" width="1" height="9"/>
		<rect x="92" y="62" width="1" height="9"/>
		<rect x="94" y="62" width="1" height="9"/>
		<rect x="97" y="62" width="1" height="9"/>
		<rect x="99" y="62" width="1" height="9"/>
	</g>
	<rect x="77" y="126" class="st36" width="24" height="4"/>
	<rect x="64" y="120" class="st37" width="37" height="4"/>
	<rect x="64.6" y="20.8" class="st38" width="34.8" height="34.8"/>
	<path class="st33" d="M98.8,29.2c0-0.7-0.5-1.2-1.2-1.2h-4.2v2.4h4.2C98.2,30.4,98.8,29.8,98.8,29.2z"/>
	<path class="st33" d="M98.8,32.7c0-0.7-0.5-1.2-1.2-1.2h-4.2v2.4h4.2C98.2,33.9,98.8,33.5,98.8,32.7z"/>
	<path class="st33" d="M98.8,36.4c0-0.7-0.5-1.2-1.2-1.2h-4.2v2.4h4.2C98.2,37.6,98.8,37,98.8,36.4z"/>
	<path class="st33" d="M98.8,39.9c0-0.7-0.5-1.2-1.2-1.2h-4.2v2.4h4.2C98.2,41.2,98.8,40.7,98.8,39.9z"/>
	<path class="st33" d="M98.8,43.6c0-0.7-0.5-1.2-1.2-1.2h-4.2v2.4h4.2C98.2,44.8,98.8,44.2,98.8,43.6z"/>
	<path class="st33" d="M98.8,47.1c0-0.7-0.5-1.2-1.2-1.2h-4.2v2.4h4.2C98.2,48.4,98.8,47.9,98.8,47.1z"/>
	<g>
		<path class="st33" d="M71,25h22.2c1.2,0,2.1,1,2.1,2.1v22.2c0,1.2-1,2.1-2.1,2.1H71c-1.2,0-2.1-1-2.1-2.1V27.1
			C68.9,25.9,69.8,25,71,25z"/>
		<rect x="71.2" y="27.4" class="st4" width="21.6" height="21.6"/>
		<polygon class="st33" points="73.3,42.7 73.3,45.6 73.3,46.9 74.7,46.9 77.5,46.9 77.5,45.9 74.3,45.9 74.3,42.7 		"/>
		<polygon class="st33" points="90.9,33.5 90.9,30.8 90.9,29.3 89.4,29.3 86.7,29.3 86.7,30.4 89.8,30.4 89.8,33.5 		"/>
		<path class="st33" d="M73.1,21.5c-0.7,0-1.2,0.5-1.2,1.2v4.2h2.4v-4.2C74.3,22,73.7,21.5,73.1,21.5z"/>
		<path class="st33" d="M76.6,21.5c-0.7,0-1.2,0.5-1.2,1.2v4.2h2.4v-4.2C77.8,22,77.3,21.5,76.6,21.5z"/>
		<path class="st33" d="M80.3,21.5c-0.7,0-1.2,0.5-1.2,1.2v4.2h2.4v-4.2C81.5,22,80.9,21.5,80.3,21.5z"/>
		<path class="st33" d="M83.8,21.5c-0.7,0-1.2,0.5-1.2,1.2v4.2H85v-4.2C85,22,84.5,21.5,83.8,21.5z"/>
		<path class="st33" d="M87.5,21.5c-0.7,0-1.2,0.5-1.2,1.2v4.2h2.4v-4.2C88.7,22,88.1,21.5,87.5,21.5z"/>
		<path class="st33" d="M91,21.5c-0.7,0-1.2,0.5-1.2,1.2v4.2h2.4v-4.2C92.2,22,91.8,21.5,91,21.5z"/>
		<path class="st33" d="M91,55c0.7,0,1.2-0.5,1.2-1.2v-4.2h-2.4v4.2C89.8,54.3,90.4,55,91,55z"/>
		<path class="st33" d="M87.5,55c0.7,0,1.2-0.5,1.2-1.2v-4.2h-2.4v4.2C86.3,54.3,86.7,55,87.5,55z"/>
		<path class="st33" d="M83.8,55c0.7,0,1.2-0.5,1.2-1.2v-4.2h-2.4v4.2C82.6,54.3,83.2,55,83.8,55z"/>
		<path class="st33" d="M80.3,55c0.7,0,1.2-0.5,1.2-1.2v-4.2h-2.4v4.2C79.1,54.3,79.5,55,80.3,55z"/>
		<path class="st33" d="M76.6,55c0.7,0,1.2-0.5,1.2-1.2v-4.2h-2.4v4.2C75.4,54.3,76,55,76.6,55z"/>
		<path class="st33" d="M73.1,55c0.7,0,1.2-0.5,1.2-1.2v-4.2h-2.4v4.2C71.8,54.3,72.3,55,73.1,55z"/>
		<path class="st33" d="M65.4,47.1c0,0.7,0.5,1.2,1.2,1.2h4.2v-2.4h-4.2C65.9,45.9,65.4,46.5,65.4,47.1z"/>
		<path class="st33" d="M65.4,43.6c0,0.7,0.5,1.2,1.2,1.2h4.2v-2.4h-4.2C65.9,42.4,65.4,42.9,65.4,43.6z"/>
		<path class="st33" d="M65.4,39.9c0,0.7,0.5,1.2,1.2,1.2h4.2v-2.4h-4.2C65.9,38.7,65.4,39.3,65.4,39.9z"/>
		<path class="st33" d="M65.4,36.4c0,0.7,0.5,1.2,1.2,1.2h4.2v-2.4h-4.2C65.9,35.2,65.4,35.7,65.4,36.4z"/>
		<path class="st33" d="M65.4,32.7c0,0.7,0.5,1.2,1.2,1.2h4.2v-2.4h-4.2C65.9,31.5,65.4,32.1,65.4,32.7z"/>
		<path class="st33" d="M65.4,29.2c0,0.7,0.5,1.2,1.2,1.2h4.2V28h-4.2C65.9,28,65.4,28.5,65.4,29.2z"/>
		<path class="st33" d="M98.8,29.2c0-0.7-0.5-1.2-1.2-1.2h-4.2v2.4h4.2C98.2,30.4,98.8,29.9,98.8,29.2z"/>
		<path class="st33" d="M98.8,32.9c0-0.7-0.5-1.2-1.2-1.2h-4.2v2.4h4.2C98.2,34.1,98.8,33.5,98.8,32.9z"/>
		<path class="st33" d="M98.8,36.4c0-0.7-0.5-1.2-1.2-1.2h-4.2v2.4h4.2C98.2,37.6,98.8,37.1,98.8,36.4z"/>
		<path class="st33" d="M98.8,40.1c0-0.7-0.5-1.2-1.2-1.2h-4.2v2.4h4.2C98.2,41.3,98.8,40.7,98.8,40.1z"/>
		<path class="st33" d="M98.8,43.6c0-0.7-0.5-1.2-1.2-1.2h-4.2v2.4h4.2C98.2,44.8,98.8,44.3,98.8,43.6z"/>
		<path class="st33" d="M98.8,47.3c0-0.7-0.5-1.2-1.2-1.2h-4.2v2.4h4.2C98.2,48.5,98.8,47.9,98.8,47.3z"/>
	</g>
	<rect x="91" y="77" class="st34" width="10" height="38"/>
	<rect x="94" y="80" class="st30" width="5" height="31"/>
	<circle class="st36" cx="114.7" cy="32.7" r="3.7"/>
	<circle class="st4" cx="114.7" cy="32.7" r="2.1"/>
	<circle class="st36" cx="114.7" cy="42.5" r="3.7"/>
	<circle class="st4" cx="114.7" cy="42.5" r="2.1"/>
	<rect x="112" y="48" class="st36" width="6" height="15"/>
	<rect x="112" y="12" class="st36" width="6" height="15"/>
	<rect x="133" y="24" class="st33" width="5" height="10"/>
	<rect x="126" y="24" class="st34" width="5" height="10"/>
	<rect x="147" y="24" class="st33" width="5" height="10"/>
	<rect x="140" y="24" class="st34" width="5" height="10"/>
	<rect x="126" y="36" class="st34" width="27" height="4"/>
	<g class="st35">
		<rect x="126" y="46" width="1" height="9"/>
		<rect x="129" y="46" width="1" height="9"/>
		<rect x="131" y="46" width="1" height="9"/>
		<rect x="134" y="46" width="1" height="9"/>
		<rect x="136" y="46" width="1" height="9"/>
		<rect x="138" y="46" width="1" height="9"/>
		<rect x="141" y="46" width="1" height="9"/>
		<rect x="143" y="46" width="1" height="9"/>
		<rect x="146" y="46" width="1" height="9"/>
		<rect x="148" y="46" width="1" height="9"/>
		<rect x="151" y="46" width="1" height="9"/>
	</g>
	<path class="st31" d="M147,92H217c0.5,0,1,0.5,1,1.2v54.7c0,0.6-0.4,1.2-1,1.2H147c-0.5,0-1-0.5-1-1.2V93.2
		C146,92.5,146.4,92,147,92z"/>
	<path class="st39" d="M150,96.5c0-0.3,0.4-0.5,1.1-0.5h61.8c0.7,0,1.1,0.2,1.1,0.5V145h-64V96.5z"/>
	<g id="surface1_4_" class="st40">
		<path class="st41" d="M184.2,119.8c-0.1-0.7,0-1.1,0-1.8c0.3-0.2,0.8-1.2,0.9-2c0.2,0,0.6-0.3,0.7-1.2c0.1-0.5-0.2-0.8-0.3-0.9
			c0.4-1.2,1.2-4.8-1.5-5.2c-0.3-0.5-1-0.7-1.9-0.7c-3.7,0.1-4.1,2.8-3.3,5.9c-0.1,0.1-0.4,0.4-0.3,0.9c0.1,0.9,0.5,1.2,0.7,1.2
			c0.1,0.9,0.7,1.9,1,2c0,0.6,0,1.1,0,1.8c-0.7,2-5.7,1.4-5.9,5.2H190C189.8,121.2,184.9,121.8,184.2,119.8z"/>
	</g>
	<path class="st42" d="M218,92h-36v57h36V92z"/>
	<path class="st31" d="M1,92H71c0.5,0,1,0.5,1,1.2v54.7c0,0.6-0.4,1.2-1,1.2H1c-0.5,0-1-0.5-1-1.2V93.2C0,92.5,0.4,92,1,92z"/>
	<path class="st43" d="M4,96.5C4,96.2,4.4,96,5.1,96h61.8c0.7,0,1.1,0.2,1.1,0.5V145H4V96.5z"/>
	<g id="surface1_1_" class="st44">
		<path d="M45.7,103.9c-0.2,0-0.4,0.1-0.6,0.3l-1,1.7c-0.4,0-0.7,0-1,0l-1.1-1.7c-0.2-0.3-0.5-0.4-0.8-0.2l-1.8,0.8
			c-0.3,0.1-0.5,0.4-0.4,0.8l0.4,1.9c-0.3,0.2-0.5,0.5-0.8,0.8l-1.9-0.4c-0.3-0.1-0.6,0.1-0.7,0.4l-0.8,1.9c-0.1,0.3,0,0.6,0.2,0.8
			l1.7,1c0,0.4,0,0.7,0,1.1l-1.7,1c-0.3,0.2-0.4,0.5-0.2,0.8l0.8,1.8c0.1,0.3,0.4,0.5,0.7,0.4l1.9-0.4c0.2,0.3,0.5,0.5,0.8,0.7
			l-0.4,1.9c-0.1,0.3,0.1,0.6,0.4,0.8l1.9,0.8c0.1,0,0.2,0,0.2,0c0.2,0,0.4-0.1,0.6-0.3l1.1-1.7c0.4,0,0.7,0,1.1,0l1.1,1.7
			c0.2,0.3,0.5,0.4,0.8,0.2l1.9-0.8c0.3-0.1,0.4-0.4,0.4-0.8l-0.5-1.9c0.3-0.2,0.5-0.5,0.7-0.8l2,0.4c0.3,0.1,0.6-0.1,0.8-0.4
			l0.8-1.9c0.1-0.3,0-0.7-0.3-0.8l-1.7-1c0-0.3,0-0.7,0-1l1.7-1.1c0.3-0.2,0.4-0.5,0.3-0.8l-0.8-1.8c-0.1-0.3-0.4-0.5-0.8-0.4
			l-1.9,0.5c-0.2-0.3-0.5-0.5-0.7-0.7l0.4-2c0.1-0.3-0.1-0.6-0.4-0.8l-1.9-0.8C45.8,103.9,45.7,103.9,45.7,103.9z M43.5,109.7
			c0.3,0,0.7,0,1,0.2c1.4,0.6,2,2.1,1.5,3.5c-0.6,1.4-2.1,2-3.5,1.5s-2-2.1-1.5-3.5C41.5,110.3,42.5,109.7,43.5,109.7z M28,115.6
			l-0.4,2.6c-0.5,0.2-1,0.3-1.4,0.6l-2.2-1.6c-0.3-0.2-0.6-0.2-0.8,0.1l-1.8,1.8c-0.2,0.2-0.3,0.6-0.1,0.8l1.5,2.2
			c-0.2,0.5-0.5,0.9-0.6,1.4l-2.6,0.4c-0.3,0.1-0.6,0.3-0.6,0.6v2.6c0,0.3,0.2,0.6,0.5,0.6l2.6,0.5c0.2,0.5,0.4,1,0.6,1.4l-1.6,2.2
			c-0.2,0.3-0.2,0.6,0.1,0.8l1.8,1.8c0.2,0.2,0.6,0.3,0.8,0.1l2.2-1.5c0.5,0.2,0.9,0.4,1.4,0.6l0.4,2.6c0.1,0.3,0.3,0.6,0.7,0.6h2.6
			c0.3,0,0.6-0.2,0.7-0.6l0.5-2.7c0.5-0.2,1-0.3,1.4-0.6l2.2,1.6c0.3,0.2,0.6,0.1,0.8-0.1l1.9-1.9c0.2-0.2,0.3-0.6,0.1-0.8l-1.6-2.2
			c0.2-0.5,0.4-0.9,0.6-1.4l2.7-0.5c0.3-0.1,0.6-0.3,0.6-0.7v-2.6c0-0.3-0.2-0.6-0.5-0.6l-2.7-0.4c-0.2-0.5-0.3-1-0.6-1.4l1.6-2.2
			c0.2-0.3,0.1-0.6-0.1-0.8l-1.8-1.8c-0.2-0.2-0.6-0.3-0.8-0.1l-2.2,1.6c-0.5-0.2-0.9-0.4-1.4-0.6l-0.5-2.7
			c-0.1-0.3-0.3-0.5-0.7-0.5h-2.6C28.3,115,28.1,115.2,28,115.6z M30.2,122.4c1.9,0,3.4,1.5,3.4,3.4c0,1.9-1.5,3.4-3.4,3.4
			s-3.4-1.5-3.4-3.4C26.8,123.9,28.3,122.4,30.2,122.4z"/>
	</g>
	<path class="st42" d="M72,93H35.7v56H72V93z"/>
	<path class="st45" d="M181.6,89.1c0,0,2-12.3-5.5-16.9c-4.9-3-10.1,0-10.1,0"/>
	<rect x="179.5" y="85.5" transform="matrix(2.273798e-12 -1 1 2.273798e-12 91.5 271.5)" class="st31" width="4" height="9"/>
	<rect x="164" y="63" class="st30" width="6" height="17"/>
	<rect x="170" y="67" class="st31" width="4" height="9"/>
	<path class="st45" d="M35.4,89.1c0,0-2-12.3,5.5-16.9c4.9-3,10.1,0,10.1,0"/>
	<rect x="33.5" y="85.5" transform="matrix(4.297369e-11 -1 1 4.297369e-11 -54.5 125.5)" class="st31" width="4" height="9"/>
	<rect x="47" y="63" transform="matrix(-1 -4.244306e-11 4.244306e-11 -1 100 143)" class="st30" width="6" height="17"/>
	<rect x="43" y="67" transform="matrix(-1 -4.365587e-11 4.365587e-11 -1 90 143)" class="st31" width="4" height="9"/>
	<path class="st44" d="M188.5,135h-22c-0.8,0-1.5-0.7-1.5-1.5l0,0c0-0.8,0.7-1.5,1.5-1.5h22c0.8,0,1.5,0.7,1.5,1.5l0,0
		C190,134.3,189.3,135,188.5,135z"/>
	<path class="st44" d="M199.5,135h-33c-0.8,0-1.5-0.7-1.5-1.5l0,0c0-0.8,0.7-1.5,1.5-1.5h33c0.8,0,1.5,0.7,1.5,1.5l0,0
		C201,134.3,200.3,135,199.5,135z"/>
</g>
<g id="block_storage" class="st0">
	<g id="Server_2_" class="st3">
		<path class="st31" d="M58.5,6h101c2.5,0,4.5,2,4.5,4.5v127.8c0,2.6-2.1,4.6-4.6,4.6h-101c-2.4,0-4.4-2-4.4-4.4V10.5
			C54,7.8,56,6,58.5,6z"/>
		<g>
			<path class="st30" d="M150.6,77H67.4c-1.3,0-2.4,1.1-2.4,2.4v15.1c0,1.3,1.1,2.4,2.4,2.4h83.1c1.3,0,2.4-1.1,2.4-2.4V79.4
				C153,78.1,151.9,77,150.6,77z"/>
			<path class="st30" d="M150.6,101H67.4c-1.3,0-2.4,1.1-2.4,2.4v15.1c0,1.3,1.1,2.4,2.4,2.4h83.1c1.3,0,2.4-1.1,2.4-2.4v-15.1
				C153,102.1,151.9,101,150.6,101z"/>
			<path class="st30" d="M150.6,48H67.4c-1.3,0-2.4-1.1-2.4-2.4V30.4c0-1.3,1.1-2.4,2.4-2.4h83.1c1.3,0,2.4,1.1,2.4,2.4v15.1
				C153,46.9,151.9,48,150.6,48z"/>
			<path class="st30" d="M150.6,72H67.4c-1.3,0-2.4-1.1-2.4-2.4V54.4c0-1.3,1.1-2.4,2.4-2.4h83.1c1.3,0,2.4,1.1,2.4,2.4v15.1
				C153,70.9,151.9,72,150.6,72z"/>
		</g>
		<g>
			<rect x="152" y="126" class="st30" width="1" height="9"/>
			<rect x="150" y="126" class="st30" width="1" height="9"/>
			<rect x="148" y="126" class="st30" width="1" height="9"/>
			<rect x="146" y="126" class="st30" width="1" height="9"/>
			<rect x="144" y="126" class="st30" width="1" height="9"/>
			<rect x="142" y="126" class="st30" width="1" height="9"/>
			<rect x="140" y="126" class="st30" width="1" height="9"/>
			<rect x="138" y="126" class="st30" width="1" height="9"/>
			<rect x="136" y="126" class="st30" width="1" height="9"/>
			<rect x="78" y="126" class="st30" width="1" height="9"/>
			<rect x="76" y="126" class="st30" width="1" height="9"/>
			<rect x="74" y="126" class="st30" width="1" height="9"/>
			<rect x="72" y="126" class="st30" width="1" height="9"/>
			<rect x="68" y="126" class="st30" width="1" height="9"/>
			<rect x="70" y="126" class="st30" width="1" height="9"/>
			<rect x="80" y="126" class="st30" width="1" height="9"/>
			<rect x="82" y="126" class="st30" width="1" height="9"/>
			<rect x="84" y="126" class="st30" width="1" height="9"/>
			<rect x="86" y="126" class="st30" width="1" height="9"/>
			<rect x="88" y="126" class="st30" width="1" height="9"/>
			<rect x="90" y="126" class="st30" width="1" height="9"/>
			<rect x="92" y="126" class="st30" width="1" height="9"/>
			<rect x="94" y="126" class="st30" width="1" height="9"/>
			<rect x="96" y="126" class="st30" width="1" height="9"/>
			<rect x="98" y="126" class="st30" width="1" height="9"/>
			<rect x="100" y="126" class="st30" width="1" height="9"/>
			<rect x="102" y="126" class="st30" width="1" height="9"/>
			<rect x="104" y="126" class="st30" width="1" height="9"/>
			<rect x="106" y="126" class="st30" width="1" height="9"/>
			<rect x="108" y="126" class="st30" width="1" height="9"/>
			<rect x="110" y="126" class="st30" width="1" height="9"/>
			<rect x="112" y="126" class="st30" width="1" height="9"/>
			<rect x="114" y="126" class="st30" width="1" height="9"/>
			<rect x="116" y="126" class="st30" width="1" height="9"/>
			<rect x="118" y="126" class="st30" width="1" height="9"/>
			<rect x="120" y="126" class="st30" width="1" height="9"/>
			<rect x="122" y="126" class="st30" width="1" height="9"/>
			<rect x="124" y="126" class="st30" width="1" height="9"/>
			<rect x="126" y="126" class="st30" width="1" height="9"/>
			<rect x="128" y="126" class="st30" width="1" height="9"/>
			<rect x="130" y="126" class="st30" width="1" height="9"/>
			<rect x="132" y="126" class="st30" width="1" height="9"/>
			<rect x="134" y="126" class="st30" width="1" height="9"/>
		</g>
		<g>
			<rect x="152" y="14" class="st30" width="1" height="9"/>
			<rect x="150" y="14" class="st30" width="1" height="9"/>
			<rect x="148" y="14" class="st30" width="1" height="9"/>
			<rect x="146" y="14" class="st30" width="1" height="9"/>
			<rect x="144" y="14" class="st30" width="1" height="9"/>
			<rect x="142" y="14" class="st30" width="1" height="9"/>
			<rect x="140" y="14" class="st30" width="1" height="9"/>
			<rect x="138" y="14" class="st30" width="1" height="9"/>
			<rect x="136" y="14" class="st30" width="1" height="9"/>
			<rect x="78" y="14" class="st30" width="1" height="9"/>
			<rect x="76" y="14" class="st30" width="1" height="9"/>
			<rect x="74" y="14" class="st30" width="1" height="9"/>
			<rect x="72" y="14" class="st30" width="1" height="9"/>
			<rect x="68" y="14" class="st30" width="1" height="9"/>
			<rect x="70" y="14" class="st30" width="1" height="9"/>
			<rect x="80" y="14" class="st30" width="1" height="9"/>
			<rect x="82" y="14" class="st30" width="1" height="9"/>
			<rect x="84" y="14" class="st30" width="1" height="9"/>
			<rect x="86" y="14" class="st30" width="1" height="9"/>
			<rect x="88" y="14" class="st30" width="1" height="9"/>
			<rect x="90" y="14" class="st30" width="1" height="9"/>
			<rect x="92" y="14" class="st30" width="1" height="9"/>
			<rect x="94" y="14" class="st30" width="1" height="9"/>
			<rect x="96" y="14" class="st30" width="1" height="9"/>
			<rect x="98" y="14" class="st30" width="1" height="9"/>
			<rect x="100" y="14" class="st30" width="1" height="9"/>
			<rect x="102" y="14" class="st30" width="1" height="9"/>
			<rect x="104" y="14" class="st30" width="1" height="9"/>
			<rect x="106" y="14" class="st30" width="1" height="9"/>
			<rect x="108" y="14" class="st30" width="1" height="9"/>
			<rect x="110" y="14" class="st30" width="1" height="9"/>
			<rect x="112" y="14" class="st30" width="1" height="9"/>
			<rect x="114" y="14" class="st30" width="1" height="9"/>
			<rect x="116" y="14" class="st30" width="1" height="9"/>
			<rect x="118" y="14" class="st30" width="1" height="9"/>
			<rect x="120" y="14" class="st30" width="1" height="9"/>
			<rect x="122" y="14" class="st30" width="1" height="9"/>
			<rect x="124" y="14" class="st30" width="1" height="9"/>
			<rect x="126" y="14" class="st30" width="1" height="9"/>
			<rect x="128" y="14" class="st30" width="1" height="9"/>
			<rect x="130" y="14" class="st30" width="1" height="9"/>
			<rect x="132" y="14" class="st30" width="1" height="9"/>
			<rect x="134" y="14" class="st30" width="1" height="9"/>
		</g>
		<g>
			<g>
				<circle class="st4" cx="74.4" cy="111.1" r="2.4"/>
				<circle class="st4" cx="82.9" cy="111.1" r="2.4"/>
				<circle class="st4" cx="91.5" cy="111.1" r="2.4"/>
			</g>
			<circle class="st4" cx="74.4" cy="37.8" r="2.4"/>
			<circle class="st4" cx="82.9" cy="37.8" r="2.4"/>
			<circle class="st4" cx="91.5" cy="37.8" r="2.4"/>
			<circle class="st4" cx="74.4" cy="62.3" r="2.4"/>
			<circle class="st4" cx="82.9" cy="62.3" r="2.4"/>
			<circle class="st4" cx="91.5" cy="62.3" r="2.4"/>
			<circle class="st4" cx="74.4" cy="86.7" r="2.4"/>
			<circle class="st4" cx="82.9" cy="86.7" r="2.4"/>
			<circle class="st4" cx="91.5" cy="86.7" r="2.4"/>
		</g>
		<g>
			<rect x="138" y="32" class="st5" width="2" height="2"/>
			<rect x="143" y="32" class="st5" width="2" height="2"/>
			<rect x="148" y="32" class="st5" width="2" height="2"/>
			<rect x="138" y="37" class="st5" width="2" height="2"/>
			<rect x="143" y="37" class="st5" width="2" height="2"/>
			<rect x="148" y="37" class="st5" width="2" height="2"/>
			<rect x="138" y="42" class="st5" width="2" height="2"/>
			<rect x="143" y="42" class="st5" width="2" height="2"/>
			<rect x="148" y="42" class="st5" width="2" height="2"/>
		</g>
		<g>
			<rect x="138" y="56" class="st5" width="2" height="2"/>
			<rect x="143" y="56" class="st5" width="2" height="2"/>
			<rect x="148" y="56" class="st5" width="2" height="2"/>
			<rect x="138" y="61" class="st5" width="2" height="2"/>
			<rect x="143" y="61" class="st5" width="2" height="2"/>
			<rect x="148" y="61" class="st5" width="2" height="2"/>
			<rect x="138" y="66" class="st5" width="2" height="2"/>
			<rect x="143" y="66" class="st5" width="2" height="2"/>
			<rect x="148" y="66" class="st5" width="2" height="2"/>
		</g>
		<g>
			<rect x="138" y="81" class="st5" width="2" height="2"/>
			<rect x="143" y="81" class="st5" width="2" height="2"/>
			<rect x="148" y="81" class="st5" width="2" height="2"/>
			<rect x="138" y="86" class="st5" width="2" height="2"/>
			<rect x="143" y="86" class="st5" width="2" height="2"/>
			<rect x="148" y="86" class="st5" width="2" height="2"/>
			<rect x="138" y="91" class="st5" width="2" height="2"/>
			<rect x="143" y="91" class="st5" width="2" height="2"/>
			<rect x="148" y="91" class="st5" width="2" height="2"/>
		</g>
		<g>
			<rect x="138" y="105" class="st5" width="2" height="2"/>
			<rect x="143" y="105" class="st5" width="2" height="2"/>
			<rect x="148" y="105" class="st5" width="2" height="2"/>
			<rect x="138" y="110" class="st5" width="2" height="2"/>
			<rect x="143" y="110" class="st5" width="2" height="2"/>
			<rect x="148" y="110" class="st5" width="2" height="2"/>
			<rect x="138" y="115" class="st5" width="2" height="2"/>
			<rect x="143" y="115" class="st5" width="2" height="2"/>
			<rect x="148" y="115" class="st5" width="2" height="2"/>
		</g>
		<path class="st32" d="M159.5,6H109v137h50.4c2.6,0,4.6-2.1,4.6-4.6V10.5C164,8,162,6,159.5,6z"/>
	</g>
	<path class="st12" d="M2.6,73h55.6c1.5,0,2.8,1.3,2.8,2.8v70.6c0,1.5-1.3,2.6-2.8,2.6H2.6c-1.4,0-2.6-1.2-2.6-2.6V75.8
		C0,74.3,1.1,73,2.6,73z"/>
	<path class="st1" d="M7,149v-5.4c0-0.4,0.1-0.6,0.5-0.6h46.9c0.3,0,0.5,0.2,0.5,0.5v5.5H7z"/>
	<path class="st46" d="M9,144.7h44.1v4.3H9V144.7z"/>
	<path class="st47" d="M52.1,148.4v-3.7h0.5v3.7H52.1z M51.1,144.7h0.5v3.7h-0.5V144.7z M50.1,144.7h0.5v3.7h-0.5V144.7z M49,144.7
		h0.5v3.7H49V144.7z M48,144.7h0.5v3.7H48V144.7z M47,144.7h0.5v3.7H47V144.7z M45.9,144.7h0.5v3.7h-0.5V144.7z M44.9,144.7h0.5v3.7
		h-0.5V144.7z M43.8,144.7h0.5v3.7h-0.5V144.7z M42.8,144.7h0.5v3.7h-0.5V144.7z M41.8,144.7h0.5v3.7h-0.5V144.7z M40.7,144.7h0.5
		v3.7h-0.5V144.7z M39.7,144.7h0.5v3.7h-0.5V144.7z M38.6,144.7h0.5v3.7h-0.5V144.7z M37.6,144.7h0.5v3.7h-0.5V144.7z M36.6,144.7
		h0.5v3.7h-0.5V144.7z M35.5,144.7H36v3.7h-0.5V144.7z M34.5,144.7H35v3.7h-0.5V144.7z M33.5,144.7H34v3.7h-0.5V144.7z M32.4,144.7
		h0.5v3.7h-0.5V144.7z M31.4,144.7h0.5v3.7h-0.5V144.7z M30.3,144.7h0.5v3.7h-0.5V144.7z M29.3,144.7h0.5v3.7h-0.5V144.7z
		 M28.3,144.7h0.5v3.7h-0.5V144.7z M27.2,144.7h0.5v3.7h-0.5V144.7z M26.2,144.7h0.5v3.7h-0.5V144.7z M25.1,144.7h0.5v3.7h-0.5
		V144.7z M24.1,144.7h0.5v3.7h-0.5V144.7z M23.1,144.7h0.5v3.7h-0.5V144.7z M22,144.7h0.5v3.7H22V144.7z M21,144.7h0.5v3.7H21V144.7
		z M20,144.7h0.5v3.7H20V144.7z M18.9,144.7h0.5v3.7h-0.5V144.7z M17.9,144.7h0.5v3.7h-0.5V144.7z M16.8,144.7h0.5v3.7h-0.5V144.7z
		 M15.8,144.7h0.5v3.7h-0.5V144.7z M14.8,144.7h0.5v3.7h-0.5V144.7z M13.7,144.7h0.5v3.7h-0.5V144.7z M12.7,144.7h0.5v3.7h-0.5
		V144.7z M11.6,144.7h0.5v3.7h-0.5V144.7z M10.6,144.7h0.5v3.7h-0.5V144.7z M9.6,144.7h0.5v3.7H9.6V144.7z"/>
	<path class="st48" d="M58.5,149H31V73h27.2c1.5,0,2.8,1.2,2.8,2.8v70.7C61,147.9,59.9,149,58.5,149z"/>
	<g class="st3">
		<g>
			<path class="st49" d="M24,110.1c-0.3-0.3-0.7-0.5-1.2-0.6c-0.5-0.2-1-0.3-1.6-0.5c-0.4-0.1-0.8-0.2-1.1-0.3
				c-0.3-0.1-0.6-0.2-0.8-0.3c-0.2-0.1-0.4-0.3-0.5-0.4c-0.1-0.2-0.2-0.4-0.2-0.6c0-0.4,0.2-0.7,0.5-1c0.3-0.2,0.8-0.3,1.4-0.3
				c0.3,0,0.7,0.1,1,0.1c0.3,0.1,0.6,0.2,0.9,0.3c0.3,0.1,0.5,0.3,0.7,0.4c0.2,0.1,0.3,0.2,0.4,0.3l1-1.8c-0.5-0.3-1.1-0.6-1.8-0.9
				c-0.7-0.3-1.4-0.4-2.3-0.4c-0.6,0-1.1,0.1-1.7,0.2s-1,0.4-1.4,0.7c-0.4,0.3-0.7,0.7-0.9,1.1c-0.2,0.5-0.3,1-0.3,1.6
				c0,0.4,0.1,0.8,0.2,1.1c0.1,0.3,0.3,0.6,0.6,0.9c0.3,0.2,0.6,0.5,1,0.6c0.4,0.2,0.9,0.3,1.5,0.5c0.5,0.1,0.9,0.3,1.2,0.4
				c0.4,0.1,0.7,0.2,1,0.4s0.5,0.3,0.6,0.5c0.1,0.2,0.2,0.4,0.2,0.6c0,0.8-0.6,1.2-1.9,1.2c-0.4,0-0.9-0.1-1.3-0.2
				c-0.4-0.1-0.8-0.2-1.2-0.4c-0.3-0.2-0.6-0.3-0.9-0.5s-0.4-0.3-0.5-0.4l-1,1.9c0.7,0.5,1.4,0.8,2.3,1.1c0.9,0.3,1.7,0.4,2.6,0.4
				c0.6,0,1.1-0.1,1.6-0.2c0.5-0.1,1-0.3,1.4-0.6c0.4-0.3,0.7-0.6,1-1.1c0.2-0.4,0.4-1,0.4-1.6c0-0.5-0.1-1-0.3-1.4
				C24.5,110.6,24.3,110.3,24,110.1z M34,110.1c-0.3-0.3-0.7-0.5-1.2-0.6c-0.5-0.2-1-0.3-1.6-0.5c-0.4-0.1-0.8-0.2-1.1-0.3
				c-0.3-0.1-0.6-0.2-0.8-0.3c-0.2-0.1-0.4-0.3-0.5-0.4c-0.1-0.2-0.2-0.4-0.2-0.6c0-0.4,0.2-0.7,0.5-1c0.3-0.2,0.8-0.3,1.4-0.3
				c0.3,0,0.7,0.1,1,0.1c0.3,0.1,0.6,0.2,0.9,0.3c0.3,0.1,0.5,0.3,0.7,0.4c0.2,0.1,0.3,0.2,0.4,0.3l1-1.8c-0.5-0.3-1.1-0.6-1.8-0.9
				c-0.7-0.3-1.4-0.4-2.3-0.4c-0.6,0-1.1,0.1-1.7,0.2s-1,0.4-1.4,0.7c-0.4,0.3-0.7,0.7-0.9,1.1s-0.3,1-0.3,1.6
				c0,0.4,0.1,0.8,0.2,1.1c0.1,0.3,0.3,0.6,0.6,0.9c0.3,0.2,0.6,0.5,1,0.6c0.4,0.2,0.9,0.3,1.5,0.5c0.5,0.1,0.9,0.3,1.2,0.4
				c0.4,0.1,0.7,0.2,1,0.4c0.3,0.1,0.5,0.3,0.6,0.5s0.2,0.4,0.2,0.6c0,0.8-0.6,1.2-1.9,1.2c-0.4,0-0.9-0.1-1.3-0.2
				c-0.4-0.1-0.8-0.2-1.2-0.4c-0.3-0.2-0.6-0.3-0.9-0.5s-0.4-0.3-0.5-0.4l-1,1.9c0.7,0.5,1.4,0.8,2.3,1.1c0.9,0.3,1.7,0.4,2.6,0.4
				c0.6,0,1.1-0.1,1.6-0.2c0.5-0.1,1-0.3,1.4-0.6c0.4-0.3,0.7-0.6,1-1.1c0.2-0.4,0.4-1,0.4-1.6c0-0.5-0.1-1-0.3-1.4
				C34.6,110.6,34.3,110.3,34,110.1z M46.3,107.6c-0.2-0.7-0.6-1.3-1.1-1.8c-0.5-0.5-1.1-0.9-1.8-1.2c-0.7-0.3-1.6-0.5-2.5-0.5h-4.2
				v11.6h4.2c0.9,0,1.7-0.1,2.4-0.4c0.7-0.3,1.3-0.7,1.8-1.2c0.5-0.5,0.9-1.1,1.2-1.8c0.3-0.7,0.4-1.5,0.4-2.4
				C46.7,109,46.5,108.3,46.3,107.6z M44.2,111.4c-0.2,0.5-0.4,0.9-0.7,1.2c-0.3,0.3-0.6,0.6-1.1,0.8c-0.4,0.2-0.9,0.3-1.5,0.3h-2
				V106h2c0.5,0,1,0.1,1.5,0.3c0.4,0.2,0.8,0.4,1.1,0.8c0.3,0.3,0.5,0.8,0.7,1.2c0.2,0.5,0.2,1,0.2,1.5
				C44.4,110.4,44.3,110.9,44.2,111.4z"/>
		</g>
	</g>
	<path class="st12" d="M159.6,73h55.6c1.5,0,2.8,1.3,2.8,2.8v70.6c0,1.5-1.3,2.6-2.8,2.6h-55.6c-1.4,0-2.6-1.2-2.6-2.6V75.8
		C157,74.3,158.1,73,159.6,73z"/>
	<path class="st1" d="M164,149v-5.4c0-0.4,0.1-0.6,0.5-0.6h46.9c0.3,0,0.5,0.2,0.5,0.5v5.5H164z"/>
	<path class="st46" d="M166,144.7h44.1v4.3H166V144.7z"/>
	<path class="st47" d="M209.1,148.4v-3.7h0.5v3.7H209.1z M208.1,144.7h0.5v3.7h-0.5V144.7z M207.1,144.7h0.5v3.7h-0.5V144.7z
		 M206,144.7h0.5v3.7H206V144.7z M205,144.7h0.5v3.7H205V144.7z M204,144.7h0.5v3.7H204V144.7z M202.9,144.7h0.5v3.7h-0.5V144.7z
		 M201.9,144.7h0.5v3.7h-0.5V144.7z M200.8,144.7h0.5v3.7h-0.5V144.7z M199.8,144.7h0.5v3.7h-0.5V144.7z M198.8,144.7h0.5v3.7h-0.5
		V144.7z M197.7,144.7h0.5v3.7h-0.5V144.7z M196.7,144.7h0.5v3.7h-0.5V144.7z M195.6,144.7h0.5v3.7h-0.5V144.7z M194.6,144.7h0.5
		v3.7h-0.5V144.7z M193.6,144.7h0.5v3.7h-0.5V144.7z M192.5,144.7h0.5v3.7h-0.5V144.7z M191.5,144.7h0.5v3.7h-0.5V144.7z
		 M190.5,144.7h0.5v3.7h-0.5V144.7z M189.4,144.7h0.5v3.7h-0.5V144.7z M188.4,144.7h0.5v3.7h-0.5V144.7z M187.3,144.7h0.5v3.7h-0.5
		V144.7z M186.3,144.7h0.5v3.7h-0.5V144.7z M185.3,144.7h0.5v3.7h-0.5V144.7z M184.2,144.7h0.5v3.7h-0.5V144.7z M183.2,144.7h0.5
		v3.7h-0.5V144.7z M182.1,144.7h0.5v3.7h-0.5V144.7z M181.1,144.7h0.5v3.7h-0.5V144.7z M180.1,144.7h0.5v3.7h-0.5V144.7z M179,144.7
		h0.5v3.7H179V144.7z M178,144.7h0.5v3.7H178V144.7z M177,144.7h0.5v3.7H177V144.7z M175.9,144.7h0.5v3.7h-0.5V144.7z M174.9,144.7
		h0.5v3.7h-0.5V144.7z M173.8,144.7h0.5v3.7h-0.5V144.7z M172.8,144.7h0.5v3.7h-0.5V144.7z M171.8,144.7h0.5v3.7h-0.5V144.7z
		 M170.7,144.7h0.5v3.7h-0.5V144.7z M169.7,144.7h0.5v3.7h-0.5V144.7z M168.6,144.7h0.5v3.7h-0.5V144.7z M167.6,144.7h0.5v3.7h-0.5
		V144.7z M166.6,144.7h0.5v3.7h-0.5V144.7z"/>
	<path class="st48" d="M215.5,149H188V73h27.2c1.5,0,2.8,1.2,2.8,2.8v70.7C218,147.9,216.9,149,215.5,149z"/>
	<g class="st3">
		<g>
			<path class="st49" d="M181,110.1c-0.3-0.3-0.7-0.5-1.2-0.6c-0.5-0.2-1-0.3-1.6-0.5c-0.4-0.1-0.8-0.2-1.1-0.3
				c-0.3-0.1-0.6-0.2-0.8-0.3c-0.2-0.1-0.4-0.3-0.5-0.4c-0.1-0.2-0.2-0.4-0.2-0.6c0-0.4,0.2-0.7,0.5-1s0.8-0.3,1.4-0.3
				c0.3,0,0.7,0.1,1,0.1c0.3,0.1,0.6,0.2,0.9,0.3c0.3,0.1,0.5,0.3,0.7,0.4c0.2,0.1,0.3,0.2,0.4,0.3l1-1.8c-0.5-0.3-1.1-0.6-1.8-0.9
				c-0.7-0.3-1.4-0.4-2.3-0.4c-0.6,0-1.1,0.1-1.7,0.2c-0.5,0.2-1,0.4-1.4,0.7c-0.4,0.3-0.7,0.7-0.9,1.1s-0.3,1-0.3,1.6
				c0,0.4,0.1,0.8,0.2,1.1c0.1,0.3,0.3,0.6,0.6,0.9c0.3,0.2,0.6,0.5,1,0.6c0.4,0.2,0.9,0.3,1.5,0.5c0.5,0.1,0.9,0.3,1.2,0.4
				c0.4,0.1,0.7,0.2,1,0.4c0.3,0.1,0.5,0.3,0.6,0.5s0.2,0.4,0.2,0.6c0,0.8-0.6,1.2-1.9,1.2c-0.4,0-0.9-0.1-1.3-0.2
				c-0.4-0.1-0.8-0.2-1.2-0.4c-0.3-0.2-0.6-0.3-0.9-0.5c-0.3-0.2-0.4-0.3-0.5-0.4l-1,1.9c0.7,0.5,1.4,0.8,2.3,1.1
				c0.9,0.3,1.7,0.4,2.6,0.4c0.6,0,1.1-0.1,1.6-0.2c0.5-0.1,1-0.3,1.4-0.6c0.4-0.3,0.7-0.6,1-1.1s0.4-1,0.4-1.6c0-0.5-0.1-1-0.3-1.4
				C181.5,110.6,181.3,110.3,181,110.1z M191,110.1c-0.3-0.3-0.7-0.5-1.2-0.6c-0.5-0.2-1-0.3-1.6-0.5c-0.4-0.1-0.8-0.2-1.1-0.3
				c-0.3-0.1-0.6-0.2-0.8-0.3c-0.2-0.1-0.4-0.3-0.5-0.4s-0.2-0.4-0.2-0.6c0-0.4,0.2-0.7,0.5-1s0.8-0.3,1.4-0.3c0.3,0,0.7,0.1,1,0.1
				c0.3,0.1,0.6,0.2,0.9,0.3c0.3,0.1,0.5,0.3,0.7,0.4c0.2,0.1,0.3,0.2,0.4,0.3l1-1.8c-0.5-0.3-1.1-0.6-1.8-0.9
				c-0.7-0.3-1.4-0.4-2.3-0.4c-0.6,0-1.1,0.1-1.7,0.2s-1,0.4-1.4,0.7c-0.4,0.3-0.7,0.7-0.9,1.1c-0.2,0.5-0.3,1-0.3,1.6
				c0,0.4,0.1,0.8,0.2,1.1c0.1,0.3,0.3,0.6,0.6,0.9c0.3,0.2,0.6,0.5,1,0.6c0.4,0.2,0.9,0.3,1.5,0.5c0.5,0.1,0.9,0.3,1.2,0.4
				c0.4,0.1,0.7,0.2,1,0.4c0.3,0.1,0.5,0.3,0.6,0.5c0.1,0.2,0.2,0.4,0.2,0.6c0,0.8-0.6,1.2-1.9,1.2c-0.4,0-0.9-0.1-1.3-0.2
				c-0.4-0.1-0.8-0.2-1.2-0.4c-0.3-0.2-0.6-0.3-0.9-0.5c-0.3-0.2-0.4-0.3-0.5-0.4l-1,1.9c0.7,0.5,1.4,0.8,2.3,1.1s1.7,0.4,2.6,0.4
				c0.6,0,1.1-0.1,1.6-0.2c0.5-0.1,1-0.3,1.4-0.6c0.4-0.3,0.7-0.6,1-1.1s0.4-1,0.4-1.6c0-0.5-0.1-1-0.3-1.4
				C191.6,110.6,191.3,110.3,191,110.1z M203.3,107.6c-0.2-0.7-0.6-1.3-1.1-1.8c-0.5-0.5-1.1-0.9-1.8-1.2c-0.7-0.3-1.6-0.5-2.5-0.5
				h-4.2v11.6h4.2c0.9,0,1.7-0.1,2.4-0.4s1.3-0.7,1.8-1.2c0.5-0.5,0.9-1.1,1.2-1.8c0.3-0.7,0.4-1.5,0.4-2.4
				C203.7,109,203.5,108.3,203.3,107.6z M201.2,111.4c-0.2,0.5-0.4,0.9-0.7,1.2c-0.3,0.3-0.6,0.6-1.1,0.8c-0.4,0.2-0.9,0.3-1.5,0.3
				h-2V106h2c0.5,0,1,0.1,1.5,0.3c0.4,0.2,0.8,0.4,1.1,0.8c0.3,0.3,0.5,0.8,0.7,1.2c0.2,0.5,0.2,1,0.2,1.5
				C201.4,110.4,201.3,110.9,201.2,111.4z"/>
		</g>
	</g>
	<path class="st14" d="M49.3,34.7c0,0-18.3-1.7-18.3,36.6"/>
	<rect x="29.5" y="66.5" transform="matrix(4.502005e-11 -1 1 4.502005e-11 -39.5 102.5)" class="st1" width="4" height="9"/>
	<rect x="48" y="27" transform="matrix(-1 -4.244306e-11 4.244306e-11 -1 102 71)" class="st2" width="6" height="17"/>
	<rect x="44" y="31" transform="matrix(-1 -4.502011e-11 4.502011e-11 -1 92 71)" class="st1" width="4" height="9"/>
	<path class="st14" d="M169.7,34.7c0,0,18.3-1.7,18.3,36.6"/>
	<rect x="185.5" y="66.5" transform="matrix(6.123234e-17 -1 1 6.123234e-17 116.5 258.5)" class="st1" width="4" height="9"/>
	<rect x="164" y="27" class="st2" width="6" height="17"/>
	<rect x="170" y="31" class="st1" width="4" height="9"/>
</g>
</svg>
