<?xml version="1.0" encoding="utf-8"?>
<!-- Generator: Adobe Illustrator 21.1.0, SVG Export Plug-In . SVG Version: 6.00 Build 0)  -->
<svg version="1.1" id="Warstwa_1" xmlns="http://www.w3.org/2000/svg" xmlns:xlink="http://www.w3.org/1999/xlink" x="0px" y="0px"
	 viewBox="0 0 186 140" style="enable-background:new 0 0 186 140;" xml:space="preserve">
<style type="text/css">
	.st0{fill:#B7C9CE;}
	.st1{fill:#A8BCC1;}
	.st2{fill:#CDD1D3;}
	.st3{fill:#E6EBED;}
	.st4{fill:#D7DBDD;}
	.st5{fill:#C5C8C9;}
	.st6{fill:#FFFFFF;}
	.st7{fill:#FCA426;}
	.st8{fill:#22292E;}
	.st9{opacity:0.1;enable-background:new    ;}
	.st10{fill:#3594E8;}
	.st11{fill:#DD891B;}
	.st12{fill:#1E88E6;}
	.st13{fill:#E6951F;}
	.st14{fill:#2B2A29;}
	.st15{fill:#C8D6DB;}
	.st16{fill:#2F3538;}
	.st17{fill:#222629;}
	.st18{fill:#E5E5E5;}
	.st19{fill:#1972BF;}
	.st20{fill:#1D79C9;}
	.st21{fill:#08426D;}
	.st22{fill:#033859;}
	.st23{opacity:0.15;fill:#1E88E6;enable-background:new    ;}
	.st24{opacity:0.1;fill:#1E88E6;enable-background:new    ;}
	.st25{fill:#39444D;}
	.st26{fill:#3FB6A1;}
	.st27{fill:#2EA38D;}
	.st28{opacity:0.2;enable-background:new    ;}
	.st29{opacity:0.15;}
	.st30{opacity:0.15;enable-background:new    ;}
	.st31{opacity:0.3;enable-background:new    ;}
	.st32{opacity:0.4;fill:#22292E;enable-background:new    ;}
</style>
<path class="st0" d="M123,88.3c0.7-2.9,1.1-5.8,1.1-8.8c0-10.4-4.3-20.1-11.7-27.8c-0.1-0.2-0.1-0.4-0.2-0.5
	c1.8,6.4,2.7,13,2.7,19.7c0.1,13.9-3.9,27.5-11.6,39.1l1.5,4.1l0,0c13.3-7.7,22.3-21.1,24.4-36.3C127.5,81.5,125.5,85.1,123,88.3z"
	/>
<path class="st1" d="M114.9,72.8c-0.1-1-0.3-3.3-0.3-3.5v1.6c0,14.9-4.2,28.4-11.5,39.1l1.5,4.1C112,102.9,115.9,88.4,114.9,72.8z"
	/>
<g>
	<g>
		
			<rect x="19.7" y="6.8" transform="matrix(0.9072 -0.4207 0.4207 0.9072 -16.1947 16.8459)" class="st2" width="20.7" height="76.7"/>
		<path class="st3" d="M30.2,2.8c0.2,0.7-2.4,2.6-6.2,4.6C13.8,13.1,4.3,15,4.6,14.7l32.2,69.4l6.8-3.2l12-5.6l6.8-3.2L30.2,2.8z"/>
		<ellipse transform="matrix(0.9072 -0.4207 0.4207 0.9072 -3.0365 6.8194)" class="st4" cx="13.9" cy="10.3" rx="10.4" ry="2.1"/>
		<ellipse transform="matrix(0.9072 -0.4207 0.4207 0.9072 -2.6819 6.5807)" class="st2" cx="13.6" cy="9.4" rx="8.3" ry="1.6"/>
		<ellipse transform="matrix(0.9072 -0.4207 0.4207 0.9072 -2.3414 6.1754)" class="st5" cx="12.8" cy="8.4" rx="5" ry="1"/>
		<path class="st6" d="M12.5,26.9L2.1,23.8c-0.4-0.2-0.9,0.1-1.1,0.5c-0.1,0.2-0.1,0.4,0,0.6l3.1,10.4"/>
		<path class="st7" d="M4.1,35.3c0.1,0.2,0.1,0.3,0.3,0.4l33,33c1.7,1.8,4.6,2,6.4,0.3l2.4-2.4c1.7-1.9,1.6-4.7-0.3-6.4l-33-33
			c-0.1-0.1-0.3-0.2-0.4-0.3"/>
		<path class="st6" d="M12.9,27.1c-0.1-0.1-0.3-0.2-0.4-0.3L2.1,23.8c-0.4-0.2-0.9,0.1-1.1,0.5c-0.1,0.2-0.1,0.4,0,0.6l3.1,10.4
			c0.1,0.2,0.1,0.3,0.3,0.4"/>
		<path class="st8" d="M5.2,24.7l-3.1-0.9c-0.4-0.2-0.9,0.1-1.1,0.5c-0.1,0.2-0.1,0.4,0,0.6L1.9,28L5.2,24.7z"/>
		<path class="st9" d="M1.2,24C1,24.2,0.9,24.6,1,24.9l3.1,10.4c0.1,0.2,0.1,0.3,0.3,0.4l33,33c1.7,1.8,4.6,2,6.4,0.3l1.2-1.2"/>
		<path class="st10" d="M16.6,51.4c-1.7,6.2-2.5,12.7-2.5,19.1C14,84.4,18,98.1,25.8,109.7v-0.1c9.2,13.5,23.1,22.1,38.7,22.1
			s29.5-8.6,38.7-22.1l0,0c7.7-11.6,11.8-25.2,11.7-39.1c0-6.7-0.9-13.3-2.7-19.7c0.1,0.2,0.1,0.4,0.2,0.5
			c-2.5-9.5-7.2-18.4-13.7-25.8c-0.9-1.5-1.4-3.2-1.3-5c0-4.7,0.5-10.1,0.5-10.1s-4.7,8.9-10.7,6.7c-4-1.5-0.3-7.7-0.3-7.7
			s-2.5,1.4-5.4,2.9c-3.1,1.6-6.7,3.2-9,2.4C67.9,13.2,75,0,75,0S59.6,13.3,56.5,13.5c-4.1,0.2-3.6-6-3.6-6s-4.5,4.8-6.9,6
			C32.2,20.2,21.4,34,16.7,51.3"/>
		
			<rect x="31.1" y="58.3" transform="matrix(0.7071 -0.7071 0.7071 0.7071 -31.4583 43.7807)" class="st11" width="12.1" height="3.1"/>
		<path class="st7" d="M33.9,65.2l3.4,3.4c1.7,1.8,4.6,2,6.4,0.3l2.4-2.4c1.7-1.9,1.6-4.7-0.3-6.4l-3.4-3.4L33.9,65.2z"/>
		
			<rect x="28.4" y="56.5" transform="matrix(0.7071 -0.7071 0.7071 0.7071 -30.3685 41.1388)" class="st11" width="12.1" height="1.5"/>
		<path class="st12" d="M115,70.5c0-6.7-0.9-13.3-2.7-19.7c0.1,0.2,0.1,0.4,0.2,0.5c-2.5-9.5-7.2-18.4-13.7-25.8
			c-0.9-1.5-1.4-3.2-1.3-5c0-4.7,0.5-10.1,0.5-10.1s-4.7,8.9-10.7,6.7c-4-1.5-0.3-7.7-0.3-7.7s-2.5,1.4-5.4,2.9
			c-3.1,1.6-6.7,3.2-9,2.4C67.9,13.3,75,0,75,0l-0.1,0.1c0,0-6.6,5.5-7.9,6.5l0,0c-0.7,0.6-1.5,1.2-2.3,1.8v123.2
			c0.5,0,1.1,0,1.6-0.1h1.3c0.6,0,1.1-0.1,1.7-0.2c0.4,0,0.8-0.1,1.1-0.1l1.9-0.3c0.3-0.1,0.6-0.1,0.9-0.2c0.7-0.1,1.3-0.3,2-0.5
			c0.3-0.1,0.5-0.1,0.8-0.2c0.7-0.2,1.4-0.4,2.1-0.7c0.2-0.1,0.4-0.1,0.6-0.2c0.8-0.3,1.6-0.6,2.3-0.9c0.1,0,0.2-0.1,0.3-0.1
			c9-4,16.7-10.5,22.1-18.7l0,0C110.6,99,115,85.4,115,70.5z"/>
		<path class="st7" d="M64.5,131.7c-0.4,0.4-3.4,0.4-6.8,3.4s-1.8,4.6-4,4s-2.4-2.9-1.5-4.8l-0.1,0.1c-3.4,3-1.8,4.6-4,4
			c-1.8-0.6-2.2-2.2-1.9-3.8c-2.2,2.4-1.1,3.6-3,3.1c-3-0.9-2.3-4.8-0.2-6.7s5.6-2.8,8.2-2.9l0,0c2.9,1.5,7.8,2.4,13.2,2.4
			s10.3-1,13.2-2.4c0.9,0,1.9,0.2,2.8,0.4l3.9,1.4c0.6,0.3,1.1,0.7,1.6,1.1c2.1,1.9,2.8,5.8-0.2,6.7c-1.9,0.6-0.8-0.6-3-3.1
			c0.4,1.6-0.1,3.3-1.9,3.8c-2.1,0.7-0.5-0.9-4-4l-0.1-0.1c0.8,1.9,0.6,4.1-1.5,4.8s-0.5-0.9-4-4C67.9,132,64.9,132.1,64.5,131.7z"
			/>
		<path class="st13" d="M86,130.9c-0.5-0.4-1-0.8-1.6-1.1l-3.9-1.4c-0.9-0.2-1.9-0.4-2.8-0.4c-2.9,1.5-7.8,2.4-13.2,2.4l0,0v1.2l0,0
			c0.4,0.4,3.4,0.4,6.8,3.4s1.8,4.6,4,4s2.4-2.9,1.5-4.8l0.1,0.1c3.4,3,1.8,4.6,4,4c1.8-0.6,2.2-2.2,1.9-3.8c2.2,2.4,1.1,3.6,3,3.1
			C88.8,136.6,88.1,132.7,86,130.9z"/>
		<ellipse class="st14" cx="61.3" cy="75.8" rx="1" ry="2.2"/>
		<ellipse class="st14" cx="67.6" cy="75.5" rx="1" ry="2.2"/>
		<path class="st15" d="M64.6,97.5c-18.5,0-36.3-6.8-50-19.2c3,30.3,24.2,53.8,50,53.8s46.9-23.4,50-53.7
			C100.9,90.7,83,97.5,64.6,97.5z"/>
		<rect x="27.9" y="102.7" class="st6" width="16" height="7.6"/>
		<rect x="32" y="105.6" class="st16" width="7.8" height="1.7"/>
		<path class="st17" d="M37.7,102.8v-0.6c0-1-0.8-1.8-1.8-1.8s-1.8,0.8-1.8,1.8v0.6H37.7z"/>
		<path class="st16" d="M83.5,95c-6.2,1.6-12.6,2.5-19,2.5c-6.3,0-12.7-0.8-18.8-2.4L62.6,112l-4.2,9.6l6,8.2l6-8.2l-4.1-9.4
			L83.5,95z"/>
		<path class="st17" d="M83.5,95c-6.2,1.6-12.6,2.5-19,2.5l0,0v32.3l6-8.2l-4.1-9.4L83.5,95z"/>
		<path class="st6" d="M53.6,70.6c-0.1-3.5-0.3-7.6-0.7-12.6c-0.7-9.2-2.3-19.5-10.8-19.5c-9.6,0-18.9,11.3-18.9,25
			c0,7.7,2.6,14.6,6.8,19.2C36.8,76.9,44.9,72.7,53.6,70.6z"/>
		<path class="st6" d="M75.5,70.6c0.1-3.5,0.3-7.6,0.7-12.6c0.7-9.2,2.3-19.5,10.8-19.5c9.6,0,18.9,11.3,18.9,25
			c0,7.7-2.6,14.6-6.8,19.2C92.3,76.9,84.2,72.7,75.5,70.6z"/>
		<path class="st14" d="M99.5,65.6c0-10-6.1-18.2-13.6-18.2c-3.6,0.1-6.9,1.8-9.1,4.7c-0.3,2-0.5,4-0.6,5.9c-0.4,5-0.6,9.1-0.7,12.6
			c6.9,1.6,13.4,4.6,19.2,8.7C97.7,76.1,99.5,71.1,99.5,65.6z"/>
		<path class="st14" d="M29.7,65.5c-0.1,5,1.6,9.9,4.7,13.8c5.8-4.1,12.3-7.1,19.2-8.7c-0.1-3.5-0.3-7.6-0.7-12.6
			c-0.1-2-0.3-4-0.6-6c-2.2-2.8-5.5-4.5-9-4.6C35.7,47.3,29.7,55.5,29.7,65.5z"/>
		<ellipse class="st6" cx="88.2" cy="56.3" rx="4.2" ry="4.4"/>
		<ellipse class="st6" cx="45.8" cy="56.3" rx="4.2" ry="4.4"/>
		<path class="st6" d="M38.7,123.4l25.9-25.9l25.8,25.8c13-9.5,22.1-25.9,24.1-45C100.8,90.6,83,97.4,64.6,97.4
			c-18.5,0-36.3-6.8-50-19.2C16.5,97.5,25.7,113.9,38.7,123.4z"/>
		<path class="st18" d="M64.5,97.4L64.5,97.4l25.8,25.8c13-9.5,22.1-25.9,24.1-45C100.7,90.6,82.9,97.4,64.5,97.4z"/>
		<path class="st3" d="M14.4,76.9c2.5,31,24,55.2,50.1,55.2S112.1,108,114.6,77c-21,11.6-38.4,28.9-50,49.9
			C52.9,105.8,35.5,88.5,14.4,76.9z"/>
		<path class="st0" d="M64.6,126.9L64.6,126.9v5.2c26.1,0,47.5-24.2,50-55.1C93.6,88.6,76.2,105.9,64.6,126.9z"/>
		<path class="st3" d="M14.2,70.5c0-6.5,0.8-12.9,2.5-19.2c-7.3,7.8-11.6,17.5-11.6,28c0,2.9,0.4,5.8,1,8.7c-2.4-3.2-4.4-6.8-6-10.5
			c2,15.2,10.9,28.6,24.1,36.3c0.1,0.1,0.2,0.1,0.2,0.2l1.4-4C18.1,98.3,14.1,84.6,14.2,70.5z"/>
		<path class="st0" d="M13.9,72.8c0.1-1,0.3-3.3,0.3-3.5v1.6c-0.1,13.9,3.9,27.5,11.7,39.1l-1.5,4.1C17,102.9,13,88.4,13.9,72.8z"/>
		<path class="st19" d="M87.2,29.4c-0.3-0.1-0.7-0.2-1-0.2v-0.1c-1.4-0.4-2.3-1.8-1.9-3.2s1.8-2.3,3.2-1.9c0.1,0,0.1,0,0.2,0.1
			c4.6,1.3,7.4,5.9,6.4,10.6C92.5,32.1,90.1,30.2,87.2,29.4z"/>
		<path class="st20" d="M35.3,34.6c-1-4.7,1.8-9.3,6.4-10.6c1.4-0.4,2.9,0.4,3.3,1.8c0.4,1.4-0.5,2.9-1.9,3.3v0.1
			c-0.3,0.1-0.7,0.1-1,0.2C39.2,30.2,36.8,32,35.3,34.6z"/>
		<path class="st7" d="M69.9,70.7c-1.3-1.5-3.2-2.3-5.2-2.4l0,0c-2,0.1-3.9,0.9-5.2,2.4c-3,1.8-5.4,4.6-2.1,7.9l0.4,0.4
			c0.8,6.1,4.5,11.8,6.9,15.1l0,0c2.5-3.3,6.1-9.1,6.9-15.1c0.1-0.2,0.2-0.3,0.4-0.4C75.3,75.3,72.8,72.5,69.9,70.7z"/>
		<path class="st13" d="M69.9,70.7c-1.3-1.5-3.2-2.3-5.2-2.4l0,0v25.8l0,0c2.5-3.3,6.1-9.1,6.9-15.1c0.1-0.2,0.2-0.3,0.4-0.4
			C75.4,75.3,72.9,72.5,69.9,70.7z"/>
		<ellipse class="st14" cx="61.6" cy="75.8" rx="1" ry="2.2"/>
		<ellipse class="st14" cx="67.9" cy="75.5" rx="1" ry="2.2"/>
		<path class="st6" d="M29.8,102.8h14.4c0.5,0,0.8,0.4,0.8,0.8v6.8c0,0.5-0.4,0.8-0.8,0.8H29.8c-0.5,0-0.8-0.4-0.8-0.8v-6.8
			C29,103.2,29.3,102.8,29.8,102.8z"/>
		<rect x="31.5" y="105.5" class="st21" width="11" height="0.8"/>
		<rect x="33.2" y="107.7" class="st21" width="7.6" height="0.8"/>
		<path class="st22" d="M39.3,103.3v-1.8c0-0.3-0.4-0.5-0.8-0.5h-2.8c-0.5,0-0.8,0.2-0.8,0.5v1.8H39.3z"/>
	</g>
	<g>
		<circle class="st23" cx="38.3" cy="60.8" r="26"/>
		<path class="st24" d="M38.3,34.8c-1.9,0-3.8,0.2-5.6,0.6C19,49.6,19,72,32.7,86.2c14,3.2,27.9-5.5,31.2-19.5s-5.5-27.9-19.5-31.2
			C42.3,35,40.3,34.8,38.3,34.8z"/>
		<circle class="st23" cx="91" cy="60.8" r="26"/>
		<path class="st24" d="M91,34.8c1.9,0,3.8,0.2,5.6,0.6c13.7,14.1,13.7,36.6,0,50.7c-14,3.2-27.9-5.5-31.2-19.5S71,38.7,85,35.5
			C87,35,89,34.8,91,34.8z"/>
		<g>
			<path class="st21" d="M36.5,88.9c-15.5,0-28-12.5-28-28s12.5-28,28-28s28,12.5,28,28v0C64.5,76.3,51.9,88.9,36.5,88.9z
				 M36.5,36.9c-13.3,0-24,10.7-24,24s10.7,24,24,24s24-10.7,24-24C60.5,47.6,49.7,36.9,36.5,36.9L36.5,36.9z"/>
			<path class="st21" d="M64.8,60.9c0-15.5,12.5-28,28-28s28,12.5,28,28s-12.5,28-28,28l0,0C77.4,88.9,64.8,76.3,64.8,60.9z
				 M68.8,60.9c0,13.3,10.7,24,24,24s24-10.7,24-24s-10.7-24-24-24S68.8,47.6,68.8,60.9z"/>
			<rect x="61.5" y="55.1" class="st21" width="6.8" height="9.9"/>
		</g>
	</g>
</g>
<path class="st8" d="M183.6,27.2h-90c-1.1,0-2,0.9-2,2v1c0,1.1,0.9,2,2,2v103.7c0,1.8,1.5,3.3,3.3,3.3l0,0h83.3
	c1.8,0,3.3-1.5,3.3-3.3l0,0l0,0V32.2c1.1,0,2-0.9,2-2v-1C185.6,28.1,184.7,27.2,183.6,27.2z"/>
<path class="st25" d="M96.6,32.2v101.9c0,1.2,0.9,2.1,2.1,2.1c0,0,0,0,0,0h79.9c1.2,0,2.1-0.9,2.1-2.1c0,0,0,0,0,0l0,0V32.2H96.6z"
	/>
<path class="st9" d="M183.6,27.2h-45v112h41.7c1.8,0,3.3-1.5,3.3-3.3l0,0l0,0V32.2c1.1,0,2-0.9,2-2v-1
	C185.6,28.1,184.7,27.2,183.6,27.2z"/>
<g>
	<path class="st8" d="M142.8,79.8h29.5c1.2,0,2.2,1,2.2,2.2V127c0,1.2-1,2.2-2.2,2.2h-29.5c-1.2,0-2.2-1-2.2-2.2V82.1
		C140.6,80.8,141.6,79.8,142.8,79.8z"/>
	<path class="st26" d="M145,83.1h25.1c0.6,0,1.1,0.5,1.1,1.1v37.3h-27.4V84.3C143.9,83.7,144.4,83.2,145,83.1z"/>
	<g>
		<rect x="144" y="124.8" class="st25" width="5.5" height="4.4"/>
		<rect x="147.3" y="125.9" class="st26" width="1.1" height="3.3"/>
		<rect x="145.1" y="125.9" class="st26" width="1.1" height="3.3"/>
		<rect x="157.1" y="124.8" class="st25" width="14.3" height="4.4"/>
		<rect x="169.2" y="125.9" class="st27" width="1.1" height="3.3"/>
		<rect x="167" y="125.9" class="st27" width="1.1" height="3.3"/>
		<rect x="158.2" y="125.9" class="st27" width="1.1" height="3.3"/>
		<rect x="160.4" y="125.9" class="st27" width="1.1" height="3.3"/>
		<rect x="162.6" y="125.9" class="st27" width="1.1" height="3.3"/>
		<rect x="164.8" y="125.9" class="st27" width="1.1" height="3.3"/>
	</g>
	<polygon class="st27" points="146.1,114.9 146.1,117.9 146.1,119.3 147.6,119.3 150.5,119.3 150.5,118.2 147.2,118.2 147.2,114.9 	
		"/>
	<polygon class="st27" points="169.1,89.7 169.1,86.8 169.1,85.3 167.7,85.3 164.7,85.3 164.7,86.4 168,86.4 168,89.7 	"/>
	<circle id="Shape-5" class="st27" cx="147.7" cy="86.9" r="1.6"/>
	<circle id="Shape-5-2" class="st27" cx="167.6" cy="117.8" r="1.6"/>
	<g>
		<path class="st27" d="M160.3,96.9c-0.1,0-0.1-0.1-0.2-0.1c0-0.1,0-0.1,0-0.2c0-0.1,0-0.2,0.1-0.2l0.2-0.3c0.1-0.1,0.1-0.3,0.2-0.4
			c0.1-0.2,0.1-0.4,0.1-0.6c0-0.2,0-0.4-0.1-0.5c0-0.1-0.1-0.3-0.2-0.4c-0.1-0.1-0.2-0.2-0.3-0.2c-0.1-0.1-0.3-0.1-0.4-0.1
			c-0.2,0-0.3,0-0.5,0.2c-0.1,0.1-0.2,0.3-0.3,0.4c-0.1,0.2-0.2,0.4-0.2,0.6l-0.2,0.7c-0.1,0.2-0.2,0.5-0.3,0.7
			c-0.1,0.2-0.2,0.4-0.4,0.6c-0.2,0.2-0.4,0.3-0.6,0.4c-0.3,0.1-0.5,0.2-0.8,0.2c-0.3,0-0.7-0.1-1-0.2c-0.3-0.1-0.6-0.3-0.8-0.5
			c-0.2-0.2-0.4-0.5-0.5-0.9c-0.1-0.4-0.2-0.8-0.2-1.2c0-0.2,0-0.5,0.1-0.7c0-0.2,0.1-0.5,0.2-0.7c0.1-0.2,0.2-0.4,0.3-0.6
			c0.1-0.2,0.3-0.4,0.4-0.5l0.7,0.4c0.1,0,0.1,0.1,0.1,0.1c0,0.1,0.1,0.1,0.1,0.2c0,0.1,0,0.2-0.1,0.3l-0.3,0.4
			c-0.1,0.2-0.1,0.3-0.2,0.5c-0.1,0.2-0.1,0.5-0.1,0.7c0,0.4,0.1,0.7,0.3,1c0.2,0.2,0.5,0.3,0.8,0.3c0.2,0,0.4,0,0.5-0.2
			c0.1-0.1,0.3-0.3,0.3-0.4c0.1-0.2,0.2-0.4,0.2-0.6c0.1-0.2,0.1-0.4,0.2-0.7c0.1-0.2,0.2-0.4,0.3-0.7c0.1-0.2,0.2-0.4,0.4-0.6
			c0.2-0.2,0.4-0.3,0.6-0.4c0.3-0.1,0.6-0.2,0.9-0.2c0.6,0,1.2,0.2,1.6,0.7c0.2,0.2,0.4,0.5,0.5,0.8c0.1,0.3,0.2,0.7,0.2,1.1
			c0,0.4-0.1,0.9-0.2,1.3c-0.1,0.4-0.3,0.7-0.6,1L160.3,96.9z"/>
		<path class="st27" d="M160.3,103.5c-0.1,0-0.1-0.1-0.2-0.1c0-0.1,0-0.1,0-0.2c0-0.1,0-0.1,0.1-0.2l0.2-0.3
			c0.1-0.1,0.1-0.3,0.2-0.4c0.1-0.2,0.1-0.4,0.1-0.6c0-0.2,0-0.4-0.1-0.5c0-0.1-0.1-0.3-0.2-0.4c-0.1-0.1-0.2-0.2-0.3-0.2
			c-0.1-0.1-0.3-0.1-0.4-0.1c-0.2,0-0.3,0-0.5,0.2c-0.1,0.1-0.2,0.3-0.3,0.4c-0.1,0.2-0.2,0.4-0.2,0.6l-0.2,0.7
			c-0.1,0.2-0.2,0.5-0.3,0.7c-0.1,0.2-0.2,0.4-0.4,0.6c-0.2,0.2-0.4,0.3-0.6,0.4c-0.3,0.1-0.5,0.2-0.8,0.2c-0.3,0-0.7-0.1-1-0.2
			c-0.3-0.1-0.6-0.3-0.8-0.5c-0.2-0.2-0.4-0.5-0.5-0.9c-0.1-0.4-0.2-0.8-0.2-1.2c0-0.2,0-0.5,0.1-0.7c0-0.2,0.1-0.5,0.2-0.7
			c0.1-0.2,0.2-0.4,0.3-0.6c0.1-0.2,0.3-0.4,0.4-0.5l0.7,0.4c0.1,0,0.1,0.1,0.1,0.1c0,0.1,0.1,0.1,0.1,0.2c0,0.1,0,0.2-0.1,0.3
			l-0.3,0.4c-0.1,0.2-0.2,0.3-0.3,0.5c-0.1,0.2-0.1,0.5-0.1,0.7c0,0.4,0.1,0.7,0.3,1c0.2,0.2,0.5,0.4,0.9,0.3c0.2,0,0.4,0,0.5-0.2
			c0.1-0.1,0.3-0.3,0.3-0.4c0.1-0.2,0.2-0.4,0.2-0.6c0.1-0.2,0.1-0.4,0.2-0.7c0.1-0.2,0.2-0.4,0.3-0.7c0.1-0.2,0.2-0.4,0.4-0.6
			c0.2-0.2,0.4-0.3,0.6-0.4c0.3-0.1,0.6-0.2,0.9-0.2c0.6,0,1.2,0.2,1.6,0.7c0.2,0.2,0.4,0.5,0.5,0.8c0.1,0.3,0.2,0.7,0.2,1.1
			c0,0.4-0.1,0.9-0.2,1.3c-0.1,0.4-0.3,0.7-0.6,1L160.3,103.5z"/>
		<path class="st27" d="M157.8,112.9c-0.5,0-1.1-0.1-1.6-0.2c-0.9-0.4-1.7-1.1-2.1-2.1c-0.2-0.5-0.3-1.1-0.3-1.6v-3h7.9v3
			c0,0.6-0.1,1.1-0.3,1.6c-0.2,0.5-0.5,0.9-0.8,1.3c-0.4,0.4-0.8,0.6-1.2,0.8C158.9,112.9,158.3,113,157.8,112.9z M157.8,111.5
			c0.4,0,0.8-0.1,1.2-0.2c0.3-0.1,0.6-0.3,0.9-0.5c0.2-0.2,0.4-0.5,0.6-0.8c0.1-0.3,0.2-0.7,0.2-1v-1.5H155v1.5c0,0.3,0.1,0.7,0.2,1
			c0.1,0.3,0.3,0.6,0.6,0.8c0.3,0.2,0.5,0.4,0.9,0.5C157,111.4,157.4,111.5,157.8,111.5z"/>
	</g>
</g>
<rect x="113.6" y="85.2" class="st28" width="8" height="31"/>
<rect x="115.6" y="88.2" class="st26" width="4" height="25"/>
<rect x="102.6" y="85.2" class="st28" width="8" height="31"/>
<rect x="104.6" y="88.2" class="st8" width="4" height="25"/>
<g class="st29">
	<rect x="102.6" y="73.2" width="1" height="7"/>
	<rect x="104.6" y="73.2" width="1" height="7"/>
	<rect x="106.6" y="73.2" width="1" height="7"/>
	<rect x="108.6" y="73.2" width="1" height="7"/>
	<rect x="110.6" y="73.2" width="1" height="7"/>
	<rect x="112.6" y="73.2" width="1" height="7"/>
	<rect x="114.6" y="73.2" width="1" height="7"/>
	<rect x="116.6" y="73.2" width="1" height="7"/>
	<rect x="118.6" y="73.2" width="1" height="7"/>
	<rect x="120.6" y="73.2" width="1" height="7"/>
	<rect x="122.6" y="73.2" width="1" height="7"/>
	<rect x="124.6" y="73.2" width="1" height="7"/>
	<rect x="126.6" y="73.2" width="1" height="7"/>
	<rect x="128.6" y="73.2" width="1" height="7"/>
	<rect x="130.6" y="73.2" width="1" height="7"/>
</g>
<rect x="112.9" y="126.2" class="st30" width="19.7" height="3"/>
<rect x="102.6" y="121.2" class="st31" width="30" height="3"/>
<rect x="102.6" y="39.5" class="st32" width="28.5" height="28.5"/>
<path class="st27" d="M107.8,43h18.2c1,0,1.7,0.8,1.7,1.7v18.2c0,1-0.8,1.7-1.7,1.7h-18.2c-1,0-1.7-0.8-1.7-1.7V44.7
	C106.1,43.7,106.8,43,107.8,43z"/>
<rect x="108" y="44.9" class="st26" width="17.7" height="17.7"/>
<polygon class="st27" points="109.7,57.5 109.7,59.8 109.7,60.9 110.8,60.9 113.1,60.9 113.1,60.1 110.5,60.1 110.5,57.5 "/>
<polygon class="st27" points="124.1,49.9 124.1,47.7 124.1,46.5 122.9,46.5 120.7,46.5 120.7,47.4 123.2,47.4 123.2,49.9 "/>
<path class="st27" d="M109.5,40.1c-0.6,0-1,0.4-1,1v3.4h2v-3.4C110.5,40.5,110,40.1,109.5,40.1z"/>
<path class="st27" d="M112.4,40.1c-0.6,0-1,0.4-1,1v3.4h2v-3.4C113.4,40.5,113,40.1,112.4,40.1z"/>
<path class="st27" d="M115.4,40.1c-0.6,0-1,0.4-1,1v3.4h2v-3.4C116.4,40.5,115.9,40.1,115.4,40.1z"/>
<path class="st27" d="M118.3,40.1c-0.6,0-1,0.4-1,1v3.4h2v-3.4C119.3,40.5,118.9,40.1,118.3,40.1z"/>
<path class="st27" d="M121.3,40.1c-0.6,0-1,0.4-1,1v3.4h2v-3.4C122.3,40.5,121.8,40.1,121.3,40.1z"/>
<path class="st27" d="M124.2,40.1c-0.6,0-1,0.4-1,1v3.4h2v-3.4C125.2,40.5,124.8,40.1,124.2,40.1z"/>
<path class="st27" d="M124.2,67.5c0.6,0,1-0.4,1-1v-3.4h-2v3.4C123.2,67,123.7,67.5,124.2,67.5z"/>
<path class="st27" d="M121.3,67.5c0.6,0,1-0.4,1-1v-3.4h-2v3.4C120.3,67,120.7,67.5,121.3,67.5z"/>
<path class="st27" d="M118.3,67.5c0.6,0,1-0.4,1-1v-3.4h-2v3.4C117.3,67,117.8,67.5,118.3,67.5z"/>
<path class="st27" d="M115.4,67.5c0.6,0,1-0.4,1-1v-3.4h-2v3.4C114.4,67,114.8,67.5,115.4,67.5z"/>
<path class="st27" d="M112.4,67.5c0.6,0,1-0.4,1-1v-3.4h-2v3.4C111.4,67,111.9,67.5,112.4,67.5z"/>
<path class="st27" d="M109.5,67.5c0.6,0,1-0.4,1-1v-3.4h-2v3.4C108.5,67,108.9,67.5,109.5,67.5z"/>
<path class="st27" d="M130.6,46.4c0-0.6-0.4-1-1-1h-3.4v2h3.4C130.1,47.4,130.6,46.9,130.6,46.4z"/>
<path class="st27" d="M130.6,49.3c0-0.6-0.4-1-1-1h-3.4v2h3.4C130.1,50.3,130.6,49.9,130.6,49.3z"/>
<path class="st27" d="M130.6,52.3c0-0.6-0.4-1-1-1h-3.4v2h3.4C130.1,53.3,130.6,52.8,130.6,52.3z"/>
<path class="st27" d="M130.6,55.2c0-0.6-0.4-1-1-1h-3.4v2h3.4C130.1,56.2,130.6,55.8,130.6,55.2z"/>
<path class="st27" d="M130.6,58.2c0-0.6-0.4-1-1-1h-3.4v2h3.4C130.1,59.2,130.6,58.7,130.6,58.2z"/>
<path class="st27" d="M130.6,61.1c0-0.6-0.4-1-1-1h-3.4v2h3.4C130.1,62.1,130.6,61.7,130.6,61.1z"/>
<path class="st27" d="M103.2,61.1c0,0.6,0.4,1,1,1h3.4v-2h-3.4C103.6,60.1,103.2,60.6,103.2,61.1z"/>
<path class="st27" d="M103.2,58.2c0,0.6,0.4,1,1,1h3.4v-2h-3.4C103.6,57.2,103.2,57.6,103.2,58.2z"/>
<path class="st27" d="M103.2,55.2c0,0.6,0.4,1,1,1h3.4v-2h-3.4C103.6,54.2,103.2,54.7,103.2,55.2z"/>
<path class="st27" d="M103.2,52.3c0,0.6,0.4,1,1,1h3.4v-2h-3.4C103.6,51.3,103.2,51.7,103.2,52.3z"/>
<path class="st27" d="M103.2,49.3c0,0.6,0.4,1,1,1h3.4v-2h-3.4C103.6,48.3,103.2,48.8,103.2,49.3z"/>
<path class="st27" d="M103.2,46.4c0,0.6,0.4,1,1,1h3.4v-2h-3.4C103.6,45.4,103.2,45.8,103.2,46.4z"/>
<path class="st27" d="M130.6,46.4c0-0.6-0.4-1-1-1h-3.4v2h3.4C130.1,47.4,130.6,47,130.6,46.4z"/>
<path class="st27" d="M130.6,49.4c0-0.6-0.4-1-1-1h-3.4v2h3.4C130.1,50.4,130.6,49.9,130.6,49.4z"/>
<path class="st27" d="M130.6,52.3c0-0.6-0.4-1-1-1h-3.4v2h3.4C130.1,53.3,130.6,52.9,130.6,52.3z"/>
<path class="st27" d="M130.6,55.3c0-0.6-0.4-1-1-1h-3.4v2h3.4C130.1,56.3,130.6,55.8,130.6,55.3z"/>
<path class="st27" d="M130.6,58.2c0-0.6-0.4-1-1-1h-3.4v2h3.4C130.1,59.2,130.6,58.8,130.6,58.2z"/>
<path class="st27" d="M130.6,61.2c0-0.6-0.4-1-1-1h-3.4v2h3.4C130.1,62.2,130.6,61.7,130.6,61.2z"/>
<rect x="124.6" y="85.2" class="st28" width="8" height="31"/>
<rect x="126.6" y="88.2" class="st8" width="4" height="25"/>
<circle class="st30" cx="143.6" cy="49.3" r="3"/>
<circle class="st26" cx="143.6" cy="49.3" r="1.7"/>
<circle class="st30" cx="143.6" cy="57.3" r="3"/>
<circle class="st26" cx="143.6" cy="57.3" r="1.7"/>
<rect x="141.1" y="62.2" class="st30" width="5" height="12"/>
<rect x="141.1" y="32.2" class="st30" width="5" height="12"/>
<rect x="158.3" y="42.2" class="st27" width="4" height="8"/>
<rect x="152.9" y="42.2" class="st28" width="4" height="8"/>
<rect x="170.3" y="42.2" class="st27" width="4" height="8"/>
<rect x="164.9" y="42.2" class="st28" width="4" height="8"/>
<rect x="152.9" y="52.3" class="st28" width="21.7" height="3"/>
<g class="st29">
	<rect x="152.9" y="60.3" width="1" height="7"/>
	<rect x="154.9" y="60.3" width="1" height="7"/>
	<rect x="156.9" y="60.3" width="1" height="7"/>
	<rect x="158.9" y="60.3" width="1" height="7"/>
	<rect x="160.9" y="60.3" width="1" height="7"/>
	<rect x="162.9" y="60.3" width="1" height="7"/>
	<rect x="164.9" y="60.3" width="1" height="7"/>
	<rect x="166.9" y="60.3" width="1" height="7"/>
	<rect x="168.9" y="60.3" width="1" height="7"/>
	<rect x="170.9" y="60.3" width="1" height="7"/>
	<rect x="172.9" y="60.3" width="1" height="7"/>
</g>
</svg>
