<svg xmlns="http://www.w3.org/2000/svg" viewBox="0 0 554 402.03"><defs><style>.cls-1,.cls-20,.cls-21,.cls-22,.cls-23{fill:none;stroke-miterlimit:10;}.cls-1,.cls-20{stroke:#39444d;}.cls-1{stroke-width:3px;}.cls-2,.cls-24{fill:#39444d;}.cls-3{opacity:0.1;}.cls-14,.cls-3{isolation:isolate;}.cls-4{fill:#22292e;}.cls-25,.cls-26,.cls-27,.cls-28,.cls-5{fill:#42bba6;}.cls-6{fill:#2a3239;}.cls-32,.cls-33,.cls-34,.cls-35,.cls-7{fill:#fca426;}.cls-8{fill:#1f2529;}.cls-9{fill:#333e46;}.cls-10{fill:#333d45;}.cls-11,.cls-18,.cls-19{fill:#fff;}.cls-12{fill:#e1e3e5;}.cls-13{fill:#d83a3a;}.cls-14{opacity:0.05;}.cls-15{fill:#d6d7d8;}.cls-16,.cls-29,.cls-30,.cls-31,.cls-36{fill:#1875ca;}.cls-17{fill:#2b2a29;}.cls-17,.cls-18{fill-rule:evenodd;}.cls-19,.cls-27,.cls-30,.cls-34{opacity:0.3;}.cls-20,.cls-21,.cls-22,.cls-23{stroke-width:4px;}.cls-20,.cls-24,.cls-26,.cls-29,.cls-33{opacity:0.5;}.cls-21{stroke:#fca426;}.cls-22{stroke:#1875ca;}.cls-23{stroke:#42bba6;}.cls-25,.cls-32,.cls-36{opacity:0.7;}.cls-28,.cls-31,.cls-35{opacity:0.15;}</style></defs><title>bare-metal-performance_2</title><g id="Warstwa_2" data-name="Warstwa 2"><g id="Servers"><polyline class="cls-1" points="441.33 130.7 441.33 52.18 330 52.18"/><polyline class="cls-1" points="116 130.7 116 52.18 227.33 52.18"/><path class="cls-2" d="M0,139V352a11.08,11.08,0,0,0,11.09,11H117V128H11.09A11.08,11.08,0,0,0,0,139Z"/><path class="cls-2" d="M230,352V139a11.08,11.08,0,0,0-11.1-11H115V363H218.9A11.08,11.08,0,0,0,230,352Z"/><path class="cls-3" d="M230,352V139a11.08,11.08,0,0,0-11.1-11H115V363H218.9A11.08,11.08,0,0,0,230,352Z"/><rect class="cls-4" x="215" y="327.53" width="2" height="20.8"/><rect class="cls-4" x="211" y="327.53" width="2" height="20.8"/><rect class="cls-4" x="207" y="327.53" width="2" height="20.8"/><rect class="cls-4" x="203" y="327.53" width="2" height="20.8"/><rect class="cls-4" x="199" y="327.53" width="2" height="20.8"/><rect class="cls-4" x="195" y="327.53" width="2" height="20.8"/><rect class="cls-4" x="191" y="327.53" width="2" height="20.8"/><rect class="cls-4" x="187" y="327.53" width="2" height="20.8"/><rect class="cls-4" x="183" y="327.53" width="2" height="20.8"/><rect class="cls-4" x="179" y="327.53" width="2" height="20.8"/><rect class="cls-4" x="175" y="327.53" width="2" height="20.8"/><rect class="cls-4" x="171" y="327.53" width="2" height="20.8"/><rect class="cls-4" x="167" y="327.53" width="2" height="20.8"/><rect class="cls-4" x="163" y="327.53" width="2" height="20.8"/><rect class="cls-4" x="159" y="327.53" width="2" height="20.8"/><rect class="cls-4" x="155" y="327.53" width="2" height="20.8"/><rect class="cls-4" x="151" y="327.53" width="2" height="20.8"/><rect class="cls-4" x="147" y="327.53" width="2" height="20.8"/><rect class="cls-4" x="143" y="327.53" width="2" height="20.8"/><rect class="cls-4" x="139" y="327.53" width="2" height="20.8"/><rect class="cls-4" x="135" y="327.53" width="2" height="20.8"/><rect class="cls-4" x="131" y="327.53" width="2" height="20.8"/><rect class="cls-4" x="127" y="327.53" width="2" height="20.8"/><rect class="cls-4" x="123" y="327.53" width="2" height="20.8"/><rect class="cls-4" x="119" y="327.53" width="2" height="20.8"/><rect class="cls-4" x="115" y="327.53" width="2" height="20.8"/><rect class="cls-4" x="111" y="327.53" width="2" height="20.8"/><rect class="cls-4" x="107" y="327.53" width="2" height="20.8"/><rect class="cls-4" x="103" y="327.53" width="2" height="20.8"/><rect class="cls-4" x="99" y="327.53" width="2" height="20.8"/><rect class="cls-4" x="95" y="327.53" width="2" height="20.8"/><rect class="cls-4" x="91" y="327.53" width="2" height="20.8"/><rect class="cls-4" x="87" y="327.53" width="2" height="20.8"/><rect class="cls-4" x="83" y="327.53" width="2" height="20.8"/><rect class="cls-4" x="79" y="327.53" width="2" height="20.8"/><rect class="cls-4" x="75" y="327.53" width="2" height="20.8"/><rect class="cls-4" x="71" y="327.53" width="2" height="20.8"/><rect class="cls-4" x="67" y="327.53" width="2" height="20.8"/><rect class="cls-4" x="63" y="327.53" width="2" height="20.8"/><rect class="cls-4" x="59" y="327.53" width="2" height="20.8"/><rect class="cls-4" x="55" y="327.53" width="2" height="20.8"/><rect class="cls-4" x="51" y="327.53" width="2" height="20.8"/><rect class="cls-4" x="47" y="327.53" width="2" height="20.8"/><rect class="cls-4" x="43" y="327.53" width="2" height="20.8"/><rect class="cls-4" x="39" y="327.53" width="2" height="20.8"/><rect class="cls-4" x="35" y="327.53" width="2" height="20.8"/><rect class="cls-4" x="31" y="327.53" width="2" height="20.8"/><rect class="cls-4" x="27" y="327.53" width="2" height="20.8"/><rect class="cls-4" x="23" y="327.53" width="2" height="20.8"/><rect class="cls-4" x="19" y="327.53" width="2" height="20.8"/><rect class="cls-4" x="15" y="278.03" width="202" height="35" rx="4" ry="4"/><circle class="cls-5" cx="53.33" cy="295.87" r="4"/><circle class="cls-5" cx="41.33" cy="295.87" r="4"/><circle class="cls-5" cx="29.33" cy="295.87" r="4"/><rect class="cls-6" x="131" y="298.03" width="22" height="3" rx="1.46" ry="1.46"/><rect class="cls-6" x="131" y="290.03" width="22" height="3" rx="1.47" ry="1.47"/><rect class="cls-6" x="104" y="298.03" width="22" height="3" rx="1.46" ry="1.46"/><rect class="cls-6" x="104" y="290.03" width="22" height="3" rx="1.47" ry="1.47"/><rect class="cls-6" x="77" y="298.03" width="22" height="3" rx="1.46" ry="1.46"/><rect class="cls-6" x="77" y="290.03" width="22" height="3" rx="1.47" ry="1.47"/><rect class="cls-7" x="187" y="301.03" width="5" height="5"/><rect class="cls-6" x="195" y="301.03" width="5" height="5"/><rect class="cls-6" x="203" y="301.03" width="5" height="5"/><rect class="cls-6" x="187" y="293.03" width="5" height="5"/><rect class="cls-6" x="195" y="293.03" width="5" height="5"/><rect class="cls-6" x="203" y="293.03" width="5" height="5"/><rect class="cls-6" x="187" y="285.03" width="5" height="5"/><rect class="cls-6" x="195" y="285.03" width="5" height="5"/><rect class="cls-6" x="203" y="285.03" width="5" height="5"/><rect class="cls-4" x="15" y="233.03" width="202" height="35" rx="4" ry="4"/><circle class="cls-5" cx="53.33" cy="250.87" r="4"/><circle class="cls-5" cx="41.33" cy="250.87" r="4"/><circle class="cls-5" cx="29.33" cy="250.87" r="4"/><rect class="cls-6" x="131" y="253.03" width="22" height="3" rx="1.46" ry="1.46"/><rect class="cls-6" x="131" y="245.03" width="22" height="3" rx="1.47" ry="1.47"/><rect class="cls-6" x="104" y="253.03" width="22" height="3" rx="1.46" ry="1.46"/><rect class="cls-6" x="104" y="245.03" width="22" height="3" rx="1.47" ry="1.47"/><rect class="cls-6" x="77" y="253.03" width="22" height="3" rx="1.46" ry="1.46"/><rect class="cls-6" x="77" y="245.03" width="22" height="3" rx="1.47" ry="1.47"/><rect class="cls-6" x="187" y="256.03" width="5" height="5"/><rect class="cls-6" x="195" y="256.03" width="5" height="5"/><rect class="cls-6" x="203" y="256.03" width="5" height="5"/><rect class="cls-6" x="187" y="248.03" width="5" height="5"/><rect class="cls-7" x="195" y="248.03" width="5" height="5"/><rect class="cls-6" x="203" y="248.03" width="5" height="5"/><rect class="cls-6" x="187" y="240.03" width="5" height="5"/><rect class="cls-6" x="195" y="240.03" width="5" height="5"/><rect class="cls-6" x="203" y="240.03" width="5" height="5"/><rect class="cls-4" x="15" y="188.03" width="202" height="35" rx="4" ry="4"/><circle class="cls-5" cx="53.33" cy="205.87" r="4"/><circle class="cls-5" cx="41.33" cy="205.87" r="4"/><circle class="cls-5" cx="29.33" cy="205.87" r="4"/><rect class="cls-6" x="131" y="208.03" width="22" height="3" rx="1.46" ry="1.46"/><rect class="cls-6" x="131" y="200.03" width="22" height="3" rx="1.47" ry="1.47"/><rect class="cls-6" x="104" y="208.03" width="22" height="3" rx="1.46" ry="1.46"/><rect class="cls-6" x="104" y="200.03" width="22" height="3" rx="1.47" ry="1.47"/><rect class="cls-6" x="77" y="208.03" width="22" height="3" rx="1.46" ry="1.46"/><rect class="cls-6" x="77" y="200.03" width="22" height="3" rx="1.47" ry="1.47"/><rect class="cls-6" x="187" y="211.03" width="5" height="5"/><rect class="cls-6" x="195" y="211.03" width="5" height="5"/><rect class="cls-6" x="203" y="211.03" width="5" height="5"/><rect class="cls-6" x="187" y="203.03" width="5" height="5"/><rect class="cls-6" x="195" y="203.03" width="5" height="5"/><rect class="cls-6" x="203" y="203.03" width="5" height="5"/><rect class="cls-7" x="187" y="195.03" width="5" height="5"/><rect class="cls-6" x="195" y="195.03" width="5" height="5"/><rect class="cls-6" x="203" y="195.03" width="5" height="5"/><rect class="cls-4" x="15" y="143.03" width="202" height="35" rx="4" ry="4"/><circle class="cls-5" cx="53.33" cy="160.87" r="4"/><circle class="cls-5" cx="41.33" cy="160.87" r="4"/><circle class="cls-5" cx="29.33" cy="160.87" r="4"/><rect class="cls-6" x="131" y="163.03" width="22" height="3" rx="1.46" ry="1.46"/><rect class="cls-6" x="131" y="155.03" width="22" height="3" rx="1.47" ry="1.47"/><rect class="cls-6" x="104" y="163.03" width="22" height="3" rx="1.46" ry="1.46"/><rect class="cls-6" x="104" y="155.03" width="22" height="3" rx="1.47" ry="1.47"/><rect class="cls-6" x="77" y="163.03" width="22" height="3" rx="1.46" ry="1.46"/><rect class="cls-6" x="77" y="155.03" width="22" height="3" rx="1.47" ry="1.47"/><rect class="cls-6" x="187" y="166.03" width="5" height="5"/><rect class="cls-6" x="195" y="166.03" width="5" height="5"/><rect class="cls-6" x="203" y="166.03" width="5" height="5"/><rect class="cls-6" x="187" y="158.03" width="5" height="5"/><rect class="cls-6" x="195" y="158.03" width="5" height="5"/><rect class="cls-6" x="203" y="158.03" width="5" height="5"/><rect class="cls-6" x="187" y="150.03" width="5" height="5"/><rect class="cls-6" x="195" y="150.03" width="5" height="5"/><rect class="cls-6" x="203" y="150.03" width="5" height="5"/><path class="cls-2" d="M324,139V352a11.08,11.08,0,0,0,11.09,11H441V128H335.09A11.08,11.08,0,0,0,324,139Z"/><path class="cls-2" d="M554,352V139a11,11,0,0,0-11-11H440V363H543A11,11,0,0,0,554,352Z"/><path class="cls-3" d="M554,352V139a11,11,0,0,0-11-11H440V363H543A11,11,0,0,0,554,352Z"/><rect class="cls-4" x="539" y="327.53" width="2" height="20.8"/><rect class="cls-4" x="535" y="327.53" width="2" height="20.8"/><rect class="cls-4" x="531" y="327.53" width="2" height="20.8"/><rect class="cls-4" x="527" y="327.53" width="2" height="20.8"/><rect class="cls-4" x="523" y="327.53" width="2" height="20.8"/><rect class="cls-4" x="519" y="327.53" width="2" height="20.8"/><rect class="cls-4" x="515" y="327.53" width="2" height="20.8"/><rect class="cls-4" x="511" y="327.53" width="2" height="20.8"/><rect class="cls-4" x="507" y="327.53" width="2" height="20.8"/><rect class="cls-4" x="503" y="327.53" width="2" height="20.8"/><rect class="cls-4" x="499" y="327.53" width="2" height="20.8"/><rect class="cls-4" x="495" y="327.53" width="2" height="20.8"/><rect class="cls-4" x="491" y="327.53" width="2" height="20.8"/><rect class="cls-4" x="487" y="327.53" width="2" height="20.8"/><rect class="cls-4" x="483" y="327.53" width="2" height="20.8"/><rect class="cls-4" x="479" y="327.53" width="2" height="20.8"/><rect class="cls-4" x="475" y="327.53" width="2" height="20.8"/><rect class="cls-4" x="471" y="327.53" width="2" height="20.8"/><rect class="cls-4" x="467" y="327.53" width="2" height="20.8"/><rect class="cls-4" x="463" y="327.53" width="2" height="20.8"/><rect class="cls-4" x="459" y="327.53" width="2" height="20.8"/><rect class="cls-4" x="455" y="327.53" width="2" height="20.8"/><rect class="cls-4" x="451" y="327.53" width="2" height="20.8"/><rect class="cls-4" x="447" y="327.53" width="2" height="20.8"/><rect class="cls-4" x="443" y="327.53" width="2" height="20.8"/><rect class="cls-4" x="439" y="327.53" width="2" height="20.8"/><rect class="cls-4" x="435" y="327.53" width="2" height="20.8"/><rect class="cls-4" x="431" y="327.53" width="2" height="20.8"/><rect class="cls-4" x="427" y="327.53" width="2" height="20.8"/><rect class="cls-4" x="423" y="327.53" width="2" height="20.8"/><rect class="cls-4" x="419" y="327.53" width="2" height="20.8"/><rect class="cls-4" x="415" y="327.53" width="2" height="20.8"/><rect class="cls-4" x="411" y="327.53" width="2" height="20.8"/><rect class="cls-4" x="407" y="327.53" width="2" height="20.8"/><rect class="cls-4" x="403" y="327.53" width="2" height="20.8"/><rect class="cls-4" x="399" y="327.53" width="2" height="20.8"/><rect class="cls-4" x="395" y="327.53" width="2" height="20.8"/><rect class="cls-4" x="391" y="327.53" width="2" height="20.8"/><rect class="cls-4" x="387" y="327.53" width="2" height="20.8"/><rect class="cls-4" x="383" y="327.53" width="2" height="20.8"/><rect class="cls-4" x="379" y="327.53" width="2" height="20.8"/><rect class="cls-4" x="375" y="327.53" width="2" height="20.8"/><rect class="cls-4" x="371" y="327.53" width="2" height="20.8"/><rect class="cls-4" x="367" y="327.53" width="2" height="20.8"/><rect class="cls-4" x="363" y="327.53" width="2" height="20.8"/><rect class="cls-4" x="359" y="327.53" width="2" height="20.8"/><rect class="cls-4" x="355" y="327.53" width="2" height="20.8"/><rect class="cls-4" x="351" y="327.53" width="2" height="20.8"/><rect class="cls-4" x="347" y="327.53" width="2" height="20.8"/><rect class="cls-4" x="343" y="327.53" width="2" height="20.8"/><rect class="cls-4" x="339" y="327.53" width="2" height="20.8"/><rect class="cls-4" x="339" y="278.03" width="202" height="35" rx="4" ry="4"/><circle class="cls-5" cx="377.33" cy="295.87" r="4"/><circle class="cls-5" cx="365.33" cy="295.87" r="4"/><circle class="cls-5" cx="353.33" cy="295.87" r="4"/><rect class="cls-6" x="455" y="298.03" width="22" height="3" rx="1.46" ry="1.46"/><rect class="cls-6" x="455" y="290.03" width="22" height="3" rx="1.47" ry="1.47"/><rect class="cls-6" x="428" y="298.03" width="22" height="3" rx="1.46" ry="1.46"/><rect class="cls-6" x="428" y="290.03" width="22" height="3" rx="1.47" ry="1.47"/><rect class="cls-6" x="401" y="298.03" width="22" height="3" rx="1.46" ry="1.46"/><rect class="cls-6" x="401" y="290.03" width="22" height="3" rx="1.47" ry="1.47"/><rect class="cls-7" x="511" y="301.03" width="5" height="5"/><rect class="cls-6" x="519" y="301.03" width="5" height="5"/><rect class="cls-6" x="527" y="301.03" width="5" height="5"/><rect class="cls-6" x="511" y="293.03" width="5" height="5"/><rect class="cls-6" x="519" y="293.03" width="5" height="5"/><rect class="cls-6" x="527" y="293.03" width="5" height="5"/><rect class="cls-6" x="511" y="285.03" width="5" height="5"/><rect class="cls-6" x="519" y="285.03" width="5" height="5"/><rect class="cls-6" x="527" y="285.03" width="5" height="5"/><rect class="cls-4" x="339" y="233.03" width="202" height="35" rx="4" ry="4"/><circle class="cls-5" cx="377.33" cy="250.87" r="4"/><circle class="cls-5" cx="365.33" cy="250.87" r="4"/><circle class="cls-5" cx="353.33" cy="250.87" r="4"/><rect class="cls-6" x="455" y="253.03" width="22" height="3" rx="1.46" ry="1.46"/><rect class="cls-6" x="455" y="245.03" width="22" height="3" rx="1.47" ry="1.47"/><rect class="cls-6" x="428" y="253.03" width="22" height="3" rx="1.46" ry="1.46"/><rect class="cls-6" x="428" y="245.03" width="22" height="3" rx="1.47" ry="1.47"/><rect class="cls-6" x="401" y="253.03" width="22" height="3" rx="1.46" ry="1.46"/><rect class="cls-6" x="401" y="245.03" width="22" height="3" rx="1.47" ry="1.47"/><rect class="cls-6" x="511" y="256.03" width="5" height="5"/><rect class="cls-6" x="519" y="256.03" width="5" height="5"/><rect class="cls-6" x="527" y="256.03" width="5" height="5"/><rect class="cls-6" x="511" y="248.03" width="5" height="5"/><rect class="cls-7" x="519" y="248.03" width="5" height="5"/><rect class="cls-6" x="527" y="248.03" width="5" height="5"/><rect class="cls-6" x="511" y="240.03" width="5" height="5"/><rect class="cls-6" x="519" y="240.03" width="5" height="5"/><rect class="cls-6" x="527" y="240.03" width="5" height="5"/><rect class="cls-4" x="339" y="188.03" width="202" height="35" rx="4" ry="4"/><circle class="cls-5" cx="377.33" cy="205.87" r="4"/><circle class="cls-5" cx="365.33" cy="205.87" r="4"/><circle class="cls-5" cx="353.33" cy="205.87" r="4"/><rect class="cls-6" x="455" y="208.03" width="22" height="3" rx="1.46" ry="1.46"/><rect class="cls-6" x="455" y="200.03" width="22" height="3" rx="1.47" ry="1.47"/><rect class="cls-6" x="428" y="208.03" width="22" height="3" rx="1.46" ry="1.46"/><rect class="cls-6" x="428" y="200.03" width="22" height="3" rx="1.47" ry="1.47"/><rect class="cls-6" x="401" y="208.03" width="22" height="3" rx="1.46" ry="1.46"/><rect class="cls-6" x="401" y="200.03" width="22" height="3" rx="1.47" ry="1.47"/><rect class="cls-6" x="511" y="211.03" width="5" height="5"/><rect class="cls-6" x="519" y="211.03" width="5" height="5"/><rect class="cls-6" x="527" y="211.03" width="5" height="5"/><rect class="cls-6" x="511" y="203.03" width="5" height="5"/><rect class="cls-6" x="519" y="203.03" width="5" height="5"/><rect class="cls-6" x="527" y="203.03" width="5" height="5"/><rect class="cls-7" x="511" y="195.03" width="5" height="5"/><rect class="cls-6" x="519" y="195.03" width="5" height="5"/><rect class="cls-6" x="527" y="195.03" width="5" height="5"/><rect class="cls-4" x="339" y="143.03" width="202" height="35" rx="4" ry="4"/><circle class="cls-5" cx="377.33" cy="160.87" r="4"/><circle class="cls-5" cx="365.33" cy="160.87" r="4"/><circle class="cls-5" cx="353.33" cy="160.87" r="4"/><rect class="cls-6" x="455" y="163.03" width="22" height="3" rx="1.46" ry="1.46"/><rect class="cls-6" x="455" y="155.03" width="22" height="3" rx="1.47" ry="1.47"/><rect class="cls-6" x="428" y="163.03" width="22" height="3" rx="1.46" ry="1.46"/><rect class="cls-6" x="428" y="155.03" width="22" height="3" rx="1.47" ry="1.47"/><rect class="cls-6" x="401" y="163.03" width="22" height="3" rx="1.46" ry="1.46"/><rect class="cls-6" x="401" y="155.03" width="22" height="3" rx="1.47" ry="1.47"/><rect class="cls-6" x="511" y="166.03" width="5" height="5"/><rect class="cls-6" x="519" y="166.03" width="5" height="5"/><rect class="cls-6" x="527" y="166.03" width="5" height="5"/><rect class="cls-6" x="511" y="158.03" width="5" height="5"/><rect class="cls-6" x="519" y="158.03" width="5" height="5"/><rect class="cls-6" x="527" y="158.03" width="5" height="5"/><rect class="cls-6" x="511" y="150.03" width="5" height="5"/><rect class="cls-6" x="519" y="150.03" width="5" height="5"/><rect class="cls-6" x="527" y="150.03" width="5" height="5"/><rect class="cls-8" x="316" y="162.03" width="8" height="18"/><path class="cls-7" d="M240,169.95l-1.1,1.67c.22.14,14.91,9.54,37.59,9.54h.92v-2C254.91,179.42,240.26,170.09,240,169.95Z"/><path class="cls-7" d="M240,209.95l-1.1,1.67c.22.14,14.91,9.54,37.59,9.54h.92v-2C254.91,219.42,240.26,210.09,240,209.95Z"/><path class="cls-7" d="M240,249.95l-1.1,1.67c.22.14,14.91,9.54,37.59,9.54h.92v-2C254.91,259.42,240.26,250.09,240,249.95Z"/><path class="cls-7" d="M315.06,169.88a87.67,87.67,0,0,1-37.6,9.27v2a89.55,89.55,0,0,0,38.47-9.46Z"/><path class="cls-7" d="M315.06,209.88a87.67,87.67,0,0,1-37.6,9.27v2a89.55,89.55,0,0,0,38.47-9.46Z"/><path class="cls-7" d="M315.06,249.88a87.67,87.67,0,0,1-37.6,9.27v2a89.55,89.55,0,0,0,38.47-9.46Z"/><rect class="cls-9" x="313" y="166.28" width="3" height="10"/><rect class="cls-4" x="230" y="162.03" width="8" height="18"/><rect class="cls-2" x="238" y="165.78" width="3" height="10"/><rect class="cls-8" x="316" y="202.03" width="8" height="18"/><rect class="cls-9" x="313" y="206.28" width="3" height="10"/><rect class="cls-4" x="230" y="202.03" width="8" height="18"/><rect class="cls-2" x="238" y="205.78" width="3" height="10"/><rect class="cls-8" x="316" y="242.03" width="8" height="18"/><rect class="cls-9" x="313" y="246.28" width="3" height="10"/><rect class="cls-4" x="230" y="242.03" width="8" height="18"/><rect class="cls-2" x="238" y="245.78" width="3" height="10"/><path class="cls-2" d="M277,0a54.18,54.18,0,1,1-54.18,54.18A54.2,54.2,0,0,1,277,0Z"/><path class="cls-10" d="M277,108.37h0V0h0a54.18,54.18,0,0,1,0,108.37Z"/><path class="cls-11" d="M277,7.59a46.6,46.6,0,1,1-46.6,46.6A46.6,46.6,0,0,1,277,7.59Z"/><path class="cls-12" d="M306.64,45.35a30.88,30.88,0,1,0-51.37,30.72L249,82.9a40.13,40.13,0,1,1,66.48-40.26Z"/><path class="cls-13" d="M307.94,54.07a32,32,0,0,0-1-7.91l8.89-2.44a40.75,40.75,0,0,1,1.35,10.35A40,40,0,0,1,304.9,82.9l-6.77-6.29A30.63,30.63,0,0,0,307.94,54.07Z"/><path class="cls-14" d="M277,100.78h0V7.59h0a46.6,46.6,0,1,1,0,93.2Z"/><path class="cls-2" d="M272.67,59c-.06,0-.06-.12-.06-.18a6.77,6.77,0,0,1,2.7-13,6.47,6.47,0,0,1,4.7,1.94h.06l30.41,25.19Zm2.58-8.45a2,2,0,1,0,2,2A2,2,0,0,0,275.26,50.5Z"/></g><g id="monitor"><path class="cls-11" d="M276.43,288H200.11a3.12,3.12,0,0,0-3.11,3.11V378h0c-1.17.47-1.91,1.49-2.62,3.43l-7.78,17.13c0,1.89,1.18,3.43,2.62,3.43H277V288Z"/><path class="cls-11" d="M367.19,402c1.44,0,2.62-1.55,2.62-3.43L362,381.47c-.71-1.94-1.45-3-2.62-3.43H358V291.14a3.12,3.12,0,0,0-3.11-3.11H277V402h90.19Z"/><polygon class="cls-12" points="314.46 394.32 317.95 394.32 316.64 391.84 313.16 391.84 314.46 394.32"/><polygon class="cls-12" points="313.1 391.32 316.58 391.32 315.27 388.84 311.79 388.84 313.1 391.32"/><polygon class="cls-12" points="311.73 388.32 315.21 388.32 313.9 385.84 310.42 385.84 311.73 388.32"/><polygon class="cls-12" points="310.36 385.32 313.84 385.32 312.54 382.84 309.05 382.84 310.36 385.32"/><polygon class="cls-12" points="308.99 382.32 312.47 382.32 311.17 379.84 307.69 379.84 308.99 382.32"/><polygon class="cls-12" points="318.46 394.32 321.95 394.32 320.64 391.84 317.16 391.84 318.46 394.32"/><polygon class="cls-12" points="317.1 391.32 320.58 391.32 319.27 388.84 315.79 388.84 317.1 391.32"/><polygon class="cls-12" points="315.73 388.32 319.21 388.32 317.9 385.84 314.42 385.84 315.73 388.32"/><polygon class="cls-12" points="314.36 385.32 317.84 385.32 316.54 382.84 313.05 382.84 314.36 385.32"/><polygon class="cls-12" points="312.99 382.32 316.47 382.32 315.17 379.84 311.69 379.84 312.99 382.32"/><polygon class="cls-12" points="322.46 394.32 325.95 394.32 324.64 391.84 321.16 391.84 322.46 394.32"/><polygon class="cls-12" points="321.1 391.32 324.58 391.32 323.27 388.84 319.79 388.84 321.1 391.32"/><polygon class="cls-12" points="319.73 388.32 323.21 388.32 321.9 385.84 318.42 385.84 319.73 388.32"/><polygon class="cls-12" points="318.36 385.32 321.84 385.32 320.54 382.84 317.05 382.84 318.36 385.32"/><polygon class="cls-12" points="316.99 382.32 320.47 382.32 319.17 379.84 315.69 379.84 316.99 382.32"/><polygon class="cls-12" points="326.46 394.32 329.95 394.32 328.64 391.84 325.16 391.84 326.46 394.32"/><polygon class="cls-12" points="325.1 391.32 328.58 391.32 327.27 388.84 323.79 388.84 325.1 391.32"/><polygon class="cls-12" points="323.73 388.32 327.21 388.32 325.9 385.84 322.42 385.84 323.73 388.32"/><polygon class="cls-12" points="322.36 385.32 325.84 385.32 324.54 382.84 321.05 382.84 322.36 385.32"/><polygon class="cls-12" points="320.99 382.32 324.47 382.32 323.17 379.84 319.69 379.84 320.99 382.32"/><polygon class="cls-12" points="330.46 394.32 333.95 394.32 332.64 391.84 329.16 391.84 330.46 394.32"/><polygon class="cls-12" points="329.1 391.32 332.58 391.32 331.27 388.84 327.79 388.84 329.1 391.32"/><polygon class="cls-12" points="327.73 388.32 331.21 388.32 329.9 385.84 326.42 385.84 327.73 388.32"/><polygon class="cls-12" points="326.36 385.32 329.84 385.32 328.54 382.84 325.05 382.84 326.36 385.32"/><polygon class="cls-12" points="324.99 382.32 328.47 382.32 327.17 379.84 323.69 379.84 324.99 382.32"/><polygon class="cls-12" points="334.46 394.32 337.95 394.32 336.64 391.84 333.16 391.84 334.46 394.32"/><polygon class="cls-12" points="333.1 391.32 336.58 391.32 335.27 388.84 331.79 388.84 333.1 391.32"/><polygon class="cls-12" points="331.73 388.32 335.21 388.32 333.9 385.84 330.42 385.84 331.73 388.32"/><polygon class="cls-12" points="330.36 385.32 333.84 385.32 332.54 382.84 329.05 382.84 330.36 385.32"/><polygon class="cls-12" points="328.99 382.32 332.47 382.32 331.17 379.84 327.69 379.84 328.99 382.32"/><polygon class="cls-12" points="338.46 394.32 341.95 394.32 340.64 391.84 337.16 391.84 338.46 394.32"/><polygon class="cls-12" points="337.1 391.32 340.58 391.32 339.27 388.84 335.79 388.84 337.1 391.32"/><polygon class="cls-12" points="335.73 388.32 339.21 388.32 337.9 385.84 334.42 385.84 335.73 388.32"/><polygon class="cls-12" points="334.36 385.32 337.84 385.32 336.54 382.84 333.05 382.84 334.36 385.32"/><polygon class="cls-12" points="332.99 382.32 336.47 382.32 335.17 379.84 331.69 379.84 332.99 382.32"/><polygon class="cls-12" points="342.46 394.32 345.95 394.32 344.64 391.84 341.16 391.84 342.46 394.32"/><polygon class="cls-12" points="341.1 391.32 344.58 391.32 343.27 388.84 339.79 388.84 341.1 391.32"/><polygon class="cls-12" points="339.73 388.32 343.21 388.32 341.9 385.84 338.42 385.84 339.73 388.32"/><polygon class="cls-12" points="338.36 385.32 341.84 385.32 340.54 382.84 337.05 382.84 338.36 385.32"/><polygon class="cls-12" points="336.99 382.32 340.47 382.32 339.17 379.84 335.69 379.84 336.99 382.32"/><polygon class="cls-12" points="346.46 394.32 349.95 394.32 348.64 391.84 345.16 391.84 346.46 394.32"/><polygon class="cls-12" points="345.1 391.32 348.58 391.32 347.27 388.84 343.79 388.84 345.1 391.32"/><polygon class="cls-12" points="343.73 388.32 347.21 388.32 345.9 385.84 342.42 385.84 343.73 388.32"/><polygon class="cls-12" points="342.36 385.32 345.84 385.32 344.54 382.84 341.05 382.84 342.36 385.32"/><polygon class="cls-12" points="340.99 382.32 344.47 382.32 343.17 379.84 339.69 379.84 340.99 382.32"/><polyline class="cls-12" points="350.01 394.84 330.53 394.84 331.83 397.32 351.31 397.32"/><polygon class="cls-12" points="315.83 397.32 351.31 397.32 350.01 394.84 314.53 394.84 315.83 397.32"/><polygon class="cls-12" points="353.83 397.32 363.31 397.32 362.01 394.84 352.53 394.84 353.83 397.32"/><polygon class="cls-12" points="350.46 394.32 353.95 394.32 352.64 391.84 349.16 391.84 350.46 394.32"/><polygon class="cls-12" points="349.1 391.32 352.58 391.32 351.27 388.84 347.79 388.84 349.1 391.32"/><polygon class="cls-12" points="347.73 388.32 351.21 388.32 349.9 385.84 346.42 385.84 347.73 388.32"/><polygon class="cls-12" points="346.36 385.32 349.84 385.32 348.54 382.84 345.05 382.84 346.36 385.32"/><polygon class="cls-12" points="344.99 382.32 348.47 382.32 347.17 379.84 343.69 379.84 344.99 382.32"/><polygon class="cls-12" points="354.46 394.32 357.95 394.32 356.64 391.84 353.16 391.84 354.46 394.32"/><polygon class="cls-12" points="353.1 391.32 356.58 391.32 355.27 388.84 351.79 388.84 353.1 391.32"/><polygon class="cls-12" points="351.73 388.32 355.21 388.32 353.9 385.84 350.42 385.84 351.73 388.32"/><polygon class="cls-12" points="350.36 385.32 353.84 385.32 352.54 382.84 349.05 382.84 350.36 385.32"/><polygon class="cls-12" points="348.99 382.32 352.47 382.32 351.17 379.84 347.69 379.84 348.99 382.32"/><polygon class="cls-12" points="358.46 394.32 361.95 394.32 360.64 391.84 357.16 391.84 358.46 394.32"/><polygon class="cls-12" points="357.1 391.32 360.58 391.32 359.27 388.84 355.79 388.84 357.1 391.32"/><polygon class="cls-12" points="355.73 388.32 359.21 388.32 357.9 385.84 354.42 385.84 355.73 388.32"/><polygon class="cls-12" points="354.36 385.32 357.84 385.32 356.54 382.84 353.05 382.84 354.36 385.32"/><polygon class="cls-12" points="352.99 382.32 356.47 382.32 355.17 379.84 351.69 379.84 352.99 382.32"/><polygon class="cls-12" points="241.54 394.32 238.05 394.32 239.36 391.84 242.84 391.84 241.54 394.32"/><polygon class="cls-12" points="242.91 391.32 239.42 391.32 240.73 388.84 244.21 388.84 242.91 391.32"/><polygon class="cls-12" points="244.27 388.32 240.79 388.32 242.09 385.84 245.58 385.84 244.27 388.32"/><polygon class="cls-12" points="245.64 385.32 242.16 385.32 243.46 382.84 246.95 382.84 245.64 385.32"/><polygon class="cls-12" points="247.01 382.32 243.53 382.32 244.83 379.84 248.31 379.84 247.01 382.32"/><polygon class="cls-12" points="237.54 394.32 234.05 394.32 235.36 391.84 238.84 391.84 237.54 394.32"/><polygon class="cls-12" points="238.91 391.32 235.42 391.32 236.73 388.84 240.21 388.84 238.91 391.32"/><polygon class="cls-12" points="240.27 388.32 236.79 388.32 238.09 385.84 241.58 385.84 240.27 388.32"/><polygon class="cls-12" points="241.64 385.32 238.16 385.32 239.46 382.84 242.95 382.84 241.64 385.32"/><polygon class="cls-12" points="243.01 382.32 239.53 382.32 240.83 379.84 244.31 379.84 243.01 382.32"/><polygon class="cls-12" points="233.54 394.32 230.05 394.32 231.36 391.84 234.84 391.84 233.54 394.32"/><polygon class="cls-12" points="234.91 391.32 231.42 391.32 232.73 388.84 236.21 388.84 234.91 391.32"/><polygon class="cls-12" points="236.27 388.32 232.79 388.32 234.09 385.84 237.58 385.84 236.27 388.32"/><polygon class="cls-12" points="237.64 385.32 234.16 385.32 235.46 382.84 238.95 382.84 237.64 385.32"/><polygon class="cls-12" points="239.01 382.32 235.53 382.32 236.83 379.84 240.31 379.84 239.01 382.32"/><polygon class="cls-12" points="229.54 394.32 226.05 394.32 227.36 391.84 230.84 391.84 229.54 394.32"/><polygon class="cls-12" points="230.91 391.32 227.42 391.32 228.73 388.84 232.21 388.84 230.91 391.32"/><polygon class="cls-12" points="232.27 388.32 228.79 388.32 230.09 385.84 233.58 385.84 232.27 388.32"/><polygon class="cls-12" points="233.64 385.32 230.16 385.32 231.46 382.84 234.95 382.84 233.64 385.32"/><polygon class="cls-12" points="235.01 382.32 231.53 382.32 232.83 379.84 236.31 379.84 235.01 382.32"/><polygon class="cls-12" points="225.54 394.32 222.05 394.32 223.36 391.84 226.84 391.84 225.54 394.32"/><polygon class="cls-12" points="226.91 391.32 223.42 391.32 224.73 388.84 228.21 388.84 226.91 391.32"/><polygon class="cls-12" points="228.27 388.32 224.79 388.32 226.09 385.84 229.58 385.84 228.27 388.32"/><polygon class="cls-12" points="229.64 385.32 226.16 385.32 227.46 382.84 230.95 382.84 229.64 385.32"/><polygon class="cls-12" points="231.01 382.32 227.53 382.32 228.83 379.84 232.31 379.84 231.01 382.32"/><polygon class="cls-12" points="221.54 394.32 218.05 394.32 219.36 391.84 222.84 391.84 221.54 394.32"/><polygon class="cls-12" points="222.91 391.32 219.42 391.32 220.73 388.84 224.21 388.84 222.91 391.32"/><polygon class="cls-12" points="224.27 388.32 220.79 388.32 222.09 385.84 225.58 385.84 224.27 388.32"/><polygon class="cls-12" points="225.64 385.32 222.16 385.32 223.46 382.84 226.95 382.84 225.64 385.32"/><polygon class="cls-12" points="227.01 382.32 223.53 382.32 224.83 379.84 228.31 379.84 227.01 382.32"/><polygon class="cls-12" points="217.54 394.32 214.05 394.32 215.36 391.84 218.84 391.84 217.54 394.32"/><polygon class="cls-12" points="218.91 391.32 215.42 391.32 216.73 388.84 220.21 388.84 218.91 391.32"/><polygon class="cls-12" points="220.27 388.32 216.79 388.32 218.09 385.84 221.58 385.84 220.27 388.32"/><polygon class="cls-12" points="221.64 385.32 218.16 385.32 219.46 382.84 222.95 382.84 221.64 385.32"/><polygon class="cls-12" points="223.01 382.32 219.53 382.32 220.83 379.84 224.31 379.84 223.01 382.32"/><polygon class="cls-12" points="213.54 394.32 210.05 394.32 211.36 391.84 214.84 391.84 213.54 394.32"/><polygon class="cls-12" points="214.91 391.32 211.42 391.32 212.73 388.84 216.21 388.84 214.91 391.32"/><polygon class="cls-12" points="216.27 388.32 212.79 388.32 214.09 385.84 217.58 385.84 216.27 388.32"/><polygon class="cls-12" points="217.64 385.32 214.16 385.32 215.46 382.84 218.95 382.84 217.64 385.32"/><polygon class="cls-12" points="219.01 382.32 215.53 382.32 216.83 379.84 220.31 379.84 219.01 382.32"/><polygon class="cls-12" points="209.54 394.32 206.05 394.32 207.36 391.84 210.84 391.84 209.54 394.32"/><polygon class="cls-12" points="210.91 391.32 207.42 391.32 208.73 388.84 212.21 388.84 210.91 391.32"/><polygon class="cls-12" points="212.27 388.32 208.79 388.32 210.09 385.84 213.58 385.84 212.27 388.32"/><polygon class="cls-12" points="213.64 385.32 210.16 385.32 211.46 382.84 214.95 382.84 213.64 385.32"/><polygon class="cls-12" points="215.01 382.32 211.53 382.32 212.83 379.84 216.31 379.84 215.01 382.32"/><polyline class="cls-12" points="205.99 394.84 225.47 394.84 224.17 397.32 204.69 397.32"/><polygon class="cls-12" points="240.17 397.32 204.69 397.32 205.99 394.84 241.47 394.84 240.17 397.32"/><polygon class="cls-12" points="202.17 397.32 192.69 397.32 193.99 394.84 203.47 394.84 202.17 397.32"/><polygon class="cls-12" points="205.54 394.32 202.05 394.32 203.36 391.84 206.84 391.84 205.54 394.32"/><polygon class="cls-12" points="206.91 391.32 203.42 391.32 204.73 388.84 208.21 388.84 206.91 391.32"/><polygon class="cls-12" points="208.27 388.32 204.79 388.32 206.09 385.84 209.58 385.84 208.27 388.32"/><polygon class="cls-12" points="209.64 385.32 206.16 385.32 207.46 382.84 210.95 382.84 209.64 385.32"/><polygon class="cls-12" points="211.01 382.32 207.53 382.32 208.83 379.84 212.31 379.84 211.01 382.32"/><polygon class="cls-12" points="201.54 394.32 198.05 394.32 199.36 391.84 202.84 391.84 201.54 394.32"/><polygon class="cls-12" points="202.91 391.32 199.42 391.32 200.73 388.84 204.21 388.84 202.91 391.32"/><polygon class="cls-12" points="204.27 388.32 200.79 388.32 202.09 385.84 205.58 385.84 204.27 388.32"/><polygon class="cls-12" points="205.64 385.32 202.16 385.32 203.46 382.84 206.95 382.84 205.64 385.32"/><polygon class="cls-12" points="207.01 382.32 203.53 382.32 204.83 379.84 208.31 379.84 207.01 382.32"/><polygon class="cls-12" points="197.54 394.32 194.05 394.32 195.36 391.84 198.84 391.84 197.54 394.32"/><polygon class="cls-12" points="198.91 391.32 195.42 391.32 196.73 388.84 200.21 388.84 198.91 391.32"/><polygon class="cls-12" points="200.27 388.32 196.79 388.32 198.09 385.84 201.58 385.84 200.27 388.32"/><polygon class="cls-12" points="201.64 385.32 198.16 385.32 199.46 382.84 202.95 382.84 201.64 385.32"/><polygon class="cls-12" points="203.01 382.32 199.53 382.32 200.83 379.84 204.31 379.84 203.01 382.32"/><circle class="cls-15" cx="285.67" cy="380.32" r="2"/><circle class="cls-15" cx="277.67" cy="380.32" r="2"/><circle class="cls-15" cx="269.67" cy="380.32" r="2"/><path class="cls-12" d="M301.67,386.62a2.1,2.1,0,0,0-2.28-1.84h-43a2.1,2.1,0,0,0-2.28,1.84l-4,9.42a2.1,2.1,0,0,0,2.28,1.84h51a2.1,2.1,0,0,0,2.28-1.84Z"/><path class="cls-4" d="M217,291.87H353a1.27,1.27,0,0,1,1.27,1.27v80.76a1.27,1.27,0,0,1-1.27,1.27H217a0,0,0,0,1,0,0V291.87A0,0,0,0,1,217,291.87Z"/><path class="cls-16" d="M202,291.87h15a0,0,0,0,1,0,0v83.29a0,0,0,0,1,0,0H202a1,1,0,0,1-1-1v-81.3A1,1,0,0,1,202,291.87Z"/><path class="cls-17" d="M209.5,302.71l2.51-6.25a.45.45,0,0,1,.41-.33.52.52,0,0,1,.4.14.43.43,0,0,1,.13.3.63.63,0,0,1,0,.23l-2.63,6.39a.71.71,0,0,1-.66.49h-.23a.71.71,0,0,1-.66-.49l-1-2.46h1Z"/><path class="cls-18" d="M207.32,299.81l-.58-1.43-.54-1.3-1.05,0a.64.64,0,0,1-.23-.06.43.43,0,0,1-.23-.23.52.52,0,0,1,0-.42.44.44,0,0,1,.46-.26h1.34a.49.49,0,0,1,.49.33l1.34,3.35Z"/><circle class="cls-19" cx="208.97" cy="361.01" r="2.62"/><circle class="cls-19" cx="208.97" cy="350.01" r="2.62"/><circle class="cls-19" cx="208.97" cy="339.01" r="2.62"/><circle class="cls-19" cx="208.97" cy="328.01" r="2.62"/><circle class="cls-19" cx="208.97" cy="317.01" r="2.62"/><circle class="cls-20" cx="309.84" cy="314.69" r="9"/><circle class="cls-20" cx="245.84" cy="314.69" r="9"/><circle class="cls-20" cx="277.84" cy="314.69" r="9"/><path class="cls-21" d="M277.84,305.69a9,9,0,0,1,0,18"/><path class="cls-22" d="M245.84,305.69a9,9,0,1,1-9,9"/><path class="cls-23" d="M309.84,305.69a9,9,0,1,1-9,9"/><rect class="cls-24" x="228" y="367.03" width="113" height="2" rx="1" ry="1"/><rect class="cls-24" x="228" y="362.03" width="113" height="2" rx="1" ry="1"/><rect class="cls-25" x="329.25" y="341.97" width="12" height="2" rx="1" ry="1"/><rect class="cls-26" x="329.25" y="345.97" width="12" height="2" rx="1" ry="1"/><rect class="cls-27" x="329.25" y="349.97" width="12" height="2" rx="1" ry="1"/><rect class="cls-28" x="329.25" y="353.97" width="12" height="2" rx="1" ry="1"/><rect class="cls-29" x="312.25" y="345.97" width="12" height="2" rx="1" ry="1"/><rect class="cls-30" x="312.25" y="349.97" width="12" height="2" rx="1" ry="1"/><rect class="cls-31" x="312.25" y="353.97" width="12" height="2" rx="1" ry="1"/><rect class="cls-7" x="295.25" y="337.97" width="12" height="2" rx="1" ry="1"/><rect class="cls-32" x="295.25" y="341.97" width="12" height="2" rx="1" ry="1"/><rect class="cls-33" x="295.25" y="345.97" width="12" height="2" rx="1" ry="1"/><rect class="cls-34" x="295.25" y="349.97" width="12" height="2" rx="1" ry="1"/><rect class="cls-35" x="295.25" y="353.97" width="12" height="2" rx="1" ry="1"/><rect class="cls-26" x="278.25" y="345.97" width="12" height="2" rx="1" ry="1"/><rect class="cls-27" x="278.25" y="349.97" width="12" height="2" rx="1" ry="1"/><rect class="cls-28" x="278.25" y="353.97" width="12" height="2" rx="1" ry="1"/><rect class="cls-16" x="261.25" y="337.97" width="12" height="2" rx="1" ry="1"/><rect class="cls-36" x="261.25" y="341.97" width="12" height="2" rx="1" ry="1"/><rect class="cls-29" x="261.25" y="345.97" width="12" height="2" rx="1" ry="1"/><rect class="cls-30" x="261.25" y="349.97" width="12" height="2" rx="1" ry="1"/><rect class="cls-31" x="261.25" y="353.97" width="12" height="2" rx="1" ry="1"/><rect class="cls-32" x="244.25" y="341.97" width="12" height="2" rx="1" ry="1"/><rect class="cls-33" x="244.25" y="345.97" width="12" height="2" rx="1" ry="1"/><rect class="cls-34" x="244.25" y="349.97" width="12" height="2" rx="1" ry="1"/><rect class="cls-35" x="244.25" y="353.97" width="12" height="2" rx="1" ry="1"/><rect class="cls-5" x="227.25" y="337.97" width="12" height="2" rx="1" ry="1"/><rect class="cls-25" x="227.25" y="341.97" width="12" height="2" rx="1" ry="1"/><rect class="cls-26" x="227.25" y="345.97" width="12" height="2" rx="1" ry="1"/><rect class="cls-27" x="227.25" y="349.97" width="12" height="2" rx="1" ry="1"/><rect class="cls-28" x="227.25" y="353.97" width="12" height="2" rx="1" ry="1"/><circle class="cls-6" cx="337.13" cy="323.28" r="1.87"/><circle class="cls-6" cx="337.13" cy="316.28" r="1.87"/><circle class="cls-6" cx="337.13" cy="309.28" r="1.87"/><path class="cls-3" d="M367.19,402c1.44,0,2.62-1.55,2.62-3.43L362,381.47c-.71-1.94-1.45-3-2.62-3.43H358V291.14a3.12,3.12,0,0,0-3.11-3.11H277V402h90.19Z"/></g></g></svg>