<?xml version="1.0" encoding="utf-8"?>
<!-- Generator: Adobe Illustrator 22.0.1, SVG Export Plug-In . SVG Version: 6.00 Build 0)  -->
<svg version="1.1" id="Слой_1" xmlns="http://www.w3.org/2000/svg" xmlns:xlink="http://www.w3.org/1999/xlink" x="0px" y="0px"
	 viewBox="0 0 398.9 400" style="enable-background:new 0 0 398.9 400;" xml:space="preserve">
<style type="text/css">
	.st0{fill:#192023;}
	.st1{display:none;fill:#4A86BF;}
	.st2{display:none;fill:#4790CF;}
	.st3{fill:#EAB981;}
	.st4{fill:#D4A779;}
	.st5{fill:#EFF2FA;}
	.st6{fill:#C3D3D6;}
	.st7{fill:#D7E2E5;}
	.st8{fill:#F0C087;}
	.st9{fill:#2E4149;}
	.st10{fill:#2C3A43;}
	.st11{fill:#F4CF9C;}
	.st12{fill:#E3BD8D;}
	.st13{fill:#515262;}
	.st14{fill:#1D252A;}
	.st15{fill:#C8D0D3;}
	.st16{fill:#8A9699;}
	.st17{fill:#684A4A;}
	.st18{fill:#795858;}
	.st19{display:none;}
	.st20{display:inline;fill:#2E4149;}
	.st21{display:inline;fill:#2C3A43;}
	.st22{fill:#D8E3E6;}
	.st23{fill:#23343A;}
	.st24{fill:#1C292F;}
	.st25{fill:#4790CF;}
	.st26{fill:#4A86BF;}
	.st27{fill:#00B8A1;}
	.st28{fill:#F7333A;}
	.st29{fill:#FDA23E;}
	.st30{fill:#009082;}
	.st31{fill:#FFAD4A;}
	.st32{fill:#8B979A;}
	.st33{fill:#C8D1D4;}
	.st34{fill:none;}
</style>
<g id="Слой_1_2_">
	<path class="st0" d="M324.5,399.7H72.6c-14.3,0-26-11.6-26-26V328h303.8v45.7C350.5,388,338.8,399.7,324.5,399.7z"/>
	<g id="Слой_1_1_">
		<circle class="st1" cx="667.9" cy="224.7" r="58.2"/>
		<path class="st2" d="M667.9,282.9c-32.1,0-58.2-26-58.2-58.2s26-58.2,58.2-58.2"/>
		<polygon class="st3" points="833.5,1042.4 833.5,980.6 674.6,980.6 674.6,1042.4 754,1113 		"/>
		<polyline class="st4" points="754,1107.4 833.5,1036.8 833.5,975 754,975 		"/>
		<path class="st5" d="M956.3,1071.3l-109.2-25.7c-1.7-0.4-3.2-1-4.6-1.8l-88.5,51.6l-85-54.1c-2.2,2.1-4.9,3.6-8,4.3l-109.2,25.7
			c-16,3.8-27.2,18-27.2,34.4v69.1c0,9.8,7.9,17.7,17.7,17.7H966c9.8,0,17.7-7.9,17.7-17.7v-69.1
			C983.5,1089.3,972.3,1075,956.3,1071.3z"/>
		<path class="st6" d="M754.7,1192.4h211.2c9.8,0,17.7-7.9,17.7-17.7v-69.1c0-16.4-11.3-30.6-27.2-34.4l-109.2-25.7
			c-1.7-0.4-3.2-1-4.6-1.8l-88.5,51.6"/>
		<path class="st7" d="M754,1095.3l-85-54.1c-2.2,2.1-4.9,3.6-8,4.3l-109.2,25.7c-16,3.8-27.2,18-27.2,34.4v69.1
			c0,9.8,7.9,17.7,17.7,17.7h212.5"/>
		<path class="st8" d="M639.3,777.6l7.7,169.2c0.7,15.8,8.5,30.5,21.1,40l36.5,27.4c9.2,6.9,20.3,10.6,31.8,10.6h35.3
			c11.5,0,22.6-3.7,31.8-10.6l36.5-27.4c12.7-9.5,20.4-24.2,21.1-40l7.7-169.2C868.8,777.6,639.3,777.6,639.3,777.6z"/>
		<polygon class="st9" points="776.1,1192.4 732,1192.4 737.5,1113 770.6,1113 		"/>
		<polyline class="st10" points="754,1113 770.6,1113 776.1,1192.4 754,1192.4 		"/>
		<path class="st11" d="M639.9,777.6l7.7,169.2c0.7,15.8,8.5,30.5,21.1,40l36.5,27.4c9.2,6.9,20.3,10.6,31.8,10.6h35.3
			c11.5,0,22.6-3.7,31.8-10.6l36.5-27.4c12.7-9.5,20.4-24.2,21.1-40l7.7-169.2C869.4,777.6,639.9,777.6,639.9,777.6z"/>
		<path class="st12" d="M754.7,1024.7h17.7c11.5,0,22.6-3.7,31.8-10.6l36.5-27.4c12.7-9.5,20.4-24.2,21.1-40l7.7-169.2
			c0,0-57.4,0-114.8,0"/>
		<path class="st13" d="M776.1,1095.3H732v16.6c0,5.5,4.4,9.9,9.9,9.9h24.4c5.5,0,9.9-4.4,9.9-9.9L776.1,1095.3L776.1,1095.3z"/>
		<path class="st14" d="M754,1095.3h-22.1v16.6c0,5.5,4.4,9.9,9.9,9.9H754"/>
		<path class="st0" d="M754,1121.8h12.2c5.5,0,9.9-4.4,9.9-9.9v-16.6l0,0H754"/>
		<g>
			<path class="st15" d="M673.3,1022.7l80.7,72.6c0,0-22.6,11.4-50.5,34.4c-5.8,4.7-14.5,2.8-17.5-4l-37.9-83.4l12-18
				C663.1,1019.9,669.3,1019.1,673.3,1022.7z"/>
			<path class="st16" d="M834.7,1022.7l-80.7,72.6c0,0,22.6,11.4,50.5,34.4c5.8,4.7,14.5,2.8,17.5-4l37.9-83.4l-12-18
				C845,1019.9,838.7,1019.1,834.7,1022.7z"/>
		</g>
		<path class="st0" d="M807.5,719.1l8.3,58.5c37.8,7.6,43.2,66.8,44,83.8c0.1,3.1,1.1,6,2.8,8.6l14.4,22.4c0,0-4.9-37,17.7-61.8
			C894.7,830.5,902.4,683.8,807.5,719.1z"/>
		<path class="st12" d="M885.9,888.6l-10,39.9c-1.2,4.7-5.4,8-10.3,8l0,0c-5.4,0-9.9-4-10.5-9.3l-5.1-40.8
			c-1.4-10.9,7.1-20.6,18.1-20.6l0,0C880,865.8,888.8,877,885.9,888.6z"/>
		<path class="st14" d="M647.7,703.3l13.1,8.9c-59,43.6-48,118.3-48,118.3c17.7,17.7,17.7,61.8,17.7,61.8l17.7-17.7
			c0,0-6.8-51,26.5-70.6c30.9-18.2,57.9-8.8,85.5-8.8c73.9,0,94.6-27.9,91-61.8c-1.9-17.6-28.7-54.1-97.1-53
			C726.4,680.9,674.6,689.3,647.7,703.3z"/>
		<path class="st14" d="M647.7,703.3l13.1,8.9c-59,43.6-48,118.3-48,118.3c17.7,17.7,17.7,61.8,17.7,61.8l17.7-17.7
			c0,0-6.8-51,26.5-70.6c28.9-17,54.4-9.9,80.1-8.9"/>
		<path class="st0" d="M754.7,795.1c1.8,0.1,3.6,0.1,5.4,0.1c73.9,0,94.6-27.9,91-61.8c-1.9-17.6-28.7-54.1-97.1-53"/>
		<path class="st11" d="M622.2,888.6l10,39.9c1.2,4.7,5.4,8,10.3,8l0,0c5.4,0,9.9-4,10.5-9.3l5.1-40.8c1.4-10.9-7.1-20.6-18.1-20.6
			l0,0C628,865.8,619.3,877,622.2,888.6z"/>
		<path class="st16" d="M868.8,1174.8H807c-4.9,0-8.8,4-8.8,8.8v8.8h79.4v-8.8C877.6,1178.7,873.7,1174.8,868.8,1174.8z"/>
		<polygon class="st3" points="244.6,209.6 244.6,173.9 152.4,173.9 152.4,209.6 198.4,250.5 		"/>
		<polyline class="st4" points="198.9,247.3 245,206.5 245,170.6 198.9,170.6 		"/>
		<path class="st5" d="M315.6,226.4l-63.2-14.9c-0.9-0.2-1.7-0.6-2.7-0.9l-51.5,29.8L148.9,209c-1.3,1.3-2.9,2.1-4.6,2.5l-63.2,14.7
			c-9.3,2.1-15.8,10.4-15.8,19.9v40c0,5.6,4.5,10.3,10.3,10.3H321c5.6,0,10.3-4.5,10.3-10.3v-40
			C331.5,236.8,324.9,228.7,315.6,226.4z"/>
		<path class="st0" d="M198.9,296.5h122.4c5.6,0,10.3-4.5,10.3-10.3v-40c0-9.5-6.5-17.7-15.8-19.9l-63.2-14.9
			c-0.9-0.2-1.7-0.6-2.7-0.9l-51.5,29.8"/>
		<path class="st14" d="M198.4,240.4L149,209.1c-1.3,1.3-2.9,2.1-4.6,2.5l-63.2,14.7c-9.3,2.1-15.8,10.4-15.8,19.9v40
			c0,5.6,4.5,10.3,10.3,10.3h123.1"/>
		<path class="st8" d="M132,56.3l4.5,98c0.4,9.1,4.9,17.7,12.3,23l21.1,16c5.2,4,11.8,6.1,18.4,6.1h20.5c6.6,0,13.2-2.1,18.4-6.1
			l21.1-16c7.3-5.4,11.8-14,12.3-23l4.7-98C265.3,56.3,132,56.3,132,56.3z"/>
		<path class="st11" d="M132.5,56.3l4.5,98c0.4,9.1,4.9,17.7,12.3,23l21.1,16c5.2,4,11.8,6.1,18.4,6.1h20.4c6.6,0,13.2-2.1,18.4-6.1
			l21.1-16c7.3-5.4,11.8-14,12.3-23l4.5-98C265.5,56.3,132.5,56.3,132.5,56.3z"/>
		<path class="st12" d="M198.9,199.4h10.3c6.6,0,13.2-2.1,18.4-6.1l21.1-16c7.3-5.4,11.8-14,12.3-23l4.5-98c0,0-33.2,0-66.4,0"/>
		<path class="st17" d="M229.6,22.5l4.7,33.9c21.9,4.4,25.1,38.7,25.4,48.5c0.1,1.7,0.6,3.6,1.6,5l8.4,12.9c0,0-2.9-21.4,10.3-35.7
			C280,87,284.4,2.1,229.6,22.5z"/>
		<path class="st12" d="M274.9,120.6l-5.8,23c-0.6,2.8-3.1,4.6-6,4.6l0,0c-3.1,0-5.8-2.3-6.1-5.3l-3-23.5
			c-0.7-6.2,4.2-11.9,10.5-11.9l0,0C271.6,107.4,276.5,114,274.9,120.6z"/>
		<path class="st18" d="M137,13.3l7.6,5.1C110.5,43.6,116.8,87,116.8,87C127,97.3,127,122.7,127,122.7l10.3-10.3
			c0,0-3.9-29.6,15.3-40.8c17.9-10.5,33.7-5.1,49.5-5.1c42.8,0,54.7-16.2,52.6-35.7c-1-10.1-16.8-31.2-56.2-30.7
			C182.5,0.4,152.4,5.1,137,13.3z"/>
		<path class="st18" d="M137,13.3l7.6,5.1C110.5,43.6,116.8,87,116.8,87C127,97.3,127,122.7,127,122.7l10.3-10.3
			c0,0-3.9-29.6,15.3-40.8c16.8-9.8,31.5-5.8,46.3-5.1"/>
		<path class="st17" d="M198.9,66.4c0.9,0,2.1,0.1,3.1,0.1c42.8,0,54.7-16.2,52.6-35.7c-1-10.1-16.8-31.3-56.2-30.8"/>
		<path class="st11" d="M122.1,120.6l5.8,23c0.6,2.8,3.1,4.6,6,4.6l0,0c3.1,0,5.8-2.3,6.1-5.3l3-23.5c0.7-6.2-4.2-11.9-10.5-11.9
			l0,0C125.5,107.4,120.5,114,122.1,120.6z"/>
		<path class="st16" d="M265.1,286.3h-35.7c-2.9,0-5.1,2.3-5.1,5.1v5.1h45.9v-5.1C270.2,288.6,267.7,286.3,265.1,286.3z"/>
		<g class="st19">
			<polygon class="st20" points="211.7,401 184.8,401 188.1,264.5 208.3,264.5 			"/>
			<polyline class="st21" points="198.2,264.5 208.3,264.5 211.7,401 198.2,401 			"/>
		</g>
		<path class="st0" d="M211.4,240.4h-25.6v9.6c0,3.1,2.5,5.8,5.8,5.8h14.1c3.1,0,5.8-2.5,5.8-5.8v-9.6H211.4z"/>
		<g>
			<path class="st14" d="M198.4,240.4h-12.8v9.6c0,3.1,2.5,5.8,5.8,5.8h7.1"/>
		</g>
		<g>
			<path class="st15" d="M151.8,198.3l46.8,41.9c0,0-13.2,6.5-29.3,19.9c-3.5,2.8-8.4,1.6-10.1-2.3l-22-48.2l6.9-10.4
				C145.8,196.7,149.5,196.1,151.8,198.3z"/>
			<path class="st16" d="M245.3,198.3l-46.8,41.9c0,0,13.2,6.5,29.3,19.9c3.5,2.8,8.4,1.6,10.1-2.3l22.1-48.2l-6.9-10.4
				C251.2,196.7,247.6,196.1,245.3,198.3z"/>
		</g>
	</g>
	<g id="Слой_2_1_">
	</g>
	<path class="st22" d="M-78.7,1241.6L-78.7,1241.6c-0.6-1.3-0.1-2.9,1.2-3.6l85.1-42.5c1.3-0.6,2.9-0.1,3.6,1.2l0,0
		c0.6,1.3,0.1,2.9-1.2,3.6l-85.1,42.2C-76.3,1243.2-77.9,1242.9-78.7,1241.6L-78.7,1241.6z"/>
	<path class="st22" d="M-71.6,1256.4L-71.6,1256.4c-0.6-1.3-0.1-2.9,1.2-3.6l85.1-42.2c1.3-0.6,2.9-0.1,3.6,1.2l0,0
		c0.6,1.3,0.1,2.9-1.2,3.6l-85.1,42.2C-69.3,1258.1-70.8,1257.6-71.6,1256.4z"/>
	<path class="st22" d="M-63.3,1270.7L-63.3,1270.7c-0.6-1.3-0.1-2.9,1.2-3.6l85.1-42.2c1.3-0.6,2.9-0.1,3.6,1.2l0,0
		c0.6,1.3,0.1,2.9-1.2,3.6l-85.1,42.2C-61,1272.4-62.5,1271.9-63.3,1270.7z"/>
	<g>
		<path class="st11" d="M116.4,394.3h-4.6c-1.7,0-3.2-1.5-3.2-3.2v-13.9c0-1.7,1.5-3.2,3.2-3.2h4.6c1.7,0,3.2,1.5,3.2,3.2v13.9
			C119.8,392.7,118.4,394.3,116.4,394.3z"/>
		<path class="st11" d="M127.7,391.7h-4.6c-1.7,0-3.2-1.5-3.2-3.2v-13.9c0-1.7,1.5-3.2,3.2-3.2h4.6c1.7,0,3.2,1.5,3.2,3.2v13.9
			C130.8,390.3,129.4,391.7,127.7,391.7z"/>
		<path class="st11" d="M138.6,394.3H134c-1.7,0-3.2-1.5-3.2-3.2v-13.9c0-1.7,1.5-3.2,3.2-3.2h4.6c1.7,0,3.2,1.5,3.2,3.2v13.9
			C142,392.7,140.5,394.3,138.6,394.3z"/>
		<path class="st11" d="M149.7,394.3h-4.6c-1.7,0-3.2-1.5-3.2-3.2v-13.9c0-1.7,1.5-3.2,3.2-3.2h4.6c1.7,0,3.2,1.5,3.2,3.2v13.9
			C153,392.7,151.5,394.3,149.7,394.3z"/>
		<path class="st11" d="M155,394.9l-3.4-3.1c-1.4-1.2-1.5-3.2-0.4-4.5l5.8-6.8c1.2-1.4,3.2-1.5,4.5-0.4l3.6,3
			c1.4,1.2,1.5,3.2,0.4,4.5l-5.8,6.8C158.4,395.9,156.3,396,155,394.9z"/>
		<path class="st12" d="M280.8,393h4.6c1.7,0,3.2-1.5,3.2-3.2V376c0-1.7-1.5-3.2-3.2-3.2h-4.6c-1.7,0-3.2,1.5-3.2,3.2v13.8
			C277.5,391.5,279.1,393,280.8,393z"/>
		<path class="st12" d="M269.8,394.3h4.6c1.7,0,3.2-1.5,3.2-3.2v-13.9c0-1.7-1.5-3.2-3.2-3.2h-4.6c-1.7,0-3.2,1.5-3.2,3.2v13.9
			C266.5,392.7,267.9,394.3,269.8,394.3z"/>
		<path class="st12" d="M258.6,394.3h4.6c1.7,0,3.2-1.5,3.2-3.2v-13.9c0-1.7-1.5-3.2-3.2-3.2h-4.6c-1.7,0-3.2,1.5-3.2,3.2v13.9
			C255.5,392.7,256.9,394.3,258.6,394.3z"/>
		<path class="st12" d="M247.6,391.7h4.6c1.7,0,3.2-1.5,3.2-3.2v-13.9c0-1.7-1.5-3.2-3.2-3.2h-4.6c-1.7,0-3.2,1.5-3.2,3.2v13.9
			C244.4,390.3,245.8,391.7,247.6,391.7z"/>
		<path class="st12" d="M242.3,394.9l3.6-3c1.4-1.2,1.5-3.2,0.4-4.5l-5.8-6.8c-1.2-1.4-3.2-1.5-4.5-0.4l-3.6,3
			c-1.4,1.2-1.5,3.2-0.4,4.5l5.8,6.8C238.9,395.9,240.9,396,242.3,394.9z"/>
		<rect x="246.6" y="377.9" class="st12" width="39.6" height="9.5"/>
	</g>
	<g>
		<g>
			<g>
				<path class="st23" d="M-467.9,167.4v42.7c-4.2,4.2-9,1.6-9-2.4v-31.4h-98.8V210c-4.2,4.2-9,1.6-9-2.4v-40.3L-467.9,167.4
					L-467.9,167.4z"/>
				<path class="st23" d="M-521.7,154v53.7c0,2.5-2,4.5-4.5,4.5s-4.5-2-4.5-4.5V154c0-2.5,2-4.5,4.5-4.5
					C-523.6,149.5-521.7,151.4-521.7,154z"/>
			</g>
			<g>
				<path class="st24" d="M-467.9,167.4v42.7c-4.2,4.2-9,1.6-9-2.4v-31.4h-49.2v-9L-467.9,167.4L-467.9,167.4z"/>
				<path class="st24" d="M-521.7,154v53.7c0,2.5-2,4.5-4.5,4.5v-62.7C-523.6,149.5-521.7,151.4-521.7,154z"/>
			</g>
			<g>
				<path class="st25" d="M-560.8,230.4h-38.8c-1.7,0-3-1.3-3-3v-21.2c0-1.7,1.3-3,3-3h38.8c1.7,0,3,1.3,3,3v21.2
					C-557.8,229.1-559.1,230.4-560.8,230.4z"/>
				<path class="st25" d="M-506.8,203.2h-38.7c-1.7,0-3,1.3-3,3v21.1c0,1.7,1.3,3,3,3h38.8c1.7,0,3-1.3,3-3v-21.1
					C-503.7,204.6-505.1,203.2-506.8,203.2z"/>
			</g>
			<g>
				<path class="st25" d="M-453,230.4h-38.5c-1.8,0-3.3-1.5-3.3-3.3v-20.6c0-1.8,1.5-3.3,3.3-3.3h38.5c1.8,0,3.3,1.5,3.3,3.3v20.6
					C-449.7,228.9-451.2,230.4-453,230.4z"/>
				<path class="st26" d="M-503.7,207.7v18.2c0,2.5-2,4.5-4.5,4.5h-17.9v-27.2h17.9C-505.7,203.2-503.7,205.2-503.7,207.7z"/>
				<path class="st26" d="M-449.9,207.7v18.2c0,2.5-2,4.5-4.5,4.5h-17.9v-27.2h17.9C-451.8,203.2-449.9,205.2-449.9,207.7z"/>
				<path class="st26" d="M-557.8,206.3v21c0,1.7-1.4,3.1-3.1,3.1h-19.3v-27.2h19.3C-559.2,203.2-557.8,204.6-557.8,206.3z"/>
			</g>
		</g>
		<path class="st27" d="M-461.6,155.3h-138.5c-1.4,0-2.5-1.1-2.5-2.5V48.4h152.9v94.9C-449.7,149.9-455,155.3-461.6,155.3z"/>
		<path class="st23" d="M-602.6,48.9V33.6c0-1.4,1.1-2.5,2.5-2.5h147.9c1.4,0,2.5,1.1,2.5,2.5V49"/>
		<g>
			<circle class="st28" cx="-591.2" cy="40.9" r="2.9"/>
			<circle class="st29" cx="-581.8" cy="40.9" r="2.9"/>
			<circle class="st30" cx="-572.5" cy="40.9" r="2.9"/>
		</g>
		<path class="st30" d="M-449.7,48.4h-76.4v106.8h73.9c1.4,0,2.6-1.2,2.6-2.6L-449.7,48.4L-449.7,48.4z"/>
		<path class="st24" d="M-449.7,49V33.7c0-1.4-1.2-2.6-2.6-2.6h-73.8V49"/>
	</g>
	<rect x="103.4" y="394.2" class="st31" width="191.1" height="5.3"/>
	<g>
		<polygon class="st32" points="226.9,342.5 233.6,396.1 164.7,396.1 171.4,342.5 		"/>
		<path class="st22" d="M352.5,347.5H44.1c-4.6,0-8.4-3.8-8.4-8.4V159.8c0-5.7,4.2-10.3,9.1-10.3h307.6c5,0,9,4.6,9,10.3v177.8
			c0.1,5.3-3.7,10-8.4,10.1C352.8,347.5,352.7,347.5,352.5,347.5z"/>
		<path class="st22" d="M199.2,347.5H44.1c-4.6,0-8.4-3.8-8.4-8.4V159.8c0-5.7,4.2-10.3,9.1-10.3h153.6"/>
		<path class="st33" d="M198.4,149.5h154c5,0,9,4.6,9,10.3v177.8c0.1,5.3-3.7,10-8.4,10.1c-0.2-0.1-0.3-0.1-0.5-0.1H199.2"/>
		<path class="st10" d="M257.4,399.8H140.1c-2.5-0.1-4.4-2.4-4.2-4.9c0.1-2.3,1.9-4,4.2-4.2h117.3c2.4-0.1,4.4,1.7,4.5,4.2
			c0,0.1,0,0.2,0,0.2C261.9,397.8,260,399.8,257.4,399.8L257.4,399.8z"/>
		<path class="st9" d="M199,399.8h-58.7c-2.5-0.1-4.4-2.4-4.2-4.9c0.1-2.3,1.9-4,4.2-4.2h58.8"/>
		<path class="st24" d="M199,248.4"/>
	</g>
	<line class="st34" x1="226.4" y1="361.2" x2="270.2" y2="347.6"/>
	<rect x="115.9" y="380.7" class="st11" width="36.4" height="8.8"/>
	<rect x="120.8" y="391.7" class="st31" width="8.7" height="2.5"/>
	<rect x="279.3" y="393" class="st31" width="8.7" height="2.5"/>
</g>
<g id="Слой_2_4_">
</g>
<g id="Слой_2_5_">
	<g id="Слой_1-2_3_">
		<g id="Слой_2-2_3_">
			<path class="st26" d="M239.2,276c0-0.5-0.1-1-0.5-1.4c-2.4-2.8-4.7-5.7-6.8-8.8c1-1.9,1.8-3.8,2.4-5.9l11.7-1.8
				c0.5-0.1,0.9-0.4,1.3-0.8c0.4-0.4,0.5-0.9,0.5-1.4v-14c0-0.5-0.1-1-0.5-1.4c-0.3-0.4-0.8-0.6-1.3-0.8l-11.5-1.8
				c-0.8-2.2-1.7-4.2-2.6-6.3c0.8-1.1,1.8-2.6,3.4-4.6c1.7-2,2.6-3.3,3.1-4.1c0.4-0.4,0.5-0.9,0.5-1.4c0-1.3-3.7-5.5-11-12.1
				c-0.5-0.4-1-0.5-1.7-0.5c-0.5,0-1,0.1-1.4,0.5l-8.9,6.8c-1.8-1-3.7-1.8-5.6-2.4l-1.8-11.7c0-0.5-0.4-1-0.8-1.3
				c-0.4-0.4-0.9-0.5-1.4-0.5h-14c-1.1-0.1-2,0.8-2.2,1.8c-0.9,3.8-1.5,7.8-1.8,11.7c-2,0.6-4,1.4-5.9,2.4l-8.8-6.8
				c-0.5-0.4-1-0.5-1.7-0.5c-0.9,0-2.9,1.4-6,4.6c-2.3,2-4.3,4.3-6.3,6.8c-0.4,0.4-0.5,0.9-0.5,1.4s0.3,1,0.5,1.4
				c2.4,2.8,4.7,5.7,6.8,8.8c-1,1.9-1.8,3.8-2.4,5.9l-12.1,1.7c-0.5,0.1-0.9,0.4-1.3,0.8s-0.5,0.9-0.5,1.4v14c0,0.5,0.1,1,0.5,1.4
				c0.3,0.4,0.8,0.6,1.3,0.8l11.5,1.8c0.6,2.2,1.5,4.3,2.8,6.3c-1.1,1.7-2.3,3.2-3.7,4.6c-1.7,2-2.6,3.3-3.1,4.1
				c-0.4,0.4-0.5,0.9-0.5,1.4c0,1.3,3.7,5.5,11,12.1c0.5,0.4,1,0.5,1.7,0.5c0.5,0,1-0.1,1.4-0.5l8.9-6.8c1.8,1,3.7,1.8,5.6,2.4
				l1.8,11.7c0,0.5,0.4,1,0.8,1.3c0.4,0.4,0.9,0.5,1.4,0.5h14c1.1,0.1,2-0.8,2.2-1.8c0.9-3.8,1.5-7.8,1.8-11.7c2-0.6,4-1.4,5.9-2.4
				l8.8,6.8c0.5,0.4,1,0.5,1.7,0.5c0.9,0,2.9-1.4,6-4.6c2.2-2.2,4.3-4.3,6.3-6.8C239.1,277,239.2,276.5,239.2,276z M212.8,262.3
				c-3.6,3.7-8.6,5.7-13.8,5.6c-10.7,0-19.4-8.7-19.4-19.4c0,0,0,0,0-0.1c0-10.7,8.7-19.4,19.4-19.4c0,0,0,0,0.1,0
				c10.7,0,19.4,8.7,19.4,19.4c0,0,0,0,0,0.1C218.6,253.8,216.6,258.8,212.8,262.3z"/>
			<path class="st25" d="M199.1,229.3v-29.4H192c-1.1,0-2,0.8-2.2,1.8c-0.9,3.8-1.5,7.8-1.8,11.7c-2,0.6-4,1.4-5.9,2.4l-8.8-6.8
				c-0.5-0.4-1-0.5-1.7-0.5c-0.9,0-2.9,1.4-6,4.6c-2.3,2-4.3,4.3-6.3,6.8c-0.4,0.4-0.5,0.9-0.5,1.4s0.3,1,0.5,1.4
				c2.9,3.4,5.1,6.4,6.8,8.8c-1,1.9-1.8,3.8-2.4,5.9l-11.7,1.8c-0.5,0.1-0.9,0.4-1.3,0.8c-0.4,0.4-0.5,0.9-0.5,1.4v14
				c0,0.5,0.1,1,0.5,1.4c0.3,0.4,0.8,0.6,1.3,0.8l11.5,1.8c0.6,2.2,1.5,4.3,2.8,6.3c-1.1,1.7-2.3,3.2-3.7,4.6
				c-1.7,2-2.6,3.3-3.1,4.1c-0.4,0.4-0.5,0.9-0.5,1.4c0,1.3,3.7,5.5,11,12.1c0.5,0.4,1,0.5,1.7,0.5c0.5,0,1-0.1,1.4-0.5l8.9-6.8
				c1.8,1,3.7,1.8,5.6,2.4l1.8,11.7c0,0.5,0.4,1,0.8,1.3c0.4,0.4,0.9,0.5,1.4,0.5h7.1v-29.4c-10.7,0-19.4-8.7-19.4-19.4
				c0,0,0,0,0-0.1c-0.1-5.1,1.9-10.1,5.6-13.8C188.9,231.1,193.9,229.2,199.1,229.3z"/>
		</g>
	</g>
</g>
</svg>
