<svg xmlns="http://www.w3.org/2000/svg" viewBox="0 0 399.28 406.61"><defs><style>.cls-1{fill:#1d252a;}.cls-2{fill:#192023;}.cls-3{fill:#eab981;}.cls-4{fill:#d4a779;}.cls-5{fill:#eff2fa;}.cls-6{fill:#c3d3d6;}.cls-7{fill:#c8d0d3;}.cls-8{fill:#f0c087;}.cls-9{fill:#f4cf9c;}.cls-10{fill:#e3bd8d;}.cls-11{fill:#684a4a;}.cls-12{fill:#795858;}.cls-13{fill:#2e4149;}.cls-14{fill:#2c3a43;}.cls-15{fill:#c8d1d4;}.cls-16{fill:#8a9699;}.cls-17{fill:#8b979a;}.cls-18{fill:#23343a;}.cls-19{fill:#fda23e;}.cls-20{fill:#f7333a;}.cls-21{fill:#009082;}.cls-22{fill:#7d8789;}.cls-23{fill:#1c292f;}.cls-24{fill:none;}.cls-25{fill:#d8e3e6;}.cls-26{fill:#4a86bf;}.cls-27{fill:#4790cf;}.cls-28{fill:#ffad4a;}</style></defs><title>admins_and_it_professionals</title><g id="Слой_2" data-name="Слой 2"><g id="Слой_1-2" data-name="Слой 1"><path class="cls-1" d="M238.7,396.81H163.6a7.38,7.38,0,0,1-7.4-7.4v-29.6a7.38,7.38,0,0,1,7.4-7.4h75.1a7.38,7.38,0,0,1,7.4,7.4v29.6A7.51,7.51,0,0,1,238.7,396.81Z"/><path class="cls-2" d="M319.3,396.81H244.2a7.38,7.38,0,0,1-7.4-7.4v-29.6a7.38,7.38,0,0,1,7.4-7.4h75.1a7.38,7.38,0,0,1,7.4,7.4v29.6A7.38,7.38,0,0,1,319.3,396.81Z"/><path class="cls-1" d="M107.4,278h0a9.74,9.74,0,0,1-6.6-12.2l7.9-26.7c1.3-4.3,8.4-12.5,13-12.1a1.38,1.38,0,0,1,1.1.6l6.7,8.3a1.74,1.74,0,0,1,.3,1.4l-10.1,34.1A10,10,0,0,1,107.4,278Z"/><g id="Слой_1-3" data-name="Слой 1"><g id="Слой_1-4" data-name="Слой 1"><polygon class="cls-3" points="288.3 207.91 288.3 172.51 196.8 172.51 196.8 207.91 242.5 248.51 288.3 207.91"/><polyline class="cls-4" points="243 245.31 288.7 204.81 288.7 169.21 243 169.21"/><path class="cls-5" d="M358.7,224.61,296,209.81c-.9-.2-1.7-.6-2.7-.9l-51.1,29.6-48.9-31.1a9.49,9.49,0,0,1-4.6,2.5L126,224.51a20.21,20.21,0,0,0-15.7,19.7v39.7a10.18,10.18,0,0,0,10.2,10.2H363.9a10.18,10.18,0,0,0,10.2-10.2v-39.7C374.5,234.91,368,226.91,358.7,224.61Z"/><path class="cls-6" d="M243,294.11H364.4a10.18,10.18,0,0,0,10.2-10.2v-39.7a20.11,20.11,0,0,0-15.7-19.7l-62.7-14.8c-.9-.2-1.7-.6-2.7-.9l-51.1,29.6"/><path class="cls-7" d="M242.4,238.91l-49-31a9.49,9.49,0,0,1-4.6,2.5L126.1,225a20.21,20.21,0,0,0-15.7,19.7v39.7a10.18,10.18,0,0,0,10.2,10.2H242.7"/><path class="cls-1" d="M212.8,220.91l-20.6-13a9.49,9.49,0,0,1-4.6,2.5L125,224.91c-9.2,2.1-17.4,8.6-16.9,20.2l1.2,39.2a10.18,10.18,0,0,0,10.2,10.2h33.9"/><path class="cls-2" d="M332.8,294.61h33.9a10.18,10.18,0,0,0,10.2-10.2v-39.7A20,20,0,0,0,361.2,225l-62.7-14.6a9.49,9.49,0,0,1-4.6-2.5l-20.6,13"/><path class="cls-8" d="M176.6,55.91l4.5,97.2a29.77,29.77,0,0,0,12.2,22.8l20.9,15.9a30.07,30.07,0,0,0,18.3,6.1h20.3a30.28,30.28,0,0,0,18.3-6.1l20.9-15.9a30.91,30.91,0,0,0,12.2-22.8l4.7-97.2Z"/><path class="cls-9" d="M177.1,55.91l4.5,97.2a29.77,29.77,0,0,0,12.2,22.8l20.9,15.9a30.07,30.07,0,0,0,18.3,6.1h20.2a30.28,30.28,0,0,0,18.3-6.1l20.9-15.9a30.91,30.91,0,0,0,12.2-22.8l4.5-97.2Z"/><path class="cls-10" d="M243,197.81h10.2a30.28,30.28,0,0,0,18.3-6.1l20.9-15.9A30.91,30.91,0,0,0,304.6,153l4.5-97.2H243.2"/><path class="cls-11" d="M273.4,22.31l4.7,33.6c21.7,4.4,24.9,38.4,25.2,48.1a9.86,9.86,0,0,0,1.6,5l8.3,12.8s-2.9-21.2,10.2-35.4C323.4,86.31,327.8,2.11,273.4,22.31Z"/><path class="cls-10" d="M318.4,119.31l-5.8,22.8a5.94,5.94,0,0,1-6,4.6h0a6.08,6.08,0,0,1-6.1-5.3l-3-23.3a10.63,10.63,0,0,1,10.4-11.8h0A10.57,10.57,0,0,1,318.4,119.31Z"/><path class="cls-12" d="M181.6,13.21l7.5,5.1c-33.8,25-27.6,68-27.6,68,10.1,10.2,10.1,35.4,10.1,35.4l10.2-10.2S177.9,82.11,197,71c17.8-10.4,33.4-5.1,49.1-5.1,42.5,0,54.3-16.1,52.2-35.4-1-10-16.7-30.9-55.7-30.5C226.7.41,196.8,5.11,181.6,13.21Z"/><path class="cls-12" d="M181.6,13.21l7.5,5.1c-33.8,25-27.6,68-27.6,68,10.1,10.2,10.1,35.4,10.1,35.4l10.2-10.2S177.9,82.11,197,71c16.7-9.7,31.2-5.8,45.9-5.1"/><path class="cls-11" d="M243,65.91c.9,0,2.1.1,3.1.1,42.5,0,54.3-16.1,52.2-35.4-1-10-16.7-31-55.7-30.6"/><path class="cls-9" d="M166.8,119.61l5.8,22.8a5.94,5.94,0,0,0,6,4.6h0a6.08,6.08,0,0,0,6.1-5.3l3-23.3a10.63,10.63,0,0,0-10.4-11.8h0A10.57,10.57,0,0,0,166.8,119.61Z"/><path class="cls-2" d="M255.4,238.51H230V248a5.8,5.8,0,0,0,5.8,5.8h14a5.8,5.8,0,0,0,5.8-5.8l-.2-9.5Z"/><path class="cls-1" d="M242.5,238.51H229.8V248a5.8,5.8,0,0,0,5.8,5.8h7"/><path class="cls-1" d="M277,266.41l-16.2,103c-2.4,14.7-21.9,26.8-43.8,26.9l-73.6.5c-35.1.2-60.5-18.8-56.8-42.5l12.8-82c2.7-26.9,38.2-47.9,76.3-48.2l44.3-.3C255.3,223.71,280.7,242.71,277,266.41Z"/><path class="cls-1" d="M378.1,278h0a9.74,9.74,0,0,0,6.6-12.2l-7.9-26.7c-1.3-4.3-8.4-12.5-13-12.1a1.38,1.38,0,0,0-1.1.6l-6.7,8.3a1.74,1.74,0,0,0-.3,1.4l10.1,34.1A10,10,0,0,0,378.1,278Z"/><path class="cls-1" d="M332.1,294.51H366a10.18,10.18,0,0,0,10.2-10.2l1.2-39.2c.5-11.6-7.7-18.1-16.9-20.2l-62.6-14.5a9.49,9.49,0,0,1-4.6-2.5l-20.6,13"/><path class="cls-2" d="M265.5,223.91l44.3.3c38,.3,73.6,21.3,76.3,48.2l12.8,82c3.8,23.8-21.7,42.7-56.8,42.5l-73.6-.5c-21.9-.1-41.4-12.2-43.8-26.9l-16.2-103C204.8,242.71,230.3,223.71,265.5,223.91Z"/><polygon class="cls-13" points="255.3 352.51 229.9 352.51 233.1 248.71 252.1 248.71 255.3 352.51"/><polyline class="cls-14" points="242.6 248.71 252.1 248.71 255.3 352.51 242.6 352.51"/><path class="cls-1" d="M242.6,238.51H229.9V248a5.63,5.63,0,0,0,5.7,5.7h7"/><path class="cls-2" d="M242.6,253.71h7a5.63,5.63,0,0,0,5.7-5.7v-9.5H242.6"/><path class="cls-15" d="M196.3,196.71l46.4,41.6s-13.1,6.4-29.1,19.7a6.36,6.36,0,0,1-10-2.3l-21.8-47.8,6.8-10.3A5.12,5.12,0,0,1,196.3,196.71Z"/><path class="cls-16" d="M289,196.71l-46.4,41.6s13.1,6.4,29.1,19.7a6.36,6.36,0,0,0,10-2.3l21.9-47.8-6.8-10.3A5.24,5.24,0,0,0,289,196.71Z"/><path class="cls-16" d="M308.6,284H273.2a5.06,5.06,0,0,0-5.1,5.1v5.1h45.5v-5.1A5.1,5.1,0,0,0,308.6,284Z"/></g><path class="cls-17" d="M146.38,157.33H2.77A2.54,2.54,0,0,1,.2,154.77V46.36H158.8v98.45A12.48,12.48,0,0,1,146.38,157.33Z"/><path class="cls-18" d="M.1,46.88V31.07A2.54,2.54,0,0,1,2.67,28.5H156a2.54,2.54,0,0,1,2.57,2.57v16"/><circle class="cls-19" cx="21.76" cy="38.66" r="2.98"/><circle class="cls-20" cx="11.91" cy="38.66" r="2.98"/><circle class="cls-21" cx="31.41" cy="38.66" r="2.98"/><path class="cls-22" d="M158.8,46.36H79.55V157.13h76.69a2.73,2.73,0,0,0,2.67-2.67l-.11-108.1Z"/><path class="cls-23" d="M158.8,47.08V31.17a2.72,2.72,0,0,0-2.67-2.67H79.55V47.08"/><line class="cls-24" x1="296.4" y1="406.61" x2="327.7" y2="396.81"/><polygon class="cls-17" points="265.04 351.45 270.26 394.2 215.19 394.2 220.52 351.45 265.04 351.45"/><polyline class="cls-17" points="243.06 394.2 215.17 394.2 220.5 351.45 243.44 351.45"/><polyline class="cls-22" points="243.44 351.45 265.01 351.45 270.23 394.2 243.06 394.2"/><path class="cls-25" d="M377,354.9H108.71a7.38,7.38,0,0,1-7.31-7.37v-156c0-4.95,3.66-8.89,8-8.89H377c4.32,0,7.76,3.94,7.76,8.89V346.13c.11,4.58-3.22,8.77-7.32,8.77Z"/><path class="cls-25" d="M243.73,354.9h-135a7.4,7.4,0,0,1-7.32-7.33V191.47c0-4.88,3.66-8.88,8-8.88H243.17"/><path class="cls-15" d="M243,182.59H377c4.33,0,7.78,4,7.78,8.88V346.12c.11,4.56-3.22,8.78-7.33,8.78a.63.63,0,0,0-.45-.12H243.51"/><path class="cls-15" d="M289.48,396.42H195.67a3.54,3.54,0,0,1-3.34-3.88,3.42,3.42,0,0,1,3.34-3.33h93.81a3.48,3.48,0,0,1,3.66,3.33v.11a3.78,3.78,0,0,1-3.66,3.77Z"/><path class="cls-25" d="M243.06,396.42H195.69a3.54,3.54,0,0,1-3.35-3.88,3.42,3.42,0,0,1,3.35-3.33h47.37"/></g><g id="Слой_2-2" data-name="Слой 2"><g id="Слой_1-2-2" data-name="Слой 1-2"><g id="Слой_2-2-2" data-name="Слой 2-2"><path class="cls-26" d="M278.48,284.73a1.82,1.82,0,0,0-.45-1.22,58.77,58.77,0,0,1-5.88-7.66,35.5,35.5,0,0,0,2.11-5.11l10.21-1.55a2.28,2.28,0,0,0,1.11-.67,1.65,1.65,0,0,0,.45-1.22V255.09a1.8,1.8,0,0,0-.45-1.22,3.43,3.43,0,0,0-1.11-.67l-10-1.56c-.67-1.88-1.44-3.66-2.22-5.55.67-1,1.55-2.22,3-4s2.22-2.89,2.66-3.44a1.67,1.67,0,0,0,.45-1.23c0-1.11-3.22-4.77-9.55-10.43a2,2,0,0,0-1.44-.45,1.84,1.84,0,0,0-1.23.45l-7.77,5.88a38.41,38.41,0,0,0-4.88-2.11l-1.67-10.32a1.94,1.94,0,0,0-1.89-1.56H237.73a1.75,1.75,0,0,0-1.89,1.56,81.8,81.8,0,0,0-1.55,10.21,22.79,22.79,0,0,0-5.11,2.11l-7.66-5.88a2,2,0,0,0-1.44-.45c-.78,0-2.55,1.22-5.22,4a46.8,46.8,0,0,0-5.55,5.88,1.69,1.69,0,0,0-.44,1.22c0,.45.33.78.44,1.23a57.26,57.26,0,0,1,5.88,7.66,35.35,35.35,0,0,0-2.1,5.1L202.65,253a2.31,2.31,0,0,0-1.11.66,1.69,1.69,0,0,0-.44,1.22v12.22a1.88,1.88,0,0,0,.44,1.22,3.71,3.71,0,0,0,1.11.66l10,1.56a18.66,18.66,0,0,0,2.33,5.55,30.07,30.07,0,0,1-3.22,4c-1.44,1.77-2.22,2.88-2.66,3.44a1.69,1.69,0,0,0-.45,1.22c0,1.11,3.22,4.77,9.55,10.44a2.08,2.08,0,0,0,1.45.44,1.88,1.88,0,0,0,1.22-.44l7.77-5.89a37,37,0,0,0,4.88,2.11l1.56,10.21a1.94,1.94,0,0,0,1.89,1.56h12.21a1.75,1.75,0,0,0,1.89-1.56,81.8,81.8,0,0,0,1.55-10.21,22.33,22.33,0,0,0,5.11-2.11l7.66,5.89a2,2,0,0,0,1.44.44c.78,0,2.55-1.22,5.22-4,1.89-1.88,3.77-3.77,5.55-5.88C278.37,285.73,278.48,285.17,278.48,284.73Zm-23-11.88a16.76,16.76,0,0,1-12.11,4.88,16.94,16.94,0,0,1-16.87-16.87v-.11a16.94,16.94,0,0,1,16.87-16.88h.12a16.94,16.94,0,0,1,16.87,16.88v.11A15.37,15.37,0,0,1,255.5,272.85Z"/><path class="cls-27" d="M243.51,244.1V218.56h-6.22a1.83,1.83,0,0,0-1.89,1.55,80.41,80.41,0,0,0-1.55,10.22,22.15,22.15,0,0,0-5.11,2.11l-7.66-5.89a2.07,2.07,0,0,0-1.44-.44c-.78,0-2.56,1.22-5.22,4a45.43,45.43,0,0,0-5.55,5.88,1.65,1.65,0,0,0-.45,1.22c0,.45.34.78.45,1.22a90.82,90.82,0,0,1,5.88,7.66,35.5,35.5,0,0,0-2.11,5.11l-10.21,1.55a2.36,2.36,0,0,0-1.11.67,1.65,1.65,0,0,0-.45,1.22v12.21a1.84,1.84,0,0,0,.45,1.23,3.59,3.59,0,0,0,1.11.66l10,1.56a18.51,18.51,0,0,0,2.33,5.55,30,30,0,0,1-3.22,4c-1.44,1.78-2.22,2.89-2.66,3.45a1.63,1.63,0,0,0-.45,1.22c0,1.11,3.22,4.77,9.55,10.43a2,2,0,0,0,1.44.45,1.8,1.8,0,0,0,1.22-.45l7.78-5.88a38.41,38.41,0,0,0,4.88,2.11l1.56,10.21a1.94,1.94,0,0,0,1.88,1.56H243V277.4a16.93,16.93,0,0,1-16.87-16.87v-.11A16.38,16.38,0,0,1,231,248.31,21.58,21.58,0,0,1,243.51,244.1Z"/></g></g></g><g id="Слой_2-3" data-name="Слой 2"><g id="Слой_1-2-3" data-name="Слой 1-2"><g id="Слой_2-2-3" data-name="Слой 2-2"><path class="cls-26" d="M329,260a.84.84,0,0,0-.33-.78c-1.22-1.44-2.33-3-3.44-4.55a21.52,21.52,0,0,0,1.22-3l6.22-1c.33,0,.44-.12.66-.45s.34-.44.34-.78V242.1a.82.82,0,0,0-.34-.78,3.42,3.42,0,0,0-.66-.44l-6-1c-.44-1.11-1-2.22-1.44-3.33a21.82,21.82,0,0,1,1.77-2.34,8,8,0,0,0,1.56-2.11,1.26,1.26,0,0,0,.33-.77c0-.67-1.89-2.89-5.77-6.33-.33-.11-.45-.33-1-.33a.84.84,0,0,0-.78.33l-4.55,3.44a16.22,16.22,0,0,0-2.89-1.22l-1-6.22c0-.33-.11-.44-.44-.66a1.26,1.26,0,0,0-.78-.34h-7.32a1,1,0,0,0-1.11,1,58.3,58.3,0,0,0-1,6.22,18.93,18.93,0,0,0-3,1.22L294.69,225c-.34-.11-.45-.33-1-.33s-1.56.77-3.22,2.33c-1.22,1.11-2.22,2.22-3.33,3.44a1.26,1.26,0,0,0-.34.78c0,.33.12.44.34.77,1.22,1.45,2.33,3,3.44,4.56a20.27,20.27,0,0,0-1.22,3l-6.33,1c-.33,0-.44.11-.67.45a1.26,1.26,0,0,0-.33.77v7.33a.83.83,0,0,0,.33.78,3.53,3.53,0,0,0,.67.44l6,1a14.58,14.58,0,0,0,1.45,3.33,10.56,10.56,0,0,1-1.89,2.33,8,8,0,0,0-1.55,2.11,1.29,1.29,0,0,0-.34.78c0,.67,1.89,2.89,5.78,6.33.33.11.44.33,1,.33a.82.82,0,0,0,.77-.33l4.55-3.44a16.22,16.22,0,0,0,2.89,1.22l1,6.22c0,.33.11.44.44.66a1.32,1.32,0,0,0,.78.33h7.33a1,1,0,0,0,1.11-1,61,61,0,0,0,1-6.22,18.93,18.93,0,0,0,3-1.22l4.55,3.44c.33.11.44.33,1,.33s1.55-.78,3.22-2.33c1.11-1.11,2.22-2.22,3.33-3.44A.73.73,0,0,0,329,260Zm-13.88-7.1a9.56,9.56,0,0,1-7.1,2.88,10.25,10.25,0,0,1-10.21-10.21h0A10.26,10.26,0,0,1,308,235.32h0a10.26,10.26,0,0,1,10.21,10.22h0A9.89,9.89,0,0,1,315.11,252.87Z"/><path class="cls-27" d="M308.45,235V219.56h-3.66a1,1,0,0,0-1.11,1,61,61,0,0,0-1,6.22,18,18,0,0,0-3,1.22l-4.55-3.44c-.33-.12-.44-.34-1-.34s-1.55.78-3.22,2.33a47.2,47.2,0,0,0-3.33,3.45,1.26,1.26,0,0,0-.33.77c0,.34.11.45.33.78A36.6,36.6,0,0,1,291,236.1a21.52,21.52,0,0,0-1.22,3l-6.22,1c-.33,0-.44.11-.66.44a1.29,1.29,0,0,0-.33.78v7.33a.82.82,0,0,0,.33.77,3,3,0,0,0,.66.45l6,1A14.53,14.53,0,0,0,291,254.2a10.79,10.79,0,0,1-1.88,2.33,8.17,8.17,0,0,0-1.56,2.11,1.26,1.26,0,0,0-.33.78c0,.66,1.89,2.88,5.77,6.32.33.12.45.34,1,.34a.83.83,0,0,0,.78-.34l4.55-3.44a15.51,15.51,0,0,0,2.89,1.22l1,6.22c0,.33.11.45.44.67a1.26,1.26,0,0,0,.78.33h3.66V255.31a10.26,10.26,0,0,1-10.21-10.22h0a10,10,0,0,1,2.88-7.1A11.73,11.73,0,0,1,308.45,235Z"/></g></g></g><g id="Слой_2-4" data-name="Слой 2"><g id="Слой_1-2-4" data-name="Слой 1-2"><g id="Слой_2-2-4" data-name="Слой 2-2"><path class="cls-26" d="M205.76,309.38a.82.82,0,0,0-.34-.78c-1.22-1.44-2.33-3-3.44-4.55a20.37,20.37,0,0,0,1.22-3l6.22-1c.33,0,.45-.11.67-.44a1.29,1.29,0,0,0,.33-.78V291.5a.84.84,0,0,0-.33-.78,3.53,3.53,0,0,0-.67-.44l-6-1c-.45-1.11-1-2.22-1.45-3.33a22.09,22.09,0,0,1,1.78-2.33,8,8,0,0,0,1.55-2.11,1.26,1.26,0,0,0,.34-.78c0-.66-1.89-2.88-5.78-6.33-.33-.11-.44-.33-1-.33a.82.82,0,0,0-.77.33l-4.55,3.45a16.28,16.28,0,0,0-2.89-1.23l-1-6.21c0-.34-.11-.45-.44-.67a1.32,1.32,0,0,0-.78-.33h-7.33a1,1,0,0,0-1.11,1,61.2,61.2,0,0,0-1,6.21,18.93,18.93,0,0,0-3,1.23l-4.55-3.45c-.33-.11-.44-.33-1-.33s-1.55.78-3.22,2.33c-1.22,1.11-2.22,2.22-3.33,3.44a1.32,1.32,0,0,0-.33.78c0,.33.11.45.33.78,1.22,1.44,2.33,3,3.44,4.55a22.83,22.83,0,0,0-1.22,3l-6.33,1c-.33,0-.44.11-.66.44a1.29,1.29,0,0,0-.33.78v7.33a.82.82,0,0,0,.33.77,3.42,3.42,0,0,0,.66.45l6,1a14.53,14.53,0,0,0,1.44,3.33,10.79,10.79,0,0,1-1.88,2.33,8,8,0,0,0-1.56,2.11,1.26,1.26,0,0,0-.33.78c0,.66,1.89,2.88,5.77,6.32.33.11.45.34,1,.34a.82.82,0,0,0,.78-.34l4.55-3.44a15.51,15.51,0,0,0,2.89,1.22l1,6.22c0,.33.11.44.44.67a1.26,1.26,0,0,0,.78.33H188a1,1,0,0,0,1.11-1,58.3,58.3,0,0,0,1-6.22,18,18,0,0,0,3-1.22l4.55,3.44c.34.11.45.34,1,.34s1.56-.78,3.22-2.33c1.11-1.12,2.22-2.23,3.33-3.45C205.76,309.82,205.76,309.49,205.76,309.38Zm-13.88-7.22a9.55,9.55,0,0,1-7.11,2.89,10.26,10.26,0,0,1-10.21-10.22h0a10.25,10.25,0,0,1,10.21-10.21h0A10.26,10.26,0,0,1,195,294.83h0A9.89,9.89,0,0,1,191.88,302.16Z"/><path class="cls-27" d="M184.77,285V269.52h-3.66a1,1,0,0,0-1.11,1,61,61,0,0,0-1,6.22,18,18,0,0,0-3,1.22l-4.55-3.44c-.33-.12-.44-.34-1-.34s-1.55.78-3.22,2.33A47.2,47.2,0,0,0,163.9,280a1.26,1.26,0,0,0-.33.77c0,.34.11.45.33.78a36.6,36.6,0,0,1,3.44,4.55,22.83,22.83,0,0,0-1.22,3l-6.21,1c-.34,0-.45.11-.67.44a1.29,1.29,0,0,0-.33.78v7.33a.82.82,0,0,0,.33.77,2.88,2.88,0,0,0,.67.45l6,1a14.53,14.53,0,0,0,1.44,3.33,10.79,10.79,0,0,1-1.88,2.33,8.17,8.17,0,0,0-1.56,2.11,1.26,1.26,0,0,0-.33.78c0,.66,1.89,2.88,5.77,6.32.34.12.45.34,1,.34a.82.82,0,0,0,.78-.34l4.55-3.44a15.51,15.51,0,0,0,2.89,1.22l1,6.22c0,.33.11.45.44.67a1.26,1.26,0,0,0,.78.33h3.66V305.27a10.26,10.26,0,0,1-10.21-10.22h0a10,10,0,0,1,2.88-7.1A11.41,11.41,0,0,1,184.77,285Z"/></g></g></g><path class="cls-13" d="M397.3,400H1.6A1.69,1.69,0,0,1,0,398.22H0a1.69,1.69,0,0,1,1.6-1.8H397.3a1.69,1.69,0,0,1,1.6,1.8h0A1.69,1.69,0,0,1,397.3,400Z"/><rect class="cls-28" x="55.3" y="84.45" width="16.4" height="5.7"/><rect class="cls-28" x="133.58" y="84.45" width="16.4" height="5.7"/><rect class="cls-25" x="9" y="55.7" width="62.7" height="26.19"/><rect class="cls-15" x="87.28" y="56.22" width="62.7" height="25.67"/><rect class="cls-25" x="9" y="102" width="140.8" height="12.83"/><polyline class="cls-25" points="79.56 114.83 9 114.83 9 102 79.56 102"/><polyline class="cls-15" points="79.56 102 149.8 102 149.8 114.83 79.56 114.83"/><rect class="cls-20" x="128" y="105.56" width="16.4" height="5.7"/><rect class="cls-19" x="107.4" y="105.56" width="16.4" height="5.7"/><polyline class="cls-25" points="79.56 131.56 9 131.56 9 118.73 79.56 118.73"/><polyline class="cls-15" points="79.56 118.73 149.8 118.73 149.8 131.56 79.56 131.56"/><rect class="cls-20" x="128" y="122.3" width="16.4" height="5.7"/><rect class="cls-19" x="107.4" y="122.3" width="16.4" height="5.7"/><polyline class="cls-25" points="79.56 148.3 9 148.3 9 135.47 79.56 135.47"/><polyline class="cls-15" points="79.56 135.47 149.8 135.47 149.8 148.3 79.56 148.3"/><rect class="cls-20" x="128" y="139.03" width="16.4" height="5.7"/><rect class="cls-19" x="107.4" y="139.03" width="16.4" height="5.7"/><path class="cls-13" d="M243.13,102.09h-1.22c-19.37-4.84-46.62-4.84-60.54-2.42-1.82,0-1.82,7.27-.61,7.87a8.45,8.45,0,0,1,4.24,3.64s.6,1.81,3,10.89,7.87,10.3,7.87,10.3A70.78,70.78,0,0,0,211,134.18c7.88,0,12.72-.6,18.17-2.42,5.45-2.42,7.27-9.08,7.27-9.08s2.42-5.45,4.23-10.9c0-.6,1.21-1.21,1.82-1.82a1.85,1.85,0,0,0,.54.37m0,0c.6.32,1.28.54,1.28,1.45,1.81,5.45,4.24,10.9,4.24,10.9s2.42,6.66,7.26,9.08c5.45,2.42,10.29,2.42,18.17,2.42a70.78,70.78,0,0,0,15.13-1.81s5.45-1.21,7.87-10.3,3-11.5,3-11.5a8.45,8.45,0,0,1,4.24-3.63c3,0,2.42-7.27.61-7.27-13.93-2.42-41.18-2.42-60.55,2.42h-1.21m-10.9,15.14a14.72,14.72,0,0,1-6.06,7.87c-2.42,1.82-7.87,3-15.14,3a61.74,61.74,0,0,1-10.89-.61c-2.43-.6-4.24-1.21-6.06-5.45-.6-1.81-1.82-4.23-1.82-6s-1.21-7.87,2.43-10.29c3-1.82,13.92-1.82,18.16-1.82a61.6,61.6,0,0,1,18.17,3C238.28,109.36,232.83,116,232.23,117.23ZM294,116a17.61,17.61,0,0,1-1.82,6c-1.82,3.64-3.63,4.24-6.66,4.85-3,1.21-6.66,1.21-10.9,1.21-7.26,0-12.71-1.21-15.14-3s-4.84-5.45-6.05-7.87c-.61-1.82-4.84-8.48,2.42-10.9s13.93-2.42,18.17-3c3.63,0,15.13,0,18.16,1.82C295.8,108.15,294.59,114.2,294,116Z"/><path class="cls-23" d="M243.06,110.33c.6.32,1.28.54,1.28,1.45,1.81,5.45,4.24,10.9,4.24,10.9s2.42,6.66,7.26,9.08c5.45,2.42,10.29,2.42,18.17,2.42a70.78,70.78,0,0,0,15.13-1.81s5.45-1.21,7.87-10.3,3-11.5,3-11.5a8.45,8.45,0,0,1,4.24-3.63c3,0,2.42-7.27.61-7.27-13.93-2.42-41.18-2.42-60.55,2.42h-1.21M294,116a17.61,17.61,0,0,1-1.82,6c-1.82,3.64-3.63,4.24-6.66,4.85-3,1.21-6.66,1.21-10.9,1.21-7.26,0-12.71-1.21-15.14-3s-4.84-5.45-6.05-7.87c-.61-1.82-4.84-8.48,2.42-10.9s13.93-2.42,18.17-3c3.63,0,15.13,0,18.16,1.82C295.8,108.15,294.59,114.2,294,116Z"/></g></g></svg>