<svg xmlns="http://www.w3.org/2000/svg" viewBox="0 0 143.91 139.46"><defs><style>.affordable-cls-1,.affordable-cls-19,.affordable-cls-2,.affordable-cls-3,.affordable-cls-4{fill:none;stroke-miterlimit:10;stroke-width:2px;}.affordable-cls-1{stroke:#ffab42;}.affordable-cls-2{stroke:#fba03d;}.affordable-cls-3{stroke:#00b8a1;}.affordable-cls-4{stroke:#009082;}.affordable-cls-5{fill:#0096ea;}.affordable-cls-6{fill:#008ad9;}.affordable-cls-7{fill:#ccc;}.affordable-cls-8{fill:#18252b;}.affordable-cls-9{fill:#c9d4d7;}.affordable-cls-10{fill:#8b979a;}.affordable-cls-11{fill:#d8e3e6;}.affordable-cls-12{opacity:0.2;}.affordable-cls-13{fill:#00b8a1;}.affordable-cls-14{fill:#009082;}.affordable-cls-15{fill:#fed298;}.affordable-cls-16{fill:#f0ba7d;}.affordable-cls-17{fill:#152024;}.affordable-cls-18{fill:#9e672d;}.affordable-cls-19{stroke:#2e424a;}</style></defs><title>affordable_1</title><g id="Слой_2" data-name="Слой 2"><g id="Слой_3" data-name="Слой 3"><path class="affordable-cls-1" d="M31.4,61.81A30.41,30.41,0,0,1,31.4,1"/><path class="affordable-cls-2" d="M31.4,1a30.41,30.41,0,1,1,0,60.81"/><path class="affordable-cls-3" d="M31.4,119.43a21.16,21.16,0,0,1,0-42.32"/><path class="affordable-cls-4" d="M31.4,77.11a21.16,21.16,0,0,1,0,42.32"/><path class="affordable-cls-3" d="M112.74,55.69a15.87,15.87,0,1,1,0-31.74"/><path class="affordable-cls-4" d="M112.74,24a15.87,15.87,0,1,1,0,31.74"/><circle class="affordable-cls-5" cx="112.74" cy="108.29" r="31.17"/><path class="affordable-cls-5" d="M112.74,139.46a31.18,31.18,0,0,1,0-62.35"/><path class="affordable-cls-6" d="M112.74,77.11a31.18,31.18,0,0,1,0,62.35"/><path class="affordable-cls-7" d="M127.4,38.68v63.88l-55.74,3.77-55.18-3.77V38.68a6,6,0,0,1,6-6h98.83A6,6,0,0,1,127.4,38.68Z"/><rect class="affordable-cls-8" x="16.48" y="32.64" width="110.92" height="73.69" rx="8.39" ry="8.39"/><path class="affordable-cls-9" d="M71.66,106.33H21.6a5.13,5.13,0,0,1-5.12-5.13V37.76a5.12,5.12,0,0,1,5.12-5.12H71.94"/><path class="affordable-cls-10" d="M71.94,32.64h50.33a5.13,5.13,0,0,1,5.13,5.12V101.2a5.13,5.13,0,0,1-5.13,5.13H71.66"/><path class="affordable-cls-11" d="M131.86,102.56v4.84c0,1.8-2.71,3.25-6.05,3.25H18.07c-3.34,0-6.05-1.45-6.05-3.25v-4.84H131.86Z"/><g class="affordable-cls-12"><path d="M55.37,103.16q0-.3,0-.6h-.23A6.39,6.39,0,0,0,55.37,103.16Z"/></g><circle class="affordable-cls-13" cx="71.94" cy="67.65" r="27.83"/><path class="affordable-cls-13" d="M71.94,95.48a27.83,27.83,0,0,1,0-55.66"/><path class="affordable-cls-14" d="M71.94,39.82a27.83,27.83,0,0,1,0,55.66"/><path class="affordable-cls-15" d="M53.39,57.92l9.28,4.61s6.84-2.21,7.91-1.86l.51.2h0c2.12.89,9,4.18,9,4.18l-2-.13a15.06,15.06,0,0,0,2.54,2.76c1.07.66-1.46,2.53-3.59,1.17a6.5,6.5,0,0,1-2.68-3l-1.06.11,7.38,6.77,1.17,1.4A1.6,1.6,0,0,1,80,76.53s-.07,0,0,.06c.09.25.28.87.11,1.16-.6,1.06-1.52,1.86-3.45.39A1.42,1.42,0,0,1,77,79.83,2.56,2.56,0,0,1,75.58,81c-.57.17-1.41-.36-1.88-.72a1.43,1.43,0,0,1,.38,1.7c-.39.61-1.61,1.51-2.38.92L69.27,81s-5.92-5.73-7.75-7.25a42.5,42.5,0,0,1-4.31-4.63L46.28,63.06l7.11-5.14Z"/><path class="affordable-cls-8" d="M44.21,65.28l8,5.35,8.45-11.1L50.49,49.92a27.74,27.74,0,0,0-6.28,15.36Z"/><path class="affordable-cls-8" d="M60.44,59.82l-7.13,9.36,1.37,1,7.13-9.36Z"/><path class="affordable-cls-16" d="M90.48,57.92l-9.27,4.61c-.75.37-3.41-1.37-5.6-1.64a7.11,7.11,0,0,0-3.39.48l5,2.3s2.42,3.35,3.48,4-1.47,2.53-3.59,1.17a6.56,6.56,0,0,1-2.69-3L70,66.26l-8.48,7.49c-1.17,1-.81,1.58,0,2.59.36.46,1.68.31,2.24.09-1.28,1,.57,3.49,2.38,2.11-1.1.84.48,3.79,2.68,2.11-1.1,1.48,1.13,2.55,2.07,2.29l.68-.2-.17-.13a20.55,20.55,0,0,1-1.94-2,1.53,1.53,0,0,1,2.43-1.73l1.24,1-.72-.91a1.79,1.79,0,0,1,.67-2.81,1.69,1.69,0,0,1,1.84.57l1.37,1.09-1.16-1.36A1.82,1.82,0,0,1,75,74c1-1.12,2.41.23,2.41.23l1.64,1.35-1.41-1.63s-1.22-1.28-.4-2.14c1.14-1.19,2.55,0,3.66,1.15.32.34.65.86.9,1.1a18,18,0,0,0,2.06-2.88l13.71-8.09-7.11-5.14Z"/><path class="affordable-cls-17" d="M99.67,65.28l-8,5.35-8.46-11.1,10.18-9.61a27.74,27.74,0,0,1,6.28,15.36Z"/><path class="affordable-cls-17" d="M83.43,59.82l7.13,9.36-1.36,1-7.13-9.36Z"/><path class="affordable-cls-5" d="M51.43,67.67a.51.51,0,1,1-.51.51A.51.51,0,0,1,51.43,67.67Zm-1.51-.94a.51.51,0,0,1,.51.51.5.5,0,0,1-.51.5.5.5,0,0,1-.5-.5A.5.5,0,0,1,49.92,66.73Z"/><path class="affordable-cls-18" d="M92.75,68a.51.51,0,0,0-.51.51.51.51,0,0,0,1,0A.51.51,0,0,0,92.75,68Zm1.51-1a.51.51,0,1,0,0,1,.51.51,0,0,0,0-1Z"/><path class="affordable-cls-19" d="M22.08,32.64H122.27a5.12,5.12,0,0,1,5.12,5.12V101.6a0,0,0,0,1,0,0H17a0,0,0,0,1,0,0V37.76a5.12,5.12,0,0,1,5.12-5.12Z" transform="translate(-0.25 0.27) rotate(-0.21)"/><path class="affordable-cls-9" d="M71.94,102.56h59.92v4.84c0,1.8-2.71,3.25-6.05,3.25H71.94"/><path class="affordable-cls-11" d="M71.94,110.65H18.07c-3.34,0-6.05-1.45-6.05-3.25v-4.84H71.94"/><path class="affordable-cls-17" d="M55.34,102.56h33.2c0,2.08-3.37,3.77-7.53,3.77H62.87C58.71,106.33,55.34,104.64,55.34,102.56Z"/></g></g></svg>