<svg xmlns="http://www.w3.org/2000/svg" viewBox="0 0 53.18 53.18"><defs><style>.cls-1{fill:#fff;}.cls-2,.cls-9{fill:#2b3a43;}.cls-3{fill:#f7333a;}.cls-3,.cls-4,.cls-5,.cls-6{stroke:#2b3a43;stroke-miterlimit:10;}.cls-4{fill:#008ad9;}.cls-5{fill:#fba03d;}.cls-6,.cls-7{fill:#009082;}.cls-8{fill:#00b8a1;}.cls-9{font-size:16px;font-family:Helvetica-Bold, Helvetica;font-weight:700;}</style></defs><title>API</title><g id="Слой_2" data-name="Слой 2"><g id="Слой_1-2" data-name="Слой 1"><circle class="cls-1" cx="26.59" cy="27.05" r="16.49"/></g><g id="Слой_2-2" data-name="Слой 2"><rect class="cls-2" x="5.74" y="4.38" width="1.18" height="4.36" transform="matrix(0.74, -0.67, 0.67, 0.74, -2.76, 5.9)"/><circle class="cls-3" cx="3.67" cy="3.59" r="2.25"/><rect class="cls-2" x="46.03" y="4.3" width="1.18" height="4.36" transform="translate(16.86 -29.99) rotate(42.87)"/><circle class="cls-4" cx="49.33" cy="3.56" r="2.25"/><rect class="cls-2" x="46.08" y="44.2" width="1.18" height="4.36" transform="translate(112.39 49.77) rotate(138.13)"/><circle class="cls-5" cx="49.33" cy="49.35" r="2.25"/><rect class="cls-2" x="5.79" y="44.28" width="1.18" height="4.36" transform="translate(-20.55 84.85) rotate(-137.13)"/><circle class="cls-6" cx="3.67" cy="49.38" r="2.25"/><path class="cls-7" d="M48.48,41.5a1.42,1.42,0,0,0-.29-.83c-1.55-1.85-2.79-3.45-3.74-4.77a19.43,19.43,0,0,0,1.33-3.16l6.44-1a1,1,0,0,0,.67-.43,1.41,1.41,0,0,0,.29-.82V22.81a1.29,1.29,0,0,0-1-1.25l-6.31-.95a29.14,29.14,0,0,0-1.42-3.41c.42-.61,1-1.44,1.87-2.49s1.42-1.8,1.75-2.25a1.4,1.4,0,0,0,.29-.79q0-1.11-6-6.64a1.4,1.4,0,0,0-.88-.33,1.2,1.2,0,0,0-.83.29l-4.9,3.69A17.32,17.32,0,0,0,32.65,7.4L31.7,1a1.09,1.09,0,0,0-.42-.73A1.24,1.24,0,0,0,30.45,0H22.73a1.21,1.21,0,0,0-1.25,1,48.58,48.58,0,0,0-1,6.4,20.15,20.15,0,0,0-3.19,1.32L12.55,5a1.47,1.47,0,0,0-.88-.29c-.52,0-1.62.81-3.28,2.45A34,34,0,0,0,5,10.84a1.22,1.22,0,0,0-.3.84,1.59,1.59,0,0,0,.3.83q2.32,2.78,3.73,4.77A20.24,20.24,0,0,0,7.4,20.44L1,21.44a1,1,0,0,0-.67.43,1.41,1.41,0,0,0-.29.81v7.69a1.28,1.28,0,0,0,.29.81,1,1,0,0,0,.71.39l6.31,1A21,21,0,0,0,8.77,36c-.45.61-1.1,1.45-2,2.53s-1.42,1.82-1.7,2.2a1.45,1.45,0,0,0-.29.79q0,1.13,6,6.65a1.4,1.4,0,0,0,.88.33,1.11,1.11,0,0,0,.83-.29l4.9-3.69a17.55,17.55,0,0,0,3.11,1.28l1,6.36a1.11,1.11,0,0,0,.41.73,1.32,1.32,0,0,0,.84.31h7.72a1.21,1.21,0,0,0,1.25-1,50.66,50.66,0,0,0,1-6.44,18.36,18.36,0,0,0,3.19-1.29l4.78,3.74a1.46,1.46,0,0,0,.87.29c.53,0,1.62-.82,3.27-2.47a43.53,43.53,0,0,0,3.42-3.72A1,1,0,0,0,48.48,41.5ZM34.11,34.11a10.23,10.23,0,0,1-7.52,3.11A10.64,10.64,0,0,1,16,26.59,10.65,10.65,0,0,1,26.59,16,10.64,10.64,0,0,1,37.22,26.59,10.25,10.25,0,0,1,34.11,34.11Z"/><path class="cls-8" d="M26.59,16V0H22.72a1.22,1.22,0,0,0-1.24,1,47.59,47.59,0,0,0-.95,6.4,20.81,20.81,0,0,0-3.21,1.32L12.55,5a1.42,1.42,0,0,0-.87-.29c-.53,0-1.62.81-3.29,2.45A35,35,0,0,0,5,10.85a1.22,1.22,0,0,0-.29.83A1.57,1.57,0,0,0,5,12.5q2.32,2.79,3.74,4.79A19.89,19.89,0,0,0,7.4,20.44L1,21.43a1,1,0,0,0-.66.44,1.36,1.36,0,0,0-.3.82v7.68a1.21,1.21,0,0,0,.3.81.93.93,0,0,0,.7.39l6.31,1A21.93,21.93,0,0,0,8.77,36c-.44.61-1.1,1.45-1.95,2.53s-1.43,1.81-1.71,2.21a1.4,1.4,0,0,0-.29.79q0,1.11,6,6.64a1.42,1.42,0,0,0,.88.33,1.11,1.11,0,0,0,.83-.29l4.9-3.69a17.62,17.62,0,0,0,3.12,1.28l.95,6.36a1.05,1.05,0,0,0,.41.72,1.29,1.29,0,0,0,.83.32h3.87v-16A10.64,10.64,0,0,1,16,26.59,10.64,10.64,0,0,1,26.59,16Z"/><circle class="cls-1" cx="26.59" cy="26.59" r="16.44"/><text class="cls-9" transform="translate(12.52 31.97)">API</text></g></g></svg>