<svg xmlns="http://www.w3.org/2000/svg" viewBox="0 0 53.3 53.2"><defs><style>.cls-1{fill:#fff;}.cls-2{fill:#2b3a43;}.cls-3{fill:#f7333a;}.cls-3,.cls-4,.cls-5,.cls-6{stroke:#2b3a43;stroke-miterlimit:10;}.cls-4{fill:#008ad9;}.cls-5{fill:#fba03d;}.cls-6,.cls-7{fill:#009082;}.cls-8{fill:#00b8a1;}.cls-9{fill:none;}</style></defs><title>api</title><g id="Слой_2" data-name="Слой 2"><g id="Слой_1-2" data-name="Слой 1"><g id="Слой_1-3" data-name="Слой 1"><circle class="cls-1" cx="26.7" cy="27.1" r="16.5"/></g><g id="Слой_2-2" data-name="Слой 2"><rect class="cls-2" x="5.79" y="4.43" width="1.2" height="4.4" transform="translate(-2.79 5.96) rotate(-41.87)"/><circle class="cls-3" cx="3.8" cy="3.6" r="2.2"/><rect class="cls-2" x="44.53" y="5.9" width="4.4" height="1.2" transform="translate(10.18 36.33) rotate(-47.13)"/><circle class="cls-4" cx="49.4" cy="3.6" r="2.2"/><rect class="cls-2" x="46.14" y="44.25" width="1.2" height="4.4" transform="translate(-19.07 43.06) rotate(-41.87)"/><circle class="cls-5" cx="49.4" cy="49.4" r="2.2"/><rect class="cls-2" x="4.21" y="45.88" width="4.4" height="1.2" transform="translate(-32.02 19.56) rotate(-47.13)"/><circle class="cls-6" cx="3.8" cy="49.4" r="2.2"/><path class="cls-7" d="M48.6,41.5a1.14,1.14,0,0,0-.3-.8,48.68,48.68,0,0,1-3.7-4.8,16.56,16.56,0,0,0,1.3-3.2l6.4-1a1.27,1.27,0,0,0,.7-.4,1.33,1.33,0,0,0,.3-.8V22.8A1.14,1.14,0,0,0,53,22a1,1,0,0,0-.7-.4l-6.3-1a35.7,35.7,0,0,0-1.4-3.4c.4-.6,1-1.4,1.9-2.5s1.4-1.8,1.7-2.2a1.33,1.33,0,0,0,.3-.8c0-.7-2-3-6-6.6a1.61,1.61,0,0,0-.9-.3,1.14,1.14,0,0,0-.8.3L35.9,8.8a18.85,18.85,0,0,0-3.1-1.3l-1-6.4a1,1,0,0,0-.4-.7,1.14,1.14,0,0,0-.8-.3H22.9a1.11,1.11,0,0,0-1.2,1,51.33,51.33,0,0,0-1,6.4,19.33,19.33,0,0,0-3.2,1.3L12.7,5.1a1.61,1.61,0,0,0-.9-.3c-.5,0-1.6.8-3.3,2.5A30.14,30.14,0,0,0,5.1,11a1.14,1.14,0,0,0-.3.8,1.6,1.6,0,0,0,.3.8,48.68,48.68,0,0,1,3.7,4.8,16.56,16.56,0,0,0-1.3,3.2l-6.4,1a1.27,1.27,0,0,0-.7.4,1.33,1.33,0,0,0-.3.8v7.7a1.14,1.14,0,0,0,.3.8,1,1,0,0,0,.7.4l6.3,1a14.16,14.16,0,0,0,1.5,3.4,23.82,23.82,0,0,1-2,2.5c-.9,1.1-1.4,1.8-1.7,2.2a1.33,1.33,0,0,0-.3.8c0,.7,2,3,6,6.6a1.61,1.61,0,0,0,.9.3,1,1,0,0,0,.8-.3l4.9-3.7a18.85,18.85,0,0,0,3.1,1.3l1,6.4a1,1,0,0,0,.4.7,1.14,1.14,0,0,0,.8.3h7.7a1.11,1.11,0,0,0,1.2-1,51.33,51.33,0,0,0,1-6.4,17.88,17.88,0,0,0,3.2-1.3l4.8,3.7a1.61,1.61,0,0,0,.9.3c.5,0,1.6-.8,3.3-2.5a41.66,41.66,0,0,0,3.4-3.7A1,1,0,0,0,48.6,41.5ZM34.2,34.1a10.19,10.19,0,0,1-7.5,3.1A10.58,10.58,0,0,1,16.1,26.6,10.58,10.58,0,0,1,26.7,16,10.58,10.58,0,0,1,37.3,26.6,9.89,9.89,0,0,1,34.2,34.1Z"/><path class="cls-8" d="M26.7,16V0H22.8a1.17,1.17,0,0,0-1.2,1,51.33,51.33,0,0,0-1,6.4,19.33,19.33,0,0,0-3.2,1.3L12.6,5a1.61,1.61,0,0,0-.9-.3c-.5,0-1.6.8-3.3,2.5A30.14,30.14,0,0,0,5,10.9a1.14,1.14,0,0,0-.3.8,1.6,1.6,0,0,0,.3.8c1.6,1.9,2.8,3.5,3.7,4.8a16.56,16.56,0,0,0-1.3,3.2L1,21.5a1.27,1.27,0,0,0-.7.4,1.33,1.33,0,0,0-.3.8v7.7a1.14,1.14,0,0,0,.3.8,1,1,0,0,0,.7.4l6.3,1A14.16,14.16,0,0,0,8.8,36a23.82,23.82,0,0,1-2,2.5c-.9,1.1-1.4,1.8-1.7,2.2a1.33,1.33,0,0,0-.3.8c0,.7,2,3,6,6.6a1.61,1.61,0,0,0,.9.3,1,1,0,0,0,.8-.3l4.9-3.7a18.85,18.85,0,0,0,3.1,1.3l1,6.4a1,1,0,0,0,.4.7,1.33,1.33,0,0,0,.8.3h3.9v-16A10.58,10.58,0,0,1,16,26.5,10.19,10.19,0,0,1,19.1,19,10.57,10.57,0,0,1,26.7,16Z"/><rect class="cls-9" x="7.6" y="20.5" width="36.8" height="12.1"/></g></g></g></svg>