<svg xmlns="http://www.w3.org/2000/svg" viewBox="0 0 143.4 175.36"><defs><style>.auditor-node-2-cls-1,.auditor-node-2-cls-2,.auditor-node-2-cls-20,.auditor-node-2-cls-21,.auditor-node-2-cls-3,.auditor-node-2-cls-4,.auditor-node-2-cls-7{fill:none;}.auditor-node-2-cls-1{stroke:#f7333a;}.auditor-node-2-cls-1,.auditor-node-2-cls-2,.auditor-node-2-cls-20,.auditor-node-2-cls-21,.auditor-node-2-cls-22,.auditor-node-2-cls-3,.auditor-node-2-cls-4{stroke-miterlimit:10;}.auditor-node-2-cls-2{stroke:#ffa245;}.auditor-node-2-cls-3{stroke:#0096ea;}.auditor-node-2-cls-4{stroke:#c8d1d4;}.auditor-node-2-cls-5{fill:#2e424a;}.auditor-node-2-cls-6{fill:#2b3a43;}.auditor-node-2-cls-8{fill:#008ad9;}.auditor-node-2-cls-23,.auditor-node-2-cls-9{fill:#0096ea;}.auditor-node-2-cls-10{fill:#152024;}.auditor-node-2-cls-11,.auditor-node-2-cls-24{fill:#fda23e;}.auditor-node-2-cls-12{fill:#ffad4a;}.auditor-node-2-cls-13{fill:#d6323e;}.auditor-node-2-cls-14,.auditor-node-2-cls-22,.auditor-node-2-cls-27{fill:#f7333a;}.auditor-node-2-cls-15{fill:#d8e3e6;}.auditor-node-2-cls-16,.auditor-node-2-cls-25{fill:#c8d1d4;}.auditor-node-2-cls-17{fill:#00b8a1;}.auditor-node-2-cls-18{fill:#c9d4d7;}.auditor-node-2-cls-19{fill:#009082;}.auditor-node-2-cls-20{stroke:#00b8a1;}.auditor-node-2-cls-21{stroke:#2e424a;}.auditor-node-2-cls-22{stroke:#152024;}.auditor-node-2-cls-23,.auditor-node-2-cls-24,.auditor-node-2-cls-25,.auditor-node-2-cls-27{opacity:0.3;isolation:isolate;}.auditor-node-2-cls-26{fill:#17242a;}</style></defs><title>auditor-node_02</title><g id="Слой_2" data-name="Слой 2"><g id="Слой_1-2" data-name="Слой 1"><g id="Слой_1-3" data-name="Слой 1"><line class="auditor-node-2-cls-1" x1="27.3" y1="22.68" x2="37" y2="39.38"/><line class="auditor-node-2-cls-2" x1="120.9" y1="22.68" x2="111.3" y2="39.38"/><line class="auditor-node-2-cls-3" x1="129.7" y1="150.88" x2="120.1" y2="134.18"/><line class="auditor-node-2-cls-4" x1="18.1" y1="150.28" x2="27.7" y2="133.58"/><path class="auditor-node-2-cls-5" d="M98.1,160.78l31.7-18.1a1.49,1.49,0,0,1,2,.6l6.6,11.8a1.49,1.49,0,0,1-.6,2l-31.7,18.1a1.49,1.49,0,0,1-2-.6l-6.6-11.8a1.38,1.38,0,0,1,.4-1.9C98.1,160.88,98.1,160.78,98.1,160.78Z"/><path class="auditor-node-2-cls-6" d="M122.1,166l-15.8,9.1a1.49,1.49,0,0,1-2-.6l-6.6-11.8a1.38,1.38,0,0,1,.4-1.9h.1l15.7-9"/><line class="auditor-node-2-cls-7" x1="112.8" y1="166.88" x2="112.5" y2="167.08"/><path class="auditor-node-2-cls-8" d="M99.9,161.68l29.7-17.1a1,1,0,0,1,1.4.4l5.7,9.8a1,1,0,0,1-.4,1.4l-29.8,17.1a1,1,0,0,1-1.4-.4l-5.6-9.8A1,1,0,0,1,99.9,161.68Z"/><path class="auditor-node-2-cls-9" d="M121.3,164.78l-14.8,8.5a1,1,0,0,1-1.4-.4l-5.6-9.8a1,1,0,0,1,.4-1.4l14.7-8.5"/><g id="hash"><path class="auditor-node-2-cls-10" d="M126.8,154.88l.4.6.8-.4.5,1.2.6-.4-.5-1.2,1.2-.7.5,1.2.5-.3-.5-1.2,1-.6-.4-.6-.9.5-.5-1.2.8-.4-.4-.6-.8.4-.5-1.2-.6.4.5,1.2-1.2.7-.5-1.2-.6.4.5,1.2-1,.6.4.6.9-.5.5,1.2Zm.8-2.1,1.1-.7.6,1.2-1.1.7Z"/></g><path class="auditor-node-2-cls-10" d="M120.7,157.48a1.61,1.61,0,0,0-2.2-.6,1.69,1.69,0,0,0-.8,1.7l-3,1.8-.2.7,1.3.4.2-.6.6.2.2-.6.6.2.2-.6.6-.3a1.83,1.83,0,0,0,1.9.2A2,2,0,0,0,120.7,157.48Zm-.7,1a.53.53,0,0,1-.7-.2c-.2-.3-.1-.5.2-.7a.53.53,0,0,1,.7.2A.57.57,0,0,1,120,158.48Z"/><path class="auditor-node-2-cls-10" d="M110.5,164.68l-.3.2a.71.71,0,0,1-1-.3l-.1-.2v-.8c0-.2,0-.4-.2-.5h-.1a2.19,2.19,0,0,0-.3-.5,1,1,0,0,0-.6-.5c-.2-.1-.4,0-.6,0a2.51,2.51,0,0,0-.7.4.86.86,0,0,0-.3.6,1.27,1.27,0,0,0,.1.6,2.19,2.19,0,0,0,.3.5v.1a.43.43,0,0,0,.4.4.1.1,0,0,1,.1.1c.2.1.4.3.6.3l.1.2a.71.71,0,0,1-.3,1l-.3.2a1.77,1.77,0,0,0-.4,1.4l.2.3c.1.2.3.2.5.1l4.3-2.4c.2-.1.2-.3.1-.5l-.2-.3A1.42,1.42,0,0,0,110.5,164.68Z"/><path class="auditor-node-2-cls-5" d="M129.7,32.78,98.2,14.38a1.48,1.48,0,0,1-.5-2L104.5.78a1.48,1.48,0,0,1,2-.5L138,18.68a1.48,1.48,0,0,1,.5,2l-6.9,11.6a1.4,1.4,0,0,1-1.9.6C129.8,32.88,129.7,32.78,129.7,32.78Z"/><path class="auditor-node-2-cls-6" d="M122.37,9.54l15.8,9.1a1.48,1.48,0,0,1,.5,2l-6.9,11.6a1.4,1.4,0,0,1-1.9.6l-.1-.1-15.7-9.1"/><line class="auditor-node-2-cls-7" x1="127.7" y1="17.08" x2="128" y2="17.18"/><path class="auditor-node-2-cls-11" d="M129.78,30.94l-29.7-17.2a1.11,1.11,0,0,1-.4-1.4l5.7-9.8a1.11,1.11,0,0,1,1.4-.4l29.7,17.2a1.11,1.11,0,0,1,.4,1.4l-5.7,9.8A1.05,1.05,0,0,1,129.78,30.94Z"/><path class="auditor-node-2-cls-12" d="M115,22.38l-15-8.7a1.11,1.11,0,0,1-.4-1.4l5.7-9.8a1.11,1.11,0,0,1,1.4-.4l14.9,8.6"/><g id="hash-2" data-name="hash"><path class="auditor-node-2-cls-10" d="M110.3,11l.4-.6-.8-.4.8-1.1-.6-.4-.8,1.1-1.2-.7.8-1.1-.5-.3-.8,1.1-1-.6-.4.6.9.5-.8,1.1-.8-.4-.4.6.8.4-.8,1.1.6.4.8-1.1,1.2.7-.8,1.1.6.4.8-1.1,1,.6.4-.6-.9-.5.8-1.1Zm-2.3.4-1.2-.7.8-1.1,1.2.7Z"/></g><path class="auditor-node-2-cls-10" d="M121.1,18.08a1.63,1.63,0,0,0-.6-2.2,1.65,1.65,0,0,0-1.8.2l-3-1.7-.7.2.4,1.3.6-.2.2.6.6-.2.2.6.6-.2.6.3a1.69,1.69,0,0,0,.8,1.7A1.33,1.33,0,0,0,121.1,18.08Zm-1.2-.2a.51.51,0,1,1,.7-.2C120.4,18,120.1,18.08,119.9,17.88Z"/><path class="auditor-node-2-cls-10" d="M128.9,23.78l-.3-.2a.91.91,0,0,1-.3-1l.1-.2a2.09,2.09,0,0,0,.6-.4h.1c.2,0,.3-.2.3-.4v-.1a2.19,2.19,0,0,1,.3-.5.88.88,0,0,0,.1-.7.85.85,0,0,0-.3-.5,1.61,1.61,0,0,0-.7-.4.85.85,0,0,0-.7,0,.78.78,0,0,0-.4.4,2.19,2.19,0,0,1-.3.5.1.1,0,0,0-.1.1.37.37,0,0,0-.2.5v.7l-.1.2a.91.91,0,0,1-1,.3l-.3-.2a1.63,1.63,0,0,0-1.4.4l-.2.3a.44.44,0,0,0,.1.5l4.3,2.5a.44.44,0,0,0,.5-.1l.2-.3A1.54,1.54,0,0,0,128.9,23.78Z"/><path class="auditor-node-2-cls-5" d="M49.5,14.58,17.8,32.68a1.49,1.49,0,0,1-2-.6L9.2,20.28a1.49,1.49,0,0,1,.6-2L41.5.18a1.49,1.49,0,0,1,2,.6l6.6,11.8a1.38,1.38,0,0,1-.4,1.9Z"/><path class="auditor-node-2-cls-6" d="M25.5,9.28,41.3.18a1.49,1.49,0,0,1,2,.6l6.6,11.8a1.38,1.38,0,0,1-.4,1.9h-.1l-15.7,9"/><line class="auditor-node-2-cls-7" x1="34.8" y1="8.48" x2="35.1" y2="8.38"/><path class="auditor-node-2-cls-13" d="M47.7,13.68,18,30.78a1,1,0,0,1-1.4-.4l-5.7-9.8a1,1,0,0,1,.4-1.4L41,2.08a1,1,0,0,1,1.4.4l5.7,9.8A1,1,0,0,1,47.7,13.68Z"/><path class="auditor-node-2-cls-14" d="M33,22.18l-15,8.6a1,1,0,0,1-1.4-.4l-5.7-9.8a1,1,0,0,1,.4-1.4l14.9-8.6"/><g id="hash-3" data-name="hash"><path class="auditor-node-2-cls-10" d="M20.8,20.48l-.4-.6-.8.4-.5-1.2-.6.4.5,1.2-1.2.7-.5-1.2-.5.3.5,1.2-1,.6.4.6.9-.5.5,1.2-.8.4.4.6.8-.4.5,1.2.6-.4-.5-1.2,1.2-.7.5,1.2.7-.2-.5-1.2,1-.6-.4-.6-.9.5L20.2,21Zm-.8,2.2-1.1.7-.6-1.2,1.1-.7Z"/></g><path class="auditor-node-2-cls-10" d="M32.4,14.68a1.61,1.61,0,0,0-2.2-.6,1.69,1.69,0,0,0-.8,1.7l-3,1.8-.2.7,1.3.4.2-.6.6.2.2-.6.6.2.2-.6.6-.3a1.83,1.83,0,0,0,1.9.2A2,2,0,0,0,32.4,14.68Zm-.8,1a.51.51,0,1,1,.2-.7C31.9,15.28,31.9,15.58,31.6,15.68Z"/><path class="auditor-node-2-cls-10" d="M41.2,10.78l-.3.2a.71.71,0,0,1-1-.3l-.1-.2v-.8c0-.2,0-.4-.2-.5h-.1a2.19,2.19,0,0,0-.3-.5,1,1,0,0,0-.6-.5c-.2-.1-.4,0-.6,0a2.51,2.51,0,0,0-.7.4.86.86,0,0,0-.3.6,1.27,1.27,0,0,0,.1.6,2.19,2.19,0,0,0,.3.5v.1a.43.43,0,0,0,.4.4.1.1,0,0,1,.1.1c.2.1.4.3.6.3l.1.2a.71.71,0,0,1-.3,1l-.3.2a1.77,1.77,0,0,0-.4,1.4l.2.3c.1.2.3.2.5.1L42.6,12c.2-.1.2-.3.1-.5l-.2-.3A1.8,1.8,0,0,0,41.2,10.78Z"/><path class="auditor-node-2-cls-5" d="M17.9,142.58,49.4,161a1.48,1.48,0,0,1,.5,2L43,174.58a1.48,1.48,0,0,1-2,.5L9.5,156.88a1.48,1.48,0,0,1-.5-2l6.9-11.6a1.4,1.4,0,0,1,1.9-.6A.1.1,0,0,1,17.9,142.58Z"/><path class="auditor-node-2-cls-6" d="M25.42,166l-15.8-9.1a1.48,1.48,0,0,1-.5-2l6.9-11.6a1.4,1.4,0,0,1,1.9-.6l.1.1,15.7,9.1"/><line class="auditor-node-2-cls-7" x1="19.9" y1="158.38" x2="19.6" y2="158.18"/><path class="auditor-node-2-cls-15" d="M17.9,144.58l29.7,17.2a1.11,1.11,0,0,1,.4,1.4L42.3,173a1.11,1.11,0,0,1-1.4.4l-29.6-17.3a1.11,1.11,0,0,1-.4-1.4l5.7-9.8A1,1,0,0,1,17.9,144.58Z"/><path class="auditor-node-2-cls-16" d="M32.91,153.24l15,8.7a1.11,1.11,0,0,1,.4,1.4l-5.7,9.8a1.11,1.11,0,0,1-1.4.4l-15-8.77"/><path class="auditor-node-2-cls-10" d="M32.1,160.48a1.63,1.63,0,0,0-.6-2.2,1.65,1.65,0,0,0-1.8.2l-3-1.7-.7.2.4,1.3.6-.2.2.6.6-.2.2.6.6-.2.6.3a1.69,1.69,0,0,0,.8,1.7A1.3,1.3,0,0,0,32.1,160.48Zm-1.3-.1a.57.57,0,0,1-.2-.7c.1-.3.4-.3.7-.2a.57.57,0,0,1,.2.7C31.4,160.48,31,160.48,30.8,160.38Z"/><path class="auditor-node-2-cls-10" d="M20.7,155.18l-.3-.2a.91.91,0,0,1-.3-1l.1-.2a2.09,2.09,0,0,0,.6-.4h.1c.2,0,.3-.2.3-.4v-.1a2.19,2.19,0,0,1,.3-.5.88.88,0,0,0,.1-.7.85.85,0,0,0-.3-.5,1.61,1.61,0,0,0-.7-.4.85.85,0,0,0-.7,0,.78.78,0,0,0-.4.4,2.19,2.19,0,0,1-.3.5.1.1,0,0,0-.1.1.37.37,0,0,0-.2.5v.7l-.1.2a.91.91,0,0,1-1,.3l-.3-.2a1.63,1.63,0,0,0-1.4.4l-.2.3a.44.44,0,0,0,.1.5l4.3,2.5a.44.44,0,0,0,.5-.1l.2-.3A2,2,0,0,0,20.7,155.18Z"/><g id="hash-4" data-name="hash"><path class="auditor-node-2-cls-10" d="M36.5,164l-.4.6.8.5-.8,1.1.6.4.8-1.1,1.1.7-.8,1.1.5.3.8-1.1,1,.6.4-.6-.9-.5.8-1.1.8.5.4-.6-.8-.5.8-1.1-.6-.4-.8,1.1-1.1-.7.8-1.1-.6-.4-.8,1.1-1-.6-.4.6.9.5-.8,1.1Zm2.3-.3,1.1.7-.8,1.1-1.1-.7Z"/></g><path class="auditor-node-2-cls-15" d="M132.5,139.18a4.4,4.4,0,0,0,0,8.8"/><path class="auditor-node-2-cls-17" d="M132.5,144.88l-.7.7a.5.5,0,0,1-.6,0l-1.7-1.7a.19.19,0,0,1,0-.3l.3-.3a.19.19,0,0,1,.3,0l1.5,1.5.9-.9"/><path class="auditor-node-2-cls-18" d="M132.6,148.78a5,5,0,0,0,0-10"/><path class="auditor-node-2-cls-15" d="M132.6,138.68a5,5,0,1,0,0,10"/><path class="auditor-node-2-cls-17" d="M132.6,144.88l-.6.6a.45.45,0,0,1-.5,0L130,144c-.1-.1-.1-.2,0-.2h0l.2-.2c.1-.1.2-.1.2,0l1.3,1.3.8-.8"/><path class="auditor-node-2-cls-19" d="M132.6,144l1.8-1.8c.1-.1.2-.1.2,0h0l.2.2c.1.1.1.2,0,.2h0l-2.2,2.2"/><circle class="auditor-node-2-cls-20" cx="132.6" cy="143.68" r="4.6"/><path class="auditor-node-2-cls-15" d="M48.1,156.88a4.4,4.4,0,1,0,0,8.8"/><path class="auditor-node-2-cls-17" d="M48.1,162.58l-.7.7a.5.5,0,0,1-.6,0l-1.7-1.7a.19.19,0,0,1,0-.3l.3-.3a.19.19,0,0,1,.3,0l1.5,1.5.9-.9"/><path class="auditor-node-2-cls-18" d="M48.2,166.38a5,5,0,0,0,0-10"/><path class="auditor-node-2-cls-15" d="M48.2,156.38a5,5,0,1,0,0,10"/><path class="auditor-node-2-cls-17" d="M48.2,162.58l-.6.6a.45.45,0,0,1-.5,0l-1.5-1.5c-.1-.1-.1-.2,0-.2h0l.2-.2c.1-.1.2-.1.2,0l1.3,1.3.8-.8"/><path class="auditor-node-2-cls-19" d="M48.2,161.68l1.8-1.8c.1-.1.2-.1.2,0h0l.2.2c.1.1.1.2,0,.2h0l-2.2,2.2"/><circle class="auditor-node-2-cls-20" cx="48.2" cy="161.38" r="4.6"/><path class="auditor-node-2-cls-15" d="M99.4,7.78a4.4,4.4,0,0,0,0,8.8"/><path class="auditor-node-2-cls-17" d="M99.4,13.48l-.7.7a.5.5,0,0,1-.6,0l-1.7-1.7a.19.19,0,0,1,0-.3l.3-.3a.19.19,0,0,1,.3,0l1.5,1.5.9-.9"/><path class="auditor-node-2-cls-18" d="M99.5,17.38a5,5,0,0,0,0-10"/><path class="auditor-node-2-cls-15" d="M99.5,7.38a5,5,0,0,0,0,10"/><path class="auditor-node-2-cls-17" d="M99.5,13.48l-.6.6a.45.45,0,0,1-.5,0l-1.5-1.5c-.1-.1-.1-.2,0-.2h0l.2-.2c.1-.1.2-.1.2,0l1.3,1.3.8-.8"/><path class="auditor-node-2-cls-19" d="M99.5,12.58l1.8-1.8c.1-.1.2-.1.2,0h0l.2.2c.1.1.1.2,0,.2h0l-2.2,2.2"/><circle class="auditor-node-2-cls-20" cx="99.5" cy="12.28" r="4.6"/><path class="auditor-node-2-cls-15" d="M17.3,27a4.4,4.4,0,0,0,0,8.8"/><path class="auditor-node-2-cls-17" d="M17.3,32.68l-.7.7a.5.5,0,0,1-.6,0l-1.7-1.7a.19.19,0,0,1,0-.3l.3-.3a.19.19,0,0,1,.3,0l1.5,1.5.9-.9"/><path class="auditor-node-2-cls-18" d="M17.4,36.48a5,5,0,1,0,0-10"/><path class="auditor-node-2-cls-15" d="M17.4,26.48a5,5,0,0,0,0,10"/><path class="auditor-node-2-cls-17" d="M17.4,32.58l-.6.6a.45.45,0,0,1-.5,0l-1.5-1.5c-.1-.1-.1-.2,0-.2h0l.2-.2c.1-.1.2-.1.2,0l1.3,1.3.8-.8"/><path class="auditor-node-2-cls-19" d="M17.4,31.68l1.8-1.8c.1-.1.2-.1.2,0h0l.2.2c.1.1.1.2,0,.2h0l-2.2,2.2"/><circle class="auditor-node-2-cls-20" cx="17.4" cy="31.48" r="4.6"/><g id="Слой_2-2" data-name="Слой 2"><g id="Слой_1-2-2" data-name="Слой 1-2"><line class="auditor-node-2-cls-21" x1="21.5" y1="88.08" x2="48.2" y2="49.48"/><line class="auditor-node-2-cls-21" x1="99.6" y1="49.48" x2="48.2" y2="49.48"/><line class="auditor-node-2-cls-21" x1="122.3" y1="88.08" x2="99.6" y2="49.48"/><line class="auditor-node-2-cls-21" x1="99.6" y1="126.28" x2="122.3" y2="88.08"/><line class="auditor-node-2-cls-21" x1="48.2" y1="126.28" x2="21.5" y2="88.08"/><line class="auditor-node-2-cls-21" x1="99.6" y1="126.28" x2="48.2" y2="126.28"/><line class="auditor-node-2-cls-21" x1="48.2" y1="49.48" x2="99.6" y2="126.28"/><line class="auditor-node-2-cls-21" x1="48.2" y1="126.28" x2="99.6" y2="49.48"/><line class="auditor-node-2-cls-21" x1="122.3" y1="88.08" x2="21.5" y2="88.08"/><line class="auditor-node-2-cls-21" x1="99.6" y1="49.48" x2="21.5" y2="88.08"/><line class="auditor-node-2-cls-21" x1="122.3" y1="88.08" x2="49.1" y2="49.88"/><line class="auditor-node-2-cls-21" x1="48.2" y1="126.28" x2="48.2" y2="49.48"/><line class="auditor-node-2-cls-21" x1="99.6" y1="126.28" x2="99.6" y2="50.28"/><line class="auditor-node-2-cls-21" x1="48.2" y1="126.28" x2="122.3" y2="88.08"/><line class="auditor-node-2-cls-21" x1="99.6" y1="126.28" x2="21.5" y2="88.08"/></g><g id="Слой_3" data-name="Слой 3"><circle class="auditor-node-2-cls-22" cx="21.5" cy="88.08" r="2.5"/><circle class="auditor-node-2-cls-22" cx="48.2" cy="49.48" r="2.5"/><circle class="auditor-node-2-cls-22" cx="48.2" cy="126.28" r="2.5"/><circle class="auditor-node-2-cls-22" cx="99.6" cy="126.28" r="2.5"/><circle class="auditor-node-2-cls-22" cx="99.6" cy="49.48" r="2.5"/><circle class="auditor-node-2-cls-22" cx="122.3" cy="88.08" r="2.5"/></g></g><path class="auditor-node-2-cls-5" d="M61.6,36.28,29.8,54.68a1.55,1.55,0,0,1-2-.5l-6.7-11.8a1.55,1.55,0,0,1,.5-2L53.4,22a1.55,1.55,0,0,1,2,.5l6.7,11.8a1.33,1.33,0,0,1-.5,2Z"/><path class="auditor-node-2-cls-5" d="M45.8,45.48l-15.9,9.2a1.55,1.55,0,0,1-2-.5l-6.7-11.8a1.55,1.55,0,0,1,.5-2l16-9.2"/><path class="auditor-node-2-cls-6" d="M37.5,31.18l15.8-9.1a1.55,1.55,0,0,1,2,.5L62,34.38a1.38,1.38,0,0,1-.4,2c.1.1-.1.1-.1.1l-15.9,9.2"/><path class="auditor-node-2-cls-23" d="M32.3,44l-4.9,2.8a1.25,1.25,0,0,1-1.7-.4l-2.1-3.9a1.25,1.25,0,0,1,.4-1.7L28.9,38a1.25,1.25,0,0,1,1.7.4l2.3,3.9A1.83,1.83,0,0,1,32.3,44Z"/><path class="auditor-node-2-cls-14" d="M40.4,39.28l-4.9,2.8a1.25,1.25,0,0,1-1.7-.4l-2.3-3.9a1.25,1.25,0,0,1,.4-1.7l4.9-2.8a1.25,1.25,0,0,1,1.7.4l2.3,3.9A1.29,1.29,0,0,1,40.4,39.28Z"/><path class="auditor-node-2-cls-24" d="M48.2,34.78l-4.9,2.8a1.25,1.25,0,0,1-1.7-.4l-2.3-3.9a1.25,1.25,0,0,1,.4-1.7l4.9-2.8a1.25,1.25,0,0,1,1.7.4l2.3,3.9A1.15,1.15,0,0,1,48.2,34.78Z"/><path class="auditor-node-2-cls-25" d="M56.1,30.18,51.2,33a1.25,1.25,0,0,1-1.7-.4l-2.3-3.9a1.25,1.25,0,0,1,.4-1.7l4.9-2.8a1.25,1.25,0,0,1,1.7.4l2.3,3.9A1.2,1.2,0,0,1,56.1,30.18Z"/><rect class="auditor-node-2-cls-26" x="49.88" y="35.57" width="0.6" height="4.6" transform="matrix(0.86, -0.5, 0.5, 0.86, -12.23, 30.32)"/><rect class="auditor-node-2-cls-26" x="48.57" y="36.2" width="0.6" height="4.6" transform="translate(-12.73 29.75) rotate(-30.15)"/><rect class="auditor-node-2-cls-26" x="47.36" y="36.91" width="0.6" height="4.6" transform="matrix(0.86, -0.5, 0.5, 0.86, -13.24, 29.24)"/><rect class="auditor-node-2-cls-26" x="46.16" y="37.61" width="0.6" height="4.6" transform="matrix(0.86, -0.5, 0.5, 0.86, -13.76, 28.73)"/><rect class="auditor-node-2-cls-26" x="44.97" y="38.39" width="0.6" height="4.6" transform="matrix(0.86, -0.5, 0.5, 0.86, -14.31, 28.24)"/><rect class="auditor-node-2-cls-26" x="43.86" y="39" width="0.6" height="4.6" transform="translate(-14.77 27.77) rotate(-30.15)"/><rect class="auditor-node-2-cls-26" x="42.66" y="39.71" width="0.6" height="4.6" transform="translate(-15.29 27.26) rotate(-30.15)"/><rect class="auditor-node-2-cls-26" x="41.49" y="40.37" width="0.6" height="4.6" transform="matrix(0.86, -0.5, 0.5, 0.86, -15.78, 26.76)"/><rect class="auditor-node-2-cls-26" x="40.35" y="40.98" width="0.6" height="4.6" transform="translate(-16.24 26.27) rotate(-30.15)"/><rect class="auditor-node-2-cls-26" x="39.09" y="41.81" width="0.6" height="4.6" transform="matrix(0.86, -0.5, 0.5, 0.86, -16.82, 25.75)"/><rect class="auditor-node-2-cls-26" x="37.77" y="42.48" width="0.6" height="4.6" transform="translate(-17.34 25.18) rotate(-30.15)"/><rect class="auditor-node-2-cls-26" x="36.76" y="43.16" width="0.6" height="4.6" transform="translate(-17.82 24.76) rotate(-30.15)"/><rect class="auditor-node-2-cls-26" x="35.48" y="43.87" width="0.6" height="4.6" transform="matrix(0.86, -0.5, 0.5, 0.86, -18.35, 24.21)"/><rect class="auditor-node-2-cls-26" x="34.27" y="44.57" width="0.6" height="4.6" transform="matrix(0.86, -0.5, 0.5, 0.86, -18.87, 23.7)"/><rect class="auditor-node-2-cls-26" x="33.06" y="45.28" width="0.6" height="4.6" transform="matrix(0.86, -0.5, 0.5, 0.86, -19.38, 23.19)"/><rect class="auditor-node-2-cls-26" x="31.78" y="45.98" width="0.6" height="4.6" transform="translate(-19.91 22.64) rotate(-30.15)"/><rect class="auditor-node-2-cls-26" x="30.58" y="46.69" width="0.6" height="4.6" transform="translate(-20.43 22.13) rotate(-30.15)"/><rect class="auditor-node-2-cls-26" x="29.49" y="47.38" width="0.6" height="4.6" transform="matrix(0.86, -0.5, 0.5, 0.86, -20.92, 21.68)"/><rect class="auditor-node-2-cls-26" x="28.26" y="48" width="0.6" height="4.6" transform="translate(-21.4 21.15) rotate(-30.15)"/><rect class="auditor-node-2-cls-26" x="58.27" y="30.59" width="0.6" height="4.6" transform="matrix(0.86, -0.5, 0.5, 0.86, -8.6, 33.87)"/><rect class="auditor-node-2-cls-26" x="57.19" y="31.28" width="0.6" height="4.6" transform="matrix(0.86, -0.5, 0.5, 0.86, -9.09, 33.42)"/><rect class="auditor-node-2-cls-26" x="55.89" y="32.08" width="0.6" height="4.6" transform="matrix(0.86, -0.5, 0.5, 0.86, -9.67, 32.87)"/><rect class="auditor-node-2-cls-26" x="54.55" y="32.7" width="0.6" height="4.6" transform="translate(-10.16 32.28) rotate(-30.15)"/><rect class="auditor-node-2-cls-26" x="53.5" y="33.4" width="0.6" height="4.6" transform="matrix(0.86, -0.5, 0.5, 0.86, -10.65, 31.85)"/><rect class="auditor-node-2-cls-26" x="52.29" y="34.1" width="0.6" height="4.6" transform="matrix(0.86, -0.5, 0.5, 0.86, -11.17, 31.33)"/><rect class="auditor-node-2-cls-26" x="51.06" y="34.79" width="0.6" height="4.6" transform="matrix(0.86, -0.5, 0.5, 0.86, -11.68, 30.81)"/><line class="auditor-node-2-cls-7" x1="47" y1="30.28" x2="47.3" y2="30.18"/><path class="auditor-node-2-cls-5" d="M117.9,54.78,86.2,36.18a1.59,1.59,0,0,1-.6-2l6.9-11.7a1.59,1.59,0,0,1,2-.6l31.7,18.6a1.59,1.59,0,0,1,.6,2l-6.9,11.7a1.35,1.35,0,0,1-1.9.6C118,54.88,117.9,54.78,117.9,54.78Z"/><path class="auditor-node-2-cls-5" d="M102.1,45.48l-15.9-9.3a1.59,1.59,0,0,1-.6-2l6.9-11.7a1.59,1.59,0,0,1,2-.6l15.9,9.3"/><path class="auditor-node-2-cls-6" d="M110.5,31.18l15.8,9.3a1.59,1.59,0,0,1,.6,2L120,54.18a1.35,1.35,0,0,1-1.9.6c0,.1-.1,0-.1,0l-15.8-9.3"/><path class="auditor-node-2-cls-23" d="M96.7,33l-4.9-2.9a1.28,1.28,0,0,1-.5-1.7l2.3-3.8a1.28,1.28,0,0,1,1.7-.5l4.9,2.9a1.28,1.28,0,0,1,.5,1.7l-2.2,3.9A1.56,1.56,0,0,1,96.7,33Z"/><path class="auditor-node-2-cls-27" d="M104.7,37.78l-4.9-2.9a1.28,1.28,0,0,1-.5-1.7l2.2-3.9a1.28,1.28,0,0,1,1.7-.5l4.9,2.9a1.28,1.28,0,0,1,.5,1.7l-2.2,3.9A1.31,1.31,0,0,1,104.7,37.78Z"/><path class="auditor-node-2-cls-11" d="M112.6,42.38l-4.9-2.9a1.28,1.28,0,0,1-.5-1.7l2.2-3.9a1.28,1.28,0,0,1,1.7-.5l4.9,2.9a1.28,1.28,0,0,1,.5,1.7l-2.2,3.9A1.31,1.31,0,0,1,112.6,42.38Z"/><path class="auditor-node-2-cls-25" d="M120.5,46.88,115.6,44a1.28,1.28,0,0,1-.5-1.7l2.2-3.9a1.28,1.28,0,0,1,1.7-.5l4.9,2.9a1.28,1.28,0,0,1,.5,1.7l-2.2,3.9A1.16,1.16,0,0,1,120.5,46.88Z"/><rect class="auditor-node-2-cls-26" x="108.54" y="45.29" width="4.6" height="0.6" transform="translate(15.68 118.46) rotate(-59.8)"/><rect class="auditor-node-2-cls-26" x="107.38" y="44.45" width="4.6" height="0.6" transform="translate(15.83 117.04) rotate(-59.8)"/><rect class="auditor-node-2-cls-26" x="106.16" y="43.74" width="4.6" height="0.6" transform="translate(15.84 115.63) rotate(-59.8)"/><rect class="auditor-node-2-cls-26" x="104.9" y="43.12" width="4.6" height="0.6" transform="translate(15.75 114.23) rotate(-59.8)"/><rect class="auditor-node-2-cls-26" x="103.66" y="42.37" width="4.6" height="0.6" transform="translate(15.78 112.79) rotate(-59.8)"/><rect class="auditor-node-2-cls-26" x="102.6" y="41.77" width="4.6" height="0.6" transform="translate(15.77 111.57) rotate(-59.8)"/><rect class="auditor-node-2-cls-26" x="101.38" y="41.07" width="4.6" height="0.6" transform="translate(15.78 110.17) rotate(-59.8)"/><rect class="auditor-node-2-cls-26" x="100.18" y="40.31" width="4.6" height="0.6" transform="translate(15.83 108.75) rotate(-59.8)"/><rect class="auditor-node-2-cls-26" x="99.09" y="39.67" width="4.6" height="0.6" transform="translate(15.85 107.5) rotate(-59.8)"/><rect class="auditor-node-2-cls-26" x="97.8" y="39" width="4.6" height="0.6" transform="translate(15.79 106.05) rotate(-59.8)"/><rect class="auditor-node-2-cls-26" x="96.53" y="38.18" width="4.6" height="0.6" transform="translate(15.86 104.54) rotate(-59.8)"/><rect class="auditor-node-2-cls-26" x="95.37" y="37.59" width="4.6" height="0.6" transform="translate(15.8 103.24) rotate(-59.8)"/><rect class="auditor-node-2-cls-26" x="94.14" y="36.78" width="4.6" height="0.6" transform="translate(15.88 101.79) rotate(-59.8)"/><rect class="auditor-node-2-cls-26" x="93.01" y="36.13" width="4.6" height="0.6" transform="translate(15.89 100.48) rotate(-59.8)"/><rect class="auditor-node-2-cls-26" x="91.75" y="35.5" width="4.6" height="0.6" transform="translate(15.8 99.08) rotate(-59.8)"/><rect class="auditor-node-2-cls-26" x="90.52" y="34.7" width="4.6" height="0.6" transform="translate(15.88 97.62) rotate(-59.8)"/><rect class="auditor-node-2-cls-26" x="89.3" y="33.99" width="4.6" height="0.6" transform="translate(15.89 96.22) rotate(-59.8)"/><rect class="auditor-node-2-cls-26" x="88.22" y="33.35" width="4.6" height="0.6" transform="translate(15.9 94.96) rotate(-59.8)"/><rect class="auditor-node-2-cls-26" x="87.02" y="32.69" width="4.6" height="0.6" transform="translate(15.88 93.6) rotate(-59.8)"/><rect class="auditor-node-2-cls-26" x="117.04" y="50.06" width="4.6" height="0.6" transform="translate(15.79 128.17) rotate(-59.8)"/><rect class="auditor-node-2-cls-26" x="115.91" y="49.5" width="4.6" height="0.6" transform="translate(15.71 126.92) rotate(-59.8)"/><rect class="auditor-node-2-cls-26" x="114.62" y="48.74" width="4.6" height="0.6" transform="translate(15.73 125.42) rotate(-59.8)"/><rect class="auditor-node-2-cls-26" x="113.39" y="47.93" width="4.6" height="0.6" transform="translate(15.81 123.96) rotate(-59.8)"/><rect class="auditor-node-2-cls-26" x="112.25" y="47.29" width="4.6" height="0.6" transform="translate(15.8 122.65) rotate(-59.8)"/><rect class="auditor-node-2-cls-26" x="111.11" y="46.63" width="4.6" height="0.6" transform="translate(15.81 121.35) rotate(-59.8)"/><rect class="auditor-node-2-cls-26" x="109.82" y="45.96" width="4.6" height="0.6" transform="translate(15.74 119.9) rotate(-59.8)"/><line class="auditor-node-2-cls-7" x1="115.9" y1="39.08" x2="116.1" y2="39.28"/><path class="auditor-node-2-cls-5" d="M86.2,139l31.8-18.4a1.55,1.55,0,0,1,2,.5l6.7,11.8a1.55,1.55,0,0,1-.5,2l-31.7,18.5a1.55,1.55,0,0,1-2-.5l-6.7-11.8a1.49,1.49,0,0,1,.4-2.1Z"/><path class="auditor-node-2-cls-5" d="M102.1,129.88l15.9-9.2a1.55,1.55,0,0,1,2,.5l6.7,11.8a1.55,1.55,0,0,1-.5,2l-16,9.2"/><path class="auditor-node-2-cls-6" d="M110.3,144.18l-15.8,9.1a1.55,1.55,0,0,1-2-.5L85.8,141a1.38,1.38,0,0,1,.4-2c-.1-.1.1-.1.1-.1l15.9-9.2"/><path class="auditor-node-2-cls-9" d="M115.6,131.38l4.9-2.8a1.25,1.25,0,0,1,1.7.4l2.1,3.9a1.25,1.25,0,0,1-.4,1.7l-4.9,2.8a1.25,1.25,0,0,1-1.7-.4l-2.3-3.9A1.57,1.57,0,0,1,115.6,131.38Z"/><path class="auditor-node-2-cls-27" d="M107.5,136l4.9-2.8a1.25,1.25,0,0,1,1.7.4l2.3,3.9a1.25,1.25,0,0,1-.4,1.7l-4.9,2.8a1.25,1.25,0,0,1-1.7-.4l-2.3-3.9A1.25,1.25,0,0,1,107.5,136Z"/><path class="auditor-node-2-cls-24" d="M99.6,140.48l4.9-2.8a1.25,1.25,0,0,1,1.7.4l2.3,3.9a1.25,1.25,0,0,1-.4,1.7l-4.9,2.8a1.25,1.25,0,0,1-1.7-.4l-2.3-3.9A1.39,1.39,0,0,1,99.6,140.48Z"/><path class="auditor-node-2-cls-25" d="M91.7,145.08l4.9-2.8a1.25,1.25,0,0,1,1.7.4l2.3,3.9a1.25,1.25,0,0,1-.4,1.7l-4.9,2.8a1.25,1.25,0,0,1-1.7-.4l-2.3-3.9A1.36,1.36,0,0,1,91.7,145.08Z"/><rect class="auditor-node-2-cls-26" x="97.39" y="135.16" width="0.6" height="4.6" transform="matrix(0.86, -0.5, 0.5, 0.86, -55.82, 67.65)"/><rect class="auditor-node-2-cls-26" x="98.56" y="134.49" width="0.6" height="4.6" transform="matrix(0.86, -0.5, 0.5, 0.86, -55.33, 68.15)"/><rect class="auditor-node-2-cls-26" x="99.76" y="133.79" width="0.6" height="4.6" transform="matrix(0.86, -0.5, 0.5, 0.86, -54.81, 68.66)"/><rect class="auditor-node-2-cls-26" x="100.97" y="133.08" width="0.6" height="4.6" transform="matrix(0.86, -0.5, 0.5, 0.86, -54.3, 69.17)"/><rect class="auditor-node-2-cls-26" x="102.15" y="132.3" width="0.6" height="4.6" transform="matrix(0.86, -0.5, 0.5, 0.86, -53.74, 69.66)"/><rect class="auditor-node-2-cls-26" x="103.26" y="131.69" width="0.6" height="4.6" transform="matrix(0.86, -0.5, 0.5, 0.86, -53.29, 70.13)"/><rect class="auditor-node-2-cls-26" x="104.47" y="130.99" width="0.6" height="4.6" transform="matrix(0.86, -0.5, 0.5, 0.86, -52.77, 70.65)"/><rect class="auditor-node-2-cls-26" x="105.77" y="130.36" width="0.6" height="4.6" transform="matrix(0.86, -0.5, 0.5, 0.86, -52.28, 71.22)"/><rect class="auditor-node-2-cls-26" x="106.86" y="129.67" width="0.6" height="4.6" transform="matrix(0.86, -0.5, 0.5, 0.86, -51.78, 71.67)"/><rect class="auditor-node-2-cls-26" x="108.09" y="128.97" width="0.6" height="4.6" transform="matrix(0.86, -0.5, 0.5, 0.86, -51.27, 72.19)"/><rect class="auditor-node-2-cls-26" x="109.44" y="128.17" width="0.6" height="4.6" transform="matrix(0.86, -0.5, 0.5, 0.86, -50.68, 72.76)"/><rect class="auditor-node-2-cls-26" x="110.45" y="127.48" width="0.6" height="4.6" transform="matrix(0.86, -0.5, 0.5, 0.86, -50.2, 73.18)"/><rect class="auditor-node-2-cls-26" x="111.78" y="126.86" width="0.6" height="4.6" transform="matrix(0.86, -0.5, 0.5, 0.86, -49.71, 73.76)"/><rect class="auditor-node-2-cls-26" x="112.99" y="126.16" width="0.6" height="4.6" transform="matrix(0.86, -0.5, 0.5, 0.86, -49.19, 74.27)"/><rect class="auditor-node-2-cls-26" x="114.15" y="125.37" width="0.6" height="4.6" transform="matrix(0.86, -0.5, 0.5, 0.86, -48.64, 74.75)"/><rect class="auditor-node-2-cls-26" x="115.39" y="124.8" width="0.6" height="4.6" transform="matrix(0.86, -0.5, 0.5, 0.86, -48.18, 75.29)"/><rect class="auditor-node-2-cls-26" x="116.6" y="124.09" width="0.6" height="4.6" transform="matrix(0.86, -0.5, 0.5, 0.86, -47.67, 75.81)"/><rect class="auditor-node-2-cls-26" x="117.68" y="123.4" width="0.6" height="4.6" transform="matrix(0.86, -0.5, 0.5, 0.86, -47.17, 76.26)"/><rect class="auditor-node-2-cls-26" x="118.86" y="122.69" width="0.6" height="4.6" transform="translate(-46.66 76.75) rotate(-30.15)"/><rect class="auditor-node-2-cls-26" x="88.85" y="140.1" width="0.6" height="4.6" transform="matrix(0.86, -0.5, 0.5, 0.86, -59.46, 64.04)"/><rect class="auditor-node-2-cls-26" x="89.98" y="139.5" width="0.6" height="4.6" transform="matrix(0.86, -0.5, 0.5, 0.86, -59, 64.52)"/><rect class="auditor-node-2-cls-26" x="91.38" y="138.66" width="0.6" height="4.6" transform="matrix(0.86, -0.5, 0.5, 0.86, -58.39, 65.11)"/><rect class="auditor-node-2-cls-26" x="92.57" y="138" width="0.6" height="4.6" transform="matrix(0.86, -0.5, 0.5, 0.86, -57.9, 65.62)"/><rect class="auditor-node-2-cls-26" x="93.68" y="137.39" width="0.6" height="4.6" transform="matrix(0.86, -0.5, 0.5, 0.86, -57.44, 66.09)"/><rect class="auditor-node-2-cls-26" x="94.89" y="136.68" width="0.6" height="4.6" transform="matrix(0.86, -0.5, 0.5, 0.86, -56.92, 66.6)"/><rect class="auditor-node-2-cls-26" x="96.07" y="135.9" width="0.6" height="4.6" transform="matrix(0.86, -0.5, 0.5, 0.86, -56.37, 67.09)"/><line class="auditor-node-2-cls-7" x1="100.8" y1="145.08" x2="100.5" y2="145.08"/><path class="auditor-node-2-cls-5" d="M30,120.58l31.7,18.6a1.59,1.59,0,0,1,.6,2l-6.9,11.7a1.59,1.59,0,0,1-2,.6l-31.7-18.6a1.59,1.59,0,0,1-.6-2l6.9-11.7a1.35,1.35,0,0,1,1.9-.6C29.9,120.48,30,120.58,30,120.58Z"/><path class="auditor-node-2-cls-5" d="M45.8,129.88l15.9,9.3a1.59,1.59,0,0,1,.6,2l-6.9,11.7a1.59,1.59,0,0,1-2,.6l-15.9-9.3"/><path class="auditor-node-2-cls-6" d="M37.4,144.18l-15.8-9.3a1.59,1.59,0,0,1-.6-2l6.9-11.7a1.35,1.35,0,0,1,1.9-.6c0-.1.1,0,.1,0l15.8,9.3"/><path class="auditor-node-2-cls-23" d="M51.2,142.38l4.9,2.9a1.28,1.28,0,0,1,.5,1.7l-2.3,3.8a1.28,1.28,0,0,1-1.7.5l-4.9-2.9a1.28,1.28,0,0,1-.5-1.7l2.2-3.9A1.56,1.56,0,0,1,51.2,142.38Z"/><path class="auditor-node-2-cls-27" d="M43.1,137.58l4.9,2.9a1.28,1.28,0,0,1,.5,1.7l-2.2,3.9a1.28,1.28,0,0,1-1.7.5l-4.9-2.9a1.28,1.28,0,0,1-.5-1.7l2.2-3.9A1.34,1.34,0,0,1,43.1,137.58Z"/><path class="auditor-node-2-cls-24" d="M35.3,133l4.9,2.9a1.28,1.28,0,0,1,.5,1.7l-2.2,3.9a1.28,1.28,0,0,1-1.7.5l-4.9-2.9a1.28,1.28,0,0,1-.5-1.7l2.2-3.9A1.31,1.31,0,0,1,35.3,133Z"/><path class="auditor-node-2-cls-16" d="M27.4,128.38l4.9,2.9a1.28,1.28,0,0,1,.5,1.7l-2.2,3.9a1.28,1.28,0,0,1-1.7.5l-4.9-2.9a1.28,1.28,0,0,1-.5-1.7l2.2-3.9A1.34,1.34,0,0,1,27.4,128.38Z"/><rect class="auditor-node-2-cls-26" x="34.69" y="129.46" width="4.6" height="0.6" transform="translate(-93.77 96.46) rotate(-59.8)"/><rect class="auditor-node-2-cls-26" x="35.84" y="130.3" width="4.6" height="0.6" transform="translate(-93.92 97.88) rotate(-59.8)"/><rect class="auditor-node-2-cls-26" x="37.11" y="130.92" width="4.6" height="0.6" transform="translate(-93.83 99.28) rotate(-59.8)"/><rect class="auditor-node-2-cls-26" x="38.33" y="131.63" width="4.6" height="0.6" transform="translate(-93.83 100.68) rotate(-59.8)"/><rect class="auditor-node-2-cls-26" x="39.48" y="132.33" width="4.6" height="0.6" transform="translate(-93.87 102.03) rotate(-59.8)"/><rect class="auditor-node-2-cls-26" x="40.63" y="132.98" width="4.6" height="0.6" transform="translate(-93.86 103.34) rotate(-59.8)"/><rect class="auditor-node-2-cls-26" x="41.84" y="133.69" width="4.6" height="0.6" transform="translate(-93.86 104.75) rotate(-59.8)"/><rect class="auditor-node-2-cls-26" x="42.96" y="134.39" width="4.6" height="0.6" transform="translate(-93.92 106.06) rotate(-59.8)"/><rect class="auditor-node-2-cls-26" x="44.13" y="135.09" width="4.6" height="0.6" transform="translate(-93.94 107.42) rotate(-59.8)"/><rect class="auditor-node-2-cls-26" x="45.42" y="135.75" width="4.6" height="0.6" transform="translate(-93.87 108.86) rotate(-59.8)"/><rect class="auditor-node-2-cls-26" x="46.69" y="136.57" width="4.6" height="0.6" transform="translate(-93.95 110.37) rotate(-59.8)"/><rect class="auditor-node-2-cls-26" x="47.77" y="137.12" width="4.6" height="0.6" transform="translate(-93.89 111.57) rotate(-59.8)"/><rect class="auditor-node-2-cls-26" x="48.99" y="137.92" width="4.6" height="0.6" transform="translate(-93.97 113.03) rotate(-59.8)"/><rect class="auditor-node-2-cls-26" x="50.26" y="138.54" width="4.6" height="0.6" transform="translate(-93.88 114.43) rotate(-59.8)"/><rect class="auditor-node-2-cls-26" x="51.48" y="139.25" width="4.6" height="0.6" transform="translate(-93.88 115.84) rotate(-59.8)"/><rect class="auditor-node-2-cls-26" x="52.7" y="140.05" width="4.6" height="0.6" transform="translate(-93.97 117.29) rotate(-59.8)"/><rect class="auditor-node-2-cls-26" x="53.92" y="140.76" width="4.6" height="0.6" transform="translate(-93.97 118.7) rotate(-59.8)"/><rect class="auditor-node-2-cls-26" x="55" y="141.4" width="4.6" height="0.6" transform="translate(-93.99 119.95) rotate(-59.8)"/><rect class="auditor-node-2-cls-26" x="56.2" y="142.06" width="4.6" height="0.6" transform="translate(-93.97 121.32) rotate(-59.8)"/><rect class="auditor-node-2-cls-26" x="26.15" y="124.56" width="4.6" height="0.6" transform="translate(-93.77 86.64) rotate(-59.8)"/><rect class="auditor-node-2-cls-26" x="27.32" y="125.25" width="4.6" height="0.6" transform="translate(-93.79 88) rotate(-59.8)"/><rect class="auditor-node-2-cls-26" x="28.61" y="126.02" width="4.6" height="0.6" transform="translate(-93.82 89.49) rotate(-59.8)"/><rect class="auditor-node-2-cls-26" x="29.88" y="126.74" width="4.6" height="0.6" transform="translate(-93.8 90.95) rotate(-59.8)"/><rect class="auditor-node-2-cls-26" x="30.89" y="127.42" width="4.6" height="0.6" transform="translate(-93.89 92.16) rotate(-59.8)"/><rect class="auditor-node-2-cls-26" x="32.11" y="128.13" width="4.6" height="0.6" transform="translate(-93.9 93.57) rotate(-59.8)"/><rect class="auditor-node-2-cls-26" x="33.4" y="128.79" width="4.6" height="0.6" transform="translate(-93.83 95.01) rotate(-59.8)"/><line class="auditor-node-2-cls-7" x1="31.9" y1="136.28" x2="31.7" y2="136.08"/><path class="auditor-node-2-cls-5" d="M126.6,107l.2-36.8a1.61,1.61,0,0,1,1.5-1.5l13.6.1a1.61,1.61,0,0,1,1.5,1.5l-.2,36.8a1.61,1.61,0,0,1-1.5,1.5l-13.6-.1a1.47,1.47,0,0,1-1.5-1.5Z"/><path class="auditor-node-2-cls-5" d="M126.7,88.68l.1-18.4a1.61,1.61,0,0,1,1.5-1.5l13.6.1a1.61,1.61,0,0,1,1.5,1.5l-.1,18.5"/><path class="auditor-node-2-cls-6" d="M143.3,88.78l-.1,18.3a1.61,1.61,0,0,1-1.5,1.5l-13.6-.1a1.39,1.39,0,0,1-1.5-1.4c-.1,0,0-.1,0-.1l.1-18.3"/><path class="auditor-node-2-cls-9" d="M134.8,77.68V72a1.39,1.39,0,0,1,1.2-1.3l4.5.1a1.39,1.39,0,0,1,1.3,1.2v5.7a1.39,1.39,0,0,1-1.2,1.3h-4.5A1.49,1.49,0,0,1,134.8,77.68Z"/><path class="auditor-node-2-cls-14" d="M134.7,87.08v-5.7a1.39,1.39,0,0,1,1.2-1.3h4.5a1.39,1.39,0,0,1,1.3,1.2V87a1.39,1.39,0,0,1-1.2,1.3H136A1.31,1.31,0,0,1,134.7,87.08Z"/><path class="auditor-node-2-cls-11" d="M134.7,96.18v-5.7a1.39,1.39,0,0,1,1.2-1.3h4.5a1.39,1.39,0,0,1,1.3,1.2v5.7a1.39,1.39,0,0,1-1.2,1.3H136A1.18,1.18,0,0,1,134.7,96.18Z"/><path class="auditor-node-2-cls-16" d="M134.7,105.28v-5.7a1.39,1.39,0,0,1,1.2-1.3h4.5a1.39,1.39,0,0,1,1.3,1.2v5.7a1.39,1.39,0,0,1-1.2,1.3H136C135.2,106.48,134.6,105.88,134.7,105.28Z"/><rect class="auditor-node-2-cls-26" x="130.71" y="94.03" width="0.6" height="4.6" transform="translate(34.37 227.1) rotate(-89.86)"/><rect class="auditor-node-2-cls-26" x="130.8" y="92.62" width="0.6" height="4.6" transform="translate(35.86 225.78) rotate(-89.86)"/><rect class="auditor-node-2-cls-26" x="130.78" y="91.21" width="0.6" height="4.6" transform="translate(37.25 224.36) rotate(-89.86)"/><rect class="auditor-node-2-cls-26" x="130.76" y="89.8" width="0.6" height="4.6" transform="translate(38.64 222.94) rotate(-89.86)"/><rect class="auditor-node-2-cls-26" x="130.77" y="88.32" width="0.6" height="4.6" transform="translate(40.13 221.47) rotate(-89.86)"/><rect class="auditor-node-2-cls-26" x="130.73" y="87.08" width="0.6" height="4.6" transform="translate(41.33 220.19) rotate(-89.86)"/><rect class="auditor-node-2-cls-26" x="130.71" y="85.67" width="0.6" height="4.6" transform="translate(42.72 218.77) rotate(-89.86)"/><rect class="auditor-node-2-cls-26" x="130.8" y="84.36" width="0.6" height="4.6" transform="translate(44.11 217.55) rotate(-89.86)"/><rect class="auditor-node-2-cls-26" x="130.78" y="83.05" width="0.6" height="4.6" transform="translate(45.41 216.22) rotate(-89.86)"/><rect class="auditor-node-2-cls-26" x="130.79" y="81.58" width="0.6" height="4.6" transform="translate(46.89 214.76) rotate(-89.86)"/><rect class="auditor-node-2-cls-26" x="130.8" y="80" width="0.6" height="4.6" transform="translate(48.48 213.19) rotate(-89.86)"/><rect class="auditor-node-2-cls-26" x="130.75" y="78.76" width="0.6" height="4.6" transform="translate(49.68 211.91) rotate(-89.86)"/><rect class="auditor-node-2-cls-26" x="130.86" y="77.38" width="0.6" height="4.6" transform="translate(51.16 210.65) rotate(-89.86)"/><rect class="auditor-node-2-cls-26" x="130.85" y="75.97" width="0.6" height="4.6" transform="translate(52.55 209.23) rotate(-89.86)"/><rect class="auditor-node-2-cls-26" x="130.83" y="74.56" width="0.6" height="4.6" transform="translate(53.95 207.8) rotate(-89.86)"/><rect class="auditor-node-2-cls-26" x="130.84" y="73.09" width="0.6" height="4.6" transform="translate(55.43 206.34) rotate(-89.86)"/><rect class="auditor-node-2-cls-26" x="130.82" y="71.68" width="0.6" height="4.6" transform="translate(56.82 204.92) rotate(-89.86)"/><rect class="auditor-node-2-cls-26" x="130.8" y="70.47" width="0.6" height="4.6" transform="translate(58.02 203.69) rotate(-89.86)"/><rect class="auditor-node-2-cls-26" x="130.86" y="69.03" width="0.6" height="4.6" transform="translate(59.52 202.31) rotate(-89.86)"/><rect class="auditor-node-2-cls-26" x="130.76" y="103.79" width="0.6" height="4.6" transform="translate(24.64 236.89) rotate(-89.86)"/><rect class="auditor-node-2-cls-26" x="130.74" y="102.48" width="0.6" height="4.6" transform="translate(25.93 235.56) rotate(-89.86)"/><rect class="auditor-node-2-cls-26" x="130.75" y="101.01" width="0.6" height="4.6" transform="translate(27.42 234.1) rotate(-89.86)"/><rect class="auditor-node-2-cls-26" x="130.76" y="99.53" width="0.6" height="4.6" transform="translate(28.9 232.64) rotate(-89.86)"/><rect class="auditor-node-2-cls-26" x="130.81" y="98.29" width="0.6" height="4.6" transform="translate(30.2 231.46) rotate(-89.86)"/><rect class="auditor-node-2-cls-26" x="130.8" y="96.88" width="0.6" height="4.6" transform="translate(31.6 230.03) rotate(-89.86)"/><rect class="auditor-node-2-cls-26" x="130.71" y="95.4" width="0.6" height="4.6" transform="translate(32.98 228.47) rotate(-89.86)"/><line class="auditor-node-2-cls-7" x1="139.2" y1="97.38" x2="139.1" y2="97.68"/><path class="auditor-node-2-cls-5" d="M16.8,70.28l-.2,36.8a1.61,1.61,0,0,1-1.5,1.5l-13.6-.1A1.61,1.61,0,0,1,0,107l.2-36.8a1.61,1.61,0,0,1,1.5-1.5l13.6.1a1.61,1.61,0,0,1,1.5,1.5Z"/><path class="auditor-node-2-cls-5" d="M16.7,88.68l-.1,18.4a1.61,1.61,0,0,1-1.5,1.5l-13.6-.1A1.61,1.61,0,0,1,0,107l.1-18.5"/><path class="auditor-node-2-cls-6" d="M.1,88.58l.1-18.3a1.61,1.61,0,0,1,1.5-1.5l13.6.1a1.39,1.39,0,0,1,1.5,1.4c.1,0,0,.1,0,.1l-.1,18.3"/><path class="auditor-node-2-cls-9" d="M8.6,99.58v5.7a1.39,1.39,0,0,1-1.2,1.3l-4.5-.1a1.39,1.39,0,0,1-1.3-1.2v-5.7a1.39,1.39,0,0,1,1.2-1.3H7.3A1.49,1.49,0,0,1,8.6,99.58Z"/><path class="auditor-node-2-cls-14" d="M8.6,90.18v5.7a1.39,1.39,0,0,1-1.2,1.3H2.9A1.39,1.39,0,0,1,1.6,96v-5.7A1.39,1.39,0,0,1,2.8,89H7.3C8.1,89,8.7,89.58,8.6,90.18Z"/><path class="auditor-node-2-cls-11" d="M8.7,81.18v5.7a1.39,1.39,0,0,1-1.2,1.3H3A1.39,1.39,0,0,1,1.7,87v-5.7A1.39,1.39,0,0,1,2.9,80H7.4A1.18,1.18,0,0,1,8.7,81.18Z"/><path class="auditor-node-2-cls-16" d="M8.7,72v5.7A1.39,1.39,0,0,1,7.5,79H3a1.39,1.39,0,0,1-1.3-1.2v-5.7a1.39,1.39,0,0,1,1.2-1.3H7.4A1.24,1.24,0,0,1,8.7,72Z"/><rect class="auditor-node-2-cls-26" x="12.02" y="78.66" width="0.6" height="4.6" transform="translate(-68.67 93.08) rotate(-89.86)"/><rect class="auditor-node-2-cls-26" x="11.94" y="80.07" width="0.6" height="4.6" transform="translate(-70.16 94.4) rotate(-89.86)"/><rect class="auditor-node-2-cls-26" x="11.95" y="81.48" width="0.6" height="4.6" transform="translate(-71.55 95.83) rotate(-89.86)"/><rect class="auditor-node-2-cls-26" x="11.97" y="82.89" width="0.6" height="4.6" transform="translate(-72.95 97.25) rotate(-89.86)"/><rect class="auditor-node-2-cls-26" x="11.96" y="84.37" width="0.6" height="4.6" transform="translate(-74.43 98.71) rotate(-89.86)"/><rect class="auditor-node-2-cls-26" x="12.01" y="85.61" width="0.6" height="4.6" transform="translate(-75.63 100) rotate(-89.86)"/><rect class="auditor-node-2-cls-26" x="12.02" y="87.02" width="0.6" height="4.6" transform="translate(-77.02 101.42) rotate(-89.86)"/><rect class="auditor-node-2-cls-26" x="11.94" y="88.43" width="0.6" height="4.6" transform="translate(-78.52 102.74) rotate(-89.86)"/><rect class="auditor-node-2-cls-26" x="11.96" y="89.63" width="0.6" height="4.6" transform="translate(-79.71 103.96) rotate(-89.86)"/><rect class="auditor-node-2-cls-26" x="11.95" y="91.11" width="0.6" height="4.6" transform="translate(-81.19 105.43) rotate(-89.86)"/><rect class="auditor-node-2-cls-26" x="11.94" y="92.69" width="0.6" height="4.6" transform="translate(-82.78 106.99) rotate(-89.86)"/><rect class="auditor-node-2-cls-26" x="11.98" y="93.93" width="0.6" height="4.6" transform="translate(-83.98 108.27) rotate(-89.86)"/><rect class="auditor-node-2-cls-26" x="11.97" y="95.41" width="0.6" height="4.6" transform="translate(-85.46 109.74) rotate(-89.86)"/><rect class="auditor-node-2-cls-26" x="11.99" y="96.72" width="0.6" height="4.6" transform="translate(-86.76 111.06) rotate(-89.86)"/><rect class="auditor-node-2-cls-26" x="12.01" y="98.12" width="0.6" height="4.6" transform="translate(-88.15 112.48) rotate(-89.86)"/><rect class="auditor-node-2-cls-26" x="11.9" y="99.6" width="0.6" height="4.6" transform="translate(-89.73 113.85) rotate(-89.86)"/><rect class="auditor-node-2-cls-26" x="11.91" y="101.01" width="0.6" height="4.6" transform="translate(-91.13 115.27) rotate(-89.86)"/><rect class="auditor-node-2-cls-26" x="11.93" y="102.32" width="0.6" height="4.6" transform="translate(-92.42 116.59) rotate(-89.86)"/><rect class="auditor-node-2-cls-26" x="11.87" y="103.66" width="0.6" height="4.6" transform="translate(-93.82 117.87) rotate(-89.86)"/><rect class="auditor-node-2-cls-26" x="11.98" y="68.89" width="0.6" height="4.6" transform="translate(-58.94 83.3) rotate(-89.86)"/><rect class="auditor-node-2-cls-26" x="12" y="70.2" width="0.6" height="4.6" transform="translate(-60.24 84.62) rotate(-89.86)"/><rect class="auditor-node-2-cls-26" x="11.99" y="71.78" width="0.6" height="4.6" transform="translate(-61.82 86.19) rotate(-89.86)"/><rect class="auditor-node-2-cls-26" x="11.98" y="73.16" width="0.6" height="4.6" transform="translate(-63.21 87.55) rotate(-89.86)"/><rect class="auditor-node-2-cls-26" x="11.92" y="74.4" width="0.6" height="4.6" transform="translate(-64.51 88.73) rotate(-89.86)"/><rect class="auditor-node-2-cls-26" x="11.94" y="75.81" width="0.6" height="4.6" transform="translate(-65.9 90.15) rotate(-89.86)"/><rect class="auditor-node-2-cls-26" x="12.03" y="77.28" width="0.6" height="4.6" transform="translate(-67.28 91.72) rotate(-89.86)"/><line class="auditor-node-2-cls-7" x1="4.2" y1="79.88" x2="4.3" y2="79.58"/></g></g></g></svg>