<svg xmlns="http://www.w3.org/2000/svg" viewBox="0 0 143.18 134.05"><defs><style>.cls-1,.cls-9{fill:#2e424a;}.cls-2{fill:#2b3a43;}.cls-3{fill:#d8e3e6;}.cls-4{fill:#00b8a1;}.cls-5{fill:#0096ea;}.cls-6{fill:#17242a;}.cls-7{fill:#152024;}.cls-8{fill:#c8d1d4;}.cls-9{stroke:#2e424a;}.cls-10,.cls-9{stroke-miterlimit:10;}.cls-10{fill:#f7333a;stroke:#152024;}</style></defs><title>Blockchain-based</title><g id="Слой_2" data-name="Слой 2"><g id="Слой_1-2" data-name="Слой 1"><rect class="cls-1" x="21.53" y="8.42" width="39.55" height="16.58" rx="1.53" ry="1.53" transform="translate(-2.83 22.78) rotate(-29.86)"/><path class="cls-2" d="M37.18,9.52,53.11.37C53.78,0,54.53,0,54.78.46l7.35,12.8c.25.44-.09,1.1-.77,1.49l-16,9.16"/><rect class="cls-3" x="22.13" y="10.51" width="35.15" height="6.93" rx="1.22" ry="1.22" transform="translate(-1.69 21.62) rotate(-29.86)"/><circle class="cls-4" cx="27.62" cy="20.9" r="0.93"/><circle class="cls-4" cx="30.84" cy="19.06" r="0.93"/><circle class="cls-5" cx="34.03" cy="17.22" r="0.93"/><rect class="cls-6" x="27.94" y="26.46" width="0.56" height="4.48" transform="translate(-10.54 17.86) rotate(-29.86)"/><rect class="cls-6" x="28.85" y="25.94" width="0.56" height="4.48" transform="translate(-10.16 18.24) rotate(-29.86)"/><rect class="cls-6" x="29.82" y="25.38" width="0.56" height="4.48" transform="translate(-9.75 18.65) rotate(-29.86)"/><rect class="cls-6" x="30.74" y="24.85" width="0.56" height="4.48" transform="translate(-9.37 19.04) rotate(-29.86)"/><rect class="cls-6" x="31.66" y="24.33" width="0.56" height="4.48" transform="translate(-8.99 19.43) rotate(-29.86)"/><rect class="cls-6" x="32.63" y="23.77" width="0.56" height="4.48" transform="translate(-8.58 19.84) rotate(-29.86)"/><rect class="cls-6" x="33.54" y="23.24" width="0.56" height="4.48" transform="translate(-8.2 20.22) rotate(-29.86)"/><rect class="cls-6" x="34.46" y="22.72" width="0.56" height="4.48" transform="translate(-7.81 20.61) rotate(-29.86)"/><rect class="cls-6" x="35.43" y="22.16" width="0.56" height="4.48" transform="translate(-7.41 21.02) rotate(-29.86)"/><rect class="cls-6" x="36.35" y="21.63" width="0.56" height="4.48" transform="translate(-7.02 21.4) rotate(-29.86)"/><rect class="cls-6" x="37.27" y="21.11" width="0.56" height="4.48" transform="translate(-6.64 21.79) rotate(-29.86)"/><rect class="cls-6" x="38.24" y="20.55" width="0.56" height="4.48" transform="translate(-6.23 22.2) rotate(-29.86)"/><rect class="cls-6" x="39.2" y="20" width="0.56" height="4.48" transform="translate(-5.83 22.61) rotate(-29.86)"/><rect class="cls-6" x="40.12" y="19.47" width="0.56" height="4.48" transform="translate(-5.45 22.99) rotate(-29.86)"/><rect class="cls-6" x="41.09" y="18.91" width="0.56" height="4.48" transform="translate(-5.04 23.4) rotate(-29.86)"/><rect class="cls-6" x="42.01" y="18.38" width="0.56" height="4.48" transform="translate(-4.65 23.79) rotate(-29.86)"/><rect class="cls-6" x="42.93" y="17.86" width="0.56" height="4.48" transform="translate(-4.27 24.18) rotate(-29.86)"/><rect class="cls-7" x="43.9" y="17.3" width="0.56" height="4.48" transform="translate(-3.86 24.59) rotate(-29.86)"/><rect class="cls-7" x="44.81" y="16.78" width="0.56" height="4.48" transform="translate(-3.48 24.97) rotate(-29.86)"/><rect class="cls-7" x="45.73" y="16.25" width="0.56" height="4.48" transform="translate(-3.1 25.36) rotate(-29.86)"/><rect class="cls-7" x="46.7" y="15.69" width="0.56" height="4.48" transform="translate(-2.69 25.77) rotate(-29.86)"/><rect class="cls-7" x="47.62" y="15.16" width="0.56" height="4.48" transform="translate(-2.31 26.16) rotate(-29.86)"/><rect class="cls-7" x="48.54" y="14.64" width="0.56" height="4.48" transform="translate(-1.92 26.54) rotate(-29.86)"/><rect class="cls-7" x="49.51" y="14.08" width="0.56" height="4.48" transform="translate(-1.52 26.95) rotate(-29.86)"/><rect class="cls-7" x="50.43" y="13.55" width="0.56" height="4.48" transform="translate(-1.13 27.34) rotate(-29.86)"/><rect class="cls-7" x="51.4" y="12.99" width="0.56" height="4.48" transform="translate(-0.72 27.75) rotate(-29.86)"/><rect class="cls-7" x="52.32" y="12.47" width="0.56" height="4.48" transform="translate(-0.34 28.14) rotate(-29.86)"/><rect class="cls-7" x="53.24" y="11.94" width="0.56" height="4.48" transform="translate(0.04 28.52) rotate(-29.86)"/><rect class="cls-7" x="54.21" y="11.38" width="0.56" height="4.48" transform="translate(0.45 28.93) rotate(-29.86)"/><rect class="cls-7" x="55.12" y="10.86" width="0.56" height="4.48" transform="translate(0.83 29.32) rotate(-29.86)"/><rect class="cls-7" x="56.04" y="10.33" width="0.56" height="4.48" transform="translate(1.22 29.71) rotate(-29.86)"/><rect class="cls-7" x="57.01" y="9.77" width="0.56" height="4.48" transform="translate(1.62 30.12) rotate(-29.86)"/><rect class="cls-7" x="57.93" y="9.25" width="0.56" height="4.48" transform="translate(2.01 30.5) rotate(-29.86)"/><path class="cls-8" d="M38,11,52.17,2.82a1.21,1.21,0,0,1,1.65.45l2.24,3.91a1.22,1.22,0,0,1-.44,1.65L41.45,17"/><rect class="cls-1" x="85.23" y="8.22" width="39.55" height="16.58" rx="1.53" ry="1.53" transform="translate(22.31 -50.28) rotate(29.99)"/><path class="cls-2" d="M109.15,9.33l15.91,9.18c.67.39,1,1,.76,1.48l-7.38,12.8c-.25.43-1,.46-1.67.08l-15.94-9.2"/><rect class="cls-3" x="88.99" y="10.28" width="35.15" height="6.93" rx="1.22" ry="1.22" transform="translate(21.14 -51.42) rotate(29.99)"/><circle class="cls-4" cx="94.5" cy="6.78" r="0.93"/><circle class="cls-4" cx="97.71" cy="8.64" r="0.93"/><circle class="cls-5" cx="100.91" cy="10.47" r="0.93"/><rect class="cls-6" x="87.77" y="8.98" width="0.56" height="4.48" transform="translate(17.4 -42.51) rotate(29.99)"/><rect class="cls-6" x="88.69" y="9.5" width="0.56" height="4.48" transform="translate(17.78 -42.9) rotate(29.99)"/><rect class="cls-6" x="89.66" y="10.06" width="0.56" height="4.48" transform="translate(18.19 -43.31) rotate(29.99)"/><rect class="cls-6" x="90.58" y="10.59" width="0.56" height="4.48" transform="translate(18.58 -43.7) rotate(29.99)"/><rect class="cls-6" x="91.49" y="11.12" width="0.56" height="4.48" transform="translate(18.97 -44.08) rotate(29.99)"/><rect class="cls-6" x="92.46" y="11.68" width="0.56" height="4.48" transform="translate(19.38 -44.49) rotate(29.99)"/><rect class="cls-6" x="93.37" y="12.21" width="0.56" height="4.48" transform="translate(19.76 -44.88) rotate(29.99)"/><rect class="cls-6" x="94.29" y="12.74" width="0.56" height="4.48" transform="translate(20.15 -45.27) rotate(29.99)"/><rect class="cls-6" x="95.26" y="13.3" width="0.56" height="4.48" transform="translate(20.56 -45.68) rotate(29.99)"/><rect class="cls-6" x="96.18" y="13.83" width="0.56" height="4.48" transform="translate(20.95 -46.06) rotate(29.99)"/><rect class="cls-6" x="97.09" y="14.35" width="0.56" height="4.48" transform="translate(21.33 -46.45) rotate(29.99)"/><rect class="cls-6" x="98.06" y="14.91" width="0.56" height="4.48" transform="translate(21.74 -46.86) rotate(29.99)"/><rect class="cls-6" x="99.03" y="15.47" width="0.56" height="4.48" transform="translate(22.15 -47.27) rotate(29.99)"/><rect class="cls-6" x="99.94" y="16" width="0.56" height="4.48" transform="translate(22.54 -47.66) rotate(29.99)"/><rect class="cls-6" x="100.91" y="16.56" width="0.56" height="4.48" transform="translate(22.95 -48.07) rotate(29.99)"/><rect class="cls-6" x="101.83" y="17.09" width="0.56" height="4.48" transform="translate(23.33 -48.45) rotate(29.99)"/><rect class="cls-6" x="102.75" y="17.62" width="0.56" height="4.48" transform="translate(23.72 -48.84) rotate(29.99)"/><rect class="cls-7" x="103.72" y="18.18" width="0.56" height="4.48" transform="translate(24.13 -49.25) rotate(29.99)"/><rect class="cls-7" x="104.63" y="18.7" width="0.56" height="4.48" transform="translate(24.51 -49.64) rotate(29.99)"/><rect class="cls-7" x="105.54" y="19.23" width="0.56" height="4.48" transform="translate(24.9 -50.02) rotate(29.99)"/><rect class="cls-7" x="106.52" y="19.79" width="0.56" height="4.48" transform="translate(25.31 -50.43) rotate(29.99)"/><rect class="cls-7" x="107.43" y="20.32" width="0.56" height="4.48" transform="translate(25.7 -50.82) rotate(29.99)"/><rect class="cls-7" x="108.35" y="20.85" width="0.56" height="4.48" transform="translate(26.09 -51.21) rotate(29.99)"/><rect class="cls-7" x="109.32" y="21.41" width="0.56" height="4.48" transform="translate(26.5 -51.62) rotate(29.99)"/><rect class="cls-7" x="110.24" y="21.94" width="0.56" height="4.48" transform="translate(26.88 -52.01) rotate(29.99)"/><rect class="cls-7" x="111.21" y="22.5" width="0.56" height="4.48" transform="translate(27.3 -52.42) rotate(29.99)"/><rect class="cls-7" x="112.13" y="23.03" width="0.56" height="4.48" transform="translate(27.68 -52.8) rotate(29.99)"/><rect class="cls-7" x="113.04" y="23.56" width="0.56" height="4.48" transform="translate(28.07 -53.19) rotate(29.99)"/><rect class="cls-7" x="114.01" y="24.12" width="0.56" height="4.48" transform="translate(28.48 -53.6) rotate(29.99)"/><rect class="cls-7" x="114.92" y="24.64" width="0.56" height="4.48" transform="translate(28.86 -53.99) rotate(29.99)"/><rect class="cls-7" x="115.84" y="25.17" width="0.56" height="4.48" transform="translate(29.25 -54.37) rotate(29.99)"/><rect class="cls-7" x="116.81" y="25.73" width="0.56" height="4.48" transform="translate(29.66 -54.78) rotate(29.99)"/><rect class="cls-7" x="117.73" y="26.26" width="0.56" height="4.48" transform="translate(30.05 -55.17) rotate(29.99)"/><path class="cls-8" d="M108.32,10.76l14.15,8.16a1.22,1.22,0,0,1,.44,1.65l-2.26,3.91a1.21,1.21,0,0,1-1.65.45l-14.14-8.17"/><rect class="cls-1" x="-11.46" y="58.61" width="39.55" height="16.58" rx="1.53" ry="1.53" transform="translate(-58.59 75.1) rotate(-89.9)"/><path class="cls-2" d="M0,66.88l0-18.37c0-.78.41-1.4.91-1.4l14.77,0c.5,0,.9.63.9,1.41l0,18.41"/><rect class="cls-3" x="-12.42" y="63.46" width="35.15" height="6.93" rx="1.22" ry="1.22" transform="translate(-61.78 71.96) rotate(-89.9)"/><circle class="cls-4" cx="5.13" cy="80.84" r="0.93"/><circle class="cls-4" cx="5.13" cy="77.14" r="0.93"/><circle class="cls-5" cx="5.13" cy="73.45" r="0.93"/><rect class="cls-6" x="11.9" y="81.99" width="0.56" height="4.48" transform="translate(-72.07 96.27) rotate(-89.9)"/><rect class="cls-6" x="11.9" y="80.93" width="0.56" height="4.48" transform="translate(-71.01 95.22) rotate(-89.9)"/><rect class="cls-6" x="11.91" y="79.81" width="0.56" height="4.48" transform="translate(-69.88 94.1) rotate(-89.9)"/><rect class="cls-6" x="11.91" y="78.75" width="0.56" height="4.48" transform="translate(-68.82 93.04) rotate(-89.9)"/><rect class="cls-6" x="11.91" y="77.69" width="0.56" height="4.48" transform="translate(-67.76 91.99) rotate(-89.9)"/><rect class="cls-6" x="11.91" y="76.57" width="0.56" height="4.48" transform="translate(-66.64 90.87) rotate(-89.9)"/><rect class="cls-6" x="11.91" y="75.52" width="0.56" height="4.48" transform="translate(-65.59 89.82) rotate(-89.9)"/><rect class="cls-6" x="11.91" y="74.46" width="0.56" height="4.48" transform="translate(-64.53 88.77) rotate(-89.9)"/><rect class="cls-6" x="11.92" y="73.34" width="0.56" height="4.48" transform="translate(-63.41 87.65) rotate(-89.9)"/><rect class="cls-6" x="11.92" y="72.28" width="0.56" height="4.48" transform="translate(-62.35 86.6) rotate(-89.9)"/><rect class="cls-6" x="11.92" y="71.23" width="0.56" height="4.48" transform="translate(-61.29 85.54) rotate(-89.9)"/><rect class="cls-6" x="11.92" y="70.1" width="0.56" height="4.48" transform="translate(-60.16 84.43) rotate(-89.9)"/><rect class="cls-6" x="11.92" y="68.99" width="0.56" height="4.48" transform="translate(-59.05 83.32) rotate(-89.9)"/><rect class="cls-6" x="11.92" y="67.94" width="0.56" height="4.48" transform="translate(-57.99 82.26) rotate(-89.9)"/><rect class="cls-6" x="11.93" y="66.81" width="0.56" height="4.48" transform="translate(-56.87 81.15) rotate(-89.9)"/><rect class="cls-6" x="11.93" y="65.76" width="0.56" height="4.48" transform="translate(-55.81 80.09) rotate(-89.9)"/><rect class="cls-6" x="11.93" y="64.7" width="0.56" height="4.48" transform="translate(-54.75 79.04) rotate(-89.9)"/><rect class="cls-7" x="11.93" y="63.58" width="0.56" height="4.48" transform="translate(-53.63 77.92) rotate(-89.9)"/><rect class="cls-7" x="11.93" y="62.53" width="0.56" height="4.48" transform="translate(-52.57 76.87) rotate(-89.9)"/><rect class="cls-7" x="11.94" y="61.47" width="0.56" height="4.48" transform="translate(-51.51 75.82) rotate(-89.9)"/><rect class="cls-7" x="11.94" y="60.35" width="0.56" height="4.48" transform="translate(-50.39 74.7) rotate(-89.9)"/><rect class="cls-7" x="11.94" y="59.29" width="0.56" height="4.48" transform="translate(-49.33 73.65) rotate(-89.9)"/><rect class="cls-7" x="11.94" y="58.23" width="0.56" height="4.48" transform="translate(-48.27 72.59) rotate(-89.9)"/><rect class="cls-7" x="11.94" y="57.11" width="0.56" height="4.48" transform="translate(-47.15 71.47) rotate(-89.9)"/><rect class="cls-7" x="11.94" y="56.05" width="0.56" height="4.48" transform="translate(-46.08 70.42) rotate(-89.9)"/><rect class="cls-7" x="11.95" y="54.93" width="0.56" height="4.48" transform="translate(-44.96 69.3) rotate(-89.9)"/><rect class="cls-7" x="11.95" y="53.87" width="0.56" height="4.48" transform="translate(-43.9 68.24) rotate(-89.9)"/><rect class="cls-7" x="11.95" y="52.81" width="0.56" height="4.48" transform="translate(-42.84 67.19) rotate(-89.9)"/><rect class="cls-7" x="11.95" y="51.69" width="0.56" height="4.48" transform="translate(-41.72 66.07) rotate(-89.9)"/><rect class="cls-7" x="11.95" y="50.64" width="0.56" height="4.48" transform="translate(-40.66 65.02) rotate(-89.9)"/><rect class="cls-7" x="11.96" y="49.58" width="0.56" height="4.48" transform="translate(-39.61 63.97) rotate(-89.9)"/><rect class="cls-7" x="11.96" y="48.46" width="0.56" height="4.48" transform="translate(-38.48 62.85) rotate(-89.9)"/><rect class="cls-7" x="11.96" y="47.4" width="0.56" height="4.48" transform="translate(-37.42 61.8) rotate(-89.9)"/><path class="cls-8" d="M1.68,66.88l0-16.33a1.19,1.19,0,0,1,1.21-1.2H7.44a1.21,1.21,0,0,1,1.2,1.21l0,16.34"/><rect class="cls-1" x="115.04" y="58.61" width="39.55" height="16.58" rx="1.53" ry="1.53" transform="translate(202.26 -67.65) rotate(90.23)"/><path class="cls-2" d="M143.11,66.93,143,85.3c0,.78-.41,1.4-.91,1.4l-14.76-.06c-.5,0-.91-.63-.9-1.41l.07-18.4"/><rect class="cls-3" x="120.42" y="63.41" width="35.15" height="6.93" rx="1.22" ry="1.22" transform="translate(205.42 -70.84) rotate(90.23)"/><circle class="cls-4" cx="138.05" cy="52.95" r="0.93"/><circle class="cls-4" cx="138.03" cy="56.66" r="0.93"/><circle class="cls-5" cx="138.02" cy="60.34" r="0.93"/><rect class="cls-6" x="130.72" y="47.32" width="0.56" height="4.48" transform="matrix(0, 1, -1, 0, 181.08, -81.24)"/><rect class="cls-6" x="130.71" y="48.37" width="0.56" height="4.48" transform="translate(182.13 -80.18) rotate(90.23)"/><rect class="cls-6" x="130.71" y="49.49" width="0.56" height="4.48" transform="translate(183.25 -79.05) rotate(90.23)"/><rect class="cls-6" x="130.71" y="50.55" width="0.56" height="4.48" transform="translate(184.3 -77.98) rotate(90.23)"/><rect class="cls-6" x="130.7" y="51.61" width="0.56" height="4.48" transform="matrix(0, 1, -1, 0, 185.36, -76.91)"/><rect class="cls-6" x="130.7" y="52.73" width="0.56" height="4.48" transform="translate(186.47 -75.78) rotate(90.23)"/><rect class="cls-6" x="130.69" y="53.78" width="0.56" height="4.48" transform="translate(187.52 -74.72) rotate(90.23)"/><rect class="cls-6" x="130.69" y="54.84" width="0.56" height="4.48" transform="matrix(0, 1, -1, 0, 188.57, -73.66)"/><rect class="cls-6" x="130.68" y="55.96" width="0.56" height="4.48" transform="matrix(0, 1, -1, 0, 189.69, -72.53)"/><rect class="cls-6" x="130.68" y="57.02" width="0.56" height="4.48" transform="translate(190.74 -71.46) rotate(90.23)"/><rect class="cls-6" x="130.68" y="58.08" width="0.56" height="4.48" transform="translate(191.8 -70.4) rotate(90.23)"/><rect class="cls-6" x="130.67" y="59.2" width="0.56" height="4.48" transform="translate(192.91 -69.27) rotate(90.23)"/><rect class="cls-6" x="130.67" y="60.31" width="0.56" height="4.48" transform="translate(194.02 -68.14) rotate(90.23)"/><rect class="cls-6" x="130.66" y="61.37" width="0.56" height="4.48" transform="translate(195.07 -67.08) rotate(90.23)"/><rect class="cls-6" x="130.66" y="62.49" width="0.56" height="4.48" transform="translate(196.19 -65.95) rotate(90.23)"/><rect class="cls-6" x="130.65" y="63.55" width="0.56" height="4.48" transform="translate(197.25 -64.88) rotate(90.23)"/><rect class="cls-6" x="130.65" y="64.6" width="0.56" height="4.48" transform="translate(198.3 -63.82) rotate(90.23)"/><rect class="cls-7" x="130.64" y="65.72" width="0.56" height="4.48" transform="translate(199.42 -62.69) rotate(90.23)"/><rect class="cls-7" x="130.64" y="66.78" width="0.56" height="4.48" transform="translate(200.46 -61.63) rotate(90.23)"/><rect class="cls-7" x="130.64" y="67.83" width="0.56" height="4.48" transform="translate(201.51 -60.56) rotate(90.23)"/><rect class="cls-7" x="130.63" y="68.95" width="0.56" height="4.48" transform="matrix(0, 1, -1, 0, 202.63, -59.43)"/><rect class="cls-7" x="130.63" y="70.01" width="0.56" height="4.48" transform="translate(203.69 -58.36) rotate(90.23)"/><rect class="cls-7" x="130.62" y="71.07" width="0.56" height="4.48" transform="translate(204.74 -57.3) rotate(90.23)"/><rect class="cls-7" x="130.62" y="72.19" width="0.56" height="4.48" transform="translate(205.86 -56.17) rotate(90.23)"/><rect class="cls-7" x="130.61" y="73.25" width="0.56" height="4.48" transform="translate(206.91 -55.1) rotate(90.23)"/><rect class="cls-7" x="130.61" y="74.38" width="0.56" height="4.48" transform="translate(208.03 -53.96) rotate(90.23)"/><rect class="cls-7" x="130.61" y="75.43" width="0.56" height="4.48" transform="translate(209.09 -52.9) rotate(90.23)"/><rect class="cls-7" x="130.6" y="76.49" width="0.56" height="4.48" transform="translate(210.14 -51.83) rotate(90.23)"/><rect class="cls-7" x="130.6" y="77.61" width="0.56" height="4.48" transform="translate(211.26 -50.7) rotate(90.23)"/><rect class="cls-7" x="130.59" y="78.66" width="0.56" height="4.48" transform="translate(212.3 -49.64) rotate(90.23)"/><rect class="cls-7" x="130.59" y="79.72" width="0.56" height="4.48" transform="translate(213.35 -48.58) rotate(90.23)"/><rect class="cls-7" x="130.58" y="80.84" width="0.56" height="4.48" transform="translate(214.47 -47.45) rotate(90.23)"/><rect class="cls-7" x="130.58" y="81.9" width="0.56" height="4.48" transform="translate(215.53 -46.38) rotate(90.23)"/><path class="cls-8" d="M141.45,66.92l-.06,16.34a1.21,1.21,0,0,1-1.21,1.2l-4.52,0a1.21,1.21,0,0,1-1.2-1.21l.06-16.34"/><rect class="cls-1" x="19.88" y="108.02" width="39.55" height="16.58" rx="1.53" ry="1.53" transform="translate(3.19 233.66) rotate(-143.91)"/><path class="cls-2" d="M34.77,123,19.92,112.19c-.62-.46-.89-1.15-.6-1.56L28,98.7c.29-.41,1-.36,1.67.09l14.87,10.85"/><rect class="cls-3" x="20.24" y="115.43" width="35.15" height="6.93" rx="1.22" ry="1.22" transform="translate(-1.66 237.24) rotate(-143.91)"/><circle class="cls-4" cx="49.06" cy="127.09" r="0.93"/><circle class="cls-4" cx="46.07" cy="124.91" r="0.93"/><circle class="cls-5" cx="43.09" cy="122.75" r="0.93"/><rect class="cls-6" x="55.67" y="121.13" width="0.56" height="4.48" transform="translate(28.49 256.02) rotate(-143.91)"/><rect class="cls-6" x="54.81" y="120.51" width="0.56" height="4.48" transform="translate(27.31 254.4) rotate(-143.91)"/><rect class="cls-6" x="53.9" y="119.85" width="0.56" height="4.48" transform="translate(26.06 252.67) rotate(-143.91)"/><rect class="cls-6" x="53.05" y="119.23" width="0.56" height="4.48" transform="translate(24.88 251.04) rotate(-143.91)"/><rect class="cls-6" x="52.2" y="118.6" width="0.56" height="4.48" transform="translate(23.7 249.41) rotate(-143.91)"/><rect class="cls-6" x="51.29" y="117.94" width="0.56" height="4.48" transform="translate(22.45 247.68) rotate(-143.91)"/><rect class="cls-6" x="50.44" y="117.32" width="0.56" height="4.48" transform="translate(21.28 246.06) rotate(-143.91)"/><rect class="cls-6" x="49.59" y="116.7" width="0.56" height="4.48" transform="translate(20.11 244.43) rotate(-143.91)"/><rect class="cls-6" x="48.68" y="116.04" width="0.56" height="4.48" transform="translate(18.86 242.7) rotate(-143.91)"/><rect class="cls-6" x="47.82" y="115.42" width="0.56" height="4.48" transform="translate(17.68 241.07) rotate(-143.91)"/><rect class="cls-6" x="46.97" y="114.79" width="0.56" height="4.48" transform="translate(16.5 239.44) rotate(-143.91)"/><rect class="cls-6" x="46.06" y="114.13" width="0.56" height="4.48" transform="translate(15.25 237.71) rotate(-143.91)"/><rect class="cls-6" x="45.16" y="113.48" width="0.56" height="4.48" transform="matrix(-0.81, -0.59, 0.59, -0.81, 14.01, 236)"/><rect class="cls-6" x="44.31" y="112.86" width="0.56" height="4.48" transform="translate(12.83 234.37) rotate(-143.91)"/><rect class="cls-6" x="43.4" y="112.2" width="0.56" height="4.48" transform="translate(11.58 232.64) rotate(-143.91)"/><rect class="cls-6" x="42.55" y="111.57" width="0.56" height="4.48" transform="translate(10.4 231.01) rotate(-143.91)"/><rect class="cls-6" x="41.69" y="110.95" width="0.56" height="4.48" transform="translate(9.23 229.38) rotate(-143.91)"/><rect class="cls-7" x="40.79" y="110.29" width="0.56" height="4.48" transform="translate(7.98 227.66) rotate(-143.91)"/><rect class="cls-7" x="39.94" y="109.67" width="0.56" height="4.48" transform="translate(6.8 226.04) rotate(-143.91)"/><rect class="cls-7" x="39.08" y="109.05" width="0.56" height="4.48" transform="translate(5.63 224.41) rotate(-143.91)"/><rect class="cls-7" x="38.18" y="108.39" width="0.56" height="4.48" transform="translate(4.38 222.68) rotate(-143.91)"/><rect class="cls-7" x="37.32" y="107.76" width="0.56" height="4.48" transform="translate(3.2 221.05) rotate(-143.91)"/><rect class="cls-7" x="36.47" y="107.14" width="0.56" height="4.48" transform="translate(2.02 219.42) rotate(-143.91)"/><rect class="cls-7" x="35.56" y="106.48" width="0.56" height="4.48" transform="translate(0.77 217.69) rotate(-143.91)"/><rect class="cls-7" x="34.7" y="105.85" width="0.56" height="4.48" transform="translate(-0.41 216.05) rotate(-143.91)"/><rect class="cls-7" x="33.8" y="105.19" width="0.56" height="4.48" transform="translate(-1.66 214.32) rotate(-143.91)"/><rect class="cls-7" x="32.94" y="104.57" width="0.56" height="4.48" transform="translate(-2.84 212.69) rotate(-143.91)"/><rect class="cls-7" x="32.09" y="103.95" width="0.56" height="4.48" transform="matrix(-0.81, -0.59, 0.59, -0.81, -4.02, 211.06)"/><rect class="cls-7" x="31.18" y="103.29" width="0.56" height="4.48" transform="translate(-5.27 209.34) rotate(-143.91)"/><rect class="cls-7" x="30.33" y="102.67" width="0.56" height="4.48" transform="translate(-6.44 207.72) rotate(-143.91)"/><rect class="cls-7" x="29.48" y="102.05" width="0.56" height="4.48" transform="translate(-7.62 206.09) rotate(-143.91)"/><rect class="cls-7" x="28.57" y="101.38" width="0.56" height="4.48" transform="translate(-8.87 204.36) rotate(-143.91)"/><rect class="cls-7" x="27.72" y="100.76" width="0.56" height="4.48" transform="translate(-10.05 202.73) rotate(-143.91)"/><path class="cls-8" d="M35.74,121.67l-13.19-9.62a1.2,1.2,0,0,1-.27-1.68l2.66-3.65a1.21,1.21,0,0,1,1.69-.27l13.2,9.62"/><rect class="cls-1" x="85.7" y="107.77" width="39.55" height="16.58" rx="1.53" ry="1.53" transform="translate(258.84 148.83) rotate(144.33)"/><path class="cls-2" d="M110.31,122.79,95.38,133.5c-.63.45-1.37.49-1.66.08l-8.61-12c-.3-.41,0-1.1.61-1.56l15-10.73"/><rect class="cls-3" x="89.78" y="115.15" width="35.15" height="6.93" rx="1.22" ry="1.22" transform="translate(263.72 152.37) rotate(144.33)"/><circle class="cls-4" cx="118.66" cy="110.49" r="0.93"/><circle class="cls-4" cx="115.65" cy="112.65" r="0.93"/><circle class="cls-5" cx="112.66" cy="114.81" r="0.93"/><rect class="cls-6" x="117" y="100.55" width="0.56" height="4.48" transform="translate(272.5 117.91) rotate(144.33)"/><rect class="cls-6" x="116.14" y="101.17" width="0.56" height="4.48" transform="translate(271.3 119.53) rotate(144.33)"/><rect class="cls-6" x="115.23" y="101.82" width="0.56" height="4.48" transform="translate(270.03 121.24) rotate(144.33)"/><rect class="cls-6" x="114.37" y="102.44" width="0.56" height="4.48" transform="translate(268.83 122.86) rotate(144.33)"/><rect class="cls-6" x="113.51" y="103.05" width="0.56" height="4.48" transform="translate(267.64 124.48) rotate(144.33)"/><rect class="cls-6" x="112.6" y="103.71" width="0.56" height="4.48" transform="translate(266.37 126.2) rotate(144.33)"/><rect class="cls-6" x="111.75" y="104.32" width="0.56" height="4.48" transform="translate(265.18 127.81) rotate(144.33)"/><rect class="cls-6" x="110.89" y="104.94" width="0.56" height="4.48" transform="translate(263.98 129.42) rotate(144.33)"/><rect class="cls-6" x="109.98" y="105.59" width="0.56" height="4.48" transform="translate(262.71 131.14) rotate(144.33)"/><rect class="cls-6" x="109.12" y="106.21" width="0.56" height="4.48" transform="translate(261.51 132.76) rotate(144.33)"/><rect class="cls-6" x="108.26" y="106.83" width="0.56" height="4.48" transform="translate(260.32 134.38) rotate(144.33)"/><rect class="cls-6" x="107.35" y="107.48" width="0.56" height="4.48" transform="translate(259.04 136.09) rotate(144.33)"/><rect class="cls-6" x="106.45" y="108.13" width="0.56" height="4.48" transform="translate(257.79 137.8) rotate(144.33)"/><rect class="cls-6" x="105.59" y="108.74" width="0.56" height="4.48" transform="translate(256.59 139.41) rotate(144.33)"/><rect class="cls-6" x="104.68" y="109.4" width="0.56" height="4.48" transform="translate(255.32 141.13) rotate(144.33)"/><rect class="cls-6" x="103.82" y="110.02" width="0.56" height="4.48" transform="translate(254.12 142.75) rotate(144.33)"/><rect class="cls-6" x="102.96" y="110.63" width="0.56" height="4.48" transform="translate(252.92 144.37) rotate(144.33)"/><rect class="cls-7" x="102.05" y="111.29" width="0.56" height="4.48" transform="translate(251.65 146.08) rotate(144.33)"/><rect class="cls-7" x="101.19" y="111.9" width="0.56" height="4.48" transform="translate(250.46 147.69) rotate(144.33)"/><rect class="cls-7" x="100.33" y="112.51" width="0.56" height="4.48" transform="matrix(-0.81, 0.58, -0.58, -0.81, 249.27, 149.31)"/><rect class="cls-7" x="99.42" y="113.17" width="0.56" height="4.48" transform="translate(248 151.03) rotate(144.33)"/><rect class="cls-7" x="98.56" y="113.79" width="0.56" height="4.48" transform="translate(246.8 152.65) rotate(144.33)"/><rect class="cls-7" x="97.7" y="114.4" width="0.56" height="4.48" transform="translate(245.6 154.27) rotate(144.33)"/><rect class="cls-7" x="96.79" y="115.06" width="0.56" height="4.48" transform="translate(244.33 155.98) rotate(144.33)"/><rect class="cls-7" x="95.93" y="115.68" width="0.56" height="4.48" transform="translate(243.13 157.61) rotate(144.33)"/><rect class="cls-7" x="95.02" y="116.33" width="0.56" height="4.48" transform="translate(241.86 159.33) rotate(144.33)"/><rect class="cls-7" x="94.16" y="116.95" width="0.56" height="4.48" transform="translate(240.66 160.95) rotate(144.33)"/><rect class="cls-7" x="93.3" y="117.56" width="0.56" height="4.48" transform="translate(239.46 162.56) rotate(144.33)"/><rect class="cls-7" x="92.39" y="118.22" width="0.56" height="4.48" transform="translate(238.19 164.28) rotate(144.33)"/><rect class="cls-7" x="91.53" y="118.83" width="0.56" height="4.48" transform="translate(237 165.89) rotate(144.33)"/><rect class="cls-7" x="90.68" y="119.45" width="0.56" height="4.48" transform="translate(235.81 167.51) rotate(144.33)"/><rect class="cls-7" x="89.76" y="120.1" width="0.56" height="4.48" transform="matrix(-0.81, 0.58, -0.58, -0.81, 234.54, 169.22)"/><rect class="cls-7" x="88.9" y="120.72" width="0.56" height="4.48" transform="translate(233.34 170.84) rotate(144.33)"/><path class="cls-8" d="M109.35,121.44,96.08,131a1.21,1.21,0,0,1-1.69-.28L91.76,127a1.19,1.19,0,0,1,.28-1.68l13.26-9.53"/><line class="cls-9" x1="21.31" y1="66.34" x2="48.04" y2="27.75"/><line class="cls-9" x1="99.42" y1="27.75" x2="48.04" y2="27.75"/><line class="cls-9" x1="122.11" y1="66.34" x2="99.42" y2="27.75"/><line class="cls-9" x1="99.42" y1="104.53" x2="122.11" y2="66.34"/><line class="cls-9" x1="48.04" y1="104.53" x2="21.31" y2="66.34"/><line class="cls-9" x1="99.42" y1="104.53" x2="48.04" y2="104.53"/><line class="cls-9" x1="48.04" y1="27.75" x2="99.42" y2="104.53"/><line class="cls-9" x1="48.04" y1="104.53" x2="99.42" y2="27.75"/><line class="cls-9" x1="122.11" y1="66.34" x2="21.31" y2="66.34"/><line class="cls-9" x1="99.42" y1="27.75" x2="21.31" y2="66.34"/><line class="cls-9" x1="122.11" y1="66.34" x2="48.96" y2="28.18"/><line class="cls-9" x1="48.04" y1="104.53" x2="48.04" y2="27.75"/><line class="cls-9" x1="99.42" y1="104.53" x2="99.42" y2="28.5"/><line class="cls-9" x1="48.04" y1="104.53" x2="122.11" y2="66.34"/><line class="cls-9" x1="99.42" y1="104.53" x2="21.31" y2="66.34"/></g><g id="Слой_3" data-name="Слой 3"><circle class="cls-10" cx="21.31" cy="66.34" r="2.53"/><circle class="cls-10" cx="48.04" cy="27.75" r="2.53"/><circle class="cls-10" cx="48.04" cy="104.53" r="2.53"/><circle class="cls-10" cx="99.42" cy="104.53" r="2.53"/><circle class="cls-10" cx="99.42" cy="27.75" r="2.53"/><circle class="cls-10" cx="122.11" cy="66.34" r="2.53"/></g></g></svg>