<svg xmlns="http://www.w3.org/2000/svg" viewBox="0 0 132.13 133.84"><defs><style>.blockchain-based-cls-1{fill:#2e424a;}.blockchain-based-cls-2{fill:#2b3a43;}.blockchain-based-cls-3{fill:#d8e3e6;}.blockchain-based-cls-4{fill:#00b8a1;}.blockchain-based-cls-5{fill:#0096ea;}.blockchain-based-cls-6{fill:#17242a;}.blockchain-based-cls-7{fill:#152024;}.blockchain-based-cls-8{fill:#c8d1d4;}.blockchain-based-cls-9{fill:none;stroke:#2e424a;}.blockchain-based-cls-10,.blockchain-based-cls-9{stroke-miterlimit:10;}.blockchain-based-cls-10{fill:#f7333a;stroke:#152024;}</style></defs><title>Ресурс 7</title><g id="Слой_2" data-name="Слой 2"><g id="Слой_1-2" data-name="Слой 1"><g id="Слой_2-2" data-name="Слой 2"><g id="Слой_1-2-2" data-name="Слой 1-2"><rect class="blockchain-based-cls-1" x="-10.15" y="59.53" width="35.05" height="14.69" rx="1.36" ry="1.36" transform="translate(-59.52 74.14) rotate(-89.9)"/><path class="blockchain-based-cls-2" d="M0,66.86V50.58c0-.69.36-1.24.8-1.24H13.92c.45,0,.8.56.8,1.25V66.9"/><rect class="blockchain-based-cls-3" x="-11.01" y="63.83" width="31.15" height="6.14" rx="1.08" ry="1.08" transform="translate(-62.34 71.35) rotate(-89.9)"/><circle class="blockchain-based-cls-4" cx="4.54" cy="79.23" r="0.82"/><circle class="blockchain-based-cls-4" cx="4.54" cy="75.95" r="0.82"/><circle class="blockchain-based-cls-5" cx="4.54" cy="72.68" r="0.82"/><rect class="blockchain-based-cls-6" x="10.54" y="80.26" width="0.5" height="3.97" transform="translate(-71.47 92.89) rotate(-89.9)"/><rect class="blockchain-based-cls-6" x="10.54" y="79.32" width="0.5" height="3.97" transform="translate(-70.54 91.96) rotate(-89.9)"/><rect class="blockchain-based-cls-6" x="10.55" y="78.32" width="0.5" height="3.97" transform="translate(-69.52 90.97) rotate(-89.9)"/><rect class="blockchain-based-cls-6" x="10.55" y="77.38" width="0.5" height="3.97" transform="translate(-68.58 90.03) rotate(-89.9)"/><rect class="blockchain-based-cls-6" x="10.55" y="76.45" width="0.5" height="3.97" transform="translate(-67.65 89.1) rotate(-89.9)"/><rect class="blockchain-based-cls-6" x="10.55" y="75.45" width="0.5" height="3.97" transform="translate(-66.66 88.11) rotate(-89.9)"/><rect class="blockchain-based-cls-6" x="10.55" y="74.52" width="0.5" height="3.97" transform="translate(-65.72 87.18) rotate(-89.9)"/><rect class="blockchain-based-cls-6" x="10.55" y="73.59" width="0.5" height="3.97" transform="translate(-64.79 86.24) rotate(-89.9)"/><rect class="blockchain-based-cls-6" x="10.55" y="72.59" width="0.5" height="3.97" transform="translate(-63.79 85.24) rotate(-89.9)"/><rect class="blockchain-based-cls-6" x="10.55" y="71.65" width="0.5" height="3.97" transform="translate(-62.86 84.31) rotate(-89.9)"/><rect class="blockchain-based-cls-6" x="10.56" y="70.71" width="0.5" height="3.97" transform="translate(-61.91 83.38) rotate(-89.9)"/><rect class="blockchain-based-cls-6" x="10.56" y="69.73" width="0.5" height="3.97" transform="translate(-60.92 82.4) rotate(-89.9)"/><rect class="blockchain-based-cls-6" x="10.56" y="68.74" width="0.5" height="3.97" transform="translate(-59.94 81.41) rotate(-89.9)"/><rect class="blockchain-based-cls-6" x="10.57" y="67.8" width="0.5" height="3.97" transform="translate(-58.99 80.48) rotate(-89.9)"/><rect class="blockchain-based-cls-6" x="10.56" y="66.81" width="0.5" height="3.97" transform="translate(-58 79.48) rotate(-89.9)"/><rect class="blockchain-based-cls-6" x="10.57" y="65.87" width="0.5" height="3.97" transform="translate(-57.05 78.55) rotate(-89.9)"/><rect class="blockchain-based-cls-6" x="10.57" y="64.93" width="0.5" height="3.97" transform="translate(-56.12 77.62) rotate(-89.9)"/><rect class="blockchain-based-cls-7" x="10.57" y="63.94" width="0.5" height="3.97" transform="translate(-55.12 76.63) rotate(-89.9)"/><rect class="blockchain-based-cls-7" x="10.58" y="63.01" width="0.5" height="3.97" transform="translate(-54.18 75.71) rotate(-89.9)"/><rect class="blockchain-based-cls-7" x="10.58" y="62.07" width="0.5" height="3.97" transform="translate(-53.24 74.77) rotate(-89.9)"/><rect class="blockchain-based-cls-7" x="10.58" y="61.07" width="0.5" height="3.97" transform="translate(-52.25 73.78) rotate(-89.9)"/><rect class="blockchain-based-cls-7" x="10.58" y="60.14" width="0.5" height="3.97" transform="translate(-51.32 72.85) rotate(-89.9)"/><rect class="blockchain-based-cls-7" x="10.58" y="59.2" width="0.5" height="3.97" transform="translate(-50.37 71.91) rotate(-89.9)"/><rect class="blockchain-based-cls-7" x="10.58" y="58.2" width="0.5" height="3.97" transform="translate(-49.38 70.91) rotate(-89.9)"/><rect class="blockchain-based-cls-7" x="10.59" y="57.27" width="0.5" height="3.97" transform="translate(-48.44 69.99) rotate(-89.9)"/><rect class="blockchain-based-cls-7" x="10.59" y="56.27" width="0.5" height="3.97" transform="translate(-47.44 68.99) rotate(-89.9)"/><rect class="blockchain-based-cls-7" x="10.59" y="55.33" width="0.5" height="3.97" transform="translate(-46.5 68.05) rotate(-89.9)"/><rect class="blockchain-based-cls-7" x="10.59" y="54.4" width="0.5" height="3.97" transform="translate(-45.56 67.12) rotate(-89.9)"/><rect class="blockchain-based-cls-7" x="10.59" y="53.4" width="0.5" height="3.97" transform="translate(-44.57 66.13) rotate(-89.9)"/><rect class="blockchain-based-cls-7" x="10.6" y="52.47" width="0.5" height="3.97" transform="translate(-43.63 65.21) rotate(-89.9)"/><rect class="blockchain-based-cls-7" x="10.59" y="51.53" width="0.5" height="3.97" transform="translate(-42.7 64.26) rotate(-89.9)"/><rect class="blockchain-based-cls-7" x="10.6" y="50.53" width="0.5" height="3.97" transform="translate(-41.69 63.27) rotate(-89.9)"/><rect class="blockchain-based-cls-7" x="10.6" y="49.6" width="0.5" height="3.97" transform="translate(-40.76 62.34) rotate(-89.9)"/><path class="blockchain-based-cls-8" d="M1.49,66.86V52.39a1.06,1.06,0,0,1,1-1.07H6.59A1.08,1.08,0,0,1,7.65,52.4V66.88"/><rect class="blockchain-based-cls-1" x="107.23" y="59.53" width="35.05" height="14.69" rx="1.36" ry="1.36" transform="translate(57.66 191.51) rotate(-89.9)"/><path class="blockchain-based-cls-2" d="M132.1,66.89V83.17c0,.7-.36,1.24-.81,1.24H118.21c-.45,0-.8-.55-.8-1.24V66.85"/><rect class="blockchain-based-cls-3" x="111.99" y="63.79" width="31.15" height="6.14" rx="1.08" ry="1.08" transform="translate(60.48 194.3) rotate(-89.9)"/><circle class="blockchain-based-cls-4" cx="127.58" cy="54.52" r="0.82"/><circle class="blockchain-based-cls-4" cx="127.58" cy="57.8" r="0.82"/><circle class="blockchain-based-cls-5" cx="127.58" cy="61.07" r="0.82"/><rect class="blockchain-based-cls-6" x="121.09" y="49.53" width="0.5" height="3.97" transform="translate(69.61 172.76) rotate(-89.9)"/><rect class="blockchain-based-cls-6" x="121.09" y="50.46" width="0.5" height="3.97" transform="translate(68.68 173.69) rotate(-89.9)"/><rect class="blockchain-based-cls-6" x="121.08" y="51.46" width="0.5" height="3.97" transform="translate(67.67 174.68) rotate(-89.9)"/><rect class="blockchain-based-cls-6" x="121.08" y="52.4" width="0.5" height="3.97" transform="translate(66.73 175.62) rotate(-89.9)"/><rect class="blockchain-based-cls-6" x="121.08" y="53.34" width="0.5" height="3.97" transform="translate(65.79 176.55) rotate(-89.9)"/><rect class="blockchain-based-cls-6" x="121.08" y="54.33" width="0.5" height="3.97" transform="translate(64.8 177.54) rotate(-89.9)"/><rect class="blockchain-based-cls-6" x="121.08" y="55.26" width="0.5" height="3.97" transform="translate(63.87 178.47) rotate(-89.9)"/><rect class="blockchain-based-cls-6" x="121.08" y="56.19" width="0.5" height="3.97" transform="translate(62.94 179.4) rotate(-89.9)"/><rect class="blockchain-based-cls-6" x="121.08" y="57.2" width="0.5" height="3.97" transform="translate(61.93 180.4) rotate(-89.9)"/><rect class="blockchain-based-cls-6" x="121.08" y="58.13" width="0.5" height="3.97" transform="translate(61 181.34) rotate(-89.9)"/><rect class="blockchain-based-cls-6" x="121.07" y="59.07" width="0.5" height="3.97" transform="translate(60.05 182.27) rotate(-89.9)"/><rect class="blockchain-based-cls-6" x="121.07" y="60.06" width="0.5" height="3.97" transform="translate(59.06 183.25) rotate(-89.9)"/><rect class="blockchain-based-cls-6" x="121.07" y="61.04" width="0.5" height="3.97" transform="translate(58.08 184.23) rotate(-89.9)"/><rect class="blockchain-based-cls-6" x="121.06" y="61.98" width="0.5" height="3.97" transform="translate(57.13 185.16) rotate(-89.9)"/><rect class="blockchain-based-cls-6" x="121.07" y="62.98" width="0.5" height="3.97" transform="translate(56.14 186.17) rotate(-89.9)"/><rect class="blockchain-based-cls-6" x="121.06" y="63.92" width="0.5" height="3.97" transform="translate(55.19 187.1) rotate(-89.9)"/><rect class="blockchain-based-cls-6" x="121.06" y="64.85" width="0.5" height="3.97" transform="translate(54.26 188.03) rotate(-89.9)"/><rect class="blockchain-based-cls-7" x="121.06" y="65.84" width="0.5" height="3.97" transform="translate(53.27 189.02) rotate(-89.9)"/><rect class="blockchain-based-cls-7" x="121.05" y="66.78" width="0.5" height="3.97" transform="translate(52.33 189.94) rotate(-89.9)"/><rect class="blockchain-based-cls-7" x="121.05" y="67.72" width="0.5" height="3.97" transform="translate(51.39 190.88) rotate(-89.9)"/><rect class="blockchain-based-cls-7" x="121.05" y="68.71" width="0.5" height="3.97" transform="translate(50.39 191.87) rotate(-89.9)"/><rect class="blockchain-based-cls-7" x="121.05" y="69.64" width="0.5" height="3.97" transform="translate(49.46 192.8) rotate(-89.9)"/><rect class="blockchain-based-cls-7" x="121.05" y="70.58" width="0.5" height="3.97" transform="translate(48.52 193.74) rotate(-89.9)"/><rect class="blockchain-based-cls-7" x="121.05" y="71.58" width="0.5" height="3.97" transform="translate(47.52 194.73) rotate(-89.9)"/><rect class="blockchain-based-cls-7" x="121.04" y="72.51" width="0.5" height="3.97" transform="translate(46.58 195.66) rotate(-89.9)"/><rect class="blockchain-based-cls-7" x="121.04" y="73.51" width="0.5" height="3.97" transform="translate(45.58 196.66) rotate(-89.9)"/><rect class="blockchain-based-cls-7" x="121.04" y="74.46" width="0.5" height="3.97" transform="translate(44.64 197.6) rotate(-89.9)"/><rect class="blockchain-based-cls-7" x="121.04" y="75.39" width="0.5" height="3.97" transform="translate(43.71 198.53) rotate(-89.9)"/><rect class="blockchain-based-cls-7" x="121.04" y="76.38" width="0.5" height="3.97" transform="translate(42.71 199.52) rotate(-89.9)"/><rect class="blockchain-based-cls-7" x="121.03" y="77.31" width="0.5" height="3.97" transform="translate(41.77 200.44) rotate(-89.9)"/><rect class="blockchain-based-cls-7" x="121.04" y="78.25" width="0.5" height="3.97" transform="translate(40.84 201.39) rotate(-89.9)"/><rect class="blockchain-based-cls-7" x="121.03" y="79.25" width="0.5" height="3.97" transform="translate(39.84 202.37) rotate(-89.9)"/><rect class="blockchain-based-cls-7" x="121.03" y="80.18" width="0.5" height="3.97" transform="translate(38.9 203.3) rotate(-89.9)"/><path class="blockchain-based-cls-8" d="M130.64,66.89V81.37a1,1,0,0,1-1,1.06h-4.06a1.08,1.08,0,0,1-1.07-1.07V66.88"/><rect class="blockchain-based-cls-1" x="79" y="110.53" width="35.05" height="14.69" rx="1.36" ry="1.36" transform="translate(-48.42 70.94) rotate(-32.74)"/><path class="blockchain-based-cls-2" d="M100.51,124.05l-13.68,8.83c-.58.37-1.24.36-1.48,0l-7.1-11c-.24-.37,0-1,.62-1.34l13.71-8.85"/><rect class="blockchain-based-cls-3" x="82.49" y="117.16" width="31.15" height="6.14" rx="1.08" ry="1.08" transform="translate(-49.45 72.14) rotate(-32.74)"/><circle class="blockchain-based-cls-4" cx="108.44" cy="113.56" r="0.82"/><circle class="blockchain-based-cls-4" cx="105.68" cy="115.34" r="0.82"/><circle class="blockchain-based-cls-5" cx="102.94" cy="117.11" r="0.82"/><rect class="blockchain-based-cls-6" x="107.33" y="104.69" width="0.5" height="3.97" transform="translate(-40.6 75.13) rotate(-32.74)"/><rect class="blockchain-based-cls-6" x="106.55" y="105.2" width="0.5" height="3.97" transform="matrix(0.84, -0.54, 0.54, 0.84, -41, 74.79)"/><rect class="blockchain-based-cls-6" x="105.7" y="105.73" width="0.5" height="3.97" transform="translate(-41.43 74.42) rotate(-32.74)"/><rect class="blockchain-based-cls-6" x="104.91" y="106.24" width="0.5" height="3.97" transform="translate(-41.83 74.07) rotate(-32.74)"/><rect class="blockchain-based-cls-6" x="104.13" y="106.75" width="0.5" height="3.97" transform="translate(-42.23 73.73) rotate(-32.74)"/><rect class="blockchain-based-cls-6" x="103.29" y="107.29" width="0.5" height="3.97" transform="translate(-42.65 73.36) rotate(-32.74)"/><rect class="blockchain-based-cls-6" x="102.51" y="107.8" width="0.5" height="3.97" transform="matrix(0.84, -0.54, 0.54, 0.84, -43.05, 73.02)"/><rect class="blockchain-based-cls-6" x="101.72" y="108.3" width="0.5" height="3.97" transform="translate(-43.45 72.68) rotate(-32.74)"/><rect class="blockchain-based-cls-6" x="100.88" y="108.84" width="0.5" height="3.97" transform="translate(-43.88 72.31) rotate(-32.74)"/><rect class="blockchain-based-cls-6" x="100.1" y="109.35" width="0.5" height="3.97" transform="translate(-44.27 71.96) rotate(-32.74)"/><rect class="blockchain-based-cls-6" x="99.3" y="109.85" width="0.5" height="3.97" transform="translate(-44.67 71.61) rotate(-32.74)"/><rect class="blockchain-based-cls-6" x="98.47" y="110.39" width="0.5" height="3.97" transform="translate(-45.09 71.25) rotate(-32.74)"/><rect class="blockchain-based-cls-6" x="97.65" y="110.92" width="0.5" height="3.97" transform="translate(-45.51 70.89) rotate(-32.74)"/><rect class="blockchain-based-cls-6" x="96.85" y="111.42" width="0.5" height="3.97" transform="matrix(0.84, -0.54, 0.54, 0.84, -45.91, 70.54)"/><rect class="blockchain-based-cls-6" x="96.02" y="111.97" width="0.5" height="3.97" transform="translate(-46.34 70.17) rotate(-32.74)"/><rect class="blockchain-based-cls-6" x="95.23" y="112.47" width="0.5" height="3.97" transform="translate(-46.74 69.82) rotate(-32.74)"/><rect class="blockchain-based-cls-6" x="94.44" y="112.98" width="0.5" height="3.97" transform="translate(-47.14 69.48) rotate(-32.74)"/><rect class="blockchain-based-cls-7" x="93.61" y="113.52" width="0.5" height="3.97" transform="translate(-47.56 69.11) rotate(-32.74)"/><rect class="blockchain-based-cls-7" x="92.82" y="114.02" width="0.5" height="3.97" transform="matrix(0.84, -0.54, 0.54, 0.84, -47.95, 68.77)"/><rect class="blockchain-based-cls-7" x="92.03" y="114.53" width="0.5" height="3.97" transform="translate(-48.36 68.42) rotate(-32.74)"/><rect class="blockchain-based-cls-7" x="91.19" y="115.07" width="0.5" height="3.97" transform="translate(-48.78 68.05) rotate(-32.74)"/><rect class="blockchain-based-cls-7" x="90.41" y="115.57" width="0.5" height="3.97" transform="matrix(0.84, -0.54, 0.54, 0.84, -49.18, 67.71)"/><rect class="blockchain-based-cls-7" x="89.62" y="116.08" width="0.5" height="3.97" transform="translate(-49.58 67.37) rotate(-32.74)"/><rect class="blockchain-based-cls-7" x="88.78" y="116.62" width="0.5" height="3.97" transform="translate(-50 67) rotate(-32.74)"/><rect class="blockchain-based-cls-7" x="88" y="117.12" width="0.5" height="3.97" transform="translate(-50.4 66.65) rotate(-32.74)"/><rect class="blockchain-based-cls-7" x="87.15" y="117.66" width="0.5" height="3.97" transform="translate(-50.83 66.28) rotate(-32.74)"/><rect class="blockchain-based-cls-7" x="86.36" y="118.17" width="0.5" height="3.97" transform="matrix(0.84, -0.54, 0.54, 0.84, -51.23, 65.94)"/><rect class="blockchain-based-cls-7" x="85.58" y="118.68" width="0.5" height="3.97" transform="translate(-51.63 65.59) rotate(-32.74)"/><rect class="blockchain-based-cls-7" x="84.74" y="119.22" width="0.5" height="3.97" transform="translate(-52.05 65.23) rotate(-32.74)"/><rect class="blockchain-based-cls-7" x="83.96" y="119.72" width="0.5" height="3.97" transform="translate(-52.45 64.88) rotate(-32.74)"/><rect class="blockchain-based-cls-7" x="83.17" y="120.24" width="0.5" height="3.97" transform="matrix(0.84, -0.54, 0.54, 0.84, -52.85, 64.54)"/><rect class="blockchain-based-cls-7" x="82.33" y="120.77" width="0.5" height="3.97" transform="translate(-53.27 64.17) rotate(-32.74)"/><rect class="blockchain-based-cls-7" x="81.55" y="121.27" width="0.5" height="3.97" transform="matrix(0.84, -0.54, 0.54, 0.84, -53.67, 63.82)"/><path class="blockchain-based-cls-8" d="M99.7,122.84l-12.16,7.85a1.06,1.06,0,0,1-1.46-.3v0L83.88,127a1.08,1.08,0,0,1,.33-1.48l12.16-7.85"/><rect class="blockchain-based-cls-1" x="28.83" y="100.99" width="14.69" height="35.05" rx="1.36" ry="1.36" transform="translate(-83.08 84.85) rotate(-57.26)"/><path class="blockchain-based-cls-2" d="M40.13,112.36l13.7,8.85c.59.37.86,1,.62,1.35l-7.1,11c-.24.37-.9.38-1.48,0L32.2,124.73"/><rect class="blockchain-based-cls-3" x="31.57" y="105.3" width="6.14" height="31.15" rx="1.08" ry="1.08" transform="translate(-85.76 84.63) rotate(-57.26)"/><circle class="blockchain-based-cls-4" cx="24.27" cy="114.2" r="0.82"/><circle class="blockchain-based-cls-4" cx="27.02" cy="115.98" r="0.82"/><circle class="blockchain-based-cls-5" cx="29.77" cy="117.75" r="0.82"/><rect class="blockchain-based-cls-6" x="23.14" y="107.07" width="3.97" height="0.5" transform="translate(-78.73 70.41) rotate(-57.26)"/><rect class="blockchain-based-cls-6" x="23.92" y="107.57" width="3.97" height="0.5" transform="matrix(0.54, -0.84, 0.84, 0.54, -78.79, 71.3)"/><rect class="blockchain-based-cls-6" x="24.77" y="108.11" width="3.97" height="0.5" transform="matrix(0.54, -0.84, 0.84, 0.54, -78.86, 72.26)"/><rect class="blockchain-based-cls-6" x="25.56" y="108.62" width="3.97" height="0.5" transform="translate(-78.92 73.16) rotate(-57.26)"/><rect class="blockchain-based-cls-6" x="26.35" y="109.13" width="3.97" height="0.5" transform="translate(-78.99 74.05) rotate(-57.26)"/><rect class="blockchain-based-cls-6" x="27.18" y="109.67" width="3.97" height="0.5" transform="translate(-79.06 75) rotate(-57.26)"/><rect class="blockchain-based-cls-6" x="27.96" y="110.17" width="3.97" height="0.5" transform="translate(-79.12 75.89) rotate(-57.26)"/><rect class="blockchain-based-cls-6" x="28.75" y="110.68" width="3.97" height="0.5" transform="matrix(0.54, -0.84, 0.84, 0.54, -79.19, 76.78)"/><rect class="blockchain-based-cls-6" x="29.59" y="111.22" width="3.97" height="0.5" transform="translate(-79.26 77.74) rotate(-57.26)"/><rect class="blockchain-based-cls-6" x="30.37" y="111.73" width="3.97" height="0.5" transform="translate(-79.33 78.63) rotate(-57.26)"/><rect class="blockchain-based-cls-6" x="31.17" y="112.23" width="3.97" height="0.5" transform="translate(-79.38 79.53) rotate(-57.26)"/><rect class="blockchain-based-cls-6" x="32" y="112.76" width="3.97" height="0.5" transform="matrix(0.54, -0.84, 0.84, 0.54, -79.45, 80.47)"/><rect class="blockchain-based-cls-6" x="32.83" y="113.3" width="3.97" height="0.5" transform="matrix(0.54, -0.84, 0.84, 0.54, -79.52, 81.41)"/><rect class="blockchain-based-cls-6" x="33.62" y="113.8" width="3.97" height="0.5" transform="translate(-79.58 82.31) rotate(-57.26)"/><rect class="blockchain-based-cls-6" x="34.45" y="114.35" width="3.97" height="0.5" transform="translate(-79.66 83.26) rotate(-57.26)"/><rect class="blockchain-based-cls-6" x="35.25" y="114.85" width="3.97" height="0.5" transform="translate(-79.72 84.16) rotate(-57.26)"/><rect class="blockchain-based-cls-6" x="36.03" y="115.36" width="3.97" height="0.5" transform="translate(-79.78 85.05) rotate(-57.26)"/><rect class="blockchain-based-cls-7" x="36.87" y="115.89" width="3.97" height="0.5" transform="translate(-79.85 86) rotate(-57.26)"/><rect class="blockchain-based-cls-7" x="37.65" y="116.39" width="3.97" height="0.5" transform="translate(-79.91 86.89) rotate(-57.26)"/><rect class="blockchain-based-cls-7" x="38.44" y="116.9" width="3.97" height="0.5" transform="translate(-79.98 87.79) rotate(-57.26)"/><rect class="blockchain-based-cls-7" x="39.28" y="117.44" width="3.97" height="0.5" transform="matrix(0.54, -0.84, 0.84, 0.54, -80.05, 88.74)"/><rect class="blockchain-based-cls-7" x="40.06" y="117.95" width="3.97" height="0.5" transform="matrix(0.54, -0.84, 0.84, 0.54, -80.11, 89.64)"/><rect class="blockchain-based-cls-7" x="40.85" y="118.46" width="3.97" height="0.5" transform="translate(-80.18 90.53) rotate(-57.26)"/><rect class="blockchain-based-cls-7" x="41.69" y="119" width="3.97" height="0.5" transform="translate(-80.25 91.48) rotate(-57.26)"/><rect class="blockchain-based-cls-7" x="42.48" y="119.5" width="3.97" height="0.5" transform="translate(-80.3 92.38) rotate(-57.26)"/><rect class="blockchain-based-cls-7" x="43.32" y="120.04" width="3.97" height="0.5" transform="translate(-80.37 93.33) rotate(-57.26)"/><rect class="blockchain-based-cls-7" x="44.11" y="120.55" width="3.97" height="0.5" transform="translate(-80.44 94.23) rotate(-57.26)"/><rect class="blockchain-based-cls-7" x="44.89" y="121.06" width="3.97" height="0.5" transform="matrix(0.54, -0.84, 0.84, 0.54, -80.51, 95.13)"/><rect class="blockchain-based-cls-7" x="45.73" y="121.59" width="3.97" height="0.5" transform="translate(-80.58 96.08) rotate(-57.26)"/><rect class="blockchain-based-cls-7" x="46.52" y="122.09" width="3.97" height="0.5" transform="translate(-80.63 96.97) rotate(-57.26)"/><rect class="blockchain-based-cls-7" x="47.3" y="122.61" width="3.97" height="0.5" transform="translate(-80.71 97.87) rotate(-57.26)"/><rect class="blockchain-based-cls-7" x="48.14" y="123.14" width="3.97" height="0.5" transform="translate(-80.77 98.82) rotate(-57.26)"/><rect class="blockchain-based-cls-7" x="48.93" y="123.65" width="3.97" height="0.5" transform="translate(-80.84 99.71) rotate(-57.26)"/><path class="blockchain-based-cls-8" d="M36.33,118.29l12.17,7.85a1.07,1.07,0,0,1,.32,1.47L46.64,131l0,0a1.05,1.05,0,0,1-1.46.31L33,123.48"/><rect class="blockchain-based-cls-1" x="18.7" y="7.97" width="35.05" height="14.69" rx="1.36" ry="1.36" transform="translate(-2.53 22.03) rotate(-32.74)"/><path class="blockchain-based-cls-2" d="M32.27,9.13,45.94.3c.58-.38,1.24-.37,1.48,0l7.1,11c.24.37,0,1-.62,1.35L40.2,21.5"/><rect class="blockchain-based-cls-3" x="19.11" y="9.89" width="31.15" height="6.14" rx="1.08" ry="1.08" transform="translate(-1.5 20.82) rotate(-32.74)"/><circle class="blockchain-based-cls-4" cx="24.31" cy="19.63" r="0.82"/><circle class="blockchain-based-cls-4" cx="27.07" cy="17.85" r="0.82"/><circle class="blockchain-based-cls-5" cx="29.81" cy="16.08" r="0.82"/><rect class="blockchain-based-cls-6" x="24.92" y="24.53" width="0.5" height="3.97" transform="translate(-10.34 17.83) rotate(-32.74)"/><rect class="blockchain-based-cls-6" x="25.71" y="24.02" width="0.5" height="3.97" transform="translate(-9.94 18.17) rotate(-32.74)"/><rect class="blockchain-based-cls-6" x="26.55" y="23.49" width="0.5" height="3.97" transform="translate(-9.52 18.54) rotate(-32.74)"/><rect class="blockchain-based-cls-6" x="27.35" y="22.98" width="0.5" height="3.97" transform="translate(-9.12 18.89) rotate(-32.74)"/><rect class="blockchain-based-cls-6" x="28.13" y="22.47" width="0.5" height="3.97" transform="translate(-8.72 19.23) rotate(-32.74)"/><rect class="blockchain-based-cls-6" x="28.96" y="21.93" width="0.5" height="3.97" transform="translate(-8.3 19.6) rotate(-32.74)"/><rect class="blockchain-based-cls-6" x="29.75" y="21.43" width="0.5" height="3.97" transform="translate(-7.9 19.94) rotate(-32.74)"/><rect class="blockchain-based-cls-6" x="30.53" y="20.92" width="0.5" height="3.97" transform="translate(-7.5 20.29) rotate(-32.74)"/><rect class="blockchain-based-cls-6" x="31.37" y="20.38" width="0.5" height="3.97" transform="translate(-7.07 20.66) rotate(-32.74)"/><rect class="blockchain-based-cls-6" x="32.16" y="19.87" width="0.5" height="3.97" transform="translate(-6.67 21) rotate(-32.74)"/><rect class="blockchain-based-cls-6" x="32.95" y="19.37" width="0.5" height="3.97" transform="translate(-6.27 21.35) rotate(-32.74)"/><rect class="blockchain-based-cls-6" x="33.78" y="18.84" width="0.5" height="3.97" transform="translate(-5.85 21.71) rotate(-32.74)"/><rect class="blockchain-based-cls-6" x="34.61" y="18.3" width="0.5" height="3.97" transform="translate(-5.43 22.08) rotate(-32.74)"/><rect class="blockchain-based-cls-6" x="35.4" y="17.8" width="0.5" height="3.97" transform="translate(-5.04 22.43) rotate(-32.74)"/><rect class="blockchain-based-cls-6" x="36.23" y="17.25" width="0.5" height="3.97" transform="translate(-4.61 22.79) rotate(-32.74)"/><rect class="blockchain-based-cls-6" x="37.03" y="16.75" width="0.5" height="3.97" transform="translate(-4.21 23.14) rotate(-32.74)"/><rect class="blockchain-based-cls-6" x="37.81" y="16.24" width="0.5" height="3.97" transform="translate(-3.81 23.48) rotate(-32.74)"/><rect class="blockchain-based-cls-7" x="38.65" y="15.7" width="0.5" height="3.97" transform="translate(-3.39 23.85) rotate(-32.74)"/><rect class="blockchain-based-cls-7" x="39.44" y="15.21" width="0.5" height="3.97" transform="translate(-2.99 24.19) rotate(-32.74)"/><rect class="blockchain-based-cls-7" x="40.23" y="14.7" width="0.5" height="3.97" transform="translate(-2.59 24.54) rotate(-32.74)"/><rect class="blockchain-based-cls-7" x="41.06" y="14.16" width="0.5" height="3.97" transform="translate(-2.17 24.91) rotate(-32.74)"/><rect class="blockchain-based-cls-7" x="41.84" y="13.65" width="0.5" height="3.97" transform="translate(-1.77 25.25) rotate(-32.74)"/><rect class="blockchain-based-cls-7" x="42.64" y="13.14" width="0.5" height="3.97" transform="translate(-1.37 25.6) rotate(-32.74)"/><rect class="blockchain-based-cls-1" x="89.31" y="-2.24" width="14.69" height="35.05" rx="1.36" ry="1.36" transform="translate(31.52 88.32) rotate(-57.26)"/><path class="blockchain-based-cls-2" d="M92.69,21.48,79,12.63c-.58-.38-.86-1-.62-1.35l7.1-11c.24-.37.9-.38,1.48,0l13.68,8.83"/><rect class="blockchain-based-cls-3" x="95.13" y="-2.64" width="6.14" height="31.15" rx="1.08" ry="1.08" transform="translate(34.2 88.53) rotate(-57.26)"/><path class="blockchain-based-cls-8" d="M96.5,15.52,84.34,7.67A1.08,1.08,0,0,1,84,6.19L86.2,2.81l0,0a1.06,1.06,0,0,1,1.46-.3l12.15,7.85"/><rect class="blockchain-based-cls-7" x="43.47" y="12.6" width="0.5" height="3.97" transform="translate(-0.94 25.96) rotate(-32.74)"/><rect class="blockchain-based-cls-7" x="44.26" y="12.1" width="0.5" height="3.97" transform="translate(-0.55 26.31) rotate(-32.74)"/><rect class="blockchain-based-cls-7" x="45.1" y="11.56" width="0.5" height="3.97" transform="translate(-0.12 26.68) rotate(-32.74)"/><rect class="blockchain-based-cls-7" x="45.89" y="11.05" width="0.5" height="3.97" transform="translate(0.28 27.03) rotate(-32.74)"/><rect class="blockchain-based-cls-7" x="46.68" y="10.54" width="0.5" height="3.97" transform="translate(0.68 27.37) rotate(-32.74)"/><rect class="blockchain-based-cls-7" x="47.51" y="10" width="0.5" height="3.97" transform="translate(1.1 27.74) rotate(-32.74)"/><rect class="blockchain-based-cls-7" x="48.3" y="9.51" width="0.5" height="3.97" transform="translate(1.5 28.08) rotate(-32.74)"/><rect class="blockchain-based-cls-7" x="49.08" y="8.99" width="0.5" height="3.97" transform="matrix(0.84, -0.54, 0.54, 0.84, 1.9, 28.43)"/><rect class="blockchain-based-cls-7" x="49.92" y="8.46" width="0.5" height="3.97" transform="translate(2.32 28.8) rotate(-32.74)"/><rect class="blockchain-based-cls-7" x="50.71" y="7.95" width="0.5" height="3.97" transform="matrix(0.84, -0.54, 0.54, 0.84, 2.72, 29.14)"/><path class="blockchain-based-cls-8" d="M33.05,10.35,45.21,2.51a1.05,1.05,0,0,1,1.46.3v0l2.19,3.39a1.07,1.07,0,0,1-.33,1.47L36.38,15.55"/><circle class="blockchain-based-cls-4" cx="108.57" cy="19.61" r="0.82"/><circle class="blockchain-based-cls-4" cx="105.82" cy="17.83" r="0.82"/><circle class="blockchain-based-cls-5" cx="103.07" cy="16.06" r="0.82"/><rect class="blockchain-based-cls-6" x="105.73" y="26.24" width="3.97" height="0.5" transform="translate(27.17 102.76) rotate(-57.26)"/><rect class="blockchain-based-cls-6" x="104.94" y="25.74" width="3.97" height="0.5" transform="translate(27.24 101.87) rotate(-57.26)"/><rect class="blockchain-based-cls-6" x="104.1" y="25.2" width="3.97" height="0.5" transform="translate(27.3 100.91) rotate(-57.26)"/><rect class="blockchain-based-cls-6" x="103.3" y="24.69" width="3.97" height="0.5" transform="translate(27.37 100.01) rotate(-57.26)"/><rect class="blockchain-based-cls-6" x="102.52" y="24.19" width="3.97" height="0.5" transform="translate(27.43 99.12) rotate(-57.26)"/><rect class="blockchain-based-cls-6" x="101.69" y="23.65" width="3.97" height="0.5" transform="translate(27.5 98.17) rotate(-57.26)"/><rect class="blockchain-based-cls-6" x="100.9" y="23.14" width="3.97" height="0.5" transform="translate(27.57 97.28) rotate(-57.26)"/><rect class="blockchain-based-cls-6" x="100.12" y="22.64" width="3.97" height="0.5" transform="translate(27.63 96.39) rotate(-57.26)"/><rect class="blockchain-based-cls-6" x="99.28" y="22.09" width="3.97" height="0.5" transform="translate(27.7 95.43) rotate(-57.26)"/><rect class="blockchain-based-cls-6" x="98.49" y="21.59" width="3.97" height="0.5" transform="translate(27.77 94.54) rotate(-57.26)"/><rect class="blockchain-based-cls-6" x="97.7" y="21.08" width="3.97" height="0.5" transform="translate(27.83 93.64) rotate(-57.26)"/><rect class="blockchain-based-cls-6" x="96.87" y="20.55" width="3.97" height="0.5" transform="translate(27.9 92.7) rotate(-57.26)"/><rect class="blockchain-based-cls-6" x="96.04" y="20.01" width="3.97" height="0.5" transform="matrix(0.54, -0.84, 0.84, 0.54, 27.97, 91.76)"/><rect class="blockchain-based-cls-6" x="95.25" y="19.51" width="3.97" height="0.5" transform="translate(28.02 90.86) rotate(-57.26)"/><rect class="blockchain-based-cls-6" x="94.42" y="18.96" width="3.97" height="0.5" transform="translate(28.1 89.91) rotate(-57.26)"/><rect class="blockchain-based-cls-6" x="93.62" y="18.46" width="3.97" height="0.5" transform="translate(28.16 89.01) rotate(-57.26)"/><rect class="blockchain-based-cls-6" x="92.84" y="17.96" width="3.97" height="0.5" transform="translate(28.22 88.11) rotate(-57.26)"/><rect class="blockchain-based-cls-7" x="92" y="17.42" width="3.97" height="0.5" transform="matrix(0.54, -0.84, 0.84, 0.54, 28.29, 87.16)"/><rect class="blockchain-based-cls-7" x="91.21" y="16.92" width="3.97" height="0.5" transform="translate(28.35 86.27) rotate(-57.26)"/><rect class="blockchain-based-cls-7" x="90.42" y="16.41" width="3.97" height="0.5" transform="translate(28.42 85.37) rotate(-57.26)"/><rect class="blockchain-based-cls-7" x="89.59" y="15.87" width="3.97" height="0.5" transform="translate(28.49 84.42) rotate(-57.26)"/><rect class="blockchain-based-cls-7" x="88.81" y="15.36" width="3.97" height="0.5" transform="translate(28.55 83.53) rotate(-57.26)"/><rect class="blockchain-based-cls-7" x="88.01" y="14.85" width="3.97" height="0.5" transform="translate(28.62 82.63) rotate(-57.26)"/><rect class="blockchain-based-cls-7" x="87.18" y="14.31" width="3.97" height="0.5" transform="translate(28.69 81.68) rotate(-57.26)"/><rect class="blockchain-based-cls-7" x="86.39" y="13.82" width="3.97" height="0.5" transform="translate(28.75 80.79) rotate(-57.26)"/><rect class="blockchain-based-cls-7" x="85.55" y="13.27" width="3.97" height="0.5" transform="translate(28.82 79.83) rotate(-57.26)"/><rect class="blockchain-based-cls-7" x="84.76" y="12.76" width="3.97" height="0.5" transform="translate(28.88 78.93) rotate(-57.26)"/><rect class="blockchain-based-cls-7" x="83.97" y="12.26" width="3.97" height="0.5" transform="translate(28.95 78.04) rotate(-57.26)"/><rect class="blockchain-based-cls-7" x="83.14" y="11.72" width="3.97" height="0.5" transform="translate(29.02 77.09) rotate(-57.26)"/><rect class="blockchain-based-cls-7" x="82.35" y="11.22" width="3.97" height="0.5" transform="matrix(0.54, -0.84, 0.84, 0.54, 29.08, 76.2)"/><rect class="blockchain-based-cls-7" x="81.57" y="10.7" width="3.97" height="0.5" transform="matrix(0.54, -0.84, 0.84, 0.54, 29.15, 75.3)"/><rect class="blockchain-based-cls-7" x="80.73" y="10.17" width="3.97" height="0.5" transform="translate(29.21 74.35) rotate(-57.26)"/><rect class="blockchain-based-cls-7" x="79.94" y="9.66" width="3.97" height="0.5" transform="matrix(0.54, -0.84, 0.84, 0.54, 29.28, 73.46)"/></g></g><polygon class="blockchain-based-cls-9" points="90.15 25.27 42.1 25.27 18.08 66.88 42.1 108.49 90.15 108.49 114.17 66.88 90.15 25.27"/><line class="blockchain-based-cls-9" x1="90.15" y1="25.27" x2="90.15" y2="108.49"/><line class="blockchain-based-cls-9" x1="42.11" y1="25.27" x2="42.11" y2="108.49"/><line class="blockchain-based-cls-9" x1="18.08" y1="66.88" x2="114.17" y2="66.88"/><line class="blockchain-based-cls-9" x1="42.11" y1="25.27" x2="90.15" y2="108.49"/><line class="blockchain-based-cls-9" x1="90.15" y1="25.27" x2="42.11" y2="108.49"/><line class="blockchain-based-cls-9" x1="114.17" y1="66.88" x2="42.11" y2="25.27"/><line class="blockchain-based-cls-9" x1="18.08" y1="66.88" x2="90.15" y2="25.27"/><line class="blockchain-based-cls-9" x1="90.15" y1="108.49" x2="18.08" y2="66.88"/><line class="blockchain-based-cls-9" x1="114.17" y1="66.88" x2="42.11" y2="108.49"/><circle class="blockchain-based-cls-10" cx="41.78" cy="24.7" r="2.22"/><circle class="blockchain-based-cls-10" cx="90.48" cy="24.7" r="2.22"/><circle class="blockchain-based-cls-10" cx="41.79" cy="109.06" r="2.22"/><circle class="blockchain-based-cls-10" cx="90.49" cy="109.06" r="2.22"/><circle class="blockchain-based-cls-10" cx="114.22" cy="66.88" r="2.22"/><circle class="blockchain-based-cls-10" cx="18.08" cy="66.88" r="2.22"/></g></g></svg>