<?xml version="1.0" encoding="utf-8"?>
<!-- Generator: Adobe Illustrator 22.0.1, SVG Export Plug-In . SVG Version: 6.00 Build 0)  -->
<svg version="1.1" id="Слой_1" xmlns="http://www.w3.org/2000/svg" xmlns:xlink="http://www.w3.org/1999/xlink" x="0px" y="0px"
	 viewBox="0 0 48 48" style="enable-background:new 0 0 48 48;" xml:space="preserve">
<style type="text/css">
	.st0{fill:#1379E2;}
</style>
<title></title>
<g id="_2-Control">
	<path class="st0" d="M43,0H5C2.2,0,0,2.2,0,5v38c0,2.8,2.2,5,5,5h38c2.8,0,5-2.2,5-5V5C48,2.2,45.8,0,43,0z M46,43c0,1.7-1.3,3-3,3
		H5c-1.7,0-3-1.3-3-3V5c0-1.7,1.3-3,3-3h38c1.7,0,3,1.3,3,3V43z"/>
	<path class="st0" d="M25,11.1V6h-2v5.1c-2.7,0.5-4.5,3.2-3.9,5.9c0.4,2,1.9,3.5,3.9,3.9V42h2V20.9c2.7-0.5,4.5-3.2,3.9-5.9
		C28.5,13,27,11.5,25,11.1z M24,19c-1.7,0-3-1.3-3-3s1.3-3,3-3s3,1.3,3,3S25.7,19,24,19z"/>
	<path class="st0" d="M37,22.1V6h-2v16.1c-2.7,0.5-4.5,3.2-3.9,5.9c0.4,2,1.9,3.5,3.9,3.9V42h2V31.9c2.7-0.5,4.5-3.2,3.9-5.9
		C40.5,24,39,22.5,37,22.1z M36,30c-1.7,0-3-1.3-3-3s1.3-3,3-3s3,1.3,3,3S37.7,30,36,30z"/>
	<path class="st0" d="M13,26.1V6h-2v20.1c-2.7,0.5-4.5,3.2-3.9,5.9c0.4,2,1.9,3.5,3.9,3.9V42h2v-6.1c2.7-0.5,4.5-3.2,3.9-5.9
		C16.5,28,15,26.5,13,26.1z M12,34c-1.7,0-3-1.3-3-3c0-1.7,1.3-3,3-3s3,1.3,3,3C15,32.7,13.7,34,12,34z"/>
</g>
</svg>
