<svg xmlns="http://www.w3.org/2000/svg" viewBox="0 0 144.7 138.2"><defs><style>.cls-1{fill:#2e424a;}.cls-2{fill:#2b3a43;}.cls-3{fill:#d8e3e6;}.cls-4{fill:#00b8a1;}.cls-5{fill:#0096ea;}.cls-6{fill:#17242a;}.cls-7{fill:#152024;}.cls-8{fill:#c8d1d4;}.cls-15,.cls-9{fill:#008ad9;}.cls-10,.cls-12,.cls-9{stroke:#152024;stroke-miterlimit:10;}.cls-10{fill:none;stroke-width:1.5px;}.cls-11{fill:#fff;}.cls-12{fill:#f7333a;}.cls-13{fill:#00424a;}.cls-14{fill:#fda23e;}</style></defs><title>deploy-software</title><g id="Слой_2" data-name="Слой 2"><g id="Слой_1-2" data-name="Слой 1"><g id="Слой_1-3" data-name="Слой 1"><g id="Слой_1-4" data-name="Слой 1"><path class="cls-1" d="M38,16.6,1.5,16.5A1.54,1.54,0,0,1,0,15L.1,1.5A1.54,1.54,0,0,1,1.6,0L38.1.1a1.54,1.54,0,0,1,1.5,1.5l-.1,13.5A1.42,1.42,0,0,1,38,16.6Z"/><path class="cls-2" d="M19.9.1,38.3.2c.8,0,1.4.4,1.4.9l-.1,14.6c0,.5-.6.9-1.4.9l-18.4-.1"/><path class="cls-3" d="M36.2,8.6,3.5,8.5A1.16,1.16,0,0,1,2.3,7.3V2.8A1.16,1.16,0,0,1,3.5,1.6l32.7.1a1.16,1.16,0,0,1,1.2,1.2V7.4A1.22,1.22,0,0,1,36.2,8.6Z"/><circle class="cls-4" cx="5.9" cy="5" r="0.9"/><circle class="cls-4" cx="9.6" cy="5" r="0.9"/><circle class="cls-5" cx="13.3" cy="5" r="0.9"/><rect class="cls-6" x="0.29" y="11.75" width="4.5" height="0.6" transform="translate(-9.52 14.54) rotate(-89.77)"/><rect class="cls-6" x="1.4" y="11.76" width="4.5" height="0.6" transform="translate(-8.42 15.66) rotate(-89.77)"/><rect class="cls-6" x="2.54" y="11.77" width="4.5" height="0.6" transform="translate(-7.29 16.82) rotate(-89.77)"/><rect class="cls-6" x="3.46" y="11.78" width="4.5" height="0.6" transform="translate(-6.39 17.74) rotate(-89.77)"/><rect class="cls-6" x="4.58" y="11.79" width="4.5" height="0.6" transform="translate(-5.29 18.86) rotate(-89.77)"/><rect class="cls-6" x="5.62" y="11.79" width="4.5" height="0.6" transform="translate(-4.26 19.92) rotate(-89.77)"/><rect class="cls-6" x="6.72" y="11.8" width="4.5" height="0.6" transform="translate(-3.17 21.03) rotate(-89.77)"/><rect class="cls-6" x="7.73" y="11.81" width="4.5" height="0.6" transform="translate(-2.17 22.05) rotate(-89.77)"/><rect class="cls-6" x="8.88" y="11.82" width="4.5" height="0.6" transform="translate(-1.04 23.2) rotate(-89.77)"/><rect class="cls-6" x="9.99" y="11.83" width="4.5" height="0.6" transform="translate(0.07 24.33) rotate(-89.77)"/><rect class="cls-6" x="11.01" y="11.84" width="4.5" height="0.6" transform="translate(1.07 25.35) rotate(-89.77)"/><rect class="cls-6" x="12.15" y="11.85" width="4.5" height="0.6" transform="translate(2.2 26.5) rotate(-89.77)"/><rect class="cls-6" x="13.28" y="11.76" width="4.5" height="0.6" transform="translate(3.41 27.53) rotate(-89.77)"/><rect class="cls-6" x="14.29" y="11.86" width="4.5" height="0.6" transform="translate(4.31 28.65) rotate(-89.77)"/><rect class="cls-6" x="15.43" y="11.77" width="4.5" height="0.6" transform="translate(5.54 29.71) rotate(-89.77)"/><rect class="cls-6" x="16.55" y="11.88" width="4.5" height="0.6" transform="translate(6.54 30.93) rotate(-89.77)"/><rect class="cls-6" x="17.56" y="11.79" width="4.5" height="0.6" transform="translate(7.64 31.86) rotate(-89.77)"/><rect class="cls-7" x="18.71" y="11.9" width="4.5" height="0.6" transform="translate(8.67 33.11) rotate(-89.77)"/><rect class="cls-7" x="19.81" y="11.81" width="4.5" height="0.6" transform="translate(9.86 34.12) rotate(-89.77)"/><rect class="cls-7" x="20.82" y="11.92" width="4.5" height="0.6" transform="translate(10.76 35.24) rotate(-89.77)"/><rect class="cls-7" x="21.97" y="11.93" width="4.5" height="0.6" transform="translate(11.89 36.39) rotate(-89.77)"/><rect class="cls-7" x="22.98" y="11.83" width="4.5" height="0.6" transform="translate(13 37.32) rotate(-89.77)"/><rect class="cls-7" x="24.1" y="11.84" width="4.5" height="0.6" transform="translate(14.1 38.44) rotate(-89.77)"/><rect class="cls-7" x="25.24" y="11.85" width="4.5" height="0.6" transform="translate(15.23 39.59) rotate(-89.77)"/><rect class="cls-7" x="26.26" y="11.86" width="4.5" height="0.6" transform="translate(16.24 40.63) rotate(-89.77)"/><rect class="cls-7" x="27.41" y="11.87" width="4.5" height="0.6" transform="translate(17.37 41.78) rotate(-89.77)"/><rect class="cls-7" x="28.33" y="11.88" width="4.5" height="0.6" transform="translate(18.28 42.7) rotate(-89.77)"/><rect class="cls-7" x="29.44" y="11.89" width="4.5" height="0.6" transform="translate(19.38 43.83) rotate(-89.77)"/><rect class="cls-7" x="30.58" y="11.9" width="4.5" height="0.6" transform="translate(20.51 44.98) rotate(-89.77)"/><rect class="cls-7" x="31.58" y="11.9" width="4.5" height="0.6" transform="translate(21.49 45.99) rotate(-89.77)"/><rect class="cls-7" x="32.7" y="11.91" width="4.5" height="0.6" transform="translate(22.6 47.11) rotate(-89.77)"/><rect class="cls-7" x="33.74" y="11.92" width="4.5" height="0.6" transform="translate(23.63 48.16) rotate(-89.77)"/><rect class="cls-7" x="34.86" y="11.93" width="4.5" height="0.6" transform="translate(24.73 49.29) rotate(-89.77)"/><path class="cls-8" d="M19.9,1.6l16.3.1a1.16,1.16,0,0,1,1.2,1.2V7.4a1.16,1.16,0,0,1-1.2,1.2L19.9,8.5"/><path class="cls-1" d="M91.2,60.4l-36.5-.1a1.54,1.54,0,0,1-1.5-1.5l.1-13.5a1.54,1.54,0,0,1,1.5-1.5l36.5.1a1.54,1.54,0,0,1,1.5,1.5l-.1,13.5A1.42,1.42,0,0,1,91.2,60.4Z"/><path class="cls-2" d="M73.1,43.9l18.4.1c.8,0,1.4.4,1.4.9l-.1,14.6c0,.5-.6.9-1.4.9L73,60.3"/><path class="cls-3" d="M89.4,52.4l-32.7-.1a1.16,1.16,0,0,1-1.2-1.2V46.6a1.16,1.16,0,0,1,1.2-1.2l32.7.1a1.16,1.16,0,0,1,1.2,1.2v4.5A1.22,1.22,0,0,1,89.4,52.4Z"/><circle class="cls-4" cx="59.1" cy="48.8" r="0.9"/><circle class="cls-4" cx="62.8" cy="48.8" r="0.9"/><circle class="cls-5" cx="66.5" cy="48.8" r="0.9"/><rect class="cls-6" x="53.48" y="55.52" width="4.5" height="0.6" transform="translate(-0.31 111.33) rotate(-89.77)"/><rect class="cls-6" x="54.49" y="55.63" width="4.5" height="0.6" transform="translate(0.59 112.45) rotate(-89.77)"/><rect class="cls-6" x="55.64" y="55.64" width="4.5" height="0.6" transform="translate(1.72 113.6) rotate(-89.77)"/><rect class="cls-6" x="56.56" y="55.65" width="4.5" height="0.6" transform="translate(2.62 114.53) rotate(-89.77)"/><rect class="cls-6" x="57.67" y="55.56" width="4.5" height="0.6" transform="translate(3.82 115.55) rotate(-89.77)"/><rect class="cls-6" x="58.81" y="55.66" width="4.5" height="0.6" transform="translate(4.85 116.8) rotate(-89.77)"/><rect class="cls-6" x="59.81" y="55.67" width="4.5" height="0.6" transform="translate(5.84 117.81) rotate(-89.77)"/><rect class="cls-6" x="60.93" y="55.68" width="4.5" height="0.6" transform="translate(6.94 118.93) rotate(-89.77)"/><rect class="cls-6" x="62.07" y="55.69" width="4.5" height="0.6" transform="translate(8.07 120.09) rotate(-89.77)"/><rect class="cls-6" x="63.09" y="55.7" width="4.5" height="0.6" transform="translate(9.08 121.11) rotate(-89.77)"/><rect class="cls-6" x="64.2" y="55.61" width="4.5" height="0.6" transform="translate(10.28 122.14) rotate(-89.77)"/><rect class="cls-6" x="65.25" y="55.62" width="4.5" height="0.6" transform="translate(11.31 123.19) rotate(-89.77)"/><rect class="cls-6" x="66.37" y="55.63" width="4.5" height="0.6" transform="translate(12.42 124.32) rotate(-89.77)"/><rect class="cls-6" x="67.48" y="55.63" width="4.5" height="0.6" transform="translate(13.52 125.44) rotate(-89.77)"/><rect class="cls-6" x="68.63" y="55.64" width="4.5" height="0.6" transform="translate(14.65 126.6) rotate(-89.77)"/><rect class="cls-6" x="69.64" y="55.75" width="4.5" height="0.6" transform="translate(15.55 127.72) rotate(-89.77)"/><rect class="cls-6" x="70.76" y="55.66" width="4.5" height="0.6" transform="translate(16.75 128.74) rotate(-89.77)"/><rect class="cls-7" x="71.8" y="55.77" width="4.5" height="0.6" transform="translate(17.68 129.89) rotate(-89.77)"/><rect class="cls-7" x="72.9" y="55.68" width="4.5" height="0.6" transform="translate(18.87 130.91) rotate(-89.77)"/><rect class="cls-7" x="73.92" y="55.69" width="4.5" height="0.6" transform="translate(19.87 131.93) rotate(-89.77)"/><rect class="cls-7" x="75.06" y="55.7" width="4.5" height="0.6" transform="translate(21 133.08) rotate(-89.77)"/><rect class="cls-7" x="76.18" y="55.7" width="4.5" height="0.6" transform="translate(22.11 134.21) rotate(-89.77)"/><rect class="cls-7" x="77.19" y="55.71" width="4.5" height="0.6" transform="translate(23.11 135.23) rotate(-89.77)"/><rect class="cls-7" x="78.33" y="55.72" width="4.5" height="0.6" transform="translate(24.24 136.38) rotate(-89.77)"/><rect class="cls-7" x="79.36" y="55.73" width="4.5" height="0.6" transform="translate(25.25 137.41) rotate(-89.77)"/><rect class="cls-7" x="80.5" y="55.74" width="4.5" height="0.6" transform="translate(26.38 138.57) rotate(-89.77)"/><rect class="cls-7" x="81.52" y="55.75" width="4.5" height="0.6" transform="translate(27.39 139.59) rotate(-89.77)"/><rect class="cls-7" x="82.53" y="55.76" width="4.5" height="0.6" transform="translate(28.39 140.61) rotate(-89.77)"/><rect class="cls-7" x="83.68" y="55.67" width="4.5" height="0.6" transform="translate(29.62 141.67) rotate(-89.77)"/><rect class="cls-7" x="84.78" y="55.77" width="4.5" height="0.6" transform="translate(30.6 142.88) rotate(-89.77)"/><rect class="cls-7" x="85.79" y="55.78" width="4.5" height="0.6" transform="translate(31.61 143.9) rotate(-89.77)"/><rect class="cls-7" x="86.94" y="55.79" width="4.5" height="0.6" transform="translate(32.74 145.05) rotate(-89.77)"/><rect class="cls-7" x="87.95" y="55.7" width="4.5" height="0.6" transform="translate(33.84 145.98) rotate(-89.77)"/><path class="cls-8" d="M73,45.5l16.3.1a1.16,1.16,0,0,1,1.2,1.2v4.5a1.16,1.16,0,0,1-1.2,1.2L73,52.4"/></g><g id="Слой_3" data-name="Слой 3"><circle class="cls-9" cx="124.8" cy="20.9" r="2.5"/><circle class="cls-9" cx="19.9" cy="20.9" r="2.5"/><circle class="cls-9" cx="73" cy="64.8" r="2.5"/></g><path class="cls-1" d="M143,16.6l-36.5-.1A1.54,1.54,0,0,1,105,15l.1-13.5A1.54,1.54,0,0,1,106.6,0l36.5.1a1.54,1.54,0,0,1,1.5,1.5l-.1,13.5A1.42,1.42,0,0,1,143,16.6Z"/><path class="cls-2" d="M124.9.1l18.4.1c.8,0,1.4.4,1.4.9l-.1,14.6c0,.5-.6.9-1.4.9l-18.4-.1"/><path class="cls-3" d="M141.2,8.6l-32.7-.1a1.16,1.16,0,0,1-1.2-1.2V2.8a1.16,1.16,0,0,1,1.2-1.2l32.7.1a1.16,1.16,0,0,1,1.2,1.2V7.4A1.22,1.22,0,0,1,141.2,8.6Z"/><circle class="cls-4" cx="110.9" cy="5" r="0.9"/><circle class="cls-4" cx="114.6" cy="5" r="0.9"/><circle class="cls-5" cx="118.3" cy="5" r="0.9"/><rect class="cls-6" x="105.29" y="11.77" width="4.5" height="0.6" transform="translate(95.04 119.56) rotate(-89.77)"/><rect class="cls-6" x="106.41" y="11.78" width="4.5" height="0.6" transform="translate(96.14 120.68) rotate(-89.77)"/><rect class="cls-6" x="107.55" y="11.79" width="4.5" height="0.6" transform="translate(97.27 121.84) rotate(-89.77)"/><rect class="cls-6" x="108.47" y="11.79" width="4.5" height="0.6" transform="translate(98.18 122.76) rotate(-89.77)"/><rect class="cls-6" x="109.58" y="11.8" width="4.5" height="0.6" transform="translate(99.28 123.88) rotate(-89.77)"/><rect class="cls-6" x="110.62" y="11.81" width="4.5" height="0.6" transform="translate(100.31 124.94) rotate(-89.77)"/><rect class="cls-6" x="111.73" y="11.82" width="4.5" height="0.6" transform="translate(101.4 126.05) rotate(-89.77)"/><rect class="cls-6" x="112.74" y="11.83" width="4.5" height="0.6" transform="translate(102.4 127.07) rotate(-89.77)"/><rect class="cls-6" x="113.88" y="11.84" width="4.5" height="0.6" transform="translate(103.53 128.22) rotate(-89.77)"/><rect class="cls-6" x="115" y="11.85" width="4.5" height="0.6" transform="translate(104.63 129.35) rotate(-89.77)"/><rect class="cls-6" x="116.01" y="11.85" width="4.5" height="0.6" transform="translate(105.63 130.37) rotate(-89.77)"/><rect class="cls-6" x="117.16" y="11.76" width="4.5" height="0.6" transform="translate(106.86 131.42) rotate(-89.77)"/><rect class="cls-6" x="118.28" y="11.77" width="4.5" height="0.6" transform="translate(107.97 132.56) rotate(-89.77)"/><rect class="cls-6" x="119.29" y="11.88" width="4.5" height="0.6" transform="translate(108.87 133.68) rotate(-89.77)"/><rect class="cls-6" x="120.44" y="11.79" width="4.5" height="0.6" transform="translate(110.1 134.73) rotate(-89.77)"/><rect class="cls-6" x="121.56" y="11.9" width="4.5" height="0.6" transform="translate(111.11 135.95) rotate(-89.77)"/><rect class="cls-6" x="122.57" y="11.81" width="4.5" height="0.6" transform="translate(112.21 136.88) rotate(-89.77)"/><rect class="cls-7" x="123.71" y="11.92" width="4.5" height="0.6" transform="translate(113.24 138.13) rotate(-89.77)"/><rect class="cls-7" x="124.81" y="11.83" width="4.5" height="0.6" transform="translate(114.43 139.14) rotate(-89.77)"/><rect class="cls-7" x="125.83" y="11.93" width="4.5" height="0.6" transform="translate(115.33 140.26) rotate(-89.77)"/><rect class="cls-7" x="126.97" y="11.84" width="4.5" height="0.6" transform="translate(116.56 141.31) rotate(-89.77)"/><rect class="cls-7" x="127.99" y="11.85" width="4.5" height="0.6" transform="translate(117.56 142.34) rotate(-89.77)"/><rect class="cls-7" x="129.1" y="11.86" width="4.5" height="0.6" transform="translate(118.66 143.46) rotate(-89.77)"/><rect class="cls-7" x="130.25" y="11.87" width="4.5" height="0.6" transform="translate(119.79 144.61) rotate(-89.77)"/><rect class="cls-7" x="131.27" y="11.88" width="4.5" height="0.6" transform="translate(120.81 145.65) rotate(-89.77)"/><rect class="cls-7" x="132.41" y="11.89" width="4.5" height="0.6" transform="translate(121.94 146.8) rotate(-89.77)"/><rect class="cls-7" x="133.33" y="11.89" width="4.5" height="0.6" transform="translate(122.84 147.73) rotate(-89.77)"/><rect class="cls-7" x="134.44" y="11.9" width="4.5" height="0.6" transform="translate(123.94 148.85) rotate(-89.77)"/><rect class="cls-7" x="135.59" y="11.81" width="4.5" height="0.6" transform="translate(125.17 149.9) rotate(-89.77)"/><rect class="cls-7" x="136.59" y="11.92" width="4.5" height="0.6" transform="translate(126.06 151.01) rotate(-89.77)"/><rect class="cls-7" x="137.7" y="11.93" width="4.5" height="0.6" transform="translate(127.16 152.13) rotate(-89.77)"/><rect class="cls-7" x="138.75" y="11.94" width="4.5" height="0.6" transform="translate(128.19 153.18) rotate(-89.77)"/><rect class="cls-7" x="139.86" y="11.85" width="4.5" height="0.6" transform="translate(129.4 154.21) rotate(-89.77)"/><path class="cls-8" d="M124.9,1.7l16.3.1A1.16,1.16,0,0,1,142.4,3V7.5a1.16,1.16,0,0,1-1.2,1.2l-16.3-.1"/><g id="lines"><line class="cls-10" x1="50.8" y1="8.9" x2="95" y2="8.9"/></g><rect class="cls-4" x="98.03" y="21.93" width="4.04" height="77.29" transform="matrix(0.84, 0.54, -0.54, 0.84, 48.39, -44.36)"/><path class="cls-4" d="M121.94,29.91l1.92,1.22a.18.18,0,0,0,.22,0,.2.2,0,0,0,.09-.21l-1.25-5.71a.21.21,0,0,0-.24-.16L117,26.31a.19.19,0,0,0-.16.16.21.21,0,0,0,.09.22l1.91,1.22"/><rect class="cls-4" x="43.18" y="21.52" width="4.04" height="77.69" transform="translate(-25.56 34.28) rotate(-32.94)"/><path class="cls-4" d="M26.42,27.89l1.91-1.23a.22.22,0,0,0,.09-.21.22.22,0,0,0-.16-.17l-5.71-1.23a.21.21,0,0,0-.24.16l-1.23,5.72a.22.22,0,0,0,.32.22l1.9-1.23"/><rect class="cls-4" x="70.99" y="73.45" width="4.04" height="17.96" transform="translate(-0.26 0.23) rotate(-0.18)"/><path class="cls-4" d="M74.83,74.07H77.1a.21.21,0,0,0,.19-.13.2.2,0,0,0,0-.22l-4.14-4.12a.17.17,0,0,0-.15-.06.2.2,0,0,0-.14.06L68.7,73.73a.21.21,0,0,0,.14.36h2.27"/><ellipse class="cls-11" cx="73.07" cy="102.77" rx="13.17" ry="12.21" transform="translate(-0.33 0.23) rotate(-0.18)"/><circle class="cls-9" cx="73.07" cy="104.06" r="11.45"/><rect class="cls-11" x="58.33" y="97.49" width="29.75" height="19.9"/><circle class="cls-12" cx="43.9" cy="8.6" r="2.5"/><circle class="cls-12" cx="101.3" cy="8.6" r="2.5"/><circle class="cls-12" cx="73" cy="39.6" r="2.5"/><g id="chevron-right"><polygon points="92.4 5.3 91.5 6.1 94.2 8.9 91.5 11.6 92.3 12.4 95.9 8.9 92.4 5.3"/></g><g id="chevron-right-2" data-name="chevron-right"><polygon points="52.9 12.4 53.8 11.6 51.1 8.9 53.9 6.2 53 5.3 49.4 8.8 52.9 12.4"/></g><line class="cls-10" x1="48.2" y1="14.6" x2="68.5" y2="35.5"/><g id="chevron-right-3" data-name="chevron-right"><polygon points="47 18.6 48.2 18.6 48.2 14.7 52.1 14.8 52.1 13.6 47.1 13.5 47 18.6"/></g><g id="chevron-right-4" data-name="chevron-right"><polygon points="69.4 31.2 68.2 31.2 68.1 35 64.3 34.9 64.2 36.1 69.3 36.2 69.4 31.2"/></g><line class="cls-10" x1="97.8" y1="14.7" x2="77.3" y2="35.3"/><g id="chevron-right-5" data-name="chevron-right"><polygon points="93.8 13.6 93.8 14.7 97.7 14.7 97.6 18.6 98.8 18.6 98.8 13.6 93.8 13.6"/></g><g id="chevron-right-6" data-name="chevron-right"><polygon points="81.6 36.2 81.6 35 77.7 35 77.7 31.1 76.5 31.1 76.5 36.1 81.6 36.2"/></g><path class="cls-13" d="M45.9,138.2h55.4a2.11,2.11,0,0,0,2.1-2.1v-15a2.11,2.11,0,0,0-2.1-2.1H45.9a2.11,2.11,0,0,0-2.1,2.1v15A2.11,2.11,0,0,0,45.9,138.2Z"/><path class="cls-5" d="M100.3,128.8H46.8a.94.94,0,0,1-1-1v-6a.94.94,0,0,1,1-1h53.5a.94.94,0,0,1,1,1v6A1,1,0,0,1,100.3,128.8Z"/><rect class="cls-6" x="74.7" y="130.5" width="0.7" height="5.3"/><rect class="cls-6" x="73.2" y="130.5" width="0.7" height="5.3"/><rect class="cls-6" x="71.7" y="130.5" width="0.7" height="5.3"/><rect class="cls-6" x="70.2" y="130.5" width="0.7" height="5.3"/><rect class="cls-6" x="68.6" y="130.5" width="0.7" height="5.3"/><rect class="cls-6" x="67.2" y="130.5" width="0.7" height="5.3"/><rect class="cls-6" x="65.7" y="130.5" width="0.7" height="5.3"/><rect class="cls-6" x="64.2" y="130.5" width="0.7" height="5.3"/><rect class="cls-6" x="62.7" y="130.5" width="0.7" height="5.3"/><rect class="cls-6" x="61.1" y="130.5" width="0.7" height="5.3"/><rect class="cls-6" x="59.5" y="130.5" width="0.7" height="5.3"/><rect class="cls-6" x="58.1" y="130.5" width="0.7" height="5.3"/><rect class="cls-6" x="56.5" y="130.5" width="0.7" height="5.3"/><rect class="cls-6" x="55" y="130.5" width="0.7" height="5.3"/><rect class="cls-6" x="53.5" y="130.5" width="0.7" height="5.3"/><rect class="cls-6" x="51.9" y="130.5" width="0.7" height="5.3"/><rect class="cls-6" x="50.4" y="130.5" width="0.7" height="5.3"/><rect class="cls-6" x="48.9" y="130.5" width="0.7" height="5.3"/><rect class="cls-6" x="47.5" y="130.5" width="0.7" height="5.3"/><rect class="cls-6" x="45.9" y="130.5" width="0.7" height="5.3"/><rect class="cls-6" x="100.6" y="130.5" width="0.7" height="5.3"/><rect class="cls-6" x="99.1" y="130.5" width="0.7" height="5.3"/><rect class="cls-6" x="97.6" y="130.5" width="0.7" height="5.3"/><rect class="cls-6" x="96.1" y="130.5" width="0.7" height="5.3"/><rect class="cls-6" x="94.6" y="130.5" width="0.7" height="5.3"/><rect class="cls-6" x="93.1" y="130.5" width="0.7" height="5.3"/><rect class="cls-6" x="91.6" y="130.5" width="0.7" height="5.3"/><rect class="cls-6" x="90" y="130.5" width="0.7" height="5.3"/><rect class="cls-6" x="88.6" y="130.5" width="0.7" height="5.3"/><rect class="cls-6" x="87" y="130.5" width="0.7" height="5.3"/><rect class="cls-6" x="85.5" y="130.5" width="0.7" height="5.3"/><rect class="cls-6" x="84" y="130.5" width="0.7" height="5.3"/><rect class="cls-6" x="82.4" y="130.5" width="0.7" height="5.3"/><rect class="cls-6" x="80.8" y="130.5" width="0.7" height="5.3"/><rect class="cls-6" x="79.4" y="130.5" width="0.7" height="5.3"/><rect class="cls-6" x="77.9" y="130.5" width="0.7" height="5.3"/><rect class="cls-6" x="76.3" y="130.5" width="0.7" height="5.3"/><circle class="cls-14" cx="49.5" cy="124.8" r="1"/><circle class="cls-14" cx="53.7" cy="124.8" r="1"/><circle class="cls-14" cx="58" cy="124.8" r="1"/><path class="cls-13" d="M45.9,117.8h55.4a2.11,2.11,0,0,0,2.1-2.1v-15a2.11,2.11,0,0,0-2.1-2.1H45.9a2.11,2.11,0,0,0-2.1,2.1v15A2.11,2.11,0,0,0,45.9,117.8Z"/><path class="cls-5" d="M73.1,100.4h27.2a.94.94,0,0,1,1,1v6a.94.94,0,0,1-1,1H46.8a.94.94,0,0,1-1-1v-6a.94.94,0,0,1,1-1H73.1"/><path class="cls-15" d="M73.1,100.4h27.2a.94.94,0,0,1,1,1v6a.94.94,0,0,1-1,1H73.1"/><path class="cls-15" d="M73.1,120.8h27.2a.94.94,0,0,1,1,1v6a.94.94,0,0,1-1,1H73.1"/><rect class="cls-6" x="74.7" y="110.1" width="0.7" height="5.3"/><rect class="cls-6" x="73.2" y="110.1" width="0.7" height="5.3"/><rect class="cls-6" x="71.7" y="110.1" width="0.7" height="5.3"/><rect class="cls-6" x="70.2" y="110.1" width="0.7" height="5.3"/><rect class="cls-6" x="68.6" y="110.1" width="0.7" height="5.3"/><rect class="cls-6" x="67.2" y="110.1" width="0.7" height="5.3"/><rect class="cls-6" x="65.7" y="110.1" width="0.7" height="5.3"/><rect class="cls-6" x="64.2" y="110.1" width="0.7" height="5.3"/><rect class="cls-6" x="62.7" y="110.1" width="0.7" height="5.3"/><rect class="cls-6" x="61.1" y="110.1" width="0.7" height="5.3"/><rect class="cls-6" x="59.5" y="110.1" width="0.7" height="5.3"/><rect class="cls-6" x="58.1" y="110.1" width="0.7" height="5.3"/><rect class="cls-6" x="56.5" y="110.1" width="0.7" height="5.3"/><rect class="cls-6" x="55" y="110.1" width="0.7" height="5.3"/><rect class="cls-6" x="53.5" y="110.1" width="0.7" height="5.3"/><rect class="cls-6" x="51.9" y="110.1" width="0.7" height="5.3"/><rect class="cls-6" x="50.4" y="110.1" width="0.7" height="5.3"/><rect class="cls-6" x="48.9" y="110.1" width="0.7" height="5.3"/><rect class="cls-6" x="47.5" y="110.1" width="0.7" height="5.3"/><rect class="cls-6" x="45.9" y="110.1" width="0.7" height="5.3"/><rect class="cls-6" x="100.6" y="110.1" width="0.7" height="5.3"/><rect class="cls-6" x="99.1" y="110.1" width="0.7" height="5.3"/><rect class="cls-6" x="97.6" y="110.1" width="0.7" height="5.3"/><rect class="cls-6" x="96.1" y="110.1" width="0.7" height="5.3"/><rect class="cls-6" x="94.6" y="110.1" width="0.7" height="5.3"/><rect class="cls-6" x="93.1" y="110.1" width="0.7" height="5.3"/><rect class="cls-6" x="91.6" y="110.1" width="0.7" height="5.3"/><rect class="cls-6" x="90" y="110.1" width="0.7" height="5.3"/><rect class="cls-6" x="88.6" y="110.1" width="0.7" height="5.3"/><rect class="cls-6" x="87" y="110.1" width="0.7" height="5.3"/><rect class="cls-6" x="85.5" y="110.1" width="0.7" height="5.3"/><rect class="cls-6" x="84" y="110.1" width="0.7" height="5.3"/><rect class="cls-6" x="82.4" y="110.1" width="0.7" height="5.3"/><rect class="cls-6" x="80.8" y="110.1" width="0.7" height="5.3"/><rect class="cls-6" x="79.4" y="110.1" width="0.7" height="5.3"/><rect class="cls-6" x="77.9" y="110.1" width="0.7" height="5.3"/><rect class="cls-6" x="76.3" y="110.1" width="0.7" height="5.3"/><circle class="cls-14" cx="49.5" cy="104.4" r="1"/><circle class="cls-14" cx="53.7" cy="104.4" r="1"/><circle class="cls-14" cx="58" cy="104.4" r="1"/></g></g></g></svg>