<svg xmlns="http://www.w3.org/2000/svg" viewBox="0 0 144.71 138.15"><defs><style>.cls-1{fill:#2e424a;}.cls-2{fill:#2b3a43;}.cls-3{fill:#d8e3e6;}.cls-4{fill:#00b8a1;}.cls-5{fill:#0096ea;}.cls-6{fill:#17242a;}.cls-7{fill:#152024;}.cls-8{fill:#c8d1d4;}.cls-12,.cls-14,.cls-9{fill:#008ad9;}.cls-10,.cls-11,.cls-9{stroke:#152024;}.cls-10,.cls-11,.cls-12,.cls-13,.cls-9{stroke-miterlimit:10;}.cls-10,.cls-13{fill:none;}.cls-10,.cls-12,.cls-13{stroke-width:1.5px;}.cls-11{fill:#f7333a;}.cls-12,.cls-13{stroke:#008ad9;}.cls-15{fill:#00424a;}</style></defs><title>deploy_software</title><g id="Слой_2" data-name="Слой 2"><g id="Слой_1-2" data-name="Слой 1"><g id="Слой_1-3" data-name="Слой 1"><path class="cls-1" d="M38,16.6,1.5,16.5A1.54,1.54,0,0,1,0,15L.1,1.5A1.54,1.54,0,0,1,1.6,0L38.1.1a1.54,1.54,0,0,1,1.5,1.5l-.1,13.5A1.42,1.42,0,0,1,38,16.6Z"/><path class="cls-2" d="M19.9.08l18.4.1c.8,0,1.4.39,1.4.89l-.1,14.64c0,.49-.6.89-1.4.89l-18.4-.1"/><path class="cls-3" d="M36.2,8.6,3.5,8.5A1.16,1.16,0,0,1,2.3,7.3V2.8A1.16,1.16,0,0,1,3.5,1.6l32.7.1a1.16,1.16,0,0,1,1.2,1.2V7.4A1.22,1.22,0,0,1,36.2,8.6Z"/><circle class="cls-4" cx="5.9" cy="5" r="0.9"/><circle class="cls-4" cx="9.6" cy="5" r="0.9"/><circle class="cls-5" cx="13.3" cy="5" r="0.9"/><rect class="cls-6" x="0.3" y="11.72" width="4.5" height="0.6" transform="translate(-9.48 14.52) rotate(-89.77)"/><rect class="cls-6" x="1.36" y="11.77" width="4.5" height="0.6" transform="translate(-8.48 15.63) rotate(-89.77)"/><rect class="cls-6" x="2.49" y="11.75" width="4.5" height="0.6" transform="translate(-7.34 16.74) rotate(-89.77)"/><rect class="cls-6" x="3.45" y="11.8" width="4.5" height="0.6" transform="translate(-6.42 17.75) rotate(-89.77)"/><rect class="cls-6" x="4.51" y="11.75" width="4.5" height="0.6" transform="translate(-5.31 18.76) rotate(-89.77)"/><rect class="cls-6" x="5.64" y="11.83" width="4.5" height="0.6" transform="translate(-4.27 19.97) rotate(-89.77)"/><rect class="cls-6" x="6.69" y="11.78" width="4.5" height="0.6" transform="translate(-3.18 20.98) rotate(-89.77)"/><rect class="cls-6" x="7.75" y="11.83" width="4.5" height="0.6" transform="translate(-2.17 22.08) rotate(-89.77)"/><rect class="cls-6" x="8.88" y="11.81" width="4.5" height="0.6" transform="translate(-1.03 23.19) rotate(-89.77)"/><rect class="cls-6" x="9.94" y="11.86" width="4.5" height="0.6" transform="translate(-0.02 24.3) rotate(-89.77)"/><rect class="cls-6" x="11" y="11.81" width="4.5" height="0.6" transform="translate(1.09 25.31) rotate(-89.77)"/><rect class="cls-6" x="12.13" y="11.79" width="4.5" height="0.6" transform="translate(2.23 26.42) rotate(-89.77)"/><rect class="cls-6" x="13.25" y="11.78" width="4.5" height="0.6" transform="translate(3.35 27.53) rotate(-89.77)"/><rect class="cls-6" x="14.31" y="11.83" width="4.5" height="0.6" transform="translate(4.36 28.64) rotate(-89.77)"/><rect class="cls-6" x="15.43" y="11.81" width="4.5" height="0.6" transform="translate(5.5 29.75) rotate(-89.77)"/><rect class="cls-6" x="16.5" y="11.86" width="4.5" height="0.6" transform="translate(6.51 30.85) rotate(-89.77)"/><rect class="cls-6" x="17.56" y="11.8" width="4.5" height="0.6" transform="translate(7.62 31.86) rotate(-89.77)"/><rect class="cls-7" x="18.68" y="11.89" width="4.5" height="0.6" transform="translate(8.66 33.07) rotate(-89.77)"/><rect class="cls-7" x="19.74" y="11.84" width="4.5" height="0.6" transform="translate(9.76 34.08) rotate(-89.77)"/><rect class="cls-7" x="20.8" y="11.89" width="4.5" height="0.6" transform="translate(10.77 35.19) rotate(-89.77)"/><rect class="cls-7" x="21.93" y="11.87" width="4.5" height="0.6" transform="translate(11.91 36.3) rotate(-89.77)"/><rect class="cls-7" x="22.99" y="11.82" width="4.5" height="0.6" transform="translate(13.02 37.31) rotate(-89.77)"/><rect class="cls-7" x="24.05" y="11.86" width="4.5" height="0.6" transform="translate(14.03 38.41) rotate(-89.77)"/><rect class="cls-7" x="25.18" y="11.85" width="4.5" height="0.6" transform="translate(15.17 39.52) rotate(-89.77)"/><rect class="cls-7" x="26.24" y="11.89" width="4.5" height="0.6" transform="translate(16.19 40.63) rotate(-89.77)"/><rect class="cls-7" x="27.37" y="11.87" width="4.5" height="0.6" transform="translate(17.33 41.74) rotate(-89.77)"/><rect class="cls-7" x="28.33" y="11.92" width="4.5" height="0.6" transform="translate(18.24 42.75) rotate(-89.77)"/><rect class="cls-7" x="29.39" y="11.86" width="4.5" height="0.6" transform="translate(19.35 43.76) rotate(-89.77)"/><rect class="cls-7" x="30.52" y="11.85" width="4.5" height="0.6" transform="translate(20.49 44.87) rotate(-89.77)"/><rect class="cls-7" x="31.57" y="11.9" width="4.5" height="0.6" transform="translate(21.49 45.98) rotate(-89.77)"/><rect class="cls-7" x="32.63" y="11.95" width="4.5" height="0.6" transform="translate(22.5 47.08) rotate(-89.77)"/><rect class="cls-7" x="33.76" y="11.93" width="4.5" height="0.6" transform="translate(23.64 48.19) rotate(-89.77)"/><rect class="cls-7" x="34.82" y="11.88" width="4.5" height="0.6" transform="translate(24.75 49.2) rotate(-89.77)"/><path class="cls-8" d="M19.85,1.64l16.3.1a1.14,1.14,0,0,1,1.2,1.18V7.37a1.15,1.15,0,0,1-1.2,1.19l-16.3-.1"/><path class="cls-1" d="M91.13,60.44l-36.5-.1a1.54,1.54,0,0,1-1.5-1.5l.1-13.5a1.54,1.54,0,0,1,1.5-1.5l36.5.1a1.54,1.54,0,0,1,1.5,1.5l-.1,13.5A1.42,1.42,0,0,1,91.13,60.44Z"/><path class="cls-2" d="M73,43.92l18.4.09c.8,0,1.4.4,1.4.89l-.1,14.65c0,.49-.6.89-1.4.89l-18.4-.1"/><path class="cls-3" d="M89.33,52.44l-32.7-.1a1.16,1.16,0,0,1-1.2-1.2v-4.5a1.16,1.16,0,0,1,1.2-1.2l32.7.1a1.16,1.16,0,0,1,1.2,1.2v4.5A1.22,1.22,0,0,1,89.33,52.44Z"/><circle class="cls-4" cx="59.03" cy="48.84" r="0.9"/><circle class="cls-4" cx="62.73" cy="48.84" r="0.9"/><circle class="cls-5" cx="66.43" cy="48.84" r="0.9"/><rect class="cls-6" x="53.43" y="55.56" width="4.5" height="0.6" transform="translate(-0.4 111.32) rotate(-89.77)"/><rect class="cls-6" x="54.49" y="55.61" width="4.5" height="0.6" transform="translate(0.61 112.43) rotate(-89.77)"/><rect class="cls-6" x="55.62" y="55.59" width="4.5" height="0.6" transform="translate(1.74 113.53) rotate(-89.77)"/><rect class="cls-6" x="56.58" y="55.64" width="4.5" height="0.6" transform="translate(2.66 114.54) rotate(-89.77)"/><rect class="cls-6" x="57.64" y="55.58" width="4.5" height="0.6" transform="translate(3.77 115.55) rotate(-89.77)"/><rect class="cls-6" x="58.77" y="55.67" width="4.5" height="0.6" transform="translate(4.81 116.76) rotate(-89.77)"/><rect class="cls-6" x="59.82" y="55.62" width="4.5" height="0.6" transform="translate(5.9 117.77) rotate(-89.77)"/><rect class="cls-6" x="60.88" y="55.67" width="4.5" height="0.6" transform="translate(6.91 118.88) rotate(-89.77)"/><rect class="cls-6" x="62.01" y="55.65" width="4.5" height="0.6" transform="translate(8.05 119.99) rotate(-89.77)"/><rect class="cls-6" x="63.07" y="55.7" width="4.5" height="0.6" transform="translate(9.06 121.09) rotate(-89.77)"/><rect class="cls-6" x="64.13" y="55.64" width="4.5" height="0.6" transform="translate(10.17 122.1) rotate(-89.77)"/><rect class="cls-6" x="65.26" y="55.63" width="4.5" height="0.6" transform="translate(11.31 123.21) rotate(-89.77)"/><rect class="cls-6" x="66.38" y="55.62" width="4.5" height="0.6" transform="translate(12.43 124.32) rotate(-89.77)"/><rect class="cls-6" x="67.44" y="55.67" width="4.5" height="0.6" transform="translate(13.44 125.43) rotate(-89.77)"/><rect class="cls-6" x="68.56" y="55.65" width="4.5" height="0.6" transform="translate(14.58 126.54) rotate(-89.77)"/><rect class="cls-6" x="69.63" y="55.7" width="4.5" height="0.6" transform="translate(15.59 127.65) rotate(-89.77)"/><rect class="cls-6" x="70.69" y="55.64" width="4.5" height="0.6" transform="translate(16.7 128.66) rotate(-89.77)"/><rect class="cls-7" x="71.81" y="55.73" width="4.5" height="0.6" transform="translate(17.74 129.86) rotate(-89.77)"/><rect class="cls-7" x="72.87" y="55.68" width="4.5" height="0.6" transform="translate(18.84 130.87) rotate(-89.77)"/><rect class="cls-7" x="73.93" y="55.73" width="4.5" height="0.6" transform="translate(19.85 131.98) rotate(-89.77)"/><rect class="cls-7" x="75.06" y="55.71" width="4.5" height="0.6" transform="translate(20.99 133.09) rotate(-89.77)"/><rect class="cls-7" x="76.12" y="55.66" width="4.5" height="0.6" transform="translate(22.1 134.1) rotate(-89.77)"/><rect class="cls-7" x="77.18" y="55.7" width="4.5" height="0.6" transform="translate(23.11 135.21) rotate(-89.77)"/><rect class="cls-7" x="78.31" y="55.69" width="4.5" height="0.6" transform="translate(24.25 136.32) rotate(-89.77)"/><rect class="cls-7" x="79.37" y="55.73" width="4.5" height="0.6" transform="translate(25.27 137.43) rotate(-89.77)"/><rect class="cls-7" x="80.5" y="55.71" width="4.5" height="0.6" transform="translate(26.41 138.53) rotate(-89.77)"/><rect class="cls-7" x="81.46" y="55.76" width="4.5" height="0.6" transform="translate(27.32 139.54) rotate(-89.77)"/><rect class="cls-7" x="82.52" y="55.7" width="4.5" height="0.6" transform="translate(28.43 140.55) rotate(-89.77)"/><rect class="cls-7" x="83.65" y="55.69" width="4.5" height="0.6" transform="translate(29.57 141.66) rotate(-89.77)"/><rect class="cls-7" x="84.71" y="55.74" width="4.5" height="0.6" transform="translate(30.57 142.77) rotate(-89.77)"/><rect class="cls-7" x="85.77" y="55.79" width="4.5" height="0.6" transform="translate(31.58 143.88) rotate(-89.77)"/><rect class="cls-7" x="86.89" y="55.77" width="4.5" height="0.6" transform="translate(32.72 144.99) rotate(-89.77)"/><rect class="cls-7" x="87.96" y="55.72" width="4.5" height="0.6" transform="translate(33.83 145.99) rotate(-89.77)"/><path class="cls-8" d="M73,45.48l16.3.1a1.14,1.14,0,0,1,1.2,1.18v4.45a1.15,1.15,0,0,1-1.2,1.19L73,52.3"/></g><g id="Слой_3" data-name="Слой 3"><circle class="cls-9" cx="124.76" cy="20.89" r="2.5"/><circle class="cls-9" cx="19.83" cy="20.89" r="2.5"/><circle class="cls-9" cx="72.98" cy="64.8" r="2.5"/></g><path class="cls-1" d="M143,16.61l-36.5-.1A1.54,1.54,0,0,1,105,15l.1-13.5a1.54,1.54,0,0,1,1.5-1.5l36.5.1a1.54,1.54,0,0,1,1.5,1.5l-.1,13.5A1.42,1.42,0,0,1,143,16.61Z"/><path class="cls-2" d="M124.91.08l18.4.1c.8,0,1.4.4,1.4.89l-.1,14.65c0,.49-.6.89-1.4.89l-18.4-.1"/><path class="cls-3" d="M141.21,8.61l-32.7-.1a1.16,1.16,0,0,1-1.2-1.2V2.81a1.16,1.16,0,0,1,1.2-1.2l32.7.1a1.16,1.16,0,0,1,1.2,1.2v4.5A1.22,1.22,0,0,1,141.21,8.61Z"/><circle class="cls-4" cx="110.91" cy="5.01" r="0.9"/><circle class="cls-4" cx="114.61" cy="5.01" r="0.9"/><circle class="cls-5" cx="118.31" cy="5.01" r="0.9"/><rect class="cls-6" x="105.31" y="11.73" width="4.5" height="0.6" transform="translate(95.1 119.54) rotate(-89.77)"/><rect class="cls-6" x="106.37" y="11.78" width="4.5" height="0.6" transform="translate(96.11 120.65) rotate(-89.77)"/><rect class="cls-6" x="107.5" y="11.76" width="4.5" height="0.6" transform="translate(97.25 121.76) rotate(-89.77)"/><rect class="cls-6" x="108.46" y="11.8" width="4.5" height="0.6" transform="translate(98.16 122.77) rotate(-89.77)"/><rect class="cls-6" x="109.52" y="11.75" width="4.5" height="0.6" transform="translate(99.27 123.77) rotate(-89.77)"/><rect class="cls-6" x="110.65" y="11.83" width="4.5" height="0.6" transform="translate(100.31 124.98) rotate(-89.77)"/><rect class="cls-6" x="111.7" y="11.79" width="4.5" height="0.6" transform="translate(101.41 125.99) rotate(-89.77)"/><rect class="cls-6" x="112.76" y="11.84" width="4.5" height="0.6" transform="translate(102.42 127.1) rotate(-89.77)"/><rect class="cls-6" x="113.89" y="11.82" width="4.5" height="0.6" transform="translate(103.55 128.21) rotate(-89.77)"/><rect class="cls-6" x="114.95" y="11.86" width="4.5" height="0.6" transform="translate(104.57 129.32) rotate(-89.77)"/><rect class="cls-6" x="116.01" y="11.81" width="4.5" height="0.6" transform="translate(105.68 130.33) rotate(-89.77)"/><rect class="cls-6" x="117.14" y="11.79" width="4.5" height="0.6" transform="translate(106.82 131.44) rotate(-89.77)"/><rect class="cls-6" x="118.26" y="11.79" width="4.5" height="0.6" transform="translate(107.94 132.54) rotate(-89.77)"/><rect class="cls-6" x="119.32" y="11.83" width="4.5" height="0.6" transform="translate(108.94 133.65) rotate(-89.77)"/><rect class="cls-6" x="120.44" y="11.82" width="4.5" height="0.6" transform="translate(110.08 134.76) rotate(-89.77)"/><rect class="cls-6" x="121.51" y="11.86" width="4.5" height="0.6" transform="translate(111.1 135.87) rotate(-89.77)"/><rect class="cls-6" x="122.57" y="11.81" width="4.5" height="0.6" transform="translate(112.21 136.88) rotate(-89.77)"/><rect class="cls-7" x="123.69" y="11.89" width="4.5" height="0.6" transform="translate(113.24 138.09) rotate(-89.77)"/><rect class="cls-7" x="124.75" y="11.85" width="4.5" height="0.6" transform="translate(114.34 139.1) rotate(-89.77)"/><rect class="cls-7" x="125.81" y="11.89" width="4.5" height="0.6" transform="translate(115.35 140.2) rotate(-89.77)"/><rect class="cls-7" x="126.94" y="11.88" width="4.5" height="0.6" transform="translate(116.49 141.31) rotate(-89.77)"/><rect class="cls-7" x="128" y="11.82" width="4.5" height="0.6" transform="translate(117.6 142.32) rotate(-89.77)"/><rect class="cls-7" x="129.06" y="11.87" width="4.5" height="0.6" transform="translate(118.61 143.43) rotate(-89.77)"/><rect class="cls-7" x="130.19" y="11.85" width="4.5" height="0.6" transform="translate(119.75 144.54) rotate(-89.77)"/><rect class="cls-7" x="131.25" y="11.89" width="4.5" height="0.6" transform="translate(120.77 145.65) rotate(-89.77)"/><rect class="cls-7" x="132.38" y="11.88" width="4.5" height="0.6" transform="translate(121.91 146.76) rotate(-89.77)"/><rect class="cls-7" x="133.34" y="11.92" width="4.5" height="0.6" transform="translate(122.82 147.77) rotate(-89.77)"/><rect class="cls-7" x="134.4" y="11.87" width="4.5" height="0.6" transform="translate(123.93 148.77) rotate(-89.77)"/><rect class="cls-7" x="135.53" y="11.85" width="4.5" height="0.6" transform="translate(125.07 149.88) rotate(-89.77)"/><rect class="cls-7" x="136.59" y="11.91" width="4.5" height="0.6" transform="translate(126.07 150.99) rotate(-89.77)"/><rect class="cls-7" x="137.65" y="11.95" width="4.5" height="0.6" transform="translate(127.08 152.1) rotate(-89.77)"/><rect class="cls-7" x="138.77" y="11.94" width="4.5" height="0.6" transform="translate(128.22 153.21) rotate(-89.77)"/><rect class="cls-7" x="139.84" y="11.88" width="4.5" height="0.6" transform="translate(129.33 154.22) rotate(-89.77)"/><path class="cls-8" d="M124.86,1.64l16.3.1a1.15,1.15,0,0,1,1.2,1.19V7.38a1.15,1.15,0,0,1-1.2,1.19l-16.3-.1"/><g id="lines"><line class="cls-10" x1="50.83" y1="8.87" x2="94.94" y2="8.87"/></g><circle class="cls-11" cx="43.9" cy="8.61" r="2.5"/><circle class="cls-11" cx="101.28" cy="8.61" r="2.5"/><circle class="cls-11" cx="72.98" cy="39.63" r="2.5"/><line class="cls-12" x1="73.05" y1="70.7" x2="73.05" y2="95.75"/><line class="cls-13" x1="121.03" y1="25.58" x2="73.05" y2="95.75"/><line class="cls-13" x1="21.47" y1="25.69" x2="73.05" y2="95.75"/><g id="chevron-right"><polygon class="cls-14" points="69.48 73.39 70.31 74.22 73.06 71.5 75.78 74.25 76.61 73.42 73.07 69.84 69.48 73.39"/></g><g id="chevron-right-2" data-name="chevron-right"><polygon points="92.35 5.26 91.51 6.09 94.21 8.85 91.44 11.55 92.26 12.39 95.87 8.88 92.35 5.26"/></g><g id="chevron-right-3" data-name="chevron-right"><polygon points="52.92 12.43 53.76 11.61 51.06 8.84 53.83 6.14 53.01 5.3 49.4 8.82 52.92 12.43"/></g><line class="cls-10" x1="48.16" y1="14.58" x2="68.45" y2="35.46"/><g id="chevron-right-4" data-name="chevron-right"><polygon points="46.97 18.55 48.15 18.57 48.23 14.71 52.09 14.79 52.11 13.61 47.07 13.51 46.97 18.55"/></g><g id="chevron-right-5" data-name="chevron-right"><polygon points="69.36 31.17 68.19 31.14 68.11 35.01 64.25 34.93 64.22 36.11 69.26 36.21 69.36 31.17"/></g><line class="cls-10" x1="97.77" y1="14.67" x2="77.23" y2="35.31"/><g id="chevron-right-6" data-name="chevron-right"><polygon points="93.78 13.55 93.77 14.72 97.64 14.73 97.63 18.6 98.8 18.6 98.82 13.56 93.78 13.55"/></g><g id="chevron-right-7" data-name="chevron-right"><polygon class="cls-14" points="116.63 25.66 116.86 26.81 120.65 26.03 121.43 29.82 122.58 29.58 121.56 24.64 116.63 25.66"/></g><g id="chevron-right-8" data-name="chevron-right"><polygon class="cls-14" points="19.83 29.63 20.96 29.94 21.99 26.21 25.71 27.24 26.02 26.1 21.16 24.77 19.83 29.63"/></g><g id="chevron-right-9" data-name="chevron-right"><polygon points="81.54 36.15 81.55 34.98 77.68 34.97 77.69 31.1 76.52 31.1 76.5 36.14 81.54 36.15"/></g><circle class="cls-9" cx="72.98" cy="94.85" r="2.5"/><rect class="cls-15" x="43.79" y="119.01" width="59.5" height="19.14" rx="2.07" ry="2.07"/><rect class="cls-3" x="45.81" y="120.79" width="55.47" height="7.96" rx="1" ry="1"/><rect class="cls-6" x="74.71" y="130.51" width="0.66" height="5.3"/><rect class="cls-6" x="73.15" y="130.51" width="0.66" height="5.3"/><rect class="cls-6" x="71.71" y="130.51" width="0.66" height="5.3"/><rect class="cls-6" x="70.15" y="130.51" width="0.66" height="5.3"/><rect class="cls-6" x="68.59" y="130.51" width="0.66" height="5.3"/><rect class="cls-6" x="67.15" y="130.51" width="0.66" height="5.3"/><rect class="cls-6" x="65.65" y="130.51" width="0.66" height="5.3"/><rect class="cls-6" x="64.15" y="130.51" width="0.66" height="5.3"/><rect class="cls-6" x="62.65" y="130.51" width="0.66" height="5.3"/><rect class="cls-6" x="61.09" y="130.51" width="0.66" height="5.3"/><rect class="cls-6" x="59.53" y="130.51" width="0.66" height="5.3"/><rect class="cls-6" x="58.09" y="130.51" width="0.66" height="5.3"/><rect class="cls-6" x="56.53" y="130.51" width="0.66" height="5.3"/><rect class="cls-6" x="54.97" y="130.51" width="0.66" height="5.3"/><rect class="cls-6" x="53.52" y="130.51" width="0.66" height="5.3"/><rect class="cls-6" x="51.9" y="130.51" width="0.66" height="5.3"/><rect class="cls-6" x="50.34" y="130.51" width="0.66" height="5.3"/><rect class="cls-6" x="48.9" y="130.51" width="0.66" height="5.3"/><rect class="cls-6" x="47.46" y="130.51" width="0.66" height="5.3"/><rect class="cls-6" x="45.84" y="130.51" width="0.66" height="5.3"/><rect class="cls-6" x="100.62" y="130.51" width="0.66" height="5.3"/><rect class="cls-6" x="99.06" y="130.51" width="0.66" height="5.3"/><rect class="cls-6" x="97.62" y="130.51" width="0.66" height="5.3"/><rect class="cls-6" x="96.12" y="130.51" width="0.66" height="5.3"/><rect class="cls-6" x="94.62" y="130.51" width="0.66" height="5.3"/><rect class="cls-6" x="93.12" y="130.51" width="0.66" height="5.3"/><rect class="cls-6" x="91.55" y="130.51" width="0.66" height="5.3"/><rect class="cls-6" x="89.99" y="130.51" width="0.66" height="5.3"/><rect class="cls-6" x="88.55" y="130.51" width="0.66" height="5.3"/><rect class="cls-6" x="86.99" y="130.51" width="0.66" height="5.3"/><rect class="cls-6" x="85.43" y="130.51" width="0.66" height="5.3"/><rect class="cls-6" x="83.99" y="130.51" width="0.66" height="5.3"/><rect class="cls-6" x="82.37" y="130.51" width="0.66" height="5.3"/><rect class="cls-6" x="80.81" y="130.51" width="0.66" height="5.3"/><rect class="cls-6" x="79.37" y="130.51" width="0.66" height="5.3"/><rect class="cls-6" x="77.93" y="130.51" width="0.66" height="5.3"/><rect class="cls-6" x="76.31" y="130.51" width="0.66" height="5.3"/><circle class="cls-4" cx="49.45" cy="124.77" r="1.04"/><circle class="cls-4" cx="53.71" cy="124.77" r="1.04"/><circle class="cls-5" cx="57.98" cy="124.77" r="1.04"/><rect class="cls-15" x="43.79" y="98.61" width="59.5" height="19.14" rx="2.07" ry="2.07"/><path class="cls-3" d="M73.05,100.39h27.23a1,1,0,0,1,1,1v5.95a1,1,0,0,1-1,1H46.81a1,1,0,0,1-1-1V101.4a1,1,0,0,1,1-1H73.05"/><path class="cls-8" d="M73.05,100.39h27.23a1,1,0,0,1,1,1v5.95a1,1,0,0,1-1,1H73.05"/><path class="cls-8" d="M73.05,120.79h27.23a1,1,0,0,1,1,1v6a1,1,0,0,1-1,1H73.05"/><rect class="cls-6" x="74.71" y="110.1" width="0.66" height="5.3"/><rect class="cls-6" x="73.15" y="110.1" width="0.66" height="5.3"/><rect class="cls-6" x="71.71" y="110.1" width="0.66" height="5.3"/><rect class="cls-6" x="70.15" y="110.1" width="0.66" height="5.3"/><rect class="cls-6" x="68.59" y="110.1" width="0.66" height="5.3"/><rect class="cls-6" x="67.15" y="110.1" width="0.66" height="5.3"/><rect class="cls-6" x="65.65" y="110.1" width="0.66" height="5.3"/><rect class="cls-6" x="64.15" y="110.1" width="0.66" height="5.3"/><rect class="cls-6" x="62.65" y="110.1" width="0.66" height="5.3"/><rect class="cls-6" x="61.09" y="110.1" width="0.66" height="5.3"/><rect class="cls-6" x="59.53" y="110.1" width="0.66" height="5.3"/><rect class="cls-6" x="58.09" y="110.1" width="0.66" height="5.3"/><rect class="cls-6" x="56.53" y="110.1" width="0.66" height="5.3"/><rect class="cls-6" x="54.97" y="110.1" width="0.66" height="5.3"/><rect class="cls-6" x="53.52" y="110.1" width="0.66" height="5.3"/><rect class="cls-6" x="51.9" y="110.1" width="0.66" height="5.3"/><rect class="cls-6" x="50.34" y="110.1" width="0.66" height="5.3"/><rect class="cls-6" x="48.9" y="110.1" width="0.66" height="5.3"/><rect class="cls-6" x="47.46" y="110.1" width="0.66" height="5.3"/><rect class="cls-6" x="45.84" y="110.1" width="0.66" height="5.3"/><rect class="cls-6" x="100.62" y="110.1" width="0.66" height="5.3"/><rect class="cls-6" x="99.06" y="110.1" width="0.66" height="5.3"/><rect class="cls-6" x="97.62" y="110.1" width="0.66" height="5.3"/><rect class="cls-6" x="96.12" y="110.1" width="0.66" height="5.3"/><rect class="cls-6" x="94.62" y="110.1" width="0.66" height="5.3"/><rect class="cls-6" x="93.12" y="110.1" width="0.66" height="5.3"/><rect class="cls-6" x="91.55" y="110.1" width="0.66" height="5.3"/><rect class="cls-6" x="89.99" y="110.1" width="0.66" height="5.3"/><rect class="cls-6" x="88.55" y="110.1" width="0.66" height="5.3"/><rect class="cls-6" x="86.99" y="110.1" width="0.66" height="5.3"/><rect class="cls-6" x="85.43" y="110.1" width="0.66" height="5.3"/><rect class="cls-6" x="83.99" y="110.1" width="0.66" height="5.3"/><rect class="cls-6" x="82.37" y="110.1" width="0.66" height="5.3"/><rect class="cls-6" x="80.81" y="110.1" width="0.66" height="5.3"/><rect class="cls-6" x="79.37" y="110.1" width="0.66" height="5.3"/><rect class="cls-6" x="77.93" y="110.1" width="0.66" height="5.3"/><rect class="cls-6" x="76.31" y="110.1" width="0.66" height="5.3"/><circle class="cls-4" cx="49.45" cy="104.37" r="1.04"/><circle class="cls-4" cx="53.71" cy="104.37" r="1.04"/><circle class="cls-5" cx="57.98" cy="104.37" r="1.04"/></g></g></svg>