<?xml version="1.0" encoding="utf-8"?>
<!-- Generator: Adobe Illustrator 22.0.1, SVG Export Plug-In . SVG Version: 6.00 Build 0)  -->
<svg version="1.1" id="Слой_1" xmlns="http://www.w3.org/2000/svg" xmlns:xlink="http://www.w3.org/1999/xlink" x="0px" y="0px"
	 viewBox="0 0 399.3 406.6" style="enable-background:new 0 0 399.3 406.6;" xml:space="preserve">
<style type="text/css">
	.st0{fill:#1D252A;}
	.st1{fill:#192023;}
	.st2{fill:#EAB981;}
	.st3{fill:#D4A779;}
	.st4{fill:#EFF2FA;}
	.st5{fill:#C3D3D6;}
	.st6{fill:#C8D0D3;}
	.st7{fill:#F0C087;}
	.st8{fill:#F4CF9C;}
	.st9{fill:#E3BD8D;}
	.st10{fill:#684A4A;}
	.st11{fill:#795858;}
	.st12{fill:#2E4149;}
	.st13{fill:#2C3A43;}
	.st14{fill:#C8D1D4;}
	.st15{fill:#8A9699;}
	.st16{fill:none;}
	.st17{fill:#8B979A;}
	.st18{fill:#7D8789;}
	.st19{fill:#D8E3E6;}
	.st20{fill:#23343A;}
	.st21{fill:#FDA23E;}
	.st22{fill:#F7333A;}
	.st23{fill:#009082;}
	.st24{fill:#1C292F;}
	.st25{fill:#4A86BF;}
	.st26{fill:#4790CF;}
</style>
<title>developers</title>
<g id="Слой_2_1_">
	<g id="Слой_1-2">
		<path class="st0" d="M238.7,396.8h-75.1c-4.1,0-7.4-3.3-7.4-7.4c0,0,0,0,0,0v-29.6c0-4.1,3.3-7.4,7.4-7.4c0,0,0,0,0,0h75.1
			c4.1,0,7.4,3.3,7.4,7.4c0,0,0,0,0,0v29.6C246,393.5,242.8,396.8,238.7,396.8z"/>
		<path class="st1" d="M319.3,396.8h-75.1c-4.1,0-7.4-3.3-7.4-7.4c0,0,0,0,0,0v-29.6c0-4.1,3.3-7.4,7.4-7.4c0,0,0,0,0,0h75.1
			c4.1,0,7.4,3.3,7.4,7.4c0,0,0,0,0,0v29.6C326.7,393.5,323.4,396.8,319.3,396.8C319.3,396.8,319.3,396.8,319.3,396.8z"/>
		<path class="st0" d="M107.4,278L107.4,278c-5.2-1.5-8.1-6.9-6.6-12.1c0,0,0-0.1,0-0.1l7.9-26.7c1.3-4.3,8.4-12.5,13-12.1
			c0.4,0,0.9,0.2,1.1,0.6l6.7,8.3c0.3,0.4,0.4,0.9,0.3,1.4l-10.1,34.1C118.1,276.6,112.6,279.5,107.4,278z"/>
		<g id="Слой_1-3">
			<g id="Слой_1-4">
				<polygon class="st2" points="288.3,207.9 288.3,172.5 196.8,172.5 196.8,207.9 242.5,248.5 				"/>
				<polyline class="st3" points="243,245.3 288.7,204.8 288.7,169.2 243,169.2 				"/>
				<path class="st4" d="M358.7,224.6L296,209.8c-0.9-0.2-1.7-0.6-2.7-0.9l-51.1,29.6l-48.9-31.1c-1.3,1.2-2.9,2.1-4.6,2.5
					L126,224.5c-9.2,2.1-15.7,10.3-15.7,19.7v39.7c0,5.6,4.5,10.2,10.2,10.2c0,0,0,0,0,0h243.4c5.6,0,10.2-4.5,10.2-10.2
					c0,0,0,0,0,0v-39.7C374.5,234.9,368,226.9,358.7,224.6z"/>
				<path class="st5" d="M243,294.1h121.4c5.6,0,10.2-4.5,10.2-10.2c0,0,0,0,0,0v-39.7c0-9.4-6.5-17.6-15.7-19.7l-62.7-14.8
					c-0.9-0.2-1.7-0.6-2.7-0.9l-51.1,29.6"/>
				<path class="st6" d="M242.4,238.9l-49-31c-1.3,1.2-2.9,2.1-4.6,2.5L126.1,225c-9.2,2.1-15.7,10.3-15.7,19.7v39.7
					c0,5.6,4.5,10.2,10.2,10.2c0,0,0,0,0,0h122.1"/>
				<path class="st0" d="M212.8,220.9l-20.6-13c-1.3,1.2-2.9,2.1-4.6,2.5L125,224.9c-9.2,2.1-17.4,8.6-16.9,20.2l1.2,39.2
					c0,5.6,4.5,10.2,10.2,10.2c0,0,0,0,0,0h33.9"/>
				<path class="st1" d="M332.8,294.6h33.9c5.6,0,10.2-4.5,10.2-10.2c0,0,0,0,0,0v-39.7c0.1-9.5-6.5-17.7-15.7-19.7l-62.7-14.6
					c-1.7-0.4-3.3-1.3-4.6-2.5l-20.6,13"/>
				<path class="st7" d="M176.6,55.9l4.5,97.2c0.4,9.1,4.9,17.5,12.2,22.8l20.9,15.9c5.3,4,11.7,6.1,18.3,6.1h20.3
					c6.6,0,13-2.1,18.3-6.1l20.9-15.9c7.2-5.5,11.7-13.8,12.2-22.8l4.7-97.2L176.6,55.9z"/>
				<path class="st8" d="M177.1,55.9l4.5,97.2c0.4,9.1,4.9,17.5,12.2,22.8l20.9,15.9c5.3,4,11.7,6.1,18.3,6.1h20.2
					c6.6,0,13-2.1,18.3-6.1l20.9-15.9c7.2-5.5,11.7-13.8,12.2-22.8l4.5-97.2L177.1,55.9z"/>
				<path class="st9" d="M243,197.8h10.2c6.6,0,13-2.1,18.3-6.1l20.9-15.9c7.2-5.5,11.7-13.8,12.2-22.8l4.5-97.2h-65.9"/>
				<path class="st10" d="M273.4,22.3l4.7,33.6c21.7,4.4,24.9,38.4,25.2,48.1c0.1,1.8,0.6,3.5,1.6,5l8.3,12.8
					c0,0-2.9-21.2,10.2-35.4C323.4,86.3,327.8,2.1,273.4,22.3z"/>
				<path class="st9" d="M318.4,119.3l-5.8,22.8c-0.6,2.8-3.2,4.7-6,4.6l0,0c-3.1,0-5.7-2.2-6.1-5.3l-3-23.3
					c-0.6-5.8,3.6-11.1,9.4-11.7c0.3,0,0.7-0.1,1-0.1l0,0c5.8-0.1,10.7,4.5,10.8,10.4C318.7,117.6,318.6,118.4,318.4,119.3z"/>
				<path class="st11" d="M181.6,13.2l7.5,5.1c-33.8,25-27.6,68-27.6,68c10.1,10.2,10.1,35.4,10.1,35.4l10.2-10.2
					c0,0-3.9-29.4,15.2-40.5c17.8-10.4,33.4-5.1,49.1-5.1c42.5,0,54.3-16.1,52.2-35.4c-1-10-16.7-30.9-55.7-30.5
					C226.7,0.4,196.8,5.1,181.6,13.2z"/>
				<path class="st11" d="M181.6,13.2l7.5,5.1c-33.8,25-27.6,68-27.6,68c10.1,10.2,10.1,35.4,10.1,35.4l10.2-10.2
					c0,0-3.9-29.4,15.2-40.5c16.7-9.7,31.2-5.8,45.9-5.1"/>
				<path class="st10" d="M243,65.9c0.9,0,2.1,0.1,3.1,0.1c42.5,0,54.3-16.1,52.2-35.4c-1-10-16.7-31-55.7-30.6"/>
				<path class="st8" d="M166.8,119.6l5.8,22.8c0.6,2.8,3.2,4.7,6,4.6l0,0c3.1,0,5.7-2.2,6.1-5.3l3-23.3c0.6-5.8-3.6-11.1-9.4-11.7
					c-0.3,0-0.7-0.1-1-0.1l0,0c-5.8-0.1-10.7,4.5-10.8,10.4C166.5,117.9,166.6,118.7,166.8,119.6z"/>
				<path class="st1" d="M255.4,238.5H230v9.5c0,3.2,2.6,5.8,5.8,5.8l0,0h14c3.2,0,5.8-2.6,5.8-5.8l0,0L255.4,238.5L255.4,238.5z"/>
				<path class="st0" d="M242.5,238.5h-12.7v9.5c0,3.2,2.6,5.8,5.8,5.8l0,0h7"/>
				<path class="st0" d="M277,266.4l-16.2,103c-2.4,14.7-21.9,26.8-43.8,26.9l-73.6,0.5c-35.1,0.2-60.5-18.8-56.8-42.5l12.8-82
					c2.7-26.9,38.2-47.9,76.3-48.2l44.3-0.3C255.3,223.7,280.7,242.7,277,266.4z"/>
				<path class="st0" d="M378.1,278L378.1,278c5.2-1.5,8.1-6.9,6.6-12.1c0,0,0-0.1,0-0.1l-7.9-26.7c-1.3-4.3-8.4-12.5-13-12.1
					c-0.4,0-0.9,0.2-1.1,0.6l-6.7,8.3c-0.3,0.4-0.4,0.9-0.3,1.4l10.1,34.1C367.4,276.6,372.9,279.5,378.1,278z"/>
				<path class="st0" d="M332.1,294.5H366c5.6,0,10.2-4.5,10.2-10.2c0,0,0,0,0,0l1.2-39.2c0.5-11.6-7.7-18.1-16.9-20.2l-62.6-14.5
					c-1.7-0.4-3.3-1.3-4.6-2.5l-20.6,13"/>
				<path class="st1" d="M265.5,223.9l44.3,0.3c38,0.3,73.6,21.3,76.3,48.2l12.8,82c3.8,23.8-21.7,42.7-56.8,42.5l-73.6-0.5
					c-21.9-0.1-41.4-12.2-43.8-26.9l-16.2-103C204.8,242.7,230.3,223.7,265.5,223.9z"/>
				<polygon class="st12" points="255.3,352.5 229.9,352.5 233.1,248.7 252.1,248.7 				"/>
				<polyline class="st13" points="242.6,248.7 252.1,248.7 255.3,352.5 242.6,352.5 				"/>
				<path class="st0" d="M242.6,238.5h-12.7v9.5c0,3.1,2.4,5.7,5.6,5.7c0,0,0.1,0,0.1,0h7"/>
				<path class="st1" d="M242.6,253.7h7c3.1,0,5.7-2.4,5.7-5.6c0,0,0-0.1,0-0.1v-9.5h-12.7"/>
				<path class="st14" d="M196.3,196.7l46.4,41.6c0,0-13.1,6.4-29.1,19.7c-2.7,2.3-6.7,2-9-0.7c-0.4-0.5-0.8-1-1-1.6l-21.8-47.8
					l6.8-10.3c1.6-2.3,4.8-3,7.1-1.4C195.9,196.4,196.1,196.5,196.3,196.7z"/>
				<path class="st15" d="M289,196.7l-46.4,41.6c0,0,13.1,6.4,29.1,19.7c2.7,2.3,6.7,2,9-0.7c0.4-0.5,0.8-1,1-1.6l21.9-47.8
					l-6.8-10.3c-1.7-2.4-4.9-3-7.3-1.3C289.3,196.4,289.2,196.6,289,196.7z"/>
				<path class="st15" d="M308.6,284h-35.4c-2.8,0-5.1,2.2-5.1,5c0,0,0,0.1,0,0.1v5.1h45.5v-5.1C313.6,286.3,311.4,284.1,308.6,284z
					"/>
			</g>
			<line class="st16" x1="296.4" y1="406.6" x2="327.7" y2="396.8"/>
			<polygon class="st17" points="265,351.4 270.3,394.2 215.2,394.2 220.5,351.4 			"/>
			<polyline class="st17" points="243.1,394.2 215.2,394.2 220.5,351.4 243.4,351.4 			"/>
			<polyline class="st18" points="243.4,351.4 265,351.4 270.2,394.2 243.1,394.2 			"/>
			<path class="st19" d="M377,354.9H108.7c-4.1,0-7.3-3.3-7.3-7.4v-156c0-5,3.7-8.9,8-8.9H377c4.3,0,7.8,3.9,7.8,8.9v154.7
				c0.1,4.6-3.2,8.8-7.3,8.8C377.3,354.9,377.2,354.9,377,354.9z"/>
			<path class="st19" d="M243.7,354.9h-135c-4,0-7.3-3.3-7.3-7.3V191.5c0-4.9,3.7-8.9,8-8.9h133.8"/>
			<path class="st14" d="M243,182.6h134c4.3,0,7.8,4,7.8,8.9v154.7c0.1,4.6-3.2,8.8-7.3,8.8c-0.1-0.1-0.3-0.1-0.4-0.1H243.5"/>
			<path class="st14" d="M289.5,396.4h-93.8c-1.9-0.1-3.4-1.7-3.3-3.6c0-0.1,0-0.2,0-0.3c0-1.8,1.5-3.3,3.3-3.3h93.8
				c1.9-0.1,3.6,1.3,3.7,3.2c0,0,0,0,0,0.1v0.1C293.2,394.7,291.6,396.3,289.5,396.4z"/>
			<path class="st19" d="M243.1,396.4h-47.4c-2-0.1-3.5-1.8-3.4-3.8c0,0,0-0.1,0-0.1c0.1-1.8,1.6-3.3,3.4-3.3h47.4"/>
		</g>
		<path class="st12" d="M397.3,400H1.6c-0.9,0-1.6-0.8-1.6-1.8c0,0,0,0,0,0l0,0c-0.1-0.9,0.6-1.7,1.6-1.8c0,0,0,0,0,0h395.7
			c0.9,0,1.6,0.8,1.6,1.8c0,0,0,0,0,0l0,0C399,399.1,398.3,399.9,397.3,400C397.3,400,397.3,400,397.3,400z"/>
		<path class="st17" d="M146.5,157.4H2.9c-1.4,0-2.6-1.1-2.6-2.6c0,0,0,0,0,0V46.4h158.6v98.4c0.1,6.9-5.4,12.5-12.3,12.6
			C146.6,157.4,146.5,157.4,146.5,157.4z"/>
		<path class="st20" d="M0.2,47V31.1c0-1.4,1.1-2.6,2.6-2.6c0,0,0,0,0,0h153.3c1.4,0,2.6,1.1,2.6,2.6c0,0,0,0,0,0v16"/>
		<circle class="st21" cx="21.9" cy="38.7" r="3"/>
		<circle class="st22" cx="12" cy="38.7" r="3"/>
		<circle class="st23" cx="31.5" cy="38.7" r="3"/>
		<path class="st18" d="M158.9,46.4H79.7v110.8h76.7c1.5,0,2.7-1.2,2.7-2.7L158.9,46.4L158.9,46.4z"/>
		<path class="st24" d="M158.9,47.2v-16c0-1.5-1.2-2.7-2.7-2.7H79.7v18.6"/>
		<path class="st19" d="M10.9,55.8h137.3c1.1,0,1.9,0.9,1.9,1.9v0.2c0,1.1-0.9,1.9-1.9,1.9H10.9c-1.1,0-1.9-0.9-1.9-1.9v-0.2
			C9,56.7,9.8,55.8,10.9,55.8z"/>
		<path class="st19" d="M79.7,59.8H10.9c-1.1,0-1.9-0.9-1.9-1.9v-0.2c0-1,0.8-1.9,1.9-1.9c0,0,0,0,0,0h68.8"/>
		<path class="st14" d="M79.7,55.8h68.5c1.1,0,1.9,0.9,1.9,1.9v0v0.2c0,1.1-0.9,1.9-1.9,1.9H79.7"/>
		<path class="st19" d="M10.9,62.6h137.3c1.1,0,1.9,0.9,1.9,1.9v0.2c0,1.1-0.9,1.9-1.9,1.9H10.9c-1.1,0-1.9-0.9-1.9-1.9v-0.2
			C9,63.4,9.8,62.6,10.9,62.6z"/>
		<path class="st19" d="M10.9,69.3h109.7c1.1,0,1.9,0.9,1.9,1.9v0.2c0,1.1-0.9,1.9-1.9,1.9H10.9c-1.1,0-1.9-0.9-1.9-1.9v-0.2
			C9,70.1,9.8,69.3,10.9,69.3z"/>
		<path class="st19" d="M79.7,73.3H10.9c-1,0-1.9-0.9-1.9-1.9c0,0,0,0,0,0v-0.2c0-1.1,0.8-1.9,1.9-1.9c0,0,0,0,0,0h68.8"/>
		<path class="st14" d="M79.7,69.3h40.9c1.1,0,1.9,0.9,1.9,1.9v0.2c0,1.1-0.9,1.9-1.9,1.9c0,0,0,0,0,0H79.7"/>
		<path class="st14" d="M79.7,62.5h68.5c1.1,0,1.9,0.9,1.9,1.9v0.2c0,1.1-0.9,1.9-1.9,1.9H79.7"/>
		<path class="st19" d="M30.1,76.1h32.7c1.1,0,1.9,0.9,1.9,1.9v0.2c0,1.1-0.9,1.9-1.9,1.9H30.1c-1.1,0-1.9-0.9-1.9-1.9V78
			C28.2,76.9,29.1,76.1,30.1,76.1z"/>
		<path class="st19" d="M30.1,82.8h42.2c1.1,0,1.9,0.9,1.9,1.9v0.2c0,1.1-0.9,1.9-1.9,1.9H30.1c-1.1,0-1.9-0.9-1.9-1.9v-0.2
			C28.2,83.7,29.1,82.8,30.1,82.8z"/>
		<path class="st19" d="M44.6,96.4h102.7c1.1,0,1.9,0.9,1.9,1.9v0.2c0,1.1-0.9,1.9-1.9,1.9H44.6c-1.1,0-1.9-0.9-1.9-1.9v-0.2
			C42.7,97.3,43.6,96.4,44.6,96.4z"/>
		<path class="st19" d="M44.6,103.2h102.7c1.1,0,1.9,0.9,1.9,1.9v0.2c0,1.1-0.9,1.9-1.9,1.9H44.6c-1.1,0-1.9-0.9-1.9-1.9v-0.2
			C42.7,104.1,43.6,103.2,44.6,103.2z"/>
		<path class="st14" d="M79.7,96.4h68.5c1.1,0,1.9,0.9,1.9,1.9v0v0.2c0,1.1-0.9,1.9-1.9,1.9H79.7"/>
		<path class="st14" d="M79.7,103.2h68.5c1.1,0,1.9,0.9,1.9,1.9v0v0.2c0,1.1-0.9,1.9-1.9,1.9H79.7"/>
		<path class="st19" d="M30.1,89.6h24.8c1.1,0,1.9,0.9,1.9,1.9v0.2c0,1.1-0.9,1.9-1.9,1.9H30.1c-1.1,0-1.9-0.9-1.9-1.9v-0.2
			C28.2,90.5,29.1,89.6,30.1,89.6z"/>
		<path class="st19" d="M61.2,89.6h11.3c1.1,0,1.9,0.9,1.9,1.9v0.2c0,1.1-0.9,1.9-1.9,1.9H61.2c-1.1,0-1.9-0.9-1.9-1.9v-0.2
			C59.3,90.5,60.2,89.6,61.2,89.6z"/>
		<path class="st19" d="M11,110h7.1c1.1,0,1.9,0.9,1.9,1.9v0.2c0,1.1-0.9,1.9-1.9,1.9H11c-1.1,0-1.9-0.9-1.9-1.9v-0.2
			C9.1,110.8,9.9,110,11,110z"/>
		<path class="st19" d="M23.9,110h48.7c1.1,0,1.9,0.9,1.9,1.9v0.2c0,1.1-0.9,1.9-1.9,1.9H23.9c-1.1,0-1.9-0.9-1.9-1.9v-0.2
			C22,110.8,22.8,110,23.9,110z"/>
		<path class="st19" d="M44.6,116.8h102.7c1.1,0,1.9,0.9,1.9,1.9v0.2c0,1.1-0.9,1.9-1.9,1.9H44.6c-1.1,0-1.9-0.9-1.9-1.9v-0.2
			C42.7,117.6,43.6,116.8,44.6,116.8z"/>
		<path class="st14" d="M79.7,116.8h68.5c1.1,0,1.9,0.9,1.9,1.9v0.2c0,1.1-0.9,1.9-1.9,1.9l0,0H79.7"/>
		<path class="st19" d="M45.2,123.5H133c1.1,0,1.9,0.9,1.9,1.9v0.2c0,1.1-0.9,1.9-1.9,1.9H45.2c-1.1,0-1.9-0.9-1.9-1.9v-0.2
			C43.3,124.4,44.1,123.5,45.2,123.5z"/>
		<path class="st19" d="M79.7,127.5H45.2c-1.1,0-1.9-0.9-1.9-1.9v-0.2c0-1.1,0.9-1.9,1.9-1.9h34.5"/>
		<path class="st14" d="M79.7,123.5H133c1.1,0,1.9,0.9,1.9,1.9v0.2c0,1.1-0.9,1.9-1.9,1.9H79.7"/>
		<path class="st19" d="M79.7,134.3H45.2c-1.1,0-1.9-0.9-1.9-1.9v-0.2c0-1.1,0.9-1.9,1.9-1.9h34.5"/>
		<path class="st14" d="M79.7,130.3h21c1.1,0,1.9,0.9,1.9,1.9v0.2c0,1.1-0.9,1.9-1.9,1.9h-21"/>
		<path class="st19" d="M27.7,137.8h43.5c1.1,0,1.9,0.9,1.9,1.9v0.2c0,1.1-0.9,1.9-1.9,1.9H27.7c-1.1,0-1.9-0.9-1.9-1.9v-0.2
			C25.8,138.6,26.6,137.8,27.7,137.8z"/>
		<path class="st19" d="M19.9,144.3h37.5c1.1,0,1.9,0.9,1.9,1.9v0.2c0,1.1-0.9,1.9-1.9,1.9H19.9c-1.1,0-1.9-0.9-1.9-1.9v-0.2
			C18,145.1,18.8,144.3,19.9,144.3z"/>
		<path class="st19" d="M126.6,69.4h9.3c1.1,0,1.9,0.9,1.9,1.9v0.2c0,1.1-0.9,1.9-1.9,1.9h-9.3c-1.1,0-1.9-0.9-1.9-1.9v-0.2
			C124.7,70.2,125.6,69.4,126.6,69.4z"/>
		<path class="st25" d="M332.5,268l-28.1-28.1c-1.2-1.1-3.1-1.3-4.5-0.4l-2.5,2.5c-1.3,1.4-1.3,3.5,0,4.9l23.6,23.6l-23.6,23.6
			c-1.2,1.2-1.4,3.1-0.4,4.5l0,0l3,3l0,0c1.4,0.9,3.3,0.7,4.5-0.4l28.1-28.1c0.6-0.7,1-1.6,1-2.5C333.6,269.6,333.2,268.7,332.5,268
			z"/>
		<path class="st25" d="M158.7,270.5c0,0.9,0.4,1.8,1,2.5l28.1,28.1c1.2,1.1,3.1,1.3,4.5,0.4l0,0l3-3l0,0c0.9-1.4,0.8-3.3-0.4-4.5
			l-23.6-23.6l23.6-23.6c1.3-1.4,1.3-3.5,0-4.9l-2.5-2.5c-1.4-0.9-3.3-0.7-4.5,0.4L159.6,268C159,268.7,158.6,269.6,158.7,270.5z"/>
		<line class="st16" x1="355.7" y1="218.3" x2="355.7" y2="321.3"/>
		<path class="st26" d="M243.3,275.7l-20,38.9c-1.1,2-3.6,2.9-5.6,1.8c0,0,0,0,0,0l0,0c-2-1.1-2.9-3.6-1.8-5.6l27.4-53.2"/>
		<path class="st25" d="M243.2,257.6l21-40.7c1-2.1,3.6-2.9,5.6-1.8c0,0,0,0,0,0l0,0c2.1,1.1,2.9,3.6,1.8,5.6l-28.3,55"/>
	</g>
</g>
</svg>
