<svg xmlns="http://www.w3.org/2000/svg" viewBox="0 0 399.1 398.52"><defs><style>.cls-1{fill:none;}.cls-2{fill:#eab981;}.cls-3{fill:#d4a779;}.cls-4{fill:#eff2fa;}.cls-5{fill:#192023;}.cls-6{fill:#1d252a;}.cls-7{fill:#f0c087;}.cls-8{fill:#f4cf9c;}.cls-9{fill:#e3bd8d;}.cls-10{fill:#684a4a;}.cls-11{fill:#795858;}.cls-12{fill:#8a9699;}.cls-13{fill:#c8d0d3;}.cls-14{fill:#2c3a43;}.cls-15{fill:#2e4149;}.cls-16{fill:#c3d3d6;}.cls-17{fill:#d7e2e5;}</style></defs><title>end_users</title><g id="Слой_2" data-name="Слой 2"><g id="Слой_1-2" data-name="Слой 1"><line class="cls-1" x1="177.4" y1="259.02" x2="115.7" y2="259.02"/><line class="cls-1" x1="234" y1="259.02" x2="177.9" y2="259.02"/><line class="cls-1" x1="340.9" y1="211.32" x2="308" y2="211.32"/><polygon class="cls-2" points="348.3 242.72 348.3 221.82 294.5 221.82 294.5 242.72 321.3 266.72 348.3 242.72"/><polyline class="cls-3" points="321.5 264.82 348.4 240.82 348.4 219.92 321.5 219.92"/><path class="cls-4" d="M390,252.62l-37.1-8.8a6.71,6.71,0,0,1-1.5-.6l-30,17.5-28.9-18.4a5,5,0,0,1-2.7,1.4l-37.1,8.8a12,12,0,0,0-9.2,11.7v23.5a6,6,0,0,0,6,6H393.1a6,6,0,0,0,6-6v-23.4A11.74,11.74,0,0,0,390,252.62Z"/><path class="cls-5" d="M321.3,293.52H393a6,6,0,0,0,6-6V264a12.16,12.16,0,0,0-9.2-11.7l-37.2-8.8a6.71,6.71,0,0,1-1.5-.6l-30,17.5"/><path class="cls-6" d="M321.3,260.72l-28.9-18.4a5,5,0,0,1-2.7,1.4l-37.1,8.8a12,12,0,0,0-9.2,11.7v23.5a6,6,0,0,0,6,6h72"/><path class="cls-7" d="M282.4,153l2.6,57.4a18.49,18.49,0,0,0,7.2,13.6l12.3,9.3a17.76,17.76,0,0,0,10.8,3.6h12a18.43,18.43,0,0,0,10.8-3.6l12.3-9.3a18.15,18.15,0,0,0,7.2-13.6l2.6-57.4Z"/><path class="cls-8" d="M282.6,153l2.6,57.4a18.49,18.49,0,0,0,7.2,13.6l12.3,9.3a17.76,17.76,0,0,0,10.8,3.6h12a18.43,18.43,0,0,0,10.8-3.6l12.3-9.3a18.15,18.15,0,0,0,7.2-13.6l2.6-57.4Z"/><path class="cls-9" d="M321.5,236.92h6a18.43,18.43,0,0,0,10.8-3.6l12.3-9.3a18.15,18.15,0,0,0,7.2-13.6l2.6-57.4H321.5"/><path class="cls-10" d="M339.5,133.22l2.8,19.8c12.8,2.5,14.6,22.7,14.9,28.4a6.3,6.3,0,0,0,1,3l4.9,7.6s-1.6-12.5,6-21C369,170.92,371.7,121.12,339.5,133.22Z"/><path class="cls-9" d="M366.1,190.52l-3.3,13.6a3.52,3.52,0,0,1-3.4,2.7h0a3.49,3.49,0,0,1-3.5-3.2l-1.7-13.8a6.23,6.23,0,0,1,6.1-7h0A6.26,6.26,0,0,1,366.1,190.52Z"/><path class="cls-11" d="M285.3,127.82l4.4,3.1c-20,14.7-16.3,40.2-16.3,40.2,6,6,6,21,6,21l6-6s-2.3-17.3,9-24c10.4-6.1,19.6-3.1,29-3.1,25.1,0,32.1-9.5,30.8-21-.6-6-9.8-18.4-32.8-18C312,120.22,294.5,123,285.3,127.82Z"/><path class="cls-11" d="M285.3,127.82l4.4,3.1c-20,14.7-16.3,40.2-16.3,40.2,6,6,6,21,6,21l6-6s-2.3-17.3,9-24c9.9-5.8,18.4-3.3,27.1-3.1"/><path class="cls-10" d="M321.5,158.92c.6,0,1.2.1,1.8.1,25.1,0,32.1-9.5,30.8-21-.6-6-9.8-18.4-32.8-18"/><path class="cls-12" d="M367.2,287.72h-21a3.11,3.11,0,0,0-3.1,3.1v3.1h27v-3.1A2.79,2.79,0,0,0,367.2,287.72Z"/><path class="cls-13" d="M294,236l27.3,24.6a99.62,99.62,0,0,0-17.1,11.7,3.9,3.9,0,0,1-6-1.3l-12.8-28.3,4.1-6.1A3,3,0,0,1,294,236Z"/><path class="cls-12" d="M348.7,236l-27.4,24.6a99.62,99.62,0,0,1,17.1,11.7,3.9,3.9,0,0,0,6-1.3l12.8-28.3-4.1-6.1A2.85,2.85,0,0,0,348.7,236Z"/><path class="cls-8" d="M277,191.52l3.2,12.8a3.16,3.16,0,0,0,3.3,2.5h0a3.44,3.44,0,0,0,3.4-2.9l1.6-13a5.86,5.86,0,0,0-5.8-6.5h0A5.74,5.74,0,0,0,277,191.52Z"/><path class="cls-14" d="M72.1,268.72h59.5v18.9a6,6,0,0,1-6,6H72.1a6,6,0,0,1-6-6v-12.8A5.92,5.92,0,0,1,72.1,268.72Z"/><path class="cls-10" d="M64.8,119.92c-61.4,0-54.6,74.6-54.5,129.1a5.51,5.51,0,0,0,2.8,4.9c6.8,4.2,25.5,13.8,51.6,13.8s44.8-9.6,51.6-13.8a5.35,5.35,0,0,0,2.8-4.9C119.1,194.62,125.9,119.92,64.8,119.92Z"/><path class="cls-11" d="M64.8,120.92c-61.4,0-54.6,74.6-54.5,129.1a5.51,5.51,0,0,0,2.8,4.9c6.8,4.2,25.5,13.8,51.6,13.8"/><path class="cls-3" d="M124.3,260.62l-34.6-14.4a7.85,7.85,0,0,1-4.7-7v-9.4H46v9.4a7.24,7.24,0,0,1-4.7,7L6.8,260.62"/><path class="cls-2" d="M46.2,229.72v9.4a7.24,7.24,0,0,1-4.7,7L7,260.42a11.59,11.59,0,0,0-7,10.4,105.33,105.33,0,0,0,65,22.8h0v-64.2l-18.8.3Z"/><path class="cls-14" d="M65.8,293.62a103.48,103.48,0,0,0,65.8-24.4,11.64,11.64,0,0,0-7-8.9l-33.7-13.7-25.3,10.9"/><path class="cls-15" d="M65.8,257.52l-25.4-10.9L7,260.32a11.59,11.59,0,0,0-7,10.4,104.81,104.81,0,0,0,65,22.9h1.1"/><path class="cls-13" d="M65.8,257.52l-22.3-16.6a3.49,3.49,0,0,0-4.7.7L34.5,248l13.8,19.4a3.29,3.29,0,0,0,4.7.7Z"/><path class="cls-12" d="M65.8,257.52l22.3-16.6a3.49,3.49,0,0,1,4.7.7l4.3,6.4-13.8,19.4a3.29,3.29,0,0,1-4.7.7Z"/><path class="cls-8" d="M84,154.92c-19.3,19.3-57.4,4-57.4,34.8l2.6,22.9a14.92,14.92,0,0,0,8.1,11.9l22.1,12.3a11.28,11.28,0,0,0,11.5,0l22-12.1a15.62,15.62,0,0,0,8.1-11.9l2.8-27a60.15,60.15,0,0,0,.2-6.1C101.8,169.92,87.7,162.52,84,154.92Z"/><path class="cls-9" d="M64.8,238.52a12,12,0,0,0,5.7-1.4l22.1-12.3a15.62,15.62,0,0,0,8.1-11.9l2.8-27a60.15,60.15,0,0,0,.2-6.1c-1.4-9.9-15.3-17.2-19.3-24.7-5.5,5.5-12.3,8.3-19.3,9.9"/><path class="cls-15" d="M66,293.62H6a6,6,0,0,1-6-6v-16.9H66.1C66,270.82,66,293.62,66,293.62Z"/><polygon class="cls-2" points="261.7 281.52 261.7 233.52 138 233.52 138 281.52 199.9 336.42 261.7 281.52"/><polyline class="cls-3" points="200.2 332.12 262.1 277.02 262.1 229.12 200.2 229.12"/><path class="cls-4" d="M357.2,303.92l-84.8-20.1a9,9,0,0,1-3.6-1.4L200,322.52l-66.3-42.2a14,14,0,0,1-6.2,3.4l-84.8,20.1a27.5,27.5,0,0,0-21.1,26.7v53.9a13.83,13.83,0,0,0,13.8,13.8H364.8a13.83,13.83,0,0,0,13.8-13.8v-53.8A28,28,0,0,0,357.2,303.92Z"/><path class="cls-16" d="M200.2,397.92H364.3a13.83,13.83,0,0,0,13.8-13.8v-53.9a27.39,27.39,0,0,0-21.1-26.7l-84.8-20.1a9,9,0,0,1-3.6-1.4l-68.5,40.2"/><path class="cls-17" d="M199.9,322.62l-66.3-42a14,14,0,0,1-6.2,3.4l-84.8,20.1a27.5,27.5,0,0,0-21.1,26.7v53.9a13.83,13.83,0,0,0,13.8,13.8H200.5"/><path class="cls-7" d="M110.6,75.72l5.9,131.5a41.14,41.14,0,0,0,16.4,31l28.4,21.4a40.83,40.83,0,0,0,24.7,8.3h27.4a41.71,41.71,0,0,0,24.7-8.3l28.4-21.4a41.61,41.61,0,0,0,16.4-31l5.9-131.5Z"/><path class="cls-8" d="M111.2,75.72l5.9,131.5a41.14,41.14,0,0,0,16.4,31l28.4,21.4a40.83,40.83,0,0,0,24.7,8.3H214a41.71,41.71,0,0,0,24.7-8.3l28.4-21.4a41.61,41.61,0,0,0,16.4-31l6-131.5Z"/><path class="cls-9" d="M200.2,267.82H214a41.71,41.71,0,0,0,24.7-8.3l28.4-21.4a41.61,41.61,0,0,0,16.4-31l5.9-131.5H200.2"/><path class="cls-5" d="M241.7,30.32l6.4,45.5c29.2,5.8,33.4,52.1,34.3,65a12.79,12.79,0,0,0,2.2,6.9l11.2,17.4s-3.9-28.7,13.8-48.1C309.1,116.82,315.3,2.72,241.7,30.32Z"/><path class="cls-9" d="M302.5,161.72l-7.7,31c-.7,3.9-4.1,6.2-8,6.2h0a8.12,8.12,0,0,1-8.1-7.2l-4-31.6a14.24,14.24,0,0,1,14.1-15.9h0A14.32,14.32,0,0,1,302.5,161.72Z"/><path class="cls-6" d="M117.3,17.92l10.1,7c-45.9,33.7-37.2,92-37.2,92C104,130.72,104,165,104,165l13.8-13.8s-5.2-39.6,20.4-54.9c23.9-14.1,45.1-7,66.6-7,57.4,0,73.6-21.7,70.7-48.1-1.4-13.8-22.2-42-75.4-41.2C178.4.52,138,6.92,117.3,17.92Z"/><path class="cls-6" d="M117.3,17.92l10.1,7c-45.9,33.7-37.2,92-37.2,92C104,130.72,104,165,104,165l13.8-13.8s-5.2-39.6,20.4-54.9c22.6-13.4,42.3-7.7,62.2-7"/><path class="cls-5" d="M200.2,89.22c1.4,0,2.8.1,4.1.1,57.4,0,73.6-21.7,70.7-48.1C273.8,27.42,252.9-.68,199.8,0"/><path class="cls-8" d="M97.5,161.72l7.7,31c.7,3.9,4.1,6.2,8,6.2h0a8.12,8.12,0,0,0,8.1-7.2l4-31.6a14.24,14.24,0,0,0-14.1-15.9h0C102,144.22,95.1,153,97.5,161.72Z"/><path class="cls-12" d="M305,384.42H256.9a6.9,6.9,0,0,0-7,7v7h61.9v-7A6.56,6.56,0,0,0,305,384.42Z"/><path class="cls-13" d="M137.2,266.12l62.6,56.4s-17.5,8.7-39.2,26.7c-4.4,3.9-11.2,2.2-13.8-3l-29.5-64.8,9.4-13.9A7,7,0,0,1,137.2,266.12Z"/><path class="cls-12" d="M262.7,266.12,200,322.52s17.5,8.7,39.2,26.7c4.4,3.9,11.2,2.2,13.8-3l29.5-64.8-9.4-13.9C270.4,264,265.7,263.22,262.7,266.12Z"/><line class="cls-1" x1="51.4" y1="103.22" x2="346.5" y2="103.22"/></g></g></svg>