<svg xmlns="http://www.w3.org/2000/svg" viewBox="0 0 131.18 139.73"><defs><style>.cls-1{fill:#009082;}.cls-2{fill:#00b8a1;}.cls-3{fill:#c9d4d7;}.cls-4{fill:#d8e3e6;}.cls-5{fill:#8b979a;}.cls-6{fill:#ebebeb;}.cls-7{fill:#2e424a;}.cls-8{fill:#2b3a43;}.cls-9{fill:#0096ea;}.cls-10{fill:#008ad9;}.cls-11{fill:#d0ebfb;}.cls-12,.cls-13,.cls-14,.cls-18,.cls-19{fill:none;stroke-miterlimit:10;}.cls-12{stroke:#008ad9;}.cls-13{stroke:#f7333a;}.cls-14{stroke:#2b3a43;}.cls-15{fill:#fba03d;}.cls-16{fill:#ffab42;}.cls-17{fill:#17242a;}.cls-18{stroke:#009082;}.cls-18,.cls-19{stroke-width:10px;}.cls-19{stroke:#00b8a1;}</style></defs><title>enterprise_ready_new</title><g id="Слой_2" data-name="Слой 2"><g id="Слой_1-2" data-name="Слой 1"><g id="Слой_1-3" data-name="Слой 1"><path class="cls-1" d="M68.62,0S66,3.1,59.92,3.1v7.39a12.61,12.61,0,0,0,4.82,10,11.51,11.51,0,0,0,3.88,2,11.83,11.83,0,0,0,3.89-2,12.58,12.58,0,0,0,4.82-10V3.12C71.27,3.12,68.62,0,68.62,0Z"/><path class="cls-2" d="M59.9,3.12v7.39a12.61,12.61,0,0,0,4.82,10,11.56,11.56,0,0,0,3.89,2V0S66,3.12,59.9,3.12Z"/><path class="cls-3" d="M68.62,20a8.73,8.73,0,0,1-2.41-1.38,10.27,10.27,0,0,1-3.91-8.16V5.29a15,15,0,0,0,6.34-2.24A14.65,14.65,0,0,0,75,5.29v5.22a10.43,10.43,0,0,1-3.9,8.16A10.74,10.74,0,0,1,68.62,20Z"/><path class="cls-4" d="M62.29,5.29v5.22a10.43,10.43,0,0,0,3.9,8.16,9.88,9.88,0,0,0,2.42,1.38V3A14.28,14.28,0,0,1,62.29,5.29Z"/><path class="cls-5" d="M70.94,12.82V10.17c0-.05,0-.08,0-.1s0,0-.11,0h-.36V9.61a1.67,1.67,0,0,0,0-.21c0-.14,0-.21,0-.22a1,1,0,0,1,0-.21q0-.2-.09-.21a1.55,1.55,0,0,0-.64-.7,1.83,1.83,0,0,0-1-.27h-.11a1.72,1.72,0,0,0-1.12.41,1.66,1.66,0,0,0-.59,1,1.23,1.23,0,0,0,0,.27V10h-.44s0,0,0,0,0,0,0,.07v2.79s0,.05,0,.05h4.49s0,0,0-.07S70.94,12.87,70.94,12.82Zm-1.89-1.3a.84.84,0,0,1-.2.18v.05l.13.58h-.71l.13-.54s0-.06,0-.09a.46.46,0,0,1-.19-.18.42.42,0,0,1-.07-.24.43.43,0,0,1,.07-.25.81.81,0,0,1,.12-.14.45.45,0,0,1,.3-.1h0a.39.39,0,0,1,.3.14.44.44,0,0,1,.15.33A.5.5,0,0,1,69.05,11.52Zm-1.62-1.47V9.49a1.51,1.51,0,0,1,0-.26.62.62,0,0,1,.1-.26A1.27,1.27,0,0,1,68,8.53a1.15,1.15,0,0,1,.6-.16h.09a1.26,1.26,0,0,1,.63.16,1.12,1.12,0,0,1,.44.45,1.07,1.07,0,0,1,.08.27,1.32,1.32,0,0,1,0,.24V10l-2.44,0Z"/></g><path class="cls-4" d="M67.92,34.85a34.29,34.29,0,0,0,0,68.58"/><path class="cls-2" d="M67.92,78.9,62.79,84a2.81,2.81,0,0,1-2,.84,2.85,2.85,0,0,1-2-.84L45.48,70.74a1.42,1.42,0,0,1,0-2l2-2a1.42,1.42,0,0,1,2,0L60.77,78l7.15-7.14"/><path class="cls-3" d="M68.36,108.66a38.63,38.63,0,0,0,0-77.26"/><path class="cls-4" d="M68.36,31.4a38.63,38.63,0,0,0,0,77.26"/><path class="cls-2" d="M68.35,78.76l-4.46,4.46a2.49,2.49,0,0,1-3.52,0L48.82,71.66a1.24,1.24,0,0,1,0-1.76l1.75-1.76a1.26,1.26,0,0,1,1.76,0l9.8,9.8,6.22-6.22"/><path class="cls-1" d="M68.35,71.72,81.88,58.2a1.24,1.24,0,0,1,1.76,0L85.39,60a1.24,1.24,0,0,1,0,1.76l-17,17.05"/><polygon class="cls-6" points="126.53 32.21 125.13 28.63 111.7 28.63 111.7 51.63 130.09 51.63 130.09 33.6 126.53 32.21"/><polyline class="cls-3" points="130.09 33.6 130.09 51.63 120.94 51.63 120.94 28.63 124.89 28.63"/><polyline class="cls-5" points="125.13 28.63 130.09 33.6 125.13 33.6 125.13 28.63"/><path class="cls-7" d="M120.94,39h-6.67a.24.24,0,0,1-.25-.25h0a.24.24,0,0,1,.25-.25h6.65"/><path class="cls-8" d="M120.92,38.49h6.59a.25.25,0,0,1,.25.25h0a.24.24,0,0,1-.25.25h-6.59"/><path class="cls-7" d="M120.94,40.13h-6.67a.24.24,0,0,1-.25-.25h0a.24.24,0,0,1,.25-.25h6.65"/><path class="cls-8" d="M120.92,39.63h6.59a.25.25,0,0,1,.25.25h0a.25.25,0,0,1-.25.25h-6.59"/><path class="cls-7" d="M120.94,41.29h-6.67A.24.24,0,0,1,114,41h0a.24.24,0,0,1,.25-.25h6.65"/><path class="cls-8" d="M120.92,40.79h6.59a.25.25,0,0,1,.25.25h0a.25.25,0,0,1-.25.25h-6.59"/><path class="cls-7" d="M120.94,42.45h-6.67a.24.24,0,0,1-.25-.25h0a.24.24,0,0,1,.25-.25h6.65"/><path class="cls-8" d="M120.92,42h6.59a.24.24,0,0,1,.25.25h0a.25.25,0,0,1-.25.25h-6.59"/><path class="cls-7" d="M120.94,43.58h-6.67a.23.23,0,0,1-.25-.24h0a.24.24,0,0,1,.25-.25h6.65"/><path class="cls-8" d="M120.92,43.1h6.59a.25.25,0,0,1,.25.25h0a.24.24,0,0,1-.25.25h-6.59"/><path class="cls-7" d="M120.94,44.74h-6.67a.24.24,0,0,1-.25-.25h0a.24.24,0,0,1,.25-.25h6.65"/><path class="cls-8" d="M120.92,44.24h6.59a.25.25,0,0,1,.25.25h0a.25.25,0,0,1-.25.25h-6.59"/><path class="cls-7" d="M120.94,45.9h-6.67a.24.24,0,0,1-.25-.25h0a.24.24,0,0,1,.25-.25h6.65"/><path class="cls-8" d="M120.92,45.4h6.59a.25.25,0,0,1,.25.25h0a.25.25,0,0,1-.25.25h-6.59"/><path class="cls-7" d="M120.94,47h-6.67a.24.24,0,0,1-.25-.25h0a.24.24,0,0,1,.25-.25h6.65"/><path class="cls-8" d="M120.92,46.56h6.59a.24.24,0,0,1,.25.25h0a.25.25,0,0,1-.25.25h-6.59"/><path class="cls-8" d="M127,34.68H123.5a.23.23,0,0,1-.24-.24h0a.23.23,0,0,1,.24-.25H127"/><path class="cls-8" d="M124,34.2h3.53a.25.25,0,0,1,.25.25h0a.24.24,0,0,1-.25.25H124"/><path class="cls-7" d="M127,35.7h-3.52a.24.24,0,0,1-.25-.25h0a.24.24,0,0,1,.25-.25H127"/><path class="cls-8" d="M124,35.2h3.53a.25.25,0,0,1,.25.25h0a.25.25,0,0,1-.25.25H124"/><path class="cls-7" d="M127,36.71h-3.52a.24.24,0,0,1-.25-.25h0a.23.23,0,0,1,.25-.24H127"/><path class="cls-8" d="M124,36.22h3.53a.24.24,0,0,1,.25.24h0a.24.24,0,0,1-.25.25H124"/><circle class="cls-9" cx="117.33" cy="34.06" r="3.24"/><path class="cls-9" d="M117.33,37.34a3.24,3.24,0,1,1,0-6.48"/><path class="cls-10" d="M117.33,30.86a3.24,3.24,0,0,1,0,6.48"/><path class="cls-3" d="M117.33,32.94h.12a.13.13,0,0,0,.09,0h0a.19.19,0,0,0,.09,0s.05,0,.07-.07h0l.06-.07a.21.21,0,0,0,0-.07v0s0-.07,0-.11V32.3a.25.25,0,0,0,0-.11.42.42,0,0,0-.09-.14l0,0s-.05,0-.07-.07l-.09-.05s-.07,0-.09,0h-.12"/><path class="cls-11" d="M117.33,31.89h-.07a.13.13,0,0,0-.09,0h0a.19.19,0,0,0-.09.05.12.12,0,0,0-.07.07l-.07.07-.06.09s0,.07,0,.09v.21a.35.35,0,0,0,0,.13l.06.09,0,.07.07.07.09.05.11,0h.07"/><path class="cls-3" d="M117.33,36.3H118a.19.19,0,0,0,.2-.19v-.43a.2.2,0,0,0-.2-.21h-.18V33.56a.2.2,0,0,0-.19-.19h-.25"/><path class="cls-11" d="M117.33,33.37h-.57a.2.2,0,0,0-.2.19V34a.2.2,0,0,0,.2.2h.16v1.3h-.16a.19.19,0,0,0-.2.19v.43a.19.19,0,0,0,.2.19h.57"/><path class="cls-9" d="M75.27,132.82H73.89a2.77,2.77,0,0,1-2.77-2.77v-.89a6.87,6.87,0,0,0,1.33-2.5c0-.15.17-.23.27-.33a1.71,1.71,0,0,0,.24-2.06c0-.1-.15-.18-.15-.3,0-.81,0-1.62,0-2.43a4.07,4.07,0,0,0-1-2.73,3.87,3.87,0,0,0-2.09-1.08,7,7,0,0,0-3,.07,3.64,3.64,0,0,0-2.14,1.45,4.19,4.19,0,0,0-.66,2.19c0,.83,0,1.66,0,2.48,0,.17-.12.28-.18.42a1.71,1.71,0,0,0,.39,2.1c.15.1.18.29.24.46a6.61,6.61,0,0,0,1.24,2.23v.92a2.77,2.77,0,0,1-2.76,2.77H61.44s-2.5.69-4.15,4.14v1.39a1.38,1.38,0,0,0,1.39,1.38H78a1.38,1.38,0,0,0,1.38-1.38V137C77.78,133.51,75.27,132.82,75.27,132.82Z"/><path class="cls-10" d="M68.36,139.73H78a1.38,1.38,0,0,0,1.38-1.38V137c-1.64-3.45-4.15-4.14-4.15-4.14H73.89a2.77,2.77,0,0,1-2.77-2.77v-.89a6.87,6.87,0,0,0,1.33-2.5c0-.15.17-.23.27-.33a1.71,1.71,0,0,0,.24-2.06c0-.1-.15-.18-.15-.3,0-.81,0-1.62,0-2.43a4.07,4.07,0,0,0-1-2.73,3.87,3.87,0,0,0-2.09-1.08,7,7,0,0,0-1.37-.13"/><polyline class="cls-12" points="2.72 39.2 9.15 40.41 13.35 36.66 21.72 41.34"/><polyline class="cls-13" points="2.21 44.81 7.52 45.08 12.94 43.65 22.13 46.19"/><line class="cls-14" x1="0.6" y1="29.19" x2="0.6" y2="51.51"/><circle class="cls-15" cx="21.19" cy="41.07" r="1.21"/><circle class="cls-15" cx="13.37" cy="36.66" r="1.21"/><circle class="cls-15" cx="9.03" cy="40.24" r="1.21"/><circle class="cls-15" cx="2.81" cy="39.2" r="1.21"/><line class="cls-14" x1="0.15" y1="51.01" x2="22.4" y2="51.01"/><path class="cls-1" d="M20.18,103.59a.62.62,0,0,0-.12-.35q-1-1.15-1.56-2a8.5,8.5,0,0,0,.55-1.32l2.69-.41a.46.46,0,0,0,.27-.18.59.59,0,0,0,.12-.34v-3.2a.52.52,0,0,0-.12-.34.48.48,0,0,0-.29-.18l-2.63-.4a12.19,12.19,0,0,0-.59-1.42c.17-.25.43-.6.78-1s.59-.75.73-.94a.56.56,0,0,0,.12-.33q0-.47-2.49-2.76a.61.61,0,0,0-.37-.14.5.5,0,0,0-.34.12l-2,1.54a8.22,8.22,0,0,0-1.3-.54l-.4-2.64a.42.42,0,0,0-.17-.3.51.51,0,0,0-.35-.13H9.46a.5.5,0,0,0-.52.41,20.11,20.11,0,0,0-.4,2.66A8.18,8.18,0,0,0,7.21,90l-2-1.56a.6.6,0,0,0-.36-.12c-.22,0-.68.34-1.37,1a15.27,15.27,0,0,0-1.42,1.54.5.5,0,0,0-.12.34.67.67,0,0,0,.12.35c.65.77,1.17,1.44,1.56,2a8,8,0,0,0-.55,1.31L.4,95.24a.39.39,0,0,0-.28.18.56.56,0,0,0-.12.34V99a.52.52,0,0,0,.12.33.42.42,0,0,0,.3.17L3,99.87a8.66,8.66,0,0,0,.61,1.42c-.19.25-.46.61-.81,1s-.6.76-.71.92a.61.61,0,0,0-.12.33c0,.31.83,1.23,2.49,2.77a.55.55,0,0,0,.36.13.45.45,0,0,0,.34-.12l2.05-1.54a7.31,7.31,0,0,0,1.29.54l.4,2.65a.46.46,0,0,0,.17.3.58.58,0,0,0,.35.13h3.21a.5.5,0,0,0,.52-.42,20.56,20.56,0,0,0,.4-2.68,7,7,0,0,0,1.33-.53l2,1.55a.65.65,0,0,0,.36.12c.22,0,.68-.34,1.36-1a18.58,18.58,0,0,0,1.43-1.54A.45.45,0,0,0,20.18,103.59Zm-6-3.08a4.26,4.26,0,0,1-3.13,1.3,4.43,4.43,0,1,1,0-8.85,4.43,4.43,0,0,1,3.13,7.55Z"/><path class="cls-2" d="M11.07,93V86.32H9.46a.5.5,0,0,0-.52.41,20.11,20.11,0,0,0-.4,2.66A8.18,8.18,0,0,0,7.21,90l-2-1.56a.6.6,0,0,0-.36-.12c-.22,0-.67.34-1.37,1a14.74,14.74,0,0,0-1.41,1.54.51.51,0,0,0-.12.35.67.67,0,0,0,.12.34c.64.77,1.16,1.44,1.55,2a8,8,0,0,0-.55,1.31L.4,95.24a.39.39,0,0,0-.28.18.56.56,0,0,0-.12.34V99a.5.5,0,0,0,.12.33.42.42,0,0,0,.3.17L3,99.87a8.66,8.66,0,0,0,.61,1.42c-.18.25-.46.61-.81,1.06s-.6.75-.71.91a.61.61,0,0,0-.12.33q0,.47,2.49,2.76a.51.51,0,0,0,.36.14.5.5,0,0,0,.35-.12l2-1.54a6.62,6.62,0,0,0,1.29.54l.4,2.65a.46.46,0,0,0,.17.3.53.53,0,0,0,.35.13h1.61v-6.64a4.24,4.24,0,0,1-3.13-1.3,4.42,4.42,0,0,1,0-6.26A4.27,4.27,0,0,1,11.07,93Z"/><path class="cls-16" d="M114.78,97.31a.94.94,0,0,0-.94.94v5.61a1,1,0,0,0,.94.94.94.94,0,0,0,.94-.94V98.25A.94.94,0,0,0,114.78,97.31Z"/><path class="cls-16" d="M131,95.37a7.53,7.53,0,0,0-.42-1.76,8.57,8.57,0,0,0-.78-1.65,10.93,10.93,0,0,0-1-1.48.87.87,0,0,1-.36-.9,10.77,10.77,0,0,0-15.22,0,.82.82,0,0,0-.22.78.37.37,0,0,0-.14.12,10.17,10.17,0,0,0-1,1.48,13.06,13.06,0,0,0-.78,1.65,13.47,13.47,0,0,0-.48,1.76,11,11,0,0,0-.16,1.8V101a.57.57,0,0,0,.14.36l.06.06a3.35,3.35,0,0,0,.92,1.88,3.44,3.44,0,0,0,1.43.84,1.76,1.76,0,0,1,0-.34V98.21a2,2,0,0,1,0-.34,3.35,3.35,0,0,0-1.43.84l-.12.12V97.17a9.08,9.08,0,0,1,.14-1.64,10.19,10.19,0,0,1,.42-1.58,8.41,8.41,0,0,1,.71-1.48,8.56,8.56,0,0,1,.94-1.35s.06-.08.08-.12a.84.84,0,0,0,.74-.24,9,9,0,0,1,12.81,0,.81.81,0,0,0,.71.24.42.42,0,0,0,.08.12,8.56,8.56,0,0,1,.94,1.35,11.06,11.06,0,0,1,.7,1.48,10.82,10.82,0,0,1,.42,1.58,8.93,8.93,0,0,1,.14,1.64v1.68l-.12-.12a3.4,3.4,0,0,0-1.42-.84,1.76,1.76,0,0,1,0,.34v5.61a2,2,0,0,1,0,.34,3.89,3.89,0,0,0,.44-.16v1.82a2.29,2.29,0,0,1-.06.56.69.69,0,0,1-.16.32.72.72,0,0,1-.24.16.77.77,0,0,1-.38,0h-5.43a.94.94,0,0,0-.82-.5h-2.39a.95.95,0,0,0,0,1.89H122a.91.91,0,0,0,.82-.51h5.61a1.53,1.53,0,0,0,.54-.1,1.44,1.44,0,0,0,.58-.4,1.7,1.7,0,0,0,.34-.62,2.69,2.69,0,0,0,.1-.84v-2.42l.08-.08a3.17,3.17,0,0,0,.92-1.88l.06-.06a.48.48,0,0,0,.14-.36V97.17A10.76,10.76,0,0,0,131,95.37Z"/><path class="cls-16" d="M127.78,103.84V98.23a.95.95,0,0,0-1.89,0v5.61a.95.95,0,0,0,1.89,0Z"/><path class="cls-8" d="M114.78,97.31a.94.94,0,0,0-.94.94v5.61a1,1,0,0,0,.94.94.94.94,0,0,0,.94-.94V98.25A.94.94,0,0,0,114.78,97.31Z"/><path class="cls-8" d="M120.81,88.1a9,9,0,0,1,6.4,2.66.81.81,0,0,0,.71.24.42.42,0,0,0,.08.12,8.56,8.56,0,0,1,.94,1.35,11.06,11.06,0,0,1,.7,1.48,10.82,10.82,0,0,1,.42,1.58,8.93,8.93,0,0,1,.14,1.64v1.68l-.12-.12a3.4,3.4,0,0,0-1.42-.84,1.76,1.76,0,0,1,0,.34v5.61a2,2,0,0,1,0,.34,3.89,3.89,0,0,0,.44-.16v1.82a2.29,2.29,0,0,1-.06.56.69.69,0,0,1-.16.32.72.72,0,0,1-.24.16.77.77,0,0,1-.38,0h-5.43a.94.94,0,0,0-.82-.5h-2.39a.95.95,0,0,0,0,1.89H122a.91.91,0,0,0,.82-.51h5.61a1.53,1.53,0,0,0,.54-.1,1.44,1.44,0,0,0,.58-.4,1.7,1.7,0,0,0,.34-.62,2.69,2.69,0,0,0,.1-.84v-2.42l.08-.08a3.17,3.17,0,0,0,.92-1.88l.06-.06a.48.48,0,0,0,.14-.36V97.17a10.76,10.76,0,0,0-.16-1.8,7.53,7.53,0,0,0-.42-1.76,8.57,8.57,0,0,0-.78-1.65,10.93,10.93,0,0,0-1-1.48.87.87,0,0,1-.36-.9,10.78,10.78,0,0,0-7.61-3.16"/><path class="cls-8" d="M130,103.42v2.43a2.69,2.69,0,0,1-.1.84,1.7,1.7,0,0,1-.34.62,1.44,1.44,0,0,1-.58.4,1.53,1.53,0,0,1-.54.1h-5.6a.94.94,0,0,1-.83.5h-2.36a.94.94,0,0,1,0-1.88H122a1,1,0,0,1,.83.5h5.42a.77.77,0,0,0,.38,0,.72.72,0,0,0,.24-.16.69.69,0,0,0,.16-.32,2.29,2.29,0,0,0,.06-.56V104"/><path class="cls-8" d="M120.81,86.42a10.73,10.73,0,0,0-7.61,3.14.82.82,0,0,0-.22.78.37.37,0,0,0-.14.12,10.17,10.17,0,0,0-1,1.48,13.06,13.06,0,0,0-.78,1.65,13.47,13.47,0,0,0-.48,1.76,11,11,0,0,0-.16,1.8V101a.57.57,0,0,0,.14.36l.06.06a3.35,3.35,0,0,0,.92,1.88,3.44,3.44,0,0,0,1.43.84,1.76,1.76,0,0,1,0-.34V98.21a2,2,0,0,1,0-.34,3.35,3.35,0,0,0-1.43.84l-.12.12V97.17a9.08,9.08,0,0,1,.14-1.64,10.19,10.19,0,0,1,.42-1.58,8.41,8.41,0,0,1,.71-1.48,8.56,8.56,0,0,1,.94-1.35s.06-.08.08-.12a.84.84,0,0,0,.74-.24,9,9,0,0,1,6.41-2.66"/><path class="cls-8" d="M127.78,103.84V98.23a.95.95,0,0,0-1.89,0v5.61a.95.95,0,0,0,1.89,0Z"/><path class="cls-7" d="M114.78,97.31a.94.94,0,0,0-.94.94v5.61a1,1,0,0,0,.94.94.94.94,0,0,0,.94-.94V98.25A.94.94,0,0,0,114.78,97.31Z"/><path class="cls-17" d="M120.81,88.1a9,9,0,0,1,6.4,2.66.81.81,0,0,0,.71.24.42.42,0,0,0,.08.12,8.56,8.56,0,0,1,.94,1.35,11.06,11.06,0,0,1,.7,1.48,10.82,10.82,0,0,1,.42,1.58,8.93,8.93,0,0,1,.14,1.64v1.68l-.12-.12a3.4,3.4,0,0,0-1.42-.84,1.76,1.76,0,0,1,0,.34v5.61a2,2,0,0,1,0,.34,3.89,3.89,0,0,0,.44-.16v1.82a2.29,2.29,0,0,1-.06.56.69.69,0,0,1-.16.32.72.72,0,0,1-.24.16.77.77,0,0,1-.38,0h-5.43a.94.94,0,0,0-.82-.5h-2.39a.95.95,0,0,0,0,1.89H122a.91.91,0,0,0,.82-.51h5.61a1.53,1.53,0,0,0,.54-.1,1.44,1.44,0,0,0,.58-.4,1.7,1.7,0,0,0,.34-.62,2.69,2.69,0,0,0,.1-.84v-2.42l.08-.08a3.17,3.17,0,0,0,.92-1.88l.06-.06a.48.48,0,0,0,.14-.36V97.17a10.76,10.76,0,0,0-.16-1.8,7.53,7.53,0,0,0-.42-1.76,8.57,8.57,0,0,0-.78-1.65,10.93,10.93,0,0,0-1-1.48.87.87,0,0,1-.36-.9,10.78,10.78,0,0,0-7.61-3.16"/><path class="cls-1" d="M130,103.42v2.43a2.69,2.69,0,0,1-.1.84,1.7,1.7,0,0,1-.34.62,1.44,1.44,0,0,1-.58.4,1.53,1.53,0,0,1-.54.1h-5.6a.94.94,0,0,1-.83.5h-2.36a.94.94,0,0,1,0-1.88H122a1,1,0,0,1,.83.5h5.42a.77.77,0,0,0,.38,0,.72.72,0,0,0,.24-.16.69.69,0,0,0,.16-.32,2.29,2.29,0,0,0,.06-.56V104"/><path class="cls-7" d="M120.81,86.42a10.73,10.73,0,0,0-7.61,3.14.82.82,0,0,0-.22.78.37.37,0,0,0-.14.12,10.17,10.17,0,0,0-1,1.48,13.06,13.06,0,0,0-.78,1.65,13.47,13.47,0,0,0-.48,1.76,11,11,0,0,0-.16,1.8V101a.57.57,0,0,0,.14.36l.06.06a3.35,3.35,0,0,0,.92,1.88,3.44,3.44,0,0,0,1.43.84,1.76,1.76,0,0,1,0-.34V98.21a2,2,0,0,1,0-.34,3.35,3.35,0,0,0-1.43.84l-.12.12V97.17a9.08,9.08,0,0,1,.14-1.64,10.19,10.19,0,0,1,.42-1.58,8.41,8.41,0,0,1,.71-1.48,8.56,8.56,0,0,1,.94-1.35s.06-.08.08-.12a.84.84,0,0,0,.74-.24,9,9,0,0,1,6.41-2.66"/><path class="cls-17" d="M127.78,103.84V98.23a.95.95,0,0,0-1.89,0v5.61a.95.95,0,0,0,1.89,0Z"/><path class="cls-7" d="M120.92,106.42h-1.3a.95.95,0,0,0,0,1.89h1.3"/><path class="cls-17" d="M120.72,108.31H122a1,1,0,0,0,.94-1,.94.94,0,0,0-.94-.94h-1.29"/><path class="cls-18" d="M68.43,35.82a34.67,34.67,0,0,1,0,69.33"/><path class="cls-19" d="M68.43,105.15a34.67,34.67,0,1,1,0-69.33"/></g></g></svg>