<svg xmlns="http://www.w3.org/2000/svg" viewBox="0 0 398.4 392.7"><defs><style>.cls-1{fill:#c3d3d6;}.cls-2{fill:#e1ad7b;}.cls-3{fill:#684a4a;}.cls-4{fill:#795858;}.cls-5{fill:#d4a779;}.cls-6{fill:#eab981;}.cls-7{fill:#d7e2e5;}.cls-8{fill:#1d252a;}.cls-9{fill:#192023;}.cls-10{fill:#f4cf9c;}.cls-11{fill:#e3bd8d;}.cls-12{fill:none;}.cls-13{fill:#8a9699;}.cls-14{fill:#eff2fa;}.cls-15{fill:#f0c087;}.cls-16{fill:#c8d0d3;}.cls-17{fill:#009082;}.cls-18{fill:#00b8a1;}.cls-19{fill:#4a86bf;}.cls-20{fill:#4790cf;}.cls-21{fill:#fda23e;}.cls-22{fill:#ffab42;}</style></defs><title>forums</title><g id="Слой_2" data-name="Слой 2"><g id="Слой_1-2" data-name="Слой 1"><g id="Слой_1-3" data-name="Слой 1"><rect class="cls-1" x="60.4" y="371.6" width="61" height="20.9"/><path class="cls-2" d="M95.8,312.2l1.9,7.6a1.75,1.75,0,0,0,1.9,1.4h0a2,2,0,0,0,1.9-1.7l1-7.6a3.3,3.3,0,0,0-3.3-3.8h0A3.33,3.33,0,0,0,95.8,312.2Z"/><path class="cls-3" d="M60.1,233.8C4,233.8,10.2,302,10.4,351.7a5.13,5.13,0,0,0,2.6,4.5,92.29,92.29,0,0,0,47.1,12.6,92.29,92.29,0,0,0,47.1-12.6,5,5,0,0,0,2.6-4.5C109.8,302,116,233.8,60.1,233.8Z"/><path class="cls-4" d="M60.1,233.8C4,233.8,10.2,302,10.4,351.7a5.13,5.13,0,0,0,2.6,4.5,92.29,92.29,0,0,0,47.1,12.6"/><path class="cls-5" d="M113.6,362.3,82,349.2a7.07,7.07,0,0,1-4.3-6.4v-8.6H42.1v8.6a6.67,6.67,0,0,1-4.3,6.4L6.2,362.3"/><path class="cls-6" d="M42.3,334.1v8.6a6.67,6.67,0,0,1-4.3,6.4l-31.6,13A10.36,10.36,0,0,0,0,371.6a95.71,95.71,0,0,0,59.4,20.9h0V333.8l-17.1.3Z"/><path class="cls-1" d="M60.1,392.5a94.8,94.8,0,0,0,60.1-22.3,10.64,10.64,0,0,0-6.4-8.1L83.1,349.5,60,359.5"/><path class="cls-7" d="M60.1,359.5,37,349.5,6.4,362.1A10.36,10.36,0,0,0,0,371.6a95.71,95.71,0,0,0,59.4,20.9h1"/><path class="cls-8" d="M60.1,359.5,39.7,344.3a3.11,3.11,0,0,0-4.3.7l-4,5.9L44,368.5a3.19,3.19,0,0,0,4.3.7Z"/><path class="cls-9" d="M60.1,359.5l20.4-15.2a3.11,3.11,0,0,1,4.3.7l4,5.9L76.2,368.5a3.19,3.19,0,0,1-4.3.7Z"/><path class="cls-10" d="M77.7,265.8c-17.6,17.6-52.5,3.6-52.5,31.8l2.4,20.9A13.72,13.72,0,0,0,35,329.4l20.2,11.2a10.38,10.38,0,0,0,10.5,0l20.1-11.1a14.19,14.19,0,0,0,7.4-10.9l2.6-24.7a48.75,48.75,0,0,0,.2-5.5C93.9,279.4,81.1,272.7,77.7,265.8Z"/><path class="cls-11" d="M60.1,342.1a12.8,12.8,0,0,0,5.2-1.2l20.2-11.2a14.19,14.19,0,0,0,7.4-10.9l2.6-24.7a48.75,48.75,0,0,0,.2-5.5c-1.2-9-14-15.7-17.6-22.6-5,5-11.2,7.6-17.6,9"/><line class="cls-12" x1="154" y1="297.9" x2="112.4" y2="297.9"/><line class="cls-12" x1="192.1" y1="297.9" x2="154.3" y2="297.9"/></g><path class="cls-13" d="M106.3,387.1H87.2a2.69,2.69,0,0,0-2.7,2.7v2.7h24.6v-2.7A2.84,2.84,0,0,0,106.3,387.1Z"/><polygon class="cls-6" points="200.6 334 200.6 310 138.6 310 138.6 334 169.6 361.6 200.6 334"/><polyline class="cls-5" points="169.8 359.4 200.8 331.8 200.8 307.8 169.8 307.8"/><path class="cls-14" d="M248.5,345.3l-42.6-10.1a6.7,6.7,0,0,1-1.8-.7l-34.5,20.1-33.2-21.1a6.72,6.72,0,0,1-3.1,1.7L90.7,345.3a13.8,13.8,0,0,0-10.6,13.4v27a6.91,6.91,0,0,0,6.9,6.9H252.2a6.91,6.91,0,0,0,6.9-6.9V358.8A13.82,13.82,0,0,0,248.5,345.3Z"/><path class="cls-1" d="M169.8,392.5h82.3a6.91,6.91,0,0,0,6.9-6.9v-27a13.8,13.8,0,0,0-10.6-13.4l-42.6-10.1a6.7,6.7,0,0,1-1.8-.7l-34.4,20.2"/><path class="cls-7" d="M169.6,354.7l-33.2-21.1a6.72,6.72,0,0,1-3.1,1.7L90.7,345.4a13.8,13.8,0,0,0-10.6,13.4v27a6.91,6.91,0,0,0,6.9,6.9h82.8"/><path class="cls-15" d="M124.8,230.8l3,66a20.71,20.71,0,0,0,8.3,15.6l14.2,10.7a20.61,20.61,0,0,0,12.4,4.2h13.8a20.61,20.61,0,0,0,12.4-4.2l14.2-10.7a21.19,21.19,0,0,0,8.3-15.6l3-66Z"/><path class="cls-10" d="M125.1,230.8l3,66a20.71,20.71,0,0,0,8.3,15.6l14.2,10.7a20.61,20.61,0,0,0,12.4,4.2h13.8a20.61,20.61,0,0,0,12.4-4.2l14.2-10.7a21.19,21.19,0,0,0,8.3-15.6l3-66Z"/><path class="cls-11" d="M169.8,327.2h6.9a20.61,20.61,0,0,0,12.4-4.2l14.2-10.7a21.19,21.19,0,0,0,8.3-15.6l3-66H169.9"/><path class="cls-9" d="M190.5,208l3.2,22.8c14.7,2.9,16.8,26.1,17.2,32.6a6.85,6.85,0,0,0,1.1,3.4l5.6,8.7s-1.9-14.4,6.9-24.1C224.4,251.4,227.5,194.2,190.5,208Z"/><path class="cls-11" d="M221,274l-3.9,15.6a4,4,0,0,1-4,3.1h0a4.11,4.11,0,0,1-4.1-3.6l-2-15.9a7.18,7.18,0,0,1,7.1-8h0A7.14,7.14,0,0,1,221,274Z"/><path class="cls-8" d="M128.2,201.8l5.1,3.5c-23,17-18.7,46.2-18.7,46.2,6.9,6.9,6.9,24.1,6.9,24.1l6.9-6.9s-2.6-19.9,10.3-27.5c12-7.1,22.6-3.5,33.4-3.5,28.8,0,36.9-10.9,35.5-24.1-.7-6.9-11.2-21.1-37.8-20.7C158.8,193.1,138.6,196.3,128.2,201.8Z"/><path class="cls-8" d="M128.2,201.8l5.1,3.5c-23,17-18.7,46.2-18.7,46.2,6.9,6.9,6.9,24.1,6.9,24.1l6.9-6.9s-2.6-19.9,10.3-27.5c11.3-6.7,21.2-3.9,31.2-3.5"/><path class="cls-9" d="M169.8,237.6c.7,0,1.4.1,2.1.1,28.8,0,36.9-10.9,35.5-24.1-.7-6.9-11.2-21.1-37.8-20.7"/><path class="cls-10" d="M118.2,274l3.9,15.6a4,4,0,0,0,4,3.1h0a4.11,4.11,0,0,0,4.1-3.6l2-15.9a7.18,7.18,0,0,0-7.1-8h0A7.14,7.14,0,0,0,118.2,274Z"/><path class="cls-13" d="M222.3,385.7H198.2a3.48,3.48,0,0,0-3.5,3.5v3.5h31v-3.5A3.28,3.28,0,0,0,222.3,385.7Z"/><path class="cls-16" d="M138.1,326.3l31.4,28.3A116.35,116.35,0,0,0,149.8,368a4.48,4.48,0,0,1-6.9-1.5L128.1,334l4.7-7A3.64,3.64,0,0,1,138.1,326.3Z"/><path class="cls-13" d="M201.1,326.3l-31.5,28.3A116.35,116.35,0,0,1,189.3,368a4.48,4.48,0,0,0,6.9-1.5L211,334l-4.7-7A3.54,3.54,0,0,0,201.1,326.3Z"/><polygon class="cls-6" points="327.9 322 327.9 293 255.2 293 255.2 322 290.6 355.2 327.9 322"/><polyline class="cls-5" points="290.9 352.6 328.2 319.4 328.2 290.4 290.9 290.4"/><path class="cls-14" d="M385.6,335.6l-51.3-12.1a14.27,14.27,0,0,1-2.2-.8l-41.6,24.2-38-25.5a7.37,7.37,0,0,1-3.8,2l-51.3,12.1a16.65,16.65,0,0,0-12.8,16.1v32.5a8.28,8.28,0,0,0,8.3,8.3H390a8.28,8.28,0,0,0,8.3-8.3V351.7A16.46,16.46,0,0,0,385.6,335.6Z"/><path class="cls-9" d="M290.9,392.5h99.2a8.28,8.28,0,0,0,8.3-8.3V351.7a16.57,16.57,0,0,0-12.8-16.1l-51.3-12.1a14.27,14.27,0,0,1-2.2-.8l-41.6,24.2"/><path class="cls-8" d="M293,345.9l-38.8-26a8.68,8.68,0,0,1-3.9,2.1l-52.5,12.3a17.1,17.1,0,0,0-13.1,16.5V384a8.49,8.49,0,0,0,8.5,8.5h100"/><path class="cls-15" d="M238.7,197.6l3.6,79.5a24.48,24.48,0,0,0,10,18.7l17.1,12.9c4.3,3.2,7.6,5,13,5H299a25.49,25.49,0,0,0,15-5l17.1-12.9a25.27,25.27,0,0,0,10-18.7l3.6-79.5Z"/><path class="cls-10" d="M239,197.6l3.6,79.5a24.48,24.48,0,0,0,10,18.7l17.1,12.9c4.3,3.2,7.6,5,13,5h16.6a25.49,25.49,0,0,0,15-5l17.1-12.9a25.27,25.27,0,0,0,10-18.7l3.6-79.5Z"/><path class="cls-11" d="M290.9,313.8h8.3a25.49,25.49,0,0,0,15-5l17.1-12.9a25.27,25.27,0,0,0,10-18.7l3.6-79.5H291"/><path class="cls-3" d="M315.7,170.1l3.9,27.5c17.7,3.5,20.3,31.4,20.7,39.3a8.28,8.28,0,0,0,1.3,4.1l6.8,10.5s-2.3-17.4,8.3-29C356.7,222.5,360.3,153.6,315.7,170.1Z"/><path class="cls-11" d="M352.5,249.8l-4.7,18.7a5,5,0,0,1-4.9,3.8h0a5,5,0,0,1-4.9-4.4l-2.4-19.1a8.62,8.62,0,0,1,8.6-9.6h0A8.46,8.46,0,0,1,352.5,249.8Z"/><path class="cls-4" d="M242.7,162.7l6.2,4.2c-27.8,20.4-22.5,55.6-22.5,55.6,8.3,8.3,8.3,29,8.3,29l8.3-8.3s-3.2-24,12.4-33.2c14.5-8.6,25.2-4.2,38.2-4.2,34.7,0,44.4-13.1,42.7-29-.8-8.3-13.5-25.5-45.6-24.9C277.6,152.3,255.2,156.1,242.7,162.7Z"/><path class="cls-4" d="M242.7,162.7l6.2,4.2c-27.8,20.4-22.5,55.6-22.5,55.6,8.3,8.3,8.3,29,8.3,29l8.3-8.3s-3.2-24,12.4-33.2c13.6-8,23.5-4.7,35.6-4.2"/><path class="cls-3" d="M290.9,205.9c.8,0,1.7.1,2.5.1,34.7,0,44.4-13.1,42.7-29-.8-8.3-13.5-25.5-45.6-24.9"/><path class="cls-13" d="M344.5,384.3h-29a4.23,4.23,0,0,0-4.2,4.2v4.2h37.3v-4.2A4,4,0,0,0,344.5,384.3Z"/><path class="cls-10" d="M231.7,249.4l4.7,18.9a4.94,4.94,0,0,0,4.9,3.8h0a5,5,0,0,0,5-4.4l2.4-19.3a8.7,8.7,0,0,0-8.6-9.7h0A8.68,8.68,0,0,0,231.7,249.4Z"/><path class="cls-9" d="M301,346.9H280.3v7.8a4.65,4.65,0,0,0,4.6,4.6h11.5a4.65,4.65,0,0,0,4.6-4.6v-7.8Z"/><path class="cls-8" d="M293,345.9H282.4v8a4.69,4.69,0,0,0,4.7,4.7h5.8"/><path class="cls-16" d="M256.3,311,293,345.9a135.31,135.31,0,0,0-24.2,16.6c-2.8,2.3-4.9,1.3-6.4-1.9l-18.2-40.1,5.8-8.7A4.21,4.21,0,0,1,256.3,311Z"/><path class="cls-13" d="M328.5,312.8l-37.9,34.1a137.88,137.88,0,0,1,23.7,16.2,5.41,5.41,0,0,0,8.3-1.9L340.4,322l-5.6-8.5A4.3,4.3,0,0,0,328.5,312.8Z"/><path class="cls-17" d="M18.4,115.3h85.5a3.22,3.22,0,0,1,3.2,3.2V177a3.22,3.22,0,0,1-3.2,3.2H57.1a1.32,1.32,0,0,0-1.3,1.3v7.7a1.92,1.92,0,0,1-3.2,1.4l-9.9-9.9a1.27,1.27,0,0,0-.9-.4H18.4a3.22,3.22,0,0,1-3.2-3.2V118.6A3.31,3.31,0,0,1,18.4,115.3Z"/><path class="cls-17" d="M60.4,115.3H104a3.22,3.22,0,0,1,3.2,3.2V177a3.22,3.22,0,0,1-3.2,3.2H60.4"/><path class="cls-18" d="M60.4,180.3H57.2a1.32,1.32,0,0,0-1.3,1.3v7.7a1.92,1.92,0,0,1-3.2,1.4l-9.9-9.9a1.27,1.27,0,0,0-.9-.4H18.4a3.22,3.22,0,0,1-3.2-3.2V118.6a3.22,3.22,0,0,1,3.2-3.2H60.3"/><circle class="cls-7" cx="35.8" cy="147.9" r="5.7"/><circle class="cls-16" cx="60.4" cy="147.9" r="5.7"/><path class="cls-7" d="M60.4,153.7a5.7,5.7,0,0,1-5.7-5.7,5.63,5.63,0,0,1,5.7-5.7"/><path class="cls-1" d="M60.4,142.3a5.7,5.7,0,0,1,5.7,5.7,5.63,5.63,0,0,1-5.7,5.7"/><circle class="cls-1" cx="86.6" cy="147.9" r="5.7"/><line class="cls-12" x1="104.3" y1="179.3" x2="89.9" y2="179.3"/><line class="cls-12" x1="103.3" y1="179.3" x2="87.9" y2="179.3"/><path class="cls-17" d="M120.2,60.7h99.4a3.8,3.8,0,0,1,3.8,3.8v68a3.8,3.8,0,0,1-3.8,3.8H165.1a1.54,1.54,0,0,0-1.5,1.5v8.8a2.23,2.23,0,0,1-3.8,1.6l-11.6-11.6a1.5,1.5,0,0,0-1.1-.4h-27a3.8,3.8,0,0,1-3.8-3.8v-68A3.94,3.94,0,0,1,120.2,60.7Z"/><path class="cls-19" d="M169,60.7h50.7a3.8,3.8,0,0,1,3.8,3.8v68a3.8,3.8,0,0,1-3.8,3.8H169"/><path class="cls-20" d="M169,136.2h-3.8a1.54,1.54,0,0,0-1.5,1.5v8.8a2.23,2.23,0,0,1-3.8,1.6l-11.6-11.5a1.5,1.5,0,0,0-1.1-.4h-27a3.8,3.8,0,0,1-3.8-3.8V64.5a3.8,3.8,0,0,1,3.8-3.8H169"/><circle class="cls-7" cx="140.5" cy="98.6" r="6.6"/><circle class="cls-16" cx="169" cy="98.6" r="6.6"/><path class="cls-7" d="M169,105.2A6.6,6.6,0,1,1,169,92"/><path class="cls-1" d="M169,91.9a6.6,6.6,0,0,1,0,13.2"/><circle class="cls-1" cx="199.5" cy="98.5" r="6.6"/><line class="cls-12" x1="229.4" y1="99.8" x2="211.7" y2="99.8"/><line class="cls-12" x1="229.4" y1="99.8" x2="210.6" y2="99.8"/><path class="cls-17" d="M236.3,0H348.8a4.33,4.33,0,0,1,4.3,4.3V81.2a4.33,4.33,0,0,1-4.3,4.3H287.2a1.69,1.69,0,0,0-1.7,1.7v10a2.55,2.55,0,0,1-4.3,1.8L268.1,86a1.46,1.46,0,0,0-1.2-.5H236.3a4.33,4.33,0,0,1-4.3-4.3V4.3A4.4,4.4,0,0,1,236.3,0Z"/><path class="cls-21" d="M291.4.1h57.4a4.33,4.33,0,0,1,4.3,4.3V81.3a4.33,4.33,0,0,1-4.3,4.3H291.4"/><path class="cls-22" d="M291.4,85.5h-4.3a1.69,1.69,0,0,0-1.7,1.7v10a2.55,2.55,0,0,1-4.3,1.8l-13-13a1.46,1.46,0,0,0-1.2-.5H236.3a4.33,4.33,0,0,1-4.3-4.3V4.3A4.33,4.33,0,0,1,236.3,0h55.1"/><circle class="cls-7" cx="259.2" cy="42.9" r="7.5"/><circle class="cls-16" cx="291.4" cy="42.9" r="7.5"/><path class="cls-7" d="M291.4,50.4a7.5,7.5,0,0,1,0-15"/><path class="cls-1" d="M291.4,35.4a7.5,7.5,0,0,1,0,15"/><circle class="cls-1" cx="325.9" cy="42.8" r="7.5"/><line class="cls-12" x1="354.1" y1="42.9" x2="334.2" y2="42.9"/><line class="cls-12" x1="354.1" y1="42.9" x2="332.9" y2="42.9"/><path class="cls-7" d="M60.4,392.5H5.9A5.85,5.85,0,0,1,0,386.6v-15H60.4Z"/></g></g></svg>