<?xml version="1.0" encoding="utf-8"?>
<!-- Generator: Adobe Illustrator 22.0.1, SVG Export Plug-In . SVG Version: 6.00 Build 0)  -->
<svg version="1.1" id="Слой_1" xmlns="http://www.w3.org/2000/svg" xmlns:xlink="http://www.w3.org/1999/xlink" x="0px" y="0px"
	 viewBox="0 0 398.9 400" style="enable-background:new 0 0 398.9 400;" xml:space="preserve">
<style type="text/css">
	.st0{fill:#C3E678;}
	.st1{fill:#009082;}
	.st2{fill:#00B8A1;}
	.st3{fill:#FF6464;}
	.st4{fill:#FDA23E;}
	.st5{fill:#FFAB42;}
	.st6{fill:#FFFFFF;}
	.st7{fill:#D7E2E5;}
	.st8{fill:#C3D3D6;}
</style>
<path class="st0" d="M146,183.8h243.6c5.2,0,9.3,4.2,9.3,9.3v166.5c0,5.2-4.2,9.3-9.3,9.3H256.1c-2,0-3.7,1.7-3.7,3.7v21.7
	c0,4.8-5.9,7.3-9.3,3.8L214.9,370c-0.7-0.7-1.6-1.1-2.6-1.1H146c-5.2,0-9.3-4.2-9.3-9.3V193.1C136.7,187.9,140.8,183.8,146,183.8z"
	/>
<path class="st1" d="M265.3,183.8h124.2c5.2,0,9.3,4.2,9.3,9.3v166.5c0,5.2-4.2,9.3-9.3,9.3H265.3"/>
<path class="st2" d="M265.3,368.9h-9.3c-2,0-3.7,1.7-3.7,3.7v21.7c0,4.8-5.9,7.3-9.3,3.8L214.9,370c-0.7-0.7-1.6-1.1-2.6-1.1H146
	c-5.2,0-9.3-4.2-9.3-9.3V193.1c0-5.2,4.2-9.3,9.3-9.3h119.3"/>
<path class="st3" d="M118,0C52.8,0,0,52.8,0,118c0,57.1,40.5,104.7,94.4,115.6l35.5,35.5c3.3,3.3,8.9,1,8.9-3.7V234
	c55.2-9.8,97.2-58,97.2-116C236,52.8,183.1,0,118,0"/>
<path class="st4" d="M117.9,257.1l11.9,11.9c3.3,3.3,8.9,1,8.9-3.7v-31.4c55.2-9.8,97.2-58,97.2-116c0-65.2-52.8-118-118-118"/>
<path class="st5" d="M118,0C52.8,0,0,52.8,0,118c0,57.1,40.5,104.7,94.4,115.6l23.6,23.6"/>
<path class="st6" d="M118,155.5l3.8,0c1.8,0,3.3-1.4,3.3-3.2c0.2-5.4,1-9.7,2.3-12.7c1.6-3.6,5.1-8,10.4-13.2
	c7.4-7.1,12.2-12.5,14.7-16.2c2.4-3.7,3.6-8.5,3.6-14.4c0-9.7-3.3-17.7-9.9-24c-6.6-6.3-15.4-9.4-26.4-9.4c-11.9,0-21.2,3.7-28,11
	C85.7,80,82.4,88.6,81.8,99c-0.1,1.9,1.4,3.5,3.3,3.5l8.3,0c1.7,0,3.2-1.4,3.3-3.1c0.5-5.7,1.5-10.3,3.2-13.5
	c3.6-6.9,10-10.4,19.3-10.4c7.5,0,12.9,2,16.2,6c3.3,4,4.9,8.7,4.9,14.2c0,3.9-1.1,7.7-3.3,11.3c-1.2,2.1-2.8,4-4.8,5.9l-6.7,6.6
	c-6.4,6.3-10.5,11.9-12.4,16.8c-1.6,4.1-2.5,9.4-2.8,15.8c-0.1,1.9,1.5,3.4,3.3,3.4H118"/>
<path class="st7" d="M117.9,127.9c-2.3,3-3.9,5.8-4.9,8.3c-1.6,4.1-2.5,9.4-2.8,15.8c-0.1,1.9,1.5,3.4,3.3,3.4h4.4"/>
<path class="st8" d="M118,155.5l3.8,0c1.8,0,3.3-1.4,3.3-3.2c0.2-5.4,1-9.7,2.3-12.7c1.6-3.6,5.1-8,10.4-13.2
	c7.4-7.1,12.2-12.5,14.7-16.2c2.4-3.7,3.6-8.5,3.6-14.4c0-9.7-3.3-17.7-9.9-24c-6.6-6.3-15.4-9.4-26.4-9.4c-11.9,0-21.2,3.7-28,11
	C85.7,80,82.4,88.6,81.8,99c-0.1,1.9,1.4,3.5,3.3,3.5l8.3,0c1.7,0,3.2-1.4,3.3-3.1c0.5-5.7,1.5-10.3,3.2-13.5
	c3.6-6.9,10-10.4,19.3-10.4c7.5,0,12.9,2,16.2,6c3.3,4,4.9,8.7,4.9,14.2c0,3.9-1.1,7.7-3.3,11.3c-1.2,2.1-2.8,4-4.8,5.9l-6.7,6.6
	c-3,3-5.5,5.8-7.5,8.4"/>
<path class="st7" d="M118,62.5c-11,0.4-19.7,4-26.1,11c-6.1,6.6-9.5,15.1-10.1,25.5c-0.1,1.9,1.4,3.5,3.3,3.5l8.3,0
	c1.7,0,3.2-1.4,3.3-3.1c0.5-5.7,1.5-10.3,3.2-13.5c3.4-6.6,9.4-10,18-10.3"/>
<path class="st6" d="M113.1,169.4h10c1.8,0,3.3,1.5,3.3,3.3v10.7c0,1.8-1.5,3.3-3.3,3.3h-10c-1.8,0-3.3-1.5-3.3-3.3v-10.7
	C109.8,170.9,111.3,169.4,113.1,169.4z"/>
<path class="st8" d="M118,169.4h5.1c1.8,0,3.3,1.5,3.3,3.3v10.7c0,1.8-1.5,3.3-3.3,3.3h-5"/>
<path class="st7" d="M118.1,186.7h-5c-1.8,0-3.3-1.5-3.3-3.3v-10.7c0-1.8,1.5-3.3,3.3-3.3h4.9"/>
<g>
	<g id="done_1_">
		<path class="st6" d="M233.6,310.4l-33.8-33.8c-1.3-1.3-3.4-1.3-4.7,0l-8.1,8.1c-1.3,1.3-1.3,3.4,0,4.7l46.7,46.7
			c1.3,1.3,3.4,1.3,4.7,0l105.4-105.4c1.3-1.3,1.3-3.4,0-4.7l-8.1-8.1c-1.3-1.3-3.4-1.3-4.7,0l-92.6,92.6
			C237,311.7,234.9,311.7,233.6,310.4z"/>
	</g>
</g>
<g>
	<g id="done_2_">
		<path class="st8" d="M265.3,309.1l78.4-78.4c1.3-1.3,1.3-3.4,0-4.7l-8.1-8.1c-1.3-1.3-3.4-1.3-4.7,0l-65.6,65.6"/>
		<path class="st7" d="M265.3,283.4l-27,27c-1.3,1.3-3.4,1.3-4.7,0l-33.8-33.8c-1.3-1.3-3.4-1.3-4.7,0l-8.1,8.1
			c-1.3,1.3-1.3,3.4,0,4.7l46.7,46.7c1.3,1.3,3.4,1.3,4.7,0l27-27"/>
	</g>
</g>
</svg>
