<svg xmlns="http://www.w3.org/2000/svg" viewBox="0 0 144.08 132.84"><defs><style>.full-feature-cls-1{fill:#1d4048;}.full-feature-cls-2{fill:#d8e3e6;}.full-feature-cls-3{fill:#c9d4d7;}.full-feature-cls-4{fill:#18252b;}.full-feature-cls-12,.clsfeaturefull---13,.full-feature-cls-5,.full-feature-cls-6{fill:none;stroke-miterlimit:10;}.full-feature-cls-5{stroke:#008ad9;}.full-feature-cls-6{stroke:#f7333a;}.full-feature-cls-7{fill:#0096ea;}.full-feature-cls-8{fill:#fba03d;}.full-feature-cls-9{fill:#2b3a43;}.full-feature-cls-10{fill:#adadad;}.full-feature-cls-11{fill:#008ad9;}.full-feature-cls-12{stroke:#00393a;}.full-feature-cls-13{stroke:#00544f;}.full-feature-cls-14{fill:#c8d1d4;}.full-feature-cls-15{fill:#152024;}.full-feature-cls-16{fill:#1c292f;}.full-feature-cls-17{fill:#9e672d;}.full-feature-cls-18{fill:#d0ebfb;}.full-feature-cls-19{fill:#2e424a;}.full-feature-cls-20{fill:#8b979a;}.full-feature-cls-21{fill:#ffab42;}.full-feature-cls-22{fill:#fda23e;}.full-feature-cls-23{fill:#00b8a1;}.full-feature-cls-24{fill:#25363d;}.full-feature-cls-25{fill:#00a58d;}.full-feature-cls-26{fill:#17242a;}.full-feature-cls-27{fill:#0075ca;}.full-feature-cls-28{fill:#005d9a;}.full-feature-cls-29{fill:#004c7a;}.full-feature-cls-30{fill:#003b58;}.full-feature-cls-31{fill:#002e41;}.full-feature-cls-32{fill:#00bda6;}.full-feature-cls-33{fill:#009082;}.full-feature-cls-34{fill:#007269;}.full-feature-cls-35{fill:#003c3d;}.full-feature-cls-36{fill:#00393a;}</style></defs><title>Full-featured infrastructure 
out of the box
</title><g id="Слой_2" data-name="Слой 2"><g id="Слой_6" data-name="Слой 6"><rect class="full-feature-cls-1" x="54.34" y="0.11" width="57.97" height="84.58" rx="1.25" ry="1.25" transform="translate(-0.17 0.33) rotate(-0.23)"/><rect class="full-feature-cls-2" x="56.54" y="2.48" width="52.59" height="77.94" rx="0.75" ry="0.75" transform="translate(-0.17 0.33) rotate(-0.23)"/><path class="full-feature-cls-3" d="M84,2.55l24.12-.1a.76.76,0,0,1,.75.75l.31,76.44a.74.74,0,0,1-.75.75l-25.28.11"/><rect class="full-feature-cls-4" x="-0.77" y="43.55" width="104.02" height="39.84" rx="4.49" ry="4.49" transform="translate(46.81 144.91) rotate(-137.97)"/><polyline class="full-feature-cls-5" points="17.8 30.5 29.76 33.25 29.56 40.91 45.09 39.16 43.41 53.15 53.02 53.91 55.17 63.56 66.55 62.32 64.45 80.97 81.67 79.16 79.7 90.69 89.27 90.57"/><polyline class="full-feature-cls-6" points="8.33 41.2 20.91 45.36 23.53 51.74 37.91 52.71 41.41 64.16 50.99 66.29 56.61 74.7 67.16 75.45 71.96 90.72 87.96 91.9"/><path class="full-feature-cls-7" d="M69.06,79a1,1,0,0,1,1.46-.22l17.64,13a1.06,1.06,0,0,1,.22,1.47,1,1,0,0,1-1.46.22l-17.64-13A1,1,0,0,1,69.06,79Z"/><circle class="full-feature-cls-8" cx="66.95" cy="77.41" r="3.71"/><circle class="full-feature-cls-8" cx="52.85" cy="53.85" r="1.32"/><rect class="full-feature-cls-1" x="81.24" y="33" width="45.2" height="89.1" rx="1.25" ry="1.25" transform="translate(-10.38 16.3) rotate(-8.55)"/><path class="full-feature-cls-9" d="M98.32,33.33l20.14-3a1.24,1.24,0,0,1,1.42,1.05l12.86,85.53a1.25,1.25,0,0,1-1.05,1.42l-20.84,3.13"/><rect class="full-feature-cls-7" x="82.32" y="35.45" width="40.43" height="65.17" rx="0.75" ry="0.75" transform="translate(-8.98 16) rotate(-8.55)"/><path class="full-feature-cls-2" d="M47.26,45.87l-13,7-22,11.87a4.48,4.48,0,0,0-1.82,6.1l.71,1.32,15.42,21,9,24.24.71,1.32a4.49,4.49,0,0,0,6.1,1.83l.26-.15,34.76-18.75a4.49,4.49,0,0,0,1.83-6.1l-.72-1.32L62.8,73.62,54.06,49l-.71-1.32A4.47,4.47,0,0,0,47.26,45.87Z"/><path class="full-feature-cls-10" d="M56.42,113l2.28-1.24"/><rect class="full-feature-cls-4" x="20.4" y="57.52" width="48.8" height="51.4" transform="translate(-34.15 31.25) rotate(-28.35)"/><rect class="full-feature-cls-11" x="18.17" y="72" width="7.1" height="2.8" transform="translate(-32.25 19.12) rotate(-28.35)"/><rect class="full-feature-cls-12" x="52.05" y="73.16" width="13" height="13" transform="translate(-30.8 37.36) rotate(-28.35)"/><rect class="full-feature-cls-13" x="23.42" y="76.4" width="16.1" height="11.2" transform="matrix(0.88, -0.47, 0.47, 0.88, -35.17, 24.78)"/><rect class="full-feature-cls-13" x="32.14" y="88.74" width="16.1" height="18.86" transform="translate(-41.8 30.86) rotate(-28.35)"/><path class="full-feature-cls-14" d="M30.27,55l17.16-9.26a4.36,4.36,0,0,1,5.92,1.69L79.27,95.52a4.35,4.35,0,0,1-1.83,5.88l-17.16,9.26"/><rect class="full-feature-cls-15" x="43.9" y="51.58" width="23.8" height="51.4" transform="translate(-30.01 35.77) rotate(-28.35)"/><rect class="full-feature-cls-14" x="65.78" y="45.76" width="0.5" height="51.9" transform="translate(-26.13 39.95) rotate(-28.35)"/><rect class="full-feature-cls-14" x="23.39" y="68.93" width="0.5" height="51.9" transform="translate(-42.22 22.6) rotate(-28.35)"/><circle class="full-feature-cls-16" cx="58.86" cy="108.02" r="1.3"/><circle class="full-feature-cls-17" cx="47.44" cy="60.54" r="0.9"/><circle class="full-feature-cls-17" cx="50.61" cy="58.83" r="0.9"/><circle class="full-feature-cls-17" cx="53.52" cy="57.27" r="0.9"/><rect class="full-feature-cls-12" x="49.29" y="63.98" width="16" height="33.4" transform="translate(-31.44 36.88) rotate(-28.35)"/><path class="full-feature-cls-11" d="M98.63,35.67l18.31-2.75a.75.75,0,0,1,.85.63l9.47,63a.75.75,0,0,1-.63.85L107,100.32"/><path class="full-feature-cls-3" d="M100.85,53.33l5.14-.77a.72.72,0,0,0,.6-.82l-.1-.71A3.84,3.84,0,0,0,104,49.22l-.71.11a1.44,1.44,0,0,1-1.64-1.21l-.07-.45a3.61,3.61,0,0,0,.49-1.39c0-.08.07-.13.11-.19a.89.89,0,0,0,0-1.08.28.28,0,0,1-.1-.14c-.06-.42-.12-.83-.19-1.25a2.12,2.12,0,0,0-.72-1.32,1.93,1.93,0,0,0-1.16-.39,4.75,4.75,0,0,0-.65,0"/><path class="full-feature-cls-18" d="M99.37,41.93a4,4,0,0,0-.89.24,1.93,1.93,0,0,0-1,.92,2.22,2.22,0,0,0-.17,1.17c.06.43.13.85.19,1.28,0,.08,0,.15-.06.22a.89.89,0,0,0,.36,1.05c.09,0,.12.14.16.22a3.44,3.44,0,0,0,.81,1l.07.47a1.43,1.43,0,0,1-1.21,1.63l-.71.11a3.86,3.86,0,0,0-1.81,2.45l.11.71a.72.72,0,0,0,.82.61l4.8-.73"/><rect class="full-feature-cls-9" x="87.69" y="58.76" width="28.35" height="0.93" transform="translate(-7.67 15.81) rotate(-8.55)"/><rect class="full-feature-cls-9" x="88.01" y="60.87" width="28.35" height="0.93" transform="translate(-7.98 15.88) rotate(-8.55)"/><rect class="full-feature-cls-9" x="88.25" y="62.91" width="28.35" height="0.93" transform="translate(-8.29 15.93) rotate(-8.55)"/><rect class="full-feature-cls-9" x="88.57" y="65.02" width="28.35" height="0.93" transform="translate(-8.6 16.01) rotate(-8.55)"/><rect class="full-feature-cls-9" x="63.93" y="21.85" width="39.23" height="4.22" transform="translate(-0.1 0.34) rotate(-0.23)"/><rect class="full-feature-cls-9" x="63.92" y="27.42" width="39.23" height="1.69" transform="translate(-0.11 0.34) rotate(-0.23)"/><rect class="full-feature-cls-4" x="83.78" y="27.41" width="19.53" height="1.66" transform="translate(-0.11 0.38) rotate(-0.23)"/><rect class="full-feature-cls-4" x="83.86" y="21.82" width="19.32" height="4.22" transform="translate(-0.1 0.38) rotate(-0.23)"/><rect class="full-feature-cls-19" x="6.93" y="73.51" width="130.41" height="59.33" rx="1.36" ry="1.36"/><path class="full-feature-cls-9" d="M72.34,73.51H136A1.43,1.43,0,0,1,137.34,75v56.35a1.43,1.43,0,0,1-1.36,1.49H72.34"/><path class="full-feature-cls-20" d="M84.2,6.62H84a4.13,4.13,0,0,0-2.84,1,4.17,4.17,0,0,0-1.53,2.6,5.12,5.12,0,0,0,0,.7q0,.38,0,.84c0,.3,0,.54,0,.69H78.38a.17.17,0,0,0-.14.05.33.33,0,0,0,0,.18V20a.18.18,0,0,0,.15.15.89.89,0,0,0,.29,0,1.1,1.1,0,0,1,.26,0H89.75A.22.22,0,0,0,89.9,20a1.21,1.21,0,0,0,0-.28,1,1,0,0,1,0-.25V12.81c0-.14,0-.23,0-.26a.45.45,0,0,0-.24,0h-.94V11.36s0-.18,0-.55a2,2,0,0,0-.07-.6,2.1,2.1,0,0,1-.13-.53c-.06-.33-.13-.51-.22-.54a4.28,4.28,0,0,0-1.65-1.83,4.48,4.48,0,0,0-2.39-.69m-.13,7.8h.07a1,1,0,0,1,.76.37,1.16,1.16,0,0,1,.4.88,1.18,1.18,0,0,1-.2.65,1.26,1.26,0,0,1-.51.44.49.49,0,0,0,0,.12l.31,1.51H83.14L83.45,17a1,1,0,0,0,0-.23,1.18,1.18,0,0,1-.64-1.06A1.16,1.16,0,0,1,83,15a1,1,0,0,1,.31-.36,1.17,1.17,0,0,1,.74-.26m0-2H81c0-.14,0-.37,0-.7s0-.57,0-.76a3.12,3.12,0,0,1,.1-.66,3,3,0,0,1,.26-.69A2.88,2.88,0,0,1,84,8.11l.23,0a3.11,3.11,0,0,1,1.59.43,2.66,2.66,0,0,1,1.11,1.19,2.37,2.37,0,0,1,.23.68,3.58,3.58,0,0,1,.09.65v.73c0,.31,0,.53,0,.69H84.07"/><circle class="full-feature-cls-8" cx="83.87" cy="24.03" r="1.25"/><path class="full-feature-cls-21" d="M83.87,25.28a1.25,1.25,0,0,1,0-2.5"/><circle class="full-feature-cls-22" cx="88.81" cy="24.03" r="1.25"/><circle class="full-feature-cls-21" cx="78.92" cy="24.03" r="1.25"/><circle class="full-feature-cls-21" cx="73.98" cy="24.03" r="1.25"/><circle class="full-feature-cls-21" cx="69.04" cy="24.03" r="1.25"/><circle class="full-feature-cls-22" cx="98.69" cy="24.03" r="1.25"/><circle class="full-feature-cls-22" cx="93.75" cy="24.03" r="1.25"/><rect class="full-feature-cls-7" x="75.39" y="80.44" width="5.61" height="18.45"/><rect class="full-feature-cls-15" x="76.37" y="82.21" width="3.64" height="15.58"/><rect class="full-feature-cls-23" x="82.52" y="80.44" width="5.61" height="18.45"/><rect class="full-feature-cls-15" x="83.52" y="81.79" width="3.64" height="15.58"/><rect class="full-feature-cls-7" x="89.61" y="80.44" width="5.61" height="18.45"/><rect class="full-feature-cls-15" x="90.6" y="82.21" width="3.64" height="15.58"/><rect class="full-feature-cls-23" x="96.74" y="80.44" width="5.61" height="18.45"/><rect class="full-feature-cls-15" x="97.75" y="81.79" width="3.64" height="15.58"/><rect class="full-feature-cls-7" x="104.2" y="80.44" width="5.61" height="18.45"/><rect class="full-feature-cls-15" x="105.19" y="82.21" width="3.64" height="15.58"/><rect class="full-feature-cls-23" x="111.33" y="80.38" width="5.61" height="18.45"/><rect class="full-feature-cls-15" x="112.34" y="81.79" width="3.64" height="15.58"/><rect class="full-feature-cls-7" x="118.43" y="80.38" width="5.61" height="18.45"/><rect class="full-feature-cls-15" x="119.41" y="82.15" width="3.64" height="15.58"/><rect class="full-feature-cls-23" x="125.56" y="80.38" width="5.61" height="18.45"/><rect class="full-feature-cls-15" x="126.56" y="81.73" width="3.64" height="15.58"/><path class="full-feature-cls-23" d="M20.91,86.79H44a1.91,1.91,0,0,1,1.92,1.92v23.11A1.92,1.92,0,0,1,44,113.74H20.91A1.92,1.92,0,0,1,19,111.82V88.71A1.91,1.91,0,0,1,20.91,86.79Z"/><rect class="full-feature-cls-24" x="27.43" y="95.22" width="10.08" height="10.08"/><path class="full-feature-cls-25" d="M23.8,89a.58.58,0,0,1-.58-.58V81a.58.58,0,1,1,1.15,0v7.35A.58.58,0,0,1,23.8,89Z"/><path class="full-feature-cls-25" d="M28.17,89a.58.58,0,0,1-.58-.58V81a.58.58,0,0,1,1.16,0v7.35A.58.58,0,0,1,28.17,89Z"/><path class="full-feature-cls-25" d="M32.54,89a.57.57,0,0,1-.57-.58V81a.57.57,0,0,1,.57-.58.58.58,0,0,1,.58.58v7.35A.58.58,0,0,1,32.54,89Z"/><path class="full-feature-cls-25" d="M36.92,89a.58.58,0,0,1-.58-.58V81a.58.58,0,0,1,.58-.58.57.57,0,0,1,.57.58v7.35A.57.57,0,0,1,36.92,89Z"/><path class="full-feature-cls-25" d="M41.29,89a.58.58,0,0,1-.58-.58V81a.58.58,0,1,1,1.16,0v7.35A.58.58,0,0,1,41.29,89Z"/><path class="full-feature-cls-25" d="M23.8,119.89a.58.58,0,0,1-.58-.58V112a.58.58,0,0,1,1.15,0v7.36A.58.58,0,0,1,23.8,119.89Z"/><path class="full-feature-cls-25" d="M28.17,119.89a.58.58,0,0,1-.58-.58V112a.58.58,0,0,1,1.16,0v7.36A.58.58,0,0,1,28.17,119.89Z"/><path class="full-feature-cls-25" d="M32.54,119.89a.57.57,0,0,1-.57-.58V112a.57.57,0,0,1,.57-.57.58.58,0,0,1,.58.57v7.36A.58.58,0,0,1,32.54,119.89Z"/><path class="full-feature-cls-25" d="M36.92,119.89a.58.58,0,0,1-.58-.58V112a.58.58,0,0,1,.58-.57.57.57,0,0,1,.57.57v7.36A.57.57,0,0,1,36.92,119.89Z"/><path class="full-feature-cls-25" d="M41.29,119.89a.58.58,0,0,1-.58-.58V112a.58.58,0,0,1,1.16,0v7.36A.58.58,0,0,1,41.29,119.89Z"/><path class="full-feature-cls-25" d="M51.69,92H44.33a.56.56,0,0,1-.57-.57.57.57,0,0,1,.57-.58h7.36a.57.57,0,0,1,.57.58A.56.56,0,0,1,51.69,92Z"/><path class="full-feature-cls-25" d="M51.69,96.37H44.33a.58.58,0,0,1,0-1.16h7.36a.58.58,0,0,1,0,1.16Z"/><path class="full-feature-cls-25" d="M51.69,100.74H44.33a.58.58,0,0,1,0-1.15h7.36a.58.58,0,0,1,0,1.15Z"/><path class="full-feature-cls-25" d="M51.69,105.12H44.33a.58.58,0,0,1,0-1.16h7.36a.58.58,0,0,1,0,1.16Z"/><path class="full-feature-cls-25" d="M51.69,109.49H44.33a.58.58,0,0,1,0-1.16h7.36a.58.58,0,0,1,0,1.16Z"/><path class="full-feature-cls-25" d="M20.75,92H13.4a.57.57,0,0,1-.58-.57.58.58,0,0,1,.58-.58h7.35a.58.58,0,0,1,.58.58A.57.57,0,0,1,20.75,92Z"/><path class="full-feature-cls-25" d="M20.75,96.37H13.4a.58.58,0,0,1,0-1.16h7.35a.58.58,0,1,1,0,1.16Z"/><path class="full-feature-cls-25" d="M20.75,100.74H13.4a.58.58,0,1,1,0-1.15h7.35a.58.58,0,1,1,0,1.15Z"/><path class="full-feature-cls-25" d="M20.75,105.12H13.4a.58.58,0,0,1,0-1.16h7.35a.58.58,0,1,1,0,1.16Z"/><path class="full-feature-cls-25" d="M20.75,109.49H13.4a.58.58,0,0,1,0-1.16h7.35a.58.58,0,0,1,0,1.16Z"/><rect class="full-feature-cls-26" x="75.23" y="100.33" width="55.94" height="28.97"/><rect class="full-feature-cls-27" x="79.96" y="102.67" width="8.67" height="1.36"/><rect class="full-feature-cls-28" x="79.96" y="105.54" width="8.67" height="1.36"/><rect class="full-feature-cls-29" x="79.96" y="108.23" width="8.67" height="1.36"/><rect class="full-feature-cls-30" x="79.96" y="111.17" width="8.67" height="1.36"/><rect class="full-feature-cls-30" x="79.96" y="114.03" width="8.67" height="1.36"/><rect class="full-feature-cls-31" x="79.96" y="116.73" width="8.67" height="1.36"/><rect class="full-feature-cls-27" x="101.15" y="102.67" width="8.67" height="1.36"/><rect class="full-feature-cls-28" x="101.15" y="105.54" width="8.67" height="1.36"/><rect class="full-feature-cls-29" x="101.15" y="108.23" width="8.67" height="1.36"/><rect class="full-feature-cls-30" x="101.15" y="111.17" width="8.67" height="1.36"/><rect class="full-feature-cls-30" x="101.15" y="114.03" width="8.67" height="1.36"/><rect class="full-feature-cls-31" x="101.15" y="116.73" width="8.67" height="1.36"/><rect class="full-feature-cls-32" x="90.47" y="102.67" width="8.67" height="1.36"/><rect class="full-feature-cls-33" x="90.47" y="105.54" width="8.67" height="1.36"/><rect class="full-feature-cls-34" x="90.47" y="108.23" width="8.67" height="1.36"/><rect class="full-feature-cls-35" x="90.47" y="111.17" width="8.67" height="1.36"/><rect class="full-feature-cls-35" x="90.47" y="114.03" width="8.67" height="1.36"/><rect class="full-feature-cls-36" x="90.47" y="116.73" width="8.67" height="1.36"/><rect class="full-feature-cls-31" x="79.96" y="119.22" width="8.67" height="1.36"/><rect class="full-feature-cls-31" x="101.15" y="119.22" width="8.67" height="1.36"/><rect class="full-feature-cls-36" x="90.47" y="119.22" width="8.67" height="1.36"/><rect class="full-feature-cls-31" x="79.96" y="121.78" width="8.67" height="1.36"/><rect class="full-feature-cls-31" x="101.15" y="121.78" width="8.67" height="1.36"/><rect class="full-feature-cls-36" x="90.47" y="121.78" width="8.67" height="1.36"/><rect class="full-feature-cls-31" x="79.96" y="124.27" width="8.67" height="1.36"/><rect class="full-feature-cls-31" x="101.15" y="124.27" width="8.67" height="1.36"/><rect class="full-feature-cls-36" x="90.47" y="124.27" width="8.67" height="1.36"/><circle class="full-feature-cls-8" cx="114.63" cy="103.56" r="0.9"/><circle class="full-feature-cls-8" cx="120.95" cy="103.56" r="0.9"/><circle class="full-feature-cls-8" cx="127.29" cy="103.56" r="0.9"/><rect class="full-feature-cls-26" x="56.93" y="80.17" width="13" height="1.09"/><rect class="full-feature-cls-26" x="56.93" y="82.74" width="13" height="1.09"/><rect class="full-feature-cls-26" x="56.93" y="85.16" width="13" height="1.09"/><rect class="full-feature-cls-26" x="56.93" y="87.8" width="13" height="1.09"/><rect class="full-feature-cls-26" x="56.93" y="90.38" width="13" height="1.09"/><rect class="full-feature-cls-26" x="56.93" y="92.79" width="13" height="1.09"/><rect class="full-feature-cls-26" x="56.93" y="95.22" width="13" height="1.09"/><rect class="full-feature-cls-26" x="56.93" y="97.8" width="13" height="1.09"/><rect class="full-feature-cls-26" x="56.93" y="100.21" width="13" height="1.09"/><rect class="full-feature-cls-26" x="56.93" y="102.86" width="13" height="1.09"/><rect class="full-feature-cls-26" x="56.93" y="105.43" width="13" height="1.09"/><rect class="full-feature-cls-26" x="56.93" y="107.85" width="13" height="1.09"/><rect class="full-feature-cls-26" x="56.93" y="110.5" width="13" height="1.09"/><rect class="full-feature-cls-26" x="56.93" y="113.08" width="13" height="1.09"/><rect class="full-feature-cls-26" x="56.93" y="115.49" width="13" height="1.09"/><rect class="full-feature-cls-26" x="56.93" y="118.13" width="13" height="1.09"/><rect class="full-feature-cls-26" x="56.93" y="120.71" width="13" height="1.09"/><rect class="full-feature-cls-26" x="56.93" y="123.16" width="13" height="1.09"/><rect class="full-feature-cls-26" x="56.93" y="125.57" width="13" height="1.09"/><rect class="full-feature-cls-26" x="56.93" y="128.22" width="13" height="1.09"/><rect class="full-feature-cls-26" x="40.27" y="125.57" width="11.99" height="1.09"/><rect class="full-feature-cls-26" x="40.27" y="128.22" width="11.99" height="1.09"/><rect class="full-feature-cls-26" x="26.6" y="125.57" width="11.99" height="1.09"/><rect class="full-feature-cls-26" x="26.6" y="128.22" width="11.99" height="1.09"/><rect class="full-feature-cls-26" x="12.82" y="125.57" width="11.99" height="1.09"/><rect class="full-feature-cls-26" x="12.82" y="128.22" width="11.99" height="1.09"/><rect class="full-feature-cls-2" y="72.43" width="143.93" height="2.17" rx="1.08" ry="1.08"/><path class="full-feature-cls-14" d="M72.34,72.43H143a1.08,1.08,0,0,1,1.07,1.08h0A1.08,1.08,0,0,1,143,74.6H72.34"/><circle class="full-feature-cls-8" cx="66.45" cy="62.42" r="1.32"/><circle class="full-feature-cls-8" cx="45.1" cy="39.17" r="1.32"/><circle class="full-feature-cls-8" cx="29.77" cy="33.26" r="1.32"/></g></g></svg>