<svg xmlns="http://www.w3.org/2000/svg" viewBox="0 0 145.1 133.4"><defs><style>.cls-1{fill:#8b979a;}.cls-2{fill:#23343a;}.cls-3{fill:#152024;}.cls-4{fill:#d8e3e6;}.cls-5{fill:#adadad;}.cls-6{fill:#c8d1d4;}.cls-7{fill:#18252b;}.cls-10,.cls-8,.cls-9{fill:none;stroke-miterlimit:10;}.cls-8{stroke:#00544f;}.cls-9{stroke:#00393a;}.cls-10{stroke:#003b58;}.cls-11{fill:#008ad9;}.cls-12{fill:#1c292f;}.cls-13{fill:#1a272d;}.cls-14{fill:#9e672d;}</style></defs><title>icons_white-label</title><g id="Слой_2" data-name="Слой 2"><g id="Слой_1-2" data-name="Слой 1"><g id="Слой_1-3" data-name="Слой 1"><polygon class="cls-1" points="82.1 110.5 84.7 132 57.3 132 59.9 110.5 82.1 110.5"/><polygon class="cls-2" points="83.8 124.7 82.1 110.5 59.9 110.5 58.2 124.7 83.8 124.7"/><path class="cls-3" d="M71,33.3h58.5a3.69,3.69,0,0,1,3.7,3.7V96.8a3.69,3.69,0,0,1-3.7,3.7H71"/><path class="cls-4" d="M44.2,100H8.5v8.3a3.54,3.54,0,0,0,3.5,3.5H129.3a3.54,3.54,0,0,0,3.5-3.5V100Z"/><path class="cls-5" d="M71,100.4H44.5"/><path class="cls-6" d="M71,111.9h58.7a3.54,3.54,0,0,0,3.5-3.5V100H71"/><path class="cls-7" d="M129.4,100.3H12a3.54,3.54,0,0,1-3.5-3.5v-60A3.54,3.54,0,0,1,12,33.3H129.4a3.54,3.54,0,0,1,3.5,3.5V96.9A3.46,3.46,0,0,1,129.4,100.3Z"/><g id="Слой_3" data-name="Слой 3"><rect class="cls-8" x="20.3" y="51.1" width="48.6" height="14.1"/><rect class="cls-9" x="72.8" y="51.1" width="51.6" height="21.1"/><rect class="cls-9" x="73.1" y="75.7" width="23.1" height="17.4"/><rect class="cls-9" x="99.8" y="75.7" width="23.1" height="17.4"/><rect class="cls-10" x="20.3" y="68.2" width="20.1" height="24.9"/><rect class="cls-10" x="44.7" y="68.2" width="24.2" height="12.4"/><rect class="cls-10" x="44.7" y="83.4" width="24.2" height="9.7"/></g><path class="cls-6" d="M94.4,133.3H47.6a1.8,1.8,0,1,1,0-3.6H94.4a1.8,1.8,0,0,1,0,3.6Z"/><path class="cls-4" d="M140.5,70H100.7a4.48,4.48,0,0,0-4.5,4.5V76l3.6,25.8-3.6,25.6v1.5a4.48,4.48,0,0,0,4.5,4.5h39.8a4.48,4.48,0,0,0,4.5-4.5v-1.5l-4-25.6L145,76V74.5A4.48,4.48,0,0,0,140.5,70Z"/><path class="cls-5" d="M126.9,85h-1.3"/><path class="cls-5" d="M116.7,133.4h2.6"/><rect class="cls-7" x="96.2" y="76" width="48.8" height="51.4"/><rect class="cls-11" x="20.3" y="42.7" width="6.3" height="2.9"/><rect class="cls-11" x="101.4" y="80.7" width="7.1" height="2.8"/><rect class="cls-9" x="127.9" y="98.6" width="13" height="13"/><rect class="cls-8" x="101.4" y="88.7" width="16.1" height="11.2"/><path class="cls-4" d="M29.4,89.3v1.9L14.7,93.5,0,91.1V89.2a4.27,4.27,0,0,1,4.3-4.3H25A4.51,4.51,0,0,1,29.4,89.3Z"/><path class="cls-4" d="M14.7,122.9l14.7,3.5v2.1a4.27,4.27,0,0,1-4.3,4.3H4.3A4.27,4.27,0,0,1,0,128.5v-2Z"/><path class="cls-6" d="M14.7,85H24.9a4.48,4.48,0,0,1,4.5,4.5v39a4.48,4.48,0,0,1-4.5,4.5H14.7"/><path class="cls-12" d="M14.7,131.3A1.3,1.3,0,1,1,16,130,1.26,1.26,0,0,1,14.7,131.3Z"/><rect class="cls-13" y="91.1" width="29.4" height="35.3"/><path class="cls-6" d="M121.2,70h19.5a4.35,4.35,0,0,1,4.4,4.3v54.6a4.35,4.35,0,0,1-4.4,4.3H121.2"/><g id="Слой_4" data-name="Слой 4"><rect class="cls-3" x="121.2" y="76" width="23.8" height="51.4"/><rect class="cls-3" x="14.7" y="91.1" width="14.7" height="35.3"/><rect class="cls-4" y="90.9" width="0.5" height="35.6"/><rect class="cls-6" x="28.9" y="90.7" width="0.5" height="35.8"/><rect class="cls-4" x="96.2" y="75.7" width="0.5" height="51.9"/><rect class="cls-6" x="144.5" y="75.7" width="0.5" height="51.9"/></g><g id="Слой_2-2" data-name="Слой 2"><circle class="cls-12" cx="71" cy="106.7" r="2.1"/><circle class="cls-12" cx="121.2" cy="130.2" r="1.3"/><circle class="cls-14" cx="133.7" cy="83" r="0.9"/><circle class="cls-14" cx="137.3" cy="83" r="0.9"/><circle class="cls-14" cx="140.6" cy="83" r="0.9"/><circle class="cls-14" cx="116.6" cy="44.1" r="0.9"/><circle class="cls-14" cx="25.7" cy="95.3" r="0.6"/><circle class="cls-14" cx="23.7" cy="95.3" r="0.6"/><circle class="cls-14" cx="21.6" cy="95.3" r="0.6"/><circle class="cls-14" cx="120.2" cy="44.1" r="0.9"/><circle class="cls-14" cx="123.5" cy="44.1" r="0.9"/><rect class="cls-9" x="124.8" y="88.7" width="16" height="33.4"/><rect class="cls-8" x="3.4" y="100.7" width="8.6" height="22.2"/><rect class="cls-9" x="17.1" y="100.7" width="8.6" height="22.2"/><rect class="cls-11" x="3" y="93.8" width="7.1" height="2.8"/><path class="cls-1" d="M87.9,32.6a4.47,4.47,0,1,1,4,8l4.2,8.5L144.3,25,131.8,0,83.6,24.1l4.3,8.5"/><path class="cls-4" d="M100,25.4h0a.93.93,0,0,1,.4-1.2L129,9.9a.93.93,0,0,1,1.2.4h0a.93.93,0,0,1-.4,1.2L101.2,25.7A.86.86,0,0,1,100,25.4Z"/><path class="cls-4" d="M102.4,30.4h0a.93.93,0,0,1,.4-1.2L131.4,15a.93.93,0,0,1,1.2.4h0a.93.93,0,0,1-.4,1.2L103.6,30.8A1,1,0,0,1,102.4,30.4Z"/><path class="cls-4" d="M105.1,35.3h0a.93.93,0,0,1,.4-1.2l28.6-14.2a.93.93,0,0,1,1.2.4h0a.93.93,0,0,1-.4,1.2L106.3,35.7A.8.8,0,0,1,105.1,35.3Z"/></g><path class="cls-1" d="M83.7,24.2,77.5,42.9l18.7,6.2,6.2-18.7Zm4.8,16.7a4.49,4.49,0,1,1,5.7-2.8A4.43,4.43,0,0,1,88.5,40.9Z"/></g></g></g></svg>