<svg xmlns="http://www.w3.org/2000/svg" viewBox="0 0 79.8 79.8"><defs><style>.cls-1{fill:#0079e1;}</style></defs><title>Ресурс 1</title><g id="Слой_2" data-name="Слой 2"><g id="Слой_1-2" data-name="Слой 1"><path class="cls-1" d="M39.9,79.8A39.9,39.9,0,1,1,79.8,39.9,39.95,39.95,0,0,1,39.9,79.8Zm0-77.4A37.5,37.5,0,1,0,77.4,39.9,37.51,37.51,0,0,0,39.9,2.4Z"/><path class="cls-1" d="M39.9,79.8a39.94,39.94,0,0,1-23.1-7.4,1.07,1.07,0,0,1-.5-1.1,1.59,1.59,0,0,1,.8-1c10-3.7,11.6-6.7,11.6-12.5a3.8,3.8,0,0,0-1-2.9c-.8-1.2-1.9-2.8-2.7-7.1-.1-.6-.2-.7-.8-.9-1.5-.7-2.8-1.7-3.2-6.4a5.69,5.69,0,0,1,1.4-4.1c-.1-.8-.4-2.2-.6-3.7-1.1-6.7-1.1-14.9,8.3-18.8,8.2-3.3,14.8-1.5,16.9.7a10.32,10.32,0,0,1,7.8,3.5c4,4.7,2.7,15.4,2.3,18.3a5.59,5.59,0,0,1,1.4,4c-.4,4.7-1.7,5.7-3.2,6.4-.6.3-.7.3-.8.9-.8,4.3-1.9,5.9-2.7,7.1a4.22,4.22,0,0,0-1,2.9c0,5.8,1.6,8.8,11.6,12.5a1.37,1.37,0,0,1,.8,1,1,1,0,0,1-.5,1.1A37.78,37.78,0,0,1,39.9,79.8ZM20.1,71.7a37.24,37.24,0,0,0,39.6,0c-8.4-3.4-11-6.9-11-13.9a6.41,6.41,0,0,1,1.4-4.3,14.45,14.45,0,0,0,2.3-6.2,3.44,3.44,0,0,1,2.1-2.7c.8-.4,1.5-.7,1.8-4.4a2.71,2.71,0,0,0-.9-2.4,1.37,1.37,0,0,1-.6-1.3c.6-3.2,1.6-13.2-1.6-17-2.2-2.6-5.7-2.6-6.3-2.6h-.3a3.33,3.33,0,0,1-1-.6c-.7-1.1-6.4-3.4-14.3-.2S23.5,26,24.5,32.3c.3,2.3.7,4.3.7,4.3a1.21,1.21,0,0,1-.7,1.3h0s-.8.5-.8,2.4c.3,3.5,1,3.9,1.8,4.3a3.12,3.12,0,0,1,2.1,2.7,14.45,14.45,0,0,0,2.3,6.2,6.41,6.41,0,0,1,1.4,4.3C31.2,64.7,28.5,68.2,20.1,71.7Z"/></g></g></svg>