<svg xmlns="http://www.w3.org/2000/svg" viewBox="0 0 45.6 80.6"><defs><style>.cls-1{fill:#0079e1;}</style></defs><title>mobile_crypto_wallet</title><g id="Слой_2" data-name="Слой 2"><g id="Слой_1-2" data-name="Слой 1"><path class="cls-1" d="M39.7,0H5.9A5.91,5.91,0,0,0,0,5.9V74.7a5.91,5.91,0,0,0,5.9,5.9H39.7a5.91,5.91,0,0,0,5.9-5.9V5.9A5.91,5.91,0,0,0,39.7,0ZM2.6,10.8H42.9v51H2.6ZM5.9,2.7H39.7a3.16,3.16,0,0,1,3.2,3.2V8H2.6V5.9A3.31,3.31,0,0,1,5.9,2.7ZM39.7,78H5.9a3.16,3.16,0,0,1-3.2-3.2V64.5H43V74.7A3.4,3.4,0,0,1,39.7,78Z"/><path class="cls-1" d="M22.8,65.9a5.4,5.4,0,1,0,5.4,5.4A5.38,5.38,0,0,0,22.8,65.9Zm0,8a2.7,2.7,0,1,1,2.7-2.7A2.69,2.69,0,0,1,22.8,73.9Z"/><path class="cls-1" d="M17.4,6.8h5.4a1.3,1.3,0,1,0,0-2.6H17.4a1.3,1.3,0,0,0,0,2.6Z"/><path class="cls-1" d="M26.8,6.8h1.3a1.3,1.3,0,0,0,0-2.6H26.8a1.3,1.3,0,0,0,0,2.6Z"/></g></g></svg>