<svg xmlns="http://www.w3.org/2000/svg" viewBox="0 0 305.4 400.02"><defs><style>.cls-1{fill:#eab981;}.cls-2{fill:#d4a779;}.cls-3{fill:#eff2fa;}.cls-4{fill:#192023;}.cls-5{fill:#1d252a;}.cls-6{fill:#f0c087;}.cls-7{fill:#f4cf9c;}.cls-8{fill:#e3bd8d;}.cls-9{fill:#684a4a;}.cls-10{fill:#795858;}.cls-11{fill:#8a9699;}.cls-12{fill:#c8d0d3;}.cls-13{fill:#4a86bf;}.cls-14{fill:#7facfa;}</style></defs><title>product_guid</title><g id="Слой_2" data-name="Слой 2"><g id="Слой_1-2" data-name="Слой 1"><g id="Слой_1-3" data-name="Слой 1"><polygon class="cls-1" points="201.19 223.6 201.19 185.43 103.1 185.43 103.1 223.6 152.05 267.17 201.19 223.6"/><polyline class="cls-2" points="152.51 263.73 201.56 220.07 201.56 181.99 152.51 181.99"/><path class="cls-3" d="M277.08,241.44l-67.44-15.89a10.87,10.87,0,0,1-2.88-1.11L152.14,256.3,99.66,222.77a10.66,10.66,0,0,1-4.92,2.69L27.3,241.34a21.84,21.84,0,0,0-16.81,21.18v42.73a11,11,0,0,0,11,11H283.12a11,11,0,0,0,11-11V262.62A22.31,22.31,0,0,0,277.08,241.44Z"/><path class="cls-4" d="M152.51,316.21H282.84a11,11,0,0,0,11-11V262.52A21.77,21.77,0,0,0,277,241.34l-67.44-15.88a11.22,11.22,0,0,1-2.88-1.11l-54.62,31.86"/><path class="cls-5" d="M152.05,256.3,99.57,222.77a10.64,10.64,0,0,1-4.93,2.69L27.21,241.34a21.85,21.85,0,0,0-16.82,21.18v42.73a11,11,0,0,0,11,11H152.51"/><path class="cls-6" d="M81.27,60l4.83,104.5a32,32,0,0,0,13.1,24.62l22.57,16.91a32.82,32.82,0,0,0,19.69,6.59h21.83A32.82,32.82,0,0,0,183,206.05l22.57-16.91a32.7,32.7,0,0,0,13.1-24.62L223.48,60Z"/><path class="cls-7" d="M81.73,60l4.83,104.5a32,32,0,0,0,13.1,24.62l22.57,16.91a32.87,32.87,0,0,0,19.69,6.59h21.83a32.87,32.87,0,0,0,19.7-6.59L206,189.14a32.76,32.76,0,0,0,13.1-24.62L223.67,60Z"/><path class="cls-8" d="M152.51,212.73h11a32.87,32.87,0,0,0,19.69-6.59l22.57-16.91a32.76,32.76,0,0,0,13.1-24.61l4.83-104.5H152.79"/><path class="cls-9" d="M185.21,24l5,36c23.31,4.74,26.66,41.25,27.12,51.74a10.22,10.22,0,0,0,1.77,5.3L228,130.9S225,108.05,239,92.81C239,92.72,243.82,2.15,185.21,24Z"/><path class="cls-8" d="M233.51,128.58l-6.13,24.61a6.45,6.45,0,0,1-6.31,4.93h0a6.54,6.54,0,0,1-6.51-5.76l-3.15-25.08a11.38,11.38,0,0,1,11.24-12.73h0A11.19,11.19,0,0,1,233.51,128.58Z"/><path class="cls-10" d="M86.56,14.23l8.08,5.48C58.14,46.56,65,92.72,65,92.72c11,11,11,38.09,11,38.09l11-11s-4.18-31.59,16.26-43.57C122.23,65,139,70.8,156,70.8c45.61,0,58.43-17.19,56.11-38.09C211.13,21.94,194.5-.73,152.33,0,135.05.39,103.1,5.5,86.56,14.23Z"/><path class="cls-10" d="M86.56,14.23l8.08,5.48C58.14,46.56,65,92.72,65,92.72c11,11,11,38.09,11,38.09l11-11s-4.18-31.59,16.26-43.57C121,65.69,136.82,70.15,152.7,70.8"/><path class="cls-9" d="M152.51,70.89c1.12,0,2.23.1,3.35.1C201.47,71,214.29,53.8,212,32.9,210.94,22,194.31-.63,152.05.11"/><path class="cls-7" d="M70.77,128.58l6.13,24.61a6.47,6.47,0,0,0,6.32,4.93h0a6.53,6.53,0,0,0,6.5-5.76l3.16-25.08a11.38,11.38,0,0,0-11.24-12.73h0A11.28,11.28,0,0,0,70.77,128.58Z"/><path class="cls-11" d="M223,305.34H184.93a5.44,5.44,0,0,0-5.48,5.49v5.48H228.5v-5.48A5.44,5.44,0,0,0,223,305.34Z"/><path class="cls-4" d="M165.8,256.3H138.58v10.22a6.08,6.08,0,0,0,6,6h15a6.08,6.08,0,0,0,6-6V256.3Z"/><path class="cls-5" d="M152.05,256.3H138.4v10.22a6.08,6.08,0,0,0,6,6H152"/><path class="cls-12" d="M102.35,211.43l49.79,44.78s-14,7-31.12,21.27a7,7,0,0,1-10.86-2.42L86.75,223.51l7.34-11.15A5.51,5.51,0,0,1,102.35,211.43Z"/><path class="cls-11" d="M202,211.43l-49.78,44.78s14,7,31.11,21.27a7,7,0,0,0,10.87-2.42l23.5-51.55-7.34-11.15A5.64,5.64,0,0,0,202,211.43Z"/></g><path class="cls-13" d="M174,393.82A521.49,521.49,0,0,1,289.11,374.2l16.29-.94V186l-16.61,1A518.38,518.38,0,0,0,173.7,206.62l-21,6.11V400Z"/><path class="cls-14" d="M17.11,374.29a517.87,517.87,0,0,1,115,19.71l20.55,6V212.73l-21-6.11A518.57,518.57,0,0,0,16.61,187L0,186V373.26Z"/></g></g></svg>