<?xml version="1.0" encoding="utf-8"?>
<!-- Generator: Adobe Illustrator 22.0.1, SVG Export Plug-In . SVG Version: 6.00 Build 0)  -->
<svg version="1.1" id="Слой_1" xmlns="http://www.w3.org/2000/svg" xmlns:xlink="http://www.w3.org/1999/xlink" x="0px" y="0px"
	 viewBox="0 0 398.9 400" style="enable-background:new 0 0 398.9 400;" xml:space="preserve">
<style type="text/css">
	.st0{fill:none;stroke:#4E8E7D;stroke-width:4;stroke-miterlimit:10;}
	.st1{fill:none;stroke:#375462;stroke-miterlimit:10;}
	.st2{display:none;fill:#4A86BF;}
	.st3{display:none;fill:#4790CF;}
	.st4{fill:#684A4A;}
	.st5{fill:#D4A779;}
	.st6{fill:#EAB981;}
	.st7{fill:#C3D3D6;}
	.st8{fill:#D7E2E5;}
	.st9{fill:#F4CF9C;}
	.st10{fill:#E3BD8D;}
	.st11{fill:#2E4149;}
	.st12{fill:#2C3A43;}
	.st13{fill:#1C2429;}
	.st14{fill:#C8D0D3;}
	.st15{fill:#8A9699;}
	.st16{fill:#795858;}
	.st17{fill:#4A86BF;}
	.st18{fill:#4790CF;}
	.st19{fill:#E1AD7B;}
	.st20{fill:#192023;}
	.st21{fill:#1D252A;}
	.st22{fill:none;}
	.st23{fill:#EFF2FA;}
	.st24{fill:#F0C087;}
	.st25{fill:#515262;}
	.st26{display:none;}
	.st27{display:inline;fill:#2E4149;}
	.st28{display:inline;fill:#2C3A43;}
	.st29{fill:#7FACFA;}
</style>
<g id="Слой_1_1_">
	<line class="st0" x1="0.3" y1="665.7" x2="0.3" y2="706.6"/>
	<line class="st0" x1="48.1" y1="706.2" x2="48.1" y2="747.2"/>
	<line class="st0" x1="143.7" y1="704.8" x2="143.7" y2="746.4"/>
	<line class="st0" x1="-144.1" y1="704.8" x2="-144.1" y2="746.4"/>
	<line class="st0" x1="-48" y1="704.8" x2="-48" y2="746.4"/>
	<line class="st1" x1="-0.9" y1="618.9" x2="-0.9" y2="630.4"/>
	<line class="st0" x1="-35.2" y1="864.1" x2="-35.2" y2="905"/>
	<line class="st0" x1="-48" y1="823.5" x2="-48" y2="864.4"/>
	<line class="st0" x1="-104.6" y1="862.7" x2="-104.6" y2="911.8"/>
	<line class="st0" x1="-143.6" y1="824.3" x2="-143.6" y2="866.2"/>
	<line class="st0" x1="-173.9" y1="862.7" x2="-173.9" y2="900.9"/>
	<circle class="st2" cx="668.5" cy="223.7" r="58.2"/>
	<path class="st3" d="M668.5,281.9c-32.1,0-58.2-26-58.2-58.2s26-58.2,58.2-58.2"/>
	<path class="st4" d="M-19.7,576.1l2.5,1.7c-11.1,8.1-9,22.2-9,22.2c3.3,3.3,3.3,11.6,3.3,11.6l3.3-3.3c0,0-1.3-9.5,5-13.2
		c5.8-3.4,10.9-1.7,16-1.7c13.8,0,17.8-5.3,17.1-11.6c-0.4-3.3-5.4-10.2-18.2-10C-5.1,571.9-14.7,573.5-19.7,576.1z"/>
	<polyline class="st5" points="0.3,653.7 15.3,640.4 15.3,628.7 0.3,628.7 	"/>
	<polyline class="st6" points="0.3,628.7 -14.9,628.7 -14.9,640.4 0.3,653.7 	"/>
	<path class="st7" d="M43.1,649.9c-0.8-1.9-2.5-3.5-4.6-4l-20.7-5c-0.4-0.1-0.6-0.2-0.9-0.4l-16.7,9.8v18.4
		C17.3,668.8,32.6,661.5,43.1,649.9z"/>
	<path class="st8" d="M-17.4,641l-20.7,4.9c-2.2,0.5-3.9,2.1-4.7,4.2c9.5,10.4,22.8,17.4,37.7,18.7h5.3v-18.4l-16.1-10.2
		C-16.4,640.6-16.9,640.8-17.4,641z"/>
	<path class="st9" d="M0.3,590.2c-10.5,0-20.7,0-20.7,0l1.5,32.1c0.2,3,1.6,5.8,4,7.5L-8,635c1.8,1.3,3.9,2,6,2h2.3"/>
	<path class="st10" d="M0.3,637h4.4c2.2,0,4.3-0.7,6-2l6.9-5.2c2.4-1.8,3.9-4.6,4-7.5l1.5-32.1c0,0-11.6,0-22.8,0"/>
	<polyline class="st11" points="0.3,653.7 3.3,653.7 4.4,668.8 -3.9,668.8 -2.9,653.7 0.3,653.7 	"/>
	<polyline class="st12" points="0.3,653.7 3.3,653.7 4.4,668.8 0.3,668.8 	"/>
	<path class="st13" d="M4.4,650.4h-8.3v3.2c0,1.1,0.9,1.8,1.8,1.8h4.6c1.1,0,1.8-0.9,1.8-1.8L4.4,650.4L4.4,650.4z"/>
	<g>
		<path class="st14" d="M-15.2,636.6L0,650.3c0,0-4.3,2.2-9.5,6.5c-1.1,0.9-2.7,0.5-3.3-0.8l-7.2-15.8l2.3-3.4
			C-17,636.1-15.9,635.9-15.2,636.6z"/>
		<path class="st15" d="M0.3,650.4c0,0,4.3,2.2,9.5,6.5c1.1,0.9,2.7,0.5,3.3-0.8l7.2-15.8l-2.3-3.4c-0.5-0.9-1.8-1-2.5-0.4
			L0.3,650.4"/>
	</g>
	<path class="st4" d="M10.3,579.2l1.6,11c7.2,1.4,8.1,12.6,8.3,15.9c0,0.6,0.2,1.1,0.5,1.7l2.7,4.2c0,0-1-7,3.3-11.7
		C26.8,600.3,28.3,572.4,10.3,579.2z"/>
	<path class="st10" d="M25.1,611.2l-1.9,7.5c-0.3,0.9-1.1,1.5-1.9,1.5l0,0c-1.1,0-1.8-0.8-2-1.8l-1-7.7c-0.3-2.1,1.3-3.9,3.4-3.9
		l0,0C24.1,606.9,25.8,609,25.1,611.2z"/>
	<path class="st4" d="M0.3,593.5c0.4,0,0.6,0,1,0"/>
	<path class="st4" d="M1.1,593.5c0.1,0,0.1,0,0.2,0c14,0,18-5.3,17.3-11.7c-0.4-3.3-5.4-10.2-18.4-10c-5.3,0.1-15.1,1.7-20.1,4.3
		l2.5,1.7c-11.2,8.2-9.1,22.4-9.1,22.4c3.3,3.3,3.3,11.7,3.3,11.7l3.3-3.3c0,0-1.3-9.6,5-13.4c5.4-3.2,10.2-1.9,15.1-1.7"/>
	<path class="st16" d="M0.3,571.8c-5.3,0.1-15.1,1.7-20.1,4.3l2.5,1.7c-11.2,8.2-9.1,22.4-9.1,22.4c3.3,3.3,3.3,11.7,3.3,11.7
		l3.3-3.3c0,0-1.3-9.6,5-13.4c5.4-3.2,10.2-1.9,15.1-1.7"/>
	<path class="st9" d="M-24.7,611.2l1.9,7.5c0.3,0.9,1.1,1.5,1.9,1.5l0,0c1.1,0,1.8-0.8,2-1.8l1-7.7c0.3-2.1-1.3-3.9-3.4-3.9l0,0
		C-23.7,606.9-25.2,609-24.7,611.2z"/>
	<g>
		<line class="st0" x1="35.6" y1="864.1" x2="35.6" y2="905"/>
		<line class="st0" x1="48.5" y1="823.5" x2="48.5" y2="864.4"/>
		<line class="st0" x1="104.1" y1="862.7" x2="104.1" y2="911.8"/>
		<line class="st0" x1="144.2" y1="824.6" x2="144.2" y2="866.4"/>
		<line class="st0" x1="173.7" y1="862.7" x2="173.7" y2="900.9"/>
		<line class="st0" x1="48.5" y1="862.7" x2="48.5" y2="862.7"/>
		<line class="st0" x1="175.7" y1="864.4" x2="145.2" y2="864.4"/>
		<line class="st0" x1="105.9" y1="864.4" x2="33.6" y2="864.4"/>
	</g>
	<g>
		<g>
			
				<ellipse transform="matrix(0.9993 -3.837653e-02 3.837653e-02 0.9993 -30.2087 -4.9522)" class="st17" cx="-144.1" cy="784.4" rx="39.9" ry="39.9"/>
			<path class="st18" d="M-144.1,824.3c-22.1,0-39.9-17.9-39.9-39.9s17.9-39.9,39.9-39.9"/>
		</g>
		<path class="st19" d="M-128.6,790.5l0.8,3.2c0.1,0.4,0.4,0.6,0.8,0.6l0,0c0.4,0,0.8-0.4,0.8-0.7l0.4-3.2c0.1-0.9-0.5-1.6-1.4-1.6
			l0,0C-128.1,788.7-128.8,789.6-128.6,790.5z"/>
		<path class="st20" d="M-143.6,757.5c-23.6,0-21,28.7-20.9,49.6c0,0.8,0.4,1.5,1.1,1.9c2.6,1.6,9.8,5.3,19.8,5.3s17.2-3.7,19.8-5.3
			c0.7-0.4,1.1-1.1,1.1-1.9C-122.7,786.2-120.1,757.5-143.6,757.5z"/>
		<path class="st21" d="M-143.6,757.5c-23.6,0-21,28.7-20.9,49.6c0,0.8,0.4,1.5,1.1,1.9c2.6,1.6,9.8,5.3,19.8,5.3"/>
		<path class="st5" d="M-121.1,811.6l-13.3-5.5c-1.1-0.4-1.8-1.6-1.8-2.7v-3.6h-15v3.6c0,1.2-0.7,2.3-1.8,2.7l-13.3,5.5"/>
		<path class="st6" d="M-151.1,799.7v3.6c0,1.2-0.7,2.3-1.8,2.7l-13.3,5.5c-1.7,0.7-2.7,2.3-2.7,4c6.8,5.4,15.5,8.8,25,8.8l0,0
			v-24.7L-151.1,799.7L-151.1,799.7z"/>
		<path class="st7" d="M-143.6,824.3c9.6-0.1,18.4-3.6,25.3-9.4c-0.3-1.5-1.2-2.8-2.7-3.4l-12.9-5.3l-9.7,4.2"/>
		<path class="st8" d="M-143.6,810.4l-9.7-4.2l-12.9,5.3c-1.7,0.7-2.7,2.3-2.7,4c6.8,5.4,15.5,8.8,25,8.8c0.2,0,0.3,0,0.4,0"/>
		<g>
			<path class="st21" d="M-143.6,810.4l-8.6-6.4c-0.5-0.4-1.3-0.3-1.8,0.3l-1.7,2.5l5.3,7.4c0.4,0.5,1.1,0.7,1.8,0.3L-143.6,810.4z"
				/>
			<path class="st20" d="M-143.6,810.4l8.6-6.4c0.5-0.4,1.3-0.3,1.8,0.3l1.7,2.5l-5.3,7.4c-0.4,0.5-1.1,0.7-1.8,0.3L-143.6,810.4z"
				/>
		</g>
		<path class="st9" d="M-136.2,771c-7.4,7.4-22.1,1.5-22.1,13.4l1,8.8c0.2,1.9,1.3,3.7,3.1,4.6l8.5,4.7c1.3,0.8,3,0.8,4.4,0l8.5-4.7
			c1.8-1,2.9-2.7,3.1-4.6l1.1-10.4c0.1-0.7,0.1-1.5,0.1-2.3C-129.4,776.7-134.8,773.9-136.2,771z"/>
		<path class="st10" d="M-143.6,803.1c0.8,0,1.5-0.2,2.2-0.5l8.5-4.7c1.8-1,2.9-2.7,3.1-4.6l1.1-10.4c0.1-0.7,0.1-1.5,0.1-2.3
			c-0.5-3.8-5.9-6.6-7.4-9.5c-2.1,2.1-4.7,3.2-7.4,3.8"/>
	</g>
	<g>
		<circle class="st17" cx="-48.1" cy="784.5" r="39.9"/>
		<path class="st18" d="M-48,824.4c-22.1,0-39.9-17.9-39.9-39.9S-70,744.6-48,744.6"/>
		<path class="st4" d="M-61.7,760.7l1.7,1.1c-7.6,5.6-6.2,15.2-6.2,15.2c2.3,2.3,2.3,8,2.3,8l2.3-2.3c0,0-0.9-6.6,3.4-9.1
			c4-2.4,7.4-1.1,11-1.1c9.5,0,12.2-3.6,11.7-8c-0.3-2.3-3.7-7-12.5-6.8C-51.7,757.8-58.4,758.9-61.7,760.7z"/>
		<polyline class="st5" points="-48,814.1 -37.7,804.9 -37.7,796.8 -48,796.8 		"/>
		<polyline class="st6" points="-48,796.8 -58.4,796.8 -58.4,804.9 -48,814.1 		"/>
		<path class="st20" d="M-18.5,811.4c-0.5-1.3-1.7-2.4-3.2-2.7l-14.2-3.4c-0.2-0.1-0.4-0.2-0.6-0.3l-11.6,6.7l-0.1,12.6
			C-36.4,824.4-25.9,819.4-18.5,811.4z"/>
		<path class="st21" d="M-60.2,805.3l-14.2,3.3c-1.5,0.4-2.7,1.5-3.2,2.9c6.6,7.2,15.7,12,25.9,12.9h3.7v-12.6l-11-7
			C-59.4,804.9-59.7,805.2-60.2,805.3z"/>
		<path class="st9" d="M-48,770.4c-7.2,0-14.2,0-14.2,0l1,22c0.1,2,1.1,3.9,2.7,5.2l4.7,3.6c1.2,0.9,2.6,1.4,4.1,1.4h1.6"/>
		<path class="st10" d="M-48,802.6h3c1.5,0,3-0.5,4.1-1.4l4.7-3.6c1.7-1.2,2.6-3.2,2.7-5.2l1-22c0,0-8,0-15.7,0"/>
		<g>
			<path class="st14" d="M-58.5,802.3l10.5,9.5c0,0-3,1.5-6.6,4.5c-0.8,0.6-1.8,0.4-2.3-0.5l-4.9-10.9l1.6-2.4
				C-59.9,802-59,801.8-58.5,802.3z"/>
			<path class="st15" d="M-48,811.8c0,0,3,1.5,6.6,4.5c0.8,0.6,1.8,0.4,2.3-0.5l4.9-10.9l-1.6-2.4c-0.4-0.6-1.2-0.7-1.8-0.2
				L-48,811.8"/>
		</g>
		<path class="st4" d="M-41.2,762.8l1.1,7.6c4.9,1,5.6,8.7,5.7,10.9c0,0.4,0.2,0.8,0.4,1.1l1.8,2.9c0,0-0.6-4.8,2.3-8.1
			C-29.7,777.3-28.7,758.2-41.2,762.8z"/>
		<path class="st10" d="M-30.9,784.8l-1.3,5.2c-0.2,0.6-0.7,1.1-1.3,1.1l0,0c-0.7,0-1.3-0.5-1.4-1.2l-0.7-5.3
			c-0.2-1.4,1-2.7,2.4-2.7l0,0C-31.7,781.9-30.5,783.3-30.9,784.8z"/>
		<path class="st4" d="M-48,772.6c0.3,0,0.4,0,0.7,0"/>
		<path class="st4" d="M-47.4,772.7L-47.4,772.7c9.7,0,12.4-3.6,11.9-8.1c-0.3-2.3-3.8-7-12.6-6.9c-3.6,0.1-10.3,1.1-13.8,3l1.7,1.1
			c-7.7,5.7-6.2,15.4-6.2,15.4c2.3,2.3,2.3,8.1,2.3,8.1l2.3-2.3c0,0-0.9-6.7,3.4-9.2c3.8-2.2,7-1.3,10.3-1.1"/>
		<path class="st16" d="M-48,757.7c-3.6,0.1-10.3,1.1-13.8,3l1.7,1.1c-7.7,5.7-6.2,15.4-6.2,15.4c2.3,2.3,2.3,8.1,2.3,8.1l2.3-2.3
			c0,0-0.9-6.7,3.4-9.2c3.8-2.2,7-1.3,10.3-1.1"/>
		<path class="st9" d="M-65.2,784.8l1.3,5.2c0.2,0.6,0.7,1.1,1.3,1.1l0,0c0.7,0,1.3-0.5,1.4-1.2l0.7-5.3c0.2-1.4-1-2.7-2.4-2.7l0,0
			C-64.4,781.9-65.7,783.3-65.2,784.8z"/>
		<path class="st15" d="M-39.9,821.1v2.4c3.8-0.8,7.4-2.1,10.8-3.9c-0.4-0.6-0.9-1.1-1.5-1.1H-38C-39,818.5-39.9,819.7-39.9,821.1z"
			/>
	</g>
	<g>
		<circle class="st17" cx="48" cy="784.6" r="39.9"/>
		<path class="st18" d="M48,824.6c-22.1,0-39.9-17.9-39.9-39.9c0-22.1,17.9-39.9,39.9-39.9"/>
	</g>
	<path class="st19" d="M63.5,790.8l0.8,3.2c0.1,0.4,0.4,0.6,0.8,0.6l0,0c0.4,0,0.8-0.4,0.8-0.7l0.4-3.2c0.1-0.9-0.5-1.6-1.4-1.6l0,0
		C63.8,788.9,63.2,789.8,63.5,790.8z"/>
	<path class="st4" d="M48.3,757.7c-23.6,0-21,28.7-20.9,49.6c0,0.8,0.4,1.5,1.1,1.9c2.6,1.6,9.8,5.3,19.8,5.3s17.2-3.7,19.8-5.3
		c0.7-0.4,1.1-1.1,1.1-1.9C69.3,786.5,71.9,757.7,48.3,757.7z"/>
	<path class="st16" d="M48.3,757.7c-23.6,0-21,28.7-20.9,49.6c0,0.8,0.4,1.5,1.1,1.9c2.6,1.6,9.8,5.3,19.8,5.3"/>
	<path class="st5" d="M70.9,811.8l-13.3-5.5c-1.1-0.4-1.8-1.6-1.8-2.7V800H41v3.6c0,1.2-0.7,2.3-1.8,2.7l-13.3,5.5"/>
	<path class="st6" d="M41,799.9v3.6c0,1.2-0.7,2.3-1.8,2.7l-13.3,5.5c-1.7,0.7-2.7,2.3-2.7,4c6.8,5.4,15.5,8.8,25,8.8l0,0v-24.7
		L41,799.9L41,799.9z"/>
	<path class="st20" d="M48.3,824.6c9.6-0.1,18.4-3.6,25.3-9.4c-0.3-1.5-1.2-2.8-2.7-3.4L58,806.5l-9.7,4.2"/>
	<path class="st21" d="M48.3,810.6l-9.7-4.2l-12.9,5.3c-1.7,0.7-2.7,2.3-2.7,4c6.8,5.4,15.5,8.8,25,8.8c0.2,0,0.3,0,0.4,0"/>
	<g>
		<path class="st14" d="M48.3,810.6l-8.6-6.4c-0.5-0.4-1.3-0.3-1.8,0.3l-1.7,2.5l5.3,7.4c0.4,0.5,1.1,0.7,1.8,0.3L48.3,810.6z"/>
		<path class="st15" d="M48.3,810.6l8.6-6.4c0.5-0.4,1.3-0.3,1.8,0.3l1.7,2.5l-5.3,7.4c-0.4,0.5-1.1,0.7-1.8,0.3L48.3,810.6z"/>
	</g>
	<path class="st9" d="M55.8,771.1c-7.4,7.4-22.1,1.5-22.1,13.4l1,8.8c0.2,1.9,1.3,3.7,3.1,4.6l8.5,4.7c1.3,0.8,3,0.8,4.4,0l8.5-4.7
		c1.8-1,2.9-2.7,3.1-4.6l1.1-10.4c0.1-0.7,0.1-1.5,0.1-2.3C62.7,776.9,57.3,774.1,55.8,771.1z"/>
	<path class="st10" d="M48.3,803.4c0.8,0,1.5-0.2,2.2-0.5l8.5-4.7c1.8-1,2.9-2.7,3.1-4.6l1.1-10.4c0.1-0.7,0.1-1.5,0.1-2.3
		c-0.5-3.8-5.9-6.6-7.4-9.5c-2.1,2.1-4.7,3.2-7.4,3.8"/>
	<g>
		<g>
			
				<ellipse transform="matrix(0.9985 -5.530040e-02 5.530040e-02 0.9985 -43.1633 9.1471)" class="st17" cx="143.7" cy="784.5" rx="39.9" ry="39.9"/>
			<path class="st18" d="M143.7,824.4c-22.1,0-39.9-17.9-39.9-39.9s17.9-39.9,39.9-39.9"/>
		</g>
		<path class="st19" d="M159.2,790.6l0.8,3.2c0.1,0.4,0.4,0.6,0.8,0.6l0,0c0.4,0,0.8-0.4,0.8-0.7l0.4-3.2c0.1-0.9-0.5-1.6-1.4-1.6
			l0,0C159.7,788.7,158.9,789.6,159.2,790.6z"/>
		<path class="st20" d="M144.2,757.6c-23.6,0-21,28.7-20.9,49.6c0,0.8,0.4,1.5,1.1,1.9c2.6,1.6,9.8,5.3,19.8,5.3s17.2-3.7,19.8-5.3
			c0.7-0.4,1.1-1.1,1.1-1.9C165.2,786.3,167.7,757.6,144.2,757.6z"/>
		<path class="st21" d="M144.2,757.6c-23.6,0-21,28.7-20.9,49.6c0,0.8,0.4,1.5,1.1,1.9c2.6,1.6,9.8,5.3,19.8,5.3"/>
		<path class="st5" d="M166.7,811.6l-13.3-5.5c-1.1-0.4-1.8-1.6-1.8-2.7v-3.6h-14.9v3.6c0,1.2-0.7,2.3-1.8,2.7l-13.3,5.5"/>
		<path class="st6" d="M136.7,799.7v3.6c0,1.2-0.7,2.3-1.8,2.7l-13.3,5.5c-1.7,0.7-2.7,2.3-2.7,4c6.8,5.4,15.5,8.8,25,8.8l0,0v-24.7
			L136.7,799.7L136.7,799.7z"/>
		<path class="st7" d="M144.2,824.4c9.6-0.1,18.4-3.6,25.3-9.4c-0.3-1.5-1.2-2.8-2.7-3.4l-12.9-5.3l-9.7,4.2"/>
		<path class="st8" d="M144.2,810.5l-9.7-4.2l-12.9,5.3c-1.7,0.7-2.7,2.3-2.7,4c6.8,5.4,15.5,8.8,25,8.8c0.2,0,0.3,0,0.4,0"/>
		<g>
			<path class="st14" d="M144.2,810.5l-8.6-6.4c-0.5-0.4-1.3-0.3-1.8,0.3l-1.7,2.5l5.3,7.4c0.4,0.5,1.1,0.7,1.8,0.3L144.2,810.5z"/>
			<path class="st15" d="M144.2,810.5l8.6-6.4c0.5-0.4,1.3-0.3,1.8,0.3l1.7,2.5l-5.3,7.4c-0.4,0.5-1.1,0.7-1.8,0.3L144.2,810.5z"/>
		</g>
		<path class="st9" d="M151.6,771c-7.4,7.4-22.1,1.5-22.1,13.4l1,8.8c0.2,1.9,1.3,3.7,3.1,4.6l8.5,4.7c1.3,0.8,3,0.8,4.4,0l8.5-4.7
			c1.8-1,2.9-2.7,3.1-4.6l1.1-10.4c0.1-0.7,0.1-1.5,0.1-2.3C158.3,776.7,153.1,773.9,151.6,771z"/>
		<path class="st10" d="M144.2,803.2c0.8,0,1.5-0.2,2.2-0.5l8.5-4.7c1.8-1,2.9-2.7,3.1-4.6l1.1-10.4c0.1-0.7,0.1-1.5,0.1-2.3
			c-0.5-3.8-5.9-6.6-7.4-9.5c-2.1,2.1-4.7,3.2-7.4,3.8"/>
	</g>
	<g>
		<circle class="st17" cx="-104.8" cy="926.2" r="25.7"/>
		<path class="st18" d="M-104.8,951.8c-14.2,0-25.7-11.5-25.7-25.7s11.5-25.7,25.7-25.7"/>
		<path class="st4" d="M-113.7,910.9l1.1,0.7c-4.9,3.6-3.9,9.8-3.9,9.8c1.5,1.5,1.5,5.1,1.5,5.1l1.5-1.5c0,0-0.5-4.2,2.2-5.9
			c2.5-1.5,4.8-0.7,7.1-0.7c6.1,0,7.9-2.3,7.5-5.1c-0.2-1.5-2.4-4.5-8.1-4.4C-107.2,909.1-111.5,909.8-113.7,910.9z"/>
		<polyline class="st5" points="-104.8,945.2 -98.2,939.3 -98.2,934.1 -104.8,934.1 		"/>
		<polyline class="st6" points="-104.8,934.1 -111.5,934.1 -111.5,939.3 -104.8,945.2 		"/>
		<path class="st7" d="M-85.9,943.5c-0.4-0.9-1.1-1.6-2-1.8l-9.1-2.2c-0.2,0-0.3-0.1-0.4-0.2l-7.4,4.3v8.1
			C-97.4,951.8-90.6,948.6-85.9,943.5z"/>
		<path class="st8" d="M-112.6,939.6l-9.1,2.2c-1,0.3-1.8,1-2.1,1.8c4.2,4.6,10.1,7.7,16.6,8.3h2.4v-8.1l-7.1-4.6
			C-112.1,939.4-112.4,939.5-112.6,939.6z"/>
		<path class="st9" d="M-104.8,917.1c-4.6,0-9.1,0-9.1,0l0.6,14.2c0.1,1.3,0.7,2.5,1.8,3.3l3.1,2.3c0.8,0.6,1.7,0.9,2.6,0.9h1.1"/>
		<path class="st10" d="M-104.8,937.8h1.9c1,0,1.9-0.4,2.6-0.9l3.1-2.3c1.1-0.8,1.7-2,1.8-3.3l0.6-14.2c0,0-5.1,0-10.1,0"/>
		<g>
			<path class="st21" d="M-111.6,937.6l6.7,6c0,0-1.9,1-4.2,2.9c-0.4,0.4-1.2,0.3-1.5-0.4l-3.2-7l1-1.5
				C-112.5,937.4-111.9,937.4-111.6,937.6z"/>
			<path class="st20" d="M-104.8,943.7c0,0,1.9,1,4.2,2.9c0.4,0.4,1.2,0.3,1.5-0.4l3.2-7l-1-1.5c-0.3-0.4-0.8-0.4-1.1-0.2
				L-104.8,943.7"/>
		</g>
		<path class="st20" d="M-100.4,912.2l0.7,4.9c3.2,0.6,3.6,5.6,3.7,7c0,0.3,0.1,0.5,0.3,0.7l1.2,1.8c0,0-0.4-3.1,1.5-5.2
			C-93.1,921.6-92.5,909.3-100.4,912.2z"/>
		<path class="st10" d="M-93.8,926.4l-0.9,3.3c-0.1,0.4-0.4,0.7-0.9,0.7l0,0c-0.4,0-0.8-0.4-0.9-0.8l-0.4-3.4
			c-0.1-0.9,0.6-1.8,1.5-1.8l0,0C-94.2,924.5-93.6,925.5-93.8,926.4z"/>
		<path class="st4" d="M-104.8,918.6c0.2,0,0.3,0,0.4,0"/>
		<path class="st20" d="M-104.4,918.6L-104.4,918.6c6.2,0,8-2.4,7.7-5.2c-0.2-1.5-2.4-4.6-8.1-4.5c-2.3,0-6.7,0.7-8.8,1.9l1.1,0.8
			c-4.9,3.7-4,9.9-4,9.9c1.5,1.5,1.5,5.2,1.5,5.2l1.5-1.5c0,0-0.6-4.3,2.2-5.9c2.4-1.4,4.5-0.9,6.7-0.8"/>
		<path class="st21" d="M-104.8,909c-2.3,0-6.7,0.7-8.8,1.9l1.1,0.8c-4.9,3.7-4,9.9-4,9.9c1.5,1.5,1.5,5.2,1.5,5.2l1.5-1.5
			c0,0-0.6-4.3,2.2-5.9c2.4-1.4,4.5-0.9,6.7-0.8"/>
		<path class="st9" d="M-115.9,926.4l0.9,3.3c0.1,0.4,0.4,0.7,0.9,0.7l0,0c0.4,0,0.8-0.4,0.9-0.8l0.4-3.4c0.1-0.9-0.6-1.8-1.5-1.8
			l0,0C-115.2,924.5-116.1,925.5-115.9,926.4z"/>
		<path class="st20" d="M-99.6,949.7v1.5c2.5-0.5,4.7-1.4,6.9-2.5c-0.2-0.4-0.5-0.7-1-0.7h-4.7C-99.1,948-99.6,948.8-99.6,949.7z"/>
	</g>
	<g>
		<circle class="st17" cx="-35.2" cy="926.2" r="25.7"/>
		<path class="st18" d="M-35.2,951.8c-14.2,0-25.7-11.5-25.7-25.7s11.5-25.7,25.7-25.7"/>
		<path class="st4" d="M-44,910.9l1.1,0.7c-4.9,3.6-3.9,9.8-3.9,9.8c1.5,1.5,1.5,5.1,1.5,5.1l1.5-1.5c0,0-0.5-4.2,2.2-5.9
			c2.5-1.5,4.8-0.7,7.1-0.7c6.1,0,7.9-2.3,7.5-5.1c-0.2-1.5-2.4-4.5-8.1-4.4C-37.5,909.1-41.9,909.8-44,910.9z"/>
		<polyline class="st5" points="-35.2,945.2 -28.5,939.3 -28.5,934.1 -35.2,934.1 		"/>
		<polyline class="st6" points="-35.2,934.1 -41.9,934.1 -41.9,939.3 -35.2,945.2 		"/>
		<path class="st20" d="M-16.2,943.5c-0.4-0.9-1.1-1.6-2-1.8l-9.1-2.2c-0.2,0-0.3-0.1-0.4-0.2l-7.4,4.3v8.1
			C-27.7,951.8-20.9,948.6-16.2,943.5z"/>
		<path class="st21" d="M-42.9,939.5l-9.1,2.2c-1,0.3-1.8,1-2.1,1.8c4.2,4.6,10.1,7.7,16.6,8.3h2.4v-8.1l-7.1-4.6
			C-42.4,939.3-42.7,939.4-42.9,939.5z"/>
		<path class="st9" d="M-35.2,917.1c-4.6,0-9.1,0-9.1,0l0.6,14.2c0.1,1.3,0.7,2.5,1.8,3.3l3.1,2.3c0.8,0.6,1.7,0.9,2.6,0.9h1.1"/>
		<path class="st10" d="M-35.2,937.8h1.9c1,0,1.9-0.4,2.6-0.9l3.1-2.3c1.1-0.8,1.7-2,1.8-3.3l0.6-14.2c0,0-5.1,0-10.1,0"/>
		<g>
			<path class="st14" d="M-41.9,937.6l6.7,6c0,0-1.9,1-4.2,2.9c-0.4,0.4-1.2,0.3-1.5-0.4l-3.2-7l1-1.5
				C-42.9,937.4-42.4,937.4-41.9,937.6z"/>
			<path class="st15" d="M-35.2,943.7c0,0,1.9,1,4.2,2.9c0.4,0.4,1.2,0.3,1.5-0.4l3.2-7l-1-1.5c-0.3-0.4-0.8-0.4-1.1-0.2
				L-35.2,943.7"/>
		</g>
		<path class="st4" d="M-30.7,912.2l0.7,4.9c3.2,0.6,3.6,5.6,3.7,7c0,0.3,0.1,0.5,0.3,0.7l1.2,1.8c0,0-0.4-3.1,1.5-5.2
			C-23.5,921.6-22.9,909.3-30.7,912.2z"/>
		<path class="st10" d="M-24.2,926.4l-0.9,3.3c-0.1,0.4-0.4,0.7-0.9,0.7l0,0c-0.4,0-0.8-0.4-0.9-0.8l-0.4-3.4
			c-0.1-0.9,0.6-1.8,1.5-1.8l0,0C-24.7,924.5-23.9,925.5-24.2,926.4z"/>
		<path class="st4" d="M-35.2,918.6c0.2,0,0.3,0,0.4,0"/>
		<path class="st4" d="M-34.9,918.6C-34.9,918.6-34.7,918.6-34.9,918.6c6.2,0,8-2.4,7.7-5.2c-0.2-1.5-2.4-4.6-8.1-4.5
			c-2.3,0-6.7,0.7-8.8,1.9l1.1,0.8c-4.9,3.7-4,9.9-4,9.9c1.5,1.5,1.5,5.2,1.5,5.2l1.5-1.5c0,0-0.6-4.3,2.2-5.9
			c2.4-1.4,4.5-0.9,6.7-0.8"/>
		<path class="st16" d="M-35.2,909c-2.3,0-6.7,0.7-8.8,1.9l1.1,0.8c-4.9,3.7-4,9.9-4,9.9c1.5,1.5,1.5,5.2,1.5,5.2l1.5-1.5
			c0,0-0.6-4.3,2.2-5.9c2.4-1.4,4.5-0.9,6.7-0.8"/>
		<path class="st9" d="M-46.2,926.4l0.9,3.3c0.1,0.4,0.4,0.7,0.9,0.7l0,0c0.4,0,0.8-0.4,0.9-0.8l0.4-3.4c0.1-0.9-0.6-1.8-1.5-1.8
			l0,0C-45.7,924.5-46.4,925.5-46.2,926.4z"/>
		<path class="st15" d="M-29.9,949.7v1.5c2.5-0.5,4.7-1.4,6.9-2.5c-0.2-0.4-0.5-0.7-1-0.7h-4.8C-29.4,948-29.9,948.8-29.9,949.7z"/>
	</g>
	<line class="st22" x1="0.1" y1="925.1" x2="-21.9" y2="925.1"/>
	<line class="st22" x1="-148.1" y1="926.2" x2="-130.6" y2="926.2"/>
	<g>
		<circle class="st17" cx="104.1" cy="926.2" r="25.7"/>
		<path class="st18" d="M104.1,951.8c-14.2,0-25.7-11.5-25.7-25.7s11.5-25.7,25.7-25.7"/>
		<path class="st4" d="M95.3,910.9l1.1,0.7c-4.9,3.6-3.9,9.8-3.9,9.8c1.5,1.5,1.5,5.1,1.5,5.1l1.5-1.5c0,0-0.5-4.2,2.2-5.9
			c2.5-1.5,4.8-0.7,7.1-0.7c6.1,0,7.9-2.3,7.5-5.1c-0.2-1.5-2.4-4.5-8.1-4.4C101.8,909.1,97.6,909.8,95.3,910.9z"/>
		<polyline class="st5" points="104.1,945.2 110.7,939.3 110.7,934.1 104.1,934.1 		"/>
		<polyline class="st6" points="104.1,934.1 97.6,934.1 97.6,939.3 104.1,945.2 		"/>
		<path class="st20" d="M123.1,943.5c-0.4-0.9-1.1-1.6-2-1.8l-9.1-2.2c-0.2,0-0.3-0.1-0.4-0.2l-7.4,4.3v8.1
			C111.7,951.8,118.3,948.6,123.1,943.5z"/>
		<path class="st21" d="M96.3,939.5l-9.1,2.2c-1,0.3-1.8,1-2.1,1.8c4.2,4.6,10.1,7.7,16.6,8.3h2.4v-8.1l-7.1-4.6
			C96.8,939.3,96.7,939.4,96.3,939.5z"/>
		<path class="st9" d="M104.1,917.1c-4.6,0-9.1,0-9.1,0l0.6,14.2c0.1,1.3,0.7,2.5,1.8,3.3l3.1,2.3c0.8,0.6,1.7,0.9,2.6,0.9h1.1"/>
		<path class="st10" d="M104.1,937.8h1.9c1,0,1.9-0.4,2.6-0.9l3.1-2.3c1.1-0.8,1.7-2,1.8-3.3l0.6-14.2c0,0-5.1,0-10.1,0"/>
		<g>
			<path class="st14" d="M97.3,937.6l6.7,6c0,0-1.9,1-4.2,2.9c-0.4,0.4-1.2,0.3-1.5-0.4l-3.2-7l1-1.5
				C96.6,937.4,97.1,937.4,97.3,937.6z"/>
			<path class="st15" d="M104.1,943.7c0,0,1.9,1,4.2,2.9c0.4,0.4,1.2,0.3,1.5-0.4l3.2-7l-1-1.5c-0.3-0.4-0.8-0.4-1.1-0.2
				L104.1,943.7"/>
		</g>
		<path class="st20" d="M108.7,912.2l0.7,4.9c3.2,0.6,3.6,5.6,3.7,7c0,0.3,0.1,0.5,0.3,0.7l1.2,1.8c0,0-0.4-3.1,1.5-5.2
			C115.9,921.6,116.6,909.3,108.7,912.2z"/>
		<path class="st10" d="M115.2,926.4l-0.9,3.3c-0.1,0.4-0.4,0.7-0.9,0.7l0,0c-0.4,0-0.8-0.4-0.9-0.8l-0.4-3.4
			c-0.1-0.9,0.6-1.8,1.5-1.8l0,0C114.7,924.5,115.3,925.5,115.2,926.4z"/>
		<path class="st4" d="M104.1,918.6c0.2,0,0.3,0,0.4,0"/>
		<path class="st20" d="M104.6,918.6C104.7,918.6,104.7,918.6,104.6,918.6c6.2,0,8-2.4,7.7-5.2c-0.2-1.5-2.4-4.6-8.1-4.5
			c-2.3,0-6.7,0.7-8.8,1.9l1.1,0.8c-4.9,3.7-4,9.9-4,9.9c1.5,1.5,1.5,5.2,1.5,5.2l1.5-1.5c0,0-0.6-4.3,2.2-5.9
			c2.4-1.4,4.5-0.9,6.7-0.8"/>
		<path class="st21" d="M104.1,909c-2.3,0-6.7,0.7-8.8,1.9l1.1,0.8c-4.9,3.7-4,9.9-4,9.9c1.5,1.5,1.5,5.2,1.5,5.2l1.5-1.5
			c0,0-0.6-4.3,2.2-5.9c2.4-1.4,4.5-0.9,6.7-0.8"/>
		<path class="st9" d="M93.2,926.4l0.9,3.3c0.1,0.4,0.4,0.7,0.9,0.7l0,0c0.4,0,0.8-0.4,0.9-0.8l0.4-3.4c0.1-0.9-0.6-1.8-1.5-1.8l0,0
			C93.6,924.5,92.8,925.5,93.2,926.4z"/>
		<path class="st15" d="M109.4,949.7v1.5c2.5-0.5,4.7-1.4,6.9-2.5c-0.2-0.4-0.5-0.7-1-0.7h-4.7C109.9,948,109.4,948.8,109.4,949.7z"
			/>
	</g>
	<g>
		<circle class="st17" cx="173.7" cy="926.2" r="25.7"/>
		<path class="st18" d="M173.7,951.8c-14.2,0-25.7-11.5-25.7-25.7s11.5-25.7,25.7-25.7"/>
		<path class="st4" d="M164.8,910.9l1.1,0.7c-4.9,3.6-3.9,9.8-3.9,9.8c1.5,1.5,1.5,5.1,1.5,5.1l1.5-1.5c0,0-0.5-4.2,2.2-5.9
			c2.5-1.5,4.8-0.7,7.1-0.7c6.1,0,7.9-2.3,7.5-5.1c-0.2-1.5-2.4-4.5-8.1-4.4C171.4,909.1,167.2,909.8,164.8,910.9z"/>
		<polyline class="st5" points="173.7,945.2 180.3,939.3 180.3,934.1 173.7,934.1 		"/>
		<polyline class="st6" points="173.7,934.1 167.1,934.1 167.1,939.3 173.7,945.2 		"/>
		<path class="st7" d="M192.7,943.5c-0.4-0.9-1.1-1.6-2-1.8l-9.1-2.2c-0.2,0-0.3-0.1-0.4-0.2l-7.4,4.3v8.1
			C181.2,951.8,187.9,948.6,192.7,943.5z"/>
		<path class="st8" d="M165.9,939.6l-9.1,2.2c-1,0.3-1.8,1-2.1,1.8c4.2,4.6,10.1,7.7,16.6,8.3h2.4v-8.1l-7.1-4.6
			C166.4,939.4,166.2,939.5,165.9,939.6z"/>
		<path class="st9" d="M173.7,917.1c-4.6,0-9.1,0-9.1,0l0.6,14.2c0.1,1.3,0.7,2.5,1.8,3.3l3.1,2.3c0.8,0.6,1.7,0.9,2.6,0.9h1.1"/>
		<path class="st10" d="M173.7,937.8h1.9c1,0,1.9-0.4,2.6-0.9l3.1-2.3c1.1-0.8,1.7-2,1.8-3.3l0.6-14.2c0,0-5.1,0-10.1,0"/>
		<g>
			<path class="st14" d="M166.9,937.6l6.7,6c0,0-1.9,1-4.2,2.9c-0.4,0.4-1.2,0.3-1.5-0.4l-3.2-7l1-1.5
				C166.1,937.4,166.7,937.4,166.9,937.6z"/>
			<path class="st15" d="M173.7,943.7c0,0,1.9,1,4.2,2.9c0.4,0.4,1.2,0.3,1.5-0.4l3.2-7l-1-1.5c-0.3-0.4-0.8-0.4-1.1-0.2
				L173.7,943.7"/>
		</g>
		<path class="st4" d="M178.2,912.2l0.7,4.9c3.2,0.6,3.6,5.6,3.7,7c0,0.3,0.1,0.5,0.3,0.7l1.2,1.8c0,0-0.4-3.1,1.5-5.2
			C185.4,921.6,186.2,909.3,178.2,912.2z"/>
		<path class="st10" d="M184.7,926.4l-0.9,3.3c-0.1,0.4-0.4,0.7-0.9,0.7l0,0c-0.4,0-0.8-0.4-0.9-0.8l-0.4-3.4
			c-0.1-0.9,0.6-1.8,1.5-1.8l0,0C184.2,924.5,184.9,925.5,184.7,926.4z"/>
		<path class="st4" d="M173.7,918.6c0.2,0,0.3,0,0.4,0"/>
		<path class="st4" d="M174.2,918.6L174.2,918.6c6.2,0,8-2.4,7.7-5.2c-0.2-1.5-2.4-4.6-8.1-4.5c-2.3,0-6.7,0.7-8.8,1.9l1.1,0.8
			c-4.9,3.7-4,9.9-4,9.9c1.5,1.5,1.5,5.2,1.5,5.2l1.5-1.5c0,0-0.6-4.3,2.2-5.9c2.4-1.4,4.5-0.9,6.7-0.8"/>
		<path class="st16" d="M173.7,909c-2.3,0-6.7,0.7-8.8,1.9l1.1,0.8c-4.9,3.7-4,9.9-4,9.9c1.5,1.5,1.5,5.2,1.5,5.2l1.5-1.5
			c0,0-0.6-4.3,2.2-5.9c2.4-1.4,4.5-0.9,6.7-0.8"/>
		<path class="st9" d="M162.7,926.4l0.9,3.3c0.1,0.4,0.4,0.7,0.9,0.7l0,0c0.4,0,0.8-0.4,0.9-0.8l0.4-3.4c0.1-0.9-0.6-1.8-1.5-1.8
			l0,0C163.2,924.5,162.4,925.5,162.7,926.4z"/>
		<path class="st20" d="M178.9,949.7v1.5c2.5-0.5,4.7-1.4,6.9-2.5c-0.2-0.4-0.5-0.7-1-0.7h-4.7C179.4,948,178.9,948.8,178.9,949.7z"
			/>
	</g>
	<line class="st22" x1="60.8" y1="926.2" x2="78.2" y2="926.2"/>
	<line class="st22" x1="-9.6" y1="926.2" x2="8.6" y2="926.2"/>
	<line class="st22" x1="-88.1" y1="784.5" x2="-61.7" y2="784.5"/>
	<line class="st22" x1="87.8" y1="784.5" x2="70.3" y2="784.5"/>
	<line class="st22" x1="57.2" y1="784.6" x2="39.6" y2="784.6"/>
	<g>
		<ellipse class="st17" cx="35.1" cy="926.4" rx="25.5" ry="25.5"/>
		<path class="st18" d="M35.1,951.9c-14.1,0-25.5-11.4-25.5-25.5s11.4-25.5,25.5-25.5"/>
	</g>
	<path class="st19" d="M45.1,930.3l0.5,2c0.1,0.2,0.3,0.4,0.5,0.4l0,0c0.3,0,0.5-0.2,0.5-0.4l0.3-2c0.1-0.6-0.3-1-0.9-1l0,0
		C45.3,929.1,44.8,929.7,45.1,930.3z"/>
	<path class="st20" d="M35.5,909.2c-15.1,0-13.4,18.4-13.4,31.7c0,0.5,0.3,1,0.7,1.2c1.7,1,6.3,3.4,12.6,3.4s11-2.4,12.6-3.4
		c0.4-0.3,0.7-0.7,0.7-1.2C48.8,927.6,50.5,909.2,35.5,909.2z"/>
	<path class="st21" d="M35.5,909.2c-15.1,0-13.4,18.4-13.4,31.7c0,0.5,0.3,1,0.7,1.2c1.7,1,6.3,3.4,12.6,3.4"/>
	<path class="st5" d="M49.8,943.7l-8.5-3.5c-0.7-0.3-1.2-1-1.2-1.7v-2.3h-9.5v2.3c0,0.8-0.4,1.5-1.2,1.7l-8.5,3.5"/>
	<path class="st6" d="M30.6,936.1v2.3c0,0.8-0.4,1.5-1.2,1.7l-8.5,3.5c-1.1,0.4-1.7,1.5-1.7,2.6c4.4,3.5,9.9,5.6,15.9,5.6l0,0V936
		L30.6,936.1L30.6,936.1z"/>
	<path class="st20" d="M35.5,951.9c6.2-0.1,11.8-2.3,16.2-6c-0.2-1-0.8-1.8-1.7-2.2l-8.2-3.4l-6.2,2.7"/>
	<path class="st21" d="M35.5,942.9l-6.2-2.7l-8.2,3.4c-1.1,0.4-1.7,1.5-1.7,2.6c4.4,3.5,9.9,5.6,15.9,5.6c0.1,0,0.2,0,0.3,0"/>
	<g>
		<path class="st14" d="M35.5,943l-5.5-4.1c-0.3-0.3-0.8-0.2-1.1,0.2l-1.1,1.6l3.4,4.7c0.3,0.3,0.7,0.4,1.1,0.2L35.5,943z"/>
		<path class="st15" d="M35.5,943l5.5-4.1c0.3-0.3,0.8-0.2,1.1,0.2l1.1,1.6l-3.4,4.7c-0.3,0.3-0.7,0.4-1.1,0.2L35.5,943z"/>
	</g>
	<path class="st9" d="M40.1,917.8c-4.8,4.8-14.1,1-14.1,8.6l0.6,5.6c0.1,1.2,0.8,2.4,2,3l5.4,3c0.8,0.5,1.9,0.5,2.8,0l5.4-3
		c1.1-0.6,1.8-1.7,2-3l0.7-6.7c0.1-0.4,0.1-1,0.1-1.5C44.6,921.5,41.1,919.7,40.1,917.8z"/>
	<path class="st10" d="M35.5,938.4c0.5,0,1-0.1,1.4-0.3l5.4-3c1.1-0.6,1.8-1.7,2-3l0.7-6.7c0.1-0.4,0.1-1,0.1-1.5
		c-0.3-2.4-3.7-4.2-4.7-6.1c-1.3,1.3-3,2-4.8,2.4"/>
	<line class="st22" x1="60.7" y1="926.3" x2="49.5" y2="926.3"/>
	<line class="st22" x1="41.1" y1="926.4" x2="29.8" y2="926.4"/>
	<line class="st22" x1="-104.1" y1="784.5" x2="-121.6" y2="784.5"/>
	<line class="st22" x1="103.7" y1="784.5" x2="87.9" y2="784.5"/>
	<line class="st22" x1="8.1" y1="784.6" x2="-7.9" y2="784.6"/>
	<line class="st22" x1="-88.1" y1="784.5" x2="-104" y2="784.5"/>
	<line class="st22" x1="-103.2" y1="793.4" x2="-103.2" y2="793.4"/>
	<g>
		<circle class="st17" cx="-173.9" cy="926" r="25.5"/>
		<path class="st18" d="M-173.9,951.5c-14.1,0-25.5-11.4-25.5-25.5s11.4-25.5,25.5-25.5"/>
	</g>
	<path class="st4" d="M-173.6,908.8c-15.1,0-13.4,18.4-13.4,31.7c0,0.5,0.3,1,0.7,1.2c1.7,1,6.3,3.4,12.6,3.4s11-2.4,12.6-3.4
		c0.4-0.3,0.7-0.7,0.7-1.2C-160.2,927.2-158.6,908.8-173.6,908.8z"/>
	<path class="st16" d="M-173.6,908.8c-15.1,0-13.4,18.4-13.4,31.7c0,0.5,0.3,1,0.7,1.2c1.7,1,6.3,3.4,12.6,3.4"/>
	<path class="st5" d="M-159.2,943.3l-8.5-3.5c-0.7-0.3-1.2-1-1.2-1.7v-2.3h-9.5v2.3c0,0.8-0.4,1.5-1.2,1.7l-8.5,3.5"/>
	<path class="st6" d="M-178.4,935.7v2.3c0,0.8-0.4,1.5-1.2,1.7l-8.5,3.5c-1.1,0.4-1.7,1.5-1.7,2.6c4.4,3.5,9.9,5.6,15.9,5.6l0,0
		v-15.8L-178.4,935.7L-178.4,935.7z"/>
	<path class="st7" d="M-173.6,951.5c6.2-0.1,11.8-2.3,16.2-6c-0.2-1-0.8-1.8-1.7-2.2l-8.2-3.4l-6.2,2.7"/>
	<path class="st8" d="M-173.6,942.6l-6.2-2.7l-8.2,3.4c-1.1,0.4-1.7,1.5-1.7,2.6c4.4,3.5,9.9,5.6,15.9,5.6c0.1,0,0.2,0,0.3,0"/>
	<g>
		<path class="st21" d="M-173.6,942.6l-5.5-4.1c-0.3-0.3-0.8-0.2-1.1,0.2l-1.1,1.6l3.4,4.7c0.3,0.3,0.7,0.4,1.1,0.2L-173.6,942.6z"
			/>
		<path class="st20" d="M-173.6,942.6l5.5-4.1c0.3-0.3,0.8-0.2,1.1,0.2l1.1,1.6l-3.4,4.7c-0.3,0.3-0.7,0.4-1.1,0.2L-173.6,942.6z"/>
	</g>
	<path class="st9" d="M-168.9,917.4c-4.8,4.8-14.1,1-14.1,8.6l0.6,5.6c0.1,1.2,0.8,2.4,2,3l5.4,3c0.8,0.5,1.9,0.5,2.8,0l5.4-3
		c1.1-0.6,1.8-1.7,2-3l0.7-6.7c0.1-0.4,0.1-1,0.1-1.5C-164.6,921.1-167.9,919.3-168.9,917.4z"/>
	<path class="st10" d="M-173.6,938c0.5,0,1-0.1,1.4-0.3l5.4-3c1.1-0.6,1.8-1.7,2-3l0.7-6.7c0.1-0.4,0.1-1,0.1-1.5
		c-0.3-2.4-3.7-4.2-4.7-6.1c-1.3,1.3-3,2-4.8,2.4"/>
	<line class="st22" x1="-168.1" y1="926" x2="-179.2" y2="926"/>
	<line class="st0" x1="-146.1" y1="706.6" x2="145.7" y2="706.6"/>
	<line class="st0" x1="-48" y1="862.7" x2="-48" y2="862.7"/>
	<line class="st0" x1="-175.4" y1="864.4" x2="-141.6" y2="864.4"/>
	<line class="st0" x1="-106.6" y1="864.4" x2="-33.2" y2="864.4"/>
	<polygon class="st6" points="834.1,1041.4 834.1,979.6 675.2,979.6 675.2,1041.4 754.6,1112 	"/>
	<polyline class="st5" points="754.6,1106.4 834.1,1035.8 834.1,974 754.6,974 	"/>
	<path class="st23" d="M956.9,1070.3l-109.2-25.7c-1.7-0.4-3.2-1-4.6-1.8l-88.5,51.6l-85-54.1c-2.2,2.1-4.9,3.6-8,4.3l-109.2,25.7
		c-16,3.8-27.2,18-27.2,34.4v69.1c0,9.8,7.9,17.7,17.7,17.7h423.7c9.8,0,17.7-7.9,17.7-17.7v-69.1
		C984.1,1088.3,972.9,1074,956.9,1070.3z"/>
	<path class="st7" d="M755.3,1191.4h211.2c9.8,0,17.7-7.9,17.7-17.7v-69.1c0-16.4-11.3-30.6-27.2-34.4l-109.2-25.7
		c-1.7-0.4-3.2-1-4.6-1.8l-88.5,51.6"/>
	<path class="st8" d="M754.6,1094.3l-85-54.1c-2.2,2.1-4.9,3.6-8,4.3l-109.2,25.7c-16,3.8-27.2,18-27.2,34.4v69.1
		c0,9.8,7.9,17.7,17.7,17.7h212.5"/>
	<path class="st24" d="M639.9,776.6l7.7,169.2c0.7,15.8,8.5,30.5,21.1,40l36.5,27.4c9.2,6.9,20.3,10.6,31.8,10.6h35.3
		c11.5,0,22.6-3.7,31.8-10.6l36.5-27.4c12.7-9.5,20.4-24.2,21.1-40l7.7-169.2C869.4,776.6,639.9,776.6,639.9,776.6z"/>
	<polygon class="st11" points="776.7,1191.4 732.6,1191.4 738.1,1112 771.2,1112 	"/>
	<polyline class="st12" points="754.6,1112 771.2,1112 776.7,1191.4 754.6,1191.4 	"/>
	<path class="st9" d="M640.5,776.6l7.7,169.2c0.7,15.8,8.5,30.5,21.1,40l36.5,27.4c9.2,6.9,20.3,10.6,31.8,10.6h35.3
		c11.5,0,22.6-3.7,31.8-10.6l36.5-27.4c12.7-9.5,20.4-24.2,21.1-40l7.7-169.2C870,776.6,640.5,776.6,640.5,776.6z"/>
	<path class="st10" d="M755.3,1023.7H773c11.5,0,22.6-3.7,31.8-10.6l36.5-27.4c12.7-9.5,20.4-24.2,21.1-40l7.7-169.2
		c0,0-57.4,0-114.8,0"/>
	<path class="st25" d="M776.7,1094.3h-44.1v16.6c0,5.5,4.4,9.9,9.9,9.9h24.4c5.5,0,9.9-4.4,9.9-9.9L776.7,1094.3L776.7,1094.3z"/>
	<path class="st21" d="M754.6,1094.3h-22.1v16.6c0,5.5,4.4,9.9,9.9,9.9h12.2"/>
	<path class="st20" d="M754.6,1120.8h12.2c5.5,0,9.9-4.4,9.9-9.9v-16.6l0,0h-22.1"/>
	<g>
		<path class="st14" d="M673.9,1021.7l80.7,72.6c0,0-22.6,11.4-50.5,34.4c-5.8,4.7-14.5,2.8-17.5-4l-37.9-83.4l12-18
			C663.7,1018.9,669.9,1018.1,673.9,1021.7z"/>
		<path class="st15" d="M835.3,1021.7l-80.7,72.6c0,0,22.6,11.4,50.5,34.4c5.8,4.7,14.5,2.8,17.5-4l37.9-83.4l-12-18
			C845.6,1018.9,839.3,1018.1,835.3,1021.7z"/>
	</g>
	<path class="st20" d="M808.1,718.1l8.3,58.5c37.8,7.6,43.2,66.8,44,83.8c0.1,3.1,1.1,6,2.8,8.6l14.4,22.4c0,0-4.9-37,17.7-61.8
		C895.3,829.5,903,682.8,808.1,718.1z"/>
	<path class="st10" d="M886.5,887.6l-10,39.9c-1.2,4.7-5.4,8-10.3,8l0,0c-5.4,0-9.9-4-10.5-9.3l-5.1-40.8
		c-1.4-10.9,7.1-20.6,18.1-20.6l0,0C880.6,864.8,889.4,876,886.5,887.6z"/>
	<path class="st21" d="M648.3,702.3l13.1,8.9c-59,43.6-48,118.3-48,118.3c17.7,17.7,17.7,61.8,17.7,61.8l17.7-17.7
		c0,0-6.8-51,26.5-70.6c30.9-18.2,57.9-8.8,85.5-8.8c73.9,0,94.6-27.9,91-61.8c-1.9-17.6-28.7-54.1-97.1-53
		C727,679.9,675.2,688.3,648.3,702.3z"/>
	<path class="st21" d="M648.3,702.3l13.1,8.9c-59,43.6-48,118.3-48,118.3c17.7,17.7,17.7,61.8,17.7,61.8l17.7-17.7
		c0,0-6.8-51,26.5-70.6c28.9-17,54.4-9.9,80.1-8.9"/>
	<path class="st20" d="M755.3,794.1c1.8,0.1,3.6,0.1,5.4,0.1c73.9,0,94.6-27.9,91-61.8c-1.9-17.6-28.7-54.1-97.1-53"/>
	<path class="st9" d="M622.8,887.6l10,39.9c1.2,4.7,5.4,8,10.3,8l0,0c5.4,0,9.9-4,10.5-9.3l5.1-40.8c1.4-10.9-7.1-20.6-18.1-20.6
		l0,0C628.6,864.8,619.9,876,622.8,887.6z"/>
	<path class="st15" d="M869.4,1173.8h-61.8c-4.9,0-8.8,4-8.8,8.8v8.8h79.4v-8.8C878.2,1177.7,874.3,1173.8,869.4,1173.8z"/>
	<polygon class="st6" points="252.4,243 252.4,201.5 145.7,201.5 145.7,243 199,290.4 	"/>
	<polyline class="st5" points="199.5,286.6 252.8,239.2 252.8,197.8 199.5,197.8 	"/>
	<path class="st23" d="M334.8,262.4l-73.3-17.3c-1.1-0.2-2.1-0.7-3.1-1.2L199,278.5L142,242.1c-1.4,1.4-3.3,2.4-5.4,2.9l-73.3,17.3
		c-10.7,2.5-18.3,12.1-18.3,23v46.4c0,6.5,5.3,11.9,11.9,11.9h284.4c6.5,0,11.9-5.3,11.9-11.9v-46.3
		C353.1,274.5,345.5,264.9,334.8,262.4z"/>
	<path class="st20" d="M199.5,343.7h141.7c6.5,0,11.9-5.3,11.9-11.9v-46.4c0-11-7.6-20.5-18.3-23l-73.3-17.3
		c-1.1-0.2-2.1-0.7-3.1-1.2L199,278.5"/>
	<path class="st21" d="M199,278.6L142,242.2c-1.4,1.4-3.3,2.4-5.4,2.9l-73.3,17.3c-10.7,2.5-18.3,12.1-18.3,23v46.4
		c0,6.5,5.3,11.9,11.9,11.9h142.6"/>
	<path class="st24" d="M122,65.2l5.2,113.6c0.4,10.6,5.7,20.5,14.2,26.8l24.5,18.4c6.2,4.6,13.7,7.2,21.4,7.2h23.7
		c7.7,0,15.2-2.5,21.4-7.2l24.5-18.4c8.5-6.4,13.7-16.2,14.2-26.8l5.2-113.6C276.1,65.2,122,65.2,122,65.2z"/>
	<path class="st9" d="M122.5,65.2l5.2,113.6c0.4,10.6,5.7,20.5,14.2,26.8l24.5,18.4c6.2,4.6,13.7,7.2,21.4,7.2h23.7
		c7.7,0,15.2-2.5,21.4-7.2l24.5-18.4c8.5-6.4,13.7-16.2,14.2-26.8l5.2-113.6C276.5,65.2,122.5,65.2,122.5,65.2z"/>
	<path class="st10" d="M199.5,231.2h11.9c7.7,0,15.2-2.5,21.4-7.2l24.5-18.4c8.5-6.4,13.7-16.2,14.2-26.8l5.2-113.6c0,0-38.5,0-77,0
		"/>
	<path class="st4" d="M235,26l5.5,39.2c25.3,5.1,29,44.8,29.5,56.2c0.1,2.1,0.8,4.1,1.9,5.8l9.7,15c0,0-3.3-24.8,11.9-41.4
		C293.5,100.8,298.7,2.3,235,26z"/>
	<path class="st10" d="M287.5,139.7l-6.7,26.8c-0.8,3.2-3.6,5.4-6.9,5.4l0,0c-3.6,0-6.6-2.6-7.1-6.3l-3.4-27.3
		c-0.9-7.3,4.8-13.8,12.2-13.8l0,0C283.7,124.5,289.5,132,287.5,139.7z"/>
	<path class="st16" d="M127.8,15.4l8.8,6c-39.7,29.2-32.2,79.4-32.2,79.4c11.9,11.9,11.9,41.4,11.9,41.4l11.9-11.9
		c0,0-4.5-34.3,17.7-47.4c20.7-12.2,38.9-6,57.4-6c49.6,0,63.5-18.7,61-41.4C263.2,23.8,245.1-0.8,199.3,0
		C180.5,0.4,145.7,6,127.8,15.4z"/>
	<path class="st16" d="M127.8,15.4l8.8,6c-39.7,29.2-32.2,79.4-32.2,79.4c11.9,11.9,11.9,41.4,11.9,41.4l11.9-11.9
		c0,0-4.5-34.3,17.7-47.4c19.4-11.5,36.5-6.7,53.8-6"/>
	<path class="st4" d="M199.5,77c1.2,0,2.4,0.1,3.6,0.1c49.6,0,63.5-18.7,61-41.4C263,23.9,244.9-0.7,199,0.1"/>
	<path class="st9" d="M110.6,139.7l6.7,26.8c0.8,3.2,3.6,5.4,6.9,5.4l0,0c3.6,0,6.6-2.6,7.1-6.3l3.4-27.3
		c0.9-7.3-4.8-13.8-12.2-13.8l0,0C114.5,124.5,108.7,132,110.6,139.7z"/>
	<path class="st15" d="M276.1,331.9h-41.4c-3.3,0-6,2.6-6,6v6H282v-6C282,334.5,279.4,331.9,276.1,331.9z"/>
	<rect x="45" y="322.9" class="st21" width="154" height="77.1"/>
	<rect x="198.6" y="322.9" class="st20" width="154.5" height="77.1"/>
	<g class="st26">
		<polygon class="st27" points="212.3,400 185.4,400 188.7,263.5 208.9,263.5 		"/>
		<polyline class="st28" points="198.8,263.5 208.9,263.5 212.3,400 198.8,400 		"/>
	</g>
	<path class="st20" d="M213.9,278.6h-29.6v11.1c0,3.6,3,6.6,6.6,6.6h16.4c3.6,0,6.6-3,6.6-6.6V278.6L213.9,278.6z"/>
	<g>
		<path class="st21" d="M199,278.6h-14.8v11.1c0,3.6,3,6.6,6.6,6.6h8.2"/>
	</g>
	<g>
		<path class="st14" d="M144.9,229.8l54.1,48.7c0,0-15.2,7.6-33.8,23.1c-3.9,3.2-9.7,1.9-11.8-2.6L128,243l8-12.1
			C138,227.9,142.2,227.3,144.9,229.8z"/>
		<path class="st15" d="M253.3,229.8l-54.1,48.7c0,0,15.2,7.6,33.8,23.1c3.9,3.2,9.7,1.9,11.8-2.6l25.5-56l-8-12.1
			C260.1,227.9,255.9,227.3,253.3,229.8z"/>
	</g>
	<g>
		<g>
			<polygon class="st17" points="111.4,400 199.6,379.9 199.6,235.3 111.4,255.5 			"/>
			<polygon class="st29" points="199.6,235.3 287.8,255.5 287.8,400 199.6,379.9 			"/>
			<g>
				<polygon class="st29" points="22.3,238.8 111.4,255.5 111.4,399.2 22.3,379.2 				"/>
				<polygon class="st17" points="287.8,255.3 376,241.8 376,386.6 287.8,400 				"/>
			</g>
		</g>
	</g>
</g>
<g id="Слой_2_1_">
</g>
</svg>
