<?xml version="1.0" encoding="utf-8"?>
<!-- Generator: Adobe Illustrator 22.0.1, SVG Export Plug-In . SVG Version: 6.00 Build 0)  -->
<svg version="1.1" id="Слой_1" xmlns="http://www.w3.org/2000/svg" xmlns:xlink="http://www.w3.org/1999/xlink" x="0px" y="0px"
	 viewBox="0 0 398.9 400" style="enable-background:new 0 0 398.9 400;" xml:space="preserve">
<style type="text/css">
	.st0{fill:none;stroke:#4E8E7D;stroke-width:4;stroke-miterlimit:10;}
	.st1{fill:none;stroke:#375462;stroke-miterlimit:10;}
	.st2{fill:#4A86BF;}
	.st3{fill:#4790CF;}
	.st4{fill:#684A4A;}
	.st5{fill:#D4A779;}
	.st6{fill:#EAB981;}
	.st7{fill:#C3D3D6;}
	.st8{fill:#D7E2E5;}
	.st9{fill:#F4CF9C;}
	.st10{fill:#E3BD8D;}
	.st11{fill:#2E4149;}
	.st12{fill:#2C3A43;}
	.st13{fill:#1C2429;}
	.st14{fill:#C8D0D3;}
	.st15{fill:#8A9699;}
	.st16{fill:#795858;}
	.st17{fill:#E1AD7B;}
	.st18{fill:#192023;}
	.st19{fill:#1D252A;}
	.st20{fill:none;}
</style>
<line class="st0" x1="199.8" y1="113.8" x2="199.8" y2="154.7"/>
<line class="st0" x1="247.6" y1="154.3" x2="247.6" y2="195.3"/>
<line class="st0" x1="343.2" y1="152.9" x2="343.2" y2="194.5"/>
<line class="st0" x1="55.5" y1="152.9" x2="55.5" y2="194.5"/>
<line class="st0" x1="151.5" y1="152.9" x2="151.5" y2="194.5"/>
<line class="st1" x1="198.7" y1="67" x2="198.7" y2="78.5"/>
<line class="st0" x1="164.4" y1="312.2" x2="164.4" y2="353.1"/>
<line class="st0" x1="151.5" y1="271.6" x2="151.5" y2="312.5"/>
<line class="st0" x1="95" y1="310.8" x2="95" y2="359.9"/>
<line class="st0" x1="56" y1="272.4" x2="56" y2="314.3"/>
<line class="st0" x1="25.7" y1="310.8" x2="25.7" y2="349"/>
<circle class="st2" cx="199.8" cy="58.7" r="58.2"/>
<path class="st3" d="M199.8,116.9c-32.1,0-58.2-26-58.2-58.2s26-58.2,58.2-58.2"/>
<path class="st4" d="M179.8,24.2l2.5,1.7c-11.1,8.1-9,22.2-9,22.2c3.3,3.3,3.3,11.6,3.3,11.6l3.3-3.3c0,0-1.3-9.5,5-13.2
	c5.8-3.4,10.9-1.7,16-1.7c13.8,0,17.8-5.3,17.1-11.6c-0.4-3.3-5.4-10.2-18.2-10C194.5,20,184.8,21.6,179.8,24.2z"/>
<polyline class="st5" points="199.8,101.8 214.8,88.5 214.8,76.8 199.8,76.8 "/>
<polyline class="st6" points="199.8,76.8 184.7,76.8 184.7,88.5 199.8,101.8 "/>
<path class="st7" d="M242.7,98c-0.8-1.9-2.5-3.5-4.6-4l-20.7-5c-0.4-0.1-0.6-0.2-0.9-0.4l-16.7,9.8v18.4
	C216.8,116.9,232.1,109.6,242.7,98z"/>
<path class="st8" d="M182.2,89.1L161.5,94c-2.2,0.5-3.9,2.1-4.7,4.2c9.5,10.4,22.8,17.4,37.7,18.7h5.3V98.5l-16.1-10.2
	C183.2,88.7,182.7,88.9,182.2,89.1z"/>
<path class="st9" d="M199.8,38.3c-10.5,0-20.7,0-20.7,0l1.5,32.1c0.2,3,1.6,5.8,4,7.5l6.9,5.2c1.8,1.3,3.9,2,6,2h2.3"/>
<path class="st10" d="M199.8,85.1h4.4c2.2,0,4.3-0.7,6-2l6.9-5.2c2.4-1.8,3.9-4.6,4-7.5l1.5-32.1c0,0-11.6,0-22.8,0"/>
<polyline class="st11" points="199.8,101.8 202.9,101.8 204,116.9 195.6,116.9 196.6,101.8 199.8,101.8 "/>
<polyline class="st12" points="199.8,101.8 202.9,101.8 204,116.9 199.8,116.9 "/>
<path class="st13" d="M204,98.5h-8.3v3.2c0,1.1,0.9,1.8,1.8,1.8h4.6c1.1,0,1.8-0.9,1.8-1.8L204,98.5L204,98.5z"/>
<g>
	<path class="st14" d="M184.4,84.7l15.2,13.7c0,0-4.3,2.2-9.5,6.5c-1.1,0.9-2.7,0.5-3.3-0.8l-7.2-15.8l2.3-3.4
		C182.5,84.2,183.7,84,184.4,84.7z"/>
	<path class="st15" d="M199.8,98.5c0,0,4.3,2.2,9.5,6.5c1.1,0.9,2.7,0.5,3.3-0.8l7.2-15.8l-2.3-3.4c-0.5-0.9-1.8-1-2.5-0.4
		L199.8,98.5"/>
</g>
<path class="st4" d="M209.9,27.3l1.6,11c7.2,1.4,8.1,12.6,8.3,15.9c0,0.6,0.2,1.1,0.5,1.7l2.7,4.2c0,0-1-7,3.3-11.7
	C226.4,48.4,227.9,20.5,209.9,27.3z"/>
<path class="st10" d="M224.7,59.3l-1.9,7.5c-0.3,0.9-1.1,1.5-1.9,1.5l0,0c-1.1,0-1.8-0.8-2-1.8l-1-7.7c-0.3-2.1,1.3-3.9,3.4-3.9l0,0
	C223.6,55,225.3,57.1,224.7,59.3z"/>
<path class="st4" d="M199.8,41.6c0.4,0,0.6,0,1,0"/>
<path class="st4" d="M200.7,41.6c0.1,0,0.1,0,0.2,0c14,0,18-5.3,17.3-11.7c-0.4-3.3-5.4-10.2-18.4-10c-5.3,0.1-15.1,1.7-20.1,4.3
	l2.5,1.7c-11.2,8.2-9.1,22.4-9.1,22.4c3.3,3.3,3.3,11.7,3.3,11.7l3.3-3.3c0,0-1.3-9.6,5-13.4c5.4-3.2,10.2-1.9,15.1-1.7"/>
<path class="st16" d="M199.8,19.9c-5.3,0.1-15.1,1.7-20.1,4.3l2.5,1.7c-11.2,8.2-9.1,22.4-9.1,22.4c3.3,3.3,3.3,11.7,3.3,11.7
	l3.3-3.3c0,0-1.3-9.6,5-13.4c5.4-3.2,10.2-1.9,15.1-1.7"/>
<path class="st9" d="M174.8,59.3l1.9,7.5c0.3,0.9,1.1,1.5,1.9,1.5l0,0c1.1,0,1.8-0.8,2-1.8l1-7.7c0.3-2.1-1.3-3.9-3.4-3.9l0,0
	C175.9,55,174.3,57.1,174.8,59.3z"/>
<g>
	<line class="st0" x1="235.2" y1="312.2" x2="235.2" y2="353.1"/>
	<line class="st0" x1="248" y1="271.6" x2="248" y2="312.5"/>
	<line class="st0" x1="303.6" y1="310.8" x2="303.6" y2="359.9"/>
	<line class="st0" x1="343.7" y1="272.7" x2="343.7" y2="314.5"/>
	<line class="st0" x1="373.3" y1="310.8" x2="373.3" y2="349"/>
	<line class="st0" x1="248" y1="310.8" x2="248" y2="310.8"/>
	<line class="st0" x1="375.3" y1="312.5" x2="344.8" y2="312.5"/>
	<line class="st0" x1="305.5" y1="312.5" x2="233.1" y2="312.5"/>
</g>
<g>
	<g>
		<circle class="st2" cx="55.5" cy="232.5" r="39.9"/>
		<path class="st3" d="M55.5,272.4c-22.1,0-39.9-17.9-39.9-39.9s17.9-39.9,39.9-39.9"/>
	</g>
	<path class="st17" d="M70.9,238.6l0.8,3.2c0.1,0.4,0.4,0.6,0.8,0.6l0,0c0.4,0,0.8-0.4,0.8-0.7l0.4-3.2c0.1-0.9-0.5-1.6-1.4-1.6l0,0
		C71.5,236.8,70.8,237.7,70.9,238.6z"/>
	<path class="st18" d="M55.9,205.6c-23.6,0-21,28.7-20.9,49.6c0,0.8,0.4,1.5,1.1,1.9c2.6,1.6,9.8,5.3,19.8,5.3s17.2-3.7,19.8-5.3
		c0.7-0.4,1.1-1.1,1.1-1.9C76.9,234.3,79.5,205.6,55.9,205.6z"/>
	<path class="st19" d="M55.9,205.6c-23.6,0-21,28.7-20.9,49.6c0,0.8,0.4,1.5,1.1,1.9c2.6,1.6,9.8,5.3,19.8,5.3"/>
	<path class="st5" d="M78.5,259.7l-13.3-5.5c-1.1-0.4-1.8-1.6-1.8-2.7v-3.6h-15v3.6c0,1.2-0.7,2.3-1.8,2.7l-13.3,5.5"/>
	<path class="st6" d="M48.4,247.8v3.6c0,1.2-0.7,2.3-1.8,2.7l-13.3,5.5c-1.7,0.7-2.7,2.3-2.7,4c6.8,5.4,15.5,8.8,25,8.8l0,0v-24.7
		L48.4,247.8L48.4,247.8z"/>
	<path class="st7" d="M55.9,272.4c9.6-0.1,18.4-3.6,25.3-9.4c-0.3-1.5-1.2-2.8-2.7-3.4l-12.9-5.3l-9.7,4.2"/>
	<path class="st8" d="M55.9,258.5l-9.7-4.2l-12.9,5.3c-1.7,0.7-2.7,2.3-2.7,4c6.8,5.4,15.5,8.8,25,8.8c0.2,0,0.3,0,0.4,0"/>
	<g>
		<path class="st19" d="M55.9,258.5l-8.6-6.4c-0.5-0.4-1.3-0.3-1.8,0.3l-1.7,2.5l5.3,7.4c0.4,0.5,1.1,0.7,1.8,0.3L55.9,258.5z"/>
		<path class="st18" d="M55.9,258.5l8.6-6.4c0.5-0.4,1.3-0.3,1.8,0.3l1.7,2.5l-5.3,7.4c-0.4,0.5-1.1,0.7-1.8,0.3L55.9,258.5z"/>
	</g>
	<path class="st9" d="M63.3,219.1c-7.4,7.4-22.1,1.5-22.1,13.4l1,8.8c0.2,1.9,1.3,3.7,3.1,4.6l8.5,4.7c1.3,0.8,3,0.8,4.4,0l8.5-4.7
		c1.8-1,2.9-2.7,3.1-4.6l1.1-10.4c0.1-0.7,0.1-1.5,0.1-2.3C70.2,224.8,64.8,222,63.3,219.1z"/>
	<path class="st10" d="M55.9,251.2c0.8,0,1.5-0.2,2.2-0.5l8.5-4.7c1.8-1,2.9-2.7,3.1-4.6l1.1-10.4c0.1-0.7,0.1-1.5,0.1-2.3
		c-0.5-3.8-5.9-6.6-7.4-9.5c-2.1,2.1-4.7,3.2-7.4,3.8"/>
</g>
<g>
	<circle class="st2" cx="151.5" cy="232.6" r="39.9"/>
	<path class="st3" d="M151.5,272.5c-22.1,0-39.9-17.9-39.9-39.9s17.9-39.9,39.9-39.9"/>
	<path class="st4" d="M137.8,208.8l1.7,1.1c-7.6,5.6-6.2,15.2-6.2,15.2c2.3,2.3,2.3,8,2.3,8l2.3-2.3c0,0-0.9-6.6,3.4-9.1
		c4-2.4,7.4-1.1,11-1.1c9.5,0,12.2-3.6,11.7-8c-0.3-2.3-3.7-7-12.5-6.8C147.9,205.9,141.2,207,137.8,208.8z"/>
	<polyline class="st5" points="151.5,262.2 161.9,253 161.9,244.9 151.5,244.9 	"/>
	<polyline class="st6" points="151.5,244.9 141.2,244.9 141.2,253 151.5,262.2 	"/>
	<path class="st18" d="M181,259.5c-0.5-1.3-1.7-2.4-3.2-2.7l-14.2-3.4c-0.2-0.1-0.4-0.2-0.6-0.3l-11.6,6.7l-0.1,12.6
		C163.2,272.5,173.7,267.5,181,259.5z"/>
	<path class="st19" d="M139.3,253.4l-14.2,3.3c-1.5,0.4-2.7,1.5-3.2,2.9c6.6,7.2,15.7,12,25.9,12.9h3.7v-12.6l-11-7
		C140.1,253,139.8,253.3,139.3,253.4z"/>
	<path class="st9" d="M151.5,218.5c-7.2,0-14.2,0-14.2,0l1,22c0.1,2,1.1,3.9,2.7,5.2l4.7,3.6c1.2,0.9,2.6,1.4,4.1,1.4h1.6"/>
	<path class="st10" d="M151.5,250.7h3c1.5,0,3-0.5,4.1-1.4l4.7-3.6c1.7-1.2,2.6-3.2,2.7-5.2l1-22c0,0-8,0-15.7,0"/>
	<g>
		<path class="st14" d="M141,250.4l10.5,9.5c0,0-3,1.5-6.6,4.5c-0.8,0.6-1.8,0.4-2.3-0.5l-4.9-10.9l1.6-2.4
			C139.6,250.1,140.5,249.9,141,250.4z"/>
		<path class="st15" d="M151.5,259.9c0,0,3,1.5,6.6,4.5c0.8,0.6,1.8,0.4,2.3-0.5l4.9-10.9l-1.6-2.4c-0.4-0.6-1.2-0.7-1.8-0.2
			L151.5,259.9"/>
	</g>
	<path class="st4" d="M158.4,210.9l1.1,7.6c4.9,1,5.6,8.7,5.7,10.9c0,0.4,0.2,0.8,0.4,1.1l1.8,2.9c0,0-0.6-4.8,2.3-8.1
		C169.8,225.4,170.8,206.3,158.4,210.9z"/>
	<path class="st10" d="M168.7,232.9l-1.3,5.2c-0.2,0.6-0.7,1.1-1.3,1.1l0,0c-0.7,0-1.3-0.5-1.4-1.2l-0.7-5.3c-0.2-1.4,1-2.7,2.4-2.7
		l0,0C167.9,230,169,231.4,168.7,232.9z"/>
	<path class="st4" d="M151.5,220.7c0.3,0,0.4,0,0.7,0"/>
	<path class="st4" d="M152.1,220.8L152.1,220.8c9.7,0,12.4-3.6,11.9-8.1c-0.3-2.3-3.8-7-12.6-6.9c-3.6,0.1-10.3,1.1-13.8,3l1.7,1.1
		c-7.7,5.7-6.2,15.4-6.2,15.4c2.3,2.3,2.3,8.1,2.3,8.1l2.3-2.3c0,0-0.9-6.7,3.4-9.2c3.8-2.2,7-1.3,10.3-1.1"/>
	<path class="st16" d="M151.5,205.8c-3.6,0.1-10.3,1.1-13.8,3l1.7,1.1c-7.7,5.7-6.2,15.4-6.2,15.4c2.3,2.3,2.3,8.1,2.3,8.1l2.3-2.3
		c0,0-0.9-6.7,3.4-9.2c3.8-2.2,7-1.3,10.3-1.1"/>
	<path class="st9" d="M134.4,232.9l1.3,5.2c0.2,0.6,0.7,1.1,1.3,1.1l0,0c0.7,0,1.3-0.5,1.4-1.2l0.7-5.3c0.2-1.4-1-2.7-2.4-2.7l0,0
		C135.1,230,133.9,231.4,134.4,232.9z"/>
	<path class="st15" d="M159.7,269.2v2.4c3.8-0.8,7.4-2.1,10.8-3.9c-0.4-0.6-0.9-1.1-1.5-1.1h-7.4
		C160.5,266.6,159.7,267.8,159.7,269.2z"/>
</g>
<g>
	<circle class="st2" cx="247.5" cy="232.7" r="39.9"/>
	<path class="st3" d="M247.5,272.7c-22.1,0-39.9-17.9-39.9-39.9c0-22.1,17.9-39.9,39.9-39.9"/>
</g>
<path class="st17" d="M263,238.9l0.8,3.2c0.1,0.4,0.4,0.6,0.8,0.6l0,0c0.4,0,0.8-0.4,0.8-0.7l0.4-3.2c0.1-0.9-0.5-1.6-1.4-1.6l0,0
	C263.4,237,262.7,237.9,263,238.9z"/>
<path class="st4" d="M247.9,205.8c-23.6,0-21,28.7-20.9,49.6c0,0.8,0.4,1.5,1.1,1.9c2.6,1.6,9.8,5.3,19.8,5.3
	c10,0,17.2-3.7,19.8-5.3c0.7-0.4,1.1-1.1,1.1-1.9C268.9,234.6,271.5,205.8,247.9,205.8z"/>
<path class="st16" d="M247.9,205.8c-23.6,0-21,28.7-20.9,49.6c0,0.8,0.4,1.5,1.1,1.9c2.6,1.6,9.8,5.3,19.8,5.3"/>
<path class="st5" d="M270.5,259.9l-13.3-5.5c-1.1-0.4-1.8-1.6-1.8-2.7v-3.6h-14.9v3.6c0,1.2-0.7,2.3-1.8,2.7l-13.3,5.5"/>
<path class="st6" d="M240.5,248v3.6c0,1.2-0.7,2.3-1.8,2.7l-13.3,5.5c-1.7,0.7-2.7,2.3-2.7,4c6.8,5.4,15.5,8.8,25,8.8l0,0v-24.7
	L240.5,248L240.5,248z"/>
<path class="st18" d="M247.9,272.7c9.6-0.1,18.4-3.6,25.3-9.4c-0.3-1.5-1.2-2.8-2.7-3.4l-12.9-5.3l-9.7,4.2"/>
<path class="st19" d="M247.9,258.7l-9.7-4.2l-12.9,5.3c-1.7,0.7-2.7,2.3-2.7,4c6.8,5.4,15.5,8.8,25,8.8c0.2,0,0.3,0,0.4,0"/>
<g>
	<path class="st14" d="M247.9,258.7l-8.6-6.4c-0.5-0.4-1.3-0.3-1.8,0.3l-1.7,2.5l5.3,7.4c0.4,0.5,1.1,0.7,1.8,0.3L247.9,258.7z"/>
	<path class="st15" d="M247.9,258.7l8.6-6.4c0.5-0.4,1.3-0.3,1.8,0.3l1.7,2.5l-5.3,7.4c-0.4,0.5-1.1,0.7-1.8,0.3L247.9,258.7z"/>
</g>
<path class="st9" d="M255.4,219.2c-7.4,7.4-22.1,1.5-22.1,13.4l1,8.8c0.2,1.9,1.3,3.7,3.1,4.6l8.5,4.7c1.3,0.8,3,0.8,4.4,0l8.5-4.7
	c1.8-1,2.9-2.7,3.1-4.6L263,231c0.1-0.7,0.1-1.5,0.1-2.3C262.2,225,256.9,222.2,255.4,219.2z"/>
<path class="st10" d="M247.9,251.5c0.8,0,1.5-0.2,2.2-0.5l8.5-4.7c1.8-1,2.9-2.7,3.1-4.6l1.1-10.4c0.1-0.7,0.1-1.5,0.1-2.3
	c-0.5-3.8-5.9-6.6-7.4-9.5c-2.1,2.1-4.7,3.2-7.4,3.8"/>
<g>
	<g>
		<ellipse class="st2" cx="343.3" cy="232.6" rx="39.9" ry="39.9"/>
		<path class="st3" d="M343.2,272.5c-22.1,0-39.9-17.9-39.9-39.9s17.9-39.9,39.9-39.9"/>
	</g>
	<path class="st17" d="M358.7,238.7l0.8,3.2c0.1,0.4,0.4,0.6,0.8,0.6l0,0c0.4,0,0.8-0.4,0.8-0.7l0.4-3.2c0.1-0.9-0.5-1.6-1.4-1.6
		l0,0C359.2,236.8,358.5,237.7,358.7,238.7z"/>
	<path class="st18" d="M343.7,205.7c-23.6,0-21,28.7-20.9,49.6c0,0.8,0.4,1.5,1.1,1.9c2.6,1.6,9.8,5.3,19.8,5.3s17.2-3.7,19.8-5.3
		c0.7-0.4,1.1-1.1,1.1-1.9C364.7,234.4,367.3,205.7,343.7,205.7z"/>
	<path class="st19" d="M343.7,205.7c-23.6,0-21,28.7-20.9,49.6c0,0.8,0.4,1.5,1.1,1.9c2.6,1.6,9.8,5.3,19.8,5.3"/>
	<path class="st5" d="M366.3,259.7l-13.3-5.5c-1.1-0.4-1.8-1.6-1.8-2.7v-3.6h-14.9v3.6c0,1.2-0.7,2.3-1.8,2.7l-13.3,5.5"/>
	<path class="st6" d="M336.2,247.8v3.6c0,1.2-0.7,2.3-1.8,2.7l-13.3,5.5c-1.7,0.7-2.7,2.3-2.7,4c6.8,5.4,15.5,8.8,25,8.8l0,0v-24.7
		L336.2,247.8L336.2,247.8z"/>
	<path class="st7" d="M343.7,272.5c9.6-0.1,18.4-3.6,25.3-9.4c-0.3-1.5-1.2-2.8-2.7-3.4l-12.9-5.3l-9.7,4.2"/>
	<path class="st8" d="M343.7,258.6l-9.7-4.2l-12.9,5.3c-1.7,0.7-2.7,2.3-2.7,4c6.8,5.4,15.5,8.8,25,8.8c0.2,0,0.3,0,0.4,0"/>
	<g>
		<path class="st14" d="M343.7,258.6l-8.6-6.4c-0.5-0.4-1.3-0.3-1.8,0.3l-1.7,2.5l5.3,7.4c0.4,0.5,1.1,0.7,1.8,0.3L343.7,258.6z"/>
		<path class="st15" d="M343.7,258.6l8.6-6.4c0.5-0.4,1.3-0.3,1.8,0.3l1.7,2.5l-5.3,7.4c-0.4,0.5-1.1,0.7-1.8,0.3L343.7,258.6z"/>
	</g>
	<path class="st9" d="M351.1,219.1c-7.4,7.4-22.1,1.5-22.1,13.4l1,8.8c0.2,1.9,1.3,3.7,3.1,4.6l8.5,4.7c1.3,0.8,3,0.8,4.4,0l8.5-4.7
		c1.8-1,2.9-2.7,3.1-4.6l1.1-10.4c0.1-0.7,0.1-1.5,0.1-2.3C357.9,224.8,352.6,222,351.1,219.1z"/>
	<path class="st10" d="M343.7,251.3c0.8,0,1.5-0.2,2.2-0.5l8.5-4.7c1.8-1,2.9-2.7,3.1-4.6l1.1-10.4c0.1-0.7,0.1-1.5,0.1-2.3
		c-0.5-3.8-5.9-6.6-7.4-9.5c-2.1,2.1-4.7,3.2-7.4,3.8"/>
</g>
<g>
	<circle class="st2" cx="94.8" cy="374.3" r="25.7"/>
	<path class="st3" d="M94.8,399.9c-14.2,0-25.7-11.5-25.7-25.7s11.5-25.7,25.7-25.7"/>
	<path class="st4" d="M85.9,359l1.1,0.7c-4.9,3.6-3.9,9.8-3.9,9.8c1.5,1.5,1.5,5.1,1.5,5.1l1.5-1.5c0,0-0.5-4.2,2.2-5.9
		c2.5-1.5,4.8-0.7,7.1-0.7c6.1,0,7.9-2.3,7.5-5.1c-0.2-1.5-2.4-4.5-8.1-4.4C92.4,357.2,88.1,357.9,85.9,359z"/>
	<polyline class="st5" points="94.8,393.3 101.4,387.4 101.4,382.2 94.8,382.2 	"/>
	<polyline class="st6" points="94.8,382.2 88.1,382.2 88.1,387.4 94.8,393.3 	"/>
	<path class="st7" d="M113.7,391.6c-0.4-0.9-1.1-1.6-2-1.8l-9.1-2.2c-0.2,0-0.3-0.1-0.4-0.2l-7.4,4.3v8.1
		C102.2,399.9,109,396.7,113.7,391.6z"/>
	<path class="st8" d="M87,387.7l-9.1,2.2c-1,0.3-1.8,1-2.1,1.8c4.2,4.6,10.1,7.7,16.6,8.3h2.4v-8.1l-7.1-4.6
		C87.5,387.5,87.2,387.6,87,387.7z"/>
	<path class="st9" d="M94.8,365.2c-4.6,0-9.1,0-9.1,0l0.6,14.2c0.1,1.3,0.7,2.5,1.8,3.3l3.1,2.3c0.8,0.6,1.7,0.9,2.6,0.9h1.1"/>
	<path class="st10" d="M94.8,385.9h1.9c1,0,1.9-0.4,2.6-0.9l3.1-2.3c1.1-0.8,1.7-2,1.8-3.3l0.6-14.2c0,0-5.1,0-10.1,0"/>
	<g>
		<path class="st19" d="M88,385.7l6.7,6c0,0-1.9,1-4.2,2.9c-0.4,0.4-1.2,0.3-1.5-0.4l-3.2-7l1-1.5C87.1,385.5,87.7,385.5,88,385.7z"
			/>
		<path class="st18" d="M94.8,391.8c0,0,1.9,1,4.2,2.9c0.4,0.4,1.2,0.3,1.5-0.4l3.2-7l-1-1.5c-0.3-0.4-0.8-0.4-1.1-0.2L94.8,391.8"
			/>
	</g>
	<path class="st18" d="M99.2,360.3l0.7,4.9c3.2,0.6,3.6,5.6,3.7,7c0,0.3,0.1,0.5,0.3,0.7l1.2,1.8c0,0-0.4-3.1,1.5-5.2
		C106.5,369.7,107.1,357.4,99.2,360.3z"/>
	<path class="st10" d="M105.8,374.5l-0.9,3.3c-0.1,0.4-0.4,0.7-0.9,0.7l0,0c-0.4,0-0.8-0.4-0.9-0.8l-0.4-3.4
		c-0.1-0.9,0.6-1.8,1.5-1.8l0,0C105.3,372.6,106,373.6,105.8,374.5z"/>
	<path class="st4" d="M94.8,366.7c0.2,0,0.3,0,0.4,0"/>
	<path class="st18" d="M95.2,366.7L95.2,366.7c6.2,0,8-2.4,7.7-5.2c-0.2-1.5-2.4-4.6-8.1-4.5c-2.3,0-6.7,0.7-8.8,1.9l1.1,0.8
		c-4.9,3.7-4,9.9-4,9.9c1.5,1.5,1.5,5.2,1.5,5.2l1.5-1.5c0,0-0.6-4.3,2.2-5.9c2.4-1.4,4.5-0.9,6.7-0.8"/>
	<path class="st19" d="M94.8,357.1c-2.3,0-6.7,0.7-8.8,1.9l1.1,0.8c-4.9,3.7-4,9.9-4,9.9c1.5,1.5,1.5,5.2,1.5,5.2l1.5-1.5
		c0,0-0.6-4.3,2.2-5.9c2.4-1.4,4.5-0.9,6.7-0.8"/>
	<path class="st9" d="M83.7,374.5l0.9,3.3c0.1,0.4,0.4,0.7,0.9,0.7l0,0c0.4,0,0.8-0.4,0.9-0.8l0.4-3.4c0.1-0.9-0.6-1.8-1.5-1.8l0,0
		C84.3,372.6,83.5,373.6,83.7,374.5z"/>
	<path class="st18" d="M100,397.8v1.5c2.5-0.5,4.7-1.4,6.9-2.5c-0.2-0.4-0.5-0.7-1-0.7h-4.7C100.5,396.1,100,396.9,100,397.8z"/>
</g>
<g>
	<circle class="st2" cx="164.3" cy="374.3" r="25.7"/>
	<path class="st3" d="M164.3,399.9c-14.2,0-25.7-11.5-25.7-25.7s11.5-25.7,25.7-25.7"/>
	<path class="st4" d="M155.5,359l1.1,0.7c-4.9,3.6-3.9,9.8-3.9,9.8c1.5,1.5,1.5,5.1,1.5,5.1l1.5-1.5c0,0-0.5-4.2,2.2-5.9
		c2.5-1.5,4.8-0.7,7.1-0.7c6.1,0,7.9-2.3,7.5-5.1c-0.2-1.5-2.4-4.5-8.1-4.4C162,357.2,157.7,357.9,155.5,359z"/>
	<polyline class="st5" points="164.3,393.3 171,387.4 171,382.2 164.3,382.2 	"/>
	<polyline class="st6" points="164.3,382.2 157.6,382.2 157.6,387.4 164.3,393.3 	"/>
	<path class="st18" d="M183.3,391.6c-0.4-0.9-1.1-1.6-2-1.8l-9.1-2.2c-0.2,0-0.3-0.1-0.4-0.2l-7.4,4.3v8.1
		C171.8,399.9,178.6,396.7,183.3,391.6z"/>
	<path class="st19" d="M156.6,387.6l-9.1,2.2c-1,0.3-1.8,1-2.1,1.8c4.2,4.6,10.1,7.7,16.6,8.3h2.4v-8.1l-7.1-4.6
		C157.1,387.4,156.9,387.5,156.6,387.6z"/>
	<path class="st9" d="M164.3,365.2c-4.6,0-9.1,0-9.1,0l0.6,14.2c0.1,1.3,0.7,2.5,1.8,3.3l3.1,2.3c0.8,0.6,1.7,0.9,2.6,0.9h1.1"/>
	<path class="st10" d="M164.3,385.9h1.9c1,0,1.9-0.4,2.6-0.9l3.1-2.3c1.1-0.8,1.7-2,1.8-3.3l0.6-14.2c0,0-5.1,0-10.1,0"/>
	<g>
		<path class="st14" d="M157.6,385.7l6.7,6c0,0-1.9,1-4.2,2.9c-0.4,0.4-1.2,0.3-1.5-0.4l-3.2-7l1-1.5
			C156.7,385.5,157.2,385.5,157.6,385.7z"/>
		<path class="st15" d="M164.3,391.8c0,0,1.9,1,4.2,2.9c0.4,0.4,1.2,0.3,1.5-0.4l3.2-7l-1-1.5c-0.3-0.4-0.8-0.4-1.1-0.2L164.3,391.8
			"/>
	</g>
	<path class="st4" d="M168.8,360.3l0.7,4.9c3.2,0.6,3.6,5.6,3.7,7c0,0.3,0.1,0.5,0.3,0.7l1.2,1.8c0,0-0.4-3.1,1.5-5.2
		C176,369.7,176.7,357.4,168.8,360.3z"/>
	<path class="st10" d="M175.3,374.5l-0.9,3.3c-0.1,0.4-0.4,0.7-0.9,0.7l0,0c-0.4,0-0.8-0.4-0.9-0.8l-0.4-3.4
		c-0.1-0.9,0.6-1.8,1.5-1.8l0,0C174.8,372.6,175.6,373.6,175.3,374.5z"/>
	<path class="st4" d="M164.3,366.7c0.2,0,0.3,0,0.4,0"/>
	<path class="st4" d="M164.7,366.7C164.7,366.7,164.8,366.7,164.7,366.7c6.2,0,8-2.4,7.7-5.2c-0.2-1.5-2.4-4.6-8.1-4.5
		c-2.3,0-6.7,0.7-8.8,1.9l1.1,0.8c-4.9,3.7-4,9.9-4,9.9c1.5,1.5,1.5,5.2,1.5,5.2l1.5-1.5c0,0-0.6-4.3,2.2-5.9
		c2.4-1.4,4.5-0.9,6.7-0.8"/>
	<path class="st16" d="M164.3,357.1c-2.3,0-6.7,0.7-8.8,1.9l1.1,0.8c-4.9,3.7-4,9.9-4,9.9c1.5,1.5,1.5,5.2,1.5,5.2l1.5-1.5
		c0,0-0.6-4.3,2.2-5.9c2.4-1.4,4.5-0.9,6.7-0.8"/>
	<path class="st9" d="M153.3,374.5l0.9,3.3c0.1,0.4,0.4,0.7,0.9,0.7l0,0c0.4,0,0.8-0.4,0.9-0.8l0.4-3.4c0.1-0.9-0.6-1.8-1.5-1.8l0,0
		C153.8,372.6,153.1,373.6,153.3,374.5z"/>
	<path class="st15" d="M169.6,397.8v1.5c2.5-0.5,4.7-1.4,6.9-2.5c-0.2-0.4-0.5-0.7-1-0.7h-4.8C170.2,396.1,169.6,396.9,169.6,397.8z
		"/>
</g>
<line class="st20" x1="199.6" y1="373.2" x2="177.6" y2="373.2"/>
<line class="st20" x1="51.4" y1="374.3" x2="68.9" y2="374.3"/>
<g>
	<circle class="st2" cx="303.6" cy="374.3" r="25.7"/>
	<path class="st3" d="M303.6,399.9c-14.2,0-25.7-11.5-25.7-25.7s11.5-25.7,25.7-25.7"/>
	<path class="st4" d="M294.9,359l1.1,0.7c-4.9,3.6-3.9,9.8-3.9,9.8c1.5,1.5,1.5,5.1,1.5,5.1l1.5-1.5c0,0-0.5-4.2,2.2-5.9
		c2.5-1.5,4.8-0.7,7.1-0.7c6.1,0,7.9-2.3,7.5-5.1c-0.2-1.5-2.4-4.5-8.1-4.4C301.4,357.2,297.1,357.9,294.9,359z"/>
	<polyline class="st5" points="303.6,393.3 310.3,387.4 310.3,382.2 303.6,382.2 	"/>
	<polyline class="st6" points="303.6,382.2 297.1,382.2 297.1,387.4 303.6,393.3 	"/>
	<path class="st18" d="M322.6,391.6c-0.4-0.9-1.1-1.6-2-1.8l-9.1-2.2c-0.2,0-0.3-0.1-0.4-0.2l-7.4,4.3v8.1
		C311.2,399.9,317.9,396.7,322.6,391.6z"/>
	<path class="st19" d="M295.9,387.6l-9.1,2.2c-1,0.3-1.8,1-2.1,1.8c4.2,4.6,10.1,7.7,16.6,8.3h2.4v-8.1l-7.1-4.6
		C296.4,387.4,296.2,387.5,295.9,387.6z"/>
	<path class="st9" d="M303.6,365.2c-4.6,0-9.1,0-9.1,0l0.6,14.2c0.1,1.3,0.7,2.5,1.8,3.3l3.1,2.3c0.8,0.6,1.7,0.9,2.6,0.9h1.1"/>
	<path class="st10" d="M303.6,385.9h1.9c1,0,1.9-0.4,2.6-0.9l3.1-2.3c1.1-0.8,1.7-2,1.8-3.3l0.6-14.2c0,0-5.1,0-10.1,0"/>
	<g>
		<path class="st14" d="M296.9,385.7l6.7,6c0,0-1.9,1-4.2,2.9c-0.4,0.4-1.2,0.3-1.5-0.4l-3.2-7l1-1.5
			C296.1,385.5,296.6,385.5,296.9,385.7z"/>
		<path class="st15" d="M303.6,391.8c0,0,1.9,1,4.2,2.9c0.4,0.4,1.2,0.3,1.5-0.4l3.2-7l-1-1.5c-0.3-0.4-0.8-0.4-1.1-0.2L303.6,391.8
			"/>
	</g>
	<path class="st18" d="M308.2,360.3l0.7,4.9c3.2,0.6,3.6,5.6,3.7,7c0,0.3,0.1,0.5,0.3,0.7l1.2,1.8c0,0-0.4-3.1,1.5-5.2
		C315.5,369.7,316.1,357.4,308.2,360.3z"/>
	<path class="st10" d="M314.7,374.5l-0.9,3.3c-0.1,0.4-0.4,0.7-0.9,0.7l0,0c-0.4,0-0.8-0.4-0.9-0.8l-0.4-3.4
		c-0.1-0.9,0.6-1.8,1.5-1.8l0,0C314.2,372.6,314.9,373.6,314.7,374.5z"/>
	<path class="st4" d="M303.6,366.7c0.2,0,0.3,0,0.4,0"/>
	<path class="st18" d="M304.1,366.7C304.2,366.7,304.2,366.7,304.1,366.7c6.2,0,8-2.4,7.7-5.2c-0.2-1.5-2.4-4.6-8.1-4.5
		c-2.3,0-6.7,0.7-8.8,1.9l1.1,0.8c-4.9,3.7-4,9.9-4,9.9c1.5,1.5,1.5,5.2,1.5,5.2l1.5-1.5c0,0-0.6-4.3,2.2-5.9
		c2.4-1.4,4.5-0.9,6.7-0.8"/>
	<path class="st19" d="M303.6,357.1c-2.3,0-6.7,0.7-8.8,1.9l1.1,0.8c-4.9,3.7-4,9.9-4,9.9c1.5,1.5,1.5,5.2,1.5,5.2l1.5-1.5
		c0,0-0.6-4.3,2.2-5.9c2.4-1.4,4.5-0.9,6.7-0.8"/>
	<path class="st9" d="M292.7,374.5l0.9,3.3c0.1,0.4,0.4,0.7,0.9,0.7l0,0c0.4,0,0.8-0.4,0.9-0.8l0.4-3.4c0.1-0.9-0.6-1.8-1.5-1.8l0,0
		C293.1,372.6,292.4,373.6,292.7,374.5z"/>
	<path class="st15" d="M309,397.8v1.5c2.5-0.5,4.7-1.4,6.9-2.5c-0.2-0.4-0.5-0.7-1-0.7h-4.7C309.5,396.1,309,396.9,309,397.8z"/>
</g>
<g>
	<circle class="st2" cx="373.3" cy="374.3" r="25.7"/>
	<path class="st3" d="M373.3,399.9c-14.2,0-25.7-11.5-25.7-25.7s11.5-25.7,25.7-25.7"/>
	<path class="st4" d="M364.4,359l1.1,0.7c-4.9,3.6-3.9,9.8-3.9,9.8c1.5,1.5,1.5,5.1,1.5,5.1l1.5-1.5c0,0-0.5-4.2,2.2-5.9
		c2.5-1.5,4.8-0.7,7.1-0.7c6.1,0,7.9-2.3,7.5-5.1c-0.2-1.5-2.4-4.5-8.1-4.4C371,357.2,366.7,357.9,364.4,359z"/>
	<polyline class="st5" points="373.3,393.3 379.9,387.4 379.9,382.2 373.3,382.2 	"/>
	<polyline class="st6" points="373.3,382.2 366.6,382.2 366.6,387.4 373.3,393.3 	"/>
	<path class="st7" d="M392.2,391.6c-0.4-0.9-1.1-1.6-2-1.8l-9.1-2.2c-0.2,0-0.3-0.1-0.4-0.2l-7.4,4.3v8.1
		C380.7,399.9,387.5,396.7,392.2,391.6z"/>
	<path class="st8" d="M365.5,387.7l-9.1,2.2c-1,0.3-1.8,1-2.1,1.8c4.2,4.6,10.1,7.7,16.6,8.3h2.4v-8.1l-7.1-4.6
		C366,387.5,365.7,387.6,365.5,387.7z"/>
	<path class="st9" d="M373.3,365.2c-4.6,0-9.1,0-9.1,0l0.6,14.2c0.1,1.3,0.7,2.5,1.8,3.3l3.1,2.3c0.8,0.6,1.7,0.9,2.6,0.9h1.1"/>
	<path class="st10" d="M373.3,385.9h1.9c1,0,1.9-0.4,2.6-0.9l3.1-2.3c1.1-0.8,1.7-2,1.8-3.3l0.6-14.2c0,0-5.1,0-10.1,0"/>
	<g>
		<path class="st14" d="M366.5,385.7l6.7,6c0,0-1.9,1-4.2,2.9c-0.4,0.4-1.2,0.3-1.5-0.4l-3.2-7l1-1.5
			C365.6,385.5,366.2,385.5,366.5,385.7z"/>
		<path class="st15" d="M373.3,391.8c0,0,1.9,1,4.2,2.9c0.4,0.4,1.2,0.3,1.5-0.4l3.2-7l-1-1.5c-0.3-0.4-0.8-0.4-1.1-0.2L373.3,391.8
			"/>
	</g>
	<path class="st4" d="M377.7,360.3l0.7,4.9c3.2,0.6,3.6,5.6,3.7,7c0,0.3,0.1,0.5,0.3,0.7l1.2,1.8c0,0-0.4-3.1,1.5-5.2
		C385,369.7,385.7,357.4,377.7,360.3z"/>
	<path class="st10" d="M384.3,374.5l-0.9,3.3c-0.1,0.4-0.4,0.7-0.9,0.7l0,0c-0.4,0-0.8-0.4-0.9-0.8l-0.4-3.4
		c-0.1-0.9,0.6-1.8,1.5-1.8l0,0C383.8,372.6,384.5,373.6,384.3,374.5z"/>
	<path class="st4" d="M373.3,366.7c0.2,0,0.3,0,0.4,0"/>
	<path class="st4" d="M373.7,366.7L373.7,366.7c6.2,0,8-2.4,7.7-5.2c-0.2-1.5-2.4-4.6-8.1-4.5c-2.3,0-6.7,0.7-8.8,1.9l1.1,0.8
		c-4.9,3.7-4,9.9-4,9.9c1.5,1.5,1.5,5.2,1.5,5.2l1.5-1.5c0,0-0.6-4.3,2.2-5.9c2.4-1.4,4.5-0.9,6.7-0.8"/>
	<path class="st16" d="M373.3,357.1c-2.3,0-6.7,0.7-8.8,1.9l1.1,0.8c-4.9,3.7-4,9.9-4,9.9c1.5,1.5,1.5,5.2,1.5,5.2l1.5-1.5
		c0,0-0.6-4.3,2.2-5.9c2.4-1.4,4.5-0.9,6.7-0.8"/>
	<path class="st9" d="M362.2,374.5l0.9,3.3c0.1,0.4,0.4,0.7,0.9,0.7l0,0c0.4,0,0.8-0.4,0.9-0.8l0.4-3.4c0.1-0.9-0.6-1.8-1.5-1.8l0,0
		C362.8,372.6,362,373.6,362.2,374.5z"/>
	<path class="st18" d="M378.5,397.8v1.5c2.5-0.5,4.7-1.4,6.9-2.5c-0.2-0.4-0.5-0.7-1-0.7h-4.7C379,396.1,378.5,396.9,378.5,397.8z"
		/>
</g>
<line class="st20" x1="260.4" y1="374.3" x2="277.8" y2="374.3"/>
<line class="st20" x1="190" y1="374.3" x2="208.2" y2="374.3"/>
<line class="st20" x1="111.5" y1="232.6" x2="137.9" y2="232.6"/>
<line class="st20" x1="287.4" y1="232.6" x2="269.9" y2="232.6"/>
<line class="st20" x1="256.7" y1="232.7" x2="239.2" y2="232.7"/>
<g>
	
		<ellipse transform="matrix(0.1602 -0.9871 0.9871 0.1602 -172.559 546.1812)" class="st2" cx="234.7" cy="374.5" rx="25.5" ry="25.5"/>
	<path class="st3" d="M234.7,400c-14.1,0-25.5-11.4-25.5-25.5s11.4-25.5,25.5-25.5"/>
</g>
<path class="st17" d="M244.6,378.4l0.5,2c0.1,0.2,0.3,0.4,0.5,0.4l0,0c0.3,0,0.5-0.2,0.5-0.4l0.3-2c0.1-0.6-0.3-1-0.9-1l0,0
	C244.9,377.2,244.4,377.8,244.6,378.4z"/>
<path class="st18" d="M235,357.3c-15.1,0-13.4,18.4-13.4,31.7c0,0.5,0.3,1,0.7,1.2c1.7,1,6.3,3.4,12.6,3.4s11-2.4,12.6-3.4
	c0.4-0.3,0.7-0.7,0.7-1.2C248.4,375.7,250,357.3,235,357.3z"/>
<path class="st19" d="M235,357.3c-15.1,0-13.4,18.4-13.4,31.7c0,0.5,0.3,1,0.7,1.2c1.7,1,6.3,3.4,12.6,3.4"/>
<path class="st5" d="M249.4,391.8l-8.5-3.5c-0.7-0.3-1.2-1-1.2-1.7v-2.3h-9.5v2.3c0,0.8-0.4,1.5-1.2,1.7l-8.5,3.5"/>
<path class="st6" d="M230.2,384.2v2.3c0,0.8-0.4,1.5-1.2,1.7l-8.5,3.5c-1.1,0.4-1.7,1.5-1.7,2.6c4.4,3.5,9.9,5.6,15.9,5.6l0,0v-15.8
	L230.2,384.2L230.2,384.2z"/>
<path class="st18" d="M235,400c6.2-0.1,11.8-2.3,16.2-6c-0.2-1-0.8-1.8-1.7-2.2l-8.2-3.4l-6.2,2.7"/>
<path class="st19" d="M235,391l-6.2-2.7l-8.2,3.4c-1.1,0.4-1.7,1.5-1.7,2.6c4.4,3.5,9.9,5.6,15.9,5.6c0.1,0,0.2,0,0.3,0"/>
<g>
	<path class="st14" d="M235,391.1l-5.5-4.1c-0.3-0.3-0.8-0.2-1.1,0.2l-1.1,1.6l3.4,4.7c0.3,0.3,0.7,0.4,1.1,0.2L235,391.1z"/>
	<path class="st15" d="M235,391.1l5.5-4.1c0.3-0.3,0.8-0.2,1.1,0.2l1.1,1.6l-3.4,4.7c-0.3,0.3-0.7,0.4-1.1,0.2L235,391.1z"/>
</g>
<path class="st9" d="M239.7,365.9c-4.8,4.8-14.1,1-14.1,8.6l0.6,5.6c0.1,1.2,0.8,2.4,2,3l5.4,3c0.8,0.5,1.9,0.5,2.8,0l5.4-3
	c1.1-0.6,1.8-1.7,2-3l0.7-6.7c0.1-0.4,0.1-1,0.1-1.5C244.1,369.6,240.7,367.8,239.7,365.9z"/>
<path class="st10" d="M235,386.5c0.5,0,1-0.1,1.4-0.3l5.4-3c1.1-0.6,1.8-1.7,2-3l0.7-6.7c0.1-0.4,0.1-1,0.1-1.5
	c-0.3-2.4-3.7-4.2-4.7-6.1c-1.3,1.3-3,2-4.8,2.4"/>
<line class="st20" x1="260.2" y1="374.4" x2="249" y2="374.4"/>
<line class="st20" x1="240.6" y1="374.5" x2="229.4" y2="374.5"/>
<line class="st20" x1="95.5" y1="232.6" x2="78" y2="232.6"/>
<line class="st20" x1="303.3" y1="232.6" x2="287.5" y2="232.6"/>
<line class="st20" x1="207.6" y1="232.7" x2="191.7" y2="232.7"/>
<line class="st20" x1="111.5" y1="232.6" x2="95.6" y2="232.6"/>
<line class="st20" x1="96.3" y1="241.5" x2="96.3" y2="241.5"/>
<g>
	<circle class="st2" cx="25.6" cy="374.1" r="25.5"/>
	<path class="st3" d="M25.6,399.6c-14.1,0-25.5-11.4-25.5-25.5s11.4-25.5,25.5-25.5"/>
</g>
<path class="st4" d="M25.9,356.9c-15.1,0-13.4,18.4-13.4,31.7c0,0.5,0.3,1,0.7,1.2c1.7,1,6.3,3.4,12.6,3.4s11-2.4,12.6-3.4
	c0.4-0.3,0.7-0.7,0.7-1.2C39.3,375.3,40.9,356.9,25.9,356.9z"/>
<path class="st16" d="M25.9,356.9c-15.1,0-13.4,18.4-13.4,31.7c0,0.5,0.3,1,0.7,1.2c1.7,1,6.3,3.4,12.6,3.4"/>
<path class="st5" d="M40.3,391.4l-8.5-3.5c-0.7-0.3-1.2-1-1.2-1.7v-2.3h-9.5v2.3c0,0.8-0.4,1.5-1.2,1.7l-8.5,3.5"/>
<path class="st6" d="M21.1,383.8v2.3c0,0.8-0.4,1.5-1.2,1.7l-8.5,3.5c-1.1,0.4-1.7,1.5-1.7,2.6c4.4,3.5,9.9,5.6,15.9,5.6l0,0v-15.8
	L21.1,383.8L21.1,383.8z"/>
<path class="st7" d="M25.9,399.6c6.2-0.1,11.8-2.3,16.2-6c-0.2-1-0.8-1.8-1.7-2.2l-8.2-3.4l-6.2,2.7"/>
<path class="st8" d="M25.9,390.7l-6.2-2.7l-8.2,3.4c-1.1,0.4-1.7,1.5-1.7,2.6c4.4,3.5,9.9,5.6,15.9,5.6c0.1,0,0.2,0,0.3,0"/>
<g>
	<path class="st19" d="M25.9,390.7l-5.5-4.1c-0.3-0.3-0.8-0.2-1.1,0.2l-1.1,1.6l3.4,4.7c0.3,0.3,0.7,0.4,1.1,0.2L25.9,390.7z"/>
	<path class="st18" d="M25.9,390.7l5.5-4.1c0.3-0.3,0.8-0.2,1.1,0.2l1.1,1.6l-3.4,4.7c-0.3,0.3-0.7,0.4-1.1,0.2L25.9,390.7z"/>
</g>
<path class="st9" d="M30.6,365.5c-4.8,4.8-14.1,1-14.1,8.6l0.6,5.6c0.1,1.2,0.8,2.4,2,3l5.4,3c0.8,0.5,1.9,0.5,2.8,0l5.4-3
	c1.1-0.6,1.8-1.7,2-3l0.7-6.7c0.1-0.4,0.1-1,0.1-1.5C35,369.2,31.6,367.4,30.6,365.5z"/>
<path class="st10" d="M25.9,386.1c0.5,0,1-0.1,1.4-0.3l5.4-3c1.1-0.6,1.8-1.7,2-3l0.7-6.7c0.1-0.4,0.1-1,0.1-1.5
	c-0.3-2.4-3.7-4.2-4.7-6.1c-1.3,1.3-3,2-4.8,2.4"/>
<line class="st20" x1="31.5" y1="374.1" x2="20.3" y2="374.1"/>
<line class="st0" x1="53.5" y1="154.7" x2="345.2" y2="154.7"/>
<line class="st0" x1="151.5" y1="310.8" x2="151.5" y2="310.8"/>
<line class="st0" x1="24.1" y1="312.5" x2="58" y2="312.5"/>
<line class="st0" x1="93" y1="312.5" x2="166.4" y2="312.5"/>
</svg>
