<svg xmlns="http://www.w3.org/2000/svg" viewBox="0 0 59.88 55.3"><defs><style>.cls-1{fill:#fba03d;}.cls-2{fill:#008ad9;}.cls-3{fill:#2e424a;}.cls-4{fill:#2b3a43;}.cls-5{fill:#ebd2af;}.cls-6{fill:#ffab42;}.cls-7{fill:#c9d4d7;}.cls-8{fill:#d8e3e6;}.cls-9{fill:#eff2fa;}.cls-10{font-size:16px;fill:#fff;font-family:Helvetica-Bold, Helvetica;font-weight:700;}</style></defs><title>SDK_01</title><g id="Слой_2" data-name="Слой 2"><g id="Слой_2-2" data-name="Слой 2"><path class="cls-1" d="M59.49,26.41l-4.6-9.65a1,1,0,0,0-.9-.61H5.76a1,1,0,0,0-.9.61L.26,26.41A2.7,2.7,0,0,0,0,27.57V33H59.75V27.57A2.7,2.7,0,0,0,59.49,26.41Z"/><path class="cls-2" d="M8,1.33,6.28,4.8h18L22.55,1.33A2.4,2.4,0,0,0,20.4,0H10.16A2.37,2.37,0,0,0,8,1.33Z"/><path class="cls-3" d="M29.88,38.58h-26c-.67,0-1.2-.95-1.2-2.12V6.91c0-1.16.53-2.11,1.2-2.11h26"/><path class="cls-4" d="M28.92,4.8H57c.72,0,1.3,1,1.3,2.11V36.46c0,1.17-.58,2.12-1.3,2.12H28.92"/><path class="cls-5" d="M58.72,27H41.84a1,1,0,0,0-.92.67l-1.2,2.81a2.07,2.07,0,0,1-1.85,1.33h-16A2.07,2.07,0,0,1,20,30.43l-1.2-2.81a1,1,0,0,0-.92-.67H1a1.13,1.13,0,0,0-1,1.2V51a1.13,1.13,0,0,0,1,1.2H58.72a1.13,1.13,0,0,0,1-1.2V28.15A1.13,1.13,0,0,0,58.72,27Z"/><path class="cls-1" d="M29.58,53.51H58.85a1.21,1.21,0,0,0,1-1.33V27a1.2,1.2,0,0,0-1-1.32H42a1,1,0,0,0-.92.73l-1.21,3.11A2.08,2.08,0,0,1,38,30.94H29.65"/><path class="cls-6" d="M29.65,30.94H22a2.08,2.08,0,0,1-1.84-1.47L19,26.36a1,1,0,0,0-.92-.73H1.16A1.2,1.2,0,0,0,.13,27V52.18a1.21,1.21,0,0,0,1,1.33H29.58"/><path class="cls-7" d="M47.1,15.66h7.21a1.2,1.2,0,0,0,1.2-1.2V9.65a1.2,1.2,0,0,0-1.2-1.2H47.1"/><path class="cls-8" d="M47.1,8.45H39.9a1.2,1.2,0,0,0-1.2,1.2v4.81a1.2,1.2,0,0,0,1.2,1.2h7.2"/><path class="cls-9" d="M47.42,8.45H47.1"/><path class="cls-4" d="M51.91,10.85h-1.2a1.2,1.2,0,0,0-1.2,1.2h0a1.2,1.2,0,0,0,1.2,1.21h1.2a1.21,1.21,0,0,0,1.2-1.21h0A1.2,1.2,0,0,0,51.91,10.85Z"/><text class="cls-10" transform="translate(12.98 47.61)">SDK</text></g></g></svg>