<?xml version="1.0" encoding="utf-8"?>
<!-- Generator: Adobe Illustrator 22.0.1, SVG Export Plug-In . SVG Version: 6.00 Build 0)  -->
<svg version="1.1" id="Capa_1" xmlns="http://www.w3.org/2000/svg" xmlns:xlink="http://www.w3.org/1999/xlink" x="0px" y="0px"
	 viewBox="0 0 471.5 471.5" style="enable-background:new 0 0 471.5 471.5;" xml:space="preserve">
<style type="text/css">
	.st0{fill:#1379E2;}
</style>
<g>
	<g>
		<path class="st0" d="M180.2,329.9c-6-4.5-14.4-3.3-18.9,2.7c-22.5,29.8-56.8,46.9-94.1,46.9H30.1c-7.5,0-13.5,6-13.5,13.5
			s6,13.5,13.5,13.5h37.3c23.1,0,45.2-5.3,65.6-15.7c19.5-9.9,36.8-24.4,50-42C187.4,342.9,186.2,334.4,180.2,329.9z"/>
		<path class="st0" d="M218.4,140.1c2.5,1.9,5.4,2.8,8.3,2.8c4,0,8-1.8,10.7-5.2c22.5-29,56.4-45.6,93-45.6h78.5L367,134
			c-5.3,5.3-5.3,13.8,0,19.1c2.6,2.6,6.1,4,9.5,4s6.9-1.3,9.5-4l65-65c5.3-5.3,5.3-13.8,0-19.1L386,4c-5.3-5.3-13.8-5.3-19.1,0
			c-5.3,5.3-5.3,13.8,0,19.1L408.8,65h-78.5c-45,0-86.7,20.4-114.4,56.1C211.4,127.1,212.4,135.5,218.4,140.1z"/>
		<path class="st0" d="M386,318.5c-5.3-5.3-13.8-5.3-19.1,0c-5.3,5.3-5.3,13.8,0,19.1l41.9,41.9h-78.5
			c-64.9,0-117.7-52.8-117.7-117.7v-52c0-79.8-64.9-144.7-144.7-144.7H30.6c-7.5,0-13.5,6-13.5,13.5s6,13.5,13.5,13.5h37.3
			c64.9,0,117.7,52.8,117.7,117.7v52c0,79.8,64.9,144.7,144.7,144.7h78.5l-41.9,41.9c-5.3,5.3-5.3,13.8,0,19.1c2.6,2.6,6.1,4,9.5,4
			s6.9-1.3,9.5-4l65-65c5.3-5.3,5.3-13.8,0-19.1L386,318.5z"/>
	</g>
</g>
</svg>
