<?xml version="1.0" encoding="utf-8"?>
<!-- Generator: Adobe Illustrator 22.0.1, SVG Export Plug-In . SVG Version: 6.00 Build 0)  -->
<svg version="1.1" id="Слой_1" xmlns="http://www.w3.org/2000/svg" xmlns:xlink="http://www.w3.org/1999/xlink" x="0px" y="0px"
	 viewBox="0 0 64 54" style="enable-background:new 0 0 64 54;" xml:space="preserve">
<style type="text/css">
	.st0{fill:#1379E2;}
</style>
<g id="Layer_x0020_1">
	<path class="st0" d="M1,0L1,0h62c0.6,0,1,0.4,1,1v0V9v0v0v44c0,0.6-0.4,1-1,1h0H41h0h0h-4h0H27H19H1c-0.6,0-1-0.4-1-1v0V9v0v0V1
		C0,0.4,0.5,0,1,0L1,0z M42,13.1c1.2,0.6,2.3,1.5,3,2.6c0.7,1.1,1.1,2.4,1.1,3.9c0,1.5-0.5,3-1.3,4.1c-0.7,1-1.7,1.8-2.8,2.3v26h20
		V10H2v42h16V42c0-1.1,0.4-2.1,1.2-2.8c0.7-0.7,1.7-1.2,2.8-1.2V25c-0.4,0-0.7-0.2-0.9-0.5l-1.9-3c-0.2-0.3-0.2-0.6-0.1-0.9l1.9-6.9
		c0.1-0.4,0.5-0.7,1-0.7v0H24c0.5,0,0.9,0.4,1,0.8l1.9,6.9c0.1,0.3,0,0.6-0.1,0.8l0,0l-1.9,3C24.6,24.8,24.3,25,24,25v13
		c1.1,0,2.1,0.4,2.8,1.2l0,0l0,0c0.7,0.7,1.2,1.7,1.2,2.8v10h8V26c-1.1-0.5-2.1-1.3-2.8-2.3c-0.8-1.2-1.3-2.6-1.3-4.1
		c0-1.4,0.4-2.8,1.1-3.9c0.7-1.1,1.8-2.1,3.1-2.6c0.5-0.2,1.1,0,1.3,0.5c0.1,0.1,0.1,0.3,0.1,0.4h0v5.7h3V14c0-0.6,0.4-1,1-1
		C41.7,13,41.8,13.1,42,13.1L42,13.1z M43.3,16.8c-0.2-0.4-0.5-0.7-0.8-1v4.9v0c0,0.6-0.4,1-1,1h-4.9h0c-0.6,0-1-0.4-1-1v-4.9
		c-0.3,0.3-0.6,0.6-0.8,1c-0.5,0.8-0.8,1.7-0.8,2.8c0,1.1,0.3,2.1,0.9,3c0.6,0.8,1.4,1.5,2.4,1.8c0.4,0.1,0.8,0.5,0.8,1V52h2V25.4h0
		c0-0.4,0.3-0.8,0.7-0.9c1-0.4,1.9-1,2.5-1.9c0.6-0.8,0.9-1.9,0.9-3C44.1,18.6,43.8,17.6,43.3,16.8L43.3,16.8z M23.2,15h-0.4
		l-1.6,5.8l1.4,2.2H23h0h0h0.4l1.4-2.2L23.2,15L23.2,15z M24,40h-1h0h0h-1c-0.5,0-1,0.2-1.4,0.6S20,41.5,20,42v10h6V42
		c0-0.5-0.2-1-0.6-1.4l0,0C25.1,40.2,24.5,40,24,40L24,40z M45,41c-0.6,0-1-0.4-1-1c0-0.6,0.4-1,1-1h9.9c0.6,0,1,0.4,1,1
		c0,0.6-0.4,1-1,1H45z M49,36c-0.6,0-1-0.4-1-1c0-0.6,0.4-1,1-1h9.9c0.6,0,1,0.4,1,1c0,0.6-0.4,1-1,1H49z M5,27c-0.6,0-1-0.4-1-1
		c0-0.6,0.4-1,1-1h9.9c0.6,0,1,0.4,1,1c0,0.6-0.4,1-1,1H5z M9,32c-0.6,0-1-0.4-1-1c0-0.6,0.4-1,1-1h9.9c0.6,0,1,0.4,1,1
		c0,0.6-0.4,1-1,1H9z M15,4h2v2h-2V4z M10,4h2v2h-2V4z M5,4h2v2H5V4z M2,8h60V2H2V8z"/>
</g>
</svg>
