<svg xmlns="http://www.w3.org/2000/svg" viewBox="0 0 94.2 79.5"><defs><style>.cls-1{fill:#1379e2;}</style></defs><title>wide-range-of-transparency-tools</title><g id="Слой_2" data-name="Слой 2"><g id="Слой_1-2" data-name="Слой 1"><g id="Layer_1"><path class="cls-1" d="M1.5,0H92.7a1.42,1.42,0,0,1,1.5,1.5h0V13.3h0V78a1.42,1.42,0,0,1-1.5,1.5H1.5A1.42,1.42,0,0,1,0,78H0V13.3H0V1.5A1.47,1.47,0,0,1,1.5,0ZM61.8,19.3a10.9,10.9,0,0,1,4.4,3.8,10.58,10.58,0,0,1,1.6,5.7,10.21,10.21,0,0,1-1.9,6,10.43,10.43,0,0,1-4.1,3.4V76.5H91.2V14.7H2.9V76.5H26.4V61.8a5.24,5.24,0,0,1,1.8-4.1,6,6,0,0,1,4.1-1.8V36.8a1.56,1.56,0,0,1-1.3-.7l-2.8-4.4a1.23,1.23,0,0,1-.1-1.3l2.8-10.2a1.38,1.38,0,0,1,1.5-1h2.9a1.72,1.72,0,0,1,1.5,1.2l2.8,10.2a2.36,2.36,0,0,1-.1,1.2h0l-2.8,4.4a2.11,2.11,0,0,1-1.3.7V56a5.24,5.24,0,0,1,4.1,1.8h0a6,6,0,0,1,1.8,4.1V76.6H53.1V38.3A9.65,9.65,0,0,1,49,34.9a10.68,10.68,0,0,1-1.9-6,10.84,10.84,0,0,1,1.6-5.7,9.16,9.16,0,0,1,4.6-3.8,1.47,1.47,0,0,1,1.9.7c.1.1.1.4.1.6h0v8.4h4.4V20.7a1.42,1.42,0,0,1,1.5-1.5c.2-.1.3.1.6.1Zm1.9,5.4a5.66,5.66,0,0,0-1.2-1.5v7.2h0A1.42,1.42,0,0,1,61,31.9H53.8a1.42,1.42,0,0,1-1.5-1.5V23.2a6.09,6.09,0,0,0-1.2,1.5,7.9,7.9,0,0,0-1.2,4.1,7.58,7.58,0,0,0,1.3,4.4,6.91,6.91,0,0,0,3.5,2.6,1.52,1.52,0,0,1,1.2,1.5V76.4h2.9V37.3h0a1.3,1.3,0,0,1,1-1.3,8,8,0,0,0,3.7-2.8,7.37,7.37,0,0,0,1.3-4.4,7.44,7.44,0,0,0-1.1-4.1ZM34.1,22.1h-.6l-2.4,8.5,2.1,3.2h1.2l2.1-3.2-2.4-8.5Zm1.2,36.8h-3a3,3,0,0,0-2.1.9,2.88,2.88,0,0,0-.9,2.1V76.6h8.8V61.8a3,3,0,0,0-.9-2.1h0a2.13,2.13,0,0,0-1.9-.8ZM22.1,5.9H25V8.8H22.1Zm-7.4,0h2.9V8.8H14.7Zm-7.3,0h2.9V8.8H7.4ZM2.9,11.8H91.2V3H2.9Z"/></g></g></g></svg>