<svg xmlns="http://www.w3.org/2000/svg" viewBox="0 0 143.1 133.03"><defs><style>.cls-1{fill:#2e424a;}.cls-2{fill:#2b3a43;}.cls-3{fill:#d8e3e6;}.cls-4{fill:#00b8a1;}.cls-5{fill:#0096ea;}.cls-6{fill:#17242a;}.cls-7{fill:#152024;}.cls-8{fill:#c8d1d4;}.cls-9{fill:#c9d4d7;}.cls-10{fill:#008ad9;}.cls-11{fill:#d0ebfb;}.cls-12{fill:#009082;}.cls-13{fill:#8b979a;}</style></defs><title>Ресурс 14</title><g id="Слой_2" data-name="Слой 2"><g id="Слой_1-2" data-name="Слой 1"><g id="Слой_1-3" data-name="Слой 1"><path class="cls-1" d="M141,46.73l-47.8-.13a2,2,0,0,1-2-2L91.35,27a2,2,0,0,1,2-2l47.8.13a2,2,0,0,1,2,2l-.13,17.68A1.85,1.85,0,0,1,141,46.73Z"/><path class="cls-1" d="M26.53,93.77,2.05,93.7a2,2,0,0,1-2-2L.14,74.06a2,2,0,0,1,2-2L27,72.16"/><path class="cls-2" d="M26,72.16l23.9.07a2,2,0,0,1,2,2l-.13,17.68a1.85,1.85,0,0,1-2,2l-24.22-.06"/><path class="cls-3" d="M47.41,83.36,4.59,83.23A1.51,1.51,0,0,1,3,81.66v-5.9a1.51,1.51,0,0,1,1.57-1.57l42.82.13A1.52,1.52,0,0,1,49,75.89v5.9A1.6,1.6,0,0,1,47.41,83.36Z"/><circle class="cls-4" cx="7.73" cy="78.64" r="1.18"/><circle class="cls-4" cx="12.58" cy="78.64" r="1.18"/><circle class="cls-5" cx="17.42" cy="78.64" r="1.18"/><rect class="cls-6" x="0.4" y="87.45" width="5.89" height="0.79" transform="translate(-84.51 90.83) rotate(-89.77)"/><rect class="cls-6" x="1.79" y="87.51" width="5.89" height="0.79" transform="translate(-83.19 92.28) rotate(-89.77)"/><rect class="cls-6" x="3.26" y="87.49" width="5.89" height="0.79" transform="translate(-81.7 93.73) rotate(-89.77)"/><rect class="cls-6" x="4.52" y="87.55" width="5.89" height="0.79" transform="translate(-80.5 95.05) rotate(-89.77)"/><rect class="cls-6" x="5.91" y="87.48" width="5.89" height="0.79" transform="translate(-79.05 96.37) rotate(-89.77)"/><rect class="cls-6" x="7.39" y="87.59" width="5.89" height="0.79" transform="translate(-77.69 97.96) rotate(-89.77)"/><rect class="cls-6" x="8.77" y="87.52" width="5.89" height="0.79" transform="translate(-76.25 99.28) rotate(-89.77)"/><rect class="cls-6" x="10.16" y="87.59" width="5.89" height="0.79" transform="translate(-74.93 100.73) rotate(-89.77)"/><rect class="cls-6" x="11.63" y="87.56" width="5.89" height="0.79" transform="translate(-73.44 102.18) rotate(-89.77)"/><rect class="cls-6" x="13.02" y="87.62" width="5.89" height="0.79" transform="translate(-72.11 103.63) rotate(-89.77)"/><rect class="cls-6" x="14.41" y="87.56" width="5.89" height="0.79" transform="translate(-70.66 104.95) rotate(-89.77)"/><rect class="cls-6" x="15.89" y="87.53" width="5.89" height="0.79" transform="translate(-69.17 106.41) rotate(-89.77)"/><rect class="cls-6" x="17.35" y="87.52" width="5.89" height="0.79" transform="translate(-67.7 107.86) rotate(-89.77)"/><rect class="cls-6" x="18.74" y="87.59" width="5.89" height="0.79" transform="translate(-66.38 109.31) rotate(-89.77)"/><rect class="cls-6" x="20.21" y="87.56" width="5.89" height="0.79" transform="translate(-64.89 110.76) rotate(-89.77)"/><rect class="cls-6" x="21.6" y="87.62" width="5.89" height="0.79" transform="translate(-63.56 112.21) rotate(-89.77)"/><rect class="cls-6" x="22.99" y="87.55" width="5.89" height="0.79" transform="translate(-62.11 113.53) rotate(-89.77)"/><rect class="cls-7" x="24.47" y="87.66" width="5.89" height="0.79" transform="translate(-60.75 115.12) rotate(-89.77)"/><rect class="cls-7" x="25.85" y="87.6" width="5.89" height="0.79" transform="translate(-59.31 116.44) rotate(-89.77)"/><rect class="cls-7" x="27.24" y="87.66" width="5.89" height="0.79" transform="translate(-57.99 117.89) rotate(-89.77)"/><rect class="cls-7" x="28.72" y="87.64" width="5.89" height="0.79" transform="translate(-56.5 119.34) rotate(-89.77)"/><rect class="cls-7" x="30.11" y="87.57" width="5.89" height="0.79" transform="translate(-55.04 120.66) rotate(-89.77)"/><rect class="cls-7" x="31.5" y="87.63" width="5.89" height="0.79" transform="translate(-53.72 122.11) rotate(-89.77)"/><rect class="cls-7" x="32.97" y="87.61" width="5.89" height="0.79" transform="translate(-52.23 123.57) rotate(-89.77)"/><rect class="cls-7" x="34.37" y="87.66" width="5.89" height="0.79" transform="translate(-50.89 125.02) rotate(-89.77)"/><rect class="cls-7" x="35.84" y="87.64" width="5.89" height="0.79" transform="translate(-49.4 126.47) rotate(-89.77)"/><rect class="cls-7" x="37.1" y="87.7" width="5.89" height="0.79" transform="translate(-48.2 127.79) rotate(-89.77)"/><rect class="cls-7" x="38.49" y="87.63" width="5.89" height="0.79" transform="translate(-46.75 129.11) rotate(-89.77)"/><rect class="cls-7" x="39.97" y="87.61" width="5.89" height="0.79" transform="translate(-45.26 130.56) rotate(-89.77)"/><rect class="cls-7" x="41.35" y="87.68" width="5.89" height="0.79" transform="translate(-43.95 132.01) rotate(-89.77)"/><rect class="cls-7" x="42.74" y="87.74" width="5.89" height="0.79" transform="translate(-42.63 133.46) rotate(-89.77)"/><rect class="cls-7" x="44.21" y="87.72" width="5.89" height="0.79" transform="translate(-41.14 134.92) rotate(-89.77)"/><rect class="cls-7" x="45.61" y="87.65" width="5.89" height="0.79" transform="translate(-39.68 136.24) rotate(-89.77)"/><path class="cls-8" d="M26,74.24l21.34.13a1.5,1.5,0,0,1,1.57,1.56v5.82a1.5,1.5,0,0,1-1.57,1.56L26,83.18"/><path class="cls-1" d="M26.28,117.58,2,117.52a2,2,0,0,1-2-2L.14,97.88a2,2,0,0,1,2-2L26.75,96"/><path class="cls-2" d="M26,96,49.9,96a2,2,0,0,1,2,2l-.13,17.68a1.86,1.86,0,0,1-2,2l-24.22-.07"/><path class="cls-3" d="M47.41,107.26l-42.82-.14A1.51,1.51,0,0,1,3,105.55V99.66a1.51,1.51,0,0,1,1.57-1.57l42.82.13A1.52,1.52,0,0,1,49,99.79v5.89A1.6,1.6,0,0,1,47.41,107.26Z"/><path class="cls-9" d="M26,98.15l21.41.07A1.52,1.52,0,0,1,49,99.79v5.89a1.6,1.6,0,0,1-1.57,1.58l-21.68-.07"/><circle class="cls-4" cx="7.73" cy="102.54" r="1.18"/><circle class="cls-4" cx="12.58" cy="102.54" r="1.18"/><circle class="cls-5" cx="17.42" cy="102.54" r="1.18"/><rect class="cls-6" x="0.4" y="111.35" width="5.89" height="0.79" transform="translate(-108.41 114.63) rotate(-89.77)"/><rect class="cls-6" x="1.79" y="111.41" width="5.89" height="0.79" transform="translate(-107.09 116.08) rotate(-89.77)"/><rect class="cls-6" x="3.26" y="111.38" width="5.89" height="0.79" transform="translate(-105.59 117.54) rotate(-89.77)"/><rect class="cls-6" x="4.52" y="111.44" width="5.89" height="0.79" transform="translate(-104.4 118.85) rotate(-89.77)"/><rect class="cls-6" x="5.91" y="111.38" width="5.89" height="0.79" transform="translate(-102.95 120.18) rotate(-89.77)"/><rect class="cls-6" x="7.39" y="111.48" width="5.89" height="0.79" transform="translate(-101.59 121.76) rotate(-89.77)"/><rect class="cls-6" x="8.77" y="111.42" width="5.89" height="0.79" transform="translate(-100.15 123.08) rotate(-89.77)"/><rect class="cls-6" x="10.16" y="111.49" width="5.89" height="0.79" transform="translate(-98.83 124.53) rotate(-89.77)"/><rect class="cls-6" x="11.63" y="111.46" width="5.89" height="0.79" transform="translate(-97.34 125.98) rotate(-89.77)"/><rect class="cls-6" x="13.02" y="111.52" width="5.89" height="0.79" transform="translate(-96.01 127.43) rotate(-89.77)"/><rect class="cls-6" x="14.41" y="111.45" width="5.89" height="0.79" transform="translate(-94.56 128.76) rotate(-89.77)"/><rect class="cls-6" x="15.89" y="111.43" width="5.89" height="0.79" transform="translate(-93.06 130.21) rotate(-89.77)"/><rect class="cls-6" x="17.35" y="111.42" width="5.89" height="0.79" transform="translate(-91.6 131.66) rotate(-89.77)"/><rect class="cls-6" x="18.74" y="111.48" width="5.89" height="0.79" transform="translate(-90.28 133.11) rotate(-89.77)"/><rect class="cls-6" x="20.21" y="111.46" width="5.89" height="0.79" transform="translate(-88.79 134.56) rotate(-89.77)"/><rect class="cls-6" x="21.6" y="111.52" width="5.89" height="0.79" transform="translate(-87.46 136.01) rotate(-89.77)"/><rect class="cls-6" x="22.99" y="111.45" width="5.89" height="0.79" transform="translate(-86.01 137.34) rotate(-89.77)"/><rect class="cls-7" x="24.47" y="111.56" width="5.89" height="0.79" transform="translate(-84.65 138.92) rotate(-89.77)"/><rect class="cls-7" x="25.85" y="111.5" width="5.89" height="0.79" transform="translate(-83.21 140.24) rotate(-89.77)"/><rect class="cls-7" x="27.24" y="111.56" width="5.89" height="0.79" transform="translate(-81.89 141.69) rotate(-89.77)"/><rect class="cls-7" x="28.72" y="111.54" width="5.89" height="0.79" transform="translate(-80.4 143.14) rotate(-89.77)"/><rect class="cls-7" x="30.11" y="111.47" width="5.89" height="0.79" transform="translate(-78.94 144.46) rotate(-89.77)"/><rect class="cls-7" x="31.5" y="111.53" width="5.89" height="0.79" transform="translate(-77.62 145.91) rotate(-89.77)"/><rect class="cls-7" x="32.97" y="111.51" width="5.89" height="0.79" transform="translate(-76.13 147.37) rotate(-89.77)"/><rect class="cls-7" x="34.37" y="111.56" width="5.89" height="0.79" transform="translate(-74.79 148.82) rotate(-89.77)"/><rect class="cls-7" x="35.84" y="111.54" width="5.89" height="0.79" transform="translate(-73.3 150.27) rotate(-89.77)"/><rect class="cls-7" x="37.1" y="111.6" width="5.89" height="0.79" transform="translate(-72.1 151.59) rotate(-89.77)"/><rect class="cls-7" x="38.49" y="111.53" width="5.89" height="0.79" transform="translate(-70.65 152.91) rotate(-89.77)"/><rect class="cls-7" x="39.97" y="111.51" width="5.89" height="0.79" transform="translate(-69.16 154.36) rotate(-89.77)"/><rect class="cls-7" x="41.35" y="111.58" width="5.89" height="0.79" transform="translate(-67.85 155.82) rotate(-89.77)"/><rect class="cls-7" x="42.74" y="111.64" width="5.89" height="0.79" transform="translate(-66.53 157.27) rotate(-89.77)"/><rect class="cls-7" x="44.21" y="111.62" width="5.89" height="0.79" transform="translate(-65.04 158.72) rotate(-89.77)"/><rect class="cls-7" x="45.61" y="111.55" width="5.89" height="0.79" transform="translate(-63.58 160.04) rotate(-89.77)"/><path class="cls-1" d="M25.53,70.44,2,70.37a2,2,0,0,1-2-2L.13,50.73a2,2,0,0,1,2-2L26,48.83"/><path class="cls-2" d="M26,48.83l23.9.07a2,2,0,0,1,2,2l-.13,17.68a1.85,1.85,0,0,1-2,2l-24.23-.06"/><path class="cls-3" d="M47.4,60,4.58,59.9A1.52,1.52,0,0,1,3,58.33v-5.9a1.52,1.52,0,0,1,1.57-1.57L47.4,51A1.51,1.51,0,0,1,49,52.56v5.9A1.59,1.59,0,0,1,47.4,60Z"/><circle class="cls-4" cx="7.73" cy="55.31" r="1.18"/><circle class="cls-4" cx="12.57" cy="55.31" r="1.18"/><circle class="cls-5" cx="17.42" cy="55.31" r="1.18"/><rect class="cls-6" x="0.39" y="64.12" width="5.89" height="0.79" transform="translate(-61.19 67.59) rotate(-89.77)"/><rect class="cls-6" x="1.78" y="64.18" width="5.89" height="0.79" transform="translate(-59.86 69.04) rotate(-89.77)"/><rect class="cls-6" x="3.26" y="64.16" width="5.89" height="0.79" transform="translate(-58.37 70.49) rotate(-89.77)"/><rect class="cls-6" x="4.52" y="64.22" width="5.89" height="0.79" transform="translate(-57.18 71.81) rotate(-89.77)"/><rect class="cls-6" x="5.91" y="64.15" width="5.89" height="0.79" transform="translate(-55.72 73.13) rotate(-89.77)"/><rect class="cls-6" x="7.38" y="64.26" width="5.89" height="0.79" transform="translate(-54.36 74.72) rotate(-89.77)"/><rect class="cls-6" x="8.76" y="64.19" width="5.89" height="0.79" transform="translate(-52.93 76.04) rotate(-89.77)"/><rect class="cls-6" x="10.15" y="64.26" width="5.89" height="0.79" transform="translate(-51.6 77.49) rotate(-89.77)"/><rect class="cls-6" x="11.63" y="64.23" width="5.89" height="0.79" transform="translate(-50.11 78.94) rotate(-89.77)"/><rect class="cls-6" x="13.02" y="64.29" width="5.89" height="0.79" transform="translate(-48.79 80.39) rotate(-89.77)"/><rect class="cls-6" x="14.41" y="64.23" width="5.89" height="0.79" transform="translate(-47.33 81.71) rotate(-89.77)"/><rect class="cls-6" x="15.88" y="64.2" width="5.89" height="0.79" transform="translate(-45.84 83.16) rotate(-89.77)"/><rect class="cls-6" x="17.34" y="64.19" width="5.89" height="0.79" transform="translate(-44.38 84.62) rotate(-89.77)"/><rect class="cls-6" x="18.73" y="64.26" width="5.89" height="0.79" transform="translate(-43.06 86.07) rotate(-89.77)"/><rect class="cls-6" x="20.21" y="64.23" width="5.89" height="0.79" transform="translate(-41.56 87.52) rotate(-89.77)"/><rect class="cls-6" x="21.6" y="64.29" width="5.89" height="0.79" transform="translate(-40.24 88.97) rotate(-89.77)"/><rect class="cls-6" x="22.99" y="64.22" width="5.89" height="0.79" transform="translate(-38.79 90.29) rotate(-89.77)"/><rect class="cls-7" x="24.46" y="64.33" width="5.89" height="0.79" transform="translate(-37.43 91.88) rotate(-89.77)"/><rect class="cls-7" x="25.85" y="64.27" width="5.89" height="0.79" transform="translate(-35.99 93.2) rotate(-89.77)"/><rect class="cls-7" x="27.23" y="64.33" width="5.89" height="0.79" transform="translate(-34.67 94.65) rotate(-89.77)"/><rect class="cls-7" x="28.71" y="64.31" width="5.89" height="0.79" transform="translate(-33.17 96.1) rotate(-89.77)"/><rect class="cls-7" x="30.1" y="64.24" width="5.89" height="0.79" transform="translate(-31.72 97.42) rotate(-89.77)"/><rect class="cls-7" x="31.49" y="64.3" width="5.89" height="0.79" transform="translate(-30.4 98.87) rotate(-89.77)"/><rect class="cls-7" x="32.97" y="64.28" width="5.89" height="0.79" transform="translate(-28.9 100.32) rotate(-89.77)"/><rect class="cls-7" x="34.36" y="64.33" width="5.89" height="0.79" transform="translate(-27.57 101.78) rotate(-89.77)"/><rect class="cls-7" x="35.84" y="64.31" width="5.89" height="0.79" transform="translate(-26.08 103.23) rotate(-89.77)"/><rect class="cls-7" x="37.1" y="64.37" width="5.89" height="0.79" transform="translate(-24.88 104.55) rotate(-89.77)"/><rect class="cls-7" x="38.49" y="64.3" width="5.89" height="0.79" transform="translate(-23.43 105.87) rotate(-89.77)"/><rect class="cls-7" x="39.96" y="64.28" width="5.89" height="0.79" transform="translate(-21.94 107.32) rotate(-89.77)"/><rect class="cls-7" x="41.34" y="64.35" width="5.89" height="0.79" transform="translate(-20.63 108.77) rotate(-89.77)"/><rect class="cls-7" x="42.73" y="64.41" width="5.89" height="0.79" transform="translate(-19.31 110.22) rotate(-89.77)"/><rect class="cls-7" x="44.21" y="64.39" width="5.89" height="0.79" transform="translate(-17.82 111.68) rotate(-89.77)"/><rect class="cls-7" x="45.6" y="64.32" width="5.89" height="0.79" transform="translate(-16.36 113) rotate(-89.77)"/><path class="cls-8" d="M26,50.91,47.34,51a1.51,1.51,0,0,1,1.57,1.56v5.82A1.51,1.51,0,0,1,47.34,60L26,59.85"/><path class="cls-1" d="M25.57,46.51,2,46.44a2,2,0,0,1-2-2L.17,26.8a2,2,0,0,1,2-2L26,24.9"/><path class="cls-2" d="M26,24.9,49.92,25a2,2,0,0,1,2,2l-.13,17.68a1.85,1.85,0,0,1-2,2l-24.22-.06"/><path class="cls-3" d="M47.44,36.1,4.62,36A1.51,1.51,0,0,1,3.05,34.4V28.5a1.51,1.51,0,0,1,1.57-1.57l42.82.13A1.52,1.52,0,0,1,49,28.64v5.89A1.6,1.6,0,0,1,47.44,36.1Z"/><circle class="cls-4" cx="7.76" cy="31.39" r="1.18"/><circle class="cls-4" cx="12.61" cy="31.39" r="1.18"/><circle class="cls-5" cx="17.45" cy="31.39" r="1.18"/><rect class="cls-6" x="0.43" y="40.19" width="5.89" height="0.79" transform="translate(-37.22 43.79) rotate(-89.77)"/><rect class="cls-6" x="1.82" y="40.25" width="5.89" height="0.79" transform="translate(-35.9 45.24) rotate(-89.77)"/><rect class="cls-6" x="3.29" y="40.23" width="5.89" height="0.79" transform="matrix(0, -1, 1, 0, -34.41, 46.69)"/><rect class="cls-6" x="4.55" y="40.29" width="5.89" height="0.79" transform="translate(-33.21 48.01) rotate(-89.77)"/><rect class="cls-6" x="5.94" y="40.22" width="5.89" height="0.79" transform="translate(-31.76 49.34) rotate(-89.77)"/><rect class="cls-6" x="7.42" y="40.33" width="5.89" height="0.79" transform="translate(-30.4 50.92) rotate(-89.77)"/><rect class="cls-6" x="8.8" y="40.27" width="5.89" height="0.79" transform="translate(-28.96 52.24) rotate(-89.77)"/><rect class="cls-6" x="10.19" y="40.33" width="5.89" height="0.79" transform="translate(-27.64 53.69) rotate(-89.77)"/><rect class="cls-6" x="11.66" y="40.31" width="5.89" height="0.79" transform="translate(-26.15 55.14) rotate(-89.77)"/><rect class="cls-6" x="13.05" y="40.37" width="5.89" height="0.79" transform="translate(-24.82 56.59) rotate(-89.77)"/><rect class="cls-6" x="14.44" y="40.3" width="5.89" height="0.79" transform="translate(-23.37 57.91) rotate(-89.77)"/><rect class="cls-6" x="15.92" y="40.27" width="5.89" height="0.79" transform="translate(-21.88 59.37) rotate(-89.77)"/><rect class="cls-6" x="17.38" y="40.26" width="5.89" height="0.79" transform="translate(-20.41 60.82) rotate(-89.77)"/><rect class="cls-6" x="18.77" y="40.33" width="5.89" height="0.79" transform="translate(-19.09 62.27) rotate(-89.77)"/><rect class="cls-6" x="20.24" y="40.3" width="5.89" height="0.79" transform="translate(-17.6 63.72) rotate(-89.77)"/><rect class="cls-6" x="21.63" y="40.36" width="5.89" height="0.79" transform="translate(-16.28 65.17) rotate(-89.77)"/><rect class="cls-6" x="23.02" y="40.3" width="5.89" height="0.79" transform="translate(-14.82 66.5) rotate(-89.77)"/><rect class="cls-7" x="24.5" y="40.4" width="5.89" height="0.79" transform="translate(-13.46 68.08) rotate(-89.77)"/><rect class="cls-7" x="25.88" y="40.34" width="5.89" height="0.79" transform="translate(-12.02 69.4) rotate(-89.77)"/><rect class="cls-7" x="27.27" y="40.41" width="5.89" height="0.79" transform="translate(-10.7 70.85) rotate(-89.77)"/><rect class="cls-7" x="28.74" y="40.38" width="5.89" height="0.79" transform="translate(-9.21 72.3) rotate(-89.77)"/><rect class="cls-7" x="30.14" y="40.31" width="5.89" height="0.79" transform="translate(-7.75 73.62) rotate(-89.77)"/><rect class="cls-7" x="31.53" y="40.37" width="5.89" height="0.79" transform="translate(-6.43 75.07) rotate(-89.77)"/><rect class="cls-7" x="33" y="40.35" width="5.89" height="0.79" transform="translate(-4.94 76.53) rotate(-89.77)"/><rect class="cls-7" x="34.4" y="40.41" width="5.89" height="0.79" transform="translate(-3.61 77.98) rotate(-89.77)"/><rect class="cls-7" x="35.87" y="40.38" width="5.89" height="0.79" transform="translate(-2.11 79.43) rotate(-89.77)"/><rect class="cls-7" x="37.13" y="40.44" width="5.89" height="0.79" transform="translate(-0.92 80.75) rotate(-89.77)"/><rect class="cls-7" x="38.52" y="40.37" width="5.89" height="0.79" transform="translate(0.54 82.07) rotate(-89.77)"/><rect class="cls-7" x="40" y="40.35" width="5.89" height="0.79" transform="translate(2.03 83.52) rotate(-89.77)"/><rect class="cls-7" x="41.38" y="40.42" width="5.89" height="0.79" transform="translate(3.33 84.97) rotate(-89.77)"/><rect class="cls-7" x="42.77" y="40.48" width="5.89" height="0.79" transform="translate(4.65 86.43) rotate(-89.77)"/><rect class="cls-7" x="44.24" y="40.46" width="5.89" height="0.79" transform="matrix(0, -1, 1, 0, 6.15, 87.88)"/><rect class="cls-7" x="45.63" y="40.39" width="5.89" height="0.79" transform="translate(7.6 89.2) rotate(-89.77)"/><path class="cls-8" d="M26,27l21.34.13a1.5,1.5,0,0,1,1.57,1.56v5.82a1.5,1.5,0,0,1-1.57,1.56L26,35.92"/></g><g id="Слой_3" data-name="Слой 3"><path class="cls-2" d="M96.62,117.23a1.29,1.29,0,0,1-1.76.11"/></g><rect class="cls-5" x="94.7" y="28" width="45.38" height="15.64" rx="0.99" ry="0.99"/><path class="cls-5" d="M117.44,43.69H95.7a1,1,0,0,1-1-1V29.05a1,1,0,0,1,1-1h21.69"/><path class="cls-10" d="M117.39,28.05h21.7a1,1,0,0,1,1,1V42.7a1,1,0,0,1-1,1H117.44"/><path class="cls-10" d="M117.39,51.6h21.7a1,1,0,0,1,1,1V66.24a1,1,0,0,1-1,1H117.44"/><path class="cls-11" d="M129.65,39.45h3.71a.52.52,0,0,0,.52-.53v-.53a2.83,2.83,0,0,0-1.58-1.59h-.53a1.06,1.06,0,0,1-1.06-1.06v-.33a2.7,2.7,0,0,0,.51-1c0-.06.07-.09.1-.13a.62.62,0,0,0,.09-.78.26.26,0,0,1,0-.12v-.93a1.59,1.59,0,0,0-.38-1,1.44,1.44,0,0,0-.8-.41,2.32,2.32,0,0,0-.53-.05"/><path class="cls-11" d="M129.65,31a2.56,2.56,0,0,0-.62.07,1.44,1.44,0,0,0-.82.56,1.63,1.63,0,0,0-.26.84v.94c0,.07,0,.11-.07.16a.65.65,0,0,0,.15.8c.06,0,.07.12.09.18a2.56,2.56,0,0,0,.48.85v.35a1.06,1.06,0,0,1-1.06,1.06H127a2.86,2.86,0,0,0-1.59,1.59v.53a.53.53,0,0,0,.53.53h3.7"/><path class="cls-1" d="M141,70.35l-47.8-.13a2,2,0,0,1-2-2l.13-17.68a2,2,0,0,1,2-2l47.8.13a2,2,0,0,1,2,2L143,68.38A1.85,1.85,0,0,1,141,70.35Z"/><rect class="cls-5" x="94.7" y="51.61" width="45.38" height="15.64" rx="0.99" ry="0.99"/><path class="cls-10" d="M117.36,51.66h21.73a1,1,0,0,1,1,1v13.6a1,1,0,0,1-1,1H117.4"/><path class="cls-1" d="M141,94l-47.8-.13a2,2,0,0,1-2-2l.13-17.68a2,2,0,0,1,2-2l47.8.14a2,2,0,0,1,2,2L143,92A1.85,1.85,0,0,1,141,94Z"/><rect class="cls-5" x="94.62" y="75.13" width="45.38" height="15.64" rx="0.99" ry="0.99"/><path class="cls-10" d="M117.39,75.13h21.7a1,1,0,0,1,1,1V89.77a1,1,0,0,1-1,1H117.44"/><polygon class="cls-11" points="130.46 60.18 124.74 59.67 125.44 58.97 130.31 58.96 130.46 60.18"/><path class="cls-11" d="M134.64,59.66a2.22,2.22,0,0,0-4.33-.7,2.33,2.33,0,0,0-.11.7h-5.46L126.1,61l.67-.66.66.66.66-.66.66.66.66-.66h.91a2.22,2.22,0,0,0,4.32-.71Zm-1.53.67a.67.67,0,1,1,.67-.67A.67.67,0,0,1,133.11,60.33Z"/><path class="cls-11" d="M129.21,84.68v-2a3.28,3.28,0,0,1-1.62-.8,1.83,1.83,0,0,1-.51-1.31,1.68,1.68,0,0,1,.58-1.3,2.59,2.59,0,0,1,1.55-.61v-.46H130v.46a2.6,2.6,0,0,1,1.42.52,1.9,1.9,0,0,1,.67,1.13l-1.42.16a1,1,0,0,0-.67-.76v1.85a3.73,3.73,0,0,1,1.83.8,1.66,1.66,0,0,1,.49,1.25,1.9,1.9,0,0,1-.61,1.44,2.92,2.92,0,0,1-1.71.72v.89h-.81v-.86a2.79,2.79,0,0,1-1.58-.62,2.36,2.36,0,0,1-.77-1.44l1.46-.13a1.4,1.4,0,0,0,.34.65A1.32,1.32,0,0,0,129.21,84.68Zm0-5a1.14,1.14,0,0,0-.53.33.74.74,0,0,0-.2.5.7.7,0,0,0,.18.46,1.19,1.19,0,0,0,.55.35V79.71Zm.81,5a1.25,1.25,0,0,0,.68-.33.84.84,0,0,0,.27-.62.82.82,0,0,0-.22-.55,1.51,1.51,0,0,0-.73-.35Z"/><path class="cls-1" d="M141,117.58l-47.8-.13a2,2,0,0,1-2-2l.13-17.68a2,2,0,0,1,2-2l47.8.14a2,2,0,0,1,2,2L143,115.62A1.85,1.85,0,0,1,141,117.58Z"/><rect class="cls-5" x="94.62" y="98.74" width="45.38" height="15.64" rx="0.99" ry="0.99"/><path class="cls-10" d="M117.39,98.74h21.7a1,1,0,0,1,1,1v13.65a1,1,0,0,1-1,1H117.44"/><path class="cls-12" d="M71.78.15S56.1,18.42,20.26,18.42V62.13c0,22.8,10.15,44.88,28.52,59.06a68.28,68.28,0,0,0,23,11.84,70.8,70.8,0,0,0,23-11.84,74.26,74.26,0,0,0,28.53-59.06V18.42C87.46,18.42,71.78.15,71.78.15Z"/><path class="cls-4" d="M20.5,18.42V62.13C20.5,84.93,30.65,107,49,121.19A68.18,68.18,0,0,0,72,133V0C72,.15,56.34,18.42,20.5,18.42Z"/><path class="cls-9" d="M72,118.56a56.36,56.36,0,0,1-14.34-8.19C43.2,99.26,34.53,81.28,34.53,62.13V31.28C51.86,29.09,64.11,23.24,72,18c7.92,5.26,20.16,11.11,37.49,13.3V62.13c0,19-8.67,37-23.15,48.24A59,59,0,0,1,72,118.56Z"/><path class="cls-3" d="M34.53,31.28V62.13c0,19,8.67,37,23.15,48.24A59,59,0,0,0,72,118.56V18C64.11,23.24,51.86,29.24,34.53,31.28Z"/><path class="cls-13" d="M85.68,75.9a2.54,2.54,0,0,1,0-.56V60.24c0-.32,0-.52-.11-.59a1,1,0,0,0-.57-.1H82.82V56.94s0-.42,0-1.26a4,4,0,0,0-.16-1.36,4.25,4.25,0,0,1-.3-1.21c-.13-.73-.31-1.14-.52-1.22A9.78,9.78,0,0,0,78,47.73a10.51,10.51,0,0,0-5.55-1.57l-.57,0a9.9,9.9,0,0,0-6.61,2.36,9.5,9.5,0,0,0-3.53,5.93,11.12,11.12,0,0,0-.13,1.59c0,.57,0,1.2,0,1.9s0,1.23,0,1.58H58.9c-.17,0-.27,0-.32.12a.66.66,0,0,0,0,.4v16.5a.43.43,0,0,0,.34.33,2.91,2.91,0,0,0,.68,0,1.87,1.87,0,0,1,.59,0H85.32a.49.49,0,0,0,.34-.37A1.94,1.94,0,0,0,85.68,75.9ZM74.51,68.23a2.84,2.84,0,0,1-1.18,1,1.41,1.41,0,0,0,0,.28l.72,3.42H70l.71-3.25a2.06,2.06,0,0,0,.08-.52,2.77,2.77,0,0,1-1.09-1,2.53,2.53,0,0,1-.41-1.42,2.62,2.62,0,0,1,.42-1.43,2.21,2.21,0,0,1,.72-.8,2.66,2.66,0,0,1,1.71-.6h.18a2.14,2.14,0,0,1,1.75.84,2.53,2.53,0,0,1,.93,2A2.65,2.65,0,0,1,74.51,68.23ZM65,59.44c0-.33,0-.86,0-1.59s0-1.31,0-1.73a7.42,7.42,0,0,1,.24-1.5,6.17,6.17,0,0,1,.6-1.58,6.39,6.39,0,0,1,2.52-2.56,6.62,6.62,0,0,1,3.52-.93,4.24,4.24,0,0,1,.53,0,7.45,7.45,0,0,1,3.7,1,6.28,6.28,0,0,1,2.59,2.69,6.66,6.66,0,0,1,.53,1.56,8.44,8.44,0,0,1,.2,1.48c0,.42,0,1,0,1.66s0,1.21,0,1.56Z"/><polygon class="cls-11" points="132.86 104.92 130.81 102.88 126.29 102.88 126.29 111.33 132.86 111.33 132.86 104.92"/><polygon class="cls-9" points="130.81 102.88 130.81 104.92 132.86 104.92 130.81 102.88"/></g></g></svg>