<svg xmlns="http://www.w3.org/2000/svg" viewBox="0 0 143.2 133"><defs><style>.unprecedented-1{fill:#2e424a;}.unprecedented-2{fill:#2b3a43;}.unprecedented-3{fill:#d8e3e6;}.unprecedented-4{fill:#00b8a1;}.unprecedented-5{fill:#0096ea;}.unprecedented-6{fill:#17242a;}.unprecedented-7{fill:#152024;}.unprecedented-8{fill:#c8d1d4;}.unprecedented-9{fill:#c9d4d7;}.unprecedented-10{fill:#008ad9;}.unprecedented-11{fill:#009082;}.unprecedented-12{fill:#8b979a;}</style></defs><title>unprecedented-security_1</title><g id="Слой_2" data-name="Слой 2"><g id="Слой_1-2" data-name="Слой 1"><g id="Слой_1-3" data-name="Слой 1"><g id="Слой_1-4" data-name="Слой 1"><path class="unprecedented-1" d="M141,46.7l-47.8-.1a2.07,2.07,0,0,1-2-2l.1-17.7a2.07,2.07,0,0,1,2-2l47.8.1a2.07,2.07,0,0,1,2,2L143,44.7A1.89,1.89,0,0,1,141,46.7Z"/><path class="unprecedented-1" d="M26.6,93.7,2.1,93.6a2,2,0,0,1-2-2L.2,73.9a2.15,2.15,0,0,1,2-2L27,72"/><path class="unprecedented-2" d="M26,72.1l23.9.1a2.07,2.07,0,0,1,2,2l-.1,17.7a1.94,1.94,0,0,1-2,2l-24.2-.1"/><path class="unprecedented-3" d="M47.5,83.3,4.7,83.2a1.58,1.58,0,0,1-1.6-1.6V75.7a1.58,1.58,0,0,1,1.6-1.6l42.8.2a1.58,1.58,0,0,1,1.6,1.6v5.9A1.7,1.7,0,0,1,47.5,83.3Z"/><circle class="unprecedented-4" cx="7.8" cy="78.6" r="1.2"/><circle class="unprecedented-4" cx="12.6" cy="78.6" r="1.2"/><circle class="unprecedented-5" cx="17.5" cy="78.6" r="1.2"/><rect class="unprecedented-6" x="0.44" y="87.45" width="5.9" height="0.8" transform="translate(-84.47 90.89) rotate(-89.77)"/><rect class="unprecedented-6" x="1.87" y="87.5" width="5.9" height="0.8" transform="translate(-83.1 92.36) rotate(-89.77)"/><rect class="unprecedented-6" x="3.36" y="87.45" width="5.9" height="0.8" transform="translate(-81.56 93.81) rotate(-89.77)"/><rect class="unprecedented-6" x="4.57" y="87.47" width="5.9" height="0.8" transform="translate(-80.39 95.04) rotate(-89.77)"/><rect class="unprecedented-6" x="5.92" y="87.39" width="5.9" height="0.8" transform="translate(-78.96 96.31) rotate(-89.77)"/><rect class="unprecedented-6" x="7.49" y="87.58" width="5.9" height="0.8" transform="translate(-77.58 98.06) rotate(-89.77)"/><rect class="unprecedented-6" x="8.83" y="87.5" width="5.9" height="0.8" transform="translate(-76.16 99.33) rotate(-89.77)"/><rect class="unprecedented-6" x="10.26" y="87.55" width="5.9" height="0.8" transform="translate(-74.79 100.8) rotate(-89.77)"/><rect class="unprecedented-6" x="11.66" y="87.5" width="5.9" height="0.8" transform="translate(-73.35 102.15) rotate(-89.77)"/><rect class="unprecedented-6" x="13.09" y="87.55" width="5.9" height="0.8" transform="translate(-71.98 103.64) rotate(-89.77)"/><rect class="unprecedented-6" x="14.45" y="87.47" width="5.9" height="0.8" transform="translate(-70.55 104.92) rotate(-89.77)"/><rect class="unprecedented-6" x="15.94" y="87.53" width="5.9" height="0.8" transform="translate(-69.11 106.47) rotate(-89.77)"/><rect class="unprecedented-6" x="17.42" y="87.48" width="5.9" height="0.8" transform="translate(-67.59 107.89) rotate(-89.77)"/><rect class="unprecedented-6" x="18.84" y="87.53" width="5.9" height="0.8" transform="translate(-66.22 109.37) rotate(-89.77)"/><rect class="unprecedented-6" x="20.24" y="87.48" width="5.9" height="0.8" transform="translate(-64.78 110.72) rotate(-89.77)"/><rect class="unprecedented-6" x="21.67" y="87.53" width="5.9" height="0.8" transform="translate(-63.41 112.2) rotate(-89.77)"/><rect class="unprecedented-6" x="23.03" y="87.55" width="5.9" height="0.8" transform="translate(-62.08 113.58) rotate(-89.77)"/><rect class="unprecedented-7" x="24.5" y="87.64" width="5.9" height="0.8" transform="translate(-60.7 115.13) rotate(-89.77)"/><rect class="unprecedented-7" x="25.94" y="87.56" width="5.9" height="0.8" transform="translate(-59.18 116.49) rotate(-89.77)"/><rect class="unprecedented-7" x="27.27" y="87.61" width="5.9" height="0.8" transform="translate(-57.91 117.87) rotate(-89.77)"/><rect class="unprecedented-7" x="28.76" y="87.56" width="5.9" height="0.8" transform="translate(-56.37 119.32) rotate(-89.77)"/><rect class="unprecedented-7" x="30.13" y="87.48" width="5.9" height="0.8" transform="translate(-54.94 120.61) rotate(-89.77)"/><rect class="unprecedented-7" x="31.55" y="87.63" width="5.9" height="0.8" transform="translate(-53.67 122.18) rotate(-89.77)"/><rect class="unprecedented-7" x="33.05" y="87.59" width="5.9" height="0.8" transform="translate(-52.13 123.63) rotate(-89.77)"/><rect class="unprecedented-7" x="34.39" y="87.64" width="5.9" height="0.8" transform="translate(-50.84 125.03) rotate(-89.77)"/><rect class="unprecedented-7" x="35.89" y="87.59" width="5.9" height="0.8" transform="translate(-49.3 126.48) rotate(-89.77)"/><rect class="unprecedented-7" x="37.19" y="87.61" width="5.9" height="0.8" transform="translate(-48.03 127.8) rotate(-89.77)"/><rect class="unprecedented-7" x="38.55" y="87.63" width="5.9" height="0.8" transform="translate(-46.7 129.18) rotate(-89.77)"/><rect class="unprecedented-7" x="40.05" y="87.58" width="5.9" height="0.8" transform="translate(-45.16 130.63) rotate(-89.77)"/><rect class="unprecedented-7" x="41.36" y="87.63" width="5.9" height="0.8" transform="translate(-43.9 131.99) rotate(-89.77)"/><rect class="unprecedented-7" x="42.79" y="87.69" width="5.9" height="0.8" transform="translate(-42.53 133.47) rotate(-89.77)"/><rect class="unprecedented-7" x="44.28" y="87.64" width="5.9" height="0.8" transform="translate(-40.99 134.92) rotate(-89.77)"/><rect class="unprecedented-7" x="45.65" y="87.56" width="5.9" height="0.8" transform="translate(-39.56 136.2) rotate(-89.77)"/><path class="unprecedented-8" d="M26,74.2l21.3.1a1.52,1.52,0,0,1,1.6,1.6v5.8a1.58,1.58,0,0,1-1.6,1.6L26,83.2"/><path class="unprecedented-1" d="M26.3,117.5,2,117.4a2,2,0,0,1-2-2L.1,97.7a2.07,2.07,0,0,1,2-2l24.6.1"/><path class="unprecedented-2" d="M26,95.9l23.9.1a2.07,2.07,0,0,1,2,2l-.1,17.7a1.94,1.94,0,0,1-2,2l-24.2-.1"/><path class="unprecedented-3" d="M47.5,107.2l-42.8-.1a1.58,1.58,0,0,1-1.6-1.6V99.6A1.58,1.58,0,0,1,4.7,98l42.8.1a1.58,1.58,0,0,1,1.6,1.6v5.9A1.71,1.71,0,0,1,47.5,107.2Z"/><path class="unprecedented-9" d="M26,98.1l21.4.1A1.58,1.58,0,0,1,49,99.8v5.9a1.64,1.64,0,0,1-1.6,1.6l-21.7-.1"/><circle class="unprecedented-4" cx="7.8" cy="102.5" r="1.2"/><circle class="unprecedented-4" cx="12.6" cy="102.5" r="1.2"/><circle class="unprecedented-5" cx="17.5" cy="102.5" r="1.2"/><rect class="unprecedented-6" x="0.44" y="111.35" width="5.9" height="0.8" transform="translate(-108.37 114.69) rotate(-89.77)"/><rect class="unprecedented-6" x="1.87" y="111.4" width="5.9" height="0.8" transform="translate(-107 116.17) rotate(-89.77)"/><rect class="unprecedented-6" x="3.37" y="111.35" width="5.9" height="0.8" transform="translate(-105.46 117.62) rotate(-89.77)"/><rect class="unprecedented-6" x="4.57" y="111.37" width="5.9" height="0.8" transform="translate(-104.28 118.84) rotate(-89.77)"/><rect class="unprecedented-6" x="5.93" y="111.29" width="5.9" height="0.8" transform="translate(-102.85 120.12) rotate(-89.77)"/><rect class="unprecedented-6" x="7.49" y="111.48" width="5.9" height="0.8" transform="translate(-101.47 121.87) rotate(-89.77)"/><rect class="unprecedented-6" x="8.83" y="111.4" width="5.9" height="0.8" transform="translate(-100.06 123.13) rotate(-89.77)"/><rect class="unprecedented-6" x="10.26" y="111.45" width="5.9" height="0.8" transform="translate(-98.69 124.61) rotate(-89.77)"/><rect class="unprecedented-6" x="11.66" y="111.4" width="5.9" height="0.8" transform="translate(-97.25 125.96) rotate(-89.77)"/><rect class="unprecedented-6" x="13.09" y="111.45" width="5.9" height="0.8" transform="translate(-95.87 127.44) rotate(-89.77)"/><rect class="unprecedented-6" x="14.45" y="111.37" width="5.9" height="0.8" transform="translate(-94.44 128.72) rotate(-89.77)"/><rect class="unprecedented-6" x="15.95" y="111.42" width="5.9" height="0.8" transform="translate(-93 130.27) rotate(-89.77)"/><rect class="unprecedented-6" x="17.42" y="111.38" width="5.9" height="0.8" transform="translate(-91.49 131.69) rotate(-89.77)"/><rect class="unprecedented-6" x="18.85" y="111.43" width="5.9" height="0.8" transform="translate(-90.12 133.17) rotate(-89.77)"/><rect class="unprecedented-6" x="20.24" y="111.38" width="5.9" height="0.8" transform="translate(-88.68 134.52) rotate(-89.77)"/><rect class="unprecedented-6" x="21.67" y="111.43" width="5.9" height="0.8" transform="translate(-87.31 136.01) rotate(-89.77)"/><rect class="unprecedented-6" x="23.03" y="111.45" width="5.9" height="0.8" transform="translate(-85.97 137.38) rotate(-89.77)"/><rect class="unprecedented-7" x="24.5" y="111.54" width="5.9" height="0.8" transform="translate(-84.6 138.93) rotate(-89.77)"/><rect class="unprecedented-7" x="25.94" y="111.46" width="5.9" height="0.8" transform="translate(-83.08 140.3) rotate(-89.77)"/><rect class="unprecedented-7" x="27.27" y="111.51" width="5.9" height="0.8" transform="translate(-81.81 141.68) rotate(-89.77)"/><rect class="unprecedented-7" x="28.77" y="111.46" width="5.9" height="0.8" transform="translate(-80.27 143.13) rotate(-89.77)"/><rect class="unprecedented-7" x="30.13" y="111.38" width="5.9" height="0.8" transform="translate(-78.83 144.41) rotate(-89.77)"/><rect class="unprecedented-7" x="31.56" y="111.53" width="5.9" height="0.8" transform="translate(-77.56 145.99) rotate(-89.77)"/><rect class="unprecedented-7" x="33.05" y="111.48" width="5.9" height="0.8" transform="translate(-76.03 147.44) rotate(-89.77)"/><rect class="unprecedented-7" x="34.4" y="111.54" width="5.9" height="0.8" transform="translate(-74.74 148.83) rotate(-89.77)"/><rect class="unprecedented-7" x="35.89" y="111.49" width="5.9" height="0.8" transform="translate(-73.2 150.28) rotate(-89.77)"/><rect class="unprecedented-7" x="37.19" y="111.51" width="5.9" height="0.8" transform="translate(-71.92 151.6) rotate(-89.77)"/><rect class="unprecedented-7" x="38.55" y="111.53" width="5.9" height="0.8" transform="translate(-70.59 152.98) rotate(-89.77)"/><rect class="unprecedented-7" x="40.05" y="111.48" width="5.9" height="0.8" transform="translate(-69.05 154.43) rotate(-89.77)"/><rect class="unprecedented-7" x="41.36" y="111.53" width="5.9" height="0.8" transform="translate(-67.8 155.79) rotate(-89.77)"/><rect class="unprecedented-7" x="42.79" y="111.58" width="5.9" height="0.8" transform="translate(-66.43 157.27) rotate(-89.77)"/><rect class="unprecedented-7" x="44.29" y="111.54" width="5.9" height="0.8" transform="translate(-64.89 158.72) rotate(-89.77)"/><rect class="unprecedented-7" x="45.65" y="111.46" width="5.9" height="0.8" transform="translate(-63.45 160.01) rotate(-89.77)"/><path class="unprecedented-1" d="M25.6,70.4,2,70.3a2.07,2.07,0,0,1-2-2L.1,50.6a2.07,2.07,0,0,1,2-2l23.9.1"/><path class="unprecedented-2" d="M26,48.8l23.9.1a2.07,2.07,0,0,1,2,2l-.1,17.7a1.94,1.94,0,0,1-2,2l-24.2-.1"/><path class="unprecedented-3" d="M47.5,60,4.7,59.9a1.58,1.58,0,0,1-1.6-1.6V52.4a1.58,1.58,0,0,1,1.6-1.6l42.8.1a1.58,1.58,0,0,1,1.6,1.6v5.9A1.8,1.8,0,0,1,47.5,60Z"/><circle class="unprecedented-4" cx="7.8" cy="55.3" r="1.2"/><circle class="unprecedented-4" cx="12.6" cy="55.3" r="1.2"/><circle class="unprecedented-5" cx="17.5" cy="55.3" r="1.2"/><rect class="unprecedented-6" x="0.46" y="64.12" width="5.9" height="0.8" transform="translate(-61.11 67.67) rotate(-89.77)"/><rect class="unprecedented-6" x="1.79" y="64.17" width="5.9" height="0.8" transform="translate(-59.84 69.05) rotate(-89.77)"/><rect class="unprecedented-6" x="3.29" y="64.12" width="5.9" height="0.8" transform="translate(-58.3 70.5) rotate(-89.77)"/><rect class="unprecedented-6" x="4.59" y="64.14" width="5.9" height="0.8" transform="translate(-57.03 71.82) rotate(-89.77)"/><rect class="unprecedented-6" x="5.95" y="64.06" width="5.9" height="0.8" transform="translate(-55.6 73.1) rotate(-89.77)"/><rect class="unprecedented-6" x="7.41" y="64.24" width="5.9" height="0.8" transform="translate(-54.32 74.75) rotate(-89.77)"/><rect class="unprecedented-6" x="8.86" y="64.16" width="5.9" height="0.8" transform="translate(-52.8 76.11) rotate(-89.77)"/><rect class="unprecedented-6" x="10.18" y="64.21" width="5.9" height="0.8" transform="translate(-51.53 77.49) rotate(-89.77)"/><rect class="unprecedented-6" x="11.68" y="64.17" width="5.9" height="0.8" transform="translate(-49.99 78.94) rotate(-89.77)"/><rect class="unprecedented-6" x="13.11" y="64.22" width="5.9" height="0.8" transform="translate(-48.62 80.42) rotate(-89.77)"/><rect class="unprecedented-6" x="14.47" y="64.14" width="5.9" height="0.8" transform="translate(-47.19 81.7) rotate(-89.77)"/><rect class="unprecedented-6" x="15.97" y="64.19" width="5.9" height="0.8" transform="translate(-45.75 83.25) rotate(-89.77)"/><rect class="unprecedented-6" x="17.44" y="64.14" width="5.9" height="0.8" transform="translate(-44.23 84.67) rotate(-89.77)"/><rect class="unprecedented-6" x="18.77" y="64.19" width="5.9" height="0.8" transform="translate(-42.96 86.05) rotate(-89.77)"/><rect class="unprecedented-6" x="20.27" y="64.15" width="5.9" height="0.8" transform="translate(-41.42 87.5) rotate(-89.77)"/><rect class="unprecedented-6" x="21.7" y="64.2" width="5.9" height="0.8" transform="translate(-40.05 88.99) rotate(-89.77)"/><rect class="unprecedented-6" x="23.05" y="64.22" width="5.9" height="0.8" transform="translate(-38.72 90.36) rotate(-89.77)"/><rect class="unprecedented-7" x="24.52" y="64.3" width="5.9" height="0.8" transform="translate(-37.34 91.91) rotate(-89.77)"/><rect class="unprecedented-7" x="25.86" y="64.22" width="5.9" height="0.8" transform="translate(-35.92 93.18) rotate(-89.77)"/><rect class="unprecedented-7" x="27.29" y="64.27" width="5.9" height="0.8" transform="translate(-34.55 94.65) rotate(-89.77)"/><rect class="unprecedented-7" x="28.79" y="64.23" width="5.9" height="0.8" transform="translate(-33.02 96.11) rotate(-89.77)"/><rect class="unprecedented-7" x="30.15" y="64.15" width="5.9" height="0.8" transform="translate(-31.58 97.39) rotate(-89.77)"/><rect class="unprecedented-7" x="31.58" y="64.3" width="5.9" height="0.8" transform="translate(-30.31 98.97) rotate(-89.77)"/><rect class="unprecedented-7" x="32.98" y="64.25" width="5.9" height="0.8" transform="translate(-28.87 100.32) rotate(-89.77)"/><rect class="unprecedented-7" x="34.42" y="64.3" width="5.9" height="0.8" transform="translate(-27.48 101.81) rotate(-89.77)"/><rect class="unprecedented-7" x="35.92" y="64.26" width="5.9" height="0.8" transform="translate(-25.95 103.26) rotate(-89.77)"/><rect class="unprecedented-7" x="37.12" y="64.37" width="5.9" height="0.8" transform="translate(-24.87 104.58) rotate(-89.77)"/><rect class="unprecedented-7" x="38.57" y="64.3" width="5.9" height="0.8" transform="translate(-23.34 105.96) rotate(-89.77)"/><rect class="unprecedented-7" x="39.97" y="64.25" width="5.9" height="0.8" transform="translate(-21.9 107.31) rotate(-89.77)"/><rect class="unprecedented-7" x="41.38" y="64.3" width="5.9" height="0.8" transform="translate(-20.54 108.77) rotate(-89.77)"/><rect class="unprecedented-7" x="42.81" y="64.35" width="5.9" height="0.8" transform="translate(-19.17 110.25) rotate(-89.77)"/><rect class="unprecedented-7" x="44.31" y="64.3" width="5.9" height="0.8" transform="translate(-17.63 111.7) rotate(-89.77)"/><rect class="unprecedented-7" x="45.67" y="64.22" width="5.9" height="0.8" transform="translate(-16.2 112.99) rotate(-89.77)"/><path class="unprecedented-8" d="M26,50.9l21.3.1a1.52,1.52,0,0,1,1.6,1.6v5.8A1.58,1.58,0,0,1,47.3,60L26,59.9"/><path class="unprecedented-1" d="M25.6,46.5,2,46.4a2.07,2.07,0,0,1-2-2L.1,26.7a2.07,2.07,0,0,1,2-2l23.9.1"/><path class="unprecedented-2" d="M26.1,24.9,50,25a2.07,2.07,0,0,1,2,2l-.1,17.7a1.94,1.94,0,0,1-2,2l-24.2-.1"/><path class="unprecedented-3" d="M47.5,36.1,4.7,36a1.58,1.58,0,0,1-1.6-1.6V28.5a1.58,1.58,0,0,1,1.6-1.6l42.8.1a1.58,1.58,0,0,1,1.6,1.6v5.9A1.64,1.64,0,0,1,47.5,36.1Z"/><circle class="unprecedented-4" cx="7.8" cy="31.4" r="1.2"/><circle class="unprecedented-4" cx="12.7" cy="31.4" r="1.2"/><circle class="unprecedented-5" cx="17.5" cy="31.4" r="1.2"/><rect class="unprecedented-6" x="0.53" y="40.12" width="5.9" height="0.8" transform="translate(-37.06 43.84) rotate(-89.77)"/><rect class="unprecedented-6" x="1.85" y="40.17" width="5.9" height="0.8" transform="translate(-35.79 45.21) rotate(-89.77)"/><rect class="unprecedented-6" x="3.35" y="40.22" width="5.9" height="0.8" transform="translate(-34.35 46.76) rotate(-89.77)"/><rect class="unprecedented-6" x="4.65" y="40.24" width="5.9" height="0.8" transform="translate(-33.07 48.08) rotate(-89.77)"/><rect class="unprecedented-6" x="6.01" y="40.17" width="5.9" height="0.8" transform="translate(-31.64 49.36) rotate(-89.77)"/><rect class="unprecedented-6" x="7.48" y="40.25" width="5.9" height="0.8" transform="translate(-30.26 50.91) rotate(-89.77)"/><rect class="unprecedented-6" x="8.82" y="40.27" width="5.9" height="0.8" transform="translate(-28.95 52.28) rotate(-89.77)"/><rect class="unprecedented-6" x="10.25" y="40.32" width="5.9" height="0.8" transform="translate(-27.58 53.75) rotate(-89.77)"/><rect class="unprecedented-6" x="11.74" y="40.27" width="5.9" height="0.8" transform="translate(-26.04 55.2) rotate(-89.77)"/><rect class="unprecedented-6" x="13.08" y="40.32" width="5.9" height="0.8" transform="translate(-24.76 56.59) rotate(-89.77)"/><rect class="unprecedented-6" x="14.53" y="40.25" width="5.9" height="0.8" transform="translate(-23.23 57.97) rotate(-89.77)"/><rect class="unprecedented-6" x="15.93" y="40.2" width="5.9" height="0.8" transform="translate(-21.79 59.32) rotate(-89.77)"/><rect class="unprecedented-6" x="17.4" y="40.25" width="5.9" height="0.8" transform="translate(-20.38 60.84) rotate(-89.77)"/><rect class="unprecedented-6" x="18.83" y="40.3" width="5.9" height="0.8" transform="translate(-19.01 62.32) rotate(-89.77)"/><rect class="unprecedented-6" x="20.33" y="40.25" width="5.9" height="0.8" transform="translate(-17.47 63.77) rotate(-89.77)"/><rect class="unprecedented-6" x="21.66" y="40.3" width="5.9" height="0.8" transform="translate(-16.19 65.15) rotate(-89.77)"/><rect class="unprecedented-6" x="23.12" y="40.23" width="5.9" height="0.8" transform="translate(-14.66 66.53) rotate(-89.77)"/><rect class="unprecedented-7" x="24.58" y="40.41" width="5.9" height="0.8" transform="translate(-13.39 68.18) rotate(-89.77)"/><rect class="unprecedented-7" x="25.93" y="40.33" width="5.9" height="0.8" transform="translate(-11.97 69.44) rotate(-89.77)"/><rect class="unprecedented-7" x="27.35" y="40.38" width="5.9" height="0.8" transform="translate(-10.6 70.92) rotate(-89.77)"/><rect class="unprecedented-7" x="28.75" y="40.33" width="5.9" height="0.8" transform="translate(-9.16 72.27) rotate(-89.77)"/><rect class="unprecedented-7" x="30.21" y="40.25" width="5.9" height="0.8" transform="translate(-7.62 73.65) rotate(-89.77)"/><rect class="unprecedented-7" x="31.54" y="40.31" width="5.9" height="0.8" transform="translate(-6.35 75.03) rotate(-89.77)"/><rect class="unprecedented-7" x="33.04" y="40.26" width="5.9" height="0.8" transform="translate(-4.81 76.48) rotate(-89.77)"/><rect class="unprecedented-7" x="34.48" y="40.41" width="5.9" height="0.8" transform="translate(-3.53 78.08) rotate(-89.77)"/><rect class="unprecedented-7" x="35.88" y="40.36" width="5.9" height="0.8" transform="translate(-2.09 79.43) rotate(-89.77)"/><rect class="unprecedented-7" x="37.18" y="40.38" width="5.9" height="0.8" transform="translate(-0.81 80.75) rotate(-89.77)"/><rect class="unprecedented-7" x="38.54" y="40.3" width="5.9" height="0.8" transform="translate(0.62 82.03) rotate(-89.77)"/><rect class="unprecedented-7" x="40.04" y="40.35" width="5.9" height="0.8" transform="translate(2.06 83.58) rotate(-89.77)"/><rect class="unprecedented-7" x="41.45" y="40.41" width="5.9" height="0.8" transform="translate(3.41 85.04) rotate(-89.77)"/><rect class="unprecedented-7" x="42.87" y="40.46" width="5.9" height="0.8" transform="translate(4.78 86.52) rotate(-89.77)"/><rect class="unprecedented-7" x="44.27" y="40.41" width="5.9" height="0.8" transform="translate(6.22 87.87) rotate(-89.77)"/><rect class="unprecedented-7" x="45.73" y="40.33" width="5.9" height="0.8" transform="translate(7.76 89.25) rotate(-89.77)"/><path class="unprecedented-8" d="M26.1,26.9l21.3.1A1.52,1.52,0,0,1,49,28.6v5.8A1.58,1.58,0,0,1,47.4,36l-21.3-.1"/></g><g id="Слой_3" data-name="Слой 3"><path class="unprecedented-2" d="M96.7,114.6a1.37,1.37,0,0,1-1.8.1"/></g><path class="unprecedented-5" d="M139.1,43.6H95.7a1,1,0,0,1-1-1V29a1,1,0,0,1,1-1h43.4a1,1,0,0,1,1,1V42.6A.94.94,0,0,1,139.1,43.6Z"/><path class="unprecedented-5" d="M117.5,43.7H95.8a1,1,0,0,1-1-1V29.1a1,1,0,0,1,1-1h21.7"/><path class="unprecedented-9" d="M117.4,28h21.7a1,1,0,0,1,1,1V42.6a1,1,0,0,1-1,1H117.5"/><path class="unprecedented-10" d="M117.4,51.6h21.7a1,1,0,0,1,1,1V66.2a1,1,0,0,1-1,1H117.5"/><path class="unprecedented-1" d="M141.1,70.3l-47.8-.1a2.07,2.07,0,0,1-2-2l.1-17.7a2.07,2.07,0,0,1,2-2l47.8.1a2.07,2.07,0,0,1,2,2l-.1,17.7A1.94,1.94,0,0,1,141.1,70.3Z"/><path class="unprecedented-5" d="M139.1,67.2H95.7a1,1,0,0,1-1-1V52.6a1,1,0,0,1,1-1h43.4a1,1,0,0,1,1,1V66.2A.94.94,0,0,1,139.1,67.2Z"/><path class="unprecedented-9" d="M117.4,51.6h21.7a1,1,0,0,1,1,1V66.2a1,1,0,0,1-1,1H117.4"/><path class="unprecedented-1" d="M141.1,93.9l-47.8-.1a2.07,2.07,0,0,1-2-2l.1-17.7a2.07,2.07,0,0,1,2-2l47.8.1a2.07,2.07,0,0,1,2,2l-.1,17.7A1.94,1.94,0,0,1,141.1,93.9Z"/><path class="unprecedented-5" d="M139.1,90.7H95.7a1,1,0,0,1-1-1V76.1a1,1,0,0,1,1-1h43.4a1,1,0,0,1,1,1V89.7A1.07,1.07,0,0,1,139.1,90.7Z"/><path class="unprecedented-9" d="M117.4,75.1h21.7a1,1,0,0,1,1,1V89.7a1,1,0,0,1-1,1H117.5"/><polygon class="unprecedented-10" points="130.5 60.1 124.8 59.6 125.5 58.9 130.4 58.9 130.5 60.1"/><path class="unprecedented-5" d="M134.7,59.6a2.22,2.22,0,0,0-2.2-2.2,2.16,2.16,0,0,0-2.1,1.5,1.7,1.7,0,0,0-.1.7h-5.5l1.4,1.4.7-.7.7.7.7-.7.7.7.7-.7h.9a2.16,2.16,0,0,0,2.1,1.5A2.19,2.19,0,0,0,134.7,59.6Zm-1.5.7a.7.7,0,1,1,.7-.7A.84.84,0,0,1,133.2,60.3Z"/><path class="unprecedented-5" d="M129.3,84.6v-2a3,3,0,0,1-1.6-.8,2.11,2.11,0,0,1-.5-1.3,1.61,1.61,0,0,1,.6-1.3,2,2,0,0,1,1.5-.6v-.5h.8v.5a2.57,2.57,0,0,1,1.4.5,1.9,1.9,0,0,1,.7,1.1l-1.4.2a1.12,1.12,0,0,0-.7-.8v1.8a3.78,3.78,0,0,1,1.8.8,1.73,1.73,0,0,1,.5,1.3,1.68,1.68,0,0,1-.6,1.4,2.94,2.94,0,0,1-1.7.7v.9h-.8v-.9a3.82,3.82,0,0,1-1.6-.6,2.19,2.19,0,0,1-.8-1.4l1.5-.1a4.88,4.88,0,0,0,.3.7C128.9,84.4,129.1,84.6,129.3,84.6Zm0-4.9a2.19,2.19,0,0,0-.5.3c-.1.2-.2.3-.2.5s.1.3.2.5a.85.85,0,0,0,.5.3V79.7Zm.8,5a1.49,1.49,0,0,0,.7-.3.86.86,0,0,0,.3-.6.76.76,0,0,0-.2-.5c-.1-.2-.4-.3-.7-.4v1.8Z"/><path class="unprecedented-1" d="M141.1,117.5l-47.8-.1a2.07,2.07,0,0,1-2-2l.1-17.7a2.07,2.07,0,0,1,2-2l47.8.1a2.07,2.07,0,0,1,2,2l-.1,17.7A1.94,1.94,0,0,1,141.1,117.5Z"/><path class="unprecedented-3" d="M139.1,114.3H95.7a1,1,0,0,1-1-1V99.7a1,1,0,0,1,1-1h43.4a1,1,0,0,1,1,1v13.6A1.07,1.07,0,0,1,139.1,114.3Z"/><path class="unprecedented-9" d="M117.4,98.7h21.7a1,1,0,0,1,1,1v13.6a1,1,0,0,1-1,1H117.5"/><path class="unprecedented-11" d="M71.8.1S56.1,18.4,20.3,18.4V62.1a74.76,74.76,0,0,0,28.5,59.1,65.93,65.93,0,0,0,23,11.8,71.41,71.41,0,0,0,23-11.8c18.4-14.2,28.5-36.1,28.5-59.1V18.4C87.5,18.4,71.8.1,71.8.1Z"/><path class="unprecedented-4" d="M20.5,18.4V62.1A74.76,74.76,0,0,0,49,121.2,65.93,65.93,0,0,0,72,133V0C72.1.1,56.4,18.4,20.5,18.4Z"/><path class="unprecedented-9" d="M72.1,118.5a55.63,55.63,0,0,1-14.3-8.2C43.3,99.2,34.7,81.2,34.7,62.1V31.3C52,29.1,64.3,23.3,72.2,18c7.9,5.3,20.2,11.1,37.5,13.3V62.1c0,19-8.7,37-23.1,48.2A64.35,64.35,0,0,1,72.1,118.5Z"/><path class="unprecedented-3" d="M34.6,31.3V62.1c0,19,8.7,37,23.1,48.2A59.18,59.18,0,0,0,72,118.5V17.9C64.2,23.2,51.9,29.2,34.6,31.3Z"/><path class="unprecedented-12" d="M85.7,75.9V60.3c0-.3,0-.5-.1-.6s-.3-.1-.6-.1H82.9V56.9s0-.4-.1-1.3a3,3,0,0,0-.2-1.4,3.1,3.1,0,0,1-.3-1.2c-.1-.7-.3-1.1-.5-1.2A10.19,10.19,0,0,0,78,47.6,11,11,0,0,0,72.4,46h-.6a9.8,9.8,0,0,0-6.6,2.4,9,9,0,0,0-3.5,5.9,8.08,8.08,0,0,0-.1,1.6v3.5H58.9c-.2,0-.3,0-.3.1s-.1.2,0,.4V76.4a.32.32,0,0,0,.3.3H85.4c.2-.1.3-.2.3-.4A.48.48,0,0,0,85.7,75.9ZM74.6,68.2a2.34,2.34,0,0,1-1.2,1v.3l.7,3.4H70l.7-3.3a4.33,4.33,0,0,1,.1-.5,2.66,2.66,0,0,1-1.1-1,2.65,2.65,0,0,1,0-2.8,2.83,2.83,0,0,1,2.4-1.4h.2a2.14,2.14,0,0,1,1.7.8,2.52,2.52,0,0,1,.9,2A2.06,2.06,0,0,1,74.6,68.2ZM65,59.4V56.1a10.4,10.4,0,0,1,.2-1.5,4.42,4.42,0,0,1,.6-1.6,6.92,6.92,0,0,1,2.5-2.6,7.3,7.3,0,0,1,3.5-.9h.5a7.11,7.11,0,0,1,3.7,1,6.16,6.16,0,0,1,2.6,2.7,7.49,7.49,0,0,1,.5,1.6,10.4,10.4,0,0,1,.2,1.5v3.3L65,59.4Z"/><polygon class="unprecedented-5" points="133.98 103.84 132.12 101.88 127.83 101.88 127.83 109.8 133.98 109.8 133.98 103.84"/><polygon class="unprecedented-10" points="131.47 105.35 129.6 103.4 125.32 103.4 125.32 111.32 131.47 111.32 131.47 105.35"/><polygon class="unprecedented-10" points="132.12 101.88 132.12 103.84 133.98 103.84 132.12 101.88"/><polygon class="unprecedented-5" points="129.5 103.44 129.5 105.39 131.36 105.39 129.5 103.44"/></g><path class="unprecedented-5" d="M133.82,36.88h-.54a1.07,1.07,0,0,1-1.07-1.07v-.34a2.51,2.51,0,0,0,.51-1c0-.06.07-.08.11-.13a.66.66,0,0,0,.09-.79s-.06-.07-.06-.12c0-.31,0-.63,0-.94a1.5,1.5,0,0,0-.38-1.05,1.48,1.48,0,0,0-.81-.42,2.67,2.67,0,0,0-1.16,0,1.37,1.37,0,0,0-.83.56,1.6,1.6,0,0,0-.26.85v1c0,.06,0,.1-.07.16a.66.66,0,0,0,.15.81c.06,0,.07.11.09.18a2.71,2.71,0,0,0,.48.86v.35A1.07,1.07,0,0,1,129,36.88h-.53a2.89,2.89,0,0,0-1.61,1.61V39a.54.54,0,0,0,.54.54h7.49a.54.54,0,0,0,.53-.54v-.53A2.89,2.89,0,0,0,133.82,36.88Z"/></g></g></svg>