<?xml version="1.0" encoding="utf-8"?>
<!-- Generator: Adobe Illustrator 22.0.1, SVG Export Plug-In . SVG Version: 6.00 Build 0)  -->
<svg version="1.1" id="Слой_1" xmlns="http://www.w3.org/2000/svg" xmlns:xlink="http://www.w3.org/1999/xlink" x="0px" y="0px"
	 viewBox="0 0 399.1 398.5" style="enable-background:new 0 0 399.1 398.5;" xml:space="preserve">
<style type="text/css">
	.st0{fill:none;}
	.st1{fill:#EAB981;}
	.st2{fill:#D4A779;}
	.st3{fill:#192023;}
	.st4{fill:#1D252A;}
	.st5{fill:#F0C087;}
	.st6{fill:#F4CF9C;}
	.st7{fill:#E3BD8D;}
	.st8{fill:#684A4A;}
	.st9{fill:#795858;}
	.st10{fill:#8A9699;}
	.st11{fill:#C8D0D3;}
	.st12{fill:#2C3A43;}
	.st13{fill:#2E4149;}
	.st14{fill:#C3D3D6;}
	.st15{fill:#D7E2E5;}
</style>
<title>end_users</title>
<g id="Слой_2_1_">
	<g id="Слой_1-2">
		<line class="st0" x1="177.4" y1="259" x2="115.7" y2="259"/>
		<line class="st0" x1="234" y1="259" x2="177.9" y2="259"/>
		<line class="st0" x1="340.9" y1="211.3" x2="308" y2="211.3"/>
		<polygon class="st1" points="348.3,242.7 348.3,221.8 294.5,221.8 294.5,242.7 321.3,266.7 		"/>
		<polyline class="st2" points="321.5,264.8 348.4,240.8 348.4,219.9 321.5,219.9 		"/>
		<path class="st3" d="M390,252.6l-37.1-8.8c-0.5-0.1-1-0.3-1.5-0.6l-30,17.5l-28.9-18.4c-0.7,0.7-1.7,1.2-2.7,1.4l-37.1,8.8
			c-5.4,1.3-9.2,6.1-9.2,11.7v23.5c0,3.3,2.7,6,6,6h143.6c3.3,0,6-2.7,6-6v-23.4C399.2,258.8,395.4,253.9,390,252.6z"/>
		<path class="st4" d="M321.3,260.7l-28.9-18.4c-0.7,0.7-1.7,1.2-2.7,1.4l-37.1,8.8c-5.4,1.3-9.2,6.1-9.2,11.7v23.5c0,3.3,2.7,6,6,6
			h72"/>
		<path class="st5" d="M282.4,153l2.6,57.4c0.3,5.4,2.9,10.3,7.2,13.6l12.3,9.3c3.1,2.4,6.9,3.6,10.8,3.6h12c3.9,0,7.7-1.3,10.8-3.6
			l12.3-9.3c4.3-3.2,6.9-8.2,7.2-13.6l2.6-57.4H282.4z"/>
		<path class="st6" d="M282.6,153l2.6,57.4c0.3,5.4,2.9,10.3,7.2,13.6l12.3,9.3c3.1,2.4,6.9,3.6,10.8,3.6h12c3.9,0,7.7-1.3,10.8-3.6
			l12.3-9.3c4.3-3.2,6.9-8.2,7.2-13.6l2.6-57.4H282.6z"/>
		<path class="st7" d="M321.5,236.9h6c3.9,0,7.7-1.3,10.8-3.6l12.3-9.3c4.3-3.2,6.9-8.2,7.2-13.6l2.6-57.4h-38.9"/>
		<path class="st8" d="M339.5,133.2l2.8,19.8c12.8,2.5,14.6,22.7,14.9,28.4c0.1,1.1,0.4,2.1,1,3l4.9,7.6c0,0-1.6-12.5,6-21
			C369,170.9,371.7,121.1,339.5,133.2z"/>
		<path class="st7" d="M366.1,190.5l-3.3,13.6c-0.4,1.6-1.8,2.7-3.4,2.7l0,0c-1.8,0-3.3-1.4-3.5-3.2l-1.7-13.8c-0.4-3.4,2-6.5,5.4-7
			c0.2,0,0.5,0,0.7,0l0,0c3.5,0.2,6.1,3.1,6,6.5C366.2,189.8,366.2,190.1,366.1,190.5z"/>
		<path class="st9" d="M285.3,127.8l4.4,3.1c-20,14.7-16.3,40.2-16.3,40.2c6,6,6,21,6,21l6-6c0,0-2.3-17.3,9-24
			c10.4-6.1,19.6-3.1,29-3.1c25.1,0,32.1-9.5,30.8-21c-0.6-6-9.8-18.4-32.8-18C312,120.2,294.5,123,285.3,127.8z"/>
		<path class="st9" d="M285.3,127.8l4.4,3.1c-20,14.7-16.3,40.2-16.3,40.2c6,6,6,21,6,21l6-6c0,0-2.3-17.3,9-24
			c9.9-5.8,18.4-3.3,27.1-3.1"/>
		<path class="st8" d="M321.5,158.9c0.6,0,1.2,0.1,1.8,0.1c25.1,0,32.1-9.5,30.8-21c-0.6-6-9.8-18.4-32.8-18"/>
		<path class="st10" d="M367.2,287.5h-21c-1.7,0-3.1,1.4-3.1,3.1v3.1h27v-3.1c0.2-1.5-0.9-2.9-2.5-3.1
			C367.5,287.5,367.3,287.5,367.2,287.5z"/>
		<path class="st11" d="M294,236l27.3,24.6c-6.1,3.3-11.8,7.2-17.1,11.7c-1.7,1.4-4.1,1.1-5.5-0.5c-0.2-0.2-0.4-0.5-0.5-0.8
			l-12.8-28.3l4.1-6.1c0.9-1.4,2.8-1.8,4.2-0.9C293.8,235.8,293.9,235.9,294,236z"/>
		<path class="st10" d="M348.7,236l-27.4,24.6c6.1,3.3,11.8,7.2,17.1,11.7c1.7,1.4,4.1,1.1,5.5-0.5c0.2-0.2,0.4-0.5,0.5-0.8
			l12.8-28.3l-4.1-6.1c-0.8-1.3-2.6-1.8-3.9-1C349,235.7,348.8,235.9,348.7,236z"/>
		<path class="st6" d="M277,191.5l3.2,12.8c0.3,1.5,1.7,2.6,3.3,2.5l0,0c1.7,0,3.1-1.2,3.4-2.9l1.6-13c0.4-3.2-2-6.1-5.2-6.5
			c-0.2,0-0.4,0-0.6,0l0,0c-3.2-0.1-5.8,2.4-5.9,5.6C276.8,190.5,276.9,191,277,191.5z"/>
		<path class="st12" d="M72.1,268.7h59.5v18.9c0,3.3-2.7,6-6,6H66.1v-18.8c-0.1-3.3,2.5-6,5.7-6.1C71.9,268.7,72,268.7,72.1,268.7z"
			/>
		<path class="st8" d="M65.1,120.9c-61.4,0-54.6,74.6-54.5,129.1c0,2,1,3.9,2.8,4.9c6.8,4.2,25.5,13.8,51.6,13.8s44.8-9.6,51.6-13.8
			c1.8-1,2.9-2.9,2.8-4.9C119.4,195.6,126.2,120.9,65.1,120.9z"/>
		<path class="st9" d="M65.1,120.9c-61.4,0-54.6,74.6-54.5,129.1c0,2,1,3.9,2.8,4.9c6.8,4.2,25.5,13.8,51.6,13.8"/>
		<path class="st2" d="M124.3,260.6l-34.6-14.4c-2.8-1.2-4.6-4-4.7-7v-9.4H46v9.4c0.1,3.1-1.8,5.9-4.7,7L6.8,260.6"/>
		<path class="st1" d="M46.2,229.7v9.4c0.1,3.1-1.8,5.9-4.7,7L7,260.4c-4.2,1.8-6.9,5.9-7,10.4c18.5,14.7,41.4,22.7,65,22.8l0,0
			v-64.2L46.2,229.7z"/>
		<path class="st12" d="M65.8,293.6c24.1-0.2,47.4-8.9,65.8-24.4c-0.6-4-3.3-7.3-7-8.9l-33.7-13.7l-25.3,10.9"/>
		<path class="st13" d="M65.8,257.5l-25.4-10.9L7,260.3c-4.2,1.8-6.9,5.9-7,10.4c18.5,14.7,41.4,22.8,65,22.9h1.1"/>
		<path class="st11" d="M65.8,257.5l-22.3-16.6c-1.5-1-3.6-0.7-4.7,0.7l-4.3,6.4l13.8,19.4c1,1.5,3.1,1.8,4.6,0.8l0.1-0.1
			L65.8,257.5z"/>
		<path class="st10" d="M65.8,257.5l22.3-16.6c1.5-1,3.6-0.7,4.7,0.7l4.3,6.4l-13.8,19.4c-1,1.5-3.1,1.8-4.6,0.8l-0.1-0.1
			L65.8,257.5z"/>
		<path class="st6" d="M84.3,155.9c-19.3,19.3-57.4,4-57.4,34.8l2.6,22.9c0.5,5.1,3.5,9.6,8.1,11.9l22.1,12.3c3.5,2.1,8,2.1,11.5,0
			l22-12.1c4.5-2.4,7.5-6.9,8.1-11.9l2.8-27c0.2-2,0.2-4.1,0.2-6.1C102.1,170.9,88,163.5,84.3,155.9z"/>
		<path class="st7" d="M65.1,239.5c2,0,3.9-0.5,5.7-1.4l22.1-12.3c4.5-2.4,7.5-6.9,8.1-11.9l2.8-27c0.2-2,0.2-4.1,0.2-6.1
			c-1.4-9.9-15.3-17.2-19.3-24.7c-5.5,5.5-12.3,8.3-19.3,9.9"/>
		<path class="st13" d="M66,293.6H6c-3.3,0-6-2.7-6-6v-16.9h66.1C66,270.8,66,293.6,66,293.6z"/>
		<polygon class="st1" points="261.7,281.5 261.7,233.5 138,233.5 138,281.5 199.9,336.4 		"/>
		<polyline class="st2" points="200.2,332.1 262.1,277 262.1,229.1 200.2,229.1 		"/>
		<path class="st14" d="M357.2,303.9l-84.8-20.1c-1.3-0.2-2.5-0.7-3.6-1.4L200,322.5l-66.3-42.2c-1.7,1.6-3.9,2.8-6.2,3.4
			l-84.8,20.1c-12.4,3-21.1,14-21.1,26.7v53.9c0,7.6,6.2,13.8,13.8,13.8h329.4c7.6,0,13.8-6.2,13.8-13.8v-53.8
			C378.4,317.9,369.6,306.9,357.2,303.9z"/>
		<path class="st14" d="M200.2,398.5h164.1c7.6,0,13.8-6.2,13.8-13.8v-53.9c0-12.7-8.7-23.8-21.1-26.7L272.2,284
			c-1.3-0.2-2.5-0.7-3.6-1.4l-68.5,40.2"/>
		<path class="st15" d="M199.9,322.6l-66.3-42c-1.7,1.6-3.9,2.8-6.2,3.4l-84.8,20.1c-12.4,3-21.1,14-21.1,26.7v53.9
			c0,7.6,6.2,13.8,13.8,13.8h165.2"/>
		<path class="st5" d="M110.6,75.7l5.9,131.5c0.6,12.3,6.6,23.6,16.4,31l28.4,21.4c7.1,5.4,15.8,8.3,24.7,8.3h27.4
			c8.9-0.1,17.6-3,24.7-8.3l28.4-21.4c9.8-7.4,15.8-18.8,16.4-31l5.9-131.5L110.6,75.7L110.6,75.7z"/>
		<path class="st6" d="M111.2,75.7l5.9,131.5c0.6,12.3,6.6,23.6,16.4,31l28.4,21.4c7.1,5.4,15.8,8.3,24.7,8.3H214
			c8.9-0.1,17.6-3,24.7-8.3l28.4-21.4c9.8-7.4,15.8-18.8,16.4-31l6-131.5L111.2,75.7L111.2,75.7z"/>
		<path class="st7" d="M200.2,267.8H214c8.9-0.1,17.6-3,24.7-8.3l28.4-21.4c9.8-7.4,15.8-18.8,16.4-31l5.9-131.5h-89.2"/>
		<path class="st3" d="M241.7,30.3l6.4,45.5c29.2,5.8,33.4,52.1,34.3,65c0.1,2.5,0.8,4.9,2.2,6.9l11.2,17.4c0,0-3.9-28.7,13.8-48.1
			C309.1,116.8,315.3,2.7,241.7,30.3z"/>
		<path class="st7" d="M302.5,161.7l-7.7,31c-0.7,3.9-4.1,6.2-8,6.2l0,0c-4.1,0-7.6-3.1-8.1-7.2l-4-31.6
			c-0.9-7.8,4.7-14.9,12.5-15.8c0.5-0.1,1.1-0.1,1.6-0.1l0,0c7.9,0.1,14.2,6.7,14.1,14.6C302.8,159.8,302.7,160.8,302.5,161.7z"/>
		<path class="st4" d="M117.3,17.9l10.1,7c-45.9,33.7-37.2,92-37.2,92C104,130.7,104,165,104,165l13.8-13.8c0,0-5.2-39.6,20.4-54.9
			c23.9-14.1,45.1-7,66.6-7c57.4,0,73.6-21.7,70.7-48.1c-1.4-13.8-22.2-42-75.4-41.2C178.4,0.5,138,6.9,117.3,17.9z"/>
		<path class="st4" d="M117.3,17.9l10.1,7c-45.9,33.7-37.2,92-37.2,92C104,130.7,104,165,104,165l13.8-13.8c0,0-5.2-39.6,20.4-54.9
			c22.6-13.4,42.3-7.7,62.2-7"/>
		<path class="st3" d="M200.2,89.2c1.4,0,2.8,0.1,4.1,0.1c57.4,0,73.6-21.7,70.7-48.1C273.8,27.4,252.9-0.7,199.8,0"/>
		<path class="st6" d="M97.5,161.7l7.7,31c0.7,3.9,4.1,6.2,8,6.2l0,0c4.1,0,7.6-3.1,8.1-7.2l4-31.6c0.9-7.8-4.7-14.9-12.5-15.8
			c-0.5-0.1-1.1-0.1-1.6-0.1l0,0C102,144.2,95.1,153,97.5,161.7z"/>
		<path class="st10" d="M305,384.4h-48.1c-3.8-0.1-6.9,3-7,6.8c0,0.1,0,0.1,0,0.2v7h61.9v-7c0.2-3.6-2.5-6.7-6.1-7
			C305.5,384.4,305.2,384.4,305,384.4z"/>
		<path class="st11" d="M137.2,266.1l62.6,56.4c0,0-17.5,8.7-39.2,26.7c-4.4,3.9-11.2,2.2-13.8-3l-29.5-64.8l9.4-13.9
			c2.1-3.2,6.5-4.1,9.7-2C136.7,265.7,136.9,265.9,137.2,266.1z"/>
		<path class="st10" d="M262.7,266.1L200,322.5c0,0,17.5,8.7,39.2,26.7c4.4,3.9,11.2,2.2,13.8-3l29.5-64.8l-9.4-13.9
			C270.4,264,265.7,263.2,262.7,266.1z"/>
		<line class="st0" x1="51.4" y1="103.2" x2="346.5" y2="103.2"/>
	</g>
</g>
</svg>
