<svg xmlns="http://www.w3.org/2000/svg" viewBox="0 0 143.46 138.91"><defs><style>.cls-1{fill:#ebebeb;}.cls-2{fill:#c9d4d7;}.cls-3{fill:#8b979a;}.cls-4{fill:#2e424a;}.cls-5{fill:#2b3a43;}.cls-6{fill:none;stroke:#2e424a;stroke-miterlimit:10;stroke-width:2px;}.cls-7{fill:#0096ea;}.cls-8{fill:#008ad9;}.cls-9{fill:#d0ebfb;}</style></defs><title>well-documented</title><g id="Слой_2" data-name="Слой 2"><g id="Слой_1-2" data-name="Слой 1"><polygon class="cls-1" points="53.26 12.84 48.26 0 0 0 0 82.63 66.11 82.63 66.11 17.84 53.26 12.84"/><polyline class="cls-2" points="66.11 17.84 66.11 82.63 33.19 82.63 33.19 0 47.39 0"/><polyline class="cls-3" points="49.69 1.43 66.11 17.84 48.26 17.84 48.26 0"/><line class="cls-3" x1="58.82" x2="60.59" y2="1.77"/><path class="cls-4" d="M33.19,37.18h-24a.88.88,0,0,1-.88-.89h0a.88.88,0,0,1,.88-.89H33.17"/><path class="cls-5" d="M33.17,35.4h23.7a.89.89,0,0,1,.89.89h0a.89.89,0,0,1-.89.89H33.19"/><path class="cls-4" d="M33.19,41.32h-24a.88.88,0,0,1-.88-.89h0a.88.88,0,0,1,.88-.89H33.17"/><path class="cls-5" d="M33.17,39.54h23.7a.89.89,0,0,1,.89.89h0a.89.89,0,0,1-.89.89H33.19"/><path class="cls-4" d="M33.19,45.45h-24a.87.87,0,0,1-.88-.88h0a.88.88,0,0,1,.88-.89H33.17"/><path class="cls-5" d="M33.17,43.68h23.7a.89.89,0,0,1,.89.89h0a.88.88,0,0,1-.89.88H33.19"/><path class="cls-4" d="M33.19,49.59h-24a.88.88,0,0,1-.88-.89h0a.87.87,0,0,1,.88-.88H33.17"/><path class="cls-5" d="M33.17,47.82h23.7a.88.88,0,0,1,.89.88h0a.89.89,0,0,1-.89.89H33.19"/><path class="cls-4" d="M33.19,53.73h-24a.88.88,0,0,1-.88-.89h0A.88.88,0,0,1,9.23,52H33.17"/><path class="cls-5" d="M33.17,52h23.7a.89.89,0,0,1,.89.89h0a.89.89,0,0,1-.89.89H33.19"/><path class="cls-4" d="M33.19,57.87h-24A.88.88,0,0,1,8.35,57h0a.88.88,0,0,1,.88-.89H33.17"/><path class="cls-5" d="M33.17,56.09h23.7a.89.89,0,0,1,.89.89h0a.89.89,0,0,1-.89.89H33.19"/><path class="cls-5" d="M53.28,21.74H40.62a.89.89,0,0,1-.88-.89h0a.89.89,0,0,1,.88-.89H53.28"/><path class="cls-5" d="M44.22,20H56.87a.89.89,0,0,1,.89.89h0a.89.89,0,0,1-.89.89H44.22"/><path class="cls-5" d="M53.29,25.38H40.64a.88.88,0,0,1-.89-.88h0a.89.89,0,0,1,.89-.89H53.29"/><path class="cls-5" d="M44.23,23.61H56.88a.89.89,0,0,1,.89.89h0a.88.88,0,0,1-.89.88H44.23"/><path class="cls-5" d="M53.27,29H40.62a.89.89,0,0,1-.89-.89h0a.88.88,0,0,1,.89-.88H53.27"/><path class="cls-5" d="M44.21,27.21H56.86a.88.88,0,0,1,.89.88h0a.89.89,0,0,1-.89.89H44.21"/><polygon class="cls-1" points="123.38 29.81 115.57 9.74 40.13 9.74 40.13 138.91 143.46 138.91 143.46 37.62 123.38 29.81"/><polyline class="cls-2" points="143.46 37.62 143.46 138.91 92.01 138.91 92.01 9.74 114.21 9.74"/><polyline class="cls-3" points="115.57 9.74 143.46 37.62 115.57 37.62 115.57 9.74"/><path class="cls-4" d="M92,67.86H54.56a1.39,1.39,0,0,1-1.39-1.39h0a1.39,1.39,0,0,1,1.39-1.39H92"/><path class="cls-5" d="M92,65.08h37a1.39,1.39,0,0,1,1.39,1.39h0A1.39,1.39,0,0,1,129,67.86H92"/><path class="cls-4" d="M92,74.32H54.56a1.38,1.38,0,0,1-1.39-1.38h0a1.39,1.39,0,0,1,1.39-1.39H92"/><path class="cls-5" d="M92,71.55h37a1.39,1.39,0,0,1,1.39,1.39h0A1.38,1.38,0,0,1,129,74.32H92"/><path class="cls-4" d="M92,80.79H54.56a1.39,1.39,0,0,1-1.39-1.39h0A1.38,1.38,0,0,1,54.56,78H92"/><path class="cls-5" d="M92,78h37a1.38,1.38,0,0,1,1.39,1.38h0A1.39,1.39,0,0,1,129,80.79H92"/><path class="cls-4" d="M92,87.26H54.56a1.39,1.39,0,0,1-1.39-1.39h0a1.38,1.38,0,0,1,1.39-1.38H92"/><path class="cls-5" d="M92,84.49h37a1.38,1.38,0,0,1,1.39,1.38h0A1.39,1.39,0,0,1,129,87.26H92"/><path class="cls-4" d="M92,93.72H54.56a1.38,1.38,0,0,1-1.39-1.38h0A1.39,1.39,0,0,1,54.56,91H92"/><path class="cls-5" d="M92,91h37a1.39,1.39,0,0,1,1.39,1.39h0A1.38,1.38,0,0,1,129,93.72H92"/><path class="cls-4" d="M92,100.19H54.56a1.38,1.38,0,0,1-1.39-1.38h0a1.39,1.39,0,0,1,1.39-1.39H92"/><path class="cls-5" d="M92,97.42h37a1.39,1.39,0,0,1,1.39,1.39h0a1.38,1.38,0,0,1-1.39,1.38H92"/><path class="cls-4" d="M92,106.66H54.56a1.39,1.39,0,0,1-1.39-1.39h0a1.38,1.38,0,0,1,1.39-1.38H92"/><path class="cls-5" d="M92,103.89h37a1.38,1.38,0,0,1,1.39,1.38h0a1.39,1.39,0,0,1-1.39,1.39H92"/><path class="cls-4" d="M92,113.13H54.56a1.39,1.39,0,0,1-1.39-1.39h0a1.38,1.38,0,0,1,1.39-1.38H92"/><path class="cls-5" d="M92,110.36h37a1.38,1.38,0,0,1,1.39,1.38h0a1.39,1.39,0,0,1-1.39,1.39H92"/><path class="cls-5" d="M126.16,43.75H106.39A1.45,1.45,0,0,1,105,42.33h0A1.39,1.39,0,0,1,106.36,41h19.78"/><path class="cls-5" d="M109.25,41H129a1.39,1.39,0,0,1,1.39,1.39h0A1.39,1.39,0,0,1,129,43.75H109.25"/><path class="cls-4" d="M126.15,49.45H106.38A1.39,1.39,0,0,1,105,48.06h0a1.39,1.39,0,0,1,1.39-1.39h19.77"/><path class="cls-5" d="M109.22,46.65H129A1.38,1.38,0,0,1,130.38,48h0A1.38,1.38,0,0,1,129,49.42H109.22"/><path class="cls-4" d="M126.15,55.07H106.38A1.39,1.39,0,0,1,105,53.68h0a1.38,1.38,0,0,1,1.39-1.38h19.77"/><path class="cls-5" d="M109.18,52.27H129a1.38,1.38,0,0,1,1.38,1.38h0A1.38,1.38,0,0,1,129,55H109.18"/><rect class="cls-6" x="9.39" y="19.39" width="17.92" height="11.13" rx="0.79" ry="0.79"/><circle class="cls-7" cx="71.71" cy="40.19" r="18.22"/><path class="cls-7" d="M71.71,58.65a18.22,18.22,0,1,1,0-36.44"/><path class="cls-8" d="M71.71,22.21a18.22,18.22,0,1,1,0,36.44"/><path class="cls-2" d="M71.71,33.85h.12a2.78,2.78,0,0,0,.57,0,1.45,1.45,0,0,0,.48-.18h.05a2.78,2.78,0,0,0,.52-.3,4,4,0,0,0,.4-.35l0,0a2.64,2.64,0,0,0,.31-.39,1.65,1.65,0,0,0,.22-.44s0,0,0-.09a2.9,2.9,0,0,0,.18-.57,2.69,2.69,0,0,0,0-.57,2.78,2.78,0,0,0,0-.57,5.13,5.13,0,0,0-.18-.57,2.55,2.55,0,0,0-.53-.79l-.08-.08a4,4,0,0,0-.44-.35c-.18-.09-.31-.18-.48-.27a2.32,2.32,0,0,0-.53-.17,2.4,2.4,0,0,0-.57-.05h-.12"/><path class="cls-9" d="M71.71,28a2.22,2.22,0,0,0-.45.05,2.18,2.18,0,0,0-.53.17h0a4.11,4.11,0,0,0-.48.27,2.71,2.71,0,0,0-.44.35,3.08,3.08,0,0,0-.35.39,3.57,3.57,0,0,0-.26.48,2.21,2.21,0,0,0-.18.53,2.93,2.93,0,0,0,0,.57,2.78,2.78,0,0,0,0,.57,3.26,3.26,0,0,0,.18.7,3,3,0,0,0,.26.48c.09.13.22.27.31.4a4.18,4.18,0,0,0,.43.39,1.46,1.46,0,0,0,.53.26,2,2,0,0,0,.57.18,2.5,2.5,0,0,0,.45,0"/><path class="cls-2" d="M71.71,52.83h3.54a1.13,1.13,0,0,0,1.14-1.14V49.33a1.18,1.18,0,0,0-1.14-1.19h-1V37.4a1.13,1.13,0,0,0-1.14-1.14H71.71"/><path class="cls-9" d="M71.71,36.26H68.5a1.13,1.13,0,0,0-1.14,1.14v2.37a1.13,1.13,0,0,0,1.14,1.14h.92v7.28H68.5a1.13,1.13,0,0,0-1.14,1.14v2.36a1.13,1.13,0,0,0,1.14,1.14h3.21"/></g></g></svg>