<svg xmlns="http://www.w3.org/2000/svg" viewBox="0 0 143.4 138.9"><defs><style>.cls-1{fill:#ebebeb;}.cls-2{fill:#c9d4d7;}.cls-3{fill:#8b979a;}.cls-4{fill:#2e424a;}.cls-5{fill:#2b3a43;}.cls-6{fill:none;stroke:#2e424a;stroke-miterlimit:10;stroke-width:2px;}.cls-7{fill:#0096ea;}.cls-8{fill:#008ad9;}.cls-9{fill:#d0ebfb;}</style></defs><title>Well-documented</title><g id="Слой_2" data-name="Слой 2"><g id="Слой_1-2" data-name="Слой 1"><g id="Слой_1-3" data-name="Слой 1"><polygon class="cls-1" points="53.2 12.8 48.2 0 0 0 0 82.6 66.1 82.6 66.1 17.8 53.2 12.8"/><polyline class="cls-2" points="66.1 17.8 66.1 82.6 33.2 82.6 33.2 0 47.4 0"/><polyline class="cls-3" points="49.7 1.4 66.1 17.8 48.2 17.8 48.2 0"/><path class="cls-4" d="M33.2,37.2H9.2a.9.9,0,0,1-.9-.9h0a.9.9,0,0,1,.9-.9H33.1"/><path class="cls-5" d="M33.1,35.4H56.8a.9.9,0,0,1,.9.9h0a.9.9,0,0,1-.9.9H33.1"/><path class="cls-4" d="M33.2,41.3H9.2a.9.9,0,0,1-.9-.9h0a.9.9,0,0,1,.9-.9H33.1"/><path class="cls-5" d="M33.1,39.5H56.8a.9.9,0,0,1,.9.9h0a.9.9,0,0,1-.9.9H33.1"/><path class="cls-4" d="M33.2,45.5H9.2a.9.9,0,0,1-.9-.9h0a.9.9,0,0,1,.9-.9H33.1"/><path class="cls-5" d="M33.1,43.7H56.8a.9.9,0,0,1,.9.9h0a.9.9,0,0,1-.9.9H33.1"/><path class="cls-4" d="M33.2,49.6H9.2a.9.9,0,0,1-.9-.9h0a.9.9,0,0,1,.9-.9H33.1"/><path class="cls-5" d="M33.1,47.8H56.8a.9.9,0,0,1,.9.9h0a.9.9,0,0,1-.9.9H33.1"/><path class="cls-4" d="M33.2,53.7H9.2a.9.9,0,0,1-.9-.9h0a.9.9,0,0,1,.9-.9H33.1"/><path class="cls-5" d="M33.1,52H56.8a.9.9,0,0,1,.9.9h0a.9.9,0,0,1-.9.9H33.1"/><path class="cls-4" d="M33.2,57.9H9.2a.9.9,0,0,1-.9-.9h0a.9.9,0,0,1,.9-.9H33.1"/><path class="cls-5" d="M33.1,56.1H56.8a.9.9,0,0,1,.9.9h0a.9.9,0,0,1-.9.9H33.1"/><path class="cls-5" d="M53.2,21.7H42.06a.85.85,0,0,1-.79-.9h0a.85.85,0,0,1,.79-.9H53.2"/><path class="cls-5" d="M44.2,20H56.9a.9.9,0,0,1,.9.9h0a.9.9,0,0,1-.9.9H44.2"/><path class="cls-5" d="M53.3,25.4H41.14a.88.88,0,0,1-.87-.9h0a.88.88,0,0,1,.87-.9H53.3"/><path class="cls-5" d="M44.2,23.6H56.9a.9.9,0,0,1,.9.9h0a.9.9,0,0,1-.9.9H44.2"/><path class="cls-5" d="M53.2,29H41.13a.88.88,0,0,1-.86-.9h0a.88.88,0,0,1,.86-.9H53.2"/><path class="cls-5" d="M44.2,27.2H56.9a.9.9,0,0,1,.9.9h0a.9.9,0,0,1-.9.9H44.2"/><polygon class="cls-1" points="123.4 29.8 115.5 9.7 40.1 9.7 40.1 138.9 143.4 138.9 143.4 37.6 123.4 29.8"/><polyline class="cls-2" points="143.4 37.6 143.4 138.9 92 138.9 92 9.7 114.2 9.7"/><polyline class="cls-3" points="115.5 9.7 143.4 37.6 115.5 37.6 115.5 9.7"/><path class="cls-4" d="M92,67.9H54.5a1.37,1.37,0,0,1-1.4-1.4h0a1.37,1.37,0,0,1,1.4-1.4H91.9"/><path class="cls-5" d="M91.9,65.1h37a1.37,1.37,0,0,1,1.4,1.4h0a1.37,1.37,0,0,1-1.4,1.4h-37"/><path class="cls-4" d="M92,74.3H54.5a1.37,1.37,0,0,1-1.4-1.4h0a1.37,1.37,0,0,1,1.4-1.4H91.9"/><path class="cls-5" d="M91.9,71.5h37a1.37,1.37,0,0,1,1.4,1.4h0a1.37,1.37,0,0,1-1.4,1.4h-37"/><path class="cls-4" d="M92,80.8H54.5a1.37,1.37,0,0,1-1.4-1.4h0A1.37,1.37,0,0,1,54.5,78H91.9"/><path class="cls-5" d="M91.9,78h37a1.37,1.37,0,0,1,1.4,1.4h0a1.37,1.37,0,0,1-1.4,1.4h-37"/><path class="cls-4" d="M92,87.3H54.5a1.37,1.37,0,0,1-1.4-1.4h0a1.37,1.37,0,0,1,1.4-1.4H91.9"/><path class="cls-5" d="M91.9,84.5h37a1.37,1.37,0,0,1,1.4,1.4h0a1.37,1.37,0,0,1-1.4,1.4h-37"/><path class="cls-4" d="M92,93.7H54.5a1.37,1.37,0,0,1-1.4-1.4h0a1.37,1.37,0,0,1,1.4-1.4H91.9"/><path class="cls-5" d="M91.9,91h37a1.37,1.37,0,0,1,1.4,1.4h0a1.37,1.37,0,0,1-1.4,1.4h-37"/><path class="cls-4" d="M92,100.2H54.5a1.37,1.37,0,0,1-1.4-1.4h0a1.37,1.37,0,0,1,1.4-1.4H91.9"/><path class="cls-5" d="M91.9,97.4h37a1.37,1.37,0,0,1,1.4,1.4h0a1.37,1.37,0,0,1-1.4,1.4h-37"/><path class="cls-4" d="M92,106.7H54.5a1.37,1.37,0,0,1-1.4-1.4h0a1.37,1.37,0,0,1,1.4-1.4H91.9"/><path class="cls-5" d="M91.9,103.9h37a1.37,1.37,0,0,1,1.4,1.4h0a1.37,1.37,0,0,1-1.4,1.4h-37"/><path class="cls-4" d="M92,113.1H54.5a1.37,1.37,0,0,1-1.4-1.4h0a1.37,1.37,0,0,1,1.4-1.4H91.9"/><path class="cls-5" d="M91.9,110.4h37a1.37,1.37,0,0,1,1.4,1.4h0a1.37,1.37,0,0,1-1.4,1.4h-37"/><path class="cls-5" d="M126.1,43.7H106.4a1.37,1.37,0,0,1-1.4-1.4h0a1.37,1.37,0,0,1,1.4-1.4h19.8"/><path class="cls-5" d="M109.2,41H129a1.37,1.37,0,0,1,1.4,1.4h0a1.37,1.37,0,0,1-1.4,1.4H109.2"/><path class="cls-4" d="M126.1,49.4H106.3a1.37,1.37,0,0,1-1.4-1.4h0a1.37,1.37,0,0,1,1.4-1.4h19.8"/><path class="cls-5" d="M109.2,46.6H129a1.37,1.37,0,0,1,1.4,1.4h0a1.37,1.37,0,0,1-1.4,1.4H109.2"/><path class="cls-4" d="M126.1,55.1H106.3a1.37,1.37,0,0,1-1.4-1.4h0a1.37,1.37,0,0,1,1.4-1.4h19.8"/><path class="cls-5" d="M109.2,52.3H129a1.37,1.37,0,0,1,1.4,1.4h0a1.37,1.37,0,0,1-1.4,1.4H109.2"/><path class="cls-6" d="M26.5,30.5H10.2a.86.86,0,0,1-.8-.8V20.1a.86.86,0,0,1,.8-.8H26.5a.86.86,0,0,1,.8.8v9.6A.79.79,0,0,1,26.5,30.5Z"/><circle class="cls-7" cx="71.7" cy="40.2" r="18.2"/><path class="cls-7" d="M71.7,58.6a18.2,18.2,0,0,1,0-36.4"/><path class="cls-8" d="M71.7,22.2a18.2,18.2,0,1,1,0,36.4"/><path class="cls-2" d="M71.7,33.9h.7a.76.76,0,0,0,.5-.2h0a2.19,2.19,0,0,0,.5-.3c.1-.1.3-.2.4-.4h0c.1-.1.2-.3.3-.4a.76.76,0,0,0,.2-.4v-.1c.1-.2.1-.4.2-.6V30.3a1.42,1.42,0,0,0-.2-.6,2.18,2.18,0,0,0-.5-.8l-.1-.1c-.1-.1-.3-.2-.4-.4s-.3-.2-.5-.3-.4-.1-.5-.2h-.7"/><path class="cls-9" d="M71.7,28h-.4a.76.76,0,0,0-.5.2h0a2.19,2.19,0,0,0-.5.3.78.78,0,0,0-.4.4l-.4.4a2.19,2.19,0,0,0-.3.5c-.1.2-.1.4-.2.5v1.2a1.17,1.17,0,0,0,.2.7,2.19,2.19,0,0,0,.3.5c.1.1.2.3.3.4l.4.4a2.19,2.19,0,0,0,.5.3c.2.1.4.1.6.2h.4"/><path class="cls-2" d="M71.7,52.8h3.5a1.11,1.11,0,0,0,1.1-1.1V49.3a1.13,1.13,0,0,0-1.1-1.2h-1V37.4a1.11,1.11,0,0,0-1.1-1.1H71.7"/><path class="cls-9" d="M71.7,36.3H68.5a1.11,1.11,0,0,0-1.1,1.1v2.4a1.11,1.11,0,0,0,1.1,1.1h.9v7.3h-.9a1.11,1.11,0,0,0-1.1,1.1v2.4a1.11,1.11,0,0,0,1.1,1.1h3.2"/></g></g></g></svg>