<?xml version="1.0" encoding="utf-8"?>
<!-- Generator: Adobe Illustrator 22.0.1, SVG Export Plug-In . SVG Version: 6.00 Build 0)  -->
<svg version="1.1" id="Слой_1" xmlns="http://www.w3.org/2000/svg" xmlns:xlink="http://www.w3.org/1999/xlink" x="0px" y="0px"
	 viewBox="0 0 398.9 400" style="enable-background:new 0 0 398.9 400;" xml:space="preserve">
<style type="text/css">
	.st0{display:none;fill:#45B39C;}
	.st1{fill:#008AD9;}
	.st2{fill:#2F4859;}
	.st3{fill:#2B3A43;}
	.st4{fill:#2E424A;}
	.st5{fill:#D8E3E6;}
	.st6{fill:#C8D1D4;}
	.st7{fill:#17242A;}
	.st8{fill:#0096EA;}
</style>
<circle class="st0" cx="199.4" cy="199.4" r="199.4"/>
<path class="st1" d="M363,116.5c21,10,35.3,30.1,35.3,53.3S384,213.1,363,223.1"/>
<path class="st2" d="M186.5,322.9c2.7,0,4.8-2.2,4.8-4.8v-37c0-2.7-2.2-4.8-4.8-4.8h-13.4l8.2,46.6L186.5,322.9L186.5,322.9z"/>
<path class="st3" d="M178.4,305.8l3,17.1h5.2v0c2.7,0,4.8-2.2,4.8-4.8v-37c0-2.7-2.2-4.8-4.8-4.8h-7.9"/>
<path class="st4" d="M178.6,276.3h-5.4l5.2,29.5"/>
<path class="st5" d="M131.3,395.3c0.5,2.7,2.8,4.7,5.5,4.7h18.9h39.1h1.3c6,0,10.9-4.9,10.9-10.9l0,0c0-6-4.9-10.9-10.9-10.9
	c-3,0-5.5-2.1-6.1-5.1l-8.8-50.3l-8.2-46.6l-6.1-34.5h-62.8L131.3,395.3z"/>
<path class="st6" d="M177.9,400h17h1.3c6,0,10.9-4.9,10.9-10.9l0,0c0-6-4.9-10.9-10.9-10.9c-3,0-5.5-2.1-6.1-5.1l-8.8-50.3l-3-17.1"
	/>
<path class="st5" d="M178.4,305.8l-5.2-29.5l-6.1-34.5h-62.8l27,153.6c0.5,2.7,2.8,4.7,5.5,4.7h18.9h22.1"/>
<path class="st4" d="M9.5,131c-5.2,0-9.5,4.2-9.5,9.5v54.8c0,5.2,4.2,9.5,9.5,9.5h8.2V131H9.5z"/>
<path class="st7" d="M27.2,115.9c-5.2,0-9.5,4.2-9.5,9.5v5.7v73.7v5.7c0,5.2,4.2,9.5,9.5,9.5h26v-104H27.2z"/>
<polygon class="st1" points="53.1,103.5 53.1,115.9 53.1,219.9 53.1,232.2 80.8,241.8 80.8,94 "/>
<polygon class="st8" points="80.8,94 80.8,241.8 102.1,241.8 158.8,241.8 178.6,241.8 178.6,94 "/>
<polygon class="st6" points="178.4,94 178.4,241.8 325.4,319.8 325.4,15.9 "/>
<path class="st3" d="M344.2,0c-10.4,0-18.8,6.9-18.8,15.5v0.4v303.9v0.4c0,8.6,8.4,15.5,18.8,15.5c10.4,0,18.8-6.9,18.8-15.5V15.5
	C363,6.9,354.6,0,344.2,0z"/>
</svg>
