<svg xmlns="http://www.w3.org/2000/svg" viewBox="0 0 145.1 133.4"><defs><style>.cls-1{fill:#8b979a;}.cls-2{fill:#23343a;}.cls-3{fill:#152024;}.cls-4{fill:#d8e3e6;}.cls-5{fill:#adadad;}.cls-6{fill:#c8d1d4;}.cls-7{fill:#18252b;}.cls-10,.cls-8,.cls-9{fill:none;stroke-miterlimit:10;}.cls-8{stroke:#00544f;}.cls-9{stroke:#00393a;}.cls-10{stroke:#003b58;}.cls-11{fill:#008ad9;}.cls-12{fill:#1c292f;}.cls-13{fill:#1a272d;}.cls-14{fill:#9e672d;}.cls-15{fill:#f7333a;}</style></defs><title>white-label</title><g id="Слой_2" data-name="Слой 2"><g id="Слой_1-2" data-name="Слой 1"><g id="Слой_1-3" data-name="Слой 1"><g id="Слой_1-4" data-name="Слой 1"><g id="Слой_1-5" data-name="Слой 1"><polygon class="cls-1" points="81.96 94.75 84.54 115.72 57.66 115.72 60.24 94.75 81.96 94.75"/><polygon class="cls-2" points="83.62 108.61 81.96 94.75 60.24 94.75 58.58 108.61 83.62 108.61"/><path class="cls-3" d="M71.15,19.25h57.28a3.6,3.6,0,0,1,3.6,3.6V81.43a3.6,3.6,0,0,1-3.6,3.6H71.15"/><path class="cls-4" d="M39.72,84.89H4.8V93a3.47,3.47,0,0,0,3.42,3.41H123A3.47,3.47,0,0,0,126.39,93V84.89Z"/><path class="cls-5" d="M71,82.6H42.9"/><path class="cls-6" d="M71,96.43h57.46A3.47,3.47,0,0,0,131.84,93V84.79H71"/><path class="cls-7" d="M128.32,84.75H10V22.67a3.42,3.42,0,0,1,3.41-3.42H128.32a3.43,3.43,0,0,1,3.42,3.42V81.43A3.22,3.22,0,0,1,128.32,84.75Z"/><g id="Слой_3" data-name="Слой 3"><path class="cls-3" d="M71.05,19.25h57.2a3.61,3.61,0,0,1,3.69,3.51V82.91a2,2,0,0,1-2,1.94l-58.76-.08"/><rect class="cls-8" x="21.44" y="36.54" width="47.58" height="13.77"/><rect class="cls-9" x="72.9" y="36.54" width="50.54" height="20.7"/><rect class="cls-9" x="73.18" y="60.66" width="22.64" height="17"/><rect class="cls-9" x="99.51" y="60.66" width="23.93" height="17"/><rect class="cls-9" x="99.8" y="75.7" width="23.1" height="17.4"/><rect class="cls-10" x="21.44" y="53.36" width="21.44" height="24.3"/><rect class="cls-10" x="45.37" y="53.27" width="23.65" height="12.1"/><rect class="cls-10" x="45.37" y="68.14" width="23.65" height="9.52"/></g><path class="cls-6" d="M94.06,117H48.23a1.76,1.76,0,0,1,0-3.51H94.06a1.7,1.7,0,0,1,1.76,1.75A1.76,1.76,0,0,1,94.06,117Z"/><path class="cls-4" d="M140.5,70H100.7a4.48,4.48,0,0,0-4.5,4.5V76l3.6,25.8-3.6,25.6v1.5a4.48,4.48,0,0,0,4.5,4.5h39.8a4.48,4.48,0,0,0,4.5-4.5v-1.5l-4-25.6L145,76V74.5A4.48,4.48,0,0,0,140.5,70Z"/><path class="cls-5" d="M126.9,85h-1.3"/><path class="cls-5" d="M116.7,133.4h2.6"/><rect class="cls-7" x="96.2" y="76" width="48.8" height="51.4"/><rect class="cls-11" x="21.44" y="28.32" width="6.19" height="2.86"/><rect class="cls-11" x="101.4" y="80.7" width="7.1" height="2.8"/><rect class="cls-9" x="127.9" y="98.6" width="13" height="13"/><rect class="cls-8" x="101.4" y="88.7" width="16.1" height="11.2"/><rect class="cls-8" x="101.4" y="103.2" width="16.1" height="18.9"/><path class="cls-4" d="M31.7,85.87v2L15.85,90.4,0,87.81v-2a4.6,4.6,0,0,1,4.64-4.63H27A4.85,4.85,0,0,1,31.7,85.87Z"/><path class="cls-4" d="M15.85,121.94l15.85,3.92v2.35A4.69,4.69,0,0,1,27.07,133H4.64A4.7,4.7,0,0,1,0,128.21V126Z"/><path class="cls-6" d="M15.85,81.13h11A4.83,4.83,0,0,1,31.7,86v42.18A4.83,4.83,0,0,1,26.85,133h-11"/><path class="cls-12" d="M15.85,131.2a1.41,1.41,0,1,1,1.4-1.4A1.36,1.36,0,0,1,15.85,131.2Z"/><rect class="cls-13" y="87.81" width="31.7" height="38.1"/><path class="cls-6" d="M121.2,70h19.5a4.35,4.35,0,0,1,4.4,4.3v54.6a4.35,4.35,0,0,1-4.4,4.3H121.2"/><g id="Слой_4" data-name="Слой 4"><rect class="cls-3" x="121.2" y="76" width="23.8" height="51.4"/><rect class="cls-3" x="15.85" y="87.81" width="15.85" height="38.1"/><rect class="cls-4" y="87.6" width="0.54" height="38.68"/><rect class="cls-6" x="31.17" y="87.38" width="0.54" height="38.64"/><rect class="cls-4" x="96.2" y="75.7" width="0.5" height="51.9"/><rect class="cls-6" x="144.5" y="75.7" width="0.5" height="51.9"/></g><g id="Слой_2-2" data-name="Слой 2"><circle class="cls-12" cx="71.15" cy="90.96" r="2.03"/><circle class="cls-12" cx="121.2" cy="130.2" r="1.3"/><circle class="cls-14" cx="133.7" cy="83" r="0.9"/><circle class="cls-14" cx="137.3" cy="83" r="0.9"/><circle class="cls-15" cx="140.6" cy="83" r="0.9"/><circle class="cls-14" cx="119.3" cy="27.9" r="1"/><circle class="cls-15" cx="27.71" cy="92.34" r="0.65"/><circle class="cls-14" cx="25.56" cy="92.38" r="0.65"/><path class="cls-14" d="M23.29,91.7a.67.67,0,0,1,.65.68.62.62,0,0,1-.65.61.65.65,0,0,1,0-1.29Z"/><circle class="cls-14" cx="123.1" cy="27.9" r="1"/><circle class="cls-14" cx="126.6" cy="27.9" r="1"/><rect class="cls-9" x="124.8" y="88.7" width="16" height="33.4"/><rect class="cls-8" x="3.67" y="98.2" width="9.27" height="23.94"/><rect class="cls-9" x="18.44" y="98.2" width="9.27" height="23.94"/><rect class="cls-11" x="3" y="91.19" width="7.1" height="2.8"/><path class="cls-1" d="M87.9,32.6a4.47,4.47,0,1,1,4,8l4.2,8.5L144.3,25,131.8,0,83.6,24.1l4.3,8.5"/><path class="cls-4" d="M100,25.4h0a.93.93,0,0,1,.4-1.2L129,9.9a.93.93,0,0,1,1.2.4h0a.93.93,0,0,1-.4,1.2L101.2,25.7A.86.86,0,0,1,100,25.4Z"/><path class="cls-4" d="M102.4,30.4h0a.93.93,0,0,1,.4-1.2L131.4,15a.93.93,0,0,1,1.2.4h0a.93.93,0,0,1-.4,1.2L103.6,30.8A1,1,0,0,1,102.4,30.4Z"/><path class="cls-4" d="M105.2,35.18h0a.93.93,0,0,1,.4-1.2l28.6-14.2a.93.93,0,0,1,1.2.4h0a.93.93,0,0,1-.4,1.2l-28.6,14.2A1,1,0,0,1,105.2,35.18Z"/></g><path class="cls-1" d="M83.6,24.2,77.4,42.9l18.7,6.2,6.2-18.7Zm4.8,16.7a4.49,4.49,0,1,1,5.7-2.8A4.43,4.43,0,0,1,88.4,40.9Z"/></g></g></g></g></g></svg>