<svg xmlns="http://www.w3.org/2000/svg" width="369.938" height="83" viewBox="0 0 369.938 83">
  <metadata><?xpacket begin="﻿" id="W5M0MpCehiHzreSzNTczkc9d"?>
<x:xmpmeta xmlns:x="adobe:ns:meta/" x:xmptk="Adobe XMP Core 5.6-c138 79.159824, 2016/09/14-01:09:01        ">
   <rdf:RDF xmlns:rdf="http://www.w3.org/1999/02/22-rdf-syntax-ns#">
      <rdf:Description rdf:about=""/>
   </rdf:RDF>
</x:xmpmeta>
                                                                                                    
                                                                                                    
                                                                                                    
                                                                                                    
                                                                                                    
                                                                                                    
                                                                                                    
                                                                                                    
                                                                                                    
                                                                                                    
                                                                                                    
                                                                                                    
                                                                                                    
                                                                                                    
                                                                                                    
                                                                                                    
                                                                                                    
                                                                                                    
                                                                                                    
                                                                                                    
                           
<?xpacket end="w"?></metadata>
<defs>
    <style>
      .cls-1 {
        fill: #fff;
        fill-rule: evenodd;
      }
    </style>
  </defs>
  <path id="Kształt_1" data-name="Kształt 1" class="cls-1" d="M158.071,21.129l-0.047-.049a26.853,26.853,0,0,0-9.108-6.071l-0.174-.068a32.923,32.923,0,0,0-23.222,0q-0.1.039-.207,0.081a26.646,26.646,0,0,0-9.087,6.143l-0.046.047q-0.3.312-.584,0.633-0.327-.363-0.668-0.715l-0.048-.049a26.84,26.84,0,0,0-9.11-6.072l-0.173-.068a32.922,32.922,0,0,0-23.222,0q-0.1.039-.207,0.081a26.858,26.858,0,0,0-3.761,1.892,7.991,7.991,0,0,0-6.031-3.967,20.062,20.062,0,0,0-2.248-.127q-0.233,0-.467.006a18.8,18.8,0,0,0-7.493,1.6,7.932,7.932,0,0,0-3.656-.887H50.5V8.469A8.019,8.019,0,0,0,42.5.43H8A8.019,8.019,0,0,0,0,8.469V59.05a8.019,8.019,0,0,0,8,8.039H21.816a8.019,8.019,0,0,0,8-8.039V48.282h8.372V59.05a8.019,8.019,0,0,0,8,8.039H59.648a8.019,8.019,0,0,0,8-8.039V51.32A25.783,25.783,0,0,0,73.2,59.725l0.038,0.038a26.266,26.266,0,0,0,9.193,5.976A31.192,31.192,0,0,0,93.606,67.8l0.331,0q0.4,0.011.8,0.011a30.039,30.039,0,0,0,14.779-3.9c0.072-.04.142-0.082,0.212-0.124a25.986,25.986,0,0,0,5.93-4.781q0.331,0.363.679,0.714l0.038,0.038a26.27,26.27,0,0,0,9.191,5.975A31.2,31.2,0,0,0,136.75,67.8l0.329,0q0.4,0.011.808,0.011a30.045,30.045,0,0,0,14.78-3.9c0.072-.041.144-0.083,0.214-0.126a26.01,26.01,0,0,0,9.938-10.514,8.079,8.079,0,0,0,.886-4.147,8.033,8.033,0,0,0,1.388-3.369c0.125-.754.229-1.569,0.318-2.494,0.1-.992.145-1.987,0.144-2.958a28.914,28.914,0,0,0-1.815-10.176A25.53,25.53,0,0,0,158.071,21.129ZM319,22.055a20.153,20.153,0,0,0-3.238-3.4c-4.674-3.861-10.986-5.819-18.777-5.83-0.186,0-.372,0-0.557,0h0a38.087,38.087,0,0,0-12.931,2.257,7.931,7.931,0,0,0-4.709-1.541H266.1a7.957,7.957,0,0,0-2.344.352,7.959,7.959,0,0,0-2.336-.35h-10.7a7.948,7.948,0,0,0-3.188.666,7.948,7.948,0,0,0-3.188-.666h-10.7a7.963,7.963,0,0,0-2.338.351,7.951,7.951,0,0,0-2.339-.351h-5.742a8.053,8.053,0,0,0-4.418-7.2c-1.225-.616-2.613-1.275-4.125-1.959a56.9,56.9,0,0,0-5.34-2.082A51.277,51.277,0,0,0,203.351.7,34.972,34.972,0,0,0,196.429,0h-0.168A30.622,30.622,0,0,0,186.808,1.5a26.386,26.386,0,0,0-8.553,4.635,23.405,23.405,0,0,0-6.37,8.2l-0.03.065a25.278,25.278,0,0,0-2.247,10.764,22.924,22.924,0,0,0,1.148,7.422c0.013,0.04.027,0.08,0.04,0.12A18.6,18.6,0,0,0,174,38.43l-5.767,11.806A8.06,8.06,0,0,0,171.345,60.7a43.378,43.378,0,0,0,6.039,2.97,58.284,58.284,0,0,0,6.388,2.14,56.866,56.866,0,0,0,6.7,1.405,47.047,47.047,0,0,0,6.81.512,37.78,37.78,0,0,0,8.749-1.03,26.359,26.359,0,0,0,8.787-3.817l0.06-.041a21.805,21.805,0,0,0,6.615-7.208l2.624,6.456a8,8,0,0,0,7.405,5H242.5a7.972,7.972,0,0,0,5.031-1.789,7.967,7.967,0,0,0,5.03,1.789h10.986a8,8,0,0,0,7.405-5l1.935-4.761a19.509,19.509,0,0,0,3.854,4.907,20.567,20.567,0,0,0,6.756,4.136,22.2,22.2,0,0,0,7.853,1.431h0.16a23.1,23.1,0,0,0,10.36-2.467c0.082-.04.163-0.081,0.244-0.123l0.238-.127q0.219,0.151.449,0.287a17.559,17.559,0,0,0,8.943,2.452c0.3,0,.6-0.008.9-0.023,0.167,0,.335-0.007.5-0.012a8.035,8.035,0,0,0,2.265,5.569,31.457,31.457,0,0,0,10.438,7.151l0.161,0.066a34.249,34.249,0,0,0,12.672,2.42q0.321,0,.642-0.006h0.322a37.177,37.177,0,0,0,11.343-1.771,29.4,29.4,0,0,0,9.788-5.314l0.056-.046a25.207,25.207,0,0,0,6.771-8.914,27.22,27.22,0,0,0,2.346-11.363V21.577a8.019,8.019,0,0,0-8-8.039H350.262a7.936,7.936,0,0,0-3.431.775,23.125,23.125,0,0,0-8.15-1.495h0l-0.342,0h-0.217a24.491,24.491,0,0,0-18.21,8.146"/>
</svg>